<svg preserveAspectRatio="xMidYMid meet" data-bbox="0 0.009 286.72 484.751" viewBox="0 0 286.73 484.76" xmlns="http://www.w3.org/2000/svg" data-type="ugc" role="presentation" aria-hidden="true" aria-label="">
    <g>
        <path d="M181.29 57.16c-.4-.97-.9-1.88-1.49-2.72.4-.2.79-.43 1.14-.72.92-.64 1.79-1.34 2.6-2.12 1.83-1.82 2.13-4.16.74-5.55-1.19-1.19-3.06-1.13-4.72.04-.02-2.54-1.45-4.39-3.45-4.39s-3.45 1.87-3.45 4.45c0 .8.05 1.98.26 3.17a13.7 13.7 0 0 0-4.86-.72c-11.5 0-21.85 11.35-21.85 23.81v7.11h-22.48c-9.27-18.48-13.61-21.56-17.25-20.41-6.04 1.89-4.7 18.94-2.59 32.74 1.37 12.75 9.05 23.87 20.35 29l5.39 18.71c.29.98 1.19 1.66 2.21 1.66h18.25a2.3 2.3 0 0 0 0-4.6h-7.03l-4.36-12.44c1.68.21 3.22.38 4.19.41 5.35.19 10.55-1.78 15.26-4.29h.01c1.31-.71 1.7-2.42.84-3.63-.6-.84-1.72-1.1-2.62-.6-4.05 2.23-8.65 4.04-13.58 3.93-2.79-.06-8.37-.6-11.1-1.17-5.38-1.12-10.11-4.32-14.01-8.2a32.18 32.18 0 0 1-9.26-19.36c-1.94-12.73-2.18-25.3-.58-27.6.85.41 4.23 2.99 12.06 18.65-.34 2.96-.12 5.96.68 8.84 1.23 4.73 4.54 11.29 13.32 15.67.32.16.67.24 1.02.24a2.294 2.294 0 0 0 .98-4.35c-11.04-5.49-11.76-14.81-11.57-18.52h24.08a2.3 2.3 0 0 0 2.3-2.3v-9.41c0-10.02 8.24-19.21 17.25-19.21a9.12 9.12 0 0 1 8.97 5.69c.07.21.16.41.29.59l1.15 1.64h-1.85c-1.85 0-4.4.29-5.98 1.74a7.9 7.9 0 0 0-2.5 5.46l-.09.64c-.08.55.05 1.11.34 1.59 2.81 4.54 4.46 9.71 4.79 15.04.53 8.39-2.2 16.23-7.08 22.31a2.28 2.28 0 0 0-.08 2.75c.87 1.22 2.68 1.31 3.62.14 9.36-11.65 11.08-28.33 3.04-41.97.22-1.51.31-1.94.95-2.52.92-.49 1.96-.7 3-.6h.09c1.27.03 5.59-.16 6.08-.16a2.289 2.289 0 0 0 1.81-3.58l-3.27-4.84Zm-50.8 65.82s1.32.22 3.07.48l4.62 13.16h-4.61l-3.99-13.87c.3.08.61.16.92.23Z" stroke="#ffffff" stroke-miterlimit="10" stroke-width="2.33" fill="#ffffff"></path>
        <path d="M189.91 165.73c-16.31 10.1-35.58 14.69-54.7 12.86-16.34-1.57-32.25-7.85-45.21-17.92-11.8-9.17-21.17-21.38-27.01-35.14-5.94-14.01-8.07-29.49-6.27-44.59 1.85-15.49 7.99-30.46 17.49-42.83 9.09-11.84 21.27-21.2 34.97-27.12s29.39-8.2 44.45-6.49c15.47 1.76 30.39 7.78 42.81 17.14 11.92 8.98 21.37 21.12 27.39 34.76 6.11 13.87 8.43 29.3 6.84 44.36-.41 3.84-1.1 7.65-2.01 11.41-.6 2.47 3.21 3.52 3.81 1.05 3.8-15.7 3.48-32.27-1.14-47.77-4.45-14.92-12.74-28.66-23.89-39.53-11.55-11.25-26.05-19.31-41.7-23.2-15.62-3.88-32.18-3.61-47.64.91C103.15 8 89.37 16.21 78.44 27.3S58.99 53.22 55.02 68.84c-3.99 15.66-3.79 32.3.68 47.84 4.31 14.97 12.48 28.77 23.53 39.75s25.73 19.48 41.25 23.53c19.39 5.06 40.13 3.6 58.6-4.18 4.45-1.87 8.73-4.08 12.83-6.62 2.16-1.33.18-4.75-1.99-3.41Z" fill="#ffffff"></path>
        <path d="M64.9 234.9v-26.21h10.99q3.075 0 5.4.87c1.55.58 2.78 1.54 3.66 2.89.89 1.35 1.33 3.19 1.33 5.53 0 2.15-.47 3.93-1.41 5.35s-2.21 2.47-3.81 3.16-3.42 1.04-5.44 1.04h-4.03v7.37h-6.7Zm6.7-13.33h4.03q1.92 0 3-.93c.72-.62 1.07-1.49 1.07-2.63 0-1.01-.31-1.78-.94-2.31s-1.68-.8-3.17-.8h-4v6.66Z" fill="#ffffff"></path>
        <path d="M88.92 234.9v-19.51h5.74l.44 1.85c.49-.72 1.04-1.23 1.63-1.55a5 5 0 0 1 1.78-.59c.59-.07 1.13-.11 1.63-.11.42 0 .8 0 1.15.02.35.01.57.03.67.06v6.33h-1.26c-.91 0-1.77.12-2.57.35s-1.44.68-1.92 1.33-.72 1.64-.72 2.94v8.88h-6.55Z" fill="#ffffff"></path>
        <path d="M113.09 235.19c-1.93 0-3.66-.38-5.2-1.15-1.54-.76-2.77-1.89-3.68-3.39-.91-1.49-1.37-3.31-1.37-5.46s.46-4.05 1.39-5.57 2.15-2.67 3.68-3.46 3.22-1.18 5.07-1.18 3.61.41 5.13 1.22 2.73 1.99 3.63 3.52 1.35 3.39 1.35 5.59-.43 3.92-1.3 5.4a8.37 8.37 0 0 1-3.55 3.35c-1.51.75-3.22 1.13-5.14 1.13Zm-.11-6.07c.94 0 1.68-.2 2.22-.59s.93-.89 1.15-1.5c.22-.6.33-1.2.33-1.79s-.11-1.21-.33-1.85-.6-1.18-1.13-1.63c-.53-.44-1.28-.67-2.24-.67s-1.68.22-2.24.67c-.55.44-.94.98-1.17 1.61-.22.63-.33 1.25-.33 1.87s.12 1.23.35 1.83.62 1.1 1.17 1.48q.81.57 2.22.57" fill="#ffffff"></path>
        <path d="M134.23 235.16c-2.29 0-4.05-.65-5.26-1.96s-1.81-3.06-1.81-5.26v-6.7h-2.74v-5.85h2.74v-4.89h6.55v4.89h5.85v5.85h-5.85v5.18c0 .54.09 1.01.28 1.39.18.38.47.67.85.87s.86.3 1.42.3c.62 0 1.12-.09 1.52-.28s.72-.38.96-.57l1.78 5.15c-.57.47-1.23.85-1.98 1.13s-1.51.48-2.26.59-1.44.17-2.05.17Z" fill="#ffffff"></path>
        <path d="M151.29 235.19c-2 0-3.74-.4-5.24-1.2a8.55 8.55 0 0 1-3.48-3.42c-.83-1.48-1.24-3.24-1.24-5.29s.42-3.84 1.26-5.39c.84-1.54 2.01-2.75 3.52-3.61s3.26-1.3 5.26-1.3c1.43 0 2.71.22 3.85.67 1.13.44 2.11 1.09 2.92 1.92.81.84 1.44 1.85 1.87 3.04.43 1.18.65 2.52.65 4q0 .63-.06 1.2c-.04.38-.1.78-.2 1.2h-12.58c.05.47.2.91.46 1.33s.62.75 1.09 1 1.06.37 1.78.37c.59 0 1.1-.07 1.54-.2.43-.14.78-.31 1.05-.54s.44-.44.52-.67h6.4c-.35 1.6-.98 2.92-1.91 3.94a8.3 8.3 0 0 1-3.33 2.24c-1.3.47-2.67.7-4.13.7Zm-3.37-12.43h6.59c0-.37-.11-.76-.31-1.17-.21-.41-.55-.75-1.04-1.02-.48-.27-1.12-.41-1.91-.41s-1.39.14-1.89.41c-.49.27-.86.61-1.09 1.02-.24.41-.35.8-.35 1.17" fill="#ffffff"></path>
        <path d="M166.69 214.06c-1.18 0-2.14-.35-2.87-1.06s-1.09-1.62-1.09-2.76.38-2.11 1.15-2.85q1.14-1.11 2.85-1.11c1.71 0 2.01.35 2.78 1.06.77.7 1.15 1.66 1.15 2.87s-.37 2.09-1.09 2.79-1.68 1.06-2.87 1.06Zm-3.3 20.84v-19.51h6.55v19.51z" fill="#ffffff"></path>
        <path d="M173.46 234.9v-19.51h6.03l.37 1.78c.62-.64 1.28-1.12 1.98-1.42s1.39-.51 2.05-.61c.67-.1 1.23-.15 1.7-.15 1.83 0 3.26.42 4.31 1.26s1.8 1.95 2.24 3.33.67 2.9.67 4.55v10.77h-6.55v-10.22c0-.39-.04-.81-.13-1.24s-.24-.83-.44-1.2-.5-.67-.87-.91c-.37-.23-.85-.35-1.44-.35-.77 0-1.4.17-1.91.52s-.88.81-1.11 1.39-.35 1.23-.35 1.94v10.07z" fill="#ffffff"></path>
        <path d="M202.33 235.19c-.91 0-1.78-.12-2.59-.37s-1.54-.62-2.17-1.11a5.3 5.3 0 0 1-1.5-1.85c-.37-.74-.56-1.62-.56-2.63 0-1.48.32-2.64.94-3.48.63-.84 1.48-1.46 2.55-1.85s2.29-.65 3.67-.76c1.37-.11 2.79-.17 4.27-.17h.89q0-.705-.33-1.26c-.22-.37-.54-.67-.94-.89s-.91-.33-1.5-.33c-.42 0-.83.06-1.22.19-.4.12-.72.29-.98.5s-.41.46-.46.76h-6.51c.15-1.21.51-2.25 1.07-3.13.57-.88 1.28-1.59 2.15-2.15.86-.56 1.83-.97 2.91-1.24 1.07-.27 2.19-.41 3.35-.41 2.86 0 5.03.8 6.5 2.39s2.2 3.93 2.2 7.01v10.48h-6.03v-2.55c-.64.96-1.36 1.64-2.17 2.04-.8.4-1.53.63-2.18.7s-1.1.11-1.35.11Zm1.78-4.99c.62 0 1.22-.15 1.8-.46q.87-.465 1.44-1.17t.57-1.41v-.15h-3.66c-.3 0-.58.03-.85.09s-.51.15-.72.28c-.21.12-.38.28-.5.48s-.19.44-.19.74c0 .35.09.64.28.87s.44.41.76.54c.32.12.68.19 1.07.19" fill="#ffffff"></path>
        <path d="M225.5 235.19c-.96 0-1.94-.11-2.92-.33q-1.485-.33-2.76-1.11c-1.275-.78-1.57-1.23-2.17-2.13-.59-.9-.99-2.03-1.18-3.39h6.62c.1.32.28.6.54.85q.39.375.96.57c.38.14.79.2 1.24.2.3 0 .56-.02.8-.07.23-.05.44-.13.61-.24q.255-.165.39-.39c.09-.15.13-.31.13-.48 0-.35-.14-.6-.41-.76s-.64-.28-1.11-.37-1-.19-1.59-.31c-.91-.2-1.89-.45-2.94-.76s-1.93-.7-2.65-1.17a4.5 4.5 0 0 1-.94-.83q-.39-.465-.63-1.02c-.24-.555-.28-.75-.35-1.15-.07-.39-.11-.81-.11-1.26 0-1.13.25-2.09.76-2.87s1.16-1.4 1.96-1.87q1.2-.705 2.67-1.02c.97-.21 1.93-.31 2.87-.31 1.38 0 2.67.22 3.87.67 1.2.44 2.2 1.16 3 2.15s1.3 2.29 1.5 3.92h-6.33c-.05-.44-.29-.79-.72-1.04s-.96-.37-1.57-.37c-.25 0-.48.02-.68.07-.21.05-.39.11-.55.19a.8.8 0 0 0-.5.71q0 .15.09.33c.06.12.18.24.35.35s.41.22.7.31c.81.2 1.59.37 2.31.52.73.15 1.46.3 2.2.44.81.15 1.62.4 2.41.76s1.45.9 1.98 1.61c.53.72.8 1.72.8 3s-.26 2.31-.78 3.16-1.2 1.52-2.05 2.02-1.78.85-2.79 1.07-2.01.33-3 .33Z" fill="#ffffff"></path>
        <path d="M30.88 272.21c-.96 0-1.94-.11-2.92-.33q-1.485-.33-2.76-1.11c-.85-.52-1.57-1.23-2.17-2.13-.59-.9-.99-2.03-1.19-3.39h6.63c.1.32.28.6.54.85s.58.44.96.57.8.2 1.24.2c.3 0 .56-.02.8-.07.23-.05.44-.13.61-.24q.255-.165.39-.39c.135-.225.13-.31.13-.48 0-.35-.14-.6-.41-.76s-.64-.28-1.11-.37-1-.19-1.59-.31c-.91-.2-1.89-.45-2.94-.76s-1.93-.7-2.65-1.17c-.37-.25-.69-.52-.94-.83a4.1 4.1 0 0 1-.63-1.02c-.16-.37-.28-.75-.35-1.15-.07-.39-.11-.81-.11-1.26 0-1.13.25-2.09.76-2.87s1.16-1.4 1.96-1.87 1.69-.81 2.67-1.02c.97-.21 1.93-.31 2.87-.31 1.38 0 2.67.22 3.87.67 1.2.44 2.2 1.16 3 2.15s1.3 2.29 1.5 3.92h-6.33c-.05-.44-.29-.79-.72-1.04s-.96-.37-1.57-.37a2.9 2.9 0 0 0-1.24.26.85.85 0 0 0-.37.3c-.09.12-.13.26-.13.41q0 .15.09.33c.06.12.18.24.35.35s.41.22.7.31c.81.2 1.58.37 2.31.52s1.46.3 2.2.44c.81.15 1.62.4 2.41.76s1.45.9 1.98 1.61c.53.72.79 1.72.79 3s-.26 2.31-.78 3.16-1.2 1.52-2.05 2.02c-.85.49-1.78.85-2.79 1.07q-1.515.33-3 .33Z" fill="#ffffff"></path>
        <path d="M51.17 272.21c-2 0-3.75-.4-5.24-1.2a8.55 8.55 0 0 1-3.48-3.42c-.83-1.48-1.24-3.24-1.24-5.29s.42-3.84 1.26-5.39c.84-1.54 2.01-2.75 3.52-3.61 1.5-.86 3.26-1.3 5.26-1.3 1.43 0 2.71.22 3.85.67 1.13.44 2.11 1.09 2.92 1.92.81.84 1.44 1.85 1.87 3.04s.65 2.52.65 4q0 .63-.06 1.2c-.04.38-.11.78-.2 1.2H47.7c.05.47.2.91.46 1.33s.62.75 1.09 1 1.06.37 1.78.37c.59 0 1.1-.07 1.54-.2.43-.14.78-.31 1.06-.54.27-.22.44-.44.52-.67h6.4c-.35 1.6-.98 2.92-1.91 3.94a8.2 8.2 0 0 1-3.33 2.24c-1.29.47-2.67.7-4.13.7Zm-3.37-12.44h6.59c0-.37-.1-.76-.31-1.17s-.56-.75-1.04-1.02-1.12-.41-1.91-.41-1.39.14-1.89.41c-.49.27-.86.61-1.09 1.02s-.35.8-.35 1.17" fill="#ffffff"></path>
        <path d="M63.27 271.91V245.7h6.55v26.21z" fill="#ffffff"></path>
        <path d="M82.55 272.21c-2 0-3.74-.4-5.24-1.2a8.55 8.55 0 0 1-3.48-3.42c-.83-1.48-1.24-3.24-1.24-5.29s.42-3.84 1.26-5.39c.84-1.54 2.01-2.75 3.52-3.61 1.5-.86 3.26-1.3 5.26-1.3 1.43 0 2.71.22 3.85.67 1.13.44 2.11 1.09 2.92 1.92.81.84 1.44 1.85 1.87 3.04s.65 2.52.65 4q0 .63-.06 1.2c-.04.38-.1.78-.2 1.2H79.08c.05.47.2.91.46 1.33s.62.75 1.09 1 1.06.37 1.78.37c.59 0 1.1-.07 1.54-.2.43-.14.78-.31 1.05-.54s.44-.44.52-.67h6.4c-.35 1.6-.98 2.92-1.91 3.94a8.3 8.3 0 0 1-3.33 2.24c-1.29.47-2.67.7-4.13.7Zm-3.36-12.44h6.59c0-.37-.11-.76-.31-1.17-.21-.41-.56-.75-1.04-1.02s-1.12-.41-1.91-.41-1.39.14-1.89.41c-.49.27-.86.61-1.09 1.02-.24.41-.35.8-.35 1.17" fill="#ffffff"></path>
        <path d="M104.02 272.21c-1.97 0-3.69-.39-5.15-1.18s-2.58-1.93-3.39-3.42c-.8-1.49-1.2-3.29-1.2-5.39s.41-4.02 1.24-5.53c.83-1.52 1.98-2.68 3.46-3.48s3.2-1.2 5.15-1.2c1.75 0 3.31.32 4.66.96 1.36.64 2.43 1.57 3.22 2.78q1.185 1.815 1.26 4.44h-6.29c-.15-.72-.48-1.26-.98-1.63-.51-.37-1.12-.56-1.83-.56q-1.335 0-2.07.69c-.735.69-.84 1.01-1.04 1.67-.2.65-.3 1.28-.3 1.87q0 1.005.33 1.92c.22.62.58 1.12 1.07 1.52s1.15.59 1.96.59 1.43-.19 1.92-.57.8-.91.93-1.57h6.51c-.05 1.78-.51 3.26-1.37 4.46s-2 2.1-3.41 2.72-2.97.93-4.7.93Z" fill="#ffffff"></path>
        <path d="M125.42 272.21c-1.97 0-3.69-.39-5.14-1.18q-2.19-1.185-3.39-3.42c-.8-1.49-1.2-3.29-1.2-5.39s.41-4.02 1.24-5.53c.83-1.52 1.98-2.68 3.46-3.48s3.2-1.2 5.14-1.2c1.75 0 3.31.32 4.66.96 1.36.64 2.43 1.57 3.22 2.78q1.185 1.815 1.26 4.44h-6.29c-.15-.72-.47-1.26-.98-1.63s-1.12-.56-1.83-.56q-1.335 0-2.07.69c-.49.46-.84 1.01-1.04 1.67s-.3 1.28-.3 1.87q0 1.005.33 1.92c.22.62.58 1.12 1.07 1.52s1.15.59 1.96.59 1.43-.19 1.92-.57.8-.91.92-1.57h6.52c-.05 1.78-.51 3.26-1.37 4.46s-2 2.1-3.41 2.72-2.97.93-4.7.93Z" fill="#ffffff"></path>
        <path d="M140.74 251.07c-1.18 0-2.14-.35-2.87-1.06s-1.09-1.62-1.09-2.76.38-2.11 1.15-2.85q1.14-1.11 2.85-1.11c1.71 0 2.01.35 2.78 1.06.77.7 1.15 1.66 1.15 2.87s-.37 2.09-1.09 2.79-1.68 1.06-2.87 1.06Zm-3.3 20.84V252.4h6.55v19.51z" fill="#ffffff"></path>
        <path d="M157.02 272.21c-1.92 0-3.66-.38-5.2-1.15-1.54-.76-2.77-1.89-3.68-3.39-.91-1.49-1.37-3.31-1.37-5.46s.46-4.05 1.39-5.57 2.15-2.67 3.68-3.46 3.22-1.18 5.07-1.18 3.61.41 5.13 1.22 2.73 1.99 3.63 3.52 1.35 3.39 1.35 5.59-.43 3.92-1.29 5.4a8.37 8.37 0 0 1-3.55 3.35c-1.5.75-3.22 1.13-5.15 1.13Zm-.11-6.07c.94 0 1.68-.2 2.22-.59s.92-.89 1.15-1.5c.22-.6.33-1.2.33-1.79s-.11-1.21-.33-1.85-.6-1.18-1.13-1.63c-.53-.44-1.28-.67-2.24-.67s-1.68.22-2.24.67c-.56.44-.94.98-1.17 1.61-.22.63-.33 1.25-.33 1.87s.12 1.23.35 1.83.62 1.1 1.17 1.48q.81.57 2.22.57" fill="#ffffff"></path>
        <path d="M169.76 271.91V252.4h6.03l.37 1.78c.62-.64 1.28-1.12 1.98-1.42s1.39-.51 2.05-.61c.67-.1 1.23-.15 1.7-.15 1.83 0 3.26.42 4.31 1.26s1.8 1.95 2.24 3.33.67 2.9.67 4.55v10.77h-6.55v-10.22c0-.39-.04-.81-.13-1.24a4.1 4.1 0 0 0-.44-1.2c-.21-.37-.5-.67-.87-.91-.37-.23-.85-.35-1.44-.35-.76 0-1.4.17-1.91.52s-.88.81-1.11 1.39-.35 1.23-.35 1.94v10.07z" fill="#ffffff"></path>
        <path d="M198.63 272.21c-.91 0-1.78-.12-2.59-.37s-1.54-.62-2.17-1.11-1.13-1.11-1.5-1.85-.56-1.62-.56-2.63c0-1.48.32-2.64.94-3.48.63-.84 1.48-1.46 2.55-1.85s2.29-.65 3.67-.76c1.37-.11 2.79-.17 4.27-.17h.89q0-.705-.33-1.26c-.33-.555-.54-.67-.94-.89q-.615-.33-1.5-.33c-.42 0-.83.06-1.22.19-.4.12-.72.29-.98.5s-.41.46-.46.76h-6.51c.15-1.21.51-2.25 1.07-3.13s1.28-1.59 2.15-2.15 1.83-.97 2.91-1.24c1.07-.27 2.19-.41 3.35-.41 2.86 0 5.03.8 6.5 2.39s2.2 3.93 2.2 7.01v10.48h-6.03v-2.55c-.64.96-1.36 1.64-2.17 2.04-.8.4-1.53.63-2.18.7s-1.1.11-1.35.11Zm1.78-5c.62 0 1.21-.15 1.79-.46q.87-.465 1.44-1.17t.57-1.41v-.15h-3.66c-.3 0-.58.03-.85.09s-.51.15-.72.28c-.21.12-.38.28-.5.48s-.18.44-.18.74c0 .35.09.64.28.87s.44.41.76.54c.32.12.68.19 1.07.19" fill="#ffffff"></path>
        <path d="M221.99 272.21c-2 0-3.66-.46-4.98-1.39a8.45 8.45 0 0 1-2.96-3.68c-.65-1.53-.98-3.21-.98-5.03 0-2 .37-3.76 1.11-5.27s1.81-2.7 3.22-3.55 3.12-1.28 5.14-1.28c.67 0 1.3.07 1.91.2.6.14 1.17.33 1.68.59.52.26.95.59 1.3.98v-8.07h6.55v26.21h-6.4v-1.7c-.47.44-.99.81-1.57 1.11s-1.2.52-1.87.67-1.38.22-2.15.22Zm1.44-5.96c.99 0 1.77-.2 2.35-.61s1-.93 1.26-1.55.39-1.28.39-1.94-.13-1.35-.39-1.98-.68-1.15-1.26-1.55-1.35-.61-2.31-.61-1.77.22-2.33.67q-.855.66-1.2 1.65c-.23.65-.35 1.3-.35 1.94 0 .49.07.98.2 1.46.14.48.36.91.67 1.3.31.38.71.69 1.2.91s1.09.33 1.78.33Z" fill="#ffffff"></path>
        <path d="M243.6 272.21c-.91 0-1.78-.12-2.59-.37s-1.54-.62-2.17-1.11a5.3 5.3 0 0 1-1.5-1.85c-.37-.74-.55-1.62-.55-2.63 0-1.48.31-2.64.94-3.48s1.48-1.46 2.55-1.85 2.29-.65 3.66-.76 2.79-.17 4.28-.17h.89q0-.705-.33-1.26c-.22-.37-.54-.67-.94-.89s-.91-.33-1.5-.33c-.42 0-.83.06-1.22.19s-.72.29-.98.5-.41.46-.46.76h-6.51c.15-1.21.51-2.25 1.07-3.13.57-.88 1.28-1.59 2.15-2.15.86-.56 1.83-.97 2.91-1.24 1.07-.27 2.19-.41 3.35-.41 2.86 0 5.03.8 6.5 2.39s2.2 3.93 2.2 7.01v10.48h-6.03v-2.55c-.64.96-1.36 1.64-2.17 2.04-.8.4-1.53.63-2.18.7s-1.11.11-1.35.11Zm1.78-5c.62 0 1.21-.15 1.79-.46q.87-.465 1.44-1.17t.57-1.41v-.15h-3.67c-.3 0-.58.03-.85.09s-.51.15-.72.28-.38.28-.5.48-.18.44-.18.74c0 .35.09.64.28.87.18.23.44.41.76.54s.68.19 1.07.19Z" fill="#ffffff"></path>
        <path d="M266.77 272.21c-.96 0-1.94-.11-2.92-.33q-1.485-.33-2.76-1.11c-.85-.52-1.57-1.23-2.17-2.13-.59-.9-.99-2.03-1.19-3.39h6.63c.1.32.28.6.54.85s.58.44.96.57.8.2 1.24.2c.3 0 .56-.02.8-.07.23-.05.44-.13.61-.24q.255-.165.39-.39c.135-.225.13-.31.13-.48 0-.35-.14-.6-.41-.76s-.64-.28-1.11-.37-1-.19-1.59-.31c-.91-.2-1.89-.45-2.94-.76s-1.93-.7-2.65-1.17c-.37-.25-.69-.52-.94-.83a4.1 4.1 0 0 1-.63-1.02c-.16-.37-.28-.75-.35-1.15-.07-.39-.11-.81-.11-1.26 0-1.13.25-2.09.76-2.87s1.16-1.4 1.96-1.87 1.69-.81 2.67-1.02c.97-.21 1.93-.31 2.87-.31 1.38 0 2.67.22 3.87.67 1.2.44 2.2 1.16 3 2.15s1.3 2.29 1.5 3.92h-6.33c-.05-.44-.29-.79-.72-1.04s-.96-.37-1.57-.37a2.9 2.9 0 0 0-1.24.26.85.85 0 0 0-.37.3c-.09.12-.13.26-.13.41q0 .15.09.33c.06.12.18.24.35.35s.41.22.7.31c.81.2 1.58.37 2.31.52s1.46.3 2.2.44c.81.15 1.62.4 2.41.76s1.45.9 1.98 1.61c.53.72.79 1.72.79 3s-.26 2.31-.78 3.16-1.2 1.52-2.05 2.02c-.85.49-1.78.85-2.79 1.07q-1.515.33-3 .33Z" fill="#ffffff"></path>
        <path d="M77.57 324.56v-21.41h8.06c1.62 0 3.01.25 4.19.74a5.77 5.77 0 0 1 2.76 2.35c.66 1.07.98 2.47.98 4.21s-.36 3.04-1.09 4.15-1.72 1.94-2.97 2.5-2.69.83-4.3.83h-3.85v6.63h-3.79Zm3.79-10.02h3.79c1.39 0 2.51-.33 3.36-1s1.27-1.72 1.27-3.15c0-1.25-.35-2.2-1.06-2.83-.71-.64-1.8-.95-3.27-.95h-4.09z" fill="#ffffff"></path>
        <path d="M96.53 324.56V308.6h3.36l.21 2.09q.6-.915 1.38-1.41c.51-.33 1.07-.57 1.67-.71.59-.14 1.2-.21 1.8-.21h.62c.19 0 .35 0 .47.03v3.51h-.97c-1.05 0-1.94.2-2.67.61-.73.4-1.27.98-1.64 1.73q-.54 1.125-.54 2.76v7.57h-3.69Z" fill="#ffffff"></path>
        <path d="M115.22 324.77c-1.64 0-3.04-.33-4.22-1a6.77 6.77 0 0 1-2.73-2.85c-.64-1.23-.95-2.67-.95-4.33s.32-3.12.97-4.35c.65-1.22 1.55-2.18 2.73-2.86s2.57-1.03 4.21-1.03 3.01.34 4.18 1.03 2.07 1.65 2.7 2.89.94 2.7.94 4.38-.31 3.06-.92 4.29c-.62 1.22-1.51 2.17-2.68 2.83-1.17.67-2.57 1-4.21 1Zm-.04-3.36c1.01 0 1.82-.22 2.44-.67.62-.44 1.06-1.03 1.35-1.76.28-.73.42-1.51.42-2.36s-.14-1.65-.42-2.39q-.42-1.125-1.35-1.8c-.62-.45-1.43-.68-2.44-.68s-1.83.23-2.45.68a3.86 3.86 0 0 0-1.36 1.79c-.28.74-.42 1.54-.42 2.41s.15 1.64.44 2.38.75 1.32 1.36 1.76c.62.43 1.43.65 2.44.65Z" fill="#ffffff"></path>
        <path d="M132.36 324.74c-1.76 0-3.04-.48-3.85-1.45s-1.21-2.31-1.21-4.03v-7.39h-2.45v-3.27h2.45v-4.48h3.7v4.48h4.85v3.27H131v6.69c0 .52.06 1 .18 1.42s.34.76.67 1c.32.24.77.37 1.33.39.48 0 .9-.08 1.24-.24s.63-.34.85-.54l1.24 2.82c-.38.32-.81.59-1.29.79s-.95.34-1.44.42c-.48.08-.96.12-1.42.12" fill="#ffffff"></path>
        <path d="M145.65 324.77c-1.66 0-3.06-.34-4.22-1.03a6.6 6.6 0 0 1-2.63-2.86c-.6-1.22-.89-2.64-.89-4.25s.31-3.04.92-4.29c.62-1.24 1.5-2.22 2.67-2.92 1.16-.71 2.56-1.06 4.19-1.06 1.21 0 2.27.22 3.18.65s1.67 1.03 2.29 1.77c.62.75 1.08 1.59 1.38 2.54s.44 1.95.42 3l-.06.71c-.02.23-.05.48-.09.74H141.6c.06.71.25 1.35.56 1.94s.76 1.05 1.33 1.39c.58.34 1.3.52 2.17.52.5 0 .99-.07 1.45-.2s.87-.33 1.23-.59c.35-.26.59-.59.71-1h3.7c-.26 1.15-.75 2.09-1.45 2.82-.71.73-1.55 1.26-2.53 1.61-.98.34-2.01.51-3.1.51Zm-4-9.75h7.69c0-.67-.15-1.27-.45-1.82s-.73-.97-1.29-1.29c-.56-.31-1.23-.47-2.01-.47-.85 0-1.56.17-2.12.51s-1 .79-1.3 1.33-.47 1.12-.51 1.73Z" fill="#ffffff"></path>
        <path d="M157.73 306.75c-.71 0-1.27-.21-1.7-.64s-.64-.98-.64-1.67.22-1.22.67-1.65c.44-.43 1-.65 1.67-.65s1.2.21 1.67.64c.46.42.7.98.7 1.67s-.22 1.24-.67 1.67-1.01.64-1.7.64Zm-1.84 17.81V308.6h3.7v15.96z" fill="#ffffff"></path>
        <path d="M163.15 324.56V308.6h3.45l.21 2.03c.42-.57.92-1.01 1.48-1.33.57-.32 1.16-.56 1.79-.71s1.21-.23 1.76-.23c1.51 0 2.71.33 3.59 1s1.5 1.55 1.86 2.67.54 2.35.54 3.72v8.81h-3.7v-8.21q0-.885-.12-1.71a4.6 4.6 0 0 0-.47-1.5c-.23-.44-.56-.8-.98-1.06s-.99-.39-1.7-.39c-.87 0-1.6.23-2.21.7-.61.46-1.06 1.09-1.36 1.86-.3.78-.46 1.66-.46 2.65v7.66h-3.69Z" fill="#ffffff"></path>
        <path d="M186.41 324.77c-.75 0-1.45-.1-2.12-.3s-1.26-.5-1.79-.89-.94-.89-1.26-1.48c-.31-.59-.47-1.3-.47-2.1 0-1.03.2-1.87.61-2.53q.6-.99 1.65-1.5c.7-.34 1.49-.58 2.38-.71s1.82-.2 2.79-.2h3.12q0-1.065-.33-1.83c-.33-.765-.57-.92-1.04-1.23s-1.08-.45-1.83-.45c-.48 0-.93.06-1.35.17-.41.11-.77.28-1.06.52-.29.23-.5.53-.62.89h-3.79c.14-.83.43-1.54.86-2.13s.97-1.08 1.61-1.47c.64-.38 1.34-.67 2.11-.86s1.54-.29 2.33-.29c2.32 0 4.01.67 5.07 2s1.59 3.2 1.59 5.6v8.6h-3.27l-.09-2.06c-.46.69-1.02 1.19-1.67 1.51s-1.27.53-1.88.62-1.12.14-1.54.14Zm.73-3c.81 0 1.52-.15 2.15-.45.62-.3 1.12-.73 1.5-1.27.37-.54.56-1.17.56-1.88v-.51h-2.91c-.49 0-.96.02-1.44.05s-.9.11-1.29.24c-.38.13-.69.33-.92.59s-.35.64-.35 1.12.12.88.38 1.18c.25.3.58.54 1 .7q.615.24 1.32.24Z" fill="#ffffff"></path>
        <path d="M204.49 324.77c-.77 0-1.53-.08-2.29-.24a7.5 7.5 0 0 1-2.13-.8c-.67-.37-1.22-.88-1.67-1.53s-.74-1.45-.88-2.42h3.72c.16.44.42.8.77 1.08.35.27.77.47 1.24.61.47.13.94.2 1.41.2.28 0 .59-.02.92-.06s.65-.12.94-.24.53-.3.71-.53.27-.54.27-.92c0-.36-.1-.65-.3-.86s-.47-.38-.82-.51c-.34-.13-.76-.24-1.24-.32-.87-.18-1.8-.38-2.79-.59s-1.85-.55-2.57-1.01c-.3-.18-.57-.39-.79-.64-.22-.24-.41-.51-.56-.8s-.26-.61-.33-.95-.11-.72-.11-1.12c0-.85.18-1.57.53-2.17.35-.59.83-1.08 1.42-1.45s1.28-.65 2.04-.83 1.55-.27 2.36-.27q1.635 0 2.97.51c.89.34 1.63.87 2.23 1.57.59.71.95 1.61 1.07 2.7h-3.51c-.1-.5-.41-.91-.92-1.21s-1.17-.45-1.95-.45c-.28 0-.58.03-.88.08s-.59.13-.86.24-.5.28-.67.5-.26.5-.26.82c0 .3.08.57.23.79s.38.41.7.56c.31.15.68.28 1.11.38.69.14 1.4.28 2.15.42s1.39.28 1.94.42c.65.18 1.23.44 1.76.77.52.33.93.77 1.23 1.3.29.54.44 1.22.44 2.04 0 .97-.2 1.78-.59 2.42a4.1 4.1 0 0 1-1.56 1.51c-.65.36-1.36.63-2.15.79s-1.57.24-2.33.24Z" fill="#ffffff"></path>
        <path d="M33.52 356.74c-1.66 0-3.05-.34-4.18-1.01a6.5 6.5 0 0 1-2.57-2.86c-.59-1.23-.88-2.65-.88-4.27s.3-3.04.91-4.29c.61-1.24 1.49-2.22 2.66-2.92 1.17-.71 2.59-1.06 4.27-1.06 1.23 0 2.33.21 3.29.64s1.74 1.04 2.33 1.86.97 1.83 1.13 3.04h-3.63q-.36-1.155-1.2-1.68c-.56-.35-1.22-.53-1.98-.53-1.03 0-1.84.25-2.44.74s-1.02 1.12-1.29 1.86c-.26.75-.39 1.52-.39 2.33 0 .85.14 1.64.42 2.38q.42 1.11 1.32 1.77c.6.44 1.37.67 2.32.67.77 0 1.46-.17 2.07-.52.62-.34 1.01-.9 1.2-1.67h3.76c-.14 1.23-.55 2.26-1.23 3.07-.68.82-1.53 1.43-2.56 1.83s-2.14.61-3.33.61Z" fill="#ffffff"></path>
        <path d="M50.48 356.74c-2.3 0-4.06-.6-5.29-1.79-1.22-1.19-1.83-3.01-1.83-5.45v-8.93h3.7v8.69c0 .85.12 1.58.35 2.21s.61 1.11 1.12 1.44 1.17.5 1.95.5c.85 0 1.52-.18 2.01-.53s.84-.84 1.04-1.47.3-1.34.3-2.15v-8.69h3.7v8.93c0 2.5-.62 4.34-1.86 5.5q-1.86 1.74-5.19 1.74" fill="#ffffff"></path>
        <path d="M62.9 338.72c-.71 0-1.27-.21-1.7-.64-.42-.42-.64-.98-.64-1.67s.22-1.22.67-1.65c.44-.43 1-.65 1.67-.65s1.2.21 1.67.64c.46.42.7.98.7 1.67s-.22 1.24-.67 1.67c-.44.42-1.01.64-1.7.64Zm-1.85 17.81v-15.96h3.7v15.96z" fill="#ffffff"></path>
        <path d="M74.83 356.74c-1.62 0-2.95-.37-4-1.11s-1.83-1.72-2.35-2.95c-.51-1.23-.77-2.6-.77-4.12s.27-2.98.82-4.22c.54-1.24 1.36-2.22 2.45-2.94s2.45-1.08 4.09-1.08c.61 0 1.2.07 1.77.2.58.13 1.12.33 1.64.61.51.27.94.63 1.29 1.07v-7.09h3.69v21.41h-3.57l-.06-2c-.38.5-.83.92-1.35 1.24-.51.32-1.08.57-1.71.73s-1.27.24-1.94.24Zm.7-3.33c.97 0 1.77-.23 2.39-.68s1.09-1.06 1.41-1.82c.31-.76.47-1.56.47-2.41s-.16-1.7-.47-2.42a4.07 4.07 0 0 0-1.41-1.76c-.63-.44-1.42-.67-2.39-.67-1.03 0-1.84.23-2.44.7-.6.46-1.03 1.08-1.3 1.83-.27.76-.41 1.57-.41 2.44 0 .65.08 1.26.23 1.83.15.58.39 1.09.71 1.53s.75.79 1.27 1.04c.53.25 1.17.38 1.94.38Z" fill="#ffffff"></path>
        <path d="M92.12 356.74c-.75 0-1.45-.1-2.12-.3s-1.26-.5-1.79-.89-.94-.89-1.26-1.48c-.31-.59-.47-1.3-.47-2.1 0-1.03.2-1.87.61-2.53q.6-.99 1.65-1.5c.7-.34 1.49-.58 2.38-.71s1.82-.2 2.79-.2h3.12q0-1.065-.33-1.83c-.33-.765-.57-.92-1.04-1.23s-1.08-.45-1.83-.45c-.48 0-.93.06-1.35.17-.41.11-.77.28-1.06.52-.29.23-.5.53-.62.89h-3.79c.14-.83.43-1.54.86-2.13s.97-1.08 1.61-1.47c.64-.38 1.34-.67 2.11-.86s1.54-.29 2.33-.29c2.32 0 4.01.67 5.07 2s1.59 3.2 1.59 5.6v8.6h-3.27l-.09-2.06c-.46.69-1.02 1.19-1.67 1.51s-1.27.53-1.88.62-1.12.14-1.54.14Zm.73-3c.81 0 1.52-.15 2.15-.45.62-.3 1.12-.73 1.5-1.27.37-.54.56-1.17.56-1.88v-.51h-2.91c-.49 0-.96.02-1.44.05s-.9.11-1.29.24c-.38.13-.69.33-.92.59s-.35.64-.35 1.12.12.88.38 1.18c.25.3.58.54 1 .7q.615.24 1.32.24Z" fill="#ffffff"></path>
        <path d="M110.6 356.74c-1.62 0-2.95-.37-4-1.11s-1.83-1.72-2.35-2.95c-.51-1.23-.77-2.6-.77-4.12s.27-2.98.82-4.22c.54-1.24 1.36-2.22 2.45-2.94s2.45-1.08 4.09-1.08c.61 0 1.2.07 1.77.2.58.13 1.12.33 1.64.61.51.27.94.63 1.29 1.07v-7.09h3.69v21.41h-3.57l-.06-2c-.38.5-.83.92-1.35 1.24-.51.32-1.08.57-1.71.73s-1.27.24-1.94.24Zm.69-3.33c.97 0 1.77-.23 2.39-.68s1.09-1.06 1.41-1.82c.31-.76.47-1.56.47-2.41s-.16-1.7-.47-2.42a4.07 4.07 0 0 0-1.41-1.76c-.63-.44-1.42-.67-2.39-.67-1.03 0-1.84.23-2.44.7-.6.46-1.03 1.08-1.3 1.83-.27.76-.41 1.57-.41 2.44 0 .65.08 1.26.23 1.83.15.58.39 1.09.71 1.53s.75.79 1.27 1.04c.53.25 1.17.38 1.94.38Z" fill="#ffffff"></path>
        <path d="M130.1 356.74c-1.64 0-3.04-.33-4.22-1a6.77 6.77 0 0 1-2.73-2.85c-.64-1.23-.95-2.67-.95-4.33s.32-3.12.97-4.35c.65-1.22 1.55-2.18 2.73-2.86s2.57-1.03 4.21-1.03 3.01.34 4.18 1.03 2.07 1.65 2.7 2.89.94 2.7.94 4.38-.31 3.06-.92 4.29c-.62 1.22-1.51 2.17-2.68 2.83-1.17.67-2.57 1-4.21 1Zm-.03-3.36c1.01 0 1.82-.22 2.44-.67.62-.44 1.06-1.03 1.35-1.76.28-.73.42-1.51.42-2.36s-.14-1.65-.42-2.39q-.42-1.125-1.35-1.8c-.62-.45-1.43-.68-2.44-.68s-1.83.23-2.45.68a3.86 3.86 0 0 0-1.36 1.79c-.28.74-.42 1.54-.42 2.41s.15 1.64.44 2.38.75 1.32 1.36 1.76c.62.43 1.43.65 2.44.65Z" fill="#ffffff"></path>
        <path d="M147 356.74c-.77 0-1.53-.08-2.29-.24a7.5 7.5 0 0 1-2.13-.8c-.67-.37-1.22-.88-1.67-1.53-.44-.65-.74-1.45-.88-2.42h3.72c.16.44.42.8.77 1.08s.77.47 1.24.61c.47.13.94.2 1.41.2.28 0 .59-.02.92-.06s.65-.12.94-.24.53-.3.71-.53.27-.54.27-.92c0-.36-.1-.65-.3-.86s-.47-.38-.82-.51c-.34-.13-.76-.24-1.24-.32-.87-.18-1.8-.38-2.79-.59s-1.85-.55-2.57-1.01c-.3-.18-.56-.39-.79-.64-.22-.24-.41-.51-.56-.8s-.26-.61-.33-.95-.11-.72-.11-1.12c0-.85.18-1.57.53-2.17.35-.59.83-1.08 1.42-1.45s1.28-.65 2.04-.83 1.55-.27 2.36-.27q1.635 0 2.97.51c.89.34 1.63.87 2.23 1.57.6.71.95 1.61 1.07 2.7h-3.51c-.1-.5-.41-.91-.92-1.21q-.78-.45-1.95-.45c-.28 0-.58.03-.88.08s-.59.13-.86.24-.49.28-.67.5c-.17.22-.26.5-.26.82 0 .3.08.57.23.79s.38.41.7.56c.31.15.68.28 1.11.38.69.14 1.4.28 2.15.42s1.39.28 1.94.42c.65.18 1.23.44 1.76.77.52.33.93.77 1.23 1.3.29.54.44 1.22.44 2.04 0 .97-.2 1.78-.59 2.42a4.1 4.1 0 0 1-1.56 1.51c-.65.36-1.36.63-2.15.79s-1.57.24-2.33.24Z" fill="#ffffff"></path>
        <path d="M161.44 356.74c-.75 0-1.45-.1-2.12-.3s-1.26-.5-1.79-.89-.94-.89-1.26-1.48c-.31-.59-.47-1.3-.47-2.1 0-1.03.2-1.87.61-2.53q.6-.99 1.65-1.5c.7-.34 1.49-.58 2.38-.71s1.82-.2 2.79-.2h3.12q0-1.065-.33-1.83c-.33-.765-.57-.92-1.04-1.23s-1.08-.45-1.83-.45c-.48 0-.93.06-1.35.17-.41.11-.77.28-1.06.52-.29.23-.5.53-.62.89h-3.79c.14-.83.43-1.54.86-2.13s.97-1.08 1.61-1.47c.64-.38 1.34-.67 2.11-.86s1.54-.29 2.33-.29c2.32 0 4.01.67 5.07 2s1.59 3.2 1.59 5.6v8.6h-3.27l-.09-2.06c-.46.69-1.02 1.19-1.67 1.51s-1.27.53-1.88.62-1.12.14-1.54.14Zm.73-3c.81 0 1.52-.15 2.15-.45.62-.3 1.12-.73 1.5-1.27.37-.54.56-1.17.56-1.88v-.51h-2.91c-.49 0-.96.02-1.44.05s-.9.11-1.29.24c-.38.13-.69.33-.92.59s-.35.64-.35 1.12.12.88.38 1.18c.25.3.58.54 1 .7q.615.24 1.32.24Z" fill="#ffffff"></path>
        <path d="M173.41 356.53v-15.96h3.39l.24 1.82q.6-.81 1.32-1.26c.47-.29.97-.5 1.48-.62.52-.12 1-.18 1.47-.18 1.01 0 1.87.2 2.59.61.72.4 1.28 1.01 1.68 1.82.4-.57.86-1.02 1.36-1.38.5-.35 1.04-.62 1.61-.79s1.16-.26 1.79-.26c1.23 0 2.22.26 2.97.77.75.52 1.29 1.22 1.64 2.12.34.9.51 1.92.51 3.07v10.24h-3.69v-9.06c0-.4-.02-.83-.06-1.27s-.15-.86-.32-1.24-.42-.7-.74-.94-.78-.36-1.36-.36-1.06.13-1.44.38c-.37.25-.68.58-.91 1s-.39.87-.48 1.36c-.09.5-.14.98-.14 1.47v8.66h-3.7v-9.09c0-.38-.03-.79-.08-1.23-.05-.43-.15-.85-.3-1.24s-.39-.71-.73-.95q-.495-.36-1.38-.36c-.85 0-1.49.23-1.92.7-.43.46-.73 1.03-.88 1.7s-.23 1.3-.23 1.91v8.57h-3.7Z" fill="#ffffff"></path>
        <path d="M206.02 356.74c-1.66 0-3.06-.34-4.22-1.03a6.6 6.6 0 0 1-2.63-2.86c-.6-1.22-.89-2.64-.89-4.25s.31-3.04.92-4.29c.62-1.24 1.5-2.22 2.67-2.92 1.16-.71 2.56-1.06 4.19-1.06 1.21 0 2.27.22 3.18.65s1.67 1.03 2.29 1.77c.62.75 1.08 1.59 1.38 2.54s.44 1.95.42 3l-.06.71c-.02.23-.05.48-.09.74h-11.21c.06.71.25 1.35.56 1.94s.76 1.05 1.33 1.39c.58.34 1.3.52 2.17.52.5 0 .99-.07 1.45-.2s.87-.33 1.23-.59c.35-.26.59-.59.71-1h3.7c-.26 1.15-.75 2.09-1.45 2.82-.71.73-1.55 1.26-2.53 1.61-.98.34-2.01.51-3.1.51Zm-4-9.75h7.69c0-.67-.15-1.27-.45-1.82s-.73-.97-1.29-1.29c-.56-.31-1.23-.47-2.01-.47-.85 0-1.56.17-2.12.51s-1 .79-1.3 1.33-.47 1.12-.51 1.73Z" fill="#ffffff"></path>
        <path d="M216.26 356.53v-15.96h3.45l.21 2.03c.42-.57.92-1.01 1.48-1.33.57-.32 1.16-.56 1.79-.71s1.21-.23 1.76-.23c1.51 0 2.71.33 3.59 1s1.5 1.55 1.86 2.67.54 2.35.54 3.72v8.81h-3.69v-8.21q0-.885-.12-1.71a4.6 4.6 0 0 0-.47-1.5c-.23-.44-.56-.8-.98-1.06s-.99-.39-1.7-.39c-.87 0-1.6.23-2.21.7-.61.46-1.06 1.09-1.36 1.86-.3.78-.45 1.66-.45 2.65v7.66z" fill="#ffffff"></path>
        <path d="M240.79 356.71c-1.76 0-3.04-.48-3.85-1.45s-1.21-2.31-1.21-4.03v-7.39h-2.45v-3.27h2.45v-4.48h3.7v4.48h4.85v3.27h-4.85v6.69c0 .52.06 1 .18 1.42s.34.76.67 1c.32.24.77.37 1.33.39.48 0 .9-.08 1.24-.24s.63-.34.85-.54l1.24 2.82c-.38.32-.81.59-1.29.79s-.95.34-1.44.42c-.48.08-.96.12-1.42.12" fill="#ffffff"></path>
        <path d="M254.08 356.74c-1.66 0-3.06-.34-4.22-1.03a6.6 6.6 0 0 1-2.63-2.86c-.6-1.22-.89-2.64-.89-4.25s.31-3.04.92-4.29c.62-1.24 1.5-2.22 2.67-2.92 1.16-.71 2.56-1.06 4.19-1.06 1.21 0 2.27.22 3.18.65s1.67 1.03 2.29 1.77c.62.75 1.08 1.59 1.38 2.54s.44 1.95.42 3l-.06.71c-.02.23-.05.48-.09.74h-11.21c.06.71.25 1.35.56 1.94s.76 1.05 1.33 1.39c.58.34 1.3.52 2.17.52.5 0 .99-.07 1.45-.2s.87-.33 1.23-.59c.35-.26.59-.59.71-1h3.7c-.26 1.15-.75 2.09-1.45 2.82-.71.73-1.55 1.26-2.53 1.61-.98.34-2.01.51-3.1.51Zm-4-9.75h7.69c0-.67-.15-1.27-.45-1.82s-.73-.97-1.29-1.29c-.56-.31-1.23-.47-2.01-.47-.85 0-1.56.17-2.12.51s-1 .79-1.3 1.33-.47 1.12-.51 1.73Z" fill="#ffffff"></path>
        <path d="M45.27 388.71c-.77 0-1.53-.08-2.29-.24s-1.47-.43-2.13-.8c-.67-.37-1.22-.88-1.67-1.53-.44-.65-.74-1.45-.88-2.42h3.72c.16.44.42.8.77 1.08.35.27.77.47 1.24.61.47.13.94.2 1.41.2.28 0 .59-.02.92-.06s.65-.12.94-.24.53-.3.71-.53.27-.54.27-.92-.1-.65-.3-.86-.47-.38-.82-.52c-.34-.13-.76-.24-1.24-.32-.87-.18-1.8-.38-2.79-.59s-1.85-.55-2.57-1.01c-.3-.18-.57-.39-.79-.64-.22-.24-.41-.51-.56-.8s-.26-.61-.33-.95-.11-.72-.11-1.12c0-.85.18-1.57.53-2.17s.83-1.08 1.42-1.45c.6-.37 1.28-.65 2.04-.83.77-.18 1.55-.27 2.36-.27q1.635 0 2.97.51c.89.34 1.63.87 2.23 1.58q.885 1.065 1.08 2.7h-3.51c-.1-.5-.41-.91-.92-1.21s-1.17-.46-1.95-.46c-.28 0-.58.03-.88.08s-.59.13-.86.24-.5.28-.67.5-.26.5-.26.82c0 .3.08.57.23.79s.38.41.7.56.68.28 1.11.38c.69.14 1.4.28 2.15.42s1.39.28 1.94.42c.65.18 1.23.44 1.76.77s.93.77 1.23 1.3c.29.54.44 1.22.44 2.04 0 .97-.2 1.78-.59 2.42-.39.65-.91 1.15-1.56 1.51s-1.36.63-2.15.79-1.56.24-2.33.24Z" fill="#ffffff"></path>
        <path d="M61.78 388.71c-1.66 0-3.06-.34-4.22-1.03a6.6 6.6 0 0 1-2.63-2.86c-.6-1.22-.89-2.64-.89-4.25s.31-3.04.92-4.29c.62-1.24 1.5-2.21 2.67-2.92 1.16-.71 2.56-1.06 4.19-1.06 1.21 0 2.27.22 3.18.65s1.67 1.02 2.29 1.77 1.08 1.6 1.38 2.54q.45 1.425.42 3l-.06.71c-.02.23-.05.48-.09.74H57.73c.06.71.25 1.35.56 1.94s.76 1.05 1.33 1.39c.58.34 1.3.51 2.17.51.5 0 .99-.07 1.45-.2s.87-.33 1.23-.59.59-.6.71-1h3.7c-.26 1.15-.75 2.09-1.45 2.82-.71.73-1.55 1.26-2.53 1.6s-2.01.51-3.1.51Zm-4-9.76h7.69c0-.67-.15-1.27-.45-1.82s-.73-.97-1.29-1.29c-.56-.31-1.23-.47-2.01-.47-.85 0-1.56.17-2.12.52-.56.34-1 .79-1.3 1.33s-.47 1.12-.51 1.73Z" fill="#ffffff"></path>
        <path d="M72.01 388.49v-21.41h3.7v21.41z" fill="#ffffff"></path>
        <path d="M86.43 388.71c-1.66 0-3.06-.34-4.22-1.03a6.6 6.6 0 0 1-2.63-2.86c-.6-1.22-.89-2.64-.89-4.25s.31-3.04.92-4.29c.62-1.24 1.5-2.21 2.67-2.92 1.16-.71 2.56-1.06 4.19-1.06 1.21 0 2.27.22 3.18.65s1.67 1.02 2.29 1.77 1.08 1.6 1.38 2.54q.45 1.425.42 3l-.06.71c-.02.23-.05.48-.09.74H82.38c.06.71.25 1.35.56 1.94s.76 1.05 1.33 1.39c.58.34 1.3.51 2.17.51.5 0 .99-.07 1.45-.2s.87-.33 1.23-.59.59-.6.71-1h3.69c-.26 1.15-.75 2.09-1.45 2.82-.71.73-1.55 1.26-2.53 1.6s-2.01.51-3.1.51Zm-4-9.76h7.69c0-.67-.15-1.27-.45-1.82s-.73-.97-1.29-1.29c-.56-.31-1.23-.47-2.01-.47-.85 0-1.55.17-2.12.52-.57.34-1 .79-1.3 1.33s-.47 1.12-.52 1.73" fill="#ffffff"></path>
        <path d="M104 388.71c-1.66 0-3.05-.34-4.18-1.01-1.13-.68-1.99-1.63-2.57-2.86s-.88-2.65-.88-4.27.3-3.04.91-4.29c.61-1.24 1.49-2.21 2.66-2.92s2.59-1.06 4.27-1.06c1.23 0 2.33.21 3.29.64.96.42 1.74 1.04 2.33 1.86s.97 1.83 1.13 3.04h-3.63q-.36-1.155-1.2-1.68c-.56-.35-1.22-.53-1.98-.53-1.03 0-1.84.25-2.44.74-.6.5-1.02 1.12-1.29 1.86-.26.75-.39 1.53-.39 2.33 0 .85.14 1.64.42 2.38q.42 1.11 1.32 1.77c.9.66 1.37.67 2.32.67q1.155 0 2.07-.51c.62-.34 1.01-.9 1.2-1.67h3.76c-.14 1.23-.55 2.26-1.23 3.07-.68.82-1.53 1.43-2.56 1.83s-2.14.61-3.33.61" fill="#ffffff"></path>
        <path d="M121.23 388.71c-1.66 0-3.05-.34-4.18-1.01a6.5 6.5 0 0 1-2.57-2.86c-.59-1.23-.88-2.65-.88-4.27s.3-3.04.91-4.29a6.85 6.85 0 0 1 2.67-2.92c1.17-.71 2.59-1.06 4.27-1.06 1.23 0 2.33.21 3.29.64.96.42 1.74 1.04 2.33 1.86.6.82.97 1.83 1.14 3.04h-3.63q-.36-1.155-1.2-1.68c-.56-.35-1.22-.53-1.98-.53-1.03 0-1.84.25-2.44.74q-.9.75-1.29 1.86c-.26.75-.39 1.53-.39 2.33 0 .85.14 1.64.42 2.38s.72 1.33 1.32 1.77c.59.44 1.37.67 2.32.67q1.155 0 2.07-.51c.62-.34 1.01-.9 1.2-1.67h3.75c-.14 1.23-.55 2.26-1.23 3.07-.68.82-1.53 1.43-2.56 1.83s-2.14.61-3.33.61Z" fill="#ffffff"></path>
        <path d="M132.98 370.69c-.71 0-1.27-.21-1.7-.64-.42-.42-.64-.98-.64-1.67s.22-1.22.67-1.65c.44-.43 1-.65 1.67-.65s1.2.21 1.67.64.7.98.7 1.67-.22 1.24-.67 1.67c-.45.42-1.01.64-1.7.64Zm-1.85 17.8v-15.96h3.69v15.96z" fill="#ffffff"></path>
        <path d="M145.7 388.71c-1.64 0-3.04-.33-4.22-1a6.83 6.83 0 0 1-2.73-2.85c-.64-1.23-.95-2.67-.95-4.33s.32-3.12.97-4.35c.65-1.22 1.55-2.17 2.73-2.86s2.57-1.03 4.21-1.03 3.01.34 4.18 1.03 2.07 1.65 2.7 2.89.94 2.7.94 4.38-.31 3.06-.92 4.29c-.62 1.22-1.51 2.17-2.68 2.83-1.17.67-2.57 1-4.21 1Zm-.03-3.37c1.01 0 1.82-.22 2.44-.67.62-.44 1.06-1.03 1.35-1.76.28-.73.42-1.51.42-2.36s-.14-1.64-.42-2.39q-.42-1.125-1.35-1.8c-.62-.45-1.43-.68-2.44-.68s-1.83.23-2.45.68a3.86 3.86 0 0 0-1.36 1.79c-.28.74-.42 1.54-.42 2.41s.15 1.64.44 2.38.75 1.32 1.36 1.76c.62.43 1.43.65 2.44.65Z" fill="#ffffff"></path>
        <path d="M156.48 388.49v-15.96h3.45l.21 2.03c.42-.57.92-1.01 1.48-1.33s1.16-.56 1.79-.71 1.21-.23 1.76-.23c1.51 0 2.71.33 3.59 1s1.5 1.55 1.86 2.67.54 2.35.54 3.72v8.81h-3.7v-8.21c0-.58-.04-1.16-.12-1.71a4.8 4.8 0 0 0-.47-1.5c-.23-.44-.56-.8-.98-1.06s-.99-.39-1.7-.39c-.87 0-1.6.23-2.21.7-.61.46-1.06 1.08-1.36 1.86s-.46 1.66-.46 2.65v7.66h-3.69Z" fill="#ffffff"></path>
        <path d="M179.74 388.71c-.75 0-1.45-.1-2.12-.3s-1.26-.5-1.79-.89c-.52-.39-.94-.89-1.26-1.48s-.47-1.3-.47-2.1c0-1.03.2-1.87.61-2.53q.6-.99 1.65-1.5c.7-.34 1.49-.58 2.38-.71s1.82-.2 2.79-.2h3.12q0-1.065-.33-1.83a2.7 2.7 0 0 0-1.04-1.23c-.47-.3-1.08-.46-1.83-.46-.48 0-.93.06-1.35.17-.41.11-.77.28-1.06.51s-.5.53-.62.89h-3.79c.14-.83.43-1.54.86-2.13.43-.6.97-1.08 1.61-1.47.64-.38 1.34-.67 2.11-.86s1.54-.29 2.33-.29c2.32 0 4.01.67 5.07 2s1.59 3.2 1.59 5.6v8.6h-3.27l-.09-2.06c-.46.69-1.02 1.19-1.67 1.51s-1.27.53-1.88.62-1.12.14-1.54.14Zm.72-3c.81 0 1.52-.15 2.15-.45.62-.3 1.12-.73 1.5-1.27.37-.55.56-1.17.56-1.88v-.51h-2.91c-.49 0-.96.01-1.44.04s-.9.11-1.29.24c-.38.13-.69.33-.92.59s-.35.64-.35 1.12.12.88.38 1.18c.25.3.58.54 1 .7q.615.24 1.32.24" fill="#ffffff"></path>
        <path d="M198.21 388.71c-1.62 0-2.95-.37-4-1.11s-1.83-1.72-2.35-2.95-.77-2.6-.77-4.12.27-2.98.82-4.22c.54-1.24 1.36-2.22 2.45-2.94s2.45-1.08 4.09-1.08c.61 0 1.2.07 1.77.2.58.13 1.12.33 1.64.61s.94.63 1.29 1.08v-7.09h3.69v21.41h-3.57l-.06-2c-.38.5-.83.92-1.35 1.24-.51.32-1.08.57-1.71.73s-1.27.24-1.94.24m.7-3.34c.97 0 1.77-.23 2.39-.68.63-.45 1.09-1.06 1.41-1.82.31-.76.47-1.56.47-2.41s-.16-1.7-.47-2.42c-.31-.73-.78-1.31-1.41-1.76s-1.42-.67-2.39-.67c-1.03 0-1.84.23-2.44.7-.6.46-1.03 1.08-1.3 1.83-.27.76-.41 1.57-.41 2.44 0 .65.08 1.26.23 1.83.15.58.39 1.09.71 1.53s.75.79 1.27 1.04c.53.25 1.17.38 1.94.38Z" fill="#ffffff"></path>
        <path d="M215.5 388.71c-.75 0-1.45-.1-2.12-.3s-1.26-.5-1.79-.89c-.52-.39-.94-.89-1.26-1.48s-.47-1.3-.47-2.1c0-1.03.2-1.87.61-2.53q.6-.99 1.65-1.5c.7-.34 1.49-.58 2.38-.71s1.82-.2 2.79-.2h3.12q0-1.065-.33-1.83a2.7 2.7 0 0 0-1.04-1.23c-.47-.3-1.08-.46-1.83-.46-.48 0-.93.06-1.35.17-.41.11-.77.28-1.06.51s-.5.53-.62.89h-3.79c.14-.83.43-1.54.86-2.13.43-.6.97-1.08 1.61-1.47.64-.38 1.34-.67 2.11-.86s1.54-.29 2.33-.29c2.32 0 4.01.67 5.07 2s1.59 3.2 1.59 5.6v8.6h-3.27l-.09-2.06c-.46.69-1.02 1.19-1.67 1.51s-1.27.53-1.88.62-1.12.14-1.54.14Zm.73-3c.81 0 1.52-.15 2.15-.45.62-.3 1.12-.73 1.5-1.27.37-.55.56-1.17.56-1.88v-.51h-2.91c-.49 0-.96.01-1.44.04s-.9.11-1.29.24c-.38.13-.69.33-.92.59s-.35.64-.35 1.12.12.88.38 1.18c.25.3.58.54 1 .7q.615.24 1.32.24" fill="#ffffff"></path>
        <path d="M233.58 388.71c-.77 0-1.53-.08-2.29-.24a7.5 7.5 0 0 1-2.13-.8c-.67-.37-1.22-.88-1.67-1.53s-.74-1.45-.88-2.42h3.72c.16.44.42.8.77 1.08.35.27.77.47 1.24.61.47.13.94.2 1.41.2.28 0 .59-.02.92-.06s.65-.12.94-.24.53-.3.71-.53.27-.54.27-.92-.1-.65-.3-.86-.47-.38-.82-.52c-.34-.13-.76-.24-1.24-.32-.87-.18-1.8-.38-2.79-.59s-1.85-.55-2.57-1.01c-.3-.18-.57-.39-.79-.64-.22-.24-.41-.51-.56-.8s-.26-.61-.33-.95-.11-.72-.11-1.12c0-.85.18-1.57.53-2.17s.83-1.08 1.42-1.45 1.28-.65 2.04-.83 1.55-.27 2.36-.27q1.635 0 2.97.51c.89.34 1.63.87 2.23 1.58.59.71.95 1.61 1.07 2.7h-3.51c-.1-.5-.41-.91-.92-1.21s-1.17-.46-1.95-.46c-.28 0-.58.03-.88.08s-.59.13-.86.24-.5.28-.67.5-.26.5-.26.82c0 .3.08.57.23.79s.38.41.7.56c.31.15.68.28 1.11.38.69.14 1.4.28 2.15.42s1.39.28 1.94.42c.65.18 1.23.44 1.76.77.52.33.93.77 1.23 1.3.29.54.44 1.22.44 2.04 0 .97-.2 1.78-.59 2.42-.39.65-.91 1.15-1.56 1.51s-1.36.63-2.15.79-1.57.24-2.33.24Z" fill="#ffffff"></path>
        <path d="m244 392.82-1.06-1.61c.3-.16.62-.39.94-.68s.62-.62.89-.97.46-.67.56-.95c-.59-.06-1.08-.28-1.5-.65-.41-.37-.62-.9-.62-1.59s.24-1.26.73-1.67c.48-.4 1.03-.61 1.64-.61.77 0 1.37.29 1.82.86.44.58.67 1.33.67 2.26 0 .83-.2 1.62-.59 2.39s-.9 1.43-1.51 2c-.62.57-1.27.97-1.95 1.21Z" fill="#ffffff"></path>
        <path d="M7.9 420.67c-1.64 0-3.04-.33-4.22-1s-2.09-1.62-2.73-2.85-.95-2.67-.95-4.33.32-3.12.97-4.35c.64-1.22 1.55-2.17 2.72-2.86s2.57-1.03 4.21-1.03 3.01.34 4.18 1.03 2.07 1.65 2.7 2.89.94 2.7.94 4.38-.31 3.06-.92 4.29c-.62 1.22-1.51 2.17-2.68 2.83-1.17.67-2.57 1-4.21 1Zm-.03-3.36c1.01 0 1.82-.22 2.44-.67s1.06-1.03 1.35-1.76.42-1.51.42-2.36-.14-1.64-.42-2.39q-.42-1.125-1.35-1.8c-.93-.675-1.43-.68-2.44-.68s-1.83.23-2.45.68c-.63.45-1.08 1.05-1.36 1.79s-.42 1.54-.42 2.41.15 1.64.44 2.38.75 1.32 1.36 1.76c.62.43 1.43.65 2.44.65Z" fill="#ffffff"></path>
        <path d="M19.81 420.46v-12.69h-2.48v-3.27h2.48v-1.51c0-1.21.18-2.21.54-2.98s.94-1.35 1.74-1.71 1.82-.54 3.07-.54h2.36v3.27h-1.94c-.55 0-.97.09-1.27.27s-.52.45-.65.8-.2.78-.2 1.29v1.12h4.06v3.27h-4.06v12.69H19.8Z" fill="#ffffff"></path>
        <path d="M29.83 420.46V404.5h3.36l.21 2.09q.6-.915 1.38-1.41c.78-.495 1.07-.57 1.67-.71q.9-.21 1.8-.21h.62c.19 0 .35.01.47.03v3.51h-.97c-1.05 0-1.94.2-2.67.61-.73.4-1.27.98-1.64 1.73q-.54 1.125-.54 2.76v7.57h-3.7Z" fill="#ffffff"></path>
        <path d="M48.36 420.67c-1.66 0-3.06-.34-4.22-1.03a6.6 6.6 0 0 1-2.63-2.86c-.6-1.22-.89-2.64-.89-4.25s.31-3.04.92-4.29c.62-1.24 1.5-2.21 2.67-2.92 1.16-.71 2.56-1.06 4.19-1.06 1.21 0 2.27.22 3.18.65s1.67 1.02 2.29 1.77 1.08 1.6 1.38 2.54q.45 1.425.42 3l-.06.71c-.02.23-.05.48-.09.74H44.31c.06.71.25 1.35.56 1.94s.76 1.05 1.33 1.39c.58.34 1.3.51 2.17.51.5 0 .99-.07 1.45-.2s.87-.33 1.23-.59.59-.6.71-1h3.7c-.26 1.15-.75 2.09-1.45 2.82-.71.73-1.55 1.26-2.53 1.6s-2.01.51-3.1.51Zm-3.99-9.75h7.69c0-.67-.15-1.27-.45-1.82s-.73-.97-1.29-1.29c-.56-.31-1.23-.47-2.01-.47-.85 0-1.56.17-2.12.52-.56.34-1 .79-1.3 1.33s-.47 1.12-.51 1.73Z" fill="#ffffff"></path>
        <path d="M65.93 420.67c-1.66 0-3.05-.34-4.18-1.01a6.5 6.5 0 0 1-2.57-2.86c-.59-1.23-.88-2.65-.88-4.27s.3-3.04.91-4.29a6.85 6.85 0 0 1 2.67-2.92c1.17-.71 2.59-1.06 4.27-1.06 1.23 0 2.33.21 3.29.64.96.42 1.74 1.04 2.33 1.86s.97 1.83 1.14 3.04h-3.63q-.36-1.155-1.2-1.68c-.56-.35-1.22-.53-1.98-.53-1.03 0-1.84.25-2.44.74q-.9.75-1.29 1.86c-.26.75-.39 1.53-.39 2.33 0 .85.14 1.64.42 2.38q.42 1.11 1.32 1.77c.9.66 1.37.67 2.32.67q1.155 0 2.07-.51c.62-.34 1.02-.9 1.2-1.67h3.75c-.14 1.23-.55 2.26-1.23 3.07s-1.53 1.43-2.56 1.83-2.14.61-3.33.61Z" fill="#ffffff"></path>
        <path d="M77.68 402.65c-.71 0-1.27-.21-1.7-.64s-.63-.98-.63-1.67.22-1.22.67-1.65c.44-.43 1-.65 1.67-.65s1.2.21 1.67.64c.46.42.7.98.7 1.67s-.22 1.24-.67 1.67c-.44.42-1.01.64-1.7.64Zm-1.85 17.81V404.5h3.69v15.96z" fill="#ffffff"></path>
        <path d="M90.25 420.67c-1.66 0-3.06-.34-4.22-1.03s-2.04-1.64-2.63-2.86c-.6-1.22-.89-2.64-.89-4.25s.31-3.04.92-4.29c.62-1.24 1.5-2.21 2.67-2.92s2.56-1.06 4.19-1.06c1.21 0 2.27.22 3.18.65s1.67 1.02 2.29 1.77 1.07 1.6 1.38 2.54q.45 1.425.42 3l-.06.71c-.02.23-.05.48-.09.74H86.2c.06.71.25 1.35.56 1.94s.76 1.05 1.33 1.39 1.3.51 2.17.51c.5 0 .99-.07 1.45-.2s.87-.33 1.23-.59c.35-.26.59-.6.71-1h3.7c-.26 1.15-.75 2.09-1.45 2.82-.71.73-1.55 1.26-2.53 1.6s-2.01.51-3.1.51Zm-4-9.75h7.69c0-.67-.15-1.27-.45-1.82s-.73-.97-1.29-1.29c-.56-.31-1.23-.47-2.01-.47-.85 0-1.56.17-2.12.52-.57.34-1 .79-1.3 1.33s-.47 1.12-.51 1.73Z" fill="#ffffff"></path>
        <path d="M100.48 420.46V404.5h3.45l.21 2.03c.42-.57.92-1.01 1.48-1.33s1.16-.56 1.79-.71c.62-.15 1.21-.23 1.76-.23 1.51 0 2.71.33 3.59 1s1.5 1.55 1.86 2.67.54 2.35.54 3.72v8.81h-3.69v-8.21c0-.58-.04-1.16-.12-1.71s-.24-1.05-.47-1.5-.56-.8-.98-1.06-.99-.39-1.7-.39c-.87 0-1.61.23-2.21.7s-1.06 1.08-1.36 1.86-.45 1.66-.45 2.65v7.66z" fill="#ffffff"></path>
        <path d="M125.16 420.67c-1.62 0-2.95-.37-4-1.11s-1.83-1.72-2.35-2.95-.77-2.6-.77-4.12.27-2.98.82-4.22c.54-1.24 1.36-2.22 2.45-2.94s2.45-1.08 4.09-1.08c.61 0 1.2.07 1.77.2.58.13 1.12.33 1.64.61s.94.63 1.29 1.08v-7.09h3.69v21.41h-3.57l-.06-2c-.38.5-.83.92-1.35 1.24-.51.32-1.08.57-1.71.73s-1.27.24-1.94.24m.7-3.33c.97 0 1.77-.23 2.39-.68.63-.45 1.09-1.06 1.41-1.82.31-.76.47-1.56.47-2.41s-.16-1.7-.47-2.42c-.31-.73-.78-1.31-1.41-1.76s-1.42-.67-2.39-.67c-1.03 0-1.84.23-2.44.7-.6.46-1.03 1.08-1.3 1.83-.27.76-.41 1.57-.41 2.44 0 .65.08 1.26.23 1.83.15.58.39 1.09.71 1.53s.75.79 1.27 1.04c.53.25 1.17.38 1.94.38Z" fill="#ffffff"></path>
        <path d="M144.67 420.67c-1.64 0-3.04-.33-4.22-1a6.83 6.83 0 0 1-2.73-2.85c-.64-1.23-.95-2.67-.95-4.33s.32-3.12.97-4.35c.65-1.22 1.55-2.17 2.73-2.86s2.57-1.03 4.21-1.03 3.01.34 4.18 1.03 2.07 1.65 2.7 2.89.94 2.7.94 4.38-.31 3.06-.92 4.29c-.62 1.22-1.51 2.17-2.68 2.83-1.17.67-2.57 1-4.21 1Zm-.03-3.36c1.01 0 1.82-.22 2.44-.67.62-.44 1.06-1.03 1.35-1.76.28-.73.42-1.51.42-2.36s-.14-1.64-.42-2.39q-.42-1.125-1.35-1.8c-.62-.45-1.43-.68-2.44-.68s-1.83.23-2.45.68a3.86 3.86 0 0 0-1.36 1.79c-.28.74-.42 1.54-.42 2.41s.15 1.64.44 2.38.75 1.32 1.36 1.76c.62.43 1.43.65 2.44.65Z" fill="#ffffff"></path>
        <path d="M163.87 420.46V404.5h3.45l.21 2.03c.42-.57.92-1.01 1.48-1.33s1.16-.56 1.79-.71c.62-.15 1.21-.23 1.76-.23 1.51 0 2.71.33 3.59 1s1.5 1.55 1.86 2.67.54 2.35.54 3.72v8.81h-3.69v-8.21c0-.58-.04-1.16-.12-1.71s-.24-1.05-.47-1.5-.56-.8-.98-1.06-.99-.39-1.7-.39c-.87 0-1.61.23-2.21.7s-1.06 1.08-1.36 1.86-.45 1.66-.45 2.65v7.66z" fill="#ffffff"></path>
        <path d="M189.09 420.67c-2.3 0-4.06-.59-5.28-1.79s-1.83-3.01-1.83-5.45v-8.93h3.7v8.69c0 .85.12 1.58.35 2.21s.61 1.11 1.12 1.44c.52.33 1.17.5 1.95.5.85 0 1.52-.18 2.01-.53.5-.35.84-.84 1.04-1.47.2-.62.3-1.34.3-2.15v-8.69h3.7v8.93c0 2.5-.62 4.34-1.86 5.5q-1.86 1.74-5.19 1.74Z" fill="#ffffff"></path>
        <path d="M206.63 420.46c-1.29 0-2.36-.17-3.2-.51s-1.46-.9-1.88-1.67c-.41-.77-.62-1.8-.62-3.09v-7.42h-2.45v-3.27h2.45v-4.45h3.69v4.45h3.73v3.27h-3.73v6.93c0 .81.14 1.42.42 1.85.28.42.92.64 1.91.64h1.27v3.27h-1.6Z" fill="#ffffff"></path>
        <path d="M210.81 420.46V404.5h3.36l.21 2.09q.6-.915 1.38-1.41c.78-.495 1.07-.57 1.67-.71q.9-.21 1.8-.21h.62c.19 0 .35.01.47.03v3.51h-.97c-1.05 0-1.94.2-2.67.61-.73.4-1.27.98-1.64 1.73q-.54 1.125-.54 2.76v7.57h-3.7Z" fill="#ffffff"></path>
        <path d="M224.34 402.65c-.71 0-1.27-.21-1.7-.64-.42-.42-.64-.98-.64-1.67s.22-1.22.67-1.65c.44-.43 1-.65 1.67-.65s1.2.21 1.67.64.7.98.7 1.67-.22 1.24-.67 1.67c-.44.42-1.01.64-1.7.64Zm-1.84 17.81V404.5h3.7v15.96z" fill="#ffffff"></path>
        <path d="M236.79 420.67c-1.66 0-3.05-.34-4.18-1.01-1.13-.68-1.99-1.63-2.57-2.86s-.88-2.65-.88-4.27.3-3.04.91-4.29c.61-1.24 1.49-2.21 2.66-2.92s2.59-1.06 4.27-1.06c1.23 0 2.33.21 3.29.64.96.42 1.74 1.04 2.33 1.86s.97 1.83 1.13 3.04h-3.63q-.36-1.155-1.2-1.68c-.56-.35-1.22-.53-1.98-.53-1.03 0-1.84.25-2.44.74-.6.5-1.02 1.12-1.29 1.86-.26.75-.39 1.53-.39 2.33 0 .85.14 1.64.42 2.38q.42 1.11 1.32 1.77c.9.66 1.37.67 2.32.67q1.155 0 2.07-.51c.62-.34 1.01-.9 1.2-1.67h3.76c-.14 1.23-.55 2.26-1.23 3.07-.68.82-1.53 1.43-2.56 1.83s-2.14.61-3.33.61" fill="#ffffff"></path>
        <path d="M248.54 402.65c-.71 0-1.27-.21-1.7-.64s-.64-.98-.64-1.67.22-1.22.67-1.65c.44-.43 1-.65 1.67-.65s1.2.21 1.67.64c.46.42.7.98.7 1.67s-.22 1.24-.67 1.67c-.44.42-1.01.64-1.7.64Zm-1.85 17.81V404.5h3.7v15.96z" fill="#ffffff"></path>
        <path d="M261.26 420.67c-1.63 0-3.04-.33-4.22-1a6.74 6.74 0 0 1-2.72-2.85c-.64-1.23-.96-2.67-.96-4.33s.32-3.12.97-4.35c.65-1.22 1.55-2.17 2.73-2.86 1.17-.69 2.57-1.03 4.21-1.03s3.01.34 4.18 1.03 2.07 1.65 2.7 2.89c.62 1.24.94 2.7.94 4.38s-.31 3.06-.92 4.29c-.62 1.22-1.51 2.17-2.68 2.83s-2.57 1-4.21 1Zm-.03-3.36c1.01 0 1.82-.22 2.44-.67.62-.44 1.06-1.03 1.35-1.76.28-.73.42-1.51.42-2.36s-.14-1.64-.42-2.39q-.42-1.125-1.35-1.8c-.62-.45-1.43-.68-2.44-.68s-1.83.23-2.45.68c-.63.45-1.08 1.05-1.36 1.79s-.42 1.54-.42 2.41.15 1.64.44 2.38.75 1.32 1.36 1.76c.62.43 1.43.65 2.44.65Zm-1.94-14.84 3.15-4.88h3.94l-3.91 4.88z" fill="#ffffff"></path>
        <path d="M272.04 420.46V404.5h3.45l.21 2.03c.42-.57.92-1.01 1.48-1.33s1.16-.56 1.79-.71c.62-.15 1.21-.23 1.76-.23 1.51 0 2.71.33 3.59 1s1.5 1.55 1.86 2.67.54 2.35.54 3.72v8.81h-3.69v-8.21c0-.58-.04-1.16-.12-1.71s-.24-1.05-.47-1.5-.56-.8-.98-1.06-.99-.39-1.7-.39c-.87 0-1.61.23-2.21.7s-1.06 1.08-1.36 1.86-.45 1.66-.45 2.65v7.66z" fill="#ffffff"></path>
        <path d="M46.02 452.64c-1.63 0-3.04-.33-4.22-1s-2.09-1.62-2.73-2.85-.95-2.67-.95-4.33.32-3.12.97-4.35c.65-1.22 1.55-2.17 2.73-2.86 1.17-.69 2.57-1.03 4.21-1.03s3.01.34 4.18 1.03 2.07 1.65 2.7 2.89c.62 1.24.94 2.7.94 4.38s-.31 3.06-.92 4.29c-.62 1.22-1.51 2.17-2.68 2.83s-2.57 1-4.21 1Zm-.03-3.36c1.01 0 1.82-.22 2.44-.67.62-.44 1.06-1.03 1.35-1.76.28-.73.42-1.51.42-2.36s-.14-1.64-.42-2.39q-.42-1.125-1.35-1.8c-.62-.45-1.43-.68-2.44-.68s-1.83.23-2.45.68-1.08 1.05-1.36 1.79-.42 1.54-.42 2.41.15 1.64.44 2.38.75 1.32 1.36 1.76c.62.43 1.43.65 2.44.65Zm-1.94-14.84 3.15-4.88h3.94l-3.91 4.88z" fill="#ffffff"></path>
        <path d="M56.8 458.3v-21.83h3.45l.18 2.15c.63-.83 1.37-1.43 2.24-1.82.87-.38 1.83-.58 2.88-.58 1.57 0 2.88.36 3.91 1.09s1.8 1.71 2.3 2.94.76 2.62.76 4.18-.26 2.95-.79 4.19-1.32 2.22-2.38 2.94-2.39 1.08-3.98 1.08q-1.125 0-2.04-.24c-.62-.16-1.16-.39-1.63-.7s-.87-.65-1.2-1.03v7.63h-3.69Zm7.99-8.99c1.03 0 1.84-.23 2.42-.68s1.01-1.05 1.27-1.79.39-1.52.39-2.35-.14-1.68-.41-2.42c-.27-.75-.71-1.35-1.32-1.82s-1.41-.7-2.42-.7c-.93 0-1.71.23-2.35.68a4.2 4.2 0 0 0-1.44 1.8c-.32.75-.48 1.56-.48 2.42s.15 1.7.45 2.44.78 1.32 1.42 1.76c.65.43 1.46.65 2.45.65Z" fill="#ffffff"></path>
        <path d="M81.84 452.43c-1.29 0-2.36-.17-3.2-.51s-1.46-.9-1.88-1.67c-.41-.77-.62-1.8-.62-3.09v-7.42h-2.45v-3.27h2.45v-4.45h3.69v4.45h3.73v3.27h-3.73v6.93c0 .81.14 1.42.42 1.85s.92.64 1.91.64h1.27v3.27h-1.61Z" fill="#ffffff"></path>
        <path d="M87.87 434.62c-.71 0-1.27-.21-1.7-.64-.42-.42-.64-.98-.64-1.67s.22-1.22.67-1.65c.44-.43 1-.65 1.67-.65s1.2.21 1.67.64.7.98.7 1.67-.22 1.24-.67 1.67c-.45.42-1.01.64-1.7.64Zm-1.85 17.81v-15.96h3.69v15.96z" fill="#ffffff"></path>
        <path d="M93.29 452.43v-15.96h3.39l.24 1.82q.6-.81 1.32-1.26c.47-.29.97-.5 1.48-.62q.765-.18 1.47-.18c1.01 0 1.87.2 2.59.61.72.4 1.28 1.01 1.68 1.82.4-.56.86-1.02 1.36-1.38.5-.35 1.04-.62 1.61-.79.56-.17 1.16-.26 1.79-.26 1.23 0 2.22.26 2.97.77s1.29 1.22 1.63 2.12.52 1.92.52 3.07v10.24h-3.7v-9.05c0-.4-.02-.83-.06-1.27s-.15-.86-.32-1.24-.42-.7-.74-.94-.78-.36-1.36-.36-1.07.13-1.44.38-.68.59-.91 1a4.4 4.4 0 0 0-.48 1.36c-.09.5-.14.98-.14 1.47v8.66h-3.69v-9.08c0-.38-.03-.79-.08-1.23-.05-.43-.15-.85-.3-1.24s-.39-.71-.73-.95q-.495-.36-1.38-.36c-.85 0-1.49.23-1.92.7s-.73 1.03-.88 1.7-.23 1.3-.23 1.91v8.57h-3.69Z" fill="#ffffff"></path>
        <path d="M123.85 452.64c-.75 0-1.45-.1-2.12-.3s-1.26-.5-1.79-.89c-.52-.39-.94-.89-1.26-1.48s-.47-1.3-.47-2.1c0-1.03.2-1.87.61-2.53q.6-.99 1.65-1.5c.7-.34 1.49-.58 2.38-.71s1.82-.2 2.79-.2h3.12q0-1.065-.33-1.83a2.7 2.7 0 0 0-1.04-1.23c-.47-.3-1.08-.46-1.83-.46-.48 0-.93.06-1.35.17-.41.11-.77.28-1.06.51s-.5.53-.62.89h-3.79c.14-.83.43-1.54.86-2.13.43-.6.97-1.08 1.61-1.47.64-.38 1.34-.67 2.11-.86s1.54-.29 2.33-.29c2.32 0 4.01.67 5.07 2s1.59 3.2 1.59 5.6v8.6h-3.27l-.09-2.06c-.46.69-1.02 1.19-1.67 1.51s-1.27.53-1.88.62-1.12.14-1.54.14Zm.72-3c.81 0 1.52-.15 2.15-.45.62-.3 1.12-.73 1.5-1.27.37-.55.56-1.17.56-1.88v-.51h-2.91c-.49 0-.96.01-1.44.04s-.9.11-1.29.24c-.38.13-.69.33-.92.59s-.35.64-.35 1.12.12.88.38 1.18c.25.3.58.54 1 .7q.615.24 1.32.24" fill="#ffffff"></path>
        <path d="M151.28 459.73c-1.23 0-2.43-.17-3.59-.5a9 9 0 0 1-3.22-1.68l1.33-2.97c.69.54 1.45.97 2.3 1.29.85.31 1.78.47 2.79.47 1.59 0 2.76-.4 3.5-1.21q1.11-1.215 1.11-3.3v-1.18c-.36.46-.81.85-1.33 1.15-.53.3-1.09.53-1.7.67a8.2 8.2 0 0 1-1.85.21c-1.55 0-2.79-.32-3.71-.95-.92-.64-1.58-1.51-1.98-2.63s-.61-2.4-.61-3.83v-8.78h3.67v7.96c0 .57.04 1.14.12 1.73s.24 1.12.49 1.61c.24.48.6.87 1.07 1.17.47.29 1.11.44 1.89.44 1.03 0 1.83-.25 2.39-.76.57-.5.95-1.16 1.17-1.97.21-.81.32-1.67.32-2.57v-7.6h3.69v14.45c0 1.35-.14 2.57-.42 3.65s-.74 2-1.36 2.77c-.63.77-1.43 1.36-2.42 1.77s-2.2.62-3.63.62Z" fill="#ffffff"></path>
        <path d="M177.24 452.64c-.77 0-1.53-.08-2.29-.24a7.5 7.5 0 0 1-2.13-.8c-.67-.37-1.22-.88-1.67-1.53-.44-.65-.74-1.45-.88-2.42h3.72c.16.44.42.8.77 1.08s.77.47 1.24.61c.47.13.94.2 1.41.2.28 0 .59-.02.92-.06s.65-.12.94-.24.53-.3.71-.53.27-.54.27-.92-.1-.65-.3-.86-.47-.38-.82-.52c-.34-.13-.76-.24-1.24-.32-.87-.18-1.8-.38-2.79-.59s-1.85-.55-2.57-1.01a3.6 3.6 0 0 1-1.68-2.39c-.07-.34-.11-.72-.11-1.12 0-.85.18-1.57.53-2.17s.83-1.08 1.42-1.45 1.28-.65 2.04-.83 1.55-.27 2.36-.27q1.635 0 2.97.51c.89.34 1.63.87 2.23 1.58s.95 1.61 1.07 2.7h-3.51c-.1-.5-.41-.91-.92-1.21-.52-.3-1.17-.46-1.95-.46-.28 0-.58.03-.88.08s-.59.13-.86.24-.49.28-.67.5c-.17.22-.26.5-.26.82 0 .3.08.57.23.79s.38.41.7.56.68.28 1.11.38c.69.14 1.4.28 2.15.42s1.39.28 1.94.42c.65.18 1.23.44 1.76.77.52.33.93.77 1.23 1.3.29.54.44 1.22.44 2.04 0 .97-.2 1.78-.59 2.42a4.1 4.1 0 0 1-1.56 1.51c-.65.36-1.36.63-2.15.79s-1.57.24-2.33.24Z" fill="#ffffff"></path>
        <path d="M191.68 452.64c-.75 0-1.45-.1-2.12-.3s-1.26-.5-1.79-.89c-.52-.39-.94-.89-1.26-1.48s-.47-1.3-.47-2.1c0-1.03.2-1.87.61-2.53q.6-.99 1.65-1.5c.7-.34 1.49-.58 2.38-.71s1.82-.2 2.79-.2h3.12q0-1.065-.33-1.83a2.7 2.7 0 0 0-1.04-1.23c-.47-.3-1.08-.46-1.83-.46-.48 0-.93.06-1.35.17-.41.11-.77.28-1.06.51s-.5.53-.62.89h-3.79c.14-.83.43-1.54.86-2.13.43-.6.97-1.08 1.61-1.47.64-.38 1.34-.67 2.11-.86s1.54-.29 2.33-.29c2.32 0 4.01.67 5.07 2s1.59 3.2 1.59 5.6v8.6h-3.27l-.09-2.06c-.46.69-1.02 1.19-1.67 1.51s-1.27.53-1.88.62-1.12.14-1.54.14Zm.73-3c.81 0 1.52-.15 2.15-.45.62-.3 1.12-.73 1.5-1.27.37-.55.56-1.17.56-1.88v-.51h-2.91c-.49 0-.96.01-1.44.04s-.9.11-1.29.24c-.38.13-.69.33-.92.59s-.35.64-.35 1.12.12.88.38 1.18c.25.3.58.54 1 .7q.615.24 1.32.24" fill="#ffffff"></path>
        <path d="M212.21 452.64c-.59 0-1.17-.06-1.76-.18s-1.15-.33-1.68-.64c-.54-.3-1.02-.71-1.47-1.21l-.09 1.82h-3.57v-21.41h3.7v7.45a5.36 5.36 0 0 1 2.26-1.68c.92-.37 1.87-.56 2.86-.56 1.58 0 2.87.36 3.89 1.08s1.78 1.69 2.27 2.92.74 2.62.74 4.18-.26 2.95-.77 4.19-1.3 2.23-2.35 2.95c-1.05.73-2.39 1.09-4.03 1.09m-.6-3.27c1.03 0 1.84-.24 2.44-.71q.885-.705 1.29-1.86c.26-.77.39-1.57.39-2.42s-.14-1.67-.41-2.39c-.27-.73-.71-1.31-1.32-1.76-.61-.44-1.41-.67-2.42-.67-.93 0-1.71.24-2.35.71s-1.12 1.09-1.44 1.85-.48 1.54-.48 2.35c0 .85.15 1.65.44 2.39.29.75.76 1.35 1.39 1.82.64.46 1.46.7 2.47.7Z" fill="#ffffff"></path>
        <path d="M229.63 452.64c-1.63 0-3.04-.33-4.22-1s-2.09-1.62-2.73-2.85-.95-2.67-.95-4.33.32-3.12.97-4.35c.65-1.22 1.55-2.17 2.73-2.86 1.17-.69 2.57-1.03 4.21-1.03s3.01.34 4.18 1.03 2.07 1.65 2.7 2.89c.62 1.24.94 2.7.94 4.38s-.31 3.06-.92 4.29c-.62 1.22-1.51 2.17-2.68 2.83s-2.57 1-4.21 1Zm-.03-3.36c1.01 0 1.82-.22 2.44-.67.62-.44 1.06-1.03 1.35-1.76.28-.73.42-1.51.42-2.36s-.14-1.64-.42-2.39q-.42-1.125-1.35-1.8c-.62-.45-1.43-.68-2.44-.68s-1.83.23-2.45.68-1.08 1.05-1.36 1.79-.42 1.54-.42 2.41.15 1.64.44 2.38.75 1.32 1.36 1.76c.62.43 1.43.65 2.44.65Z" fill="#ffffff"></path>
        <path d="M240.41 452.43v-15.96h3.36l.21 2.09q.6-.915 1.38-1.41c.78-.495 1.07-.57 1.67-.71.59-.14 1.2-.21 1.8-.21h.62c.19 0 .35.01.47.03v3.51h-.97c-1.05 0-1.94.2-2.67.61s-1.27.98-1.64 1.73q-.54 1.125-.54 2.76v7.57h-3.69Z" fill="#ffffff"></path>
        <path d="M69.44 466.59c-.71 0-1.27-.21-1.7-.64s-.64-.98-.64-1.67.22-1.22.67-1.65c.44-.43 1-.65 1.67-.65s1.2.21 1.67.64c.46.42.7.98.7 1.67s-.22 1.24-.67 1.67c-.45.42-1.01.64-1.7.64Zm-1.85 17.81v-15.96h3.69v15.96z" fill="#ffffff"></path>
        <path d="M74.86 484.4v-15.96h3.36l.21 2.09q.6-.915 1.38-1.41c.51-.33 1.07-.57 1.67-.71.59-.14 1.2-.21 1.8-.21h.62c.19 0 .35 0 .47.03v3.51h-.97c-1.05 0-1.94.2-2.67.61-.73.4-1.27.98-1.64 1.73q-.54 1.125-.54 2.76v7.57h-3.69Z" fill="#ffffff"></path>
        <path d="M86.55 484.4v-15.96h3.36l.21 2.09q.6-.915 1.38-1.41c.51-.33 1.07-.57 1.67-.71.59-.14 1.2-.21 1.8-.21h.62c.19 0 .35 0 .47.03v3.51h-.97c-1.05 0-1.94.2-2.67.61-.73.4-1.27.98-1.64 1.73q-.54 1.125-.54 2.76v7.57h-3.69Z" fill="#ffffff"></path>
        <path d="M105.08 484.61c-1.66 0-3.06-.34-4.22-1.03s-2.04-1.64-2.63-2.86-.89-2.64-.89-4.25.31-3.04.92-4.29c.62-1.24 1.5-2.22 2.66-2.92 1.16-.71 2.56-1.06 4.2-1.06 1.21 0 2.27.22 3.18.65s1.67 1.03 2.29 1.77 1.08 1.59 1.38 2.54.44 1.95.42 3l-.06.71c-.02.23-.05.48-.09.74h-11.21c.06.71.25 1.35.56 1.94s.76 1.05 1.33 1.39c.58.34 1.3.52 2.17.52.5 0 .99-.07 1.45-.2s.87-.33 1.23-.59c.35-.26.59-.59.71-1h3.69c-.26 1.15-.75 2.09-1.45 2.82s-1.55 1.26-2.53 1.61c-.98.34-2.01.51-3.1.51Zm-3.99-9.75h7.69c0-.67-.15-1.27-.46-1.82-.3-.55-.73-.97-1.29-1.29-.55-.31-1.23-.47-2.01-.47-.85 0-1.55.17-2.12.51s-1 .79-1.3 1.33-.47 1.12-.51 1.73Z" fill="#ffffff"></path>
        <path d="M121.44 484.61c-.77 0-1.53-.08-2.29-.24a7.5 7.5 0 0 1-2.13-.8c-.67-.37-1.22-.88-1.67-1.53-.44-.65-.74-1.45-.88-2.42h3.72c.16.44.42.8.77 1.08s.77.47 1.24.61c.47.13.94.2 1.41.2.28 0 .59-.02.92-.06s.65-.12.94-.24.53-.3.71-.53.27-.54.27-.92c0-.36-.1-.65-.3-.86s-.47-.38-.82-.51c-.34-.13-.76-.24-1.24-.32-.87-.18-1.8-.38-2.79-.59s-1.85-.55-2.57-1.01c-.3-.18-.57-.39-.79-.64-.22-.24-.41-.51-.56-.8s-.26-.61-.33-.95-.11-.72-.11-1.12c0-.85.18-1.57.53-2.17.35-.59.83-1.08 1.42-1.45.6-.37 1.28-.65 2.04-.83.77-.18 1.55-.27 2.36-.27q1.635 0 2.97.51c.89.34 1.63.87 2.23 1.57.6.71.95 1.61 1.08 2.7h-3.51c-.1-.5-.41-.91-.92-1.21s-1.17-.45-1.95-.45c-.28 0-.58.03-.88.08s-.59.13-.86.24-.49.28-.67.5c-.17.22-.26.5-.26.82 0 .3.08.57.23.79s.38.41.7.56c.31.15.68.28 1.11.38.69.14 1.4.28 2.15.42s1.39.28 1.94.42c.65.18 1.23.44 1.76.77.52.33.93.77 1.23 1.3.29.54.44 1.22.44 2.04 0 .97-.2 1.78-.59 2.42a4.1 4.1 0 0 1-1.56 1.51c-.65.36-1.36.63-2.15.79s-1.56.24-2.33.24Z" fill="#ffffff"></path>
        <path d="M132.64 466.59c-.71 0-1.27-.21-1.7-.64-.42-.42-.64-.98-.64-1.67s.22-1.22.67-1.65c.44-.43 1-.65 1.67-.65s1.2.21 1.67.64c.46.42.7.98.7 1.67s-.22 1.24-.67 1.67c-.44.42-1.01.64-1.7.64Zm-1.84 17.81v-15.96h3.7v15.96z" fill="#ffffff"></path>
        <path d="M144.18 484.61c-.77 0-1.53-.08-2.29-.24a7.5 7.5 0 0 1-2.13-.8c-.67-.37-1.22-.88-1.67-1.53s-.74-1.45-.88-2.42h3.72c.16.44.42.8.77 1.08.35.27.77.47 1.24.61.47.13.94.2 1.41.2.28 0 .59-.02.92-.06s.65-.12.94-.24.53-.3.71-.53.27-.54.27-.92c0-.36-.1-.65-.3-.86s-.47-.38-.82-.51c-.34-.13-.76-.24-1.24-.32-.87-.18-1.8-.38-2.79-.59s-1.85-.55-2.57-1.01c-.3-.18-.57-.39-.79-.64-.22-.24-.41-.51-.56-.8s-.26-.61-.33-.95-.11-.72-.11-1.12c0-.85.18-1.57.53-2.17.35-.59.83-1.08 1.42-1.45s1.28-.65 2.04-.83 1.55-.27 2.36-.27q1.635 0 2.97.51c.89.34 1.63.87 2.23 1.57.59.71.95 1.61 1.07 2.7h-3.51c-.1-.5-.41-.91-.92-1.21s-1.17-.45-1.95-.45c-.28 0-.58.03-.88.08s-.59.13-.86.24-.5.28-.67.5-.26.5-.26.82c0 .3.08.57.23.79s.38.41.7.56c.31.15.68.28 1.11.38.69.14 1.4.28 2.15.42s1.39.28 1.94.42c.65.18 1.23.44 1.76.77.52.33.93.77 1.23 1.3.29.54.44 1.22.44 2.04 0 .97-.2 1.78-.59 2.42a4.1 4.1 0 0 1-1.56 1.51c-.65.36-1.36.63-2.15.79s-1.57.24-2.33.24Z" fill="#ffffff"></path>
        <path d="M160.2 484.4c-1.29 0-2.36-.17-3.2-.51s-1.46-.9-1.88-1.67c-.41-.77-.62-1.8-.62-3.09v-7.42h-2.45v-3.27h2.45v-4.45h3.69v4.45h3.73v3.27h-3.73v6.94c0 .81.14 1.42.42 1.85s.92.64 1.91.64h1.27v3.27h-1.61Z" fill="#ffffff"></path>
        <path d="M166.23 466.59c-.71 0-1.27-.21-1.7-.64s-.64-.98-.64-1.67.22-1.22.67-1.65c.44-.43 1-.65 1.67-.65s1.2.21 1.67.64c.46.42.7.98.7 1.67s-.22 1.24-.67 1.67c-.45.42-1.01.64-1.7.64Zm-1.85 17.81v-15.96h3.69v15.96z" fill="#ffffff"></path>
        <path d="M180.22 484.61c-.59 0-1.17-.06-1.76-.18s-1.15-.33-1.68-.64c-.54-.3-1.03-.71-1.47-1.21l-.09 1.82h-3.57v-21.41h3.69v7.45c.58-.75 1.34-1.31 2.26-1.68s1.87-.56 2.86-.56c1.57 0 2.87.36 3.89 1.08s1.78 1.69 2.27 2.92.74 2.62.74 4.18-.26 2.95-.77 4.19c-.52 1.24-1.3 2.23-2.35 2.95-1.05.73-2.39 1.09-4.03 1.09Zm-.61-3.27c1.03 0 1.84-.24 2.44-.71s1.02-1.09 1.29-1.86c.26-.77.39-1.58.39-2.42s-.14-1.67-.41-2.39c-.27-.73-.71-1.31-1.32-1.76-.61-.44-1.41-.67-2.42-.67-.93 0-1.71.24-2.35.71s-1.12 1.09-1.44 1.85-.48 1.54-.48 2.35c0 .85.15 1.65.44 2.39.29.75.76 1.35 1.39 1.82.64.46 1.46.7 2.47.7Z" fill="#ffffff"></path>
        <path d="M190.33 484.4v-21.41h3.69v21.41z" fill="#ffffff"></path>
        <path d="M204.75 484.61c-1.66 0-3.06-.34-4.22-1.03s-2.04-1.64-2.63-2.86-.89-2.64-.89-4.25.31-3.04.92-4.29c.62-1.24 1.5-2.22 2.66-2.92 1.16-.71 2.56-1.06 4.2-1.06 1.21 0 2.27.22 3.18.65s1.67 1.03 2.29 1.77 1.08 1.59 1.38 2.54.44 1.95.42 3l-.06.71c-.02.23-.05.48-.09.74H200.7c.06.71.25 1.35.56 1.94s.76 1.05 1.33 1.39c.58.34 1.3.52 2.17.52.5 0 .99-.07 1.45-.2s.87-.33 1.23-.59c.35-.26.59-.59.71-1h3.69c-.26 1.15-.75 2.09-1.45 2.82s-1.55 1.26-2.53 1.61c-.98.34-2.01.51-3.1.51Zm-4-9.75h7.69c0-.67-.15-1.27-.46-1.82-.3-.55-.73-.97-1.29-1.29-.55-.31-1.23-.47-2.01-.47-.85 0-1.55.17-2.12.51s-1 .79-1.3 1.33-.47 1.12-.51 1.73Z" fill="#ffffff"></path>
        <path d="M217.32 484.76c-.65 0-1.2-.21-1.65-.64-.46-.42-.68-1-.68-1.73s.23-1.31.7-1.74c.46-.43 1.02-.65 1.67-.65s1.19.22 1.64.65c.44.43.67 1.01.67 1.74s-.22 1.3-.67 1.73c-.44.42-1 .64-1.67.64Z" fill="#ffffff"></path>
    </g>
</svg>