<svg preserveAspectRatio="xMidYMid meet" data-bbox="0 0.008 331.052 418.542" viewBox="0 0.008 331.052 418.542" xmlns="http://www.w3.org/2000/svg" data-type="color" role="presentation" aria-hidden="true" aria-label="">
    <g>
        <path d="M41.6 240.23c-2.78 0-5.16-.55-7.15-1.65s-3.52-2.66-4.58-4.69-1.59-4.43-1.59-7.21.55-5.32 1.65-7.4 2.64-3.68 4.62-4.81c1.98-1.12 4.3-1.68 6.95-1.68 2.09 0 4.01.38 5.73 1.14 1.73.76 3.13 1.89 4.22 3.41 1.08 1.51 1.73 3.43 1.93 5.75h-6.47c-.3-1.21-.87-2.15-1.7-2.82s-1.99-1-3.48-1c-1.59 0-2.85.35-3.79 1.06-.93.71-1.6 1.6-1.99 2.69-.39 1.08-.59 2.21-.59 3.37s.21 2.31.62 3.44a6.3 6.3 0 0 0 2.04 2.82c.95.74 2.21 1.12 3.8 1.12.96 0 1.79-.15 2.5-.44s1.29-.72 1.76-1.29.79-1.26.97-2.06h6.62c-.15 2.27-.81 4.17-1.97 5.7a10.7 10.7 0 0 1-4.41 3.43q-2.67 1.14-5.7 1.14Z" fill="#ffffff" data-color="1"></path>
        <path d="M62.57 240.23c-.93 0-1.82-.13-2.65-.38s-1.57-.63-2.21-1.14c-.64-.5-1.15-1.14-1.53-1.89-.38-.76-.57-1.65-.57-2.69 0-1.51.32-2.7.97-3.56q.96-1.29 2.61-1.89t3.75-.78c1.4-.11 2.86-.17 4.37-.17h.91c0-.48-.11-.91-.34-1.29s-.55-.68-.96-.91c-.42-.23-.93-.34-1.53-.34-.43 0-.85.06-1.25.19s-.74.3-1 .51-.42.47-.47.78h-6.66c.15-1.24.52-2.3 1.1-3.2s1.31-1.63 2.2-2.2 1.87-.99 2.97-1.27 2.24-.42 3.43-.42c2.93 0 5.14.81 6.64 2.44s2.25 4.02 2.25 7.17v10.71h-6.17v-2.61c-.66.98-1.39 1.68-2.21 2.08s-1.57.64-2.23.72c-.67.08-1.13.11-1.38.11Zm1.81-5.11c.63 0 1.24-.16 1.84-.47.59-.31 1.08-.71 1.48-1.19.39-.48.59-.96.59-1.44v-.15h-3.75q-.45 0-.87.09c-.28.06-.52.16-.74.28-.21.13-.38.29-.51.49s-.19.45-.19.76c0 .35.09.65.28.89s.45.42.78.55.69.19 1.1.19Z" fill="#ffffff" data-color="1"></path>
        <path d="M78.08 239.93v-19.95h5.87l.46 1.89c.5-.73 1.06-1.26 1.66-1.59.61-.33 1.21-.53 1.82-.61s1.16-.11 1.67-.11c.43 0 .82 0 1.17.02s.58.03.68.06v6.47h-1.29c-.93 0-1.81.12-2.63.36s-1.48.69-1.97 1.36-.74 1.67-.74 3.01v9.08h-6.7Z" fill="#ffffff" data-color="1"></path>
        <path d="M101.44 240.23c-2.04 0-3.74-.47-5.09-1.42s-2.36-2.2-3.03-3.77c-.67-1.56-1-3.28-1-5.15 0-2.04.38-3.84 1.13-5.39.76-1.55 1.86-2.76 3.29-3.63 1.44-.87 3.19-1.31 5.26-1.31q1.02 0 1.95.21c.62.14 1.19.34 1.72.61s.97.6 1.33 1v-8.25h6.7v26.8h-6.55v-1.74c-.48.45-1.02.83-1.61 1.14-.59.3-1.23.53-1.91.68s-1.41.23-2.2.23Zm1.47-6.09c1.01 0 1.81-.21 2.4-.62q.885-.63 1.29-1.59c.405-.96.4-1.31.4-1.99s-.13-1.38-.4-2.02-.69-1.17-1.29-1.59c-.59-.42-1.38-.62-2.37-.62s-1.8.23-2.38.68-.99 1.02-1.23 1.68c-.24.67-.36 1.33-.36 1.99q0 .75.21 1.5c.21.75.37.93.68 1.32q.465.585 1.23.93c.5.23 1.11.34 1.82.34Z" fill="#ffffff" data-color="1"></path>
        <path d="M120.63 218.62c-1.21 0-2.19-.36-2.93-1.08-.75-.72-1.12-1.66-1.12-2.82s.39-2.16 1.17-2.91 1.75-1.14 2.92-1.14 2.06.36 2.84 1.08 1.17 1.7 1.17 2.93-.37 2.14-1.12 2.86c-.74.72-1.72 1.08-2.93 1.08m-3.37 21.31v-19.95h6.7v19.95z" fill="#ffffff" data-color="1"></path>
        <path d="M137.28 240.23c-1.97 0-3.74-.39-5.32-1.17s-2.83-1.94-3.77-3.46c-.93-1.53-1.4-3.39-1.4-5.58s.47-4.14 1.42-5.7 2.2-2.73 3.77-3.54c1.56-.81 3.29-1.21 5.19-1.21s3.69.42 5.24 1.25 2.79 2.03 3.71 3.6c.92 1.56 1.38 3.47 1.38 5.72s-.44 4.01-1.32 5.53a8.63 8.63 0 0 1-3.63 3.43c-1.54.77-3.29 1.15-5.26 1.15Zm-.11-6.21c.96 0 1.71-.2 2.27-.61.55-.4.95-.91 1.17-1.53.23-.62.34-1.23.34-1.84s-.11-1.24-.34-1.89c-.23-.66-.61-1.21-1.15-1.67-.54-.45-1.31-.68-2.29-.68s-1.72.23-2.29.68-.96 1-1.19 1.65c-.23.64-.34 1.28-.34 1.91s.12 1.26.36 1.87c.24.62.64 1.12 1.19 1.51s1.31.59 2.27.59Z" fill="#ffffff" data-color="1"></path>
        <path d="m154.88 239.93-6.55-19.95h7.27l3.75 14.8 3.79-14.8h7.23l-6.55 19.95h-8.93Z" fill="#ffffff" data-color="1"></path>
        <path d="M178.23 240.23c-.93 0-1.82-.13-2.65-.38s-1.57-.63-2.21-1.14c-.64-.5-1.15-1.14-1.53-1.89-.38-.76-.57-1.65-.57-2.69 0-1.51.32-2.7.96-3.56q.96-1.29 2.61-1.89t3.75-.78c1.4-.11 2.86-.17 4.37-.17h.91c0-.48-.11-.91-.34-1.29a2.55 2.55 0 0 0-.96-.91c-.42-.23-.93-.34-1.53-.34-.43 0-.85.06-1.25.19s-.74.3-1 .51c-.27.21-.42.47-.47.78h-6.66c.15-1.24.52-2.3 1.1-3.2s1.31-1.63 2.2-2.2c.88-.57 1.87-.99 2.97-1.27s2.24-.42 3.43-.42c2.93 0 5.14.81 6.64 2.44q2.25 2.445 2.25 7.17v10.71h-6.17v-2.61c-.66.98-1.39 1.68-2.21 2.08s-1.57.64-2.23.72-1.13.11-1.38.11Zm1.82-5.11c.63 0 1.24-.16 1.84-.47.59-.31 1.08-.71 1.48-1.19.39-.48.59-.96.59-1.44v-.15h-3.75q-.45 0-.87.09c-.28.06-.52.16-.74.28-.21.13-.38.29-.51.49s-.19.45-.19.76c0 .35.1.65.29.89s.45.42.78.55.69.19 1.1.19Z" fill="#ffffff" data-color="1"></path>
        <path d="M201.93 240.23c-.98 0-1.98-.11-2.99-.34a9.4 9.4 0 0 1-2.82-1.14 6.86 6.86 0 0 1-2.21-2.18c-.61-.92-1.01-2.08-1.21-3.46h6.77c.1.33.29.62.55.87.27.25.59.45.98.59s.81.21 1.27.21c.3 0 .57-.02.81-.08.24-.05.45-.13.62-.25.18-.11.31-.25.4-.4s.13-.32.13-.49q0-.525-.42-.78c-.28-.16-.66-.29-1.14-.38s-1.02-.2-1.63-.32c-.93-.2-1.94-.46-3.01-.78s-1.97-.71-2.71-1.19c-.38-.25-.7-.54-.96-.85-.27-.32-.48-.66-.64-1.04-.17-.38-.28-.77-.36-1.17s-.11-.83-.11-1.29c0-1.16.26-2.14.78-2.93s1.19-1.43 2.01-1.91 1.73-.83 2.73-1.04 1.97-.32 2.93-.32c1.41 0 2.73.23 3.96.68 1.22.45 2.25 1.19 3.07 2.2s1.33 2.35 1.53 4.01h-6.47c-.05-.45-.3-.81-.74-1.06s-.98-.38-1.61-.38c-.25 0-.49.03-.7.08s-.4.11-.57.19-.29.18-.38.3c-.09.13-.13.27-.13.42 0 .1.03.21.1.34q.09.195.36.36c.18.11.42.22.72.32.83.2 1.62.38 2.37.53l2.25.45q1.245.225 2.46.78c.81.37 1.48.92 2.03 1.65.54.73.81 1.75.81 3.07s-.26 2.37-.79 3.24-1.23 1.56-2.1 2.06c-.87.51-1.82.87-2.86 1.1s-2.06.34-3.07.34Z" fill="#ffffff" data-color="1"></path>
        <path d="M222.82 240.23c-2.02 0-3.77-.4-5.26-1.21s-2.64-1.97-3.46-3.5-1.23-3.36-1.23-5.51.42-4.11 1.27-5.66c.84-1.55 2.02-2.74 3.54-3.56 1.51-.82 3.27-1.23 5.26-1.23 1.79 0 3.38.33 4.77.98 1.39.66 2.49 1.6 3.29 2.84.81 1.24 1.24 2.75 1.29 4.54h-6.43c-.15-.73-.49-1.29-1-1.67s-1.14-.57-1.87-.57c-.91 0-1.62.23-2.12.7s-.86 1.03-1.06 1.7-.3 1.31-.3 1.91c0 .68.11 1.34.34 1.97s.59 1.15 1.1 1.55c.5.4 1.17.61 2.01.61s1.46-.2 1.97-.59c.5-.39.82-.93.95-1.61h6.66c-.05 1.82-.52 3.34-1.4 4.56s-2.04 2.15-3.48 2.78-3.04.95-4.81.95Z" fill="#ffffff" data-color="1"></path>
        <path d="M244.66 240.23c-3.05 0-5.42-.76-7.1-2.29q-2.52-2.295-2.52-6.87v-11.09h6.7v10.56c0 .66.09 1.26.26 1.8.18.54.49.98.93 1.31s1.03.49 1.76.49q1.245 0 1.8-.57c.37-.38.59-.85.68-1.42s.13-1.1.13-1.61v-10.56h6.66v11.09c0 3.25-.84 5.6-2.52 7.02-1.68 1.43-3.94 2.14-6.79 2.14Z" fill="#ffffff" data-color="1"></path>
        <path d="M257.49 239.93v-26.8h6.7v26.8z" fill="#ffffff" data-color="1"></path>
        <path d="M274.07 240.23c-.93 0-1.82-.13-2.65-.38s-1.57-.63-2.21-1.14c-.64-.5-1.15-1.14-1.53-1.89-.38-.76-.57-1.65-.57-2.69 0-1.51.32-2.7.97-3.56q.96-1.29 2.61-1.89t3.75-.78c1.4-.11 2.86-.17 4.37-.17h.91c0-.48-.11-.91-.34-1.29s-.55-.68-.96-.91c-.42-.23-.93-.34-1.53-.34-.43 0-.85.06-1.25.19s-.74.3-1 .51-.42.47-.47.78h-6.66c.15-1.24.52-2.3 1.1-3.2s1.31-1.63 2.2-2.2 1.87-.99 2.97-1.27 2.24-.42 3.43-.42c2.93 0 5.14.81 6.64 2.44s2.25 4.02 2.25 7.17v10.71h-6.17v-2.61c-.66.98-1.39 1.68-2.21 2.08s-1.57.64-2.23.72c-.67.08-1.13.11-1.38.11Zm1.81-5.11c.63 0 1.24-.16 1.84-.47.59-.31 1.08-.71 1.48-1.19.39-.48.59-.96.59-1.44v-.15h-3.75q-.45 0-.87.09c-.28.06-.52.16-.74.28-.21.13-.38.29-.51.49s-.19.45-.19.76c0 .35.09.65.28.89s.45.42.78.55.69.19 1.1.19Z" fill="#ffffff" data-color="1"></path>
        <path d="M289.58 239.93v-19.95h5.87l.46 1.89c.5-.73 1.06-1.26 1.66-1.59.61-.33 1.21-.53 1.82-.61s1.16-.11 1.67-.11c.43 0 .82 0 1.17.02s.58.03.68.06v6.47h-1.29c-.93 0-1.81.12-2.63.36s-1.48.69-1.97 1.36-.74 1.67-.74 3.01v9.08h-6.7Z" fill="#ffffff" data-color="1"></path>
        <path d="M102.89 277.53c-1.97 0-3.79-.33-5.47-.98-1.68-.66-3.05-1.68-4.13-3.07-1.07-1.39-1.72-3.15-1.95-5.3h6.89c.18.71.5 1.28.98 1.72q.72.66 1.8.96c.72.2 1.49.3 2.33.3.5 0 1.02-.05 1.55-.15s.98-.29 1.34-.57c.37-.28.55-.68.55-1.21 0-.38-.11-.69-.32-.93s-.52-.44-.91-.61c-.39-.16-.88-.31-1.46-.44-.23-.05-.46-.1-.7-.15s-.47-.1-.7-.15q-.345-.075-.72-.15c-1.29-.28-2.52-.6-3.71-.97s-2.23-.85-3.14-1.46-1.63-1.41-2.16-2.42-.79-2.28-.79-3.82c0-1.41.25-2.6.76-3.58.5-.97 1.17-1.75 2.01-2.35a9.4 9.4 0 0 1 2.73-1.34c.98-.3 1.96-.51 2.92-.62s1.82-.17 2.57-.17c1.87 0 3.51.35 4.92 1.04s2.55 1.71 3.43 3.05c.87 1.34 1.39 2.95 1.57 4.84h-6.62c-.08-.55-.3-1.03-.68-1.42s-.87-.69-1.46-.91c-.59-.21-1.28-.32-2.06-.32-.45 0-.88.04-1.29.11s-.75.19-1.04.34-.52.34-.7.57-.26.49-.26.79c0 .4.16.74.47 1.02s.78.52 1.4.72 1.38.42 2.29.64c.43.1.85.2 1.25.28.4.09.81.18 1.21.28q1.665.375 3.12.87c.97.33 1.83.76 2.57 1.29s1.33 1.24 1.76 2.14.64 2.04.64 3.43c0 1.59-.3 2.93-.91 4.03s-1.43 1.99-2.46 2.67c-1.04.68-2.2 1.18-3.48 1.49-1.29.32-2.6.47-3.94.47Z" fill="#ffffff" data-color="1"></path>
        <path d="M126.44 277.53c-3.05 0-5.42-.76-7.1-2.29q-2.52-2.295-2.52-6.87v-11.09h6.7v10.56c0 .66.09 1.26.26 1.8.18.54.49.98.93 1.31s1.03.49 1.76.49q1.245 0 1.8-.57c.37-.38.59-.85.68-1.42s.13-1.1.13-1.61v-10.56h6.66v11.09q0 4.89-2.52 7.02c-1.68 1.43-3.94 2.14-6.79 2.14Z" fill="#ffffff" data-color="1"></path>
        <path d="M139.27 284.84v-27.55h6.21l.34 2.2c.91-.98 1.84-1.67 2.8-2.04.96-.38 2.04-.57 3.25-.57 1.92 0 3.52.46 4.81 1.38s2.26 2.16 2.92 3.71.98 3.29.98 5.2-.35 3.73-1.04 5.3c-.69 1.56-1.71 2.8-3.06 3.71s-3 1.36-4.94 1.36c-.78 0-1.53-.09-2.25-.28s-1.36-.44-1.93-.74-1.03-.63-1.38-.98v9.31h-6.7Zm10.9-13.4c1.01 0 1.79-.21 2.35-.64.55-.43.94-.96 1.15-1.59s.32-1.24.32-1.82c0-.68-.13-1.36-.38-2.04q-.375-1.02-1.23-1.68c-.57-.44-1.34-.66-2.33-.66-.91 0-1.67.21-2.27.62s-1.06.95-1.36 1.59-.45 1.32-.45 2.02.14 1.34.44 1.99c.29.64.74 1.17 1.36 1.59s1.42.62 2.4.62" fill="#ffffff" data-color="1"></path>
        <path d="M163.38 284.84v-27.55h6.21l.34 2.2c.91-.98 1.84-1.67 2.8-2.04s2.04-.57 3.25-.57c1.92 0 3.52.46 4.81 1.38s2.26 2.16 2.91 3.71.98 3.29.98 5.2-.35 3.73-1.04 5.3c-.69 1.56-1.72 2.8-3.07 3.71s-3 1.36-4.94 1.36c-.78 0-1.53-.09-2.25-.28s-1.36-.44-1.93-.74-1.03-.63-1.38-.98v9.31h-6.7Zm10.9-13.4c1.01 0 1.79-.21 2.35-.64.55-.43.94-.96 1.15-1.59s.32-1.24.32-1.82c0-.68-.13-1.36-.38-2.04s-.66-1.24-1.23-1.68-1.34-.66-2.33-.66c-.91 0-1.67.21-2.27.62-.61.42-1.06.95-1.36 1.59s-.45 1.32-.45 2.02.14 1.34.43 1.99c.29.64.74 1.17 1.36 1.59s1.42.62 2.4.62Z" fill="#ffffff" data-color="1"></path>
        <path d="M197.21 277.53c-1.97 0-3.74-.39-5.32-1.17s-2.83-1.94-3.77-3.46-1.4-3.39-1.4-5.58.47-4.14 1.42-5.7c.95-1.55 2.2-2.73 3.77-3.54 1.56-.81 3.29-1.21 5.19-1.21s3.69.42 5.24 1.25 2.79 2.03 3.71 3.6c.92 1.56 1.38 3.47 1.38 5.72s-.44 4.01-1.33 5.53c-.88 1.51-2.09 2.66-3.63 3.43s-3.29 1.15-5.26 1.15Zm-.11-6.2c.96 0 1.72-.2 2.27-.61.55-.4.95-.91 1.17-1.53.23-.62.34-1.23.34-1.84s-.11-1.24-.34-1.89c-.23-.66-.61-1.21-1.16-1.67-.54-.45-1.31-.68-2.29-.68s-1.72.23-2.29.68-.97 1-1.19 1.65c-.23.64-.34 1.28-.34 1.91s.12 1.26.36 1.87c.24.62.64 1.12 1.19 1.51s1.31.59 2.27.59Z" fill="#ffffff" data-color="1"></path>
        <path d="M210.23 277.23v-19.95h5.87l.46 1.89c.5-.73 1.06-1.26 1.67-1.59s1.21-.53 1.82-.61 1.16-.11 1.67-.11c.43 0 .82 0 1.17.02.35.01.58.03.68.06v6.47h-1.29c-.93 0-1.81.12-2.63.36s-1.48.69-1.97 1.36-.74 1.67-.74 3.01v9.08h-6.7Z" fill="#ffffff" data-color="1"></path>
        <path d="M234.19 277.5c-2.35 0-4.14-.67-5.38-2.01s-1.85-3.13-1.85-5.37v-6.85h-2.8v-5.98h2.8v-5h6.7v5h5.98v5.98h-5.98v5.3c0 .56.09 1.03.28 1.42s.48.69.87.89.88.3 1.46.3c.63 0 1.15-.09 1.55-.28s.73-.38.98-.59l1.82 5.26c-.58.48-1.26.86-2.03 1.15s-1.54.49-2.31.61-1.47.17-2.1.17Z" fill="#ffffff" data-color="1"></path>
        <path d="M28.06 322.94v-18.82h-7.02v-3.62h17.97v3.62H32v18.82z" fill="#ffffff" data-color="1"></path>
        <path d="M41.2 322.94V300.5h3.87v7.87c.44-.57.96-1.04 1.56-1.4.59-.36 1.22-.62 1.87-.78.66-.16 1.28-.24 1.87-.24 1.59 0 2.83.35 3.75 1.05s1.55 1.63 1.92 2.79.56 2.48.56 3.94v9.21h-3.87v-8.54c0-.57-.04-1.15-.13-1.75-.08-.59-.25-1.13-.49-1.6-.24-.48-.6-.86-1.08-1.16s-1.11-.44-1.89-.44c-.74 0-1.38.15-1.9.46-.53.31-.95.73-1.25 1.25a6 6 0 0 0-.68 1.75c-.15.63-.22 1.27-.22 1.9v8.13h-3.87Z" fill="#ffffff" data-color="1"></path>
        <path d="M67.74 323.16c-1.74 0-3.21-.36-4.43-1.08s-2.14-1.72-2.76-3-.94-2.77-.94-4.46.32-3.19.97-4.49q.975-1.95 2.79-3.06c1.22-.74 2.68-1.11 4.4-1.11 1.27 0 2.38.23 3.33.68.95.46 1.75 1.07 2.4 1.86.64.78 1.13 1.67 1.44 2.67.32 1 .46 2.04.45 3.14l-.06.75c-.02.25-.05.5-.09.78H63.49c.06.74.26 1.42.59 2.03s.79 1.1 1.4 1.46c.6.36 1.36.54 2.27.54.53 0 1.04-.07 1.52-.21s.92-.34 1.29-.62q.555-.405.75-1.05h3.87c-.28 1.21-.78 2.19-1.52 2.95s-1.62 1.32-2.65 1.68-2.11.54-3.25.54Zm-4.19-10.22h8.06c0-.7-.16-1.33-.48-1.9s-.77-1.02-1.35-1.35-1.29-.49-2.11-.49q-1.335 0-2.22.54c-.59.36-1.05.83-1.37 1.4s-.5 1.17-.54 1.81Z" fill="#ffffff" data-color="1"></path>
        <path d="M94.65 323.16c-1.73 0-3.2-.35-4.38-1.06-1.19-.71-2.08-1.71-2.7-3-.61-1.29-.92-2.78-.92-4.48s.32-3.19.95-4.49q.96-1.95 2.79-3.06c1.23-.74 2.72-1.11 4.48-1.11 1.29 0 2.44.22 3.44.67 1.01.44 1.82 1.1 2.45 1.95.62.86 1.02 1.92 1.19 3.19h-3.81c-.25-.8-.67-1.39-1.25-1.76s-1.28-.56-2.08-.56c-1.08 0-1.93.26-2.56.78q-.93.78-1.35 1.95c-.28.78-.41 1.6-.41 2.44q0 1.335.45 2.49t1.38 1.86c.62.47 1.43.7 2.43.7.8 0 1.53-.18 2.17-.54.65-.36 1.06-.94 1.25-1.75h3.94c-.15 1.29-.58 2.36-1.29 3.22s-1.6 1.5-2.68 1.92-2.24.63-3.49.63Z" fill="#ffffff" data-color="1"></path>
        <path d="M112.68 323.16c-1.71 0-3.19-.35-4.43-1.05s-2.19-1.69-2.86-2.98-1-2.8-1-4.54.34-3.27 1.02-4.56a7.45 7.45 0 0 1 2.86-3q1.845-1.08 4.41-1.08c2.565 0 3.15.36 4.38 1.08a7.1 7.1 0 0 1 2.82 3.03c.66 1.3.98 2.83.98 4.59s-.32 3.21-.97 4.49a6.9 6.9 0 0 1-2.81 2.97q-1.845 1.05-4.41 1.05Zm-.03-3.52c1.06 0 1.91-.23 2.55-.7.65-.47 1.12-1.08 1.41-1.84.3-.76.45-1.59.45-2.48s-.15-1.72-.45-2.51q-.45-1.17-1.41-1.89c-.65-.48-1.5-.71-2.55-.71s-1.92.24-2.57.71c-.66.48-1.13 1.1-1.43 1.87s-.44 1.61-.44 2.52.15 1.72.46 2.49.78 1.39 1.43 1.84c.65.46 1.5.68 2.56.68Z" fill="#ffffff" data-color="1"></path>
        <path d="M123.98 322.94v-16.73h3.56l.25 1.9q.63-.855 1.38-1.32c.5-.31 1.02-.52 1.56-.65s1.05-.19 1.54-.19c1.06 0 1.96.21 2.71.63s1.34 1.06 1.76 1.9a5.93 5.93 0 0 1 3.11-2.27c.59-.18 1.22-.27 1.87-.27 1.29 0 2.33.27 3.11.81q1.17.81 1.71 2.22c.36.94.54 2.02.54 3.22v10.73h-3.87v-9.49c0-.42-.02-.87-.06-1.33s-.15-.9-.33-1.3-.44-.73-.78-.98-.82-.38-1.43-.38-1.12.13-1.51.4-.71.61-.95 1.05c-.24.43-.41.91-.51 1.43s-.14 1.03-.14 1.54v9.08h-3.87v-9.52c0-.4-.03-.83-.08-1.29-.05-.45-.16-.89-.32-1.3s-.41-.75-.76-1-.83-.38-1.45-.38c-.89 0-1.56.24-2.02.73s-.76 1.08-.92 1.78-.24 1.37-.24 2v8.98h-3.87Z" fill="#ffffff" data-color="1"></path>
        <path d="M159.66 323.16c-.61 0-1.23-.06-1.84-.19s-1.2-.35-1.76-.67-1.07-.74-1.54-1.27l-.09 1.9h-3.75v-22.44h3.87v7.81c.61-.78 1.4-1.37 2.36-1.76s1.96-.59 3-.59c1.65 0 3.01.38 4.08 1.13s1.86 1.77 2.38 3.06q.78 1.935.78 4.38c0 2.445-.27 3.09-.81 4.4-.54 1.3-1.36 2.33-2.46 3.1-1.1.76-2.51 1.14-4.22 1.14m-.64-3.42q1.62 0 2.55-.75t1.35-1.95c.28-.8.41-1.65.41-2.54s-.14-1.75-.43-2.51-.75-1.38-1.38-1.84c-.63-.47-1.48-.7-2.54-.7q-1.455 0-2.46.75c-.67.5-1.17 1.14-1.51 1.94q-.51 1.185-.51 2.46c0 .89.15 1.73.46 2.51s.79 1.42 1.46 1.9 1.53.73 2.59.73Z" fill="#ffffff" data-color="1"></path>
        <path d="M172.19 304.28c-.74 0-1.33-.22-1.78-.67-.44-.44-.67-1.03-.67-1.75s.23-1.27.7-1.73c.47-.45 1.05-.68 1.75-.68s1.26.22 1.75.67.73 1.03.73 1.75-.23 1.3-.7 1.75c-.46.44-1.06.67-1.78.67Zm-1.93 18.66v-16.73h3.87v16.73z" fill="#ffffff" data-color="1"></path>
        <path d="M177.88 322.94v-16.73h3.62l.22 2.13c.44-.59.96-1.06 1.56-1.4a7.2 7.2 0 0 1 1.87-.75 7.8 7.8 0 0 1 1.84-.24c1.59 0 2.84.35 3.76 1.05q1.38 1.05 1.95 2.79c.38 1.16.57 2.47.57 3.9v9.24h-3.87v-8.6c0-.61-.04-1.21-.13-1.79-.08-.58-.25-1.11-.49-1.57-.24-.47-.59-.84-1.03-1.11s-1.04-.41-1.78-.41c-.91 0-1.68.24-2.32.73-.63.49-1.11 1.14-1.43 1.95s-.48 1.74-.48 2.78v8.03h-3.87Z" fill="#ffffff" data-color="1"></path>
        <path d="M202.25 323.16c-.78 0-1.52-.11-2.22-.32s-1.32-.52-1.87-.94q-.825-.615-1.32-1.56c-.33-.62-.49-1.36-.49-2.21 0-1.08.21-1.96.63-2.65s1-1.21 1.73-1.57 1.56-.61 2.49-.75 1.9-.21 2.92-.21h3.27c0-.74-.12-1.38-.35-1.92s-.6-.97-1.09-1.29-1.14-.48-1.92-.48c-.51 0-.98.06-1.41.17q-.645.18-1.11.54c-.31.24-.52.56-.65.94h-3.97c.15-.87.45-1.61.91-2.24.46-.62 1.02-1.14 1.68-1.54.67-.4 1.4-.7 2.21-.9s1.62-.3 2.44-.3c2.43 0 4.21.7 5.32 2.1s1.67 3.35 1.67 5.87v9.01h-3.43l-.09-2.16c-.49.72-1.07 1.25-1.75 1.59s-1.33.56-1.97.65-1.17.14-1.62.14Zm.76-3.14q1.275 0 2.25-.48c.975-.48 1.18-.76 1.57-1.33s.59-1.23.59-1.97v-.54h-3.05c-.51 0-1.01.02-1.51.05s-.95.12-1.35.25c-.4.14-.72.34-.97.62-.24.28-.37.67-.37 1.17s.13.92.4 1.24c.26.32.61.56 1.05.73.43.17.89.25 1.38.25Z" fill="#ffffff" data-color="1"></path>
        <path d="M222.09 322.94c-1.35 0-2.47-.18-3.35-.54s-1.54-.94-1.97-1.75c-.43-.8-.65-1.88-.65-3.24v-7.78h-2.57v-3.43h2.57v-4.67h3.87v4.67h3.9v3.43h-3.9v7.27c0 .85.15 1.49.44 1.94s.96.67 2 .67h1.33v3.43h-1.68Z" fill="#ffffff" data-color="1"></path>
        <path d="M228.41 304.28c-.74 0-1.33-.22-1.78-.67-.44-.44-.67-1.03-.67-1.75s.23-1.27.7-1.73c.47-.45 1.05-.68 1.75-.68s1.26.22 1.75.67.73 1.03.73 1.75-.23 1.3-.7 1.75c-.46.44-1.06.67-1.78.67Zm-1.94 18.66v-16.73h3.87v16.73z" fill="#ffffff" data-color="1"></path>
        <path d="M241.74 323.16c-1.71 0-3.19-.35-4.43-1.05s-2.19-1.69-2.86-2.98-1-2.8-1-4.54.34-3.27 1.02-4.56a7.45 7.45 0 0 1 2.86-3q1.845-1.08 4.41-1.08c2.565 0 3.15.36 4.38 1.08s2.17 1.73 2.83 3.03.98 2.83.98 4.59-.32 3.21-.97 4.49-1.58 2.27-2.81 2.97q-1.845 1.05-4.41 1.05m-.03-3.52c1.06 0 1.91-.23 2.56-.7.64-.47 1.12-1.08 1.41-1.84.3-.76.44-1.59.44-2.48s-.15-1.72-.44-2.51q-.45-1.17-1.41-1.89c-.65-.48-1.5-.71-2.56-.71s-1.92.24-2.57.71c-.66.48-1.13 1.1-1.43 1.87q-.45 1.155-.45 2.52c0 1.365.15 1.72.46 2.49s.78 1.39 1.43 1.84c.65.46 1.5.68 2.56.68Z" fill="#ffffff" data-color="1"></path>
        <path d="M253.04 322.94v-16.73h3.62l.22 2.13c.44-.59.96-1.06 1.56-1.4a7.2 7.2 0 0 1 1.87-.75 7.8 7.8 0 0 1 1.84-.24c1.59 0 2.84.35 3.76 1.05q1.38 1.05 1.95 2.79c.38 1.16.57 2.47.57 3.9v9.24h-3.87v-8.6c0-.61-.04-1.21-.13-1.79-.08-.58-.25-1.11-.49-1.57-.24-.47-.59-.84-1.03-1.11s-1.04-.41-1.78-.41c-.91 0-1.68.24-2.32.73-.63.49-1.11 1.14-1.43 1.95s-.48 1.74-.48 2.78v8.03h-3.87Z" fill="#ffffff" data-color="1"></path>
        <path d="M288.56 323.16c-1.71 0-3.19-.35-4.43-1.05s-2.19-1.69-2.86-2.98-1-2.8-1-4.54.34-3.27 1.02-4.56a7.45 7.45 0 0 1 2.86-3q1.845-1.08 4.41-1.08c2.565 0 3.15.36 4.38 1.08s2.17 1.73 2.83 3.03c.65 1.3.98 2.83.98 4.59s-.32 3.21-.97 4.49-1.58 2.27-2.81 2.97q-1.845 1.05-4.41 1.05m-.04-3.52c1.06 0 1.91-.23 2.56-.7s1.12-1.08 1.41-1.84.44-1.59.44-2.48-.15-1.72-.44-2.51q-.45-1.17-1.41-1.89c-.65-.48-1.5-.71-2.56-.71s-1.92.24-2.57.71c-.66.48-1.13 1.1-1.43 1.87s-.44 1.61-.44 2.52.15 1.72.46 2.49.78 1.39 1.43 1.84c.64.46 1.5.68 2.55.68Z" fill="#ffffff" data-color="1"></path>
        <path d="M301.03 322.94v-13.3h-2.6v-3.43h2.6v-1.59c0-1.27.19-2.31.57-3.13.38-.81.99-1.41 1.82-1.79s1.91-.57 3.22-.57h2.47v3.43h-2.03c-.57 0-1.02.1-1.33.29-.32.19-.55.47-.68.84q-.21.555-.21 1.35v1.17h4.25v3.43h-4.25v13.3h-3.84Z" fill="#ffffff" data-color="1"></path>
        <path d="M0 354.68v-22.44h3.87v22.44z" fill="#ffffff" data-color="1"></path>
        <path d="M7.84 347.32v-3.49h10.48v3.49z" fill="#ffffff" data-color="1"></path>
        <path d="M29.65 354.91c-1.73 0-3.2-.35-4.38-1.06-1.19-.71-2.08-1.71-2.7-3-.61-1.29-.92-2.78-.92-4.48s.32-3.19.95-4.49q.96-1.95 2.79-3.06c1.83-1.11 2.72-1.11 4.48-1.11 1.29 0 2.44.22 3.44.67 1.01.44 1.82 1.09 2.45 1.95.62.86 1.02 1.92 1.19 3.19h-3.81c-.25-.8-.67-1.39-1.25-1.76s-1.28-.56-2.08-.56c-1.08 0-1.93.26-2.56.78q-.93.78-1.35 1.95c-.28.78-.41 1.6-.41 2.44q0 1.335.45 2.49t1.38 1.86c.62.47 1.43.7 2.43.7.8 0 1.53-.18 2.17-.54.65-.36 1.06-.94 1.25-1.75h3.94c-.15 1.29-.58 2.36-1.29 3.22s-1.6 1.5-2.68 1.92-2.24.63-3.49.63Z" fill="#ffffff" data-color="1"></path>
        <path d="M45.36 354.91c-.78 0-1.52-.11-2.22-.32s-1.32-.52-1.87-.94q-.825-.615-1.32-1.56c-.33-.62-.49-1.36-.49-2.21 0-1.08.21-1.96.63-2.65s1-1.21 1.73-1.57q1.095-.54 2.49-.75c.93-.14 1.91-.21 2.92-.21h3.27c0-.74-.12-1.38-.35-1.92s-.6-.97-1.1-1.29q-.75-.48-1.92-.48c-.51 0-.98.06-1.41.17q-.645.18-1.11.54c-.31.24-.52.56-.65.94h-3.97c.15-.87.45-1.61.9-2.24.46-.62 1.02-1.14 1.68-1.54.67-.4 1.4-.7 2.21-.9.8-.2 1.62-.3 2.44-.3 2.43 0 4.21.7 5.32 2.09 1.11 1.4 1.67 3.35 1.67 5.87v9.01h-3.43l-.1-2.16c-.49.72-1.07 1.25-1.75 1.59s-1.33.56-1.97.65-1.17.14-1.62.14Zm.76-3.15q1.275 0 2.25-.48c.66-.32 1.18-.76 1.57-1.33s.59-1.23.59-1.97v-.54h-3.05c-.51 0-1.01.02-1.51.05s-.95.12-1.35.25c-.4.14-.73.34-.97.62s-.37.67-.37 1.17.13.92.4 1.24.61.56 1.05.73c.43.17.89.25 1.38.25Z" fill="#ffffff" data-color="1"></path>
        <path d="M57.9 354.68v-16.73h3.52l.22 2.19c.42-.63.91-1.13 1.44-1.48s1.12-.6 1.75-.75c.62-.15 1.25-.22 1.89-.22h.65c.2 0 .37.01.49.03v3.68h-1.02c-1.1 0-2.03.21-2.79.64s-1.33 1.03-1.71 1.81-.57 1.75-.57 2.89v7.94z" fill="#ffffff" data-color="1"></path>
        <path d="M70.15 354.68v-16.73h3.62l.22 2.13c.45-.59.96-1.06 1.56-1.4a7.2 7.2 0 0 1 1.87-.75 7.8 7.8 0 0 1 1.84-.24c1.59 0 2.84.35 3.76 1.05q1.38 1.05 1.95 2.79c.38 1.16.57 2.47.57 3.9v9.24h-3.87v-8.6c0-.61-.04-1.21-.13-1.79-.08-.58-.25-1.11-.49-1.57-.24-.47-.59-.84-1.03-1.11s-1.04-.41-1.78-.41c-.91 0-1.68.24-2.32.73s-1.11 1.14-1.43 1.95-.48 1.74-.48 2.78v8.03h-3.87Z" fill="#ffffff" data-color="1"></path>
        <path d="M91.13 336.02c-.74 0-1.33-.22-1.78-.67-.45-.44-.67-1.03-.67-1.75s.23-1.27.7-1.73 1.05-.68 1.75-.68 1.26.22 1.75.67c.49.44.73 1.03.73 1.75s-.23 1.3-.7 1.75c-.47.44-1.06.67-1.78.67Zm-1.94 18.66v-16.73h3.87v16.73z" fill="#ffffff" data-color="1"></path>
        <path d="M104.11 354.68c-1.36 0-2.47-.18-3.35-.54s-1.53-.94-1.97-1.75-.65-1.88-.65-3.24v-7.78h-2.57v-3.43h2.57v-4.67h3.87v4.67h3.9v3.43h-3.9v7.27c0 .85.15 1.49.45 1.94.29.44.96.67 2 .67h1.33v3.43z" fill="#ffffff" data-color="1"></path>
        <path d="M110.43 336.02c-.74 0-1.33-.22-1.78-.67s-.67-1.03-.67-1.75.23-1.27.7-1.73c.46-.46 1.05-.68 1.75-.68s1.26.22 1.75.67.73 1.03.73 1.75-.23 1.3-.7 1.75c-.47.44-1.06.67-1.78.67Zm-1.94 18.66v-16.73h3.87v16.73z" fill="#ffffff" data-color="1"></path>
        <path d="M116.11 354.68v-16.73h3.62l.22 2.13c.44-.59.96-1.06 1.56-1.4.59-.34 1.22-.59 1.87-.75s1.27-.24 1.84-.24c1.59 0 2.84.35 3.76 1.05q1.38 1.05 1.95 2.79c.38 1.16.57 2.47.57 3.9v9.24h-3.87v-8.6c0-.61-.04-1.21-.13-1.79-.08-.58-.25-1.11-.49-1.57s-.59-.84-1.03-1.11c-.45-.27-1.04-.41-1.78-.41-.91 0-1.68.24-2.32.73s-1.11 1.14-1.43 1.95-.48 1.74-.48 2.78v8.03h-3.87Z" fill="#ffffff" data-color="1"></path>
        <path d="M142.64 354.91c-1.74 0-3.21-.36-4.43-1.08a6.9 6.9 0 0 1-2.76-3c-.62-1.28-.94-2.77-.94-4.46s.32-3.19.97-4.49c.64-1.3 1.58-2.32 2.79-3.06s2.68-1.11 4.4-1.11c1.27 0 2.38.23 3.33.68.95.46 1.75 1.07 2.4 1.86q.975 1.17 1.44 2.67c.32.99.46 2.04.44 3.14l-.06.75c-.02.24-.05.5-.1.78h-11.74c.06.74.26 1.42.59 2.03s.79 1.1 1.4 1.46c.6.36 1.36.54 2.27.54.53 0 1.04-.07 1.52-.21.49-.14.91-.34 1.29-.62q.555-.405.75-1.05h3.87c-.28 1.21-.78 2.19-1.52 2.95s-1.62 1.32-2.65 1.68-2.11.54-3.25.54Zm-4.19-10.22h8.06c0-.7-.16-1.33-.48-1.9q-.48-.855-1.35-1.35c-.58-.33-1.29-.49-2.11-.49q-1.335 0-2.22.54c-.59.36-1.05.83-1.37 1.4s-.5 1.17-.54 1.81Z" fill="#ffffff" data-color="1"></path>
        <path d="M167.53 354.91c-.78 0-1.52-.11-2.22-.32s-1.32-.52-1.87-.94q-.825-.615-1.32-1.56c-.33-.62-.49-1.36-.49-2.21 0-1.08.21-1.96.63-2.65s1-1.21 1.73-1.57q1.095-.54 2.49-.75c1.395-.21 1.91-.21 2.92-.21h3.27c0-.74-.12-1.38-.35-1.92s-.6-.97-1.1-1.29q-.75-.48-1.92-.48c-.51 0-.98.06-1.41.17q-.645.18-1.11.54c-.31.24-.52.56-.65.94h-3.97c.15-.87.45-1.61.91-2.24.46-.62 1.02-1.14 1.68-1.54.67-.4 1.4-.7 2.21-.9.8-.2 1.62-.3 2.45-.3 2.43 0 4.21.7 5.32 2.09s1.67 3.35 1.67 5.87v9.01h-3.43l-.1-2.16c-.49.72-1.07 1.25-1.75 1.59s-1.33.56-1.97.65-1.17.14-1.62.14Zm.76-3.15q1.275 0 2.25-.48c.66-.32 1.18-.76 1.57-1.33s.59-1.23.59-1.97v-.54h-3.05c-.51 0-1.01.02-1.51.05s-.95.12-1.35.25c-.4.14-.72.34-.97.62-.24.28-.37.67-.37 1.17s.13.92.4 1.24c.26.32.61.56 1.05.73s.89.25 1.38.25Z" fill="#ffffff" data-color="1"></path>
        <path d="M180.07 354.68v-16.73h3.62l.22 2.13c.44-.59.96-1.06 1.56-1.4a7.2 7.2 0 0 1 1.87-.75 7.8 7.8 0 0 1 1.84-.24c1.59 0 2.84.35 3.76 1.05q1.38 1.05 1.95 2.79c.38 1.16.57 2.47.57 3.9v9.24h-3.87v-8.6c0-.61-.04-1.21-.13-1.79s-.25-1.11-.49-1.57-.59-.84-1.03-1.11-1.04-.41-1.78-.41c-.91 0-1.68.24-2.32.73s-1.11 1.14-1.43 1.95-.48 1.74-.48 2.78v8.03h-3.87Z" fill="#ffffff" data-color="1"></path>
        <path d="M205.93 354.91c-1.69 0-3.09-.39-4.19-1.16s-1.92-1.8-2.46-3.1q-.81-1.935-.81-4.32c0-2.385.29-3.13.86-4.43s1.43-2.33 2.57-3.08 2.57-1.13 4.29-1.13q.945 0 1.86.21.9.21 1.71.63c.54.29.99.66 1.35 1.13v-7.43h3.87v22.44h-3.75l-.06-2.09c-.4.53-.87.96-1.41 1.3s-1.14.59-1.79.76c-.66.17-1.33.25-2.03.25Zm.74-3.5c1.02 0 1.85-.24 2.51-.71.65-.48 1.15-1.11 1.47-1.9.33-.79.49-1.63.49-2.52s-.16-1.78-.49-2.54-.82-1.38-1.47-1.84c-.66-.47-1.49-.7-2.51-.7-1.08 0-1.93.24-2.56.73s-1.08 1.13-1.36 1.92c-.29.79-.43 1.65-.43 2.56q0 1.02.24 1.92c.16.6.41 1.14.75 1.6.34.47.78.83 1.33 1.1.55.26 1.23.4 2.03.4Z" fill="#ffffff" data-color="1"></path>
        <path d="M234.22 354.87c-1.84 0-3.18-.51-4.03-1.52-.85-1.02-1.27-2.42-1.27-4.22v-7.75h-2.57v-3.43h2.57v-4.7h3.87v4.7h5.08v3.43h-5.08v7.02c0 .55.06 1.05.19 1.49s.36.79.7 1.05c.34.25.8.39 1.4.41.51 0 .94-.08 1.3-.25s.66-.36.89-.57l1.3 2.95c-.4.34-.85.61-1.35.83-.5.21-1 .36-1.51.44s-1.01.13-1.49.13Z" fill="#ffffff" data-color="1"></path>
        <path d="M245.99 354.91c-.78 0-1.52-.11-2.22-.32s-1.32-.52-1.87-.94q-.825-.615-1.32-1.56c-.33-.62-.49-1.36-.49-2.21 0-1.08.21-1.96.63-2.65s1-1.21 1.73-1.57q1.095-.54 2.49-.75c1.395-.21 1.9-.21 2.92-.21h3.27c0-.74-.12-1.38-.35-1.92s-.6-.97-1.09-1.29q-.75-.48-1.92-.48c-.51 0-.98.06-1.41.17q-.645.18-1.11.54c-.31.24-.52.56-.65.94h-3.97c.15-.87.45-1.61.9-2.24.46-.62 1.02-1.14 1.68-1.54.67-.4 1.4-.7 2.21-.9.8-.2 1.62-.3 2.44-.3 2.43 0 4.21.7 5.32 2.09 1.11 1.4 1.67 3.35 1.67 5.87v9.01h-3.43l-.09-2.16c-.49.72-1.07 1.25-1.75 1.59s-1.33.56-1.97.65-1.17.14-1.62.14Zm.76-3.15q1.275 0 2.25-.48c.66-.32 1.18-.76 1.57-1.33s.59-1.23.59-1.97v-.54h-3.05c-.51 0-1.01.02-1.51.05s-.95.12-1.35.25c-.4.14-.73.34-.97.62s-.37.67-.37 1.17.13.92.4 1.24.61.56 1.05.73c.43.17.89.25 1.38.25Z" fill="#ffffff" data-color="1"></path>
        <path d="M265.92 354.91c-2.41 0-4.26-.62-5.54-1.87s-1.92-3.15-1.92-5.71v-9.36h3.87v9.11c0 .89.12 1.66.37 2.32.24.66.63 1.16 1.17 1.51s1.22.52 2.05.52c.89 0 1.59-.19 2.11-.56s.88-.88 1.1-1.54c.21-.66.32-1.41.32-2.25v-9.11h3.87v9.36q0 3.93-1.95 5.76c-1.3 1.22-3.12 1.83-5.44 1.83Z" fill="#ffffff" data-color="1"></path>
        <path d="M277 354.68v-16.73h3.52l.22 2.19c.42-.63.91-1.13 1.44-1.48s1.12-.6 1.75-.75c.62-.15 1.25-.22 1.89-.22h.65c.2 0 .37.01.49.03v3.68h-1.02c-1.1 0-2.03.21-2.79.64s-1.33 1.03-1.71 1.81-.57 1.75-.57 2.89v7.94z" fill="#ffffff" data-color="1"></path>
        <path d="M291.19 336.02c-.74 0-1.33-.22-1.78-.67-.44-.44-.67-1.03-.67-1.75s.23-1.27.7-1.73 1.05-.68 1.75-.68 1.26.22 1.75.67.73 1.03.73 1.75-.23 1.3-.7 1.75c-.46.44-1.06.67-1.78.67Zm-1.94 18.66v-16.73h3.87v16.73z" fill="#ffffff" data-color="1"></path>
        <path d="M296.87 354.68v-16.73h3.62l.22 2.13c.44-.59.96-1.06 1.56-1.4a7.2 7.2 0 0 1 1.87-.75 7.8 7.8 0 0 1 1.84-.24c1.59 0 2.84.35 3.76 1.05q1.38 1.05 1.95 2.79c.38 1.16.57 2.47.57 3.9v9.24h-3.87v-8.6c0-.61-.04-1.21-.13-1.79s-.25-1.11-.49-1.57-.59-.84-1.03-1.11-1.04-.41-1.78-.41c-.91 0-1.68.24-2.32.73s-1.11 1.14-1.43 1.95-.48 1.74-.48 2.78v8.03h-3.87Z" fill="#ffffff" data-color="1"></path>
        <path d="M323.41 354.91c-1.73 0-3.21-.36-4.43-1.08a6.9 6.9 0 0 1-2.76-3c-.62-1.28-.94-2.77-.94-4.46s.32-3.19.97-4.49 1.58-2.32 2.79-3.06c1.22-.74 2.68-1.11 4.4-1.11 1.27 0 2.38.23 3.33.68.95.46 1.75 1.07 2.4 1.86.64.78 1.13 1.67 1.44 2.67s.46 2.04.44 3.14l-.06.75q-.03.36-.09.78h-11.75c.06.74.26 1.42.59 2.03s.79 1.1 1.4 1.46c.6.36 1.36.54 2.27.54.53 0 1.04-.07 1.52-.21.49-.14.92-.34 1.29-.62q.555-.405.75-1.05h3.87c-.28 1.21-.78 2.19-1.52 2.95s-1.62 1.32-2.65 1.68-2.11.54-3.25.54Zm-4.19-10.22h8.06c0-.7-.16-1.33-.48-1.9q-.48-.855-1.35-1.35c-.58-.33-1.29-.49-2.11-.49q-1.335 0-2.22.54c-.59.36-1.05.83-1.37 1.4s-.5 1.17-.54 1.81Z" fill="#ffffff" data-color="1"></path>
        <path d="M45.45 386.65c-.8 0-1.6-.08-2.4-.25-.79-.17-1.54-.45-2.24-.84s-1.28-.93-1.75-1.6-.77-1.52-.92-2.54h3.9c.17.47.44.84.81 1.13s.8.5 1.3.63c.5.14.99.21 1.48.21.3 0 .62-.02.97-.06s.68-.13.98-.25c.31-.13.55-.31.75-.56.19-.24.29-.57.29-.97 0-.38-.11-.68-.32-.9s-.5-.4-.86-.54-.79-.25-1.3-.33c-.91-.19-1.88-.4-2.92-.62s-1.94-.58-2.7-1.06a3.75 3.75 0 0 1-1.42-1.51c-.16-.31-.28-.64-.35-1-.08-.36-.11-.75-.11-1.17 0-.89.18-1.65.55-2.27s.87-1.13 1.49-1.52 1.34-.68 2.14-.87 1.63-.29 2.48-.29c1.14 0 2.18.18 3.11.54s1.71.91 2.33 1.65 1 1.68 1.13 2.83h-3.68c-.11-.53-.43-.95-.97-1.27s-1.22-.48-2.05-.48c-.3 0-.6.03-.92.08s-.62.14-.91.25c-.29.12-.52.29-.7.52s-.27.52-.27.86c0 .32.08.59.24.83s.4.43.73.59.71.29 1.16.4c.72.15 1.47.3 2.25.44.78.15 1.46.3 2.03.44.68.19 1.29.46 1.84.81s.98.8 1.29 1.36.46 1.28.46 2.14c0 1.02-.21 1.86-.62 2.54s-.96 1.21-1.63 1.59c-.68.38-1.43.66-2.25.83-.83.17-1.64.25-2.44.25Z" fill="#ffffff" data-color="1"></path>
        <path d="M62.66 386.65c-2.41 0-4.26-.62-5.54-1.87s-1.92-3.15-1.92-5.71v-9.36h3.87v9.11c0 .89.12 1.66.37 2.32.24.66.63 1.16 1.17 1.51s1.22.52 2.05.52c.89 0 1.59-.19 2.11-.56s.88-.88 1.09-1.54.32-1.41.32-2.25v-9.11h3.87v9.36q0 3.93-1.95 5.76c-1.3 1.22-3.12 1.83-5.44 1.83Z" fill="#ffffff" data-color="1"></path>
        <path d="M73.73 392.58v-22.89h3.62l.19 2.25c.66-.87 1.44-1.5 2.35-1.9s1.92-.6 3.01-.6c1.65 0 3.02.38 4.1 1.14s1.88 1.79 2.41 3.08.79 2.75.79 4.38-.28 3.1-.82 4.4c-.55 1.3-1.38 2.33-2.49 3.08s-2.5 1.13-4.17 1.13c-.78 0-1.5-.08-2.14-.25-.65-.17-1.22-.41-1.71-.73-.5-.32-.92-.68-1.25-1.08v8h-3.87Zm8.38-9.42c1.08 0 1.93-.24 2.54-.71s1.06-1.1 1.33-1.87.41-1.59.41-2.46-.14-1.76-.43-2.54-.75-1.42-1.38-1.9-1.48-.73-2.54-.73c-.97 0-1.79.24-2.46.71s-1.17 1.11-1.51 1.89-.51 1.63-.51 2.54.16 1.78.48 2.56c.32.77.81 1.39 1.49 1.84.68.46 1.53.68 2.57.68Z" fill="#ffffff" data-color="1"></path>
        <path d="M93.32 392.58v-22.89h3.62l.19 2.25c.66-.87 1.44-1.5 2.35-1.9s1.92-.6 3.01-.6c1.65 0 3.02.38 4.1 1.14s1.88 1.79 2.41 3.08.79 2.75.79 4.38-.28 3.1-.82 4.4c-.55 1.3-1.38 2.33-2.49 3.08s-2.5 1.13-4.17 1.13c-.78 0-1.5-.08-2.14-.25-.65-.17-1.22-.41-1.71-.73-.5-.32-.92-.68-1.25-1.08v8h-3.87Zm8.38-9.42c1.08 0 1.93-.24 2.54-.71s1.06-1.1 1.33-1.87.41-1.59.41-2.46-.14-1.76-.43-2.54-.75-1.42-1.38-1.9-1.48-.73-2.54-.73c-.97 0-1.79.24-2.46.71s-1.17 1.11-1.51 1.89-.51 1.63-.51 2.54.16 1.78.48 2.56c.32.77.81 1.39 1.49 1.84.68.46 1.53.68 2.57.68Z" fill="#ffffff" data-color="1"></path>
        <path d="M120.55 386.65c-1.71 0-3.19-.35-4.43-1.05s-2.19-1.69-2.86-2.98-1-2.8-1-4.54.34-3.27 1.02-4.55a7.45 7.45 0 0 1 2.86-3q1.845-1.08 4.41-1.08c2.565 0 3.15.36 4.38 1.08s2.17 1.73 2.83 3.03.98 2.83.98 4.59-.32 3.21-.97 4.49-1.58 2.27-2.81 2.97q-1.845 1.05-4.41 1.05Zm-.03-3.53c1.06 0 1.91-.23 2.55-.7.65-.46 1.12-1.08 1.41-1.84.3-.76.44-1.59.44-2.48s-.15-1.72-.44-2.51q-.45-1.17-1.41-1.89c-.64-.48-1.5-.71-2.55-.71s-1.92.24-2.57.71-1.13 1.1-1.43 1.87-.44 1.61-.44 2.52.15 1.72.46 2.49.78 1.39 1.43 1.84c.64.46 1.5.68 2.55.68Z" fill="#ffffff" data-color="1"></path>
        <path d="M131.85 386.43V369.7h3.52l.22 2.19c.42-.63.91-1.13 1.45-1.48s1.12-.6 1.75-.75 1.25-.22 1.89-.22h.65c.2 0 .37.01.49.03v3.68h-1.02c-1.1 0-2.03.21-2.79.64s-1.33 1.03-1.71 1.81-.57 1.75-.57 2.89v7.94h-3.87Z" fill="#ffffff" data-color="1"></path>
        <path d="M150.77 386.62c-1.84 0-3.18-.51-4.03-1.52s-1.27-2.42-1.27-4.22v-7.75h-2.57v-3.43h2.57V365h3.87v4.7h5.08v3.43h-5.08v7.02c0 .55.06 1.05.19 1.49s.36.79.7 1.05c.34.25.8.39 1.4.41.51 0 .94-.08 1.3-.25s.66-.36.89-.57l1.3 2.95c-.4.34-.85.61-1.35.83-.5.21-1 .36-1.51.44s-1 .13-1.49.13Z" fill="#ffffff" data-color="1"></path>
        <path d="M163.62 386.65c-.8 0-1.6-.08-2.4-.25-.79-.17-1.54-.45-2.24-.84s-1.28-.93-1.75-1.6-.77-1.52-.92-2.54h3.9c.17.47.44.84.81 1.13s.8.5 1.3.63c.5.14.99.21 1.48.21.29 0 .62-.02.97-.06s.68-.13.98-.25.56-.31.75-.56c.19-.24.29-.57.29-.97 0-.38-.11-.68-.32-.9s-.5-.4-.86-.54-.79-.25-1.3-.33c-.91-.19-1.88-.4-2.92-.62s-1.94-.58-2.7-1.06c-.32-.19-.59-.41-.82-.67-.23-.25-.43-.53-.59-.84s-.28-.64-.35-1a6 6 0 0 1-.11-1.17c0-.89.19-1.65.56-2.27s.87-1.13 1.49-1.52 1.34-.68 2.14-.87 1.63-.29 2.48-.29c1.14 0 2.18.18 3.11.54s1.71.91 2.33 1.65 1 1.68 1.13 2.83h-3.68c-.11-.53-.43-.95-.97-1.27s-1.22-.48-2.05-.48c-.3 0-.6.03-.92.08s-.62.14-.9.25c-.29.12-.52.29-.7.52s-.27.52-.27.86c0 .32.08.59.24.83s.4.43.73.59.71.29 1.16.4c.72.15 1.47.3 2.25.44.78.15 1.46.3 2.03.44.68.19 1.29.46 1.84.81s.98.8 1.29 1.36.46 1.28.46 2.14c0 1.02-.21 1.86-.62 2.54s-.96 1.21-1.63 1.59c-.68.38-1.43.66-2.25.83-.83.17-1.64.25-2.44.25Z" fill="#ffffff" data-color="1"></path>
        <path d="M182.26 386.43v-22.44h3.87v7.87c.44-.57.96-1.04 1.56-1.4.59-.36 1.22-.62 1.87-.78.66-.16 1.28-.24 1.87-.24 1.59 0 2.83.35 3.75 1.05s1.55 1.63 1.92 2.79.56 2.48.56 3.94v9.21h-3.87v-8.54c0-.57-.04-1.15-.13-1.75-.08-.59-.25-1.13-.49-1.6-.24-.48-.6-.86-1.08-1.16s-1.11-.44-1.89-.44c-.74 0-1.38.15-1.9.46-.53.31-.95.73-1.25 1.25a6 6 0 0 0-.68 1.75c-.15.63-.22 1.27-.22 1.9v8.13h-3.87Z" fill="#ffffff" data-color="1"></path>
        <path d="M208.79 386.65c-1.74 0-3.21-.36-4.43-1.08a6.9 6.9 0 0 1-2.76-3c-.62-1.28-.94-2.77-.94-4.46s.32-3.19.97-4.49 1.58-2.32 2.79-3.06c1.22-.74 2.68-1.11 4.4-1.11 1.27 0 2.38.23 3.33.68.95.46 1.75 1.07 2.4 1.86.64.78 1.13 1.67 1.44 2.67.32.99.46 2.04.45 3.14l-.06.75q-.03.36-.09.78h-11.75c.06.74.26 1.42.59 2.03s.79 1.1 1.4 1.46c.6.36 1.36.54 2.27.54.53 0 1.04-.07 1.52-.21.49-.14.92-.34 1.29-.62q.555-.405.75-1.05h3.87c-.28 1.21-.78 2.19-1.52 2.95s-1.62 1.32-2.65 1.68-2.11.54-3.25.54Zm-4.19-10.22h8.06c0-.7-.16-1.33-.48-1.9s-.77-1.02-1.35-1.35-1.29-.49-2.11-.49q-1.335 0-2.22.54c-.59.36-1.05.83-1.37 1.4s-.5 1.17-.54 1.81Z" fill="#ffffff" data-color="1"></path>
        <path d="M224.85 386.65c-.78 0-1.52-.11-2.22-.32s-1.32-.52-1.87-.94q-.825-.615-1.32-1.56c-.33-.62-.49-1.36-.49-2.21 0-1.08.21-1.96.63-2.65s1-1.21 1.73-1.57q1.095-.54 2.49-.75c.93-.14 1.9-.21 2.92-.21h3.27c0-.74-.12-1.38-.35-1.92s-.6-.97-1.09-1.29-1.14-.48-1.92-.48c-.51 0-.98.06-1.41.17q-.645.18-1.11.54c-.31.24-.52.56-.65.94h-3.97c.15-.87.45-1.61.91-2.24.46-.62 1.02-1.14 1.68-1.54.67-.4 1.4-.7 2.21-.9.8-.2 1.62-.3 2.44-.3 2.43 0 4.21.7 5.32 2.09s1.67 3.35 1.67 5.87v9.01h-3.43l-.09-2.16c-.49.72-1.07 1.25-1.75 1.59s-1.33.56-1.97.65-1.17.14-1.62.14Zm.76-3.14q1.275 0 2.25-.48c.66-.32 1.18-.76 1.57-1.33s.59-1.23.59-1.97v-.54h-3.05c-.51 0-1.01.02-1.51.05s-.95.12-1.35.25c-.4.14-.72.34-.97.62-.24.28-.37.67-.37 1.17s.13.92.4 1.24c.26.32.61.56 1.05.73s.89.25 1.38.25Z" fill="#ffffff" data-color="1"></path>
        <path d="M237.39 386.43v-22.44h3.87v22.44z" fill="#ffffff" data-color="1"></path>
        <path d="M252.31 386.43c-1.35 0-2.47-.18-3.35-.54s-1.54-.94-1.97-1.75-.65-1.88-.65-3.24v-7.78h-2.57v-3.43h2.57v-4.67h3.87v4.67h3.9v3.43h-3.9v7.27c0 .85.15 1.49.44 1.94.3.44.96.67 2 .67h1.33v3.43h-1.68Z" fill="#ffffff" data-color="1"></path>
        <path d="M256.69 386.43v-22.44h3.87v7.87c.44-.57.96-1.04 1.55-1.4s1.22-.62 1.87-.78 1.28-.24 1.87-.24c1.59 0 2.83.35 3.75 1.05q1.365 1.05 1.92 2.79c.37 1.16.55 2.48.55 3.94v9.21h-3.87v-8.54c0-.57-.04-1.15-.13-1.75-.08-.59-.25-1.13-.49-1.6s-.6-.86-1.08-1.16-1.11-.44-1.89-.44c-.74 0-1.38.15-1.9.46-.53.31-.95.73-1.25 1.25-.31.53-.54 1.11-.68 1.75s-.22 1.27-.22 1.9v8.13z" fill="#ffffff" data-color="1"></path>
        <path d="M283.13 394.08c-1.29 0-2.54-.17-3.76-.52s-2.34-.94-3.38-1.76l1.4-3.11c.72.57 1.52 1.02 2.41 1.35s1.86.49 2.92.49c1.67 0 2.89-.42 3.67-1.27.77-.85 1.16-2 1.16-3.46v-1.24c-.38.49-.85.89-1.4 1.21s-1.14.55-1.78.7c-.63.15-1.28.22-1.94.22-1.63 0-2.93-.33-3.89-1s-1.66-1.59-2.08-2.76-.64-2.51-.64-4.02v-9.21h3.84v8.35c0 .59.04 1.2.13 1.81s.25 1.17.51 1.68.63.92 1.13 1.22c.5.31 1.16.46 1.98.46 1.08 0 1.91-.26 2.51-.79.59-.53 1-1.22 1.22-2.06q.33-1.275.33-2.7v-7.97h3.87v15.14c0 1.42-.15 2.69-.45 3.82s-.77 2.1-1.43 2.9-1.5 1.42-2.54 1.86c-1.04.43-2.31.65-3.81.65Z" fill="#ffffff" data-color="1"></path>
        <path d="M55.82 418.17v-22.44h3.87v7.87c.45-.57.96-1.04 1.56-1.4.59-.36 1.22-.62 1.87-.78.66-.16 1.28-.24 1.87-.24q2.385 0 3.75 1.05c1.365 1.05 1.55 1.63 1.92 2.79s.56 2.48.56 3.94v9.21h-3.87v-8.54c0-.57-.04-1.15-.13-1.75-.08-.59-.25-1.13-.49-1.6s-.6-.86-1.08-1.16-1.11-.44-1.89-.44c-.74 0-1.38.15-1.9.46-.53.31-.95.73-1.25 1.25-.31.53-.53 1.11-.68 1.75-.15.63-.22 1.27-.22 1.9v8.13h-3.87Z" fill="#ffffff" data-color="1"></path>
        <path d="M82.35 418.39c-1.74 0-3.21-.36-4.43-1.08a6.9 6.9 0 0 1-2.76-3c-.62-1.28-.94-2.77-.94-4.46s.32-3.19.97-4.49c.64-1.3 1.58-2.32 2.79-3.06 1.22-.74 2.68-1.11 4.4-1.11 1.27 0 2.38.23 3.33.68s1.75 1.07 2.4 1.86 1.13 1.67 1.44 2.67c.32 1 .46 2.04.44 3.14l-.06.75c-.02.24-.05.5-.1.78H78.09c.06.74.26 1.42.59 2.03s.79 1.1 1.4 1.46c.6.36 1.36.54 2.27.54.53 0 1.04-.07 1.52-.21.49-.14.91-.34 1.29-.62q.555-.405.75-1.05h3.87c-.28 1.21-.78 2.19-1.52 2.95s-1.62 1.32-2.65 1.68-2.11.54-3.25.54Zm-4.19-10.22h8.06c0-.7-.16-1.33-.48-1.9q-.48-.855-1.35-1.35c-.58-.33-1.29-.49-2.11-.49q-1.335 0-2.22.54c-.59.36-1.05.83-1.37 1.4s-.5 1.17-.54 1.81Z" fill="#ffffff" data-color="1"></path>
        <path d="M98.41 418.39c-.78 0-1.52-.11-2.22-.32s-1.32-.52-1.87-.94q-.825-.615-1.32-1.56c-.33-.62-.49-1.36-.49-2.21 0-1.08.21-1.96.63-2.65s1-1.21 1.73-1.57q1.095-.54 2.49-.75c.93-.14 1.91-.21 2.92-.21h3.27c0-.74-.12-1.38-.35-1.92s-.6-.97-1.1-1.29q-.75-.48-1.92-.48c-.51 0-.98.06-1.41.17q-.645.18-1.11.54c-.31.24-.52.56-.65.94h-3.97c.15-.87.45-1.61.91-2.24.46-.62 1.02-1.14 1.68-1.54.67-.4 1.4-.7 2.21-.9.8-.2 1.62-.3 2.45-.3 2.43 0 4.21.7 5.32 2.1s1.67 3.35 1.67 5.87v9.01h-3.43l-.1-2.16c-.49.72-1.07 1.25-1.75 1.59s-1.33.56-1.97.65-1.17.14-1.62.14Zm.76-3.14q1.275 0 2.25-.48c.66-.32 1.18-.76 1.57-1.33s.59-1.23.59-1.97v-.54h-3.05c-.51 0-1.01.02-1.51.05s-.95.12-1.35.25-.72.34-.97.62c-.24.28-.37.67-.37 1.17s.13.92.4 1.24c.26.32.61.56 1.05.73.43.17.89.25 1.38.25Z" fill="#ffffff" data-color="1"></path>
        <path d="M110.95 418.17v-16.73h3.52l.22 2.19c.42-.63.9-1.13 1.44-1.48s1.12-.6 1.75-.75c.62-.15 1.25-.22 1.89-.22h.65c.2 0 .37.01.49.03v3.68h-1.02q-1.65 0-2.79.63c-.76.42-1.33 1.03-1.71 1.81s-.57 1.75-.57 2.89v7.94h-3.87Z" fill="#ffffff" data-color="1"></path>
        <path d="M129.87 418.36c-1.84 0-3.19-.51-4.03-1.52-.85-1.02-1.27-2.42-1.27-4.22v-7.75H122v-3.43h2.57v-4.7h3.87v4.7h5.08v3.43h-5.08v7.01c0 .55.06 1.05.19 1.49s.36.79.7 1.05c.34.25.8.39 1.4.41.51 0 .94-.08 1.3-.25s.66-.36.89-.57l1.3 2.95c-.4.34-.85.61-1.35.83-.5.21-1 .36-1.51.44s-1.01.13-1.49.13" fill="#ffffff" data-color="1"></path>
        <path d="M146.63 418.17v-13.3h-2.6v-3.43h2.6v-1.59c0-1.27.19-2.31.57-3.13.38-.81.99-1.41 1.83-1.79.83-.38 1.91-.57 3.22-.57h2.48v3.43h-2.03c-.57 0-1.02.1-1.33.29-.32.19-.54.47-.68.84q-.21.555-.21 1.35v1.17h4.25v3.43h-4.25v13.3h-3.84Z" fill="#ffffff" data-color="1"></path>
        <path d="M164.53 418.39c-2.41 0-4.26-.62-5.54-1.87s-1.92-3.15-1.92-5.71v-9.36h3.87v9.11c0 .89.12 1.66.37 2.32.24.66.63 1.16 1.17 1.51s1.22.52 2.05.52c.89 0 1.59-.19 2.11-.56s.88-.88 1.1-1.54c.21-.66.32-1.41.32-2.25v-9.11h3.87v9.36q0 3.93-1.95 5.76c-1.3 1.22-3.12 1.83-5.44 1.83Z" fill="#ffffff" data-color="1"></path>
        <path d="M175.61 418.17v-16.73h3.62l.22 2.13c.44-.59.96-1.06 1.56-1.4a7.2 7.2 0 0 1 1.87-.75 7.8 7.8 0 0 1 1.84-.24c1.59 0 2.84.35 3.76 1.05q1.38 1.05 1.95 2.79c.38 1.16.57 2.47.57 3.9v9.24h-3.87v-8.6c0-.61-.04-1.21-.13-1.79-.08-.58-.25-1.11-.49-1.57-.24-.47-.59-.84-1.03-1.11s-1.04-.41-1.78-.41c-.91 0-1.68.24-2.32.73-.63.49-1.11 1.14-1.43 1.95s-.48 1.74-.48 2.78v8.03h-3.87Z" fill="#ffffff" data-color="1"></path>
        <path d="M202.01 418.39c-1.73 0-3.2-.35-4.38-1.06-1.19-.71-2.08-1.71-2.7-3-.61-1.29-.92-2.78-.92-4.48s.32-3.19.95-4.49q.96-1.95 2.79-3.06c1.23-.74 2.72-1.11 4.48-1.11 1.29 0 2.44.22 3.44.67 1.01.44 1.82 1.1 2.45 1.95.62.86 1.02 1.92 1.19 3.19h-3.81c-.25-.8-.67-1.39-1.25-1.76s-1.28-.56-2.08-.56c-1.08 0-1.93.26-2.56.78q-.93.78-1.35 1.95c-.28.78-.41 1.6-.41 2.44q0 1.335.45 2.49t1.38 1.86c.62.47 1.43.7 2.43.7.8 0 1.53-.18 2.17-.54.65-.36 1.06-.94 1.25-1.75h3.94c-.15 1.29-.58 2.36-1.29 3.22s-1.6 1.5-2.68 1.92-2.24.63-3.49.63Z" fill="#ffffff" data-color="1"></path>
        <path d="M219.69 418.17c-1.35 0-2.47-.18-3.35-.54s-1.54-.94-1.97-1.75c-.43-.8-.65-1.88-.65-3.24v-7.78h-2.57v-3.43h2.57v-4.67h3.87v4.67h3.9v3.43h-3.9v7.27c0 .85.15 1.49.44 1.94s.96.67 2 .67h1.33v3.43h-1.68Z" fill="#ffffff" data-color="1"></path>
        <path d="M226.01 399.5c-.74 0-1.33-.22-1.78-.67-.44-.44-.67-1.03-.67-1.75s.23-1.27.7-1.73c.47-.45 1.05-.68 1.75-.68s1.26.22 1.75.67.73 1.03.73 1.75-.23 1.3-.7 1.75c-.46.44-1.06.67-1.78.67Zm-1.93 18.67v-16.73h3.87v16.73z" fill="#ffffff" data-color="1"></path>
        <path d="M239.34 418.39c-1.71 0-3.19-.35-4.43-1.05s-2.19-1.69-2.86-2.98-1-2.8-1-4.54.34-3.27 1.02-4.56a7.45 7.45 0 0 1 2.86-3q1.845-1.08 4.41-1.08c2.565 0 3.15.36 4.38 1.08s2.17 1.73 2.83 3.03.98 2.83.98 4.59-.32 3.21-.97 4.49-1.58 2.27-2.81 2.97q-1.845 1.05-4.41 1.05m-.03-3.52c1.06 0 1.91-.23 2.56-.7.64-.47 1.12-1.08 1.41-1.84.3-.76.44-1.59.44-2.48s-.15-1.72-.44-2.51q-.45-1.17-1.41-1.89c-.65-.48-1.5-.71-2.56-.71s-1.92.24-2.57.71c-.66.48-1.13 1.1-1.43 1.87q-.45 1.155-.45 2.52c0 1.365.15 1.72.46 2.49s.78 1.39 1.43 1.84c.65.46 1.5.68 2.56.68Z" fill="#ffffff" data-color="1"></path>
        <path d="M250.64 418.17v-16.73h3.62l.22 2.13c.44-.59.96-1.06 1.56-1.4a7.2 7.2 0 0 1 1.87-.75 7.8 7.8 0 0 1 1.84-.24c1.59 0 2.84.35 3.76 1.05q1.38 1.05 1.95 2.79c.38 1.16.57 2.47.57 3.9v9.24h-3.87v-8.6c0-.61-.04-1.21-.13-1.79-.08-.58-.25-1.11-.49-1.57-.24-.47-.59-.84-1.03-1.11s-1.04-.41-1.78-.41c-.91 0-1.68.24-2.32.73-.63.49-1.11 1.14-1.43 1.95s-.48 1.74-.48 2.78v8.03h-3.87Z" fill="#ffffff" data-color="1"></path>
        <path d="M272.13 418.55c-.68 0-1.25-.22-1.73-.67s-.71-1.05-.71-1.81.24-1.37.73-1.83c.49-.45 1.07-.68 1.75-.68s1.25.23 1.71.68c.46.46.7 1.06.7 1.83s-.23 1.37-.7 1.81-1.05.67-1.75.67" fill="#ffffff" data-color="1"></path>
        <path d="M211.85 167.03c-16.46 10.19-35.92 14.82-55.21 12.95-16.46-1.59-32.5-7.93-45.55-18.1-11.88-9.26-21.33-21.56-27.19-35.44-5.97-14.13-8.11-29.73-6.28-44.95s8.03-30.58 17.56-43.01c9.18-11.99 21.51-21.47 35.37-27.43s29.63-8.24 44.81-6.5 30.61 7.87 43.13 17.31 21.52 21.31 27.57 35.06c6.15 13.98 8.47 29.55 6.85 44.72-.41 3.84-1.11 7.65-2.02 11.41-.6 2.49 3.23 3.55 3.84 1.06 3.83-15.83 3.51-32.53-1.15-48.15-4.48-15.04-12.84-28.89-24.08-39.84S203.24 6.66 187.47 2.74s-32.43-3.63-48.01.92c-15.07 4.4-28.96 12.68-39.98 23.86S79.94 53.54 75.92 69.21s-3.88 32.55.6 48.23c4.33 15.15 12.59 29.12 23.76 40.23 11.47 11.39 25.94 19.62 41.58 23.71 19.6 5.12 40.56 3.61 59.22-4.28 4.42-1.87 8.69-4.08 12.77-6.6 2.17-1.35.18-4.79-2.01-3.44Z" fill="#ffffff" data-color="1"></path>
        <path d="M165.51 144.08c-7.82 0-15.44-2.77-21.45-7.8-12.45-10.41-28.25-27.09-32.83-47.49-1.35-5.94-1.66-11.95-.94-17.85.27-2.21.37-2.77.7-4.24 1.63-7.27 5.46-13.89 10.79-18.65 2.06-1.84 4.31-3.38 6.71-4.58 4.17-2.12 8.63-3.19 13.28-3.19 5.17 0 10.29 1.39 14.82 4.03 3.73 2.15 6.66 4.58 8.9 6.84 2.28-2.3 5.22-4.71 8.93-6.85a29.5 29.5 0 0 1 7.01-2.96h.03c2.55-.69 5.16-1.05 7.76-1.05 14.61 0 27.26 10.86 30.76 26.41.16.67.28 1.2.38 1.89.1.63.2 1.35.33 2.38 3.02 24.57-12.56 45.38-26.17 58.51-1.49 1.44-3.02 2.85-4.54 4.2-.97.86-2.01 1.75-3.09 2.66-6 5.01-13.59 7.77-21.39 7.77Zm-24.87-94.83c-3.05 0-5.99.71-8.73 2.1h-.02c-1.62.81-3.15 1.86-4.56 3.12-3.82 3.41-6.57 8.21-7.76 13.51V68c-.24 1.06-.28 1.22-.54 3.31-.6 4.86-.33 9.84.79 14.79 4.1 18.25 18.89 33.72 30.57 43.49 4.24 3.55 9.61 5.5 15.12 5.5s10.84-1.94 15.06-5.47a138 138 0 0 0 7.39-6.64c12.38-11.95 26.6-30.62 24.01-51.67v-.02c-.11-.92-.19-1.54-.27-2.03v-.05c-.05-.34-.11-.6-.24-1.14 0-.03-.01-.05-.02-.08-2.48-11.05-11.14-18.76-21.07-18.76-1.7 0-3.42.23-5.11.69-1.6.45-3.17 1.11-4.65 1.97-5.37 3.1-8.6 6.84-10.37 9.43a5.72 5.72 0 0 1-4.7 2.5c-1.88 0-3.65-.91-4.73-2.45-.26-.37-.49-.7-.71-.99-1.74-2.32-4.83-5.68-9.67-8.47 0 0-.01 0-.02-.01-3-1.75-6.38-2.67-9.77-2.67Z" fill="#ffffff" data-color="1"></path>
    </g>
</svg>