<svg preserveAspectRatio="xMidYMid meet" data-bbox="320.29 -24.48 2192.72 1024.8" viewBox="320.29 -24.48 2192.72 1024.8" xmlns="http://www.w3.org/2000/svg" data-type="color" role="presentation" aria-hidden="true" aria-label="">
    <g>
        <defs>
            <clipPath id="d06701d3-84bd-4926-ad58-656ae4c6cb07_comp-m7mednt5">
                <path d="M2271.41 913.16H448.13c-53.38 0-96.64-36.01-96.64-80.42V140.07c0-44.42 43.27-80.42 96.64-80.42h1823.29c52.51 0 95.08 35.42 95.08 79.12v695.28c0 43.69-42.57 79.12-95.08 79.12Z"></path>
            </clipPath>
        </defs>
        <path d="M2417.92 913.16H594.64c-53.38 0-96.64-36.01-96.64-80.42V140.07c0-44.42 43.27-80.42 96.64-80.42h1823.29c52.51 0 95.08 35.42 95.08 79.12v695.28c0 43.69-42.57 79.12-95.08 79.12Z" fill="#007854" data-color="1"></path>
        <g clip-path="url(#d06701d3-84bd-4926-ad58-656ae4c6cb07_comp-m7mednt5)">
            <path d="M1143.04 1000.32c41.61-79.06 72.54-152.17 83.02-210.93 60.42-338.67 16.64-498.23-118.51-813.87l-787.26 5.55V993.53l822.76 6.79Z" fill="#ffffff" data-color="2"></path>
        </g>
        <g>
            <path d="m1028.01 567.82-53.95-93.45c-4.98-8.6-15.97-11.56-24.57-6.58-8.61 4.96-11.55 15.96-6.58 24.57l53.95 93.45c10.91 18.88 13.29 36.41 6.55 48.09-6.75 11.68-23.13 18.38-44.93 18.38H894l23.24-23.25c7.02-7.02 7.02-18.41 0-25.43-7.01-7.02-18.41-7.02-25.43 0l-53.95 53.95c-7.02 7.02-7.02 18.41 0 25.43l53.95 53.95c3.51 3.52 8.11 5.27 12.71 5.27s9.21-1.75 12.71-5.27c7.02-7.02 7.02-18.41 0-25.43l-23.25-23.25h64.49c35.52 0 62.53-12.92 76.07-36.36 13.53-23.44 11.21-53.29-6.55-84.05Z" fill="#007854" data-color="1"></path>
            <path d="M742.69 652.26h-107.9c-21.8 0-38.18-6.7-44.92-18.38-6.74-11.67-4.36-29.2 6.55-48.09l32.24-55.85 8.52 31.76c2.57 9.59 12.43 15.31 22.02 12.71 9.59-2.57 15.29-12.43 12.71-22.02l-19.75-73.7c-2.57-9.59-12.44-15.32-22.02-12.71l-73.7 19.75c-9.59 2.57-15.29 12.43-12.71 22.02 2.15 8.04 9.41 13.33 17.35 13.33 1.54 0 3.11-.2 4.67-.62l31.77-8.52-32.24 55.85c-17.76 30.76-20.08 60.61-6.55 84.05 13.53 23.46 40.54 36.37 76.06 36.37h107.9c9.93 0 17.98-8.06 17.98-17.98s-8.06-17.98-17.98-17.98Z" fill="#007854" data-color="1"></path>
            <path d="M904.55 407.91c7.94 0 15.2-5.3 17.35-13.33l19.75-73.7c2.57-9.59-3.12-19.46-12.71-22.02-9.59-2.62-19.46 3.12-22.02 12.71l-8.52 31.77-32.24-55.85c-17.76-30.75-42.45-47.69-69.52-47.69s-51.76 16.94-69.52 47.69l-53.95 93.45c-4.96 8.61-2.02 19.6 6.58 24.57 2.83 1.64 5.93 2.42 8.97 2.42 6.21 0 12.26-3.23 15.59-8.99l53.95-93.45c10.9-18.88 24.89-29.71 38.38-29.71s27.48 10.83 38.38 29.71l32.24 55.85-31.77-8.51c-9.59-2.61-19.46 3.12-22.02 12.71-2.57 9.59 3.12 19.46 12.71 22.02l73.7 19.75c1.51.39 4.21.6 4.68.6Z" fill="#007854" data-color="1"></path>
            <path d="M782.31 584.91c2.4 8.09 4.52 13.34 4.82 14.08a10.95 10.95 0 0 0 11.25 6.69c2.99-.32 73.63-8.24 101.82-55.67s1.43-113.26.28-116.04a10.96 10.96 0 0 0-11.25-6.69c-2.9.31-69.03 7.86-98.85 51.33-28.36-36.45-87.2-37.05-89.72-37.05h-.02c-4.84 0-9.1 3.18-10.48 7.81-.73 2.44-17.56 60.2 10.46 97.78 21.97 29.46 62.83 36.21 81.69 37.76m23.92-90.77c17.54-29.5 59.01-40.35 76.88-43.74 5.55 17.32 15.83 58.93-1.71 88.42-13.83 23.27-42.41 34.83-62.69 40.39a717 717 0 0 1 51.09-90.23c3.32-4.99 2.09-11.7-2.85-15.1-5.02-3.45-11.94-2.17-15.32 2.9a740 740 0 0 0-51.31 90.24c-4.61-20.45-7.55-50.23 5.92-72.88Zm-97.06-30.15c15.59 1.5 48.48 7.2 64.59 28.8a47.3 47.3 0 0 1 5.34 9.35c-2.51 8.56-3.96 17.4-4.33 26.32-5.7-7.27-11.62-14.33-17.79-21.06-4.58-5.01-9.36-9.94-14.26-14.72-4.46-4.35-11.61-4.24-15.82.36-3.95 4.32-3.85 11.03.34 15.12 4.67 4.55 9.22 9.24 13.6 14.02 11.18 12.3 21.45 25.4 30.73 39.19-16.91-2.97-40.57-10.1-53.4-27.3-16.08-21.56-12.06-54.7-9-70.07Z" fill="#007854" data-color="1"></path>
        </g>
        <path d="M1556.55 326.23c-7.26 0-13.43-1.45-18.5-4.33s-8.97-6.97-11.68-12.26c-2.71-5.3-4.07-11.48-4.07-18.57s1.4-13.44 4.2-18.82 6.76-9.6 11.87-12.66c5.12-3.07 11.17-4.6 18.17-4.6 5.25 0 9.86.88 13.84 2.62 3.98 1.75 7.35 4.2 10.1 7.35 2.76 3.15 4.81 6.81 6.16 10.96s1.99 8.63 1.9 13.44c0 1.23-.04 2.41-.13 3.54s-.26 2.27-.52 3.41h-47.36c.26 2.62 1 5.03 2.23 7.21 1.22 2.19 2.95 3.92 5.18 5.19s5.01 1.9 8.33 1.9c2.18 0 4.2-.24 6.03-.73 1.84-.48 3.41-1.25 4.72-2.29 1.31-1.05 2.23-2.27 2.76-3.68h18.1c-1.14 5.16-3.26 9.4-6.37 12.72-3.1 3.33-6.84 5.75-11.22 7.28s-8.97 2.3-13.77 2.3Zm-15.61-42.77h30.04q-.135-3.54-1.77-6.63c-1.09-2.05-2.71-3.71-4.85-4.98-2.15-1.27-4.88-1.9-8.2-1.9s-6.1.66-8.33 1.97-3.89 3-4.99 5.05c-1.09 2.06-1.73 4.22-1.9 6.49" fill="#ffffff" data-color="2"></path>
        <path d="M1597.74 325.31v-69.13h16.53l1.57 7.74c1.75-2.45 3.69-4.31 5.84-5.57 2.14-1.27 4.31-2.13 6.49-2.56 2.18-.44 4.2-.66 6.03-.66 4.11 0 7.74.79 10.89 2.36 3.15 1.58 5.68 4.11 7.61 7.61 1.83-2.53 3.85-4.52 6.03-5.97 2.18-1.44 4.5-2.47 6.95-3.08s4.94-.92 7.48-.92c5.33 0 9.64 1.11 12.92 3.34 3.28 2.24 5.68 5.32 7.21 9.25 1.53 3.94 2.29 8.53 2.29 13.78v43.82h-18.36v-38.96c0-1.57-.09-3.19-.26-4.85-.18-1.66-.59-3.23-1.25-4.72s-1.62-2.71-2.89-3.68-3.04-1.44-5.31-1.44-4.02.48-5.51 1.44c-1.48.96-2.67 2.26-3.54 3.87a19 19 0 0 0-1.9 5.25 28 28 0 0 0-.59 5.71v37.38h-18.37v-39.09c0-1.48-.09-3.06-.26-4.72-.18-1.66-.57-3.23-1.18-4.72-.62-1.49-1.6-2.71-2.95-3.68q-2.04-1.44-5.58-1.44c-3.24 0-5.7.94-7.41 2.82s-2.82 4.11-3.34 6.69c-.53 2.58-.79 4.96-.79 7.14v37h-18.37Z" fill="#ffffff" data-color="2"></path>
        <path d="M1746.24 326.23c-2.27 0-4.66-.22-7.15-.66s-4.94-1.29-7.35-2.56-4.66-3.08-6.76-5.44l-.13 7.74h-17.97v-92.88h18.37v31.88q3.93-4.725 9.78-7.02c3.89-1.53 7.93-2.3 12.13-2.3 6.82 0 12.42 1.56 16.79 4.66 4.37 3.11 7.63 7.32 9.77 12.66 2.14 5.33 3.22 11.46 3.22 18.36s-1.09 12.79-3.28 18.17-5.53 9.62-10.04 12.72c-4.5 3.11-10.3 4.66-17.38 4.66Zm-3.94-16.4c4.29 0 7.61-.96 9.97-2.89s4.02-4.37 4.98-7.35c.96-2.97 1.44-6.08 1.44-9.31s-.52-6.28-1.57-9.12c-1.05-2.85-2.78-5.12-5.18-6.83-2.41-1.7-5.62-2.55-9.64-2.55-3.67 0-6.8.89-9.38 2.69s-4.52 4.13-5.84 7.02c-1.31 2.89-1.97 5.99-1.97 9.31s.59 6.45 1.77 9.38c1.18 2.94 3.04 5.27 5.58 7.02 2.53 1.75 5.81 2.62 9.84 2.62Z" fill="#ffffff" data-color="2"></path>
        <path d="M1808.02 326.23c-3.15 0-6.19-.42-9.12-1.25s-5.53-2.13-7.8-3.87c-2.28-1.75-4.07-3.94-5.38-6.56s-1.97-5.68-1.97-9.18c0-4.72.96-8.51 2.89-11.35 1.92-2.85 4.5-5.01 7.74-6.49 3.23-1.49 6.97-2.49 11.22-3.02s8.64-.79 13.18-.79h9.97c0-2.53-.46-4.78-1.38-6.76-.92-1.97-2.29-3.5-4.13-4.59s-4.2-1.64-7.09-1.64q-2.76 0-5.31.72c-1.7.48-3.13 1.16-4.26 2.04a6.03 6.03 0 0 0-2.23 3.41h-18.63c.52-3.85 1.75-7.15 3.67-9.91s4.33-5.01 7.21-6.76c2.89-1.74 6.05-3.04 9.51-3.87 3.45-.83 7.02-1.25 10.69-1.25 10.06 0 17.49 2.87 22.3 8.59 4.81 5.73 7.22 13.85 7.22 24.33v37.26h-16.53l-.26-8.92q-3.285 4.605-7.41 6.69c-2.75 1.4-5.4 2.27-7.93 2.62-2.54.35-4.59.53-6.17.53Zm4.2-14.57q4.59 0 8.4-1.83 3.795-1.845 6.03-4.98c1.48-2.1 2.23-4.46 2.23-7.08v-1.71h-12.59c-1.84 0-3.61.09-5.31.26-1.71.18-3.24.51-4.59.98-1.36.48-2.43 1.25-3.22 2.3s-1.18 2.45-1.18 4.2.46 3.22 1.38 4.4 2.16 2.06 3.74 2.62 3.28.85 5.12.85Z" fill="#ffffff" data-color="2"></path>
        <path d="M1858 325.31v-92.88h18.37v92.88z" fill="#ffffff" data-color="2"></path>
        <path d="M1910.21 326.23c-3.15 0-6.19-.42-9.12-1.25s-5.53-2.13-7.8-3.87c-2.28-1.75-4.07-3.94-5.38-6.56s-1.97-5.68-1.97-9.18c0-4.72.96-8.51 2.89-11.35 1.92-2.85 4.5-5.01 7.74-6.49 3.23-1.49 6.97-2.49 11.22-3.02s8.64-.79 13.18-.79h9.97c0-2.53-.46-4.78-1.38-6.76-.92-1.97-2.29-3.5-4.13-4.59s-4.2-1.64-7.09-1.64q-2.76 0-5.31.72c-1.7.48-3.13 1.16-4.26 2.04a6.03 6.03 0 0 0-2.23 3.41h-18.63c.52-3.85 1.75-7.15 3.67-9.91s4.33-5.01 7.21-6.76c2.89-1.74 6.05-3.04 9.51-3.87 3.45-.83 7.02-1.25 10.69-1.25 10.06 0 17.49 2.87 22.3 8.59 4.81 5.73 7.22 13.85 7.22 24.33v37.26h-16.53l-.26-8.92q-3.285 4.605-7.41 6.69c-2.75 1.4-5.4 2.27-7.93 2.62-2.54.35-4.59.53-6.17.53Zm4.2-14.57q4.59 0 8.4-1.83 3.795-1.845 6.03-4.98c1.48-2.1 2.23-4.46 2.23-7.08v-1.71h-12.59c-1.84 0-3.61.09-5.31.26-1.71.18-3.24.51-4.59.98-1.36.48-2.43 1.25-3.22 2.3s-1.18 2.45-1.18 4.2.46 3.22 1.38 4.4 2.16 2.06 3.74 2.62 3.28.85 5.12.85Z" fill="#ffffff" data-color="2"></path>
        <path d="M1993.51 357.32c-5.42 0-10.41-.86-14.96-2.56s-8.39-4.4-11.54-8.07c-3.15-3.68-5.29-8.4-6.43-14.17h18.76c.61 1.75 1.59 3.21 2.95 4.4s3.02 2.08 4.98 2.69c1.97.62 4.05.92 6.23.92 4.11 0 7.3-.87 9.57-2.62s3.85-4.04 4.72-6.89c.88-2.84 1.31-5.97 1.31-9.38v-4.85c-1.57 2.54-3.54 4.47-5.9 5.77a27 27 0 0 1-7.41 2.82c-2.58.57-5.05.86-7.41.86-7.26 0-13.16-1.62-17.71-4.85-4.55-3.24-7.87-7.5-9.97-12.79s-3.15-10.99-3.15-17.12c0-6.73 1.18-12.86 3.54-18.37s5.9-9.88 10.62-13.12c4.72-3.23 10.63-4.85 17.71-4.85 4.28 0 8.09.68 11.41 2.04s6.16 3.34 8.53 5.97l1.57-6.95h16.79v60.34c0 8.4-1.09 15.63-3.28 21.71-2.18 6.08-5.79 10.78-10.82 14.11-5.03 3.32-11.74 4.98-20.14 4.98Zm-1.05-47.62c3.85 0 7.02-.87 9.51-2.62q3.735-2.61 5.58-7.02 1.83-4.395 1.83-9.51c0-5.115-.61-6.8-1.83-9.64-1.23-2.85-3.06-5.12-5.51-6.83q-3.675-2.55-9.45-2.55c-4.2 0-7.52.98-9.97 2.95s-4.18 4.42-5.18 7.35c-1.01 2.94-1.51 6.02-1.51 9.25s.53 6.41 1.57 9.25c1.05 2.85 2.8 5.12 5.25 6.83 2.45 1.7 5.68 2.55 9.71 2.55Z" fill="#ffffff" data-color="2"></path>
        <path d="M2071.18 326.23c-7.26 0-13.43-1.45-18.5-4.33-5.07-2.89-8.97-6.97-11.68-12.26-2.71-5.3-4.07-11.48-4.07-18.57s1.4-13.44 4.2-18.82 6.76-9.6 11.87-12.66c5.12-3.07 11.17-4.6 18.17-4.6 5.25 0 9.86.88 13.84 2.62 3.98 1.75 7.35 4.2 10.1 7.35 2.76 3.15 4.81 6.81 6.16 10.96 1.36 4.15 1.99 8.63 1.9 13.44 0 1.23-.04 2.41-.13 3.54s-.26 2.27-.52 3.41h-47.36c.26 2.62 1 5.03 2.23 7.21 1.22 2.19 2.95 3.92 5.18 5.19s5.01 1.9 8.33 1.9c2.18 0 4.2-.24 6.03-.73 1.84-.48 3.41-1.25 4.72-2.29 1.31-1.05 2.23-2.27 2.76-3.68h18.1c-1.14 5.16-3.26 9.4-6.37 12.72-3.1 3.33-6.84 5.75-11.22 7.28s-8.97 2.3-13.77 2.3Zm-15.62-42.77h30.04q-.135-3.54-1.77-6.63c-1.09-2.05-2.71-3.71-4.85-4.98-2.15-1.27-4.88-1.9-8.2-1.9s-6.1.66-8.33 1.97-3.89 3-4.99 5.05c-1.09 2.06-1.73 4.22-1.9 6.49" fill="#ffffff" data-color="2"></path>
        <path d="M2112.36 325.31v-69.13h16.53l1.57 7.74c1.75-2.45 3.69-4.31 5.84-5.57 2.14-1.27 4.31-2.13 6.49-2.56 2.18-.44 4.2-.66 6.03-.66 4.11 0 7.74.79 10.89 2.36 3.15 1.58 5.68 4.11 7.61 7.61 1.83-2.53 3.85-4.52 6.03-5.97 2.18-1.44 4.5-2.47 6.95-3.08s4.94-.92 7.48-.92c5.33 0 9.64 1.11 12.92 3.34 3.28 2.24 5.68 5.32 7.21 9.25 1.53 3.94 2.29 8.53 2.29 13.78v43.82h-18.36v-38.96c0-1.57-.09-3.19-.26-4.85-.18-1.66-.59-3.23-1.25-4.72s-1.62-2.71-2.89-3.68-3.04-1.44-5.31-1.44-4.02.48-5.51 1.44c-1.48.96-2.67 2.26-3.54 3.87a19 19 0 0 0-1.9 5.25 28 28 0 0 0-.59 5.71v37.38h-18.37v-39.09c0-1.48-.09-3.06-.26-4.72-.18-1.66-.57-3.23-1.18-4.72-.62-1.49-1.6-2.71-2.95-3.68q-2.04-1.44-5.58-1.44c-3.24 0-5.7.94-7.41 2.82s-2.82 4.11-3.34 6.69c-.53 2.58-.79 4.96-.79 7.14v37h-18.37Z" fill="#ffffff" data-color="2"></path>
        <path d="M1537.03 596.22V450.19h-40.48v-41.98c8.4 0 15.99-.69 22.79-2.1 6.79-1.4 12.89-3.9 18.29-7.5 5.4-3.59 10.09-8.49 14.1-14.69h39.58v212.3h-54.27Z" fill="#ffffff" data-color="2"></path>
        <path d="M1697.44 598.63c-16.19 0-29.83-2.8-40.93-8.4-11.09-5.59-20.04-13.39-26.84-23.39-6.8-9.99-11.69-21.48-14.69-34.48-3-12.99-4.5-26.78-4.5-41.38s1.6-29.44 4.8-42.73c3.19-13.29 8.29-24.94 15.29-34.93 7-10 16.09-17.84 27.29-23.54 11.19-5.7 24.69-8.55 40.48-8.55s29.54 2.85 40.63 8.55 20.09 13.6 26.99 23.68c6.9 10.1 11.89 21.7 15 34.79 3.09 13.09 4.65 27.03 4.65 41.83s-1.6 29.04-4.8 42.13-8.25 24.64-15.14 34.63c-6.9 10-15.94 17.8-27.14 23.39s-24.89 8.4-41.08 8.4Zm0-50.08c8.19 0 14.64-2.1 19.34-6.29 4.69-4.2 8.09-9.45 10.19-15.74 2.1-6.3 3.45-12.75 4.05-19.34.6-6.6.9-12.3.9-17.09s-.25-10.14-.75-16.64a82.5 82.5 0 0 0-3.75-19.04q-3-9.3-9.75-15.6c-4.5-4.2-10.84-6.29-19.04-6.29s-14.35 2.05-19.04 6.15c-4.7 4.1-8.15 9.25-10.35 15.44-2.2 6.2-3.65 12.55-4.35 19.04s-1.05 12.14-1.05 16.94.25 10.2.75 16.8c.5 6.59 1.75 13.09 3.75 19.49s5.3 11.69 9.9 15.9c4.6 4.2 10.99 6.29 19.19 6.29Z" fill="#ffffff" data-color="2"></path>
        <path d="M1876.46 598.63c-16.19 0-29.83-2.8-40.93-8.4-11.09-5.59-20.04-13.39-26.84-23.39-6.8-9.99-11.69-21.48-14.69-34.48-3-12.99-4.5-26.78-4.5-41.38s1.6-29.44 4.8-42.73c3.19-13.29 8.29-24.94 15.29-34.93 7-10 16.09-17.84 27.29-23.54 11.19-5.7 24.69-8.55 40.48-8.55s29.54 2.85 40.63 8.55 20.09 13.6 26.99 23.68c6.9 10.1 11.89 21.7 15 34.79 3.09 13.09 4.65 27.03 4.65 41.83s-1.6 29.04-4.8 42.13-8.25 24.64-15.14 34.63c-6.9 10-15.94 17.8-27.14 23.39s-24.89 8.4-41.08 8.4Zm0-50.08c8.19 0 14.64-2.1 19.34-6.29 4.69-4.2 8.09-9.45 10.19-15.74 2.1-6.3 3.45-12.75 4.05-19.34.6-6.6.9-12.3.9-17.09s-.25-10.14-.75-16.64a82.5 82.5 0 0 0-3.75-19.04q-3-9.3-9.75-15.6c-4.5-4.2-10.84-6.29-19.04-6.29s-14.35 2.05-19.04 6.15c-4.7 4.1-8.15 9.25-10.35 15.44-2.2 6.2-3.65 12.55-4.35 19.04s-1.05 12.14-1.05 16.94.25 10.2.75 16.8c.5 6.59 1.75 13.09 3.75 19.49s5.3 11.69 9.9 15.9c4.6 4.2 10.99 6.29 19.19 6.29Z" fill="#ffffff" data-color="2"></path>
        <path d="M2025.19 492.77c-10.8 0-20.39-2.2-28.79-6.6s-15.05-10.74-19.94-19.04c-4.9-8.29-7.35-18.14-7.35-29.53s2.5-21.89 7.5-30.29c4.99-8.39 11.79-14.84 20.39-19.34 8.59-4.5 18.29-6.75 29.09-6.75s20.04 2.15 28.34 6.45c8.29 4.31 14.84 10.55 19.64 18.74 4.8 8.2 7.2 18.19 7.2 29.99s-2.45 21.94-7.35 30.43c-4.9 8.5-11.6 14.95-20.09 19.34-8.5 4.4-18.04 6.6-28.64 6.6m-25.79 103.45 143.33-212.3H2197l-142.13 212.3zm25.79-142.13c3.99 0 7.29-.8 9.89-2.4q3.9-2.4 5.7-6.3c1.2-2.6 1.8-5.3 1.8-8.09s-.65-5.5-1.95-8.1-3.2-4.74-5.7-6.45c-2.5-1.7-5.75-2.55-9.74-2.55q-9.3 0-13.65 5.55c-2.9 3.7-4.25 7.75-4.05 12.14q.3 6 4.5 11.1t13.2 5.1m146.63 144.54c-10.6 0-20.14-2.21-28.63-6.6-8.5-4.4-15.25-10.74-20.24-19.04-5-8.29-7.49-18.23-7.49-29.84s2.55-21.59 7.65-29.98c5.1-8.4 11.94-14.84 20.54-19.34 8.59-4.49 18.29-6.74 29.08-6.74s20.04 2.15 28.34 6.45c8.29 4.3 14.84 10.55 19.64 18.74 4.8 8.2 7.2 18.19 7.2 29.99s-2.5 22.19-7.5 30.59c-5 8.39-11.74 14.79-20.24 19.19-8.5 4.39-17.94 6.6-28.34 6.6Zm0-38.39q6 0 9.9-2.4t5.7-6.3c1.2-2.6 1.8-5.29 1.8-8.09s-.65-5.5-1.95-8.1-3.2-4.74-5.7-6.45q-3.75-2.55-9.75-2.55c-6.2 0-10.75 1.85-13.64 5.55-2.9 3.7-4.25 7.75-4.05 12.14q.3 6 4.5 11.1c2.8 3.4 7.2 5.1 13.19 5.1" fill="#ffffff" data-color="2"></path>
        <path d="M1570.98 728.73V659.6h16.53l1.18 8.27c1.75-2.62 3.71-4.62 5.9-5.97 2.18-1.35 4.46-2.27 6.82-2.75s4.77-.73 7.21-.73c1.14 0 2.18.03 3.15.07q1.44.06 2.1.06v17.71h-4.33c-4.11 0-7.69.71-10.75 2.1-3.06 1.4-5.4 3.59-7.02 6.56-1.62 2.98-2.43 6.78-2.43 11.42v32.4h-18.37Z" fill="#ffffff" data-color="2"></path>
        <path d="M1650.21 729.66c-7.26 0-13.43-1.45-18.5-4.33s-8.97-6.97-11.68-12.26c-2.71-5.3-4.07-11.48-4.07-18.57s1.4-13.44 4.2-18.82 6.76-9.6 11.87-12.66c5.12-3.07 11.17-4.6 18.17-4.6 5.25 0 9.86.88 13.84 2.62 3.98 1.75 7.35 4.2 10.1 7.35 2.76 3.15 4.81 6.81 6.16 10.96 1.36 4.15 1.99 8.63 1.9 13.44 0 1.23-.04 2.41-.13 3.54s-.26 2.27-.52 3.41h-47.36c.26 2.62 1 5.03 2.23 7.21 1.22 2.19 2.95 3.92 5.18 5.19s5.01 1.9 8.33 1.9c2.18 0 4.2-.24 6.03-.73 1.84-.48 3.41-1.25 4.72-2.29 1.31-1.05 2.23-2.27 2.76-3.68h18.1c-1.14 5.16-3.26 9.4-6.37 12.72-3.1 3.33-6.84 5.75-11.22 7.28s-8.97 2.3-13.77 2.3Zm-15.61-42.77h30.04q-.135-3.54-1.77-6.63c-1.09-2.05-2.71-3.71-4.85-4.98-2.15-1.27-4.88-1.9-8.2-1.9s-6.1.66-8.33 1.97-3.89 3-4.99 5.05c-1.09 2.06-1.73 4.22-1.9 6.49" fill="#ffffff" data-color="2"></path>
        <path d="M1723.67 729.66c-7.08 0-13.14-1.45-18.17-4.33-5.03-2.89-8.85-6.97-11.48-12.26-2.62-5.3-3.94-11.53-3.94-18.7s1.36-13.58 4.07-18.95c2.71-5.38 6.63-9.55 11.74-12.52 5.12-2.98 11.3-4.47 18.56-4.47 5.59 0 10.58 1.01 14.95 3.02s7.89 4.9 10.56 8.66 4.22 8.4 4.66 13.9h-17.97c-.79-3.06-2.29-5.29-4.52-6.69s-4.88-2.1-7.94-2.1c-3.94 0-7.06.96-9.38 2.89s-3.98 4.37-4.98 7.35c-1.01 2.97-1.51 5.95-1.51 8.92 0 3.24.53 6.28 1.57 9.12 1.05 2.85 2.73 5.16 5.05 6.96 2.32 1.79 5.35 2.69 9.12 2.69 3.15 0 5.9-.72 8.27-2.17q3.54-2.16 4.59-6.75h18.37c-.44 5.68-2.15 10.41-5.12 14.16-2.97 3.76-6.76 6.58-11.35 8.46q-6.885 2.82-15.15 2.82Z" fill="#ffffff" data-color="2"></path>
        <path d="M1773 652.65c-3.41 0-6.16-1.03-8.26-3.09-2.1-2.05-3.15-4.7-3.15-7.93 0-3.41 1.09-6.17 3.28-8.27 2.18-2.1 4.94-3.15 8.26-3.15 3.06 0 5.71 1.03 7.94 3.09s3.34 4.78 3.34 8.2-1.07 6.02-3.21 8.07c-2.14 2.06-4.88 3.09-8.2 3.09Zm-9.19 76.08V659.6h18.37v69.13z" fill="#ffffff" data-color="2"></path>
        <path d="M1825.08 729.66c-7.08 0-13.14-1.45-18.17-4.33-5.03-2.89-8.85-6.97-11.48-12.26-2.62-5.3-3.94-11.53-3.94-18.7s1.36-13.58 4.07-18.95 6.63-9.55 11.74-12.52c5.12-2.98 11.3-4.47 18.56-4.47 5.59 0 10.58 1.01 14.95 3.02s7.89 4.9 10.56 8.66 4.22 8.4 4.66 13.9h-17.97c-.79-3.06-2.29-5.29-4.52-6.69s-4.88-2.1-7.94-2.1c-3.94 0-7.06.96-9.38 2.89s-3.98 4.37-4.98 7.35c-1.01 2.97-1.51 5.95-1.51 8.92 0 3.24.53 6.28 1.57 9.12 1.05 2.85 2.73 5.16 5.05 6.96 2.32 1.79 5.35 2.69 9.12 2.69 3.15 0 5.9-.72 8.27-2.17q3.54-2.16 4.59-6.75h18.37c-.44 5.68-2.15 10.41-5.12 14.16-2.97 3.76-6.76 6.58-11.35 8.46q-6.885 2.82-15.15 2.82Z" fill="#ffffff" data-color="2"></path>
        <path d="M1865.21 728.73v-92.88h18.37v92.88z" fill="#ffffff" data-color="2"></path>
        <path d="M1917.42 729.66c-3.15 0-6.19-.42-9.12-1.25s-5.53-2.13-7.8-3.87c-2.28-1.75-4.07-3.94-5.38-6.56s-1.97-5.68-1.97-9.18c0-4.72.96-8.51 2.89-11.35 1.92-2.85 4.5-5.01 7.74-6.49 3.23-1.49 6.97-2.49 11.22-3.02s8.64-.79 13.18-.79h9.97c0-2.53-.46-4.78-1.38-6.76-.92-1.97-2.29-3.5-4.13-4.59s-4.2-1.64-7.09-1.64q-2.76 0-5.31.72c-1.7.48-3.13 1.16-4.26 2.04a6.03 6.03 0 0 0-2.23 3.41h-18.63c.52-3.85 1.75-7.15 3.67-9.91s4.33-5.01 7.21-6.76c2.89-1.74 6.05-3.04 9.51-3.87 3.45-.83 7.02-1.25 10.69-1.25 10.06 0 17.49 2.87 22.3 8.59 4.81 5.73 7.22 13.85 7.22 24.33v37.26h-16.53l-.26-8.92q-3.285 4.605-7.41 6.69c-2.75 1.4-5.4 2.27-7.93 2.62-2.54.35-4.59.53-6.17.53Zm4.2-14.57q4.59 0 8.4-1.83 3.795-1.845 6.03-4.98c1.48-2.1 2.23-4.46 2.23-7.08v-1.71h-12.59c-1.84 0-3.61.09-5.31.26-1.71.18-3.24.51-4.59.98-1.36.48-2.43 1.25-3.22 2.3s-1.18 2.45-1.18 4.2.46 3.22 1.38 4.4 2.16 2.06 3.74 2.62 3.28.85 5.12.85Zm-5.11-63.88 14.83-22.56h19.54l-18.63 22.56z" fill="#ffffff" data-color="2"></path>
        <path d="m1984.46 728.73-24.27-69.13h20.07l16.53 54.18 16.4-54.18h20.2l-24.27 69.13z" fill="#ffffff" data-color="2"></path>
        <path d="M2069.6 729.66c-7.26 0-13.43-1.45-18.5-4.33s-8.97-6.97-11.68-12.26c-2.71-5.3-4.07-11.48-4.07-18.57s1.4-13.44 4.2-18.82 6.76-9.6 11.87-12.66c5.12-3.07 11.17-4.6 18.17-4.6 5.25 0 9.86.88 13.84 2.62 3.98 1.75 7.35 4.2 10.1 7.35 2.76 3.15 4.81 6.81 6.16 10.96s1.99 8.63 1.9 13.44c0 1.23-.04 2.41-.13 3.54s-.26 2.27-.52 3.41h-47.36c.26 2.62 1 5.03 2.23 7.21 1.22 2.19 2.95 3.92 5.18 5.19s5.01 1.9 8.33 1.9c2.18 0 4.2-.24 6.03-.73 1.84-.48 3.41-1.25 4.72-2.29 1.31-1.05 2.23-2.27 2.76-3.68h18.1c-1.14 5.16-3.26 9.4-6.37 12.72-3.1 3.33-6.84 5.75-11.22 7.28s-8.97 2.3-13.77 2.3Zm-15.61-42.77h30.04q-.135-3.54-1.77-6.63c-1.09-2.05-2.71-3.71-4.85-4.98-2.15-1.27-4.88-1.9-8.2-1.9s-6.1.66-8.33 1.97-3.89 3-4.99 5.05c-1.09 2.06-1.73 4.22-1.9 6.49" fill="#ffffff" data-color="2"></path>
        <path d="M2110.79 728.73v-92.88h18.37v92.88z" fill="#ffffff" data-color="2"></path>
    </g>
</svg>