<svg preserveAspectRatio="xMidYMid meet" data-bbox="-93.6 4.27 455.89 80.891" viewBox="-100 0 500 200" xmlns="http://www.w3.org/2000/svg" data-type="ugc" role="presentation" aria-hidden="true" aria-label="">
    <g>
        <path d="M250.91 23.04V11.88h1.97v9.36h5.81v1.8z" fill="#007483"></path>
        <path d="M261.45 13.76c-.37 0-.66-.11-.88-.33q-.33-.33-.33-.87c0-.54.12-.63.35-.86s.52-.34.87-.34.63.11.87.33q.36.33.36.87c0 .54-.12.65-.35.87s-.53.33-.88.33Zm-.96 9.28v-8.32h1.93v8.32z" fill="#007483"></path>
        <path d="m267.02 23.04-3.01-8.32h2.13l2.19 6.68 2.18-6.68h2.12l-3.01 8.32h-2.59Z" fill="#007483"></path>
        <path d="M274.22 23.04v-8.32h1.75l.11 1.09c.21-.32.45-.56.72-.73s.56-.3.87-.37.62-.11.94-.11h.32c.1 0 .18 0 .25.02v1.83h-.5c-.55 0-1.01.11-1.39.32a2 2 0 0 0-.85.9c-.19.39-.28.87-.28 1.44v3.95h-1.93Z" fill="#007483"></path>
        <path d="M284.66 23.15c-.86 0-1.6-.18-2.2-.54a3.46 3.46 0 0 1-1.37-1.49c-.31-.64-.47-1.38-.47-2.22s.16-1.59.48-2.23c.32-.65.78-1.15 1.39-1.52s1.33-.55 2.19-.55c.63 0 1.18.11 1.66.34.47.23.87.53 1.19.92s.56.83.72 1.33.23 1.02.22 1.56l-.03.37c-.01.12-.03.25-.05.39h-5.84c.03.37.13.71.29 1.01.16.31.39.55.69.73s.68.27 1.13.27c.26 0 .52-.03.76-.1s.46-.17.64-.31.31-.31.37-.52h1.93c-.14.6-.39 1.09-.76 1.47s-.81.66-1.32.84q-.765.27-1.62.27Zm-2.08-5.09h4.01c0-.35-.08-.66-.24-.95-.16-.28-.38-.51-.67-.67s-.64-.25-1.05-.25c-.44 0-.81.09-1.1.27s-.52.41-.68.69-.25.58-.27.9Z" fill="#007483"></path>
        <path d="M299.04 23.15c-.84 0-1.54-.19-2.08-.58-.55-.38-.96-.9-1.22-1.54-.27-.64-.4-1.36-.4-2.15s.14-1.55.43-2.2c.28-.65.71-1.16 1.28-1.53s1.28-.56 2.13-.56c.32 0 .62.03.92.1s.58.17.85.32c.27.14.49.33.67.56v-3.69h1.93v11.16h-1.86l-.03-1.04c-.2.26-.43.48-.7.65s-.57.29-.89.38-.66.13-1.01.13Zm.37-1.74c.5 0 .92-.12 1.25-.35.33-.24.57-.55.73-.95s.24-.81.24-1.25-.08-.88-.24-1.26-.41-.68-.73-.92-.74-.35-1.25-.35c-.54 0-.96.12-1.27.36s-.54.56-.68.96c-.14.39-.21.82-.21 1.27q0 .51.12.96c.12.45.2.57.37.8q.255.345.66.54c.27.13.61.2 1.01.2Z" fill="#007483"></path>
        <path d="M309.76 23.15c-.86 0-1.6-.18-2.2-.54a3.46 3.46 0 0 1-1.37-1.49c-.31-.64-.47-1.38-.47-2.22s.16-1.59.48-2.23c.32-.65.78-1.15 1.39-1.52s1.33-.55 2.19-.55c.63 0 1.18.11 1.66.34.47.23.87.53 1.19.92s.56.83.72 1.33.23 1.02.22 1.56l-.03.37c-.01.12-.03.25-.05.39h-5.84c.03.37.13.71.29 1.01.16.31.39.55.69.73s.68.27 1.13.27c.26 0 .52-.03.76-.1s.46-.17.64-.31.31-.31.37-.52h1.93c-.14.6-.39 1.09-.76 1.47s-.81.66-1.32.84q-.765.27-1.62.27Zm-2.09-5.09h4.01c0-.35-.08-.66-.24-.95-.16-.28-.38-.51-.67-.67s-.64-.25-1.05-.25c-.44 0-.81.09-1.1.27s-.52.41-.68.69-.25.58-.27.9Z" fill="#007483"></path>
        <path d="M254.25 37.88c-.86 0-1.59-.18-2.18-.53s-1.04-.85-1.34-1.49c-.31-.64-.46-1.38-.46-2.23s.16-1.59.47-2.23c.32-.65.78-1.15 1.39-1.52s1.35-.55 2.23-.55q.96 0 1.71.33c.5.22.91.54 1.22.97s.51.96.59 1.59h-1.89c-.13-.4-.33-.69-.62-.88a1.9 1.9 0 0 0-1.03-.28c-.54 0-.96.13-1.27.39s-.53.58-.67.97-.21.79-.21 1.21.07.85.22 1.24c.15.38.38.69.69.92s.71.35 1.21.35q.6 0 1.08-.27c.48-.27.53-.47.62-.87h1.96c-.07.64-.29 1.18-.64 1.6-.35.43-.8.75-1.33.96-.54.21-1.12.32-1.74.32Z" fill="#007483"></path>
        <path d="M263.85 37.88c-.85 0-1.59-.17-2.2-.52-.62-.35-1.09-.84-1.42-1.48s-.5-1.39-.5-2.26.17-1.63.5-2.26.81-1.13 1.42-1.49q.915-.54 2.19-.54c1.275 0 1.57.18 2.18.54s1.08.86 1.41 1.51.49 1.41.49 2.28-.16 1.6-.48 2.23c-.32.64-.79 1.13-1.4 1.48s-1.34.52-2.19.52Zm-.02-1.76c.53 0 .95-.12 1.27-.35s.55-.54.7-.92.22-.79.22-1.23-.07-.86-.22-1.25-.38-.7-.7-.94-.74-.36-1.27-.36-.95.12-1.28.36-.56.55-.71.93-.22.8-.22 1.25.08.85.23 1.24c.15.38.39.69.71.92s.74.34 1.27.34Z" fill="#007483"></path>
        <path d="M270.1 37.77v-8.32h1.75l.11 1.09c.21-.32.45-.56.72-.73s.56-.3.87-.37.62-.11.94-.11h.32c.1 0 .18 0 .25.02v1.83h-.5c-.55 0-1.01.11-1.39.32a2 2 0 0 0-.85.9c-.19.39-.28.87-.28 1.44v3.95h-1.93Z" fill="#007483"></path>
        <path d="M279.47 37.88c-.39 0-.76-.05-1.1-.16a2.9 2.9 0 0 1-.93-.47c-.27-.21-.49-.46-.66-.77s-.24-.68-.24-1.1c0-.54.1-.98.32-1.32.21-.34.5-.6.86-.78s.78-.3 1.24-.37.95-.1 1.45-.1h1.62c0-.37-.06-.69-.17-.96-.12-.27-.3-.48-.54-.64q-.375-.24-.96-.24c-.25 0-.49.03-.7.09s-.4.15-.55.27-.26.28-.32.46h-1.97q.105-.645.45-1.11c.23-.31.5-.57.84-.77.33-.2.7-.35 1.1-.45s.8-.15 1.21-.15c1.21 0 2.09.35 2.64 1.04s.83 1.67.83 2.92v4.48h-1.7l-.05-1.07c-.24.36-.53.62-.87.79s-.66.28-.98.32c-.32.05-.58.07-.81.07Zm.38-1.57c.42 0 .79-.08 1.12-.24q.495-.24.78-.66c.19-.28.29-.61.29-.98v-.27h-1.52c-.25 0-.5 0-.75.02s-.47.06-.67.13-.36.17-.48.31-.18.33-.18.58.07.46.2.62.3.28.52.36.44.13.69.13" fill="#007483"></path>
        <path d="M286.34 37.77v-8.32h1.8l.11 1.06c.22-.29.48-.53.77-.69.29-.17.6-.29.93-.37s.63-.12.92-.12c.79 0 1.41.17 1.87.52s.78.81.97 1.39.28 1.23.28 1.94v4.59h-1.92v-4.28c0-.3-.02-.6-.06-.89q-.06-.435-.24-.78c-.12-.23-.29-.42-.51-.55-.22-.14-.52-.21-.88-.21-.45 0-.84.12-1.15.36-.32.24-.55.57-.71.97q-.24.615-.24 1.38v3.99h-1.93Z" fill="#007483"></path>
        <path d="M300.07 37.77c-.67 0-1.23-.09-1.67-.27s-.76-.47-.98-.87-.32-.94-.32-1.61v-3.87h-1.28v-1.71h1.28v-2.32h1.93v2.32h1.94v1.71h-1.94v3.61c0 .42.07.74.22.96q.225.33.99.33h.66v1.7h-.84Z" fill="#007483"></path>
        <path d="M306.6 37.88c-.86 0-1.6-.18-2.2-.54a3.46 3.46 0 0 1-1.37-1.49c-.31-.64-.47-1.38-.47-2.22s.16-1.59.48-2.23c.32-.65.78-1.15 1.39-1.52s1.33-.55 2.19-.55c.63 0 1.18.11 1.66.34.47.23.87.53 1.19.92s.56.83.72 1.33.23 1.02.22 1.56l-.03.37c-.01.12-.03.25-.05.39h-5.84c.03.37.13.71.29 1.01.16.31.39.55.69.73s.68.27 1.13.27c.26 0 .52-.03.76-.1s.46-.17.64-.31.31-.31.37-.52h1.93c-.14.6-.39 1.09-.76 1.47s-.81.66-1.32.84q-.765.27-1.62.27Zm-2.08-5.09h4.01c0-.35-.08-.66-.24-.95-.16-.28-.38-.51-.67-.67s-.64-.25-1.05-.25c-.44 0-.81.09-1.1.27s-.52.41-.68.69-.25.58-.27.9Z" fill="#007483"></path>
        <path d="M315.75 37.88c-.4 0-.8-.04-1.19-.13s-.77-.22-1.11-.42c-.35-.2-.64-.46-.87-.8s-.38-.76-.46-1.26h1.94c.08.23.22.42.4.56s.4.25.65.32.49.1.73.1q.225 0 .48-.03c.17-.02.34-.06.49-.13a.87.87 0 0 0 .37-.28c.09-.12.14-.28.14-.48 0-.19-.05-.34-.16-.45-.1-.11-.25-.2-.43-.27s-.39-.12-.65-.17c-.45-.09-.94-.2-1.45-.31a4 4 0 0 1-1.34-.53c-.16-.09-.29-.21-.41-.33-.12-.13-.21-.27-.29-.42s-.14-.32-.17-.5-.05-.37-.05-.58c0-.44.09-.82.28-1.13.18-.31.43-.56.74-.76s.67-.34 1.07-.43.81-.14 1.23-.14c.57 0 1.08.09 1.55.27s.85.45 1.16.82.5.84.56 1.4h-1.83q-.075-.39-.48-.63c-.405-.24-.61-.24-1.02-.24a2.5 2.5 0 0 0-.91.17c-.14.06-.26.15-.35.26-.09.12-.13.26-.13.43 0 .16.04.29.12.41s.2.21.36.29.36.15.58.2c.36.07.73.15 1.12.22s.73.15 1.01.22c.34.09.64.23.92.4s.49.4.64.68.23.63.23 1.07c0 .5-.1.93-.31 1.26s-.48.6-.81.79c-.34.19-.71.33-1.12.41s-.82.13-1.21.13Z" fill="#007483"></path>
        <path d="M330 37.88c-.86 0-1.6-.18-2.2-.54a3.46 3.46 0 0 1-1.37-1.49c-.31-.64-.47-1.38-.47-2.22s.16-1.59.48-2.23c.32-.65.78-1.15 1.39-1.52s1.33-.55 2.19-.55c.63 0 1.18.11 1.66.34.47.23.87.53 1.19.92s.56.83.72 1.33.23 1.02.22 1.56l-.03.37c-.01.12-.03.25-.05.39h-5.84c.03.37.13.71.29 1.01.16.31.39.55.69.73s.68.27 1.13.27c.26 0 .52-.03.76-.1s.46-.17.64-.31.31-.31.37-.52h1.93c-.14.6-.39 1.09-.76 1.47s-.81.66-1.32.84q-.765.27-1.62.27Zm-2.08-5.09h4.01c0-.35-.08-.66-.24-.95-.16-.28-.38-.51-.67-.67s-.64-.25-1.05-.25c-.44 0-.81.09-1.1.27s-.52.41-.68.69-.25.58-.27.9Z" fill="#007483"></path>
        <path d="M253.24 52.61c-.39 0-.76-.05-1.1-.16a2.9 2.9 0 0 1-.93-.47c-.27-.21-.49-.46-.66-.77s-.24-.68-.24-1.1c0-.54.1-.98.32-1.32.21-.34.5-.6.86-.78s.78-.3 1.24-.37.95-.1 1.45-.1h1.62c0-.37-.06-.69-.17-.96-.12-.27-.3-.48-.54-.64q-.375-.24-.96-.24c-.25 0-.49.03-.7.09s-.4.15-.55.27-.26.28-.32.46h-1.97q.105-.645.45-1.11c.23-.31.5-.57.84-.77.33-.2.7-.35 1.1-.45s.8-.15 1.21-.15c1.21 0 2.09.35 2.64 1.04s.83 1.67.83 2.92v4.48h-1.7l-.05-1.07c-.24.36-.53.62-.87.79s-.66.28-.98.32c-.32.05-.58.07-.81.07Zm.38-1.57c.42 0 .79-.08 1.12-.24q.495-.24.78-.66c.19-.28.29-.61.29-.98v-.27h-1.52c-.25 0-.5 0-.75.02s-.47.06-.67.13-.36.17-.48.31-.18.33-.18.58.07.46.2.62.3.28.52.36.44.13.69.13" fill="#007483"></path>
        <path d="M260.11 52.5v-8.32h1.75l.11 1.09c.21-.32.45-.56.72-.73s.56-.3.87-.37.62-.11.94-.11h.32c.1 0 .18 0 .25.02v1.83h-.5c-.55 0-1.01.11-1.39.32a2 2 0 0 0-.85.9c-.19.39-.28.87-.28 1.44v3.95h-1.93Z" fill="#007483"></path>
        <path d="M270.63 52.61c-.85 0-1.59-.17-2.2-.52-.62-.35-1.09-.84-1.42-1.48s-.5-1.39-.5-2.26.17-1.63.5-2.26.81-1.13 1.42-1.49q.915-.54 2.19-.54c1.275 0 1.57.18 2.18.54s1.08.86 1.41 1.51.49 1.41.49 2.28-.16 1.6-.48 2.23c-.32.64-.79 1.13-1.4 1.48s-1.34.52-2.19.52Zm-.01-1.76c.53 0 .95-.12 1.27-.35s.55-.54.7-.92.22-.79.22-1.23-.07-.86-.22-1.25-.38-.7-.7-.94-.74-.36-1.27-.36-.95.12-1.28.36-.56.55-.71.93-.22.8-.22 1.25.08.85.23 1.24c.15.38.39.69.71.92s.74.34 1.27.34Z" fill="#007483"></path>
        <path d="M276.88 52.5v-8.32h1.77l.13.95q.315-.42.69-.66c.25-.15.5-.26.77-.32s.52-.09.76-.09c.53 0 .98.11 1.35.32s.67.53.88.95c.21-.29.45-.53.71-.72a2.98 2.98 0 0 1 1.77-.54c.64 0 1.16.13 1.55.4s.67.64.85 1.1c.18.47.27 1 .27 1.6v5.33h-1.92v-4.72q0-.315-.03-.66c-.02-.23-.08-.45-.17-.65s-.22-.36-.39-.49-.41-.19-.71-.19-.56.07-.75.2-.35.3-.47.52-.21.45-.25.71c-.05.26-.07.51-.07.77v4.51h-1.93v-4.73c0-.2-.01-.41-.04-.64s-.08-.44-.16-.65-.21-.37-.38-.5-.41-.19-.72-.19c-.44 0-.78.12-1 .36-.23.24-.38.54-.46.88-.08.35-.12.68-.12 1v4.47z" fill="#007483"></path>
        <path d="M293.44 52.61c-.39 0-.76-.05-1.1-.16a2.9 2.9 0 0 1-.93-.47c-.27-.21-.49-.46-.66-.77s-.24-.68-.24-1.1c0-.54.1-.98.32-1.32.21-.34.5-.6.86-.78s.78-.3 1.24-.37.95-.1 1.45-.1H296c0-.37-.06-.69-.17-.96-.12-.27-.3-.48-.54-.64q-.375-.24-.96-.24c-.25 0-.49.03-.7.09s-.4.15-.55.27-.26.28-.32.46h-1.97q.105-.645.45-1.11c.23-.31.5-.57.84-.77.33-.2.7-.35 1.1-.45s.8-.15 1.21-.15c1.21 0 2.09.35 2.64 1.04s.83 1.67.83 2.92v4.48h-1.7l-.05-1.07c-.24.36-.53.62-.87.79s-.66.28-.98.32c-.32.05-.58.07-.81.07Zm.38-1.57c.42 0 .79-.08 1.12-.24q.495-.24.78-.66c.19-.28.29-.61.29-.98v-.27h-1.52c-.25 0-.5 0-.75.02s-.47.06-.67.13-.36.17-.48.31-.18.33-.18.58.07.46.2.62.3.28.52.36.44.13.69.13" fill="#007483"></path>
        <path d="M303.93 52.5c-.67 0-1.23-.09-1.67-.27s-.76-.47-.98-.87-.32-.94-.32-1.61v-3.87h-1.28v-1.71h1.28v-2.32h1.93v2.32h1.94v1.71h-1.94v3.61c0 .42.07.74.22.96q.225.33.99.33h.66v1.7h-.84Z" fill="#007483"></path>
        <path d="M307.71 43.22c-.37 0-.66-.11-.88-.33q-.33-.33-.33-.87c0-.54.12-.63.35-.86s.52-.34.87-.34.63.11.87.33q.36.33.36.87c0 .54-.12.65-.35.87s-.53.33-.88.33Zm-.97 9.28v-8.32h1.93v8.32z" fill="#007483"></path>
        <path d="M310.85 52.5v-1.48l4.39-5.13h-4.39v-1.71h6.87v1.47l-4.42 5.15h4.42v1.7z" fill="#007483"></path>
        <path d="M322.54 52.61c-.39 0-.76-.05-1.1-.16a2.9 2.9 0 0 1-.93-.47c-.27-.21-.49-.46-.66-.77s-.24-.68-.24-1.1c0-.54.1-.98.32-1.32.21-.34.5-.6.86-.78s.78-.3 1.24-.37.95-.1 1.45-.1h1.62c0-.37-.06-.69-.17-.96-.12-.27-.3-.48-.54-.64q-.375-.24-.96-.24c-.25 0-.49.03-.7.09s-.4.15-.55.27-.26.28-.32.46h-1.97q.105-.645.45-1.11c.23-.31.5-.57.84-.77.33-.2.7-.35 1.1-.45s.8-.15 1.21-.15c1.21 0 2.09.35 2.64 1.04s.83 1.67.83 2.92v4.48h-1.7l-.05-1.07c-.24.36-.53.62-.87.79s-.66.28-.98.32c-.32.05-.58.07-.81.07Zm.38-1.57c.42 0 .79-.08 1.12-.24q.495-.24.78-.66c.19-.28.29-.61.29-.98v-.27h-1.52c-.25 0-.5 0-.75.02s-.47.06-.67.13-.36.17-.48.31-.18.33-.18.58.07.46.2.62.3.28.52.36.44.13.69.13" fill="#007483"></path>
        <path d="M329.4 52.5v-8.32h1.8l.11 1.06c.22-.29.48-.53.77-.69.29-.17.6-.29.93-.37s.63-.12.92-.12c.79 0 1.41.17 1.87.52s.78.81.97 1.39.28 1.23.28 1.94v4.59h-1.92v-4.28c0-.3-.02-.6-.06-.89q-.06-.435-.24-.78c-.12-.23-.29-.42-.51-.55-.22-.14-.52-.21-.88-.21-.45 0-.84.12-1.15.36-.32.24-.55.57-.71.97q-.24.615-.24 1.38v3.99h-1.93Z" fill="#007483"></path>
        <path d="M343.13 52.5c-.67 0-1.23-.09-1.67-.27s-.76-.47-.98-.87-.32-.94-.32-1.61v-3.87h-1.28v-1.71h1.28v-2.32h1.93v2.32h1.94v1.71h-1.94v3.61c0 .42.07.74.22.96q.225.33.99.33h.66v1.7h-.84Z" fill="#007483"></path>
        <path d="M349.67 52.61c-.86 0-1.6-.18-2.2-.54a3.46 3.46 0 0 1-1.37-1.49c-.31-.64-.47-1.38-.47-2.22s.16-1.59.48-2.23c.32-.65.78-1.15 1.39-1.52s1.33-.55 2.19-.55c.63 0 1.18.11 1.66.34.47.23.87.53 1.19.92s.56.83.72 1.33.23 1.02.22 1.56l-.03.37c-.01.12-.03.25-.05.39h-5.84c.03.37.13.71.29 1.01.16.31.39.55.69.73s.68.27 1.13.27c.26 0 .52-.03.76-.1s.46-.17.64-.31.31-.31.37-.52h1.93c-.14.6-.39 1.09-.76 1.47s-.81.66-1.32.84q-.765.27-1.62.27Zm-2.09-5.09h4.01c0-.35-.08-.66-.24-.95-.16-.28-.38-.51-.67-.67s-.64-.25-1.05-.25c-.44 0-.81.09-1.1.27s-.52.41-.68.69-.25.58-.27.9Z" fill="#007483"></path>
        <path d="M358.82 52.61c-.4 0-.8-.04-1.19-.13s-.77-.22-1.11-.42c-.35-.2-.64-.46-.87-.8s-.38-.76-.46-1.26h1.94c.08.23.22.42.4.56s.4.25.65.32.49.1.73.1q.225 0 .48-.03c.17-.02.34-.06.49-.13a.87.87 0 0 0 .37-.28c.09-.12.14-.28.14-.48 0-.19-.05-.34-.16-.45-.1-.11-.25-.2-.43-.27s-.39-.12-.65-.17c-.45-.09-.94-.2-1.45-.31a4 4 0 0 1-1.34-.53c-.16-.09-.29-.21-.41-.33-.12-.13-.21-.27-.29-.42s-.14-.32-.17-.5-.05-.37-.05-.58c0-.44.09-.82.28-1.13.18-.31.43-.56.74-.76s.67-.34 1.07-.43.81-.14 1.23-.14c.57 0 1.08.09 1.55.27s.85.45 1.16.82.5.84.56 1.4h-1.83q-.075-.39-.48-.63c-.405-.24-.61-.24-1.02-.24a2.5 2.5 0 0 0-.91.17c-.14.06-.26.15-.35.26-.09.12-.13.26-.13.43 0 .16.04.29.12.41s.2.21.36.29.36.15.58.2c.36.07.73.15 1.12.22s.73.15 1.01.22c.34.09.64.23.92.4s.49.4.64.68.23.63.23 1.07c0 .5-.1.93-.31 1.26s-.48.6-.81.79c-.34.19-.71.33-1.12.41s-.82.13-1.21.13Z" fill="#007483"></path>
        <path d="M253.24 67.34c-.39 0-.76-.05-1.1-.16a2.9 2.9 0 0 1-.93-.47c-.27-.21-.49-.46-.66-.77s-.24-.68-.24-1.1c0-.54.1-.98.32-1.32.21-.34.5-.6.86-.78s.78-.3 1.24-.37.95-.1 1.45-.1h1.62c0-.37-.06-.69-.17-.96-.12-.27-.3-.48-.54-.64q-.375-.24-.96-.24c-.25 0-.49.03-.7.09s-.4.15-.55.27-.26.28-.32.46h-1.97q.105-.645.45-1.11c.23-.31.5-.57.84-.77.33-.2.7-.35 1.1-.45s.8-.15 1.21-.15c1.21 0 2.09.35 2.64 1.04s.83 1.67.83 2.92v4.48h-1.7l-.05-1.07c-.24.36-.53.62-.87.79s-.66.28-.98.32c-.32.05-.58.07-.81.07Zm.38-1.57c.42 0 .79-.08 1.12-.24q.495-.24.78-.66c.19-.28.29-.61.29-.98v-.27h-1.52c-.25 0-.5 0-.75.02s-.47.06-.67.13-.36.17-.48.31-.18.33-.18.58.07.46.2.62.3.28.52.36.44.13.69.13" fill="#007483"></path>
        <path d="M260.11 67.23v-8.32h1.75l.11 1.09c.21-.32.45-.56.72-.73s.56-.3.87-.37.62-.11.94-.11h.32c.1 0 .18 0 .25.02v1.83h-.5c-.55 0-1.01.11-1.39.32a2 2 0 0 0-.85.9c-.19.39-.28.87-.28 1.44v3.95h-1.93Z" fill="#007483"></path>
        <path d="M270.46 67.23c-.67 0-1.23-.09-1.67-.27s-.76-.47-.98-.87-.32-.94-.32-1.61v-3.87h-1.28V58.9h1.28v-2.32h1.93v2.32h1.94v1.71h-1.94v3.61c0 .42.07.74.22.96q.225.33.99.33h.66v1.7h-.84Z" fill="#007483"></path>
        <path d="M274.23 57.95c-.37 0-.66-.11-.88-.33q-.33-.33-.33-.87c0-.54.12-.63.35-.86s.52-.34.87-.34.63.11.87.33q.36.33.36.87c0 .54-.12.65-.35.87s-.53.33-.88.33Zm-.96 9.28v-8.32h1.93v8.32z" fill="#007483"></path>
        <path d="M278.43 67.23v-6.61h-1.29v-1.71h1.29v-.79c0-.63.09-1.15.28-1.55.19-.41.49-.7.91-.89s.95-.28 1.6-.28h1.23v1.7h-1.01c-.28 0-.5.05-.66.14s-.27.23-.34.42c-.07.18-.1.41-.1.67v.58h2.12v1.71h-2.12v6.61z" fill="#007483"></path>
        <path d="M285.25 57.95c-.37 0-.66-.11-.88-.33q-.33-.33-.33-.87c0-.54.12-.63.35-.86s.52-.34.87-.34.63.11.87.33q.36.33.36.87c0 .54-.12.65-.35.87s-.53.33-.88.33Zm-.96 9.28v-8.32h1.93v8.32z" fill="#007483"></path>
        <path d="M292.37 67.34c-.86 0-1.59-.18-2.18-.53s-1.04-.85-1.34-1.49c-.31-.64-.46-1.38-.46-2.23s.16-1.59.47-2.23c.32-.65.78-1.15 1.39-1.52s1.35-.55 2.23-.55q.96 0 1.71.33c.5.22.91.54 1.22.97s.51.96.59 1.59h-1.89c-.13-.4-.33-.69-.62-.88a1.9 1.9 0 0 0-1.03-.28c-.54 0-.96.13-1.27.39s-.53.58-.67.97-.21.79-.21 1.21.07.85.22 1.24c.15.38.38.69.69.92s.71.35 1.21.35q.6 0 1.08-.27c.48-.27.53-.47.62-.87h1.96c-.07.64-.29 1.18-.64 1.6-.35.43-.8.75-1.33.96-.54.21-1.12.32-1.74.32Z" fill="#007483"></path>
        <path d="M299.12 57.95c-.37 0-.66-.11-.88-.33q-.33-.33-.33-.87c0-.54.12-.63.35-.86s.52-.34.87-.34.63.11.87.33q.36.33.36.87c0 .54-.12.65-.35.87s-.53.33-.88.33Zm-.96 9.28v-8.32h1.93v8.32z" fill="#007483"></path>
        <path d="M305.23 67.34c-.39 0-.76-.05-1.1-.16a2.9 2.9 0 0 1-.93-.47c-.27-.21-.49-.46-.66-.77s-.24-.68-.24-1.1c0-.54.1-.98.32-1.32.21-.34.5-.6.86-.78s.78-.3 1.24-.37.95-.1 1.45-.1h1.62c0-.37-.06-.69-.17-.96-.12-.27-.3-.48-.54-.64q-.375-.24-.96-.24c-.25 0-.49.03-.7.09s-.4.15-.55.27-.26.28-.32.46h-1.97q.105-.645.45-1.11c.23-.31.5-.57.84-.77.33-.2.7-.35 1.1-.45s.8-.15 1.21-.15c1.21 0 2.09.35 2.64 1.04s.83 1.67.83 2.92v4.48h-1.7l-.05-1.07c-.24.36-.53.62-.87.79s-.66.28-.98.32c-.32.05-.58.07-.81.07Zm.38-1.57c.42 0 .79-.08 1.12-.24q.495-.24.78-.66c.19-.28.29-.61.29-.98v-.27h-1.52c-.25 0-.5 0-.75.02s-.47.06-.67.13-.36.17-.48.31-.18.33-.18.58.07.46.2.62.3.28.52.36.44.13.69.13" fill="#007483"></path>
        <path d="M313.05 57.95c-.37 0-.66-.11-.88-.33q-.33-.33-.33-.87c0-.54.12-.63.35-.86s.52-.34.87-.34.63.11.87.33q.36.33.36.87c0 .54-.12.65-.35.87s-.53.33-.88.33Zm-.96 9.28v-8.32h1.93v8.32z" fill="#007483"></path>
        <path d="M319.7 67.34c-.4 0-.8-.04-1.19-.13s-.77-.22-1.11-.42c-.35-.2-.64-.46-.87-.8s-.38-.76-.46-1.26h1.94c.08.23.22.42.4.56s.4.25.65.32.49.1.73.1q.225 0 .48-.03c.17-.02.34-.06.49-.13a.87.87 0 0 0 .37-.28c.09-.12.14-.28.14-.48 0-.19-.05-.34-.16-.45-.1-.11-.25-.2-.43-.27s-.39-.12-.65-.17c-.45-.09-.94-.2-1.45-.31a4 4 0 0 1-1.34-.53c-.16-.09-.29-.21-.41-.33-.12-.13-.21-.27-.29-.42s-.14-.32-.17-.5-.05-.37-.05-.58c0-.44.09-.82.28-1.13.18-.31.43-.56.74-.76s.67-.34 1.07-.43.81-.14 1.23-.14c.57 0 1.08.09 1.55.27s.85.45 1.16.82.5.84.56 1.4h-1.83q-.075-.39-.48-.63c-.405-.24-.61-.24-1.02-.24a2.5 2.5 0 0 0-.91.17c-.14.06-.26.15-.35.26-.09.12-.13.26-.13.43 0 .16.04.29.12.41s.2.21.36.29.36.15.58.2c.36.07.73.15 1.12.22s.73.15 1.01.22c.34.09.64.23.92.4s.49.4.64.68.23.63.23 1.07c0 .5-.1.93-.31 1.26s-.48.6-.81.79c-.34.19-.71.33-1.12.41s-.82.13-1.21.13Z" fill="#007483"></path>
        <g>
            <path d="m208.65 57.09 26.66-31.5c1.14-1.34 1.2-3.29.14-4.7h0a3.773 3.773 0 0 0-5.47-.62l-25.54 21.7c-.47.47-1.23.47-1.7 0l-12.41-7.81a4.58 4.58 0 0 0-5.68.63h0a4.574 4.574 0 0 0-.19 6.28l14.26 16.13c2.65 3 7.34 2.94 9.92-.11Z" fill="none" stroke="#007483" stroke-linecap="round" stroke-linejoin="round" stroke-width="3.24"></path>
            <path d="M218.97 18.5a30 30 0 0 0-16.5-4.92c-16.64 0-30.13 13.49-30.13 30.13s13.49 30.13 30.13 30.13 30.13-13.49 30.13-30.13c0-.86-.04-1.72-.11-2.57" fill="none" stroke="#007483" stroke-linecap="round" stroke-linejoin="round" stroke-width="3.24"></path>
        </g>
        <path d="M-13.07 39.33V28.17h4.12c1.17 0 2.16.22 2.97.67s1.43 1.09 1.85 1.93c.43.84.64 1.84.64 3.01s-.21 2.14-.62 2.97c-.42.83-1.03 1.47-1.84 1.92s-1.8.67-2.98.67h-4.13Zm1.97-1.8h2.11q1.245 0 2.01-.48c.51-.32.88-.76 1.12-1.33.24-.56.36-1.22.36-1.96s-.12-1.37-.35-1.94a2.83 2.83 0 0 0-1.11-1.35c-.51-.33-1.18-.5-2.01-.5h-2.13z" fill="#007483"></path>
        <path d="M2.44 39.44c-.86 0-1.6-.18-2.2-.54a3.46 3.46 0 0 1-1.37-1.49c-.31-.64-.47-1.38-.47-2.22s.16-1.59.48-2.23c.32-.65.78-1.15 1.39-1.52s1.33-.55 2.19-.55c.63 0 1.18.11 1.66.34.47.23.87.53 1.19.92s.56.83.72 1.33.23 1.02.22 1.56l-.03.37c-.01.12-.03.25-.05.39H.32c.03.37.13.71.29 1.01.16.31.39.55.69.73s.68.27 1.13.27c.26 0 .52-.03.76-.1s.46-.17.64-.31.31-.31.37-.52h1.93c-.14.6-.39 1.09-.76 1.47s-.81.66-1.32.84q-.765.27-1.62.27ZM.35 34.35h4.01c0-.35-.08-.66-.24-.95-.16-.28-.38-.51-.67-.67s-.64-.25-1.05-.25c-.44 0-.81.09-1.1.27s-.52.41-.68.69-.25.58-.27.9Z" fill="#007483"></path>
        <path d="M11.59 39.44c-.4 0-.8-.04-1.19-.13s-.77-.22-1.11-.42c-.35-.2-.64-.46-.87-.8s-.38-.76-.46-1.26H9.9c.08.23.22.42.4.56s.4.25.65.32.49.1.73.1q.225 0 .48-.03c.17-.02.34-.06.49-.13a.87.87 0 0 0 .37-.28c.09-.12.14-.28.14-.48 0-.19-.05-.34-.16-.45-.1-.11-.25-.2-.43-.27s-.39-.12-.65-.17c-.45-.09-.94-.2-1.45-.31a4 4 0 0 1-1.34-.53c-.16-.09-.29-.21-.41-.33-.12-.13-.21-.27-.29-.42s-.14-.32-.17-.5-.05-.37-.05-.58c0-.44.09-.82.28-1.13.18-.31.43-.56.74-.76s.67-.34 1.07-.43.81-.14 1.23-.14c.57 0 1.08.09 1.55.27s.85.45 1.16.82.5.84.56 1.4h-1.83q-.075-.39-.48-.63c-.405-.24-.61-.24-1.02-.24a2.5 2.5 0 0 0-.91.17c-.14.06-.26.15-.35.26-.09.12-.13.26-.13.43 0 .16.04.29.12.41s.2.21.36.29.36.15.58.2c.36.07.73.15 1.12.22s.73.15 1.01.22c.34.09.64.23.92.4s.49.4.64.68.23.63.23 1.07c0 .5-.1.93-.31 1.26s-.48.6-.81.79c-.34.19-.71.33-1.12.41s-.82.13-1.21.13Z" fill="#007483"></path>
        <path d="M20.82 39.44c-.86 0-1.6-.18-2.2-.54a3.46 3.46 0 0 1-1.37-1.49c-.31-.64-.47-1.38-.47-2.22s.16-1.59.48-2.23c.32-.65.78-1.15 1.39-1.52s1.33-.55 2.19-.55c.63 0 1.18.11 1.66.34.47.23.87.53 1.19.92s.56.83.72 1.33.23 1.02.22 1.56l-.03.37c-.01.12-.03.25-.05.39h-5.84c.03.37.13.71.29 1.01.16.31.39.55.69.73s.68.27 1.13.27c.26 0 .52-.03.76-.1s.46-.17.64-.31.31-.31.37-.52h1.93c-.14.6-.39 1.09-.76 1.47s-.81.66-1.32.84q-.765.27-1.62.27Zm-2.08-5.09h4.01c0-.35-.08-.66-.24-.95-.16-.28-.38-.51-.67-.67s-.64-.25-1.05-.25c-.44 0-.81.09-1.1.27s-.52.41-.68.69-.25.58-.27.9Z" fill="#007483"></path>
        <path d="M26.79 39.33v-8.32h1.8l.11 1.06c.22-.29.48-.53.77-.69.29-.17.6-.29.93-.37s.63-.12.92-.12c.79 0 1.41.17 1.87.52s.78.81.97 1.39.28 1.23.28 1.94v4.59h-1.92v-4.28c0-.3-.02-.6-.06-.89q-.06-.435-.24-.78c-.12-.23-.29-.42-.51-.55-.22-.14-.52-.21-.88-.21-.45 0-.84.12-1.15.36-.32.24-.55.57-.71.97q-.24.615-.24 1.38v3.99H26.8Z" fill="#007483"></path>
        <path d="m39 39.33-3.01-8.32h2.13l2.19 6.68 2.18-6.68h2.12l-3.01 8.32h-2.59Z" fill="#007483"></path>
        <path d="M50 39.44c-.85 0-1.59-.17-2.2-.52-.62-.35-1.09-.84-1.42-1.48s-.5-1.39-.5-2.26.17-1.63.5-2.26.81-1.13 1.42-1.49q.915-.54 2.19-.54c1.275 0 1.57.18 2.18.54s1.08.86 1.41 1.51.49 1.41.49 2.28-.16 1.6-.48 2.23c-.32.64-.79 1.13-1.4 1.48s-1.34.52-2.19.52Zm-.01-1.76c.53 0 .95-.12 1.27-.35s.55-.54.7-.92.22-.79.22-1.23-.07-.86-.22-1.25-.38-.7-.7-.94-.74-.36-1.27-.36-.95.12-1.28.36-.56.55-.71.93-.22.8-.22 1.25.08.85.23 1.24c.15.38.39.69.71.92s.74.34 1.27.34Z" fill="#007483"></path>
        <path d="M56.25 39.33V28.17h1.93v11.16z" fill="#007483"></path>
        <path d="m62.79 39.33-3.01-8.32h2.13l2.19 6.68 2.18-6.68h2.12l-3.01 8.32H62.8Z" fill="#007483"></path>
        <path d="M70.95 30.05c-.37 0-.66-.11-.88-.33q-.33-.33-.33-.87c0-.54.12-.63.35-.86s.52-.34.87-.34.63.11.87.33q.36.33.36.87c0 .54-.12.65-.35.87s-.53.33-.88.33Zm-.97 9.28v-8.32h1.93v8.32z" fill="#007483"></path>
        <path d="M77.8 39.44c-.84 0-1.54-.19-2.08-.58-.55-.38-.96-.9-1.22-1.54-.27-.64-.4-1.36-.4-2.15s.14-1.55.43-2.2c.28-.65.71-1.16 1.28-1.53s1.28-.56 2.13-.56c.32 0 .62.03.92.1s.58.17.85.32c.27.14.49.33.67.56v-3.69h1.93v11.16h-1.86l-.03-1.04c-.2.26-.43.48-.7.65s-.57.29-.89.38-.66.13-1.01.13Zm.36-1.74c.5 0 .92-.12 1.25-.35.33-.24.57-.55.73-.95s.24-.81.24-1.25-.08-.88-.24-1.26-.41-.68-.73-.92-.74-.35-1.25-.35c-.54 0-.96.12-1.27.36s-.54.56-.68.96c-.14.39-.21.82-.21 1.27q0 .51.12.96c.12.45.2.57.37.8q.255.345.66.54c.27.13.61.2 1.01.2Z" fill="#007483"></path>
        <path d="M88.59 39.44c-.85 0-1.59-.17-2.2-.52-.62-.35-1.09-.84-1.42-1.48s-.5-1.39-.5-2.26.17-1.63.5-2.26.81-1.13 1.42-1.49q.915-.54 2.19-.54c1.275 0 1.57.18 2.18.54s1.08.86 1.41 1.51.49 1.41.49 2.28-.16 1.6-.48 2.23c-.32.64-.79 1.13-1.4 1.48s-1.34.52-2.19.52Zm-.02-1.76c.53 0 .95-.12 1.27-.35s.55-.54.7-.92.22-.79.22-1.23-.07-.86-.22-1.25-.38-.7-.7-.94-.74-.36-1.27-.36-.95.12-1.28.36-.56.55-.71.93-.22.8-.22 1.25.08.85.23 1.24c.15.38.39.69.71.92s.74.34 1.27.34Z" fill="#007483"></path>
        <path d="M-13.39 57.12V45.74h1.8l.09 1.12c.33-.43.71-.75 1.17-.95q.675-.3 1.5-.3 1.23 0 2.04.57t1.2 1.53c.26.64.39 1.37.39 2.18s-.14 1.54-.41 2.19-.69 1.16-1.24 1.53-1.24.56-2.08.56c-.39 0-.74-.04-1.07-.13s-.61-.21-.85-.36c-.25-.16-.46-.34-.62-.54v3.98h-1.93Zm4.17-4.69c.54 0 .96-.12 1.26-.35.3-.24.53-.55.66-.93.14-.38.21-.79.21-1.22s-.07-.87-.21-1.26a2 2 0 0 0-.69-.95q-.48-.36-1.26-.36c-.48 0-.89.12-1.22.35-.33.24-.58.55-.75.94s-.25.81-.25 1.26.08.89.24 1.27.41.69.74.92.76.34 1.28.34Z" fill="#007483"></path>
        <path d="M.78 54.17c-.85 0-1.59-.17-2.2-.52-.62-.35-1.09-.84-1.42-1.48s-.5-1.39-.5-2.26.17-1.63.5-2.26.81-1.13 1.42-1.49q.915-.54 2.19-.54c1.275 0 1.57.18 2.18.54s1.08.86 1.41 1.51.49 1.41.49 2.28-.16 1.6-.48 2.23c-.32.64-.79 1.13-1.4 1.48s-1.34.52-2.19.52Zm-.01-1.76c.53 0 .95-.12 1.27-.35s.55-.54.7-.92.22-.79.22-1.23-.07-.86-.22-1.25-.38-.7-.7-.94-.74-.36-1.27-.36-.95.12-1.28.36-.56.55-.71.93-.22.8-.22 1.25.08.85.23 1.24c.15.38.39.69.71.92s.74.34 1.27.34Z" fill="#007483"></path>
        <path d="M7.03 54.05v-8.32h1.75l.11 1.09c.21-.32.45-.56.72-.73s.56-.3.87-.37.62-.11.94-.11h.32c.1 0 .18 0 .25.02v1.83h-.5c-.55 0-1.01.11-1.39.32a2 2 0 0 0-.85.9c-.19.39-.28.87-.28 1.44v3.95H7.04Z" fill="#007483"></path>
        <path d="M22.5 54.17c-.86 0-1.6-.18-2.2-.54a3.46 3.46 0 0 1-1.37-1.49c-.31-.64-.47-1.38-.47-2.22s.16-1.59.48-2.23c.32-.65.78-1.15 1.39-1.52s1.33-.55 2.19-.55c.63 0 1.18.11 1.66.34.47.23.87.53 1.19.92s.56.83.72 1.33.23 1.02.22 1.56l-.03.37c-.01.12-.03.25-.05.39h-5.84c.03.37.13.71.29 1.01.16.31.39.55.69.73s.68.27 1.13.27c.26 0 .52-.03.76-.1s.46-.17.64-.31.31-.31.37-.52h1.93c-.14.6-.39 1.09-.76 1.47s-.81.66-1.32.84q-.765.27-1.62.27Zm-2.09-5.09h4.01c0-.35-.08-.66-.24-.95-.16-.28-.38-.51-.67-.67s-.64-.25-1.05-.25c-.44 0-.81.09-1.1.27s-.52.41-.68.69-.25.58-.27.9Z" fill="#007483"></path>
        <path d="M31.65 54.17c-.4 0-.8-.04-1.19-.13s-.77-.22-1.11-.42c-.35-.2-.64-.46-.87-.8s-.38-.76-.46-1.26h1.94c.08.23.22.42.4.56s.4.25.65.32.49.1.73.1q.225 0 .48-.03c.17-.02.34-.06.49-.13a.87.87 0 0 0 .37-.28c.09-.12.14-.28.14-.48 0-.19-.05-.34-.16-.45-.1-.11-.25-.2-.43-.27s-.39-.12-.65-.17c-.45-.09-.94-.2-1.45-.31a4 4 0 0 1-1.34-.53c-.16-.09-.29-.21-.41-.33-.12-.13-.21-.27-.29-.42s-.14-.32-.17-.5-.05-.37-.05-.58c0-.44.09-.82.28-1.13.18-.31.43-.56.74-.76s.67-.34 1.07-.43.81-.14 1.23-.14c.57 0 1.08.09 1.55.27s.85.45 1.16.82.5.84.56 1.4h-1.83q-.075-.39-.48-.63c-.405-.24-.61-.24-1.02-.24a2.5 2.5 0 0 0-.91.17c-.14.06-.26.15-.35.26-.09.12-.13.26-.13.43 0 .16.04.29.12.41s.2.21.36.29.36.15.58.2c.36.07.73.15 1.12.22s.73.15 1.01.22c.34.09.64.23.92.4s.49.4.64.68.23.63.23 1.07c0 .5-.1.93-.31 1.26s-.48.6-.81.79c-.34.19-.71.33-1.12.41s-.82.13-1.21.13Z" fill="#007483"></path>
        <path d="M37.16 57.12V45.74h1.8l.09 1.12c.33-.43.71-.75 1.17-.95q.675-.3 1.5-.3 1.23 0 2.04.57t1.2 1.53c.26.64.39 1.37.39 2.18s-.14 1.54-.41 2.19-.69 1.16-1.24 1.53-1.24.56-2.08.56c-.39 0-.74-.04-1.07-.13s-.61-.21-.85-.36c-.25-.16-.46-.34-.62-.54v3.98h-1.93Zm4.16-4.69c.54 0 .96-.12 1.26-.35.3-.24.53-.55.66-.93.14-.38.21-.79.21-1.22s-.07-.87-.21-1.26a2 2 0 0 0-.69-.95q-.48-.36-1.26-.36c-.48 0-.89.12-1.22.35-.33.24-.58.55-.75.94s-.25.81-.25 1.26.08.89.24 1.27.41.69.74.92.76.34 1.28.34Z" fill="#007483"></path>
        <path d="M51.25 54.17c-.86 0-1.6-.18-2.2-.54a3.46 3.46 0 0 1-1.37-1.49c-.31-.64-.47-1.38-.47-2.22s.16-1.59.48-2.23c.32-.65.78-1.15 1.39-1.52s1.33-.55 2.19-.55c.63 0 1.18.11 1.66.34.47.23.87.53 1.19.92s.56.83.72 1.33.23 1.02.22 1.56l-.03.37c-.01.12-.03.25-.05.39h-5.84c.03.37.13.71.29 1.01.16.31.39.55.69.73s.68.27 1.13.27c.26 0 .52-.03.76-.1s.46-.17.64-.31.31-.31.37-.52h1.93c-.14.6-.39 1.09-.76 1.47s-.81.66-1.32.84q-.765.27-1.62.27Zm-2.08-5.09h4.01c0-.35-.08-.66-.24-.95-.16-.28-.38-.51-.67-.67s-.64-.25-1.05-.25c-.44 0-.81.09-1.1.27s-.52.41-.68.69-.25.58-.27.9Z" fill="#007483"></path>
        <path d="M61.04 54.17c-.86 0-1.59-.18-2.18-.53s-1.04-.85-1.34-1.49c-.31-.64-.46-1.38-.46-2.23s.16-1.59.47-2.23c.32-.65.78-1.15 1.39-1.52s1.35-.55 2.23-.55q.96 0 1.71.33c.5.22.91.54 1.22.97s.51.96.59 1.59h-1.89c-.13-.4-.33-.69-.62-.88a1.9 1.9 0 0 0-1.03-.28c-.54 0-.96.13-1.27.39s-.53.58-.67.97-.21.79-.21 1.21.07.85.22 1.24c.15.38.38.69.69.92s.71.35 1.21.35q.6 0 1.08-.27c.48-.27.53-.47.62-.87h1.96c-.07.64-.29 1.18-.64 1.6-.35.43-.8.75-1.33.96-.54.21-1.12.32-1.74.32Z" fill="#007483"></path>
        <path d="M67.79 44.78c-.37 0-.66-.11-.88-.33q-.33-.33-.33-.87c0-.54.12-.63.35-.86s.52-.34.87-.34.63.11.87.33q.36.33.36.87c0 .54-.12.65-.35.87s-.53.33-.88.33Zm-.96 9.27v-8.32h1.93v8.32z" fill="#007483"></path>
        <path d="M73.9 54.17c-.39 0-.76-.05-1.1-.16a2.9 2.9 0 0 1-.93-.47c-.27-.21-.49-.46-.66-.77s-.24-.68-.24-1.1c0-.54.1-.98.32-1.32.21-.34.5-.6.86-.78s.78-.3 1.24-.37.95-.1 1.45-.1h1.62c0-.37-.06-.69-.17-.96-.12-.27-.3-.48-.54-.64q-.375-.24-.96-.24c-.25 0-.49.03-.7.09s-.4.15-.55.27-.26.28-.32.46h-1.97q.105-.645.45-1.11c.23-.31.5-.57.84-.77.33-.2.7-.35 1.1-.45s.8-.15 1.21-.15c1.21 0 2.09.35 2.64 1.04s.83 1.67.83 2.92v4.48h-1.7l-.05-1.07c-.24.36-.53.62-.87.79s-.66.28-.98.32c-.32.05-.58.07-.81.07Zm.37-1.57c.42 0 .79-.08 1.12-.24q.495-.24.78-.66c.19-.28.29-.61.29-.98v-.27h-1.52c-.25 0-.5 0-.75.02s-.47.06-.67.13-.36.17-.48.31-.18.33-.18.58.07.46.2.62.3.28.52.36.44.13.69.13" fill="#007483"></path>
        <path d="M80.76 54.05V42.89h1.93v11.16z" fill="#007483"></path>
        <path d="M86.14 44.78c-.37 0-.66-.11-.88-.33q-.33-.33-.33-.87c0-.54.12-.63.35-.86s.52-.34.87-.34.63.11.87.33q.36.33.36.87c0 .54-.12.65-.35.87s-.53.33-.88.33Zm-.96 9.27v-8.32h1.93v8.32z" fill="#007483"></path>
        <path d="M92.79 54.17c-.4 0-.8-.04-1.19-.13s-.77-.22-1.11-.42c-.35-.2-.64-.46-.87-.8s-.38-.76-.46-1.26h1.94c.08.23.22.42.4.56s.4.25.65.32.49.1.73.1q.225 0 .48-.03c.17-.02.34-.06.49-.13a.87.87 0 0 0 .37-.28c.09-.12.14-.28.14-.48 0-.19-.05-.34-.16-.45-.1-.11-.25-.2-.43-.27s-.39-.12-.65-.17c-.45-.09-.94-.2-1.45-.31a4 4 0 0 1-1.34-.53c-.16-.09-.29-.21-.41-.33-.12-.13-.21-.27-.29-.42s-.14-.32-.17-.5-.05-.37-.05-.58c0-.44.09-.82.28-1.13.18-.31.43-.56.74-.76s.67-.34 1.07-.43.81-.14 1.23-.14c.57 0 1.08.09 1.55.27s.85.45 1.16.82.5.84.56 1.4h-1.83q-.075-.39-.48-.63c-.405-.24-.61-.24-1.02-.24a2.5 2.5 0 0 0-.91.17c-.14.06-.26.15-.35.26-.09.12-.13.26-.13.43 0 .16.04.29.12.41s.2.21.36.29.36.15.58.2c.36.07.73.15 1.12.22s.73.15 1.01.22c.34.09.64.23.92.4s.49.4.64.68.23.63.23 1.07c0 .5-.1.93-.31 1.26s-.48.6-.81.79c-.34.19-.71.33-1.12.41s-.82.13-1.21.13Z" fill="#007483"></path>
        <path d="M101.77 54.05c-.67 0-1.23-.09-1.67-.27s-.76-.47-.98-.87-.32-.94-.32-1.61v-3.87h-1.28v-1.71h1.28V43.4h1.93v2.32h1.94v1.71h-1.94v3.61c0 .42.07.74.22.96q.225.33.99.33h.66v1.7h-.84Z" fill="#007483"></path>
        <path d="M107.23 54.17c-.39 0-.76-.05-1.1-.16a2.9 2.9 0 0 1-.93-.47c-.27-.21-.49-.46-.66-.77s-.24-.68-.24-1.1c0-.54.1-.98.32-1.32.21-.34.5-.6.86-.78s.78-.3 1.24-.37.95-.1 1.45-.1h1.62c0-.37-.06-.69-.17-.96-.12-.27-.3-.48-.54-.64q-.375-.24-.96-.24c-.25 0-.49.03-.7.09s-.4.15-.55.27-.26.28-.32.46h-1.97q.105-.645.45-1.11c.23-.31.5-.57.84-.77.33-.2.7-.35 1.1-.45s.8-.15 1.21-.15c1.21 0 2.09.35 2.64 1.04s.83 1.67.83 2.92v4.48h-1.7l-.05-1.07c-.24.36-.53.62-.87.79s-.66.28-.98.32c-.32.05-.58.07-.81.07Zm.38-1.57c.42 0 .79-.08 1.12-.24q.495-.24.78-.66c.19-.28.29-.61.29-.98v-.27h-1.52c-.25 0-.5 0-.75.02s-.47.06-.67.13-.36.17-.48.31-.18.33-.18.58.07.46.2.62.3.28.52.36.44.13.69.13" fill="#007483"></path>
        <path d="M117.28 54.17c-.4 0-.8-.04-1.19-.13s-.77-.22-1.11-.42c-.35-.2-.64-.46-.87-.8s-.38-.76-.46-1.26h1.94c.08.23.22.42.4.56s.4.25.65.32.49.1.73.1q.225 0 .48-.03c.17-.02.34-.06.49-.13a.87.87 0 0 0 .37-.28c.09-.12.14-.28.14-.48 0-.19-.05-.34-.16-.45-.1-.11-.25-.2-.43-.27s-.39-.12-.65-.17c-.45-.09-.94-.2-1.45-.31a4 4 0 0 1-1.34-.53c-.16-.09-.29-.21-.41-.33-.12-.13-.21-.27-.29-.42s-.14-.32-.17-.5-.05-.37-.05-.58c0-.44.09-.82.28-1.13.18-.31.43-.56.74-.76s.67-.34 1.07-.43.81-.14 1.23-.14c.57 0 1.08.09 1.55.27s.85.45 1.16.82.5.84.56 1.4h-1.83q-.075-.39-.48-.63c-.405-.24-.61-.24-1.02-.24a2.5 2.5 0 0 0-.91.17c-.14.06-.26.15-.35.26-.09.12-.13.26-.13.43 0 .16.04.29.12.41s.2.21.36.29.36.15.58.2c.36.07.73.15 1.12.22s.73.15 1.01.22c.34.09.64.23.92.4s.49.4.64.68.23.63.23 1.07c0 .5-.1.93-.31 1.26s-.48.6-.81.79c-.34.19-.71.33-1.12.41s-.82.13-1.21.13Z" fill="#007483"></path>
        <g>
            <path d="m-60.95 22.45 3.3 5.86c.16.29.43.5.75.57l6.34 1.48c.86.2 1.21 1.3.62 1.99l-4.3 5.1c-.21.25-.32.59-.29.92l.62 6.77c.08.92-.81 1.6-1.62 1.23l-5.96-2.71c-.3-.13-.63-.13-.93 0l-5.96 2.71c-.81.37-1.7-.31-1.62-1.23l.62-6.77c.03-.34-.07-.67-.29-.92l-4.3-5.1c-.59-.69-.25-1.79.62-1.99l6.34-1.48c.31-.07.59-.28.75-.57l3.3-5.86c.45-.8 1.55-.8 2 0Z" fill="none" stroke="#007483" stroke-linecap="round" stroke-linejoin="round" stroke-width="3.24"></path>
            <path fill="none" stroke="#007483" stroke-linecap="round" stroke-linejoin="round" stroke-width="3.24" d="M-40.85 35.92c0 11.653-9.447 21.1-21.1 21.1s-21.1-9.447-21.1-21.1 9.447-21.1 21.1-21.1 21.1 9.447 21.1 21.1"></path>
            <path d="M-30.3 35.92c0 2.75-2.25 5.17-2.92 7.7-.7 2.62.02 5.84-1.31 8.13-1.35 2.33-4.5 3.31-6.39 5.2s-2.87 5.04-5.2 6.39c-2.3 1.33-5.51.61-8.13 1.31-2.53.68-4.95 2.92-7.7 2.92s-5.17-2.25-7.7-2.92c-2.62-.7-5.84.02-8.13-1.31-2.33-1.35-3.31-4.5-5.2-6.39s-5.04-2.87-6.39-5.2c-1.33-2.3-.61-5.51-1.31-8.13-.68-2.53-2.92-4.95-2.92-7.7s2.25-5.17 2.92-7.7c.7-2.62-.02-5.84 1.31-8.13 1.35-2.33 4.5-3.31 6.39-5.2s2.87-5.04 5.2-6.39c2.3-1.33 5.51-.61 8.13-1.31 2.53-.68 4.95-2.92 7.7-2.92s5.17 2.25 7.7 2.92c2.62.7 5.84-.02 8.13 1.31 2.33 1.35 3.31 4.5 5.2 6.39s5.04 2.87 6.39 5.2c1.33 2.3.61 5.51 1.31 8.13.68 2.53 2.92 4.95 2.92 7.7" fill="none" stroke="#007483" stroke-linecap="round" stroke-linejoin="round" stroke-width="3.24"></path>
            <path d="m-43.43 60.47 7.65 13.26c.74 1.28-.35 2.87-1.83 2.62L-46 74.89c-.83-.14-1.65.33-1.95 1.13l-2.94 8c-.51 1.39-2.43 1.55-3.17.26l-9.85-17.06" fill="none" stroke="#007483" stroke-linecap="round" stroke-linejoin="round" stroke-width="3.24"></path>
            <path d="m-80.47 60.45-7.65 13.28c-.74 1.28.35 2.87 1.83 2.62l8.39-1.46c.83-.14 1.65.33 1.95 1.13l2.94 8c.51 1.39 2.43 1.55 3.17.26l3.83-6.63" fill="none" stroke="#007483" stroke-linecap="round" stroke-linejoin="round" stroke-width="3.24"></path>
        </g>
    </g>
</svg>