<svg preserveAspectRatio="xMidYMid meet" data-bbox="10.28 -0.42 126.56 126.56" viewBox="0 0 150 150" xmlns="http://www.w3.org/2000/svg" data-type="ugc" role="presentation" aria-hidden="true" aria-label="">
    <g>
        <path fill="#ffffff" d="M136.84 62.86c0 34.949-28.331 63.28-63.28 63.28S10.28 97.809 10.28 62.86 38.611-.42 73.56-.42s63.28 28.331 63.28 63.28"></path>
        <path fill="none" stroke="#c70017" stroke-miterlimit="10" stroke-width="3.57" d="M131.18 62.76c0 31.094-25.757 56.3-57.53 56.3s-57.53-25.206-57.53-56.3 25.757-56.3 57.53-56.3 57.53 25.206 57.53 56.3z"></path>
        <path d="M33.95 76.14V56.5h-5.44v-5.65c1.13 0 2.15-.09 3.06-.28s1.73-.52 2.46-1.01c.73-.48 1.36-1.14 1.9-1.98h5.32v28.56z" fill="#c70017"></path>
        <path d="M48.8 76.14V56.5h-5.44v-5.65c1.13 0 2.15-.09 3.06-.28s1.73-.52 2.46-1.01c.73-.48 1.36-1.14 1.9-1.98h5.32v28.56z" fill="#c70017"></path>
        <path d="M71.18 76.47c-2.18 0-4.01-.38-5.5-1.13s-2.7-1.8-3.61-3.15c-.91-1.34-1.57-2.89-1.98-4.64-.4-1.75-.61-3.6-.61-5.57s.21-3.96.65-5.75c.43-1.79 1.12-3.35 2.06-4.7a9.9 9.9 0 0 1 3.67-3.17c1.5-.77 3.32-1.15 5.44-1.15s3.97.38 5.47 1.15c1.49.77 2.7 1.83 3.63 3.19s1.6 2.92 2.02 4.68.62 3.64.62 5.63-.22 3.91-.65 5.67-1.11 3.31-2.04 4.66c-.93 1.34-2.14 2.39-3.65 3.15-1.51.75-3.35 1.13-5.53 1.13Zm0-6.74c1.1 0 1.97-.28 2.6-.85.63-.56 1.09-1.27 1.37-2.12s.46-1.71.54-2.6.12-1.65.12-2.3-.03-1.36-.1-2.24c-.07-.87-.24-1.73-.5-2.56-.27-.83-.71-1.53-1.31-2.1-.6-.56-1.46-.85-2.56-.85s-1.93.28-2.56.83-1.1 1.24-1.39 2.08c-.3.83-.49 1.69-.58 2.56s-.14 1.63-.14 2.28.03 1.37.1 2.26.24 1.76.5 2.62c.27.86.71 1.57 1.33 2.14.62.56 1.48.85 2.58.85" fill="#c70017"></path>
        <path d="M91.99 62.23c-1.45 0-2.74-.3-3.87-.89a6.6 6.6 0 0 1-2.68-2.56c-.66-1.12-.99-2.44-.99-3.97s.34-2.94 1.01-4.07 1.59-2 2.74-2.6 2.46-.91 3.91-.91 2.7.29 3.81.87 2 1.42 2.64 2.52.97 2.45.97 4.03-.33 2.95-.99 4.09-1.56 2.01-2.7 2.6-2.43.89-3.85.89m-3.47 13.91 19.28-28.56h7.3L95.98 76.14zm3.47-19.11c.54 0 .98-.11 1.33-.32s.61-.5.77-.85.24-.71.24-1.09-.09-.74-.26-1.09-.43-.64-.77-.87-.77-.34-1.31-.34c-.83 0-1.45.25-1.84.75s-.57 1.04-.54 1.63c.03.54.23 1.04.61 1.49.38.46.97.69 1.78.69Zm19.72 19.44c-1.43 0-2.71-.3-3.85-.89a6.77 6.77 0 0 1-2.72-2.56c-.67-1.12-1.01-2.45-1.01-4.01s.34-2.9 1.03-4.03 1.61-2 2.76-2.6 2.46-.91 3.91-.91 2.7.29 3.81.87q1.68.87 2.64 2.52c.64 1.1.97 2.45.97 4.03s-.34 2.98-1.01 4.11-1.58 1.99-2.72 2.58-2.41.89-3.81.89m0-5.16c.54 0 .98-.11 1.33-.32s.61-.5.77-.85.24-.71.24-1.09-.09-.74-.26-1.09-.43-.64-.77-.87-.77-.34-1.31-.34c-.83 0-1.45.25-1.84.75s-.57 1.04-.54 1.63c.03.54.23 1.04.61 1.49.38.46.97.69 1.78.69Z" fill="#c70017"></path>
        <path d="M36.9 91.07c-.61 0-1.15-.12-1.61-.37s-.81-.6-1.07-1.07c-.25-.46-.38-1.01-.38-1.65s.13-1.21.38-1.68c.26-.47.61-.83 1.07-1.08s.99-.38 1.58-.38 1.14.13 1.59.39.8.62 1.05 1.09.38 1.02.38 1.67-.12 1.18-.37 1.65c-.25.46-.6.82-1.04 1.06-.45.25-.98.37-1.6.37Zm-.02-1.47c.35 0 .63-.08.85-.23.21-.15.37-.35.46-.6.1-.25.14-.51.14-.79s-.05-.54-.14-.79c-.1-.25-.25-.46-.46-.62s-.5-.25-.85-.25-.62.08-.84.25c-.21.17-.37.37-.46.62-.1.25-.14.52-.14.79s.05.55.14.79c.09.25.25.44.46.6.21.15.49.23.84.23" fill="#c70017"></path>
        <path d="M43.46 91.07c-.89 0-1.57-.23-2.05-.68-.48-.46-.72-1.14-.72-2.06v-3.38h1.61v3.27c0 .27.04.52.12.73s.21.38.38.5.4.18.67.18c.3 0 .53-.06.69-.2.16-.13.27-.3.33-.52q.09-.33.09-.69v-3.27h1.59v3.38c0 .96-.24 1.65-.72 2.09s-1.14.65-2 .65Z" fill="#c70017"></path>
        <path d="M52.57 91.07q-.42 0-.87-.09a2.7 2.7 0 0 1-.83-.32c-.25-.15-.47-.35-.64-.61-.18-.26-.29-.58-.34-.96h1.63c.05.14.13.26.25.36s.26.17.41.22c.16.05.32.07.48.07.11 0 .21 0 .32-.02.11-.01.21-.05.3-.09s.16-.1.22-.18c.05-.07.08-.17.08-.28a.4.4 0 0 0-.11-.29 1 1 0 0 0-.32-.17 8 8 0 0 0-.47-.12c-.31-.07-.65-.14-1.01-.23-.36-.08-.67-.21-.93-.37-.11-.08-.2-.16-.29-.25s-.15-.2-.21-.31c-.05-.11-.1-.24-.13-.36s-.05-.26-.05-.41q0-.495.21-.84t.57-.57c.24-.14.5-.25.79-.31.29-.07.59-.1.89-.1.41 0 .8.07 1.15.2s.64.34.87.62q.345.42.42 1.08h-1.54c-.03-.17-.13-.3-.31-.41-.18-.1-.39-.15-.65-.15-.09 0-.19 0-.29.02s-.2.04-.28.08-.15.09-.21.16c-.05.07-.08.15-.08.26 0 .08.02.16.07.23s.12.13.22.17.21.09.35.13c.26.06.52.12.79.17s.5.1.71.15c.25.05.48.14.69.26s.38.29.52.5c.13.21.2.48.2.82 0 .38-.08.7-.23.95s-.36.45-.61.59c-.26.15-.54.25-.84.31s-.6.09-.9.09" fill="#c70017"></path>
        <path d="M58.63 91.07c-.63 0-1.17-.13-1.62-.38-.44-.25-.78-.61-1.02-1.07q-.36-.69-.36-1.62c0-.93.12-1.17.37-1.65.24-.47.59-.84 1.04-1.11s.98-.4 1.59-.4c.46 0 .86.08 1.21.23s.64.37.88.64c.24.28.42.59.54.96.12.36.17.75.17 1.18 0 .11 0 .21-.01.31s-.02.2-.05.3h-4.14c.02.23.09.44.19.63q.165.285.45.45c.2.11.44.17.73.17.19 0 .37-.02.53-.06s.3-.11.41-.2.2-.2.24-.32h1.58c-.1.45-.28.82-.56 1.11-.27.29-.6.5-.98.64-.38.13-.78.2-1.21.2Zm-1.37-3.74h2.63c0-.21-.06-.4-.15-.58s-.24-.33-.42-.44c-.19-.11-.43-.17-.72-.17s-.53.06-.73.17c-.19.11-.34.26-.44.44s-.15.37-.17.57Z" fill="#c70017"></path>
        <path d="M64.97 91.07c-.89 0-1.57-.23-2.05-.68-.48-.46-.72-1.14-.72-2.06v-3.38h1.61v3.27c0 .27.04.52.12.73s.21.38.38.5.4.18.67.18c.3 0 .53-.06.69-.2.16-.13.27-.3.33-.52q.09-.33.09-.69v-3.27h1.59v3.38c0 .96-.24 1.65-.72 2.09s-1.14.65-2 .65Z" fill="#c70017"></path>
        <path d="M74.2 91.07c-.61 0-1.12-.14-1.52-.42s-.7-.65-.9-1.12-.3-.99-.3-1.57c0-.6.11-1.14.32-1.61s.53-.84.95-1.11.94-.4 1.57-.4c.21 0 .43.02.64.07s.4.12.58.22.33.22.47.37v-2.64h1.61v8.12h-1.56l-.02-.68c-.14.18-.31.32-.5.43-.2.11-.4.19-.62.25-.22.05-.46.08-.71.08Zm.32-1.44q.51 0 .84-.24c.22-.16.38-.37.49-.62s.16-.52.16-.81-.05-.57-.15-.82q-.15-.375-.48-.6c-.33-.225-.5-.22-.85-.22s-.63.08-.85.24c-.21.16-.37.37-.45.62-.09.26-.13.53-.13.82 0 .21.03.42.08.61s.13.37.25.52.26.27.45.36.41.13.67.13Z" fill="#c70017"></path>
        <path d="M79.46 84.34q-.45 0-.72-.27c-.27-.27-.28-.41-.28-.69 0-.3.1-.54.29-.72q.285-.27.72-.27.405 0 .69.27c.285.27.29.42.29.72s-.09.53-.28.71-.43.27-.72.27Zm-.81 6.65v-6.04h1.61v6.04z" fill="#c70017"></path>
        <path d="M81.3 90.99v-6.04h1.5l.08.7c.17-.21.36-.37.58-.49s.44-.2.67-.25c.22-.05.43-.07.61-.07.58 0 1.03.13 1.36.38.32.25.56.59.7 1.02.14.42.21.9.21 1.42V91H85.4v-3.13c0-.18-.01-.37-.04-.55s-.09-.35-.17-.5-.19-.28-.34-.37-.34-.14-.57-.14c-.31 0-.56.08-.77.23s-.36.36-.46.62-.15.55-.15.86V91h-1.61Z" fill="#c70017"></path>
        <path d="M88.01 90.99v-8.12h1.61v2.78c.18-.21.37-.37.59-.48.22-.12.44-.2.66-.25.23-.05.43-.07.62-.07.57 0 1.01.13 1.33.38q.48.375.69 1.02t.21 1.41V91h-1.61v-3.11c0-.18-.02-.37-.05-.55s-.09-.35-.18-.51c-.08-.16-.2-.28-.36-.38s-.36-.14-.61-.14c-.24 0-.44.05-.61.15s-.3.23-.41.4c-.1.17-.18.35-.22.54-.05.2-.07.4-.07.6v3h-1.61Z" fill="#c70017"></path>
        <path d="M97.48 91.07c-.63 0-1.17-.13-1.62-.38-.44-.25-.78-.61-1.02-1.07q-.36-.69-.36-1.62c0-.93.12-1.17.37-1.65.24-.47.59-.84 1.04-1.11s.98-.4 1.59-.4c.46 0 .86.08 1.21.23s.64.37.88.64c.24.28.42.59.54.96.12.36.17.75.17 1.18 0 .11 0 .21-.01.31s-.02.2-.05.3h-4.14c.02.23.09.44.19.63q.165.285.45.45c.2.11.44.17.73.17.19 0 .37-.02.53-.06s.3-.11.41-.2.2-.2.24-.32h1.58c-.1.45-.28.82-.55 1.11s-.6.5-.98.64c-.38.13-.79.2-1.21.2Zm-1.36-3.74h2.63c0-.21-.06-.4-.15-.58s-.24-.33-.43-.44-.43-.17-.72-.17-.53.06-.73.17c-.19.11-.34.26-.44.44s-.15.37-.17.57Z" fill="#c70017"></path>
        <path d="M101.89 84.34q-.45 0-.72-.27c-.27-.27-.28-.41-.28-.69 0-.3.1-.54.29-.72q.285-.27.72-.27.405 0 .69.27c.285.27.29.42.29.72s-.09.53-.28.71-.43.27-.72.27Zm-.8 6.65v-6.04h1.61v6.04z" fill="#c70017"></path>
        <path d="M103.73 90.99v-6.04h1.45l.1.72c.15-.23.32-.4.52-.52s.39-.2.6-.24q.315-.06.63-.06h.45v1.55h-.38c-.36 0-.67.06-.94.18s-.47.31-.61.57-.21.59-.21 1v2.83h-1.61Z" fill="#c70017"></path>
        <path d="M110.83 91.07c-.61 0-1.15-.12-1.61-.37s-.81-.6-1.07-1.07c-.25-.46-.38-1.01-.38-1.65s.13-1.21.38-1.68c.26-.47.62-.83 1.07-1.08.46-.25.99-.38 1.58-.38s1.14.13 1.59.39.8.62 1.05 1.09.38 1.02.38 1.67-.12 1.18-.37 1.65c-.25.46-.6.82-1.04 1.06-.45.25-.98.37-1.6.37Zm-.02-1.47c.35 0 .63-.08.85-.23.21-.15.37-.35.46-.6.1-.25.14-.51.14-.79s-.05-.54-.14-.79c-.1-.25-.25-.46-.46-.62s-.5-.25-.86-.25-.62.08-.84.25c-.21.17-.37.37-.46.62-.1.25-.14.52-.14.79s.05.55.14.79c.09.25.25.44.46.6.21.15.49.23.84.23Z" fill="#c70017"></path>
        <path d="M55.85 102.66c-.61 0-1.12-.14-1.52-.42s-.7-.65-.9-1.12-.3-.99-.3-1.57c0-.6.11-1.14.32-1.61s.53-.84.95-1.11.94-.4 1.57-.4c.21 0 .43.02.64.07s.4.12.58.22.33.22.46.37v-2.64h1.61v8.12H57.7l-.02-.68c-.14.18-.3.32-.5.43s-.4.19-.62.25c-.22.05-.46.08-.71.08Zm.32-1.45q.51 0 .84-.24c.22-.16.38-.37.49-.62s.16-.52.16-.81-.05-.57-.15-.82q-.15-.375-.48-.6c-.33-.225-.5-.22-.85-.22s-.63.08-.85.24c-.21.16-.37.37-.45.62-.09.26-.13.53-.13.82 0 .21.03.42.08.61s.13.37.25.52.26.27.45.36.41.13.67.13Z" fill="#c70017"></path>
        <path d="M63.06 102.66c-.63 0-1.17-.13-1.62-.38-.44-.25-.78-.61-1.02-1.07q-.36-.69-.36-1.62c0-.93.12-1.17.37-1.65.24-.47.59-.84 1.04-1.11s.98-.4 1.59-.4c.46 0 .86.08 1.21.23s.64.37.88.64c.24.28.42.59.54.96.12.36.17.75.17 1.18 0 .11 0 .21-.01.31s-.02.2-.05.3h-4.14c.02.23.09.44.19.63q.165.285.45.45c.2.11.44.17.73.17.19 0 .37-.02.53-.06s.3-.11.41-.2.2-.2.24-.32h1.58c-.1.45-.28.82-.56 1.11-.27.29-.6.5-.98.64-.38.13-.78.2-1.21.2Zm-1.37-3.74h2.63c0-.21-.06-.4-.15-.58s-.24-.33-.42-.44c-.19-.11-.43-.17-.72-.17s-.53.06-.73.17c-.19.11-.34.26-.44.44s-.15.37-.17.57Z" fill="#c70017"></path>
        <path d="m71.16 102.58-2.12-6.04h1.75l1.45 4.74 1.43-4.74h1.77l-2.12 6.04z" fill="#c70017"></path>
        <path d="M78.66 102.66c-.61 0-1.15-.12-1.61-.37s-.81-.6-1.07-1.07c-.25-.46-.38-1.01-.38-1.65s.13-1.21.38-1.68c.26-.47.61-.83 1.07-1.08s.99-.38 1.58-.38 1.14.13 1.59.39.8.62 1.05 1.09.38 1.02.38 1.67-.12 1.18-.37 1.65c-.25.46-.6.82-1.04 1.06-.45.25-.98.37-1.6.37Zm-.03-1.47c.35 0 .63-.08.85-.23.21-.15.37-.35.46-.6.1-.25.14-.51.14-.79s-.05-.54-.14-.79c-.1-.25-.25-.46-.46-.62s-.5-.25-.86-.25-.62.08-.84.25c-.21.17-.37.37-.46.62-.1.25-.14.52-.14.79s.05.55.14.79c.09.25.25.44.46.6.21.15.49.23.84.23Z" fill="#c70017"></path>
        <path d="M82.48 102.58v-8.12h1.61v8.12z" fill="#c70017"></path>
        <path d="M87.87 102.58c-.5 0-.93-.06-1.27-.18s-.6-.33-.77-.62-.26-.7-.26-1.21v-2.59h-.89v-1.43h.89v-1.62h1.61v1.62h1.32v1.43h-1.32v2.36c0 .25.04.45.14.6.09.14.3.22.62.22h.51v1.43h-.57Z" fill="#c70017"></path>
        <path d="M91.01 102.66c-.28 0-.54-.04-.8-.11s-.48-.18-.68-.34-.36-.34-.47-.57-.17-.5-.17-.8c0-.41.08-.74.25-.99s.39-.44.68-.57c.28-.13.61-.22.98-.26s.75-.07 1.15-.07h.87c0-.22-.04-.42-.12-.59a.9.9 0 0 0-.36-.4c-.16-.1-.37-.14-.62-.14-.16 0-.31.02-.46.06s-.27.1-.37.18-.16.18-.2.3h-1.63c.05-.34.15-.62.32-.87.17-.24.38-.44.63-.59s.53-.26.83-.34c.3-.07.61-.11.94-.11q1.32 0 1.95.75c.63.75.63 1.21.63 2.13v3.26h-1.45l-.02-.78c-.19.27-.41.46-.65.58s-.47.2-.7.23c-.22.03-.4.05-.54.05Zm.37-1.28c.27 0 .51-.05.73-.16s.4-.25.53-.44c.13-.18.2-.39.2-.62v-.15h-1.1c-.16 0-.31 0-.46.02s-.28.04-.4.09-.21.11-.28.2-.1.21-.1.37.04.28.12.38.19.18.33.23.29.07.45.07Z" fill="#c70017"></path>
        <path d="M41.73 39.17q-.42 0-.87-.09a2.7 2.7 0 0 1-.83-.32c-.25-.15-.47-.35-.64-.61-.18-.26-.29-.58-.34-.96h1.63c.05.14.13.26.25.36s.26.17.41.22c.16.05.32.07.48.07.11 0 .21 0 .32-.02q.165-.03.3-.09c.135-.06.16-.1.22-.18s.08-.17.08-.28a.4.4 0 0 0-.11-.29 1 1 0 0 0-.32-.17 8 8 0 0 0-.47-.12c-.31-.07-.65-.15-1.01-.23s-.67-.21-.93-.37c-.11-.08-.2-.16-.29-.25s-.15-.2-.21-.31a1.8 1.8 0 0 1-.18-.77q0-.495.21-.84t.57-.57c.24-.15.5-.25.79-.31s.59-.1.89-.1c.41 0 .8.07 1.15.2s.64.34.87.62q.345.42.42 1.08h-1.54c-.03-.17-.13-.3-.31-.41-.18-.1-.39-.15-.65-.15-.09 0-.19 0-.29.02s-.2.04-.28.08-.15.09-.21.16-.08.15-.08.26c0 .08.02.16.07.23s.12.13.22.17.21.09.35.13c.26.06.52.12.79.17.26.05.5.1.71.15.25.05.48.14.69.26s.38.29.52.5c.13.21.2.48.2.82 0 .38-.08.7-.23.95s-.36.45-.61.59c-.26.15-.54.25-.84.31q-.45.09-.9.09" fill="#c70017"></path>
        <path d="M46.93 39.17c-.28 0-.54-.04-.8-.11s-.48-.19-.68-.34-.36-.34-.47-.57c-.12-.23-.17-.5-.17-.8 0-.41.08-.74.25-.99s.39-.44.68-.57c.28-.13.61-.22.98-.26s.75-.07 1.15-.07h.87c0-.22-.04-.42-.12-.59a.9.9 0 0 0-.36-.4c-.16-.1-.37-.14-.62-.14-.16 0-.32.02-.46.06-.15.04-.27.1-.37.18s-.16.18-.2.3h-1.63c.05-.34.15-.63.32-.87s.38-.44.63-.59.53-.27.83-.34.61-.11.93-.11q1.32 0 1.95.75t.63 2.13v3.26h-1.45l-.02-.78c-.19.27-.41.46-.65.58s-.47.2-.69.23-.4.05-.54.05Zm.37-1.28c.27 0 .51-.05.73-.16s.4-.25.53-.44.2-.39.2-.62v-.15h-1.1c-.16 0-.32 0-.46.02-.15.02-.28.04-.4.09-.12.04-.21.11-.28.2s-.1.21-.1.37.04.28.12.38.19.18.33.23.29.07.45.07Z" fill="#c70017"></path>
        <path d="M54.05 39.09c-.5 0-.93-.06-1.27-.18s-.6-.33-.77-.62-.26-.7-.26-1.21v-2.59h-.89v-1.43h.89v-1.62h1.61v1.62h1.32v1.43h-1.32v2.36c0 .25.05.45.14.6s.3.22.62.22h.5v1.43h-.57Z" fill="#c70017"></path>
        <path d="M56.07 32.43q-.45 0-.72-.27a.94.94 0 0 1-.28-.69c0-.3.1-.54.29-.72q.285-.27.72-.27.405 0 .69.27c.2.18.29.42.29.72s-.09.53-.28.71q-.285.27-.72.27Zm-.8 6.66v-6.04h1.61v6.04z" fill="#c70017"></path>
        <path d="M60.28 39.17q-.42 0-.87-.09a2.7 2.7 0 0 1-.83-.32c-.25-.15-.47-.35-.64-.61-.18-.26-.29-.58-.34-.96h1.63c.05.14.13.26.25.36s.26.17.41.22c.16.05.32.07.48.07.11 0 .21 0 .32-.02q.165-.03.3-.09c.135-.06.16-.1.22-.18s.08-.17.08-.28a.4.4 0 0 0-.11-.29 1 1 0 0 0-.32-.17 8 8 0 0 0-.47-.12c-.31-.07-.65-.15-1.01-.23s-.67-.21-.93-.37c-.11-.08-.2-.16-.29-.25s-.15-.2-.21-.31a1.8 1.8 0 0 1-.18-.77q0-.495.21-.84t.57-.57c.24-.15.5-.25.79-.31s.59-.1.89-.1c.41 0 .8.07 1.15.2s.64.34.87.62q.345.42.42 1.08h-1.54c-.03-.17-.13-.3-.31-.41-.18-.1-.39-.15-.65-.15-.09 0-.19 0-.29.02s-.2.04-.28.08-.15.09-.21.16-.08.15-.08.26c0 .08.02.16.07.23s.12.13.22.17.21.09.35.13c.26.06.52.12.79.17.26.05.5.1.71.15.25.05.48.14.69.26s.38.29.52.5c.13.21.2.48.2.82 0 .38-.08.7-.23.95s-.36.45-.61.59c-.26.15-.54.25-.84.31q-.45.09-.9.09" fill="#c70017"></path>
        <path d="M63.97 39.09v-4.61h-.91v-1.43h.91v-.55c0-.46.07-.84.22-1.13s.38-.51.69-.65.71-.21 1.19-.21h1v1.42h-.79a.95.95 0 0 0-.42.08c-.1.05-.17.14-.21.25s-.06.25-.06.41v.38h1.48v1.43h-1.48v4.61z" fill="#c70017"></path>
        <path d="M69.55 39.17c-.28 0-.54-.04-.8-.11s-.48-.19-.68-.34-.36-.34-.47-.57c-.12-.23-.17-.5-.17-.8 0-.41.08-.74.25-.99s.39-.44.68-.57c.28-.13.61-.22.98-.26s.75-.07 1.15-.07h.87c0-.22-.04-.42-.12-.59a.9.9 0 0 0-.36-.4c-.16-.1-.37-.14-.62-.14-.16 0-.32.02-.46.06-.15.04-.27.1-.37.18s-.16.18-.2.3H67.6c.05-.34.15-.63.32-.87s.38-.44.63-.59.53-.27.83-.34.61-.11.93-.11q1.32 0 1.95.75t.63 2.13v3.26h-1.45l-.02-.78c-.19.27-.41.46-.65.58s-.47.2-.69.23-.4.05-.54.05Zm.37-1.28c.27 0 .51-.05.73-.16s.4-.25.53-.44.2-.39.2-.62v-.15h-1.1c-.16 0-.32 0-.46.02-.15.02-.28.04-.4.09-.12.04-.21.11-.28.2s-.1.21-.1.37.04.28.12.38.19.18.33.23.29.07.45.07Z" fill="#c70017"></path>
        <path d="M76.63 39.17c-.62 0-1.15-.13-1.59-.38s-.77-.61-1-1.07-.34-1.01-.34-1.63.12-1.19.36-1.66.58-.84 1.03-1.1q.675-.39 1.62-.39c.49 0 .93.09 1.31.26.38.18.69.43.92.76s.37.73.41 1.22h-1.57c-.07-.27-.2-.46-.39-.58q-.3-.18-.69-.18c-.35 0-.62.08-.82.25s-.35.38-.44.64a2.36 2.36 0 0 0 .01 1.58c.09.25.24.45.44.61s.47.24.8.24c.28 0 .52-.06.72-.19.21-.13.34-.32.4-.59h1.61c-.04.5-.19.91-.45 1.24s-.59.58-.99.74-.84.25-1.32.25Zm-.24 2.98h-.45c-.13 0-.25-.02-.36-.03v-.96c.18.03.35.05.5.05s.29-.02.41-.05a.6.6 0 0 0 .28-.15c.06-.07.1-.17.1-.28 0-.1-.03-.18-.09-.23s-.14-.09-.24-.11-.19-.03-.28-.03c-.11 0-.23 0-.36.02s-.22.05-.29.08l.47-1.73h1.06l-.22.85h.14s.09 0 .14.01c.27.04.48.14.65.31.16.17.25.43.25.79 0 .34-.08.61-.24.83-.16.21-.37.37-.62.48-.25.1-.53.16-.83.18Z" fill="#c70017"></path>
        <path d="M82.05 39.17c-.28 0-.54-.04-.8-.11s-.48-.19-.68-.34-.36-.34-.47-.57c-.12-.23-.17-.5-.17-.8 0-.41.08-.74.25-.99s.39-.44.68-.57c.28-.13.61-.22.98-.26s.76-.07 1.15-.07h.87c0-.22-.04-.42-.12-.59a.9.9 0 0 0-.36-.4c-.16-.1-.37-.14-.62-.14-.16 0-.32.02-.46.06s-.27.1-.37.18-.16.18-.2.3H80.1c.04-.34.15-.63.32-.87s.38-.44.63-.59.53-.27.83-.34.61-.11.93-.11q1.32 0 1.95.75t.63 2.13v3.26h-1.45l-.02-.78c-.19.27-.41.46-.65.58s-.47.2-.69.23-.4.05-.54.05Zm1.72-6.81c-.21 0-.41-.04-.57-.13-.17-.08-.32-.18-.45-.28q-.195-.15-.36-.27c-.11-.08-.21-.13-.3-.13-.11 0-.19.05-.24.14s-.08.19-.09.31 0 .21.01.3h-1.1c-.02-.32 0-.62.08-.91.07-.28.21-.52.42-.7s.5-.28.88-.28c.2 0 .37.04.52.11.15.08.28.16.4.26s.23.19.33.26c.1.08.2.11.31.11s.19-.04.23-.12.07-.18.07-.29v-.28h1.1c.02.3 0 .59-.06.88s-.18.53-.37.71-.46.27-.81.27Zm-1.35 5.53c.27 0 .51-.05.73-.16s.4-.25.53-.44c.13-.18.2-.39.2-.62v-.15h-1.1c-.16 0-.32 0-.46.02s-.28.04-.4.09c-.12.04-.21.11-.28.2s-.1.21-.1.37.04.28.12.38.19.18.33.23.29.07.45.07Z" fill="#c70017"></path>
        <path d="M89.24 39.17c-.61 0-1.15-.12-1.61-.37s-.81-.6-1.07-1.07c-.25-.46-.38-1.01-.38-1.65s.13-1.21.38-1.68c.26-.47.62-.83 1.07-1.08.46-.25.99-.38 1.58-.38s1.14.13 1.59.39.8.62 1.05 1.09.38 1.02.38 1.67-.12 1.18-.37 1.65c-.25.46-.6.82-1.04 1.06s-.98.37-1.6.37Zm-.02-1.47c.35 0 .63-.08.85-.23.21-.15.37-.35.46-.6s.14-.51.14-.79-.05-.54-.14-.79-.25-.46-.46-.62-.5-.25-.86-.25-.62.08-.84.25c-.21.16-.37.37-.46.62-.1.25-.14.52-.14.79s.05.55.14.79.25.44.46.6c.21.15.49.23.84.23Z" fill="#c70017"></path>
        <path d="M98.56 39.17c-.61 0-1.12-.14-1.52-.42s-.7-.65-.9-1.12-.3-.99-.3-1.57c0-.6.11-1.14.32-1.61s.53-.84.95-1.11.95-.4 1.57-.4c.21 0 .43.02.64.07s.4.12.58.22.33.22.46.37v-2.64h1.61v8.12h-1.56l-.02-.68c-.14.18-.3.32-.5.43s-.4.19-.62.25-.46.08-.71.08Zm.32-1.45c.35 0 .62-.08.84-.24s.38-.37.49-.62.16-.52.16-.81-.05-.57-.15-.82-.27-.45-.48-.6c-.22-.15-.5-.22-.86-.22s-.63.08-.85.24c-.21.16-.37.37-.45.62s-.13.53-.13.82c0 .21.03.42.08.61s.13.37.25.52.26.27.45.36.4.13.66.13Z" fill="#c70017"></path>
        <path d="M105.77 39.17c-.63 0-1.17-.13-1.62-.38-.44-.25-.78-.61-1.02-1.07q-.36-.69-.36-1.62c0-.93.12-1.18.37-1.65.24-.47.59-.84 1.04-1.11s.98-.4 1.59-.4c.46 0 .86.08 1.21.23s.64.37.88.64.42.59.54.96c.12.36.17.76.17 1.18 0 .11 0 .21-.01.31 0 .1-.02.2-.04.3h-4.14c.02.23.09.44.2.63s.26.34.45.45.44.17.73.17c.19 0 .37-.02.53-.06s.3-.11.41-.2.2-.2.24-.32h1.58c-.1.45-.29.82-.56 1.11s-.6.5-.98.64c-.38.13-.78.2-1.21.2Zm-1.36-3.74h2.62c0-.21-.06-.4-.15-.58s-.24-.33-.42-.44-.43-.17-.72-.17-.53.06-.73.17-.34.26-.44.44-.15.37-.17.57Z" fill="#c70017"></path>
    </g>
</svg>