<svg preserveAspectRatio="xMidYMid meet" data-bbox="-7.03 -3.156 171.61 130.866" viewBox="-7.03 -3.156 171.61 130.866" xmlns="http://www.w3.org/2000/svg" data-type="color" role="presentation" aria-hidden="true" aria-label="">
    <g>
        <path d="m27.13 67.48 3.12-7.79h2.02l3.09 7.79h-2.14l-.38-1.1h-3.18l-.4 1.1zm3.16-2.89h1.93l-.95-2.67z" fill="#ffffff" data-color="1"></path>
        <path d="M35.83 67.48v-5.8h1.72l.18.62a1.63 1.63 0 0 1 1.1-.68 2.37 2.37 0 0 1 1.3.12c.27.11.5.31.69.62.17-.22.35-.39.54-.5s.39-.19.58-.23.38-.06.56-.06c.47 0 .85.1 1.13.29.29.19.5.46.63.8s.2.75.2 1.22v3.6h-1.95v-3.23c0-.09 0-.18-.02-.29-.01-.1-.04-.2-.08-.29s-.11-.17-.19-.23a.55.55 0 0 0-.34-.09c-.15 0-.28.03-.37.09-.1.06-.17.14-.23.23-.06.1-.09.2-.12.32-.02.12-.03.24-.03.37v3.12h-1.95v-3.25c0-.08 0-.17-.02-.27-.01-.1-.04-.2-.09-.29a.6.6 0 0 0-.2-.24.7.7 0 0 0-.38-.09c-.23 0-.39.06-.5.19-.1.12-.17.27-.19.44s-.03.31-.03.44v3.07h-1.95Z" fill="#ffffff" data-color="1"></path>
        <path d="M49.12 67.57c-.14 0-.31 0-.51-.03-.2-.02-.41-.08-.62-.18-.22-.1-.43-.26-.63-.49v.6h-1.91v-7.79h1.95v2.56c.24-.24.52-.42.82-.53s.62-.17.96-.17q.84 0 1.38.39c.36.26.63.62.81 1.07s.27.97.27 1.56-.09 1.09-.27 1.55c-.18.45-.46.8-.83 1.06s-.84.38-1.42.38Zm-.54-1.74c.31 0 .54-.07.71-.21s.28-.31.34-.52.09-.4.09-.59-.04-.38-.11-.56-.19-.33-.36-.44-.39-.17-.67-.17c-.26 0-.49.06-.67.17s-.31.26-.4.45-.13.39-.13.62c0 .21.04.42.13.61.08.19.21.35.39.47s.4.18.67.18Z" fill="#ffffff" data-color="1"></path>
        <path d="M53.43 61.29c-.35 0-.64-.1-.85-.31-.22-.21-.32-.48-.32-.82s.11-.63.34-.85.51-.33.85-.33.6.1.83.31.34.49.34.85-.11.62-.32.83c-.22.21-.5.31-.85.31Zm-.98 6.19v-5.8h1.95v5.8z" fill="#ffffff" data-color="1"></path>
        <path d="M58.18 67.57q-.885 0-1.56-.36a2.53 2.53 0 0 1-1.03-1.02c-.25-.44-.37-.96-.37-1.57s.12-1.14.37-1.6.6-.82 1.04-1.07c.45-.26.97-.38 1.56-.38.42 0 .81.07 1.14.2q.51.195.87.57c.36.375.43.55.56.9s.19.75.19 1.19c0 .12 0 .24-.02.36q-.015.165-.06.36h-3.74c.01.14.06.27.14.4.08.12.19.22.32.3.14.07.32.11.53.11.18 0 .33-.02.46-.06s.23-.09.31-.16.13-.13.15-.2h1.9q-.15.72-.57 1.17c-.28.3-.61.53-.99.67s-.79.21-1.23.21Zm-1-3.7h1.96c0-.11-.03-.23-.09-.35s-.17-.22-.31-.3-.33-.12-.57-.12-.41.04-.56.12-.25.18-.32.3-.1.24-.1.35Z" fill="#ffffff" data-color="1"></path>
        <path d="M61.78 67.48v-5.8h1.79l.11.53c.18-.19.38-.33.59-.42s.41-.15.61-.18.37-.04.51-.04c.54 0 .97.12 1.28.37s.53.58.67.99c.13.41.2.86.2 1.35v3.2h-1.95v-3.04a1.6 1.6 0 0 0-.17-.73.75.75 0 0 0-.26-.27c-.11-.07-.25-.1-.43-.1q-.345 0-.57.15c-.225.15-.26.24-.33.41s-.1.36-.1.58v2.99h-1.95Z" fill="#ffffff" data-color="1"></path>
        <path d="M71.34 67.48c-.51 0-.95-.06-1.31-.17s-.64-.31-.84-.59c-.19-.28-.29-.69-.29-1.23v-2.08h-.8v-1.74h.8v-1.44h1.95v1.44h1.07v1.74h-1.07v1.78c0 .14.02.26.07.37s.19.16.41.16h.52v1.75h-.51Z" fill="#ffffff" data-color="1"></path>
        <path d="M75.28 67.57q-.885 0-1.56-.36a2.53 2.53 0 0 1-1.03-1.02c-.25-.44-.37-.96-.37-1.57s.12-1.14.37-1.6.6-.82 1.04-1.07c.45-.26.97-.38 1.56-.38.42 0 .81.07 1.14.2q.51.195.87.57c.36.375.43.55.55.9s.19.75.19 1.19c0 .12 0 .24-.02.36 0 .11-.03.23-.06.36h-3.74c.01.14.06.27.14.4.08.12.19.22.32.3.14.07.32.11.53.11.18 0 .33-.02.46-.06s.23-.09.31-.16.13-.13.15-.2h1.9q-.15.72-.57 1.17c-.28.3-.61.53-.99.67s-.79.21-1.23.21Zm-1-3.7h1.96c0-.11-.03-.23-.09-.35s-.17-.22-.31-.3-.33-.12-.57-.12-.41.04-.56.12-.25.18-.32.3-.1.24-.1.35Z" fill="#ffffff" data-color="1"></path>
        <path d="M81.25 67.57c-.29 0-.58-.03-.87-.1s-.57-.18-.82-.33-.47-.36-.64-.63c-.18-.27-.29-.6-.35-1.01h1.97c.03.1.08.18.16.25s.17.13.29.17c.11.04.24.06.37.06.09 0 .17 0 .24-.02.07-.01.13-.04.18-.07q.075-.045.12-.12c.045-.075.04-.09.04-.14 0-.1-.04-.18-.12-.23s-.19-.08-.33-.11-.3-.06-.47-.09c-.27-.06-.56-.13-.87-.23-.31-.09-.57-.21-.79-.35a1.35 1.35 0 0 1-.47-.55 2 2 0 0 1-.11-.34c-.02-.12-.03-.24-.03-.37 0-.34.08-.62.23-.85s.34-.42.58-.56.5-.24.79-.3.57-.09.85-.09c.41 0 .79.07 1.15.2s.65.35.89.64q.36.435.45 1.17h-1.88a.44.44 0 0 0-.21-.31.96.96 0 0 0-.47-.11c-.07 0-.14 0-.2.02a.5.5 0 0 0-.28.15c-.03.04-.04.08-.04.12 0 .03 0 .06.03.1.02.04.05.07.11.1q.075.045.21.09.36.09.69.15c.21.04.43.09.65.13.24.04.48.12.71.23s.43.27.59.48.24.51.24.89-.08.69-.23.94-.36.45-.61.6-.53.25-.83.32-.6.1-.89.1Z" fill="#ffffff" data-color="1"></path>
        <path d="M88.71 61.29c-.35 0-.64-.1-.85-.31-.22-.21-.32-.48-.32-.82s.11-.63.34-.85.51-.33.85-.33.6.1.82.31c.23.21.34.49.34.85s-.11.62-.32.83c-.22.21-.5.31-.85.31Zm-.98 6.19v-5.8h1.95v5.8z" fill="#ffffff" data-color="1"></path>
        <path d="M90.72 67.48v-5.8h1.79l.11.53c.18-.19.38-.33.59-.42s.41-.15.61-.18.37-.04.51-.04c.54 0 .97.12 1.28.37s.54.58.67.99.2.86.2 1.35v3.2h-1.95v-3.04a1.6 1.6 0 0 0-.17-.73.75.75 0 0 0-.26-.27c-.11-.07-.25-.1-.43-.1q-.345 0-.57.15c-.225.15-.26.24-.33.41s-.1.36-.1.58v2.99h-1.95Z" fill="#ffffff" data-color="1"></path>
        <path d="M100.28 67.48c-.51 0-.95-.06-1.31-.17s-.64-.31-.84-.59-.29-.69-.29-1.23v-2.08h-.8v-1.74h.8v-1.44h1.95v1.44h1.07v1.74h-1.07v1.78c0 .14.02.26.07.37s.19.16.41.16h.52v1.75h-.51Z" fill="#ffffff" data-color="1"></path>
        <path d="M104.22 67.57q-.885 0-1.56-.36c-.44-.24-.79-.58-1.03-1.02s-.37-.96-.37-1.57.12-1.14.38-1.6c.25-.46.6-.82 1.04-1.07.45-.26.97-.38 1.56-.38.42 0 .81.07 1.14.2q.51.195.87.57c.36.375.43.55.56.9s.19.75.19 1.19c0 .12 0 .24-.02.36q-.015.165-.06.36h-3.74c.01.14.06.27.14.4.08.12.19.22.32.3.14.07.32.11.53.11.18 0 .33-.02.46-.06s.23-.09.31-.16.13-.13.15-.2h1.9q-.15.72-.57 1.17c-.28.3-.61.53-.99.67s-.79.21-1.23.21Zm-1-3.7h1.96c0-.11-.03-.23-.09-.35s-.16-.22-.31-.3-.33-.12-.57-.12-.41.04-.56.12-.25.18-.32.3-.1.24-.1.35Z" fill="#ffffff" data-color="1"></path>
        <path d="M107.81 67.48v-5.8h1.71l.13.55c.15-.21.31-.37.48-.46s.35-.15.53-.18q.27-.03.48-.03h.34c.1 0 .17 0 .2.02v1.88h-.37c-.27 0-.53.04-.76.1-.24.07-.43.2-.57.4-.14.19-.21.49-.21.87v2.64h-1.95Z" fill="#ffffff" data-color="1"></path>
        <path d="M112.28 67.48v-5.8h1.79l.11.53c.18-.19.38-.33.59-.42s.41-.15.61-.18.37-.04.51-.04c.54 0 .97.12 1.28.37s.53.58.67.99c.13.41.2.86.2 1.35v3.2h-1.95v-3.04a1.6 1.6 0 0 0-.17-.73.75.75 0 0 0-.26-.27c-.11-.07-.25-.1-.43-.1q-.345 0-.57.15c-.225.15-.26.24-.33.41a1.5 1.5 0 0 0-.11.58v2.99h-1.95Z" fill="#ffffff" data-color="1"></path>
        <path d="M121.86 67.57c-.57 0-1.09-.11-1.54-.34-.46-.23-.82-.56-1.1-1.01-.27-.44-.41-.98-.41-1.62s.14-1.2.41-1.66c.28-.45.64-.79 1.09-1.03.46-.23.96-.35 1.51-.35s1.07.12 1.52.36q.675.36 1.08 1.05c.27.45.4 1.01.4 1.66s-.13 1.17-.39 1.61-.61.77-1.05 1-.96.34-1.53.34Zm-.03-1.81q.42 0 .66-.18c.16-.12.28-.27.34-.45.07-.18.1-.36.1-.53s-.03-.36-.1-.55c-.06-.19-.18-.35-.33-.48-.16-.13-.38-.2-.67-.2s-.5.07-.67.2c-.16.13-.28.29-.35.48s-.1.37-.1.56.04.36.11.54.18.33.35.44c.16.11.38.17.66.17" fill="#ffffff" data-color="1"></path>
        <path d="M128.02 67.57c-.29 0-.58-.03-.87-.1s-.57-.18-.82-.33-.47-.36-.64-.63c-.18-.27-.29-.6-.35-1.01h1.97c.03.1.08.18.16.25s.17.13.29.17c.11.04.24.06.37.06.09 0 .17 0 .24-.02.07-.01.13-.04.18-.07q.075-.045.12-.12c.045-.075.04-.09.04-.14 0-.1-.04-.18-.12-.23s-.19-.08-.33-.11-.3-.06-.47-.09c-.27-.06-.56-.13-.87-.23-.31-.09-.57-.21-.79-.35a1.35 1.35 0 0 1-.47-.55 2 2 0 0 1-.11-.34c-.02-.12-.03-.24-.03-.37 0-.34.08-.62.23-.85s.34-.42.58-.56.5-.24.79-.3.57-.09.85-.09c.41 0 .79.07 1.15.2s.65.35.89.64q.36.435.45 1.17h-1.88a.44.44 0 0 0-.21-.31.96.96 0 0 0-.47-.11c-.07 0-.14 0-.2.02a.5.5 0 0 0-.28.15c-.03.04-.04.08-.04.12 0 .03 0 .06.03.1.02.04.05.07.11.1q.075.045.21.09.36.09.69.15c.21.04.43.09.65.13.24.04.48.12.71.23s.43.27.59.48.24.51.24.89-.08.69-.23.94-.36.45-.61.6-.53.25-.83.32-.6.1-.89.1Z" fill="#ffffff" data-color="1"></path>
        <path d="M-3.2 80.96V74.6h2.35c.67 0 1.23.13 1.69.38s.81.62 1.06 1.1q.36.72.36 1.71c0 .99-.12 1.22-.36 1.69s-.59.84-1.05 1.09-1.03.38-1.7.38h-2.36Zm1.13-1.03h1.2c.47 0 .86-.09 1.15-.27s.5-.44.64-.76.2-.7.2-1.12-.07-.78-.2-1.11c-.13-.32-.34-.58-.63-.77s-.67-.28-1.15-.28h-1.21z" fill="#ffffff" data-color="1"></path>
        <path d="M5.29 81.02c-.49 0-.91-.1-1.26-.31-.34-.2-.61-.49-.78-.85s-.27-.79-.27-1.26.09-.91.28-1.27c.18-.37.45-.66.79-.87s.76-.32 1.25-.32c.36 0 .67.06.95.19.27.13.5.3.68.53.18.22.32.47.41.76.09.28.13.58.13.89 0 .07-.01.14-.02.21 0 .07-.01.14-.03.22H4.09c.02.21.07.4.17.58s.23.31.4.41.38.15.64.15c.15 0 .29-.02.43-.06s.26-.1.36-.18q.165-.12.21-.3h1.1c-.08.34-.22.62-.43.84s-.46.38-.75.48-.6.15-.92.15Zm-1.19-2.9h2.29c0-.2-.04-.38-.13-.54s-.22-.29-.38-.38c-.17-.09-.36-.14-.6-.14q-.375 0-.63.15a1 1 0 0 0-.39.4q-.135.24-.15.51Z" fill="#ffffff" data-color="1"></path>
        <path d="M10.15 81.02c-.23 0-.45-.02-.68-.07q-.345-.075-.63-.24a1.25 1.25 0 0 1-.5-.46c-.13-.19-.22-.43-.26-.72h1.11c.05.13.12.24.23.32s.23.14.37.18.28.06.42.06c.08 0 .17 0 .27-.02.1-.01.19-.04.28-.07.09-.04.16-.09.21-.16s.08-.16.08-.28c0-.11-.03-.19-.09-.26a.7.7 0 0 0-.24-.15c-.1-.04-.22-.07-.37-.09-.26-.05-.53-.11-.83-.18a2.2 2.2 0 0 1-.76-.3.9.9 0 0 1-.23-.19c-.07-.07-.12-.15-.17-.24s-.08-.18-.1-.28q-.03-.15-.03-.33c0-.25.05-.47.16-.64.11-.18.25-.32.42-.43.18-.11.38-.19.61-.25.23-.05.46-.08.7-.08.32 0 .62.05.88.15s.48.26.66.47.28.48.32.8h-1.04q-.045-.225-.27-.36c-.225-.135-.35-.13-.58-.13-.08 0-.17 0-.26.02-.09.01-.17.04-.26.07a.43.43 0 0 0-.28.39c0 .09.02.17.07.23.04.07.11.12.21.17.09.04.2.08.33.11.2.04.42.08.64.13.22.04.41.08.58.13.19.05.37.13.52.23q.24.15.36.39c.09.16.13.36.13.61q0 .435-.18.72c-.18.285-.27.34-.46.45s-.4.19-.64.23c-.23.05-.46.07-.69.07Z" fill="#ffffff" data-color="1"></path>
        <path d="M15.05 81.02c-.49 0-.91-.1-1.26-.31-.34-.2-.61-.49-.78-.85s-.27-.79-.27-1.26.09-.91.28-1.27c.18-.37.45-.66.79-.87s.76-.32 1.25-.32c.36 0 .67.06.95.19.27.13.5.3.68.53.18.22.32.47.41.76.09.28.13.58.13.89 0 .07-.01.14-.02.21 0 .07-.01.14-.03.22h-3.33c.02.21.07.4.17.58s.23.31.4.41.38.15.64.15c.15 0 .29-.02.43-.06s.26-.1.36-.18q.165-.12.21-.3h1.1c-.08.34-.22.62-.43.84s-.46.38-.75.48-.6.15-.92.15Zm-1.18-2.9h2.29c0-.2-.04-.38-.13-.54s-.22-.29-.38-.38c-.17-.09-.36-.14-.6-.14q-.375 0-.63.15a1 1 0 0 0-.39.4q-.135.24-.15.51Z" fill="#ffffff" data-color="1"></path>
        <path d="M18.1 80.96v-4.74h1.03l.06.6c.13-.17.27-.3.44-.4s.35-.17.53-.21c.19-.04.36-.07.52-.07.45 0 .81.1 1.07.3s.45.46.55.79c.11.33.16.7.16 1.11v2.62h-1.1v-2.44c0-.17-.01-.34-.04-.51-.02-.17-.07-.31-.14-.45-.07-.13-.17-.24-.29-.32s-.29-.12-.5-.12q-.39 0-.66.21c-.18.14-.32.32-.41.55s-.13.49-.13.79v2.28h-1.1Z" fill="#ffffff" data-color="1"></path>
        <path d="m24.7 80.96-1.72-4.74h1.22l1.25 3.81 1.24-3.81h1.21l-1.72 4.74z" fill="#ffffff" data-color="1"></path>
        <path d="M30.62 81.02c-.49 0-.9-.1-1.26-.3-.35-.2-.62-.48-.81-.85s-.28-.79-.28-1.29.1-.93.29-1.29.46-.65.81-.85.76-.31 1.25-.31.89.1 1.24.31c.35.2.61.49.8.86s.28.8.28 1.3-.09.91-.28 1.27c-.18.36-.45.64-.8.84s-.77.3-1.25.3Zm-.01-1c.3 0 .54-.07.72-.2s.32-.31.4-.52c.08-.22.13-.45.13-.7s-.04-.49-.13-.71a1.2 1.2 0 0 0-.4-.54c-.18-.13-.42-.2-.72-.2s-.54.07-.73.2-.32.31-.41.53-.13.46-.13.72.04.49.13.71.22.39.41.52c.18.13.42.19.72.19Z" fill="#ffffff" data-color="1"></path>
        <path d="M33.82 80.96V74.6h1.1v6.36z" fill="#ffffff" data-color="1"></path>
        <path d="m37.19 80.96-1.72-4.74h1.22l1.25 3.81 1.24-3.81h1.21l-1.72 4.74z" fill="#ffffff" data-color="1"></path>
        <path d="M41.48 75.67c-.21 0-.38-.06-.5-.19s-.19-.29-.19-.5.07-.36.2-.49.3-.19.5-.19.36.06.5.19.21.29.21.5-.07.37-.2.5-.3.19-.5.19Zm-.55 5.29v-4.74h1.1v4.74z" fill="#ffffff" data-color="1"></path>
        <path d="M45.02 81.02c-.48 0-.88-.11-1.19-.33s-.54-.51-.7-.88c-.15-.37-.23-.77-.23-1.22s.08-.89.24-1.26.41-.66.73-.87.73-.32 1.21-.32a2.2 2.2 0 0 1 1.02.24c.15.08.28.19.38.32v-2.11h1.1v6.36h-1.06l-.02-.59c-.11.15-.25.27-.4.37s-.32.17-.51.22-.38.07-.58.07Zm.21-.99c.29 0 .53-.07.71-.2q.285-.21.42-.54a1.9 1.9 0 0 0 0-1.43c-.09-.22-.23-.39-.42-.52s-.42-.2-.71-.2q-.465 0-.72.21-.27.21-.39.54c-.12.33-.12.47-.12.72 0 .19.02.37.07.54.04.17.12.32.21.45s.22.24.38.31.35.11.58.11Z" fill="#ffffff" data-color="1"></path>
        <path d="M50.82 81.02c-.49 0-.9-.1-1.26-.3-.35-.2-.62-.48-.81-.85s-.28-.79-.28-1.29.1-.93.29-1.29.46-.65.81-.85.76-.31 1.25-.31.89.1 1.24.31c.35.2.61.49.8.86s.28.8.28 1.3-.09.91-.28 1.27c-.18.36-.45.64-.8.84s-.77.3-1.25.3Zm-.01-1c.3 0 .54-.07.72-.2s.32-.31.4-.52c.08-.22.13-.45.13-.7s-.04-.49-.13-.71a1.2 1.2 0 0 0-.4-.54c-.18-.13-.42-.2-.72-.2s-.54.07-.73.2-.32.31-.41.53-.13.46-.13.72.04.49.13.71.22.39.41.52c.18.13.42.19.72.19Z" fill="#ffffff" data-color="1"></path>
        <path d="M58.65 81.02c-.49 0-.91-.1-1.26-.31-.34-.2-.61-.49-.78-.85s-.27-.79-.27-1.26.09-.91.28-1.27c.18-.37.45-.66.79-.87s.76-.32 1.25-.32c.36 0 .67.06.95.19.27.13.5.3.68.53.18.22.32.47.41.76.09.28.13.58.13.89 0 .07-.01.14-.02.21 0 .07-.01.14-.03.22h-3.33c.02.21.07.4.17.58s.23.31.4.41.38.15.64.15c.15 0 .29-.02.43-.06s.26-.1.36-.18q.165-.12.21-.3h1.1c-.08.34-.22.62-.43.84s-.46.38-.75.48-.6.15-.92.15Zm-1.19-2.9h2.29c0-.2-.04-.38-.13-.54s-.22-.29-.38-.38c-.17-.09-.36-.14-.6-.14q-.375 0-.63.15a1 1 0 0 0-.39.4q-.135.24-.15.51Z" fill="#ffffff" data-color="1"></path>
        <path d="M63.51 81.02c-.23 0-.45-.02-.68-.07q-.345-.075-.63-.24a1.25 1.25 0 0 1-.5-.46c-.13-.19-.22-.43-.26-.72h1.11c.05.13.12.24.23.32s.23.14.37.18.28.06.42.06c.08 0 .17 0 .27-.02.1-.01.19-.04.28-.07.09-.04.16-.09.21-.16s.08-.16.08-.28c0-.11-.03-.19-.09-.26a.7.7 0 0 0-.24-.15c-.1-.04-.22-.07-.37-.09-.26-.05-.53-.11-.83-.18a2.2 2.2 0 0 1-.76-.3.9.9 0 0 1-.23-.19c-.07-.07-.12-.15-.17-.24s-.08-.18-.1-.28q-.03-.15-.03-.33c0-.25.05-.47.16-.64.11-.18.25-.32.42-.43.18-.11.38-.19.61-.25.23-.05.46-.08.7-.08.32 0 .62.05.88.15s.48.26.66.47.28.48.32.8H64.3q-.045-.225-.27-.36c-.225-.135-.35-.13-.58-.13-.08 0-.17 0-.26.02-.09.01-.17.04-.26.07a.43.43 0 0 0-.28.39c0 .09.02.17.07.23.04.07.11.12.21.17.09.04.2.08.33.11.2.04.42.08.64.13.22.04.41.08.58.13.19.05.37.13.52.23q.24.15.36.39c.09.16.13.36.13.61q0 .435-.18.72c-.18.285-.27.34-.46.45s-.4.19-.64.23c-.23.05-.46.07-.69.07Z" fill="#ffffff" data-color="1"></path>
        <path d="M66.29 82.71v-6.49h1.03l.05.64c.19-.25.41-.43.67-.54s.54-.17.85-.17c.47 0 .86.11 1.16.32.31.22.53.51.68.87.15.37.23.78.23 1.24s-.08.88-.23 1.25c-.16.37-.39.66-.71.87s-.71.32-1.18.32c-.22 0-.42-.02-.61-.07-.18-.05-.35-.12-.49-.21s-.26-.19-.36-.31v2.27h-1.1Zm2.38-2.68c.31 0 .55-.07.72-.2.17-.14.3-.31.38-.53s.12-.45.12-.7-.04-.5-.12-.72q-.12-.33-.39-.54t-.72-.21c-.28 0-.51.07-.7.2s-.33.31-.43.54c-.1.22-.14.46-.14.72s.04.51.13.72.23.39.42.52.44.19.73.19Z" fill="#ffffff" data-color="1"></path>
        <path d="M73.97 81.02c-.49 0-.91-.1-1.26-.31-.34-.2-.61-.49-.78-.85s-.27-.79-.27-1.26.09-.91.28-1.27c.18-.37.45-.66.79-.87s.76-.32 1.25-.32c.36 0 .67.06.95.19.27.13.5.3.68.53.18.22.32.47.41.76.09.28.13.58.13.89 0 .07-.01.14-.02.21 0 .07-.01.14-.03.22h-3.33c.02.21.07.4.17.58s.23.31.4.41.38.15.64.15c.15 0 .29-.02.43-.06s.26-.1.36-.18q.165-.12.21-.3h1.1c-.08.34-.22.62-.43.84s-.46.38-.75.48-.6.15-.92.15Zm-1.19-2.9h2.29c0-.2-.04-.38-.13-.54s-.22-.29-.38-.38c-.17-.09-.36-.14-.6-.14q-.375 0-.63.15a1 1 0 0 0-.39.4q-.135.24-.15.51Z" fill="#ffffff" data-color="1"></path>
        <path d="M79.19 81.02c-.49 0-.91-.1-1.24-.3a1.9 1.9 0 0 1-.76-.85 3 3 0 0 1-.26-1.27c0-.48.09-.91.27-1.27.18-.37.44-.66.79-.87s.77-.32 1.27-.32c.37 0 .69.06.98.19s.52.31.69.55c.18.24.29.54.34.9h-1.08a.86.86 0 0 0-.36-.5c-.17-.11-.36-.16-.59-.16-.31 0-.55.07-.72.22-.18.15-.3.33-.38.55q-.12.33-.12.69c0 .36.04.49.13.71.08.22.21.39.39.53.18.13.41.2.69.2.23 0 .43-.05.62-.15.18-.1.3-.27.36-.5h1.12c-.04.37-.16.67-.37.91-.2.24-.45.42-.76.54q-.465.18-.99.18Z" fill="#ffffff" data-color="1"></path>
        <path d="M82.68 75.67c-.21 0-.38-.06-.5-.19s-.19-.29-.19-.5.07-.36.2-.49.3-.19.5-.19.36.06.5.19.21.29.21.5-.07.37-.2.5-.3.19-.5.19Zm-.55 5.29v-4.74h1.1v4.74z" fill="#ffffff" data-color="1"></path>
        <path d="M85.8 81.02q-.33 0-.63-.09c-.2-.06-.38-.15-.53-.27s-.28-.26-.37-.44a1.35 1.35 0 0 1-.14-.62q0-.465.18-.75c.12-.19.28-.34.49-.45s.44-.17.71-.21c.26-.04.54-.06.83-.06h.93c0-.21-.03-.39-.1-.54a.83.83 0 0 0-.31-.36 1 1 0 0 0-.54-.14c-.14 0-.28.02-.4.05s-.23.08-.32.15-.15.16-.18.27H84.3c.04-.25.13-.46.26-.63.13-.18.29-.32.48-.44.19-.11.4-.2.62-.26.23-.06.46-.08.69-.08.69 0 1.19.2 1.51.59.32.4.47.95.47 1.67v2.56h-.97l-.03-.61c-.14.2-.3.35-.5.45-.19.1-.38.16-.56.18-.18.03-.33.04-.46.04Zm.22-.89c.24 0 .45-.04.64-.13s.33-.22.45-.38c.11-.16.17-.35.17-.56v-.15h-.86c-.14 0-.29 0-.43.01-.14 0-.27.03-.38.07s-.21.1-.27.18-.1.19-.1.33.04.26.11.35.17.16.3.21.25.07.39.07Z" fill="#ffffff" data-color="1"></path>
        <path d="M89.36 80.96V74.6h1.1v6.36z" fill="#ffffff" data-color="1"></path>
        <path d="M91.52 80.96v-4.74h1.01l.07.54c.12-.16.25-.29.39-.37.14-.09.29-.15.44-.18.15-.04.3-.05.44-.05.3 0 .56.06.77.18s.38.3.5.54c.12-.17.25-.3.4-.41.15-.1.31-.18.48-.23s.34-.08.53-.08c.37 0 .66.08.88.23s.38.36.49.63c.1.27.15.57.15.91v3.04h-1.1v-2.69c0-.12 0-.25-.02-.38s-.04-.25-.09-.37a.7.7 0 0 0-.22-.28c-.1-.07-.23-.11-.41-.11s-.32.04-.43.11-.2.17-.27.3c-.07.12-.12.26-.14.4-.03.15-.04.29-.04.44v2.57h-1.1v-2.7c0-.11 0-.23-.02-.36-.01-.13-.04-.25-.09-.37s-.12-.21-.22-.28a.7.7 0 0 0-.41-.11q-.375 0-.57.21c-.13.14-.22.31-.26.5s-.07.39-.07.57v2.55h-1.1Z" fill="#ffffff" data-color="1"></path>
        <path d="M101.21 81.02c-.49 0-.91-.1-1.26-.31-.34-.2-.61-.49-.78-.85s-.27-.79-.27-1.26.09-.91.28-1.27c.18-.37.45-.66.79-.87s.76-.32 1.25-.32c.36 0 .67.06.95.19.27.13.5.3.68.53.18.22.32.47.41.76.09.28.13.58.13.89 0 .07-.01.14-.02.21 0 .07-.01.14-.03.22h-3.33c.02.21.07.4.17.58s.23.31.4.41.38.15.64.15c.15 0 .29-.02.43-.06s.26-.1.36-.18q.165-.12.21-.3h1.1c-.08.34-.22.62-.43.84s-.46.38-.75.48-.6.15-.92.15Zm-1.19-2.9h2.29c0-.2-.04-.38-.13-.54s-.22-.29-.38-.38c-.17-.09-.36-.14-.6-.14q-.375 0-.63.15a1 1 0 0 0-.39.4q-.135.24-.15.51Z" fill="#ffffff" data-color="1"></path>
        <path d="M104.25 80.96v-4.74h1.03l.06.6c.13-.17.27-.3.44-.4s.35-.17.53-.21c.19-.04.36-.07.52-.07.45 0 .81.1 1.07.3s.45.46.55.79c.11.33.16.7.16 1.11v2.62h-1.1v-2.44c0-.17-.01-.34-.04-.51-.02-.17-.07-.31-.14-.45-.07-.13-.17-.24-.29-.32s-.29-.12-.5-.12q-.39 0-.66.21c-.18.14-.32.32-.41.55s-.13.49-.13.79v2.28h-1.1Z" fill="#ffffff" data-color="1"></path>
        <path d="M111.72 80.96c-.38 0-.7-.05-.95-.15s-.43-.27-.56-.5-.18-.53-.18-.92v-2.21h-.73v-.97h.73v-1.32h1.1v1.32h1.11v.97h-1.11v2.06c0 .24.04.42.13.55.08.13.27.19.57.19h.38v.97h-.48Z" fill="#ffffff" data-color="1"></path>
        <path d="M115.09 81.02c-.49 0-.91-.1-1.26-.31-.34-.2-.61-.49-.78-.85s-.27-.79-.27-1.26.09-.91.28-1.27c.18-.37.45-.66.79-.87s.76-.32 1.25-.32c.36 0 .67.06.95.19.27.13.5.3.68.53.18.22.32.47.41.76.09.28.13.58.13.89 0 .07-.01.14-.02.21 0 .07-.01.14-.03.22h-3.33c.02.21.07.4.17.58s.23.31.4.41.38.15.64.15c.15 0 .29-.02.43-.06s.26-.1.36-.18q.165-.12.21-.3h1.1c-.08.34-.22.62-.43.84s-.46.38-.75.48-.6.15-.92.15Zm-1.19-2.9h2.29c0-.2-.04-.38-.13-.54s-.22-.29-.38-.38c-.17-.09-.36-.14-.6-.14q-.375 0-.63.15a1 1 0 0 0-.39.4q-.135.24-.15.51Z" fill="#ffffff" data-color="1"></path>
        <path d="M120.63 82.71v-6.49h1.03l.05.64c.19-.25.41-.43.67-.54s.54-.17.85-.17c.47 0 .86.11 1.16.32.31.22.53.51.68.87.15.37.23.78.23 1.24s-.08.88-.23 1.25c-.16.37-.39.66-.71.87s-.71.32-1.18.32c-.22 0-.42-.02-.61-.07-.18-.05-.35-.12-.49-.21s-.26-.19-.36-.31v2.27h-1.1Zm2.38-2.68c.31 0 .55-.07.72-.2.17-.14.3-.31.38-.53s.12-.45.12-.7-.04-.5-.12-.72q-.12-.33-.39-.54t-.72-.21c-.28 0-.51.07-.7.2s-.33.31-.43.54c-.1.22-.14.46-.14.72s.04.51.13.72.23.39.42.52.44.19.73.19Z" fill="#ffffff" data-color="1"></path>
        <path d="M127.7 81.02q-.33 0-.63-.09c-.2-.06-.38-.15-.53-.27s-.28-.26-.37-.44a1.35 1.35 0 0 1-.14-.62q0-.465.18-.75c.12-.19.28-.34.49-.45s.44-.17.71-.21c.26-.04.54-.06.83-.06h.93c0-.21-.03-.39-.1-.54a.83.83 0 0 0-.31-.36 1 1 0 0 0-.54-.14c-.14 0-.28.02-.4.05s-.23.08-.32.15-.15.16-.18.27h-1.12c.04-.25.13-.46.26-.63.13-.18.29-.32.48-.44.19-.11.4-.2.62-.26.23-.06.46-.08.69-.08.69 0 1.19.2 1.51.59.32.4.47.95.47 1.67v2.56h-.97l-.03-.61c-.14.2-.3.35-.5.45-.19.1-.38.16-.56.18-.18.03-.33.04-.46.04Zm.21-.89c.24 0 .45-.04.64-.13s.33-.22.45-.38c.11-.16.17-.35.17-.56v-.15h-.86c-.14 0-.29 0-.43.01-.14 0-.27.03-.38.07s-.21.1-.27.18-.1.19-.1.33.04.26.11.35.17.16.3.21.25.07.39.07Z" fill="#ffffff" data-color="1"></path>
        <path d="M131.25 80.96v-4.74h1l.06.62c.12-.18.26-.32.41-.42s.32-.17.49-.21q.27-.06.54-.06h.32v1.04h-.29c-.31 0-.58.06-.79.18-.22.12-.38.29-.49.51s-.16.5-.16.82v2.25h-1.1Z" fill="#ffffff" data-color="1"></path>
        <path d="M136.24 81.02q-.33 0-.63-.09c-.2-.06-.38-.15-.53-.27s-.28-.26-.37-.44a1.35 1.35 0 0 1-.14-.62q0-.465.18-.75c.12-.19.28-.34.49-.45s.44-.17.71-.21c.26-.04.54-.06.83-.06h.93c0-.21-.03-.39-.1-.54a.83.83 0 0 0-.31-.36 1 1 0 0 0-.54-.14c-.14 0-.28.02-.4.05s-.23.08-.32.15-.15.16-.18.27h-1.12c.04-.25.13-.46.26-.63.13-.18.29-.32.48-.44.19-.11.4-.2.62-.26.23-.06.46-.08.69-.08.69 0 1.19.2 1.51.59.32.4.47.95.47 1.67v2.56h-.97l-.03-.61c-.14.2-.3.35-.5.45-.19.1-.38.16-.56.18-.18.03-.33.04-.46.04Zm.21-.89c.24 0 .45-.04.64-.13s.33-.22.45-.38c.11-.16.17-.35.17-.56v-.15h-.86c-.14 0-.29 0-.43.01-.14 0-.27.03-.38.07s-.21.1-.27.18-.1.19-.1.33.04.26.11.35.17.16.3.21.25.07.39.07Z" fill="#ffffff" data-color="1"></path>
        <path d="M144.38 81.02c-.49 0-.91-.1-1.24-.3a1.9 1.9 0 0 1-.76-.85 3 3 0 0 1-.26-1.27c0-.48.09-.91.27-1.27.18-.37.44-.66.79-.87s.77-.32 1.27-.32c.37 0 .69.06.98.19s.52.31.69.55c.18.24.29.54.34.9h-1.08a.86.86 0 0 0-.36-.5c-.17-.11-.36-.16-.59-.16-.31 0-.55.07-.72.22-.18.15-.3.33-.38.55q-.12.33-.12.69c0 .36.04.49.13.71.08.22.21.39.39.53.18.13.41.2.69.2.23 0 .43-.05.62-.15.18-.1.3-.27.36-.5h1.12c-.04.37-.16.67-.37.91-.2.24-.45.42-.76.54q-.465.18-.99.18Z" fill="#ffffff" data-color="1"></path>
        <path d="M148.84 81.02q-.33 0-.63-.09c-.2-.06-.38-.15-.53-.27s-.28-.26-.37-.44a1.35 1.35 0 0 1-.14-.62q0-.465.18-.75c.12-.19.28-.34.49-.45s.44-.17.71-.21c.26-.04.54-.06.83-.06h.93c0-.21-.03-.39-.1-.54a.83.83 0 0 0-.31-.36 1 1 0 0 0-.54-.14c-.14 0-.28.02-.4.05s-.23.08-.32.15-.15.16-.18.27h-1.12c.04-.25.13-.46.26-.63.13-.18.29-.32.48-.44.19-.11.4-.2.62-.26.23-.06.46-.08.69-.08.69 0 1.19.2 1.51.59.32.4.47.95.47 1.67v2.56h-.97l-.03-.61c-.14.2-.3.35-.5.45-.19.1-.38.16-.56.18-.18.03-.33.04-.46.04Zm1.24-5.38c-.17 0-.32-.03-.44-.09s-.24-.14-.34-.22-.19-.16-.27-.22-.16-.09-.24-.09-.15.04-.18.11c-.04.07-.06.15-.07.25v.23h-.79c-.01-.23.01-.45.07-.66s.16-.38.32-.52c.15-.13.37-.2.64-.2.16 0 .29.03.4.09s.22.13.31.22.18.15.26.22c.08.06.16.09.23.09.1 0 .16-.03.2-.1s.06-.15.06-.23v-.23h.79c0 .22-.02.44-.07.65s-.15.38-.28.52c-.14.13-.34.2-.6.2Zm-1.03 4.49c.24 0 .45-.04.64-.13s.33-.22.45-.38c.11-.16.17-.35.17-.56v-.15h-.86c-.14 0-.29 0-.43.01-.14 0-.27.03-.38.07s-.21.1-.27.18-.1.19-.1.33.04.26.11.35.17.16.3.21.25.07.39.07Z" fill="#ffffff" data-color="1"></path>
        <path d="M154.52 81.02c-.49 0-.91-.1-1.26-.31-.34-.2-.61-.49-.78-.85s-.27-.79-.27-1.26.09-.91.28-1.27c.18-.37.45-.66.79-.87s.76-.32 1.25-.32c.36 0 .67.06.95.19.27.13.5.3.68.53.18.22.32.47.41.76.09.28.13.58.13.89 0 .07-.01.14-.02.21 0 .07-.01.14-.03.22h-3.33c.02.21.07.4.17.58s.23.31.4.41.38.15.64.15c.15 0 .29-.02.43-.06s.26-.1.36-.18q.165-.12.21-.3h1.1c-.08.34-.22.62-.43.84s-.46.38-.75.48-.6.15-.92.15Zm-1.19-2.9h2.29c0-.2-.04-.38-.13-.54s-.22-.29-.38-.38c-.17-.09-.36-.14-.6-.14q-.375 0-.63.15a1 1 0 0 0-.39.4q-.135.24-.15.51Z" fill="#ffffff" data-color="1"></path>
        <path d="M159.38 81.02c-.23 0-.45-.02-.68-.07q-.345-.075-.63-.24a1.25 1.25 0 0 1-.5-.46c-.13-.19-.22-.43-.26-.72h1.11c.05.13.12.24.23.32s.23.14.37.18.28.06.42.06c.08 0 .17 0 .27-.02.1-.01.19-.04.28-.07.09-.04.16-.09.21-.16s.08-.16.08-.28c0-.11-.03-.19-.09-.26a.7.7 0 0 0-.24-.15c-.1-.04-.22-.07-.37-.09-.26-.05-.53-.11-.83-.18a2.2 2.2 0 0 1-.76-.3.9.9 0 0 1-.23-.19c-.07-.07-.12-.15-.17-.24s-.08-.18-.1-.28q-.03-.15-.03-.33c0-.25.05-.47.16-.64.11-.18.25-.32.42-.43.18-.11.38-.19.61-.25.23-.05.46-.08.7-.08.32 0 .62.05.88.15s.48.26.66.47.28.48.32.8h-1.04q-.045-.225-.27-.36c-.225-.135-.35-.13-.58-.13-.08 0-.17 0-.26.02-.09.01-.17.04-.26.07a.43.43 0 0 0-.28.39c0 .09.02.17.07.23.04.07.11.12.21.17.09.04.2.08.33.11.2.04.42.08.64.13.22.04.41.08.58.13.19.05.37.13.52.23q.24.15.36.39c.09.16.13.36.13.61q0 .435-.18.72c-.18.285-.27.34-.46.45s-.4.19-.64.23c-.23.05-.46.07-.69.07Z" fill="#ffffff" data-color="1"></path>
        <path d="M12.97 91.71v-2.32c-.17.23-.38.4-.65.49-.27.1-.54.14-.81.14-.36 0-.67-.06-.94-.18s-.49-.29-.66-.51-.3-.48-.39-.77-.13-.61-.13-.95c0-.47.08-.9.25-1.27s.41-.66.74-.88.72-.32 1.19-.32c.27 0 .53.05.79.14q.39.135.63.45l.05-.52h1.03v6.49h-1.1Zm-1.25-2.68c.27 0 .5-.06.69-.19s.33-.3.43-.53.14-.46.14-.73-.05-.52-.14-.74-.24-.39-.42-.52c-.19-.13-.42-.19-.7-.19s-.53.07-.71.2-.31.31-.4.53c-.08.22-.13.46-.13.71s.04.51.13.73c.08.22.22.4.4.53.19.13.42.19.71.19Z" fill="#ffffff" data-color="1"></path>
        <path d="M17.23 90.02c-.68 0-1.21-.18-1.57-.53q-.54-.525-.54-1.62v-2.66h1.1v2.58c0 .25.03.47.1.66s.18.33.33.43.35.15.58.15c.25 0 .45-.05.6-.16.15-.1.25-.25.31-.44s.09-.4.09-.64v-2.58h1.1v2.66c0 .74-.18 1.29-.55 1.63-.37.35-.88.52-1.54.52Z" fill="#ffffff" data-color="1"></path>
        <path d="M22.49 90.02c-.49 0-.91-.1-1.26-.31-.34-.2-.61-.49-.78-.85s-.27-.79-.27-1.26.09-.91.28-1.27c.18-.37.45-.66.79-.87s.76-.32 1.25-.32c.36 0 .67.06.95.19.27.13.5.3.68.53.18.22.32.47.41.76.09.28.13.58.13.89 0 .07-.01.14-.02.21 0 .07-.01.14-.03.22h-3.33c.02.21.07.4.17.58s.23.31.4.41.38.15.64.15c.15 0 .29-.02.43-.06s.26-.1.36-.18q.165-.12.21-.3h1.1c-.08.34-.22.62-.43.84s-.46.38-.75.48-.6.15-.92.15Zm-1.19-2.9h2.29c0-.2-.04-.38-.13-.54s-.22-.29-.38-.38c-.17-.09-.36-.14-.6-.14q-.375 0-.63.15a1 1 0 0 0-.39.4q-.135.24-.15.51Z" fill="#ffffff" data-color="1"></path>
        <path d="m29.24 89.96-1.72-4.74h1.22l1.25 3.81 1.24-3.81h1.21l-1.72 4.74z" fill="#ffffff" data-color="1"></path>
        <path d="M33.54 84.67c-.21 0-.38-.06-.5-.19s-.19-.29-.19-.5.07-.36.2-.49.3-.19.5-.19.36.06.5.19.21.29.21.5-.07.37-.2.5-.3.19-.5.19Zm-.55 5.29v-4.74h1.1v4.74z" fill="#ffffff" data-color="1"></path>
        <path d="m36.35 89.96-1.72-4.74h1.22l1.25 3.81 1.24-3.81h1.21l-1.72 4.74z" fill="#ffffff" data-color="1"></path>
        <path d="M42.22 90.02c-.49 0-.91-.1-1.26-.31-.34-.2-.61-.49-.78-.85s-.27-.79-.27-1.26.09-.91.28-1.27c.18-.37.45-.66.79-.87s.76-.32 1.25-.32c.36 0 .67.06.95.19.27.13.5.3.68.53.18.22.32.47.41.76.09.28.13.58.13.89 0 .07-.01.14-.02.21 0 .07-.01.14-.03.22h-3.33c.02.21.07.4.17.58s.23.31.4.41.38.15.64.15c.15 0 .29-.02.43-.06s.26-.1.36-.18q.165-.12.21-.3h1.1c-.08.34-.22.62-.43.84s-.46.38-.75.48-.6.15-.92.15Zm-1.19-2.9h2.29c0-.2-.04-.38-.13-.54s-.22-.29-.38-.38c-.17-.09-.36-.14-.6-.14q-.375 0-.63.15a1 1 0 0 0-.39.4q-.135.24-.15.51Z" fill="#ffffff" data-color="1"></path>
        <path d="M45.26 89.96v-4.74h1.01l.07.54c.12-.16.25-.29.39-.37.14-.09.29-.15.44-.18.15-.04.3-.05.44-.05.3 0 .56.06.77.18s.38.3.5.54c.12-.17.25-.3.4-.41.15-.1.31-.18.48-.23s.34-.08.53-.08c.37 0 .66.08.88.23s.38.36.49.63c.1.27.15.57.15.91v3.04h-1.1v-2.69c0-.12 0-.25-.02-.38s-.04-.25-.09-.37a.7.7 0 0 0-.22-.28c-.1-.07-.23-.11-.41-.11s-.32.04-.43.11-.2.17-.27.3c-.07.12-.12.26-.14.4-.03.15-.04.29-.04.44v2.57h-1.1v-2.7c0-.11 0-.23-.02-.36-.01-.13-.04-.25-.09-.37s-.12-.21-.22-.28a.7.7 0 0 0-.41-.11q-.375 0-.57.21c-.13.14-.22.31-.26.5s-.07.39-.07.57v2.55h-1.1Z" fill="#ffffff" data-color="1"></path>
        <path d="M57.27 90.02c-.48 0-.88-.11-1.19-.33s-.54-.51-.7-.88c-.15-.37-.23-.77-.23-1.22s.08-.89.24-1.26.41-.66.73-.87.73-.32 1.21-.32a2.2 2.2 0 0 1 1.02.24c.15.08.28.19.38.32v-2.11h1.1v6.36h-1.06l-.02-.59c-.11.15-.25.27-.4.37s-.32.17-.51.22-.38.07-.58.07Zm.21-.99c.29 0 .53-.07.71-.2q.285-.21.42-.54a1.9 1.9 0 0 0 0-1.43c-.09-.22-.23-.39-.42-.52s-.42-.2-.71-.2q-.465 0-.72.21-.27.21-.39.54c-.12.33-.12.47-.12.72 0 .19.02.37.07.54.04.17.12.32.21.45s.22.24.38.31.35.11.58.11Z" fill="#ffffff" data-color="1"></path>
        <path d="M63.02 90.02c-.49 0-.91-.1-1.26-.31-.34-.2-.61-.49-.78-.85s-.27-.79-.27-1.26.09-.91.28-1.27c.18-.37.45-.66.79-.87s.76-.32 1.25-.32c.36 0 .67.06.95.19.27.13.5.3.68.53.18.22.32.47.41.76.09.28.13.58.13.89 0 .07-.01.14-.02.21 0 .07-.01.14-.03.22h-3.33c.02.21.07.4.17.58s.23.31.4.41.38.15.64.15c.15 0 .29-.02.43-.06s.26-.1.36-.18q.165-.12.21-.3h1.1c-.08.34-.22.62-.43.84s-.46.38-.75.48-.6.15-.92.15Zm-1.19-2.9h2.29c0-.2-.04-.38-.13-.54s-.22-.29-.38-.38c-.17-.09-.36-.14-.6-.14q-.375 0-.63.15a1 1 0 0 0-.39.4q-.135.24-.15.51Z" fill="#ffffff" data-color="1"></path>
        <path d="M66.06 89.96v-4.74h1.03l.06.6c.13-.17.27-.3.44-.4s.35-.17.53-.21c.19-.04.36-.07.52-.07.45 0 .81.1 1.07.3s.45.46.55.79c.11.33.16.7.16 1.11v2.62h-1.1v-2.44c0-.17-.01-.34-.04-.51-.02-.17-.07-.31-.14-.45-.07-.13-.17-.24-.29-.32s-.29-.12-.5-.12q-.39 0-.66.21c-.18.14-.32.32-.41.55s-.13.49-.13.79v2.28h-1.1Z" fill="#ffffff" data-color="1"></path>
        <path d="M73.53 89.96c-.38 0-.7-.05-.95-.15s-.43-.27-.56-.5-.18-.53-.18-.92v-2.21h-.73v-.97h.73v-1.32h1.1v1.32h1.11v.97h-1.11v2.06c0 .24.04.42.13.55.08.13.27.19.57.19h.38v.97h-.48Z" fill="#ffffff" data-color="1"></path>
        <path d="M74.77 89.96v-4.74h1l.06.62c.12-.18.26-.32.41-.42s.32-.17.49-.21q.27-.06.54-.06h.32v1.04h-.29c-.31 0-.58.06-.79.18-.22.12-.38.29-.49.51s-.16.5-.16.82v2.25h-1.1Z" fill="#ffffff" data-color="1"></path>
        <path d="M80.42 90.02c-.49 0-.9-.1-1.26-.3-.35-.2-.62-.48-.81-.85s-.28-.79-.28-1.29.1-.93.29-1.29.46-.65.81-.85.76-.31 1.25-.31.89.1 1.24.31c.35.2.61.49.8.86s.28.8.28 1.3-.09.91-.28 1.27c-.18.36-.45.64-.8.84s-.77.3-1.25.3Zm-.01-1c.3 0 .54-.07.72-.2s.32-.31.4-.52c.08-.22.13-.45.13-.7s-.04-.49-.13-.71a1.2 1.2 0 0 0-.4-.54c-.18-.13-.42-.2-.72-.2s-.54.07-.73.2-.32.31-.41.53-.13.46-.13.72.04.49.13.71.22.39.41.52c.18.13.42.19.72.19Z" fill="#ffffff" data-color="1"></path>
        <path d="M88.06 90.02c-.48 0-.88-.11-1.19-.33s-.54-.51-.7-.88c-.15-.37-.23-.77-.23-1.22s.08-.89.24-1.26.41-.66.73-.87.73-.32 1.21-.32a2.2 2.2 0 0 1 1.02.24c.15.08.28.19.38.32v-2.11h1.1v6.36h-1.06l-.02-.59c-.11.15-.25.27-.4.37s-.32.17-.51.22-.38.07-.58.07Zm.2-.99c.29 0 .53-.07.71-.2q.285-.21.42-.54a1.9 1.9 0 0 0 0-1.43c-.09-.22-.23-.39-.42-.52s-.42-.2-.71-.2q-.465 0-.72.21-.27.21-.39.54c-.12.33-.12.47-.12.72 0 .19.02.37.07.54.04.17.12.32.21.45s.22.24.38.31.35.11.58.11Z" fill="#ffffff" data-color="1"></path>
        <path d="M93.81 90.02c-.49 0-.91-.1-1.26-.31-.34-.2-.61-.49-.78-.85s-.27-.79-.27-1.26.09-.91.28-1.27c.18-.37.45-.66.79-.87s.76-.32 1.25-.32c.36 0 .67.06.95.19.27.13.5.3.68.53.18.22.32.47.41.76.09.28.13.58.13.89 0 .07-.01.14-.02.21 0 .07-.01.14-.03.22h-3.33c.02.21.07.4.17.58s.23.31.4.41.38.15.64.15c.15 0 .29-.02.43-.06s.26-.1.36-.18q.165-.12.21-.3h1.1c-.08.34-.22.62-.43.84s-.46.38-.75.48-.6.15-.92.15Zm-1.19-2.9h2.29c0-.2-.04-.38-.13-.54s-.22-.29-.38-.38c-.17-.09-.36-.14-.6-.14q-.375 0-.63.15a1 1 0 0 0-.39.4q-.135.24-.15.51Z" fill="#ffffff" data-color="1"></path>
        <path d="M101.44 90.02c-.49 0-.91-.1-1.24-.3a1.9 1.9 0 0 1-.76-.85 3 3 0 0 1-.26-1.27c0-.48.09-.91.27-1.27.18-.37.44-.66.79-.87s.77-.32 1.27-.32c.37 0 .69.06.98.19s.52.31.69.55c.18.24.29.54.34.9h-1.08a.86.86 0 0 0-.36-.5c-.17-.11-.36-.16-.59-.16-.31 0-.55.07-.72.22-.18.15-.3.33-.38.55q-.12.33-.12.69c0 .36.04.49.13.71.08.22.21.39.39.53.18.13.41.2.69.2.23 0 .43-.05.62-.15.18-.1.3-.27.36-.5h1.12c-.04.37-.16.67-.37.91-.2.24-.45.42-.76.54q-.465.18-.99.18Z" fill="#ffffff" data-color="1"></path>
        <path d="M105.89 90.02q-.33 0-.63-.09c-.2-.06-.38-.15-.53-.27s-.28-.26-.37-.44a1.35 1.35 0 0 1-.14-.62q0-.465.18-.75c.12-.19.28-.34.49-.45s.44-.17.71-.21c.26-.04.54-.06.83-.06h.93c0-.21-.03-.39-.1-.54a.83.83 0 0 0-.31-.36 1 1 0 0 0-.54-.14c-.14 0-.28.02-.4.05s-.23.08-.32.15-.15.16-.18.27h-1.12c.04-.25.13-.46.26-.63.13-.18.29-.32.48-.44.19-.11.4-.2.62-.26.23-.06.46-.08.69-.08.69 0 1.19.2 1.51.59.32.4.47.95.47 1.67v2.56h-.97l-.03-.61c-.14.2-.3.35-.5.45-.19.1-.38.16-.56.18-.18.03-.33.04-.46.04Zm.22-.89c.24 0 .45-.04.64-.13s.33-.22.45-.38c.11-.16.17-.35.17-.56v-.15h-.86c-.14 0-.29 0-.43.01-.14 0-.27.03-.38.07s-.21.1-.27.18-.1.19-.1.33.04.26.11.35.17.16.3.21.25.07.39.07Z" fill="#ffffff" data-color="1"></path>
        <path d="M111.27 90.02c-.23 0-.45-.02-.68-.07q-.345-.075-.63-.24a1.25 1.25 0 0 1-.5-.46c-.13-.19-.22-.43-.26-.72h1.11c.05.13.12.24.23.32s.23.14.37.18.28.06.42.06c.08 0 .17 0 .27-.02.1-.01.19-.04.28-.07.09-.04.16-.09.21-.16s.08-.16.08-.28c0-.11-.03-.19-.09-.26a.7.7 0 0 0-.24-.15c-.1-.04-.22-.07-.37-.09-.26-.05-.53-.11-.83-.18a2.2 2.2 0 0 1-.76-.3.9.9 0 0 1-.23-.19c-.07-.07-.12-.15-.17-.24s-.08-.18-.1-.28q-.03-.15-.03-.33c0-.25.05-.47.16-.64.11-.18.25-.32.42-.43.18-.11.38-.19.61-.25.23-.05.46-.08.7-.08.32 0 .62.05.88.15s.48.26.66.47.28.48.32.8h-1.04q-.045-.225-.27-.36c-.225-.135-.35-.13-.58-.13-.08 0-.17 0-.26.02-.09.01-.17.04-.26.07a.43.43 0 0 0-.28.39c0 .09.02.17.07.23.04.07.11.12.21.17.09.04.2.08.33.11.2.04.42.08.64.13.22.04.41.08.58.13.19.05.37.13.52.23q.24.15.36.39c.09.16.13.36.13.61q0 .435-.18.72c-.18.285-.27.34-.46.45s-.4.19-.64.23c-.23.05-.46.07-.69.07Z" fill="#ffffff" data-color="1"></path>
        <path d="M115.56 90.02q-.33 0-.63-.09c-.2-.06-.38-.15-.53-.27s-.28-.26-.37-.44a1.35 1.35 0 0 1-.14-.62q0-.465.18-.75c.12-.19.28-.34.49-.45s.44-.17.71-.21c.26-.04.54-.06.83-.06h.93c0-.21-.03-.39-.1-.54a.83.83 0 0 0-.31-.36 1 1 0 0 0-.54-.14c-.14 0-.28.02-.4.05s-.23.08-.32.15-.15.16-.18.27h-1.12c.04-.25.13-.46.26-.63.13-.18.29-.32.48-.44.19-.11.4-.2.62-.26.23-.06.46-.08.69-.08.69 0 1.19.2 1.51.59.32.4.47.95.47 1.67v2.56h-.97l-.03-.61c-.14.2-.3.35-.5.45-.19.1-.38.16-.56.18-.18.03-.33.04-.46.04Zm.22-.89c.24 0 .45-.04.64-.13s.33-.22.45-.38c.11-.16.17-.35.17-.56v-.15h-.86c-.14 0-.29 0-.43.01-.14 0-.27.03-.38.07s-.21.1-.27.18-.1.19-.1.33.04.26.11.35.17.16.3.21.25.07.39.07Z" fill="#ffffff" data-color="1"></path>
        <path d="m119.43 91.25-.31-.48c.09-.05.18-.12.28-.2.1-.09.18-.18.27-.29.08-.1.14-.2.17-.28a.83.83 0 0 1-.45-.19c-.12-.11-.18-.27-.18-.47s.07-.38.22-.49c.14-.12.31-.18.49-.18.23 0 .41.08.54.26.13.17.2.39.2.67 0 .25-.06.48-.17.71-.12.23-.27.43-.45.59-.18.17-.38.29-.58.36Z" fill="#ffffff" data-color="1"></path>
        <path d="M123.87 89.96v-4.74h1.03l.06.6c.13-.17.27-.3.44-.4s.35-.17.53-.21c.19-.04.36-.07.52-.07.45 0 .81.1 1.07.3s.45.46.55.79c.11.33.16.7.16 1.11v2.62h-1.1v-2.44c0-.17-.01-.34-.04-.51-.02-.17-.07-.31-.14-.45-.07-.13-.17-.24-.29-.32s-.29-.12-.5-.12q-.39 0-.66.21c-.18.14-.32.32-.41.55s-.13.49-.13.79v2.28h-1.1Z" fill="#ffffff" data-color="1"></path>
        <path d="M131.44 90.02c-.49 0-.9-.1-1.26-.3-.35-.2-.62-.48-.81-.85s-.28-.79-.28-1.29.1-.93.29-1.29.46-.65.81-.85.76-.31 1.25-.31.89.1 1.24.31c.35.2.61.49.8.86s.28.8.28 1.3-.09.91-.28 1.27c-.18.36-.45.64-.8.84s-.77.3-1.25.3Zm-.01-1c.3 0 .54-.07.72-.2s.32-.31.4-.52c.08-.22.13-.45.13-.7s-.04-.49-.13-.71a1.2 1.2 0 0 0-.4-.54c-.18-.13-.42-.2-.72-.2s-.54.07-.73.2-.32.31-.41.53-.13.46-.13.72.04.49.13.71.22.39.41.52c.18.13.42.19.72.19Z" fill="#ffffff" data-color="1"></path>
        <path d="M136.46 90.02c-.23 0-.45-.02-.68-.07q-.345-.075-.63-.24a1.25 1.25 0 0 1-.5-.46c-.13-.19-.22-.43-.26-.72h1.11c.05.13.12.24.23.32s.23.14.37.18.28.06.42.06c.08 0 .17 0 .27-.02.1-.01.19-.04.28-.07.09-.04.16-.09.21-.16s.08-.16.08-.28c0-.11-.03-.19-.09-.26a.7.7 0 0 0-.24-.15c-.1-.04-.22-.07-.37-.09-.26-.05-.53-.11-.83-.18a2.2 2.2 0 0 1-.76-.3.9.9 0 0 1-.23-.19c-.07-.07-.12-.15-.17-.24s-.08-.18-.1-.28q-.03-.15-.03-.33c0-.25.05-.47.16-.64.11-.18.25-.32.42-.43.18-.11.38-.19.61-.25.23-.05.46-.08.7-.08.32 0 .62.05.88.15s.48.26.66.47.28.48.32.8h-1.04q-.045-.225-.27-.36c-.225-.135-.35-.13-.58-.13-.08 0-.17 0-.26.02-.09.01-.17.04-.26.07a.43.43 0 0 0-.28.39c0 .09.02.17.07.23.04.07.11.12.21.17.09.04.2.08.33.11.2.04.42.08.64.13.22.04.41.08.58.13.19.05.37.13.52.23q.24.15.36.39c.09.16.13.36.13.61q0 .435-.18.72c-.18.285-.27.34-.46.45s-.4.19-.64.23c-.23.05-.46.07-.69.07Z" fill="#ffffff" data-color="1"></path>
        <path d="M141.06 90.02c-.23 0-.45-.02-.68-.07q-.345-.075-.63-.24a1.25 1.25 0 0 1-.5-.46c-.13-.19-.22-.43-.26-.72h1.11c.05.13.12.24.23.32s.23.14.37.18.28.06.42.06c.08 0 .17 0 .27-.02.1-.01.19-.04.28-.07.09-.04.16-.09.21-.16s.08-.16.08-.28c0-.11-.03-.19-.09-.26a.7.7 0 0 0-.24-.15c-.1-.04-.22-.07-.37-.09-.26-.05-.53-.11-.83-.18a2.2 2.2 0 0 1-.76-.3.9.9 0 0 1-.23-.19c-.07-.07-.12-.15-.17-.24s-.08-.18-.1-.28q-.03-.15-.03-.33c0-.25.05-.47.16-.64.11-.18.25-.32.42-.43.18-.11.38-.19.61-.25.23-.05.46-.08.7-.08.32 0 .62.05.88.15s.48.26.66.47.28.48.32.8h-1.04q-.045-.225-.27-.36c-.225-.135-.35-.13-.58-.13-.08 0-.17 0-.26.02-.09.01-.17.04-.26.07a.43.43 0 0 0-.28.39c0 .09.02.17.07.23.04.07.11.12.21.17.09.04.2.08.33.11.2.04.42.08.64.13.22.04.41.08.58.13.19.05.37.13.52.23q.24.15.36.39c.09.16.13.36.13.61q0 .435-.18.72c-.18.285-.27.34-.46.45s-.4.19-.64.23c-.23.05-.46.07-.69.07Z" fill="#ffffff" data-color="1"></path>
        <path d="M146.01 90.02c-.49 0-.9-.1-1.26-.3-.35-.2-.62-.48-.81-.85s-.28-.79-.28-1.29.1-.93.29-1.29.46-.65.81-.85.76-.31 1.25-.31.89.1 1.24.31c.35.2.61.49.8.86s.28.8.28 1.3-.09.91-.28 1.27c-.18.36-.45.64-.8.84s-.77.3-1.25.3Zm-.01-1c.3 0 .54-.07.72-.2s.32-.31.4-.52c.08-.22.13-.45.13-.7s-.04-.49-.13-.71a1.2 1.2 0 0 0-.4-.54c-.18-.13-.42-.2-.72-.2s-.54.07-.73.2-.32.31-.41.53-.13.46-.13.72.04.49.13.71.22.39.41.52c.18.13.42.19.72.19Z" fill="#ffffff" data-color="1"></path>
        <path d="M-3.95 99.02q-.33 0-.63-.09c-.2-.06-.38-.15-.53-.27s-.28-.26-.37-.44a1.35 1.35 0 0 1-.14-.62q0-.465.18-.75c.12-.19.28-.34.49-.45s.44-.17.71-.21c.26-.04.54-.06.83-.06h.93c0-.21-.03-.39-.1-.54a.83.83 0 0 0-.31-.36 1 1 0 0 0-.54-.14c-.14 0-.28.02-.4.05s-.23.08-.32.15-.15.16-.18.27h-1.12c.04-.25.13-.46.26-.63.13-.18.29-.32.48-.44.19-.11.4-.2.62-.26.23-.06.46-.08.69-.08.69 0 1.19.2 1.51.59.32.4.47.95.47 1.67v2.56h-.97l-.03-.61c-.14.2-.3.35-.5.45-.19.1-.38.16-.56.18-.18.03-.33.04-.46.04Zm.22-.89c.24 0 .45-.04.64-.13s.33-.22.45-.38c.11-.16.17-.35.17-.56v-.15h-.86c-.14 0-.29 0-.43.01-.14 0-.27.03-.38.07s-.21.1-.27.18-.1.19-.1.33.04.26.11.35.17.16.3.21.25.07.39.07Z" fill="#ffffff" data-color="1"></path>
        <path d="M-.39 98.96V92.6H.7v6.36z" fill="#ffffff" data-color="1"></path>
        <path d="M2.31 93.67c-.21 0-.38-.06-.5-.19s-.19-.29-.19-.5.07-.36.2-.49.3-.19.5-.19.36.06.5.19.21.29.21.5-.07.37-.2.5-.3.19-.5.19Zm-.54 5.29v-4.74h1.1v4.74z" fill="#ffffff" data-color="1"></path>
        <path d="M3.93 98.96v-4.74h1.01l.07.54c.12-.16.25-.29.39-.37.14-.09.29-.15.44-.18.15-.04.3-.05.44-.05.3 0 .56.06.77.18s.38.3.5.54c.12-.17.25-.3.4-.41.15-.1.31-.18.48-.23s.34-.08.53-.08c.37 0 .66.08.88.23s.38.36.49.63c.1.27.15.57.15.91v3.04h-1.1v-2.69c0-.12 0-.25-.02-.38s-.04-.25-.09-.37a.7.7 0 0 0-.22-.28c-.1-.07-.23-.11-.41-.11s-.32.04-.43.11-.2.17-.27.3c-.07.12-.12.26-.14.4-.03.15-.04.29-.04.44v2.57h-1.1v-2.7c0-.11 0-.23-.02-.36-.01-.13-.04-.25-.09-.37s-.12-.21-.22-.28a.7.7 0 0 0-.41-.11q-.375 0-.57.21c-.13.14-.22.31-.26.5s-.07.39-.07.57v2.55h-1.1Z" fill="#ffffff" data-color="1"></path>
        <path d="M13.62 99.02c-.49 0-.91-.1-1.26-.31-.34-.2-.61-.49-.78-.85s-.27-.79-.27-1.26.09-.91.28-1.27c.18-.37.45-.66.79-.87s.76-.32 1.25-.32c.36 0 .67.06.95.19.27.13.5.3.68.53.18.22.32.47.41.76.09.28.13.58.13.89 0 .07-.01.14-.02.21 0 .07-.01.14-.03.22h-3.33c.02.21.07.4.17.58s.23.31.4.41.38.15.64.15c.15 0 .29-.02.43-.06s.26-.1.36-.18q.165-.12.21-.3h1.1c-.08.34-.22.62-.43.84s-.46.38-.75.48-.6.15-.92.15Zm-1.19-2.9h2.29c0-.2-.04-.38-.13-.54s-.22-.29-.38-.38c-.17-.09-.36-.14-.6-.14q-.375 0-.63.15a1 1 0 0 0-.39.4q-.135.24-.15.51Z" fill="#ffffff" data-color="1"></path>
        <path d="M16.66 98.96v-4.74h1.03l.06.6c.13-.17.27-.3.44-.4s.35-.17.53-.21c.19-.04.36-.07.52-.07.45 0 .81.1 1.07.3s.45.46.55.79c.11.33.16.7.16 1.11v2.62h-1.1v-2.44c0-.17-.01-.34-.04-.51-.02-.17-.07-.31-.14-.45-.07-.13-.17-.24-.29-.32s-.29-.12-.5-.12q-.39 0-.66.21c-.18.14-.32.32-.41.55s-.13.49-.13.79v2.28h-1.1Z" fill="#ffffff" data-color="1"></path>
        <path d="M24.13 98.96c-.38 0-.7-.05-.95-.15s-.43-.27-.56-.5-.18-.53-.18-.92v-2.21h-.73v-.97h.73v-1.32h1.1v1.32h1.11v.97h-1.11v2.06c0 .24.04.42.13.55.08.13.27.19.57.19h.38v.97h-.48Z" fill="#ffffff" data-color="1"></path>
        <path d="M27.54 99.02c-.49 0-.9-.1-1.26-.3-.35-.2-.62-.48-.81-.85s-.28-.79-.28-1.29.1-.93.29-1.29.46-.65.81-.85.76-.31 1.25-.31.89.1 1.24.31c.35.2.61.49.8.86s.28.8.28 1.3-.09.91-.28 1.27c-.18.36-.45.64-.8.84s-.77.3-1.25.3Zm-.01-1c.3 0 .54-.07.72-.2s.32-.31.4-.52c.08-.22.13-.45.13-.7s-.04-.49-.13-.71a1.2 1.2 0 0 0-.4-.54c-.18-.13-.42-.2-.72-.2s-.54.07-.73.2-.32.31-.41.53-.13.46-.13.72.04.49.13.71.22.39.41.52c.18.13.42.19.72.19Z" fill="#ffffff" data-color="1"></path>
        <path d="M35.34 99.02c-.49 0-.91-.1-1.24-.3a1.9 1.9 0 0 1-.76-.85 3 3 0 0 1-.26-1.27c0-.48.09-.91.27-1.27.18-.37.44-.66.79-.87s.77-.32 1.27-.32c.37 0 .69.06.98.19s.52.31.69.55c.18.24.29.54.34.9h-1.08a.86.86 0 0 0-.36-.5c-.17-.11-.36-.16-.59-.16-.31 0-.55.07-.72.22-.18.15-.3.33-.38.55q-.12.33-.12.69c0 .36.04.49.13.71.08.22.21.39.39.53.18.13.41.2.69.2.23 0 .43-.05.62-.15.18-.1.3-.27.36-.5h1.12c-.04.37-.16.67-.37.91-.2.24-.45.42-.76.54q-.465.18-.99.18Z" fill="#ffffff" data-color="1"></path>
        <path d="M40.45 99.02c-.49 0-.9-.1-1.26-.3-.35-.2-.62-.48-.81-.85s-.28-.79-.28-1.29.1-.93.29-1.29.46-.65.81-.85.76-.31 1.25-.31.89.1 1.24.31c.35.2.61.49.8.86s.28.8.28 1.3-.09.91-.28 1.27c-.18.36-.45.64-.8.84s-.77.3-1.25.3Zm-.01-1c.3 0 .54-.07.72-.2s.32-.31.4-.52c.08-.22.13-.45.13-.7s-.04-.49-.13-.71a1.2 1.2 0 0 0-.4-.54c-.18-.13-.42-.2-.72-.2s-.54.07-.73.2-.32.31-.41.53-.13.46-.13.72.04.49.13.71.22.39.41.52c.18.13.42.19.72.19Z" fill="#ffffff" data-color="1"></path>
        <path d="M43.65 98.96v-4.74h1.01l.07.54c.12-.16.25-.29.39-.37.14-.09.29-.15.44-.18.15-.04.3-.05.44-.05.3 0 .56.06.77.18s.38.3.5.54c.12-.17.25-.3.4-.41.15-.1.31-.18.48-.23s.34-.08.53-.08c.37 0 .66.08.88.23s.38.36.49.63c.1.27.15.57.15.91v3.04h-1.1v-2.69c0-.12 0-.25-.02-.38s-.04-.25-.09-.37a.7.7 0 0 0-.22-.28c-.1-.07-.23-.11-.41-.11s-.32.04-.43.11-.2.17-.27.3c-.07.12-.12.26-.14.4-.03.15-.04.29-.04.44v2.57h-1.1v-2.7c0-.11 0-.23-.02-.36-.01-.13-.04-.25-.09-.37s-.12-.21-.22-.28a.7.7 0 0 0-.41-.11q-.375 0-.57.21c-.13.14-.22.31-.26.5s-.07.39-.07.57v2.55h-1.1Z" fill="#ffffff" data-color="1"></path>
        <path d="M53.77 99.02c-.17 0-.35-.02-.52-.05-.17-.04-.34-.1-.5-.19s-.3-.21-.44-.36l-.03.54h-1.06V92.6h1.1v2.21c.17-.22.4-.39.67-.5s.56-.17.85-.17c.47 0 .85.11 1.16.32s.53.5.67.87c.15.37.22.78.22 1.24s-.08.88-.23 1.25-.39.66-.7.88-.71.32-1.2.32Zm-.18-.97q.465 0 .72-.21c.18-.14.3-.33.38-.55q.12-.345.12-.72c0-.375-.04-.5-.12-.71-.08-.22-.21-.39-.39-.52s-.42-.2-.72-.2c-.28 0-.51.07-.7.21s-.33.32-.43.55c-.1.22-.14.46-.14.7s.04.49.13.71.22.4.41.54.43.21.73.21Z" fill="#ffffff" data-color="1"></path>
        <path d="M57.32 93.67c-.21 0-.38-.06-.5-.19s-.19-.29-.19-.5.07-.36.2-.49.3-.19.5-.19.36.06.5.19.21.29.21.5-.07.37-.2.5-.3.19-.5.19Zm-.55 5.29v-4.74h1.1v4.74z" fill="#ffffff" data-color="1"></path>
        <path d="M58.93 98.96v-4.74h1.03l.06.6c.13-.17.27-.3.44-.4s.35-.17.53-.21c.19-.04.36-.07.52-.07.45 0 .81.1 1.07.3s.45.46.55.79c.11.33.16.7.16 1.11v2.62h-1.1v-2.44c0-.17-.01-.34-.04-.51-.02-.17-.07-.31-.14-.45-.07-.13-.17-.24-.29-.32s-.29-.12-.5-.12q-.39 0-.66.21c-.18.14-.32.32-.41.55s-.13.49-.13.79v2.28h-1.1Z" fill="#ffffff" data-color="1"></path>
        <path d="M65.85 99.02q-.33 0-.63-.09c-.2-.06-.38-.15-.53-.27s-.28-.26-.37-.44a1.35 1.35 0 0 1-.14-.62q0-.465.18-.75c.12-.19.28-.34.49-.45s.44-.17.71-.21c.26-.04.54-.06.83-.06h.93c0-.21-.03-.39-.1-.54a.83.83 0 0 0-.31-.36 1 1 0 0 0-.54-.14c-.14 0-.28.02-.4.05s-.23.08-.32.15-.15.16-.18.27h-1.12c.04-.25.13-.46.26-.63.13-.18.29-.32.48-.44.19-.11.4-.2.62-.26.23-.06.46-.08.69-.08.69 0 1.19.2 1.51.59.32.4.47.95.47 1.67v2.56h-.97l-.03-.61c-.14.2-.3.35-.5.45-.19.1-.38.16-.56.18-.18.03-.33.04-.46.04Zm.21-.89c.24 0 .45-.04.64-.13s.33-.22.45-.38c.11-.16.17-.35.17-.56v-.15h-.86c-.14 0-.29 0-.43.01-.14 0-.27.03-.38.07s-.21.1-.27.18-.1.19-.1.33.04.26.11.35.17.16.3.21.25.07.39.07Z" fill="#ffffff" data-color="1"></path>
        <path d="M72.45 93.67c-.21 0-.38-.06-.5-.19s-.19-.29-.19-.5.07-.36.2-.49.3-.19.5-.19.36.06.5.19.21.29.21.5-.07.37-.2.5-.3.19-.5.19Zm-.55 5.29v-4.74H73v4.74z" fill="#ffffff" data-color="1"></path>
        <path d="M74.06 98.96v-4.74h1.03l.06.6c.13-.17.27-.3.44-.4s.35-.17.53-.21c.19-.04.36-.07.52-.07.45 0 .81.1 1.07.3s.45.46.55.79c.11.33.16.7.16 1.11v2.62h-1.1v-2.44c0-.17-.01-.34-.04-.51-.02-.17-.07-.31-.14-.45-.07-.13-.17-.24-.29-.32s-.29-.12-.5-.12q-.39 0-.66.21c-.18.14-.32.32-.41.55s-.13.49-.13.79v2.28h-1.1Z" fill="#ffffff" data-color="1"></path>
        <path d="M81.67 101.13c-.35 0-.67-.05-.98-.17-.3-.11-.56-.29-.77-.52-.21-.24-.35-.54-.42-.91h1.12c.04.14.11.26.22.35s.24.15.38.19q.225.06.45.06c.29 0 .53-.06.7-.18s.29-.28.37-.49c.07-.21.11-.43.11-.68v-.45c-.11.17-.24.31-.41.41s-.34.17-.52.21q-.27.06-.54.06c-.49 0-.89-.11-1.2-.32-.31-.22-.54-.5-.68-.87-.14-.36-.22-.76-.22-1.2s.08-.87.24-1.25.4-.67.72-.9.72-.33 1.21-.33c.28 0 .55.05.8.15s.46.25.63.45l.07-.52h1.02v4.33c0 .53-.08.99-.23 1.38s-.4.68-.73.89c-.34.21-.78.31-1.33.31Zm-.06-3.09c.28 0 .52-.07.7-.2q.285-.195.42-.54c.135-.345.14-.47.14-.73s-.05-.51-.14-.73a1.1 1.1 0 0 0-.41-.51c-.18-.13-.42-.19-.71-.19-.31 0-.55.07-.73.21q-.27.21-.39.54c-.12.33-.12.46-.12.72s.04.5.13.72c.08.22.22.39.4.52s.42.19.71.19" fill="#ffffff" data-color="1"></path>
        <path d="M85.03 98.96v-4.74h1l.06.62c.12-.18.26-.32.41-.42s.32-.17.49-.21q.27-.06.54-.06h.32v1.04h-.29c-.31 0-.58.06-.79.18-.22.12-.38.29-.49.51s-.16.5-.16.82v2.25h-1.1Z" fill="#ffffff" data-color="1"></path>
        <path d="M90.62 99.02c-.49 0-.91-.1-1.26-.31-.34-.2-.61-.49-.78-.85s-.27-.79-.27-1.26.09-.91.28-1.27c.18-.37.45-.66.79-.87s.76-.32 1.25-.32c.36 0 .67.06.95.19.27.13.5.3.68.53.18.22.32.47.41.76.09.28.13.58.13.89 0 .07-.01.14-.02.21 0 .07-.01.14-.03.22h-3.33c.02.21.07.4.17.58s.23.31.4.41.38.15.64.15c.15 0 .29-.02.43-.06s.26-.1.36-.18q.165-.12.21-.3h1.1c-.08.34-.22.62-.43.84s-.46.38-.75.48-.6.15-.92.15Zm-1.18-2.9h2.29c0-.2-.04-.38-.13-.54s-.22-.29-.38-.38c-.17-.09-.36-.14-.6-.14q-.375 0-.63.15a1 1 0 0 0-.39.4q-.135.24-.15.51Z" fill="#ffffff" data-color="1"></path>
        <path d="M95.6 99.02c-.48 0-.88-.11-1.19-.33s-.54-.51-.7-.88c-.15-.37-.23-.77-.23-1.22s.08-.89.24-1.26.41-.66.73-.87.73-.32 1.21-.32a2.2 2.2 0 0 1 1.02.24c.15.08.28.19.38.32v-2.11h1.1v6.36H97.1l-.02-.59c-.11.15-.25.27-.4.37s-.32.17-.51.22-.38.07-.58.07Zm.21-.99c.29 0 .53-.07.71-.2q.285-.21.42-.54a1.9 1.9 0 0 0 0-1.43c-.09-.22-.23-.39-.42-.52s-.42-.2-.71-.2q-.465 0-.72.21-.27.21-.39.54c-.12.33-.12.47-.12.72 0 .19.02.37.07.54.04.17.12.32.21.45s.22.24.38.31.35.11.58.11Z" fill="#ffffff" data-color="1"></path>
        <path d="M99.78 93.67c-.21 0-.38-.06-.5-.19s-.19-.29-.19-.5.07-.36.2-.49.3-.19.5-.19.36.06.5.19.21.29.21.5-.07.37-.2.5-.3.19-.5.19Zm-.55 5.29v-4.74h1.1v4.74z" fill="#ffffff" data-color="1"></path>
        <path d="M103.51 99.02c-.49 0-.91-.1-1.26-.31-.34-.2-.61-.49-.78-.85s-.27-.79-.27-1.26.09-.91.28-1.27c.18-.37.45-.66.79-.87s.76-.32 1.25-.32c.36 0 .67.06.95.19.27.13.5.3.68.53.18.22.32.47.41.76.09.28.13.58.13.89 0 .07-.01.14-.02.21 0 .07-.01.14-.03.22h-3.33c.02.21.07.4.17.58s.23.31.4.41.38.15.64.15c.15 0 .29-.02.43-.06s.26-.1.36-.18q.165-.12.21-.3h1.1c-.08.34-.22.62-.43.84s-.46.38-.75.48-.6.15-.92.15Zm-1.19-2.9h2.29c0-.2-.04-.38-.13-.54s-.22-.29-.38-.38c-.17-.09-.36-.14-.6-.14q-.375 0-.63.15a1 1 0 0 0-.39.4q-.135.24-.15.51Z" fill="#ffffff" data-color="1"></path>
        <path d="M106.55 98.96v-4.74h1.03l.06.6c.13-.17.27-.3.44-.4s.35-.17.53-.21c.19-.04.36-.07.52-.07.45 0 .81.1 1.07.3s.45.46.55.79c.11.33.16.7.16 1.11v2.62h-1.1v-2.44c0-.17-.01-.34-.04-.51-.02-.17-.07-.31-.14-.45-.07-.13-.17-.24-.29-.32s-.29-.12-.5-.12q-.39 0-.66.21c-.18.14-.32.32-.41.55s-.13.49-.13.79v2.28h-1.1Z" fill="#ffffff" data-color="1"></path>
        <path d="M114.02 98.96c-.38 0-.7-.05-.95-.15s-.43-.27-.56-.5-.18-.53-.18-.92v-2.21h-.73v-.97h.73v-1.32h1.1v1.32h1.11v.97h-1.11v2.06c0 .24.04.42.13.55.08.13.27.19.57.19h.38v.97h-.48Z" fill="#ffffff" data-color="1"></path>
        <path d="M117.39 99.02c-.49 0-.91-.1-1.26-.31-.34-.2-.61-.49-.78-.85s-.27-.79-.27-1.26.09-.91.28-1.27c.18-.37.45-.66.79-.87s.76-.32 1.25-.32c.36 0 .67.06.95.19.27.13.5.3.68.53.18.22.32.47.41.76.09.28.13.58.13.89 0 .07-.01.14-.02.21 0 .07-.01.14-.03.22h-3.33c.02.21.07.4.17.58s.23.31.4.41.38.15.64.15c.15 0 .29-.02.43-.06s.26-.1.36-.18q.165-.12.21-.3h1.1c-.08.34-.22.62-.43.84s-.46.38-.75.48-.6.15-.92.15Zm-1.19-2.9h2.29c0-.2-.04-.38-.13-.54s-.22-.29-.38-.38c-.17-.09-.36-.14-.6-.14q-.375 0-.63.15a1 1 0 0 0-.39.4q-.135.24-.15.51Z" fill="#ffffff" data-color="1"></path>
        <path d="M122.25 99.02c-.23 0-.45-.02-.68-.07q-.345-.075-.63-.24a1.25 1.25 0 0 1-.5-.46c-.13-.19-.22-.43-.26-.72h1.11c.05.13.12.24.23.32s.23.14.37.18.28.06.42.06c.08 0 .17 0 .27-.02.1-.01.19-.04.28-.07.09-.04.16-.09.21-.16s.08-.16.08-.28c0-.11-.03-.19-.09-.26a.7.7 0 0 0-.24-.15c-.1-.04-.22-.07-.37-.09-.26-.05-.53-.11-.83-.18a2.2 2.2 0 0 1-.76-.3.9.9 0 0 1-.23-.19c-.07-.07-.12-.15-.17-.24s-.08-.18-.1-.28q-.03-.15-.03-.33c0-.25.05-.47.16-.64.11-.18.25-.32.42-.43.18-.11.38-.19.61-.25.23-.05.46-.08.7-.08.32 0 .62.05.88.15s.48.26.66.47.28.48.32.8h-1.04q-.045-.225-.27-.36c-.225-.135-.35-.13-.58-.13-.08 0-.17 0-.26.02-.09.01-.17.04-.26.07a.43.43 0 0 0-.28.39c0 .09.02.17.07.23.04.07.11.12.21.17.09.04.2.08.33.11.2.04.42.08.64.13.22.04.41.08.58.13.19.05.37.13.52.23q.24.15.36.39c.09.16.13.36.13.61q0 .435-.18.72c-.18.285-.27.34-.46.45s-.4.19-.64.23c-.23.05-.46.07-.69.07Z" fill="#ffffff" data-color="1"></path>
        <path d="M129.47 99.02c-.48 0-.88-.11-1.19-.33s-.54-.51-.7-.88c-.15-.37-.23-.77-.23-1.22s.08-.89.24-1.26.41-.66.73-.87.73-.32 1.21-.32a2.2 2.2 0 0 1 1.02.24c.15.08.28.19.38.32v-2.11h1.1v6.36h-1.06l-.02-.59c-.11.15-.25.27-.4.37s-.32.17-.51.22-.38.07-.58.07Zm.2-.99c.29 0 .53-.07.71-.2q.285-.21.42-.54a1.9 1.9 0 0 0 0-1.43c-.09-.22-.23-.39-.42-.52s-.42-.2-.71-.2q-.465 0-.72.21-.27.21-.39.54c-.12.33-.12.47-.12.72 0 .19.02.37.07.54.04.17.12.32.21.45s.22.24.38.31.35.11.58.11Z" fill="#ffffff" data-color="1"></path>
        <path d="M135.22 99.02c-.49 0-.91-.1-1.26-.31-.34-.2-.61-.49-.78-.85s-.27-.79-.27-1.26.09-.91.28-1.27c.18-.37.45-.66.79-.87s.76-.32 1.25-.32c.36 0 .67.06.95.19.27.13.5.3.68.53.18.22.32.47.41.76.09.28.13.58.13.89 0 .07-.01.14-.02.21 0 .07-.01.14-.03.22h-3.33c.02.21.07.4.17.58s.23.31.4.41.38.15.64.15c.15 0 .29-.02.43-.06s.26-.1.36-.18q.165-.12.21-.3h1.1c-.08.34-.22.62-.43.84s-.46.38-.75.48-.6.15-.92.15Zm-1.19-2.9h2.29c0-.2-.04-.38-.13-.54s-.22-.29-.38-.38c-.17-.09-.36-.14-.6-.14q-.375 0-.63.15a1 1 0 0 0-.39.4q-.135.24-.15.51Z" fill="#ffffff" data-color="1"></path>
        <path d="M142.93 99.02c-.49 0-.9-.1-1.26-.3-.35-.2-.62-.48-.81-.85s-.28-.79-.28-1.29.1-.93.29-1.29.46-.65.81-.85.76-.31 1.25-.31.89.1 1.24.31c.35.2.61.49.8.86s.28.8.28 1.3-.09.91-.28 1.27c-.18.36-.45.64-.8.84s-.77.3-1.25.3Zm-.01-1c.3 0 .54-.07.72-.2s.32-.31.4-.52c.08-.22.13-.45.13-.7s-.04-.49-.13-.71a1.2 1.2 0 0 0-.4-.54c-.18-.13-.42-.2-.72-.2s-.54.07-.73.2-.32.31-.41.53-.13.46-.13.72.04.49.13.71.22.39.41.52c.18.13.42.19.72.19Zm-.57-4.41.94-1.45h1.17l-1.16 1.45h-.94Z" fill="#ffffff" data-color="1"></path>
        <path d="M148.2 98.96c-.38 0-.7-.05-.95-.15s-.43-.27-.56-.5-.18-.53-.18-.92v-2.21h-.73v-.97h.73v-1.32h1.1v1.32h1.11v.97h-1.11v2.06c0 .24.04.42.13.55.08.13.27.19.57.19h.38v.97h-.48Z" fill="#ffffff" data-color="1"></path>
        <path d="M150 93.67c-.21 0-.38-.06-.5-.19s-.19-.29-.19-.5.07-.36.2-.49.3-.19.5-.19.36.06.5.19.21.29.21.5-.07.37-.2.5-.3.19-.5.19Zm-.55 5.29v-4.74h1.1v4.74z" fill="#ffffff" data-color="1"></path>
        <path d="M151.61 98.96v-4.74h1.01l.07.54c.12-.16.25-.29.39-.37.14-.09.29-.15.44-.18.15-.04.3-.05.44-.05.3 0 .56.06.77.18s.38.3.5.54c.12-.17.25-.3.4-.41.15-.1.31-.18.48-.23s.34-.08.53-.08c.37 0 .66.08.88.23s.38.36.49.63c.1.27.15.57.15.91v3.04h-1.1v-2.69c0-.12 0-.25-.02-.38s-.04-.25-.09-.37a.7.7 0 0 0-.22-.28c-.1-.07-.23-.11-.41-.11s-.32.04-.43.11-.2.17-.27.3c-.07.12-.12.26-.14.4-.03.15-.04.29-.04.44v2.57h-1.1v-2.7c0-.11 0-.23-.02-.36-.01-.13-.04-.25-.09-.37s-.12-.21-.22-.28a.7.7 0 0 0-.41-.11q-.375 0-.57.21c-.13.14-.22.31-.26.5s-.07.39-.07.57v2.55h-1.1Z" fill="#ffffff" data-color="1"></path>
        <path d="M160.69 99.02q-.33 0-.63-.09c-.2-.06-.38-.15-.53-.27s-.28-.26-.37-.44a1.35 1.35 0 0 1-.14-.62q0-.465.18-.75c.12-.19.28-.34.49-.45s.44-.17.71-.21c.26-.04.54-.06.83-.06h.93c0-.21-.03-.39-.1-.54a.83.83 0 0 0-.31-.36 1 1 0 0 0-.54-.14c-.14 0-.28.02-.4.05s-.23.08-.32.15-.15.16-.18.27h-1.12c.04-.25.13-.46.26-.63.13-.18.29-.32.48-.44.19-.11.4-.2.62-.26.23-.06.46-.08.69-.08.69 0 1.19.2 1.51.59.32.4.47.95.47 1.67v2.56h-.97l-.03-.61c-.14.2-.3.35-.5.45-.19.1-.38.16-.56.18-.18.03-.33.04-.46.04Zm.21-.89c.24 0 .45-.04.64-.13s.33-.22.45-.38c.11-.16.17-.35.17-.56v-.15h-.86c-.14 0-.29 0-.43.01-.14 0-.27.03-.38.07s-.21.1-.27.18-.1.19-.1.33.04.26.11.35.17.16.3.21.25.07.39.07Z" fill="#ffffff" data-color="1"></path>
        <path d="M5.22 108.02c-.48 0-.88-.11-1.19-.33s-.54-.51-.7-.88c-.15-.37-.23-.77-.23-1.22s.08-.89.24-1.26.41-.66.73-.87.73-.32 1.21-.32a2.2 2.2 0 0 1 1.02.24c.15.08.28.19.38.32v-2.11h1.1v6.36H6.72l-.02-.59c-.11.15-.25.27-.4.37s-.32.17-.51.22-.38.07-.58.07Zm.21-.99c.29 0 .53-.07.71-.2q.285-.21.42-.54a1.9 1.9 0 0 0 0-1.43c-.09-.22-.23-.39-.42-.52s-.42-.2-.71-.2q-.465 0-.72.21-.27.21-.39.54c-.12.33-.12.47-.12.72 0 .19.02.37.07.54.04.17.12.32.21.45s.22.24.38.31.35.11.58.11Z" fill="#ffffff" data-color="1"></path>
        <path d="M9.4 102.67c-.21 0-.38-.06-.5-.19s-.19-.29-.19-.5.07-.36.2-.49.3-.19.5-.19.36.06.5.19.21.29.21.5-.07.37-.2.5-.3.19-.5.19Zm-.55 5.29v-4.74h1.1v4.74z" fill="#ffffff" data-color="1"></path>
        <path d="M13.21 110.13c-.35 0-.67-.05-.98-.17-.3-.11-.56-.29-.77-.52-.21-.24-.35-.54-.42-.91h1.12c.04.14.11.26.22.35s.24.15.38.19q.225.06.45.06c.29 0 .53-.06.7-.18s.29-.28.37-.49c.07-.21.11-.43.11-.68v-.45c-.11.17-.24.31-.41.41s-.34.17-.52.21q-.27.06-.54.06c-.49 0-.89-.11-1.2-.32-.31-.22-.54-.5-.68-.87-.14-.36-.22-.76-.22-1.2s.08-.87.24-1.25.4-.67.72-.9.72-.33 1.21-.33c.28 0 .55.05.8.15s.46.25.63.45l.07-.52h1.02v4.33c0 .53-.08.99-.23 1.38s-.4.68-.73.89c-.34.21-.78.31-1.33.31Zm-.06-3.09c.28 0 .52-.07.7-.2q.285-.195.42-.54c.135-.345.14-.47.14-.73s-.05-.51-.14-.73a1.1 1.1 0 0 0-.41-.51c-.18-.13-.42-.19-.71-.19-.31 0-.55.07-.73.21q-.27.21-.39.54c-.12.33-.12.46-.12.72s.04.5.13.72c.08.22.22.39.4.52s.42.19.71.19" fill="#ffffff" data-color="1"></path>
        <path d="M18.69 108.02c-.49 0-.91-.1-1.26-.31-.34-.2-.61-.49-.78-.85s-.27-.79-.27-1.26.09-.91.28-1.27c.18-.37.45-.66.79-.87s.76-.32 1.25-.32c.36 0 .67.06.95.19.27.13.5.3.68.53.18.22.32.47.41.76.09.28.13.58.13.89 0 .07-.01.14-.02.21 0 .07-.01.14-.03.22h-3.33c.02.21.07.4.17.58s.23.31.4.41.38.15.64.15c.15 0 .29-.02.43-.06s.26-.1.36-.18q.165-.12.21-.3h1.1c-.08.34-.22.62-.43.84s-.46.38-.75.48-.6.15-.92.15Zm-1.19-2.9h2.29c0-.2-.04-.38-.13-.54s-.22-.29-.38-.38c-.17-.09-.36-.14-.6-.14q-.375 0-.63.15a1 1 0 0 0-.39.4q-.135.24-.15.51Z" fill="#ffffff" data-color="1"></path>
        <path d="M23.55 108.02c-.23 0-.45-.02-.68-.07q-.345-.075-.63-.24a1.25 1.25 0 0 1-.5-.46c-.13-.19-.22-.43-.26-.72h1.11c.05.13.12.24.23.32s.23.14.37.18.28.06.42.06c.08 0 .17 0 .27-.02.1-.01.19-.04.28-.07.09-.04.16-.09.21-.16s.08-.16.08-.28c0-.11-.03-.19-.09-.26a.7.7 0 0 0-.24-.15c-.1-.04-.22-.07-.37-.09-.26-.05-.53-.11-.83-.18a2.2 2.2 0 0 1-.76-.3.9.9 0 0 1-.23-.19c-.07-.07-.12-.15-.17-.24s-.08-.18-.1-.28q-.03-.15-.03-.33c0-.25.05-.47.16-.64.11-.18.25-.32.42-.43.18-.11.38-.19.61-.25.23-.05.46-.08.7-.08.32 0 .62.05.88.15s.48.26.66.47.28.48.32.8h-1.04q-.045-.225-.27-.36c-.225-.135-.35-.13-.58-.13-.08 0-.17 0-.26.02-.09.01-.17.04-.26.07a.43.43 0 0 0-.28.39c0 .09.02.17.07.23.04.07.11.12.21.17.09.04.2.08.33.11.2.04.42.08.64.13.22.04.41.08.58.13.19.05.37.13.52.23q.24.15.36.39c.09.16.13.36.13.61q0 .435-.18.72c-.18.285-.27.34-.46.45s-.4.19-.64.23c-.23.05-.46.07-.69.07Z" fill="#ffffff" data-color="1"></path>
        <path d="M28.31 107.96c-.38 0-.7-.05-.95-.15s-.43-.27-.56-.5-.18-.53-.18-.92v-2.21h-.73v-.97h.73v-1.32h1.1v1.32h1.11v.97h-1.11v2.06c0 .24.04.42.13.55.08.13.27.19.57.19h.38v.97h-.48Z" fill="#ffffff" data-color="1"></path>
        <path d="M30.1 102.67c-.21 0-.38-.06-.5-.19s-.19-.29-.19-.5.07-.36.2-.49.3-.19.5-.19.36.06.5.19.21.29.21.5-.07.37-.2.5-.3.19-.5.19Zm-.54 5.29v-4.74h1.1v4.74z" fill="#ffffff" data-color="1"></path>
        <path d="M34.26 108.02c-.17 0-.35-.02-.52-.05-.17-.04-.34-.1-.5-.19s-.3-.21-.44-.36l-.03.54h-1.06v-6.36h1.1v2.21c.17-.22.4-.39.67-.5s.56-.17.85-.17c.47 0 .85.11 1.16.32s.53.5.67.87c.15.37.22.78.22 1.24s-.08.88-.23 1.25-.39.66-.7.88-.71.32-1.2.32Zm-.18-.97q.465 0 .72-.21c.18-.14.3-.33.38-.55q.12-.345.12-.72c0-.375-.04-.5-.12-.71-.08-.22-.21-.39-.39-.52s-.42-.2-.72-.2c-.28 0-.51.07-.7.21s-.33.32-.43.55c-.1.22-.14.46-.14.7s.04.49.13.71.22.4.41.54.43.21.73.21Z" fill="#ffffff" data-color="1"></path>
        <path d="M37.82 102.67c-.21 0-.38-.06-.5-.19s-.19-.29-.19-.5.07-.36.2-.49.3-.19.5-.19.36.06.5.19.21.29.21.5-.07.37-.2.5-.3.19-.5.19Zm-.55 5.29v-4.74h1.1v4.74z" fill="#ffffff" data-color="1"></path>
        <path d="M39.43 107.96v-6.36h1.1v6.36z" fill="#ffffff" data-color="1"></path>
        <path d="M42.14 102.67c-.21 0-.38-.06-.5-.19s-.19-.29-.19-.5.07-.36.2-.49.3-.19.5-.19.36.06.5.19.21.29.21.5-.07.37-.2.5-.3.19-.5.19Zm-.55 5.29v-4.74h1.1v4.74z" fill="#ffffff" data-color="1"></path>
        <path d="M45.68 108.02c-.48 0-.88-.11-1.19-.33s-.54-.51-.7-.88c-.15-.37-.23-.77-.23-1.22s.08-.89.24-1.26.41-.66.73-.87.73-.32 1.21-.32a2.2 2.2 0 0 1 1.02.24c.15.08.28.19.38.32v-2.11h1.1v6.36h-1.06l-.02-.59c-.11.15-.25.27-.4.37s-.32.17-.51.22-.38.07-.58.07Zm.21-.99c.29 0 .53-.07.71-.2q.285-.21.42-.54a1.9 1.9 0 0 0 0-1.43c-.09-.22-.23-.39-.42-.52s-.42-.2-.71-.2q-.465 0-.72.21-.27.21-.39.54c-.12.33-.12.47-.12.72 0 .19.02.37.07.54.04.17.12.32.21.45s.22.24.38.31.35.11.58.11Z" fill="#ffffff" data-color="1"></path>
        <path d="M50.82 108.02q-.33 0-.63-.09c-.2-.06-.38-.15-.53-.27s-.28-.26-.37-.44a1.35 1.35 0 0 1-.14-.62q0-.465.18-.75c.12-.19.28-.34.49-.45s.44-.17.71-.21c.26-.04.54-.06.83-.06h.93c0-.21-.03-.39-.1-.54a.83.83 0 0 0-.31-.36 1 1 0 0 0-.54-.14c-.14 0-.28.02-.4.05s-.23.08-.32.15-.15.16-.18.27h-1.12c.04-.25.13-.46.26-.63.13-.18.29-.32.48-.44.19-.11.4-.2.62-.26.23-.06.46-.08.69-.08.69 0 1.19.2 1.51.59.32.4.47.95.47 1.67v2.56h-.97l-.03-.61c-.14.2-.3.35-.5.45-.19.1-.38.16-.56.18-.18.03-.33.04-.46.04Zm.22-.89c.24 0 .45-.04.64-.13s.33-.22.45-.38c.11-.16.17-.35.17-.56v-.15h-.86c-.14 0-.29 0-.43.01-.14 0-.27.03-.38.07s-.21.1-.27.18-.1.19-.1.33.04.26.11.35.17.16.3.21.25.07.39.07Z" fill="#ffffff" data-color="1"></path>
        <path d="M56.31 108.02c-.48 0-.88-.11-1.19-.33s-.54-.51-.7-.88c-.15-.37-.23-.77-.23-1.22s.08-.89.24-1.26.41-.66.73-.87.73-.32 1.21-.32a2.2 2.2 0 0 1 1.02.24c.15.08.28.19.38.32v-2.11h1.1v6.36h-1.06l-.02-.59c-.11.15-.25.27-.4.37s-.32.17-.51.22-.38.07-.58.07Zm.21-.99c.29 0 .53-.07.71-.2q.285-.21.42-.54a1.9 1.9 0 0 0 0-1.43c-.09-.22-.23-.39-.42-.52s-.42-.2-.71-.2q-.465 0-.72.21-.27.21-.39.54c-.12.33-.12.47-.12.72 0 .19.02.37.07.54.04.17.12.32.21.45s.22.24.38.31.35.11.58.11Z" fill="#ffffff" data-color="1"></path>
        <path d="M62.06 108.02c-.49 0-.91-.1-1.26-.31-.34-.2-.61-.49-.78-.85s-.27-.79-.27-1.26.09-.91.28-1.27c.18-.37.45-.66.79-.87s.76-.32 1.25-.32c.36 0 .67.06.95.19.27.13.5.3.68.53.18.22.32.47.41.76.09.28.13.58.13.89 0 .07-.01.14-.02.21 0 .07-.01.14-.03.22h-3.33c.02.21.07.4.17.58s.23.31.4.41.38.15.64.15c.15 0 .29-.02.43-.06s.26-.1.36-.18q.165-.12.21-.3h1.1c-.08.34-.22.62-.43.84s-.46.38-.75.48-.6.15-.92.15Zm-1.19-2.9h2.29c0-.2-.04-.38-.13-.54s-.22-.29-.38-.38c-.17-.09-.36-.14-.6-.14q-.375 0-.63.15a1 1 0 0 0-.39.4q-.135.24-.15.51Z" fill="#ffffff" data-color="1"></path>
        <path d="m65.42 109.25-.31-.48c.09-.05.18-.12.28-.2.1-.09.18-.18.27-.29.08-.1.14-.2.17-.28a.83.83 0 0 1-.45-.19c-.12-.11-.18-.27-.18-.47s.07-.38.22-.49c.14-.12.31-.18.49-.18.23 0 .41.08.54.26.13.17.2.39.2.67 0 .25-.06.48-.17.71-.12.23-.27.43-.45.59-.18.17-.38.29-.58.36Z" fill="#ffffff" data-color="1"></path>
        <path d="M71.95 110.13c-.37 0-.72-.05-1.07-.15-.34-.1-.67-.27-.96-.5l.4-.88a2.38 2.38 0 0 0 1.51.52c.47 0 .82-.12 1.04-.36s.33-.57.33-.98v-.35c-.11.14-.24.25-.4.34s-.32.16-.5.2-.36.06-.55.06c-.46 0-.83-.09-1.1-.28s-.47-.45-.59-.78-.18-.71-.18-1.14v-2.61h1.09v2.37c0 .17.01.34.04.51.02.17.07.33.14.48.07.14.18.26.32.35s.33.13.56.13c.31 0 .54-.07.71-.22s.28-.34.35-.58c.06-.24.09-.5.09-.76v-2.26h1.1v4.29c0 .4-.04.76-.13 1.08s-.22.6-.41.82c-.19.23-.43.4-.72.53s-.65.18-1.08.18Z" fill="#ffffff" data-color="1"></path>
        <path d="M77.44 108.02c-.68 0-1.21-.18-1.57-.53q-.54-.525-.54-1.62v-2.66h1.1v2.58c0 .25.03.47.1.66s.18.33.33.43.35.15.58.15c.25 0 .45-.05.6-.16.15-.1.25-.25.31-.44s.09-.4.09-.64v-2.58h1.1v2.66c0 .74-.18 1.29-.55 1.63-.37.35-.88.52-1.54.52Z" fill="#ffffff" data-color="1"></path>
        <path d="M82.67 108.02c-.49 0-.91-.1-1.24-.3a1.9 1.9 0 0 1-.76-.85 3 3 0 0 1-.26-1.27c0-.48.09-.91.27-1.27.18-.37.44-.66.79-.87s.77-.32 1.27-.32c.37 0 .69.06.98.19s.52.31.69.55c.18.24.29.54.34.9h-1.08a.86.86 0 0 0-.36-.5c-.17-.11-.36-.16-.59-.16-.31 0-.55.07-.72.22-.18.15-.3.33-.38.55q-.12.33-.12.69c0 .36.04.49.13.71.08.22.21.39.39.53.18.13.41.2.69.2.23 0 .43-.05.62-.15.18-.1.3-.27.36-.5h1.12c-.04.37-.16.67-.37.91-.2.24-.45.42-.76.54q-.465.18-.99.18Z" fill="#ffffff" data-color="1"></path>
        <path d="M87.79 108.02c-.49 0-.91-.1-1.24-.3a1.9 1.9 0 0 1-.76-.85 3 3 0 0 1-.26-1.27c0-.48.09-.91.27-1.27.18-.37.44-.66.79-.87s.77-.32 1.27-.32c.37 0 .69.06.98.19s.52.31.69.55c.18.24.29.54.34.9h-1.08a.86.86 0 0 0-.36-.5c-.17-.11-.36-.16-.59-.16-.31 0-.55.07-.72.22-.18.15-.3.33-.38.55q-.12.33-.12.69c0 .36.04.49.13.71.08.22.21.39.39.53.18.13.41.2.69.2.23 0 .43-.05.62-.15.18-.1.3-.27.36-.5h1.12c-.04.37-.16.67-.37.91-.2.24-.45.42-.76.54q-.465.18-.99.18Z" fill="#ffffff" data-color="1"></path>
        <path d="M92.25 108.02q-.33 0-.63-.09c-.2-.06-.38-.15-.53-.27s-.28-.26-.37-.44a1.35 1.35 0 0 1-.14-.62q0-.465.18-.75c.12-.19.28-.34.49-.45s.44-.17.71-.21c.26-.04.54-.06.83-.06h.93c0-.21-.03-.39-.1-.54a.83.83 0 0 0-.31-.36 1 1 0 0 0-.54-.14c-.14 0-.28.02-.4.05s-.23.08-.32.15-.15.16-.18.27h-1.12c.04-.25.13-.46.26-.63.13-.18.29-.32.48-.44.19-.11.4-.2.62-.26.23-.06.46-.08.69-.08.69 0 1.19.2 1.51.59.32.4.47.95.47 1.67v2.56h-.97l-.03-.61c-.14.2-.3.35-.5.45-.19.1-.38.16-.56.18-.18.03-.33.04-.46.04Zm.21-.89c.24 0 .45-.04.64-.13s.33-.22.45-.38c.11-.16.17-.35.17-.56v-.15h-.86c-.14 0-.29 0-.43.01-.14 0-.27.03-.38.07s-.21.1-.27.18-.1.19-.1.33.04.26.11.35.17.16.3.21.25.07.39.07Z" fill="#ffffff" data-color="1"></path>
        <path d="M100.43 108.02c-.49 0-.91-.1-1.26-.31-.34-.2-.61-.49-.78-.85s-.27-.79-.27-1.26.09-.91.28-1.27c.18-.37.45-.66.79-.87s.76-.32 1.25-.32c.36 0 .67.06.95.19.27.13.5.3.68.53.18.22.32.47.41.76.09.28.13.58.13.89 0 .07-.01.14-.02.21 0 .07-.01.14-.03.22h-3.33c.02.21.07.4.17.58s.23.31.4.41.38.15.64.15c.15 0 .29-.02.43-.06s.26-.1.36-.18q.165-.12.21-.3h1.1c-.08.34-.22.62-.43.84s-.46.38-.75.48-.6.15-.92.15Zm-1.19-2.9h2.29c0-.2-.04-.38-.13-.54s-.22-.29-.38-.38c-.17-.09-.36-.14-.6-.14q-.375 0-.63.15a1 1 0 0 0-.39.4q-.135.24-.15.51Z" fill="#ffffff" data-color="1"></path>
        <path d="M105.79 107.96v-.85l2.5-2.92h-2.5v-.97h3.92v.84l-2.52 2.93h2.52v.97z" fill="#ffffff" data-color="1"></path>
        <path d="M112.72 108.02c-.49 0-.91-.1-1.26-.31-.34-.2-.61-.49-.78-.85s-.27-.79-.27-1.26.09-.91.28-1.27c.18-.37.45-.66.79-.87s.76-.32 1.25-.32c.36 0 .67.06.95.19.27.13.5.3.68.53.18.22.32.47.41.76.09.28.13.58.13.89 0 .07-.01.14-.02.21 0 .07-.01.14-.03.22h-3.33c.02.21.07.4.17.58s.23.31.4.41.38.15.64.15c.15 0 .29-.02.43-.06s.26-.1.36-.18q.165-.12.21-.3h1.1c-.08.34-.22.62-.43.84s-.46.38-.75.48-.6.15-.92.15Zm-1.19-2.9h2.29c0-.2-.04-.38-.13-.54s-.22-.29-.38-.38c-.17-.09-.36-.14-.6-.14q-.375 0-.63.15a1 1 0 0 0-.39.4q-.135.24-.15.51Z" fill="#ffffff" data-color="1"></path>
        <path d="M117.93 108.02c-.49 0-.9-.1-1.26-.3-.35-.2-.62-.48-.81-.85s-.28-.79-.28-1.29.1-.93.29-1.29.46-.65.81-.85.76-.31 1.25-.31.89.1 1.24.31c.35.2.61.49.8.86s.28.8.28 1.3-.09.91-.28 1.27c-.18.36-.45.64-.8.84s-.77.3-1.25.3Zm-.01-1c.3 0 .54-.07.72-.2s.32-.31.4-.52c.08-.22.13-.45.13-.7s-.04-.49-.13-.71a1.2 1.2 0 0 0-.4-.54c-.18-.13-.42-.2-.72-.2s-.54.07-.73.2-.32.31-.41.53-.13.46-.13.72.04.49.13.71.22.39.41.52c.18.13.42.19.72.19Zm-.58-4.41.94-1.45h1.17l-1.16 1.45h-.94Z" fill="#ffffff" data-color="1"></path>
        <path d="M121.13 107.96v-6.36h1.1v6.36z" fill="#ffffff" data-color="1"></path>
        <path d="M123.84 102.67c-.21 0-.38-.06-.5-.19s-.19-.29-.19-.5.07-.36.2-.49.3-.19.5-.19.36.06.5.19.21.29.21.5-.07.37-.2.5-.3.19-.5.19Zm-.55 5.29v-4.74h1.1v4.74z" fill="#ffffff" data-color="1"></path>
        <path d="M127.52 107.96c-.38 0-.7-.05-.95-.15s-.43-.27-.56-.5-.18-.53-.18-.92v-2.21h-.73v-.97h.73v-1.32h1.1v1.32h1.11v.97h-1.11v2.06c0 .24.04.42.13.55.08.13.27.19.57.19h.38v.97h-.48Z" fill="#ffffff" data-color="1"></path>
        <path d="M130.27 108.02q-.33 0-.63-.09c-.2-.06-.38-.15-.53-.27s-.28-.26-.37-.44a1.35 1.35 0 0 1-.14-.62q0-.465.18-.75c.12-.19.28-.34.49-.45s.44-.17.71-.21c.26-.04.54-.06.83-.06h.93c0-.21-.03-.39-.1-.54a.83.83 0 0 0-.31-.36 1 1 0 0 0-.54-.14c-.14 0-.28.02-.4.05s-.23.08-.32.15-.15.16-.18.27h-1.12c.04-.25.13-.46.26-.63.13-.18.29-.32.48-.44.19-.11.4-.2.62-.26.23-.06.46-.08.69-.08.69 0 1.19.2 1.51.59.32.4.47.95.47 1.67v2.56h-.97l-.03-.61c-.14.2-.3.35-.5.45-.19.1-.38.16-.56.18-.18.03-.33.04-.46.04Zm.22-.89c.24 0 .45-.04.64-.13s.33-.22.45-.38c.11-.16.17-.35.17-.56v-.15h-.86c-.14 0-.29 0-.43.01-.14 0-.27.03-.38.07s-.21.1-.27.18-.1.19-.1.33.04.26.11.35.17.16.3.21.25.07.39.07Z" fill="#ffffff" data-color="1"></path>
        <path d="M136.33 109.71v-6.49h1.03l.05.64c.19-.25.41-.43.67-.54s.54-.17.85-.17c.47 0 .86.11 1.16.32.31.22.53.51.68.87.15.37.23.78.23 1.24s-.08.88-.23 1.25c-.16.37-.39.66-.71.87s-.71.32-1.18.32c-.22 0-.42-.02-.61-.07-.18-.05-.35-.12-.49-.21s-.26-.19-.36-.31v2.27h-1.1Zm2.38-2.68c.31 0 .55-.07.72-.2.17-.14.3-.31.38-.53s.12-.45.12-.7-.04-.5-.12-.72q-.12-.33-.39-.54t-.72-.21c-.28 0-.51.07-.7.2s-.33.31-.43.54c-.1.22-.14.46-.14.72s.04.51.13.72.23.39.42.52.44.19.73.19Z" fill="#ffffff" data-color="1"></path>
        <path d="M143.4 108.02q-.33 0-.63-.09c-.2-.06-.38-.15-.53-.27s-.28-.26-.37-.44a1.35 1.35 0 0 1-.14-.62q0-.465.18-.75c.12-.19.28-.34.49-.45s.44-.17.71-.21c.26-.04.54-.06.83-.06h.93c0-.21-.03-.39-.1-.54a.83.83 0 0 0-.31-.36 1 1 0 0 0-.54-.14c-.14 0-.28.02-.4.05s-.23.08-.32.15-.15.16-.18.27h-1.12c.04-.25.13-.46.26-.63.13-.18.29-.32.48-.44.19-.11.4-.2.62-.26.23-.06.46-.08.69-.08.69 0 1.19.2 1.51.59.32.4.47.95.47 1.67v2.56h-.97l-.03-.61c-.14.2-.3.35-.5.45-.19.1-.38.16-.56.18-.18.03-.33.04-.46.04Zm.21-.89c.24 0 .45-.04.64-.13s.33-.22.45-.38c.11-.16.17-.35.17-.56v-.15h-.86c-.14 0-.29 0-.43.01-.14 0-.27.03-.38.07s-.21.1-.27.18-.1.19-.1.33.04.26.11.35.17.16.3.21.25.07.39.07Z" fill="#ffffff" data-color="1"></path>
        <path d="M146.95 107.96v-4.74h1l.06.62c.12-.18.26-.32.41-.42s.32-.17.49-.21q.27-.06.54-.06h.32v1.04h-.29c-.31 0-.58.06-.79.18-.22.12-.38.29-.49.51s-.16.5-.16.82v2.25h-1.1Z" fill="#ffffff" data-color="1"></path>
        <path d="M151.94 108.02q-.33 0-.63-.09c-.2-.06-.38-.15-.53-.27s-.28-.26-.37-.44a1.35 1.35 0 0 1-.14-.62q0-.465.18-.75c.12-.19.28-.34.49-.45s.44-.17.71-.21c.26-.04.54-.06.83-.06h.93c0-.21-.03-.39-.1-.54a.83.83 0 0 0-.31-.36 1 1 0 0 0-.54-.14c-.14 0-.28.02-.4.05s-.23.08-.32.15-.15.16-.18.27h-1.12c.04-.25.13-.46.26-.63.13-.18.29-.32.48-.44.19-.11.4-.2.62-.26.23-.06.46-.08.69-.08.69 0 1.19.2 1.51.59.32.4.47.95.47 1.67v2.56h-.97l-.03-.61c-.14.2-.3.35-.5.45-.19.1-.38.16-.56.18-.18.03-.33.04-.46.04Zm.21-.89c.24 0 .45-.04.64-.13s.33-.22.45-.38c.11-.16.17-.35.17-.56v-.15h-.86c-.14 0-.29 0-.43.01-.14 0-.27.03-.38.07s-.21.1-.27.18-.1.19-.1.33.04.26.11.35.17.16.3.21.25.07.39.07Z" fill="#ffffff" data-color="1"></path>
        <path d="M3.79 117.02q-.33 0-.63-.09c-.2-.06-.38-.15-.53-.27s-.28-.26-.37-.44a1.35 1.35 0 0 1-.14-.62q0-.465.18-.75c.12-.19.28-.34.49-.45s.44-.17.71-.21c.26-.04.54-.06.83-.06h.93c0-.21-.03-.39-.1-.54a.83.83 0 0 0-.31-.36 1 1 0 0 0-.54-.14c-.14 0-.28.02-.4.05s-.23.08-.32.15-.15.16-.18.27H2.29c.04-.25.13-.46.26-.63.13-.18.29-.32.48-.44.19-.11.4-.2.62-.26.23-.06.46-.08.69-.08.69 0 1.19.2 1.51.59.32.4.47.95.47 1.67v2.56h-.97l-.03-.61c-.14.2-.3.35-.5.45-.19.1-.38.16-.56.18-.18.03-.33.04-.46.04Zm.22-.89c.24 0 .45-.04.64-.13s.33-.22.45-.38c.11-.16.17-.35.17-.56v-.15h-.86c-.14 0-.29 0-.43.01-.14 0-.27.03-.38.07s-.21.1-.27.18-.1.19-.1.33.04.26.11.35.17.16.3.21.25.07.39.07Z" fill="#ffffff" data-color="1"></path>
        <path d="M6.46 118.72v-.97h.34c.19 0 .34-.03.43-.1s.16-.16.19-.27c.03-.12.04-.25.04-.39v-4.77h1.1v4.92c0 .36-.05.66-.15.89s-.26.41-.49.52c-.22.12-.52.17-.9.17h-.58Zm1.56-7.05c-.21 0-.38-.06-.5-.19s-.19-.29-.19-.5.07-.36.2-.49.3-.19.5-.19.36.06.5.19.21.29.21.5-.07.37-.2.5-.3.19-.5.19Z" fill="#ffffff" data-color="1"></path>
        <path d="M11.81 117.02c-.68 0-1.21-.18-1.57-.53q-.54-.525-.54-1.62v-2.66h1.1v2.58c0 .25.03.47.1.66s.18.33.33.43.35.15.58.15c.25 0 .45-.05.6-.16.15-.1.25-.25.31-.44s.09-.4.09-.64v-2.58h1.1v2.66c0 .74-.18 1.29-.55 1.63-.37.35-.88.52-1.54.52Z" fill="#ffffff" data-color="1"></path>
        <path d="M16.89 117.02c-.48 0-.88-.11-1.19-.33s-.54-.51-.7-.88c-.15-.37-.23-.77-.23-1.22s.08-.89.24-1.26.41-.66.73-.87.73-.32 1.21-.32a2.2 2.2 0 0 1 1.02.24c.15.08.28.19.38.32v-2.11h1.1v6.36h-1.06l-.02-.59c-.11.15-.25.27-.4.37s-.32.17-.51.22-.38.07-.58.07Zm.2-.99c.29 0 .53-.07.71-.2q.285-.21.42-.54a1.9 1.9 0 0 0 0-1.43c-.09-.22-.23-.39-.42-.52s-.42-.2-.71-.2q-.465 0-.72.21-.27.21-.39.54c-.12.33-.12.47-.12.72 0 .19.02.37.07.54.04.17.12.32.21.45s.22.24.38.31.35.11.58.11Z" fill="#ffffff" data-color="1"></path>
        <path d="M22.02 117.02q-.33 0-.63-.09c-.2-.06-.38-.15-.53-.27s-.28-.26-.37-.44a1.35 1.35 0 0 1-.14-.62q0-.465.18-.75c.12-.19.28-.34.49-.45s.44-.17.71-.21c.26-.04.54-.06.83-.06h.93c0-.21-.03-.39-.1-.54a.83.83 0 0 0-.31-.36 1 1 0 0 0-.54-.14c-.14 0-.28.02-.4.05s-.23.08-.32.15-.15.16-.18.27h-1.12c.04-.25.13-.46.26-.63.13-.18.29-.32.48-.44.19-.11.4-.2.62-.26.23-.06.46-.08.69-.08.69 0 1.19.2 1.51.59.32.4.47.95.47 1.67v2.56h-.97l-.03-.61c-.14.2-.3.35-.5.45-.19.1-.38.16-.56.18-.18.03-.33.04-.46.04Zm.22-.89c.24 0 .45-.04.64-.13s.33-.22.45-.38c.11-.16.17-.35.17-.56v-.15h-.86c-.14 0-.29 0-.43.01-.14 0-.27.03-.38.07s-.21.1-.27.18-.1.19-.1.33.04.26.11.35.17.16.3.21.25.07.39.07Z" fill="#ffffff" data-color="1"></path>
        <path d="M25.58 116.96v-4.74h1l.06.62c.12-.18.26-.32.41-.42s.32-.17.49-.21q.27-.06.54-.06h.32v1.04h-.29c-.31 0-.58.06-.79.18-.22.12-.38.29-.49.51s-.16.5-.16.82v2.25h-1.1Z" fill="#ffffff" data-color="1"></path>
        <path d="M33.07 117.02q-.33 0-.63-.09c-.2-.06-.38-.15-.53-.27s-.28-.26-.37-.44a1.35 1.35 0 0 1-.14-.62q0-.465.18-.75c.12-.19.28-.34.49-.45s.44-.17.71-.21c.26-.04.54-.06.83-.06h.93c0-.21-.03-.39-.1-.54a.83.83 0 0 0-.31-.36 1 1 0 0 0-.54-.14c-.14 0-.28.02-.4.05s-.23.08-.32.15-.15.16-.18.27h-1.12c.04-.25.13-.46.26-.63.13-.18.29-.32.48-.44.19-.11.4-.2.62-.26.23-.06.46-.08.69-.08.69 0 1.19.2 1.51.59.32.4.47.95.47 1.67v2.56h-.97l-.03-.61c-.14.2-.3.35-.5.45-.19.1-.38.16-.56.18-.18.03-.33.04-.46.04Zm.21-.89c.24 0 .45-.04.64-.13s.33-.22.45-.38c.11-.16.17-.35.17-.56v-.15h-.86c-.14 0-.29 0-.43.01-.14 0-.27.03-.38.07s-.21.1-.27.18-.1.19-.1.33.04.26.11.35.17.16.3.21.25.07.39.07Z" fill="#ffffff" data-color="1"></path>
        <path d="M39.12 118.71v-6.49h1.03l.05.64c.19-.25.41-.43.67-.54s.54-.17.85-.17c.47 0 .86.11 1.16.32.31.22.53.51.68.87.15.37.23.78.23 1.24s-.08.88-.23 1.25c-.16.37-.39.66-.71.87s-.71.32-1.18.32c-.22 0-.42-.02-.61-.07-.18-.05-.35-.12-.49-.21s-.26-.19-.36-.31v2.27h-1.1Zm2.38-2.68c.31 0 .55-.07.72-.2.17-.14.3-.31.38-.53s.12-.45.12-.7-.04-.5-.12-.72q-.12-.33-.39-.54t-.72-.21c-.28 0-.51.07-.7.2s-.33.31-.43.54c-.1.22-.14.46-.14.72s.04.51.13.72.23.39.42.52.44.19.73.19Z" fill="#ffffff" data-color="1"></path>
        <path d="M44.68 116.96v-4.74h1l.06.62c.12-.18.26-.32.41-.42s.32-.17.49-.21q.27-.06.54-.06h.32v1.04h-.29c-.31 0-.58.06-.79.18-.22.12-.38.29-.49.51s-.16.5-.16.82v2.25h-1.1Z" fill="#ffffff" data-color="1"></path>
        <path d="M50.32 117.02c-.49 0-.9-.1-1.26-.3-.35-.2-.62-.48-.81-.85s-.28-.79-.28-1.29.1-.93.29-1.29.46-.65.81-.85.76-.31 1.25-.31.89.1 1.24.31c.35.2.61.49.8.86s.28.8.28 1.3-.09.91-.28 1.27c-.18.36-.45.64-.8.84s-.77.3-1.25.3Zm-.01-1c.3 0 .54-.07.72-.2s.32-.31.4-.52c.08-.22.13-.45.13-.7s-.04-.49-.13-.71a1.2 1.2 0 0 0-.4-.54c-.18-.13-.42-.2-.72-.2s-.54.07-.73.2-.32.31-.41.53-.13.46-.13.72.04.49.13.71.22.39.41.52c.18.13.42.19.72.19Z" fill="#ffffff" data-color="1"></path>
        <path d="M53.52 116.96v-4.74h1.01l.07.54c.12-.16.25-.29.39-.37.14-.09.29-.15.44-.18.15-.04.3-.05.44-.05.3 0 .56.06.77.18s.38.3.5.54c.12-.17.25-.3.4-.41.15-.1.31-.18.48-.23s.34-.08.53-.08c.37 0 .66.08.88.23s.38.36.49.63c.1.27.15.57.15.91v3.04h-1.1v-2.69c0-.12 0-.25-.02-.38s-.04-.25-.09-.37a.7.7 0 0 0-.22-.28c-.1-.07-.23-.11-.41-.11s-.32.04-.43.11-.2.17-.27.3c-.07.12-.12.26-.14.4-.03.15-.04.29-.04.44v2.57h-1.1v-2.7c0-.11 0-.23-.02-.36-.01-.13-.04-.25-.09-.37s-.12-.21-.22-.28a.7.7 0 0 0-.41-.11q-.375 0-.57.21c-.13.14-.22.31-.26.5s-.07.39-.07.57v2.55h-1.1Z" fill="#ffffff" data-color="1"></path>
        <path d="M63.26 117.02c-.49 0-.9-.1-1.26-.3-.35-.2-.62-.48-.81-.85s-.28-.79-.28-1.29.1-.93.29-1.29.46-.65.81-.85.76-.31 1.25-.31.89.1 1.24.31c.35.2.61.49.8.86s.28.8.28 1.3-.09.91-.28 1.27c-.18.36-.45.64-.8.84s-.77.3-1.25.3Zm-.01-1c.3 0 .54-.07.72-.2s.32-.31.4-.52c.08-.22.13-.45.13-.7s-.04-.49-.13-.71a1.2 1.2 0 0 0-.4-.54c-.18-.13-.42-.2-.72-.2s-.54.07-.73.2-.32.31-.41.53-.13.46-.13.72.04.49.13.71.22.39.41.52c.18.13.42.19.72.19Z" fill="#ffffff" data-color="1"></path>
        <path d="m67.67 116.96-1.72-4.74h1.22l1.25 3.81 1.24-3.81h1.21l-1.72 4.74z" fill="#ffffff" data-color="1"></path>
        <path d="M73.54 117.02c-.49 0-.91-.1-1.26-.31-.34-.2-.61-.49-.78-.85s-.27-.79-.27-1.26.09-.91.28-1.27c.18-.37.45-.66.79-.87s.76-.32 1.25-.32c.36 0 .67.06.95.19.27.13.5.3.68.53.18.22.32.47.41.76.09.28.13.58.13.89 0 .07-.01.14-.02.21 0 .07-.01.14-.03.22h-3.33c.02.21.07.4.17.58s.23.31.4.41.38.15.64.15c.15 0 .29-.02.43-.06s.26-.1.36-.18q.165-.12.21-.3h1.1c-.08.34-.22.62-.43.84s-.46.38-.75.48-.6.15-.92.15Zm-1.19-2.9h2.29c0-.2-.04-.38-.13-.54s-.22-.29-.38-.38c-.17-.09-.36-.14-.6-.14q-.375 0-.63.15a1 1 0 0 0-.39.4q-.135.24-.15.51Z" fill="#ffffff" data-color="1"></path>
        <path d="M76.58 116.96v-4.74h1l.06.62c.12-.18.26-.32.41-.42s.32-.17.49-.21q.27-.06.54-.06h.32v1.04h-.29c-.31 0-.58.06-.79.18-.22.12-.38.29-.49.51s-.16.5-.16.82v2.25h-1.1Z" fill="#ffffff" data-color="1"></path>
        <path d="M82.98 116.96v-3.77h-.74v-.97h.74v-.45c0-.36.05-.66.16-.89s.28-.4.52-.51.54-.16.91-.16h.7v.97h-.58c-.16 0-.29.03-.38.08s-.15.13-.19.24-.06.23-.06.38v.33h1.21v.97h-1.21v3.77h-1.09Z" fill="#ffffff" data-color="1"></path>
        <path d="M88 117.02c-.49 0-.91-.1-1.26-.31-.34-.2-.61-.49-.78-.85s-.27-.79-.27-1.26.09-.91.28-1.27c.18-.37.45-.66.79-.87s.76-.32 1.25-.32c.36 0 .67.06.95.19.27.13.5.3.68.53.18.22.32.47.41.76.09.28.13.58.13.89 0 .07-.01.14-.02.21 0 .07-.01.14-.03.22H86.8c.02.21.07.4.17.58s.23.31.4.41.38.15.64.15c.15 0 .29-.02.43-.06s.26-.1.36-.18q.165-.12.21-.3h1.1c-.08.34-.22.62-.43.84s-.46.38-.75.48-.6.15-.92.15Zm-1.19-2.9h2.29c0-.2-.04-.38-.13-.54s-.22-.29-.38-.38c-.17-.09-.36-.14-.6-.14q-.375 0-.63.15a1 1 0 0 0-.39.4q-.135.24-.15.51Z" fill="#ffffff" data-color="1"></path>
        <path d="M90.86 116.96v-.85l2.5-2.92h-2.5v-.97h3.92v.84l-2.52 2.93h2.52v.97z" fill="#ffffff" data-color="1"></path>
        <path d="M97.78 117.02c-.49 0-.91-.1-1.26-.31-.34-.2-.61-.49-.78-.85s-.27-.79-.27-1.26.09-.91.28-1.27c.18-.37.45-.66.79-.87s.76-.32 1.25-.32c.36 0 .67.06.95.19.27.13.5.3.68.53.18.22.32.47.41.76.09.28.13.58.13.89 0 .07-.01.14-.02.21 0 .07-.01.14-.03.22h-3.33c.02.21.07.4.17.58s.23.31.4.41.38.15.64.15c.15 0 .29-.02.43-.06s.26-.1.36-.18q.165-.12.21-.3h1.1c-.08.34-.22.62-.43.84s-.46.38-.75.48-.6.15-.92.15Zm-1.19-2.9h2.29c0-.2-.04-.38-.13-.54s-.22-.29-.38-.38c-.17-.09-.36-.14-.6-.14q-.375 0-.63.15a1 1 0 0 0-.39.4q-.135.24-.15.51Z" fill="#ffffff" data-color="1"></path>
        <path d="M102.64 117.02c-.23 0-.45-.02-.68-.07q-.345-.075-.63-.24a1.25 1.25 0 0 1-.5-.46c-.13-.19-.22-.43-.26-.72h1.11c.05.13.12.24.23.32s.23.14.37.18.28.06.42.06c.08 0 .17 0 .27-.02.1-.01.19-.04.28-.07.09-.04.16-.09.21-.16s.08-.16.08-.28c0-.11-.03-.19-.09-.26a.7.7 0 0 0-.24-.15c-.1-.04-.22-.07-.37-.09-.26-.05-.53-.11-.83-.18a2.2 2.2 0 0 1-.76-.3.9.9 0 0 1-.23-.19c-.07-.07-.12-.15-.17-.24s-.08-.18-.1-.28q-.03-.15-.03-.33c0-.25.05-.47.16-.64.11-.18.25-.32.42-.43.18-.11.38-.19.61-.25.23-.05.46-.08.7-.08.32 0 .62.05.88.15s.48.26.66.47.28.48.32.8h-1.04q-.045-.225-.27-.36c-.225-.135-.35-.13-.58-.13-.08 0-.17 0-.26.02-.09.01-.17.04-.26.07a.43.43 0 0 0-.28.39c0 .09.02.17.07.23.04.07.11.12.21.17.09.04.2.08.33.11.2.04.42.08.64.13.22.04.41.08.58.13.19.05.37.13.52.23q.24.15.36.39c.09.16.13.36.13.61q0 .435-.18.72c-.18.285-.27.34-.46.45s-.4.19-.64.23c-.23.05-.46.07-.69.07Z" fill="#ffffff" data-color="1"></path>
        <path d="M110.01 117.02c-.49 0-.91-.1-1.24-.3a1.9 1.9 0 0 1-.76-.85 3 3 0 0 1-.26-1.27c0-.48.09-.91.27-1.27.18-.37.44-.66.79-.87s.77-.32 1.27-.32c.37 0 .69.06.98.19s.52.31.69.55c.18.24.29.54.34.9h-1.08a.86.86 0 0 0-.36-.5c-.17-.11-.36-.16-.59-.16-.31 0-.55.07-.72.22-.18.15-.3.33-.38.55q-.12.33-.12.69c0 .36.04.49.13.71.08.22.21.39.39.53.18.13.41.2.69.2.23 0 .43-.05.62-.15.18-.1.3-.27.36-.5h1.12c-.04.37-.16.67-.37.91-.2.24-.45.42-.76.54q-.465.18-.99.18Z" fill="#ffffff" data-color="1"></path>
        <path d="M115.12 117.02c-.49 0-.9-.1-1.26-.3-.35-.2-.62-.48-.81-.85s-.28-.79-.28-1.29.1-.93.29-1.29.46-.65.81-.85.76-.31 1.25-.31.89.1 1.24.31c.35.2.61.49.8.86s.28.8.28 1.3-.09.91-.28 1.27c-.18.36-.45.64-.8.84s-.77.3-1.25.3Zm-.01-1c.3 0 .54-.07.72-.2s.32-.31.4-.52c.08-.22.13-.45.13-.7s-.04-.49-.13-.71a1.2 1.2 0 0 0-.4-.54c-.18-.13-.42-.2-.72-.2s-.54.07-.73.2-.32.31-.41.53-.13.46-.13.72.04.49.13.71.22.39.41.52c.18.13.42.19.72.19Z" fill="#ffffff" data-color="1"></path>
        <path d="M118.33 116.96v-4.74h1.01l.07.54c.12-.16.25-.29.39-.37.14-.09.29-.15.44-.18.15-.04.3-.05.44-.05.3 0 .56.06.77.18s.38.3.5.54c.12-.17.25-.3.4-.41.15-.1.31-.18.48-.23s.34-.08.53-.08c.37 0 .66.08.88.23s.38.36.49.63c.1.27.15.57.15.91v3.04h-1.1v-2.69c0-.12 0-.25-.02-.38s-.04-.25-.09-.37a.7.7 0 0 0-.22-.28c-.1-.07-.23-.11-.41-.11s-.32.04-.43.11-.2.17-.27.3c-.07.12-.12.26-.14.4-.03.15-.04.29-.04.44v2.57h-1.1v-2.7c0-.11 0-.23-.02-.36-.01-.13-.04-.25-.09-.37s-.12-.21-.22-.28a.7.7 0 0 0-.41-.11q-.375 0-.57.21c-.13.14-.22.31-.26.5s-.07.39-.07.57v2.55h-1.1Z" fill="#ffffff" data-color="1"></path>
        <path d="M128.4 116.96v-4.74h1.01l.07.54c.12-.16.25-.29.39-.37.14-.09.29-.15.44-.18.15-.04.3-.05.44-.05.3 0 .56.06.77.18s.38.3.5.54c.12-.17.25-.3.4-.41.15-.1.31-.18.48-.23s.34-.08.53-.08c.37 0 .66.08.88.23s.38.36.49.63c.1.27.15.57.15.91v3.04h-1.1v-2.69c0-.12 0-.25-.02-.38s-.04-.25-.09-.37a.7.7 0 0 0-.22-.28c-.1-.07-.23-.11-.41-.11s-.32.04-.43.11-.2.17-.27.3c-.07.12-.12.26-.14.4-.03.15-.04.29-.04.44v2.57h-1.1v-2.7c0-.11 0-.23-.02-.36-.01-.13-.04-.25-.09-.37s-.12-.21-.22-.28a.7.7 0 0 0-.41-.11q-.375 0-.57.21c-.13.14-.22.31-.26.5s-.07.39-.07.57v2.55h-1.1Z" fill="#ffffff" data-color="1"></path>
        <path d="M138.09 117.02c-.49 0-.91-.1-1.26-.31-.34-.2-.61-.49-.78-.85s-.27-.79-.27-1.26.09-.91.28-1.27c.18-.37.45-.66.79-.87s.76-.32 1.25-.32c.36 0 .67.06.95.19.27.13.5.3.68.53.18.22.32.47.41.76.09.28.13.58.13.89 0 .07-.01.14-.02.21 0 .07-.01.14-.03.22h-3.33c.02.21.07.4.17.58s.23.31.4.41.38.15.64.15c.15 0 .29-.02.43-.06s.26-.1.36-.18q.165-.12.21-.3h1.1c-.08.34-.22.62-.43.84s-.46.38-.75.48-.6.15-.92.15Zm-1.19-2.9h2.29c0-.2-.04-.38-.13-.54s-.22-.29-.38-.38c-.17-.09-.36-.14-.6-.14q-.375 0-.63.15a1 1 0 0 0-.39.4q-.135.24-.15.51Z" fill="#ffffff" data-color="1"></path>
        <path d="M141.13 116.96v-4.74h1.03l.06.6c.13-.17.27-.3.44-.4s.35-.17.53-.21c.19-.04.36-.07.52-.07.45 0 .81.1 1.07.3s.45.46.55.79c.11.33.16.7.16 1.11v2.62h-1.1v-2.44c0-.17-.01-.34-.04-.51-.02-.17-.07-.31-.14-.45-.07-.13-.17-.24-.29-.32s-.29-.12-.5-.12q-.39 0-.66.21c-.18.14-.32.32-.41.55s-.13.49-.13.79v2.28h-1.1Z" fill="#ffffff" data-color="1"></path>
        <path d="M148.7 117.02c-.49 0-.9-.1-1.26-.3-.35-.2-.62-.48-.81-.85s-.28-.79-.28-1.29.1-.93.29-1.29.46-.65.81-.85.76-.31 1.25-.31.89.1 1.24.31c.35.2.61.49.8.86s.28.8.28 1.3-.09.91-.28 1.27c-.18.36-.45.64-.8.84s-.77.3-1.25.3Zm-.01-1c.3 0 .54-.07.72-.2s.32-.31.4-.52c.08-.22.13-.45.13-.7s-.04-.49-.13-.71a1.2 1.2 0 0 0-.4-.54c-.18-.13-.42-.2-.72-.2s-.54.07-.73.2-.32.31-.41.53-.13.46-.13.72.04.49.13.71.22.39.41.52c.18.13.42.19.72.19Z" fill="#ffffff" data-color="1"></path>
        <path d="M153.72 117.02c-.23 0-.45-.02-.68-.07q-.345-.075-.63-.24a1.25 1.25 0 0 1-.5-.46c-.13-.19-.22-.43-.26-.72h1.11c.05.13.12.24.23.32s.23.14.37.18.28.06.42.06c.08 0 .17 0 .27-.02.1-.01.19-.04.28-.07.09-.04.16-.09.21-.16s.08-.16.08-.28c0-.11-.03-.19-.09-.26a.7.7 0 0 0-.24-.15c-.1-.04-.22-.07-.37-.09-.26-.05-.53-.11-.83-.18a2.2 2.2 0 0 1-.76-.3.9.9 0 0 1-.23-.19c-.07-.07-.12-.15-.17-.24s-.08-.18-.1-.28q-.03-.15-.03-.33c0-.25.05-.47.16-.64.11-.18.25-.32.42-.43.18-.11.38-.19.61-.25.23-.05.46-.08.7-.08.32 0 .62.05.88.15s.48.26.66.47.28.48.32.8h-1.04q-.045-.225-.27-.36c-.225-.135-.35-.13-.58-.13-.08 0-.17 0-.26.02-.09.01-.17.04-.26.07a.43.43 0 0 0-.28.39c0 .09.02.17.07.23.04.07.11.12.21.17.09.04.2.08.33.11.2.04.42.08.64.13.22.04.41.08.58.13.19.05.37.13.52.23q.24.15.36.39c.09.16.13.36.13.61q0 .435-.18.72c-.18.285-.27.34-.46.45s-.4.19-.64.23c-.23.05-.46.07-.69.07Z" fill="#ffffff" data-color="1"></path>
        <path d="M-4.68 126.02c-.49 0-.9-.1-1.26-.3-.35-.2-.62-.48-.81-.85s-.28-.79-.28-1.29.1-.93.29-1.29.46-.65.81-.85.76-.31 1.25-.31.89.1 1.24.31c.35.2.61.49.8.86s.28.8.28 1.3-.09.91-.28 1.27c-.18.36-.45.64-.8.84s-.77.3-1.25.3Zm-.01-1c.3 0 .54-.07.72-.2s.32-.31.4-.52c.08-.22.13-.45.13-.7s-.04-.49-.13-.71a1.2 1.2 0 0 0-.4-.54c-.18-.13-.42-.2-.72-.2s-.54.07-.73.2-.32.31-.41.53-.13.46-.13.72.04.49.13.71.22.39.41.52c.18.13.42.19.72.19Z" fill="#ffffff" data-color="1"></path>
        <path d="M.46 126.02c-.48 0-.88-.11-1.19-.33s-.54-.51-.7-.88c-.15-.37-.23-.77-.23-1.22s.08-.89.24-1.26.41-.66.73-.87.73-.32 1.21-.32a2.2 2.2 0 0 1 1.02.24c.15.08.28.19.38.32v-2.11h1.1v6.36H1.96l-.02-.59c-.11.15-.25.27-.4.37s-.32.17-.51.22-.38.07-.58.07Zm.21-.99c.29 0 .53-.07.71-.2q.285-.21.42-.54a1.9 1.9 0 0 0 0-1.43c-.09-.22-.23-.39-.42-.52s-.42-.2-.71-.2q-.465 0-.72.21-.27.21-.39.54c-.12.33-.12.47-.12.72 0 .19.02.37.07.54.04.17.12.32.21.45s.22.24.38.31.35.11.58.11Z" fill="#ffffff" data-color="1"></path>
        <path d="M6.26 126.02c-.49 0-.9-.1-1.26-.3-.35-.2-.62-.48-.81-.85s-.28-.79-.28-1.29.1-.93.29-1.29.46-.65.81-.85.76-.31 1.25-.31.89.1 1.24.31c.35.2.61.49.8.86s.28.8.28 1.3-.09.91-.28 1.27c-.18.36-.45.64-.8.84s-.77.3-1.25.3Zm-.01-1c.3 0 .54-.07.72-.2s.32-.31.4-.52c.08-.22.13-.45.13-.7s-.04-.49-.13-.71a1.2 1.2 0 0 0-.4-.54c-.18-.13-.42-.2-.72-.2s-.54.07-.73.2-.32.31-.41.53-.13.46-.13.72.04.49.13.71.22.39.41.52c.18.13.42.19.72.19Z" fill="#ffffff" data-color="1"></path>
        <path d="M9.46 125.96v-4.74h1l.06.62c.12-.18.26-.32.41-.42s.32-.17.49-.21q.27-.06.54-.06h.32v1.04h-.29c-.31 0-.58.06-.79.18-.22.12-.38.29-.49.51s-.16.5-.16.82v2.25h-1.1Z" fill="#ffffff" data-color="1"></path>
        <path d="M17.56 126.02c-.49 0-.91-.1-1.26-.31-.34-.2-.61-.49-.78-.85s-.27-.79-.27-1.26.09-.91.28-1.27c.18-.37.45-.66.79-.87s.76-.32 1.25-.32c.36 0 .67.06.95.19.27.13.5.3.68.53.18.22.32.47.41.76.09.28.13.58.13.89 0 .07-.01.14-.02.21 0 .07-.01.14-.03.22h-3.33c.02.21.07.4.17.58s.23.31.4.41.38.15.64.15c.15 0 .29-.02.43-.06s.26-.1.36-.18q.165-.12.21-.3h1.1c-.08.34-.22.62-.43.84s-.46.38-.75.48-.6.15-.92.15Zm-1.19-2.9h2.29c0-.2-.04-.38-.13-.54s-.22-.29-.38-.38c-.17-.09-.36-.14-.6-.14q-.375 0-.63.15a1 1 0 0 0-.39.4q-.135.24-.15.51Z" fill="#ffffff" data-color="1"></path>
        <path d="M23.1 125.96v-4.74h1.01l.07.54c.12-.16.25-.29.39-.37.14-.09.29-.15.44-.18.15-.04.3-.05.44-.05.3 0 .56.06.77.18s.38.3.5.54c.12-.17.25-.3.4-.41.15-.1.31-.18.48-.23s.34-.08.53-.08c.37 0 .66.08.88.23s.38.36.49.63c.1.27.15.57.15.91v3.04h-1.1v-2.69c0-.12 0-.25-.02-.38s-.04-.25-.09-.37a.7.7 0 0 0-.22-.28c-.1-.07-.23-.11-.41-.11s-.32.04-.43.11-.2.17-.27.3c-.07.12-.12.26-.14.4-.03.15-.04.29-.04.44v2.57h-1.1v-2.7c0-.11 0-.23-.02-.36-.01-.13-.04-.25-.09-.37s-.12-.21-.22-.28a.7.7 0 0 0-.41-.11q-.375 0-.57.21c-.13.14-.22.31-.26.5s-.07.39-.07.57v2.55h-1.1Z" fill="#ffffff" data-color="1"></path>
        <path d="M32.18 126.02q-.33 0-.63-.09c-.2-.06-.38-.15-.53-.27s-.28-.26-.37-.44a1.35 1.35 0 0 1-.14-.62q0-.465.18-.75c.12-.19.28-.34.49-.45s.44-.17.71-.21c.26-.04.54-.06.83-.06h.93c0-.21-.03-.39-.1-.54a.83.83 0 0 0-.31-.36 1 1 0 0 0-.54-.14c-.14 0-.28.02-.4.05s-.23.08-.32.15-.15.16-.18.27h-1.12c.04-.25.13-.46.26-.63.13-.18.29-.32.48-.44.19-.11.4-.2.62-.26.23-.06.46-.08.69-.08.69 0 1.19.2 1.51.59.32.4.47.95.47 1.67v2.56h-.97l-.03-.61c-.14.2-.3.35-.5.45-.19.1-.38.16-.56.18-.18.03-.33.04-.46.04Zm.22-.89c.24 0 .45-.04.64-.13s.33-.22.45-.38c.11-.16.17-.35.17-.56v-.15h-.86c-.14 0-.29 0-.43.01-.14 0-.27.03-.38.07s-.21.1-.27.18-.1.19-.1.33.04.26.11.35.17.16.3.21.25.07.39.07Z" fill="#ffffff" data-color="1"></path>
        <path d="M36.29 120.67c-.21 0-.38-.06-.5-.19s-.19-.29-.19-.5.07-.36.2-.49.3-.19.5-.19.36.06.5.19.21.29.21.5-.07.37-.2.5-.3.19-.5.19Zm-.55 5.29v-4.74h1.1v4.74z" fill="#ffffff" data-color="1"></path>
        <path d="M39.72 126.02c-.23 0-.45-.02-.68-.07q-.345-.075-.63-.24a1.25 1.25 0 0 1-.5-.46c-.13-.19-.22-.43-.26-.72h1.11c.05.13.12.24.23.32s.23.14.37.18.28.06.42.06c.08 0 .17 0 .27-.02.1-.01.19-.04.28-.07.09-.04.16-.09.21-.16s.08-.16.08-.28c0-.11-.03-.19-.09-.26a.7.7 0 0 0-.24-.15c-.1-.04-.22-.07-.37-.09-.26-.05-.53-.11-.83-.18a2.2 2.2 0 0 1-.76-.3.9.9 0 0 1-.23-.19c-.07-.07-.12-.15-.17-.24s-.08-.18-.1-.28q-.03-.15-.03-.33c0-.25.05-.47.16-.64.11-.18.25-.32.42-.43.18-.11.38-.19.61-.25.23-.05.46-.08.7-.08.32 0 .62.05.88.15s.48.26.66.47.28.48.32.8h-1.04q-.045-.225-.27-.36c-.225-.135-.35-.13-.58-.13-.08 0-.17 0-.26.02-.09.01-.17.04-.26.07a.43.43 0 0 0-.28.39c0 .09.02.17.07.23.04.07.11.12.21.17.09.04.2.08.33.11.2.04.42.08.64.13.22.04.41.08.58.13.19.05.37.13.52.23q.24.15.36.39c.09.16.13.36.13.61q0 .435-.18.72c-.18.285-.27.34-.46.45s-.4.19-.64.23c-.23.05-.46.07-.69.07Z" fill="#ffffff" data-color="1"></path>
        <path d="M45.42 125.96v-3.77h-.74v-.97h.74v-.45c0-.36.05-.66.16-.89s.28-.4.52-.51.54-.16.91-.16h.7v.97h-.58c-.16 0-.29.03-.38.08s-.15.13-.19.24-.06.23-.06.38v.33h1.21v.97H46.5v3.77h-1.09Z" fill="#ffffff" data-color="1"></path>
        <path d="M48.95 120.67c-.21 0-.38-.06-.5-.19s-.19-.29-.19-.5.07-.36.2-.49.3-.19.5-.19.36.06.5.19.21.29.21.5-.07.37-.2.5-.3.19-.5.19Zm-.55 5.29v-4.74h1.1v4.74z" fill="#ffffff" data-color="1"></path>
        <path d="M50.56 125.96v-4.74h1l.06.62c.12-.18.26-.32.41-.42s.32-.17.49-.21q.27-.06.54-.06h.32v1.04h-.29c-.31 0-.58.06-.79.18-.22.12-.38.29-.49.51s-.16.5-.16.82v2.25h-1.1Z" fill="#ffffff" data-color="1"></path>
        <path d="M54.04 125.96v-4.74h1.01l.07.54c.12-.16.25-.29.39-.37.14-.09.29-.15.44-.18.15-.04.3-.05.44-.05.3 0 .56.06.77.18s.38.3.5.54c.12-.17.25-.3.4-.41.15-.1.31-.18.48-.23s.34-.08.53-.08c.37 0 .66.08.88.23s.38.36.49.63c.1.27.15.57.15.91v3.04h-1.1v-2.69c0-.12 0-.25-.02-.38s-.04-.25-.09-.37a.7.7 0 0 0-.22-.28c-.1-.07-.23-.11-.41-.11s-.32.04-.43.11-.2.17-.27.3c-.07.12-.12.26-.14.4-.03.15-.04.29-.04.44v2.57h-1.1v-2.7c0-.11 0-.23-.02-.36-.01-.13-.04-.25-.09-.37s-.12-.21-.22-.28a.7.7 0 0 0-.41-.11q-.375 0-.57.21c-.13.14-.22.31-.26.5s-.07.39-.07.57v2.55h-1.1Z" fill="#ffffff" data-color="1"></path>
        <path d="M63.73 126.02c-.49 0-.91-.1-1.26-.31-.34-.2-.61-.49-.78-.85s-.27-.79-.27-1.26.09-.91.28-1.27c.18-.37.45-.66.79-.87s.76-.32 1.25-.32c.36 0 .67.06.95.19.27.13.5.3.68.53.18.22.32.47.41.76.09.28.13.58.13.89 0 .07-.01.14-.02.21 0 .07-.01.14-.03.22h-3.33c.02.21.07.4.17.58s.23.31.4.41.38.15.64.15c.15 0 .29-.02.43-.06s.26-.1.36-.18q.165-.12.21-.3h1.1c-.08.34-.22.62-.43.84s-.46.38-.75.48-.6.15-.92.15Zm-1.19-2.9h2.29c0-.2-.04-.38-.13-.54s-.22-.29-.38-.38c-.17-.09-.36-.14-.6-.14q-.375 0-.63.15a1 1 0 0 0-.39.4q-.135.24-.15.51Z" fill="#ffffff" data-color="1"></path>
        <path d="M68.59 126.02c-.23 0-.45-.02-.68-.07q-.345-.075-.63-.24a1.25 1.25 0 0 1-.5-.46c-.13-.19-.22-.43-.26-.72h1.11c.05.13.12.24.23.32s.23.14.37.18.28.06.42.06c.08 0 .17 0 .27-.02.1-.01.19-.04.28-.07.09-.04.16-.09.21-.16s.08-.16.08-.28c0-.11-.03-.19-.09-.26a.7.7 0 0 0-.24-.15c-.1-.04-.22-.07-.37-.09-.26-.05-.53-.11-.83-.18a2.2 2.2 0 0 1-.76-.3.9.9 0 0 1-.23-.19c-.07-.07-.12-.15-.17-.24s-.08-.18-.1-.28q-.03-.15-.03-.33c0-.25.05-.47.16-.64.11-.18.25-.32.42-.43.18-.11.38-.19.61-.25.23-.05.46-.08.7-.08.32 0 .62.05.88.15s.48.26.66.47.28.48.32.8h-1.04q-.045-.225-.27-.36c-.225-.135-.35-.13-.58-.13-.08 0-.17 0-.26.02-.09.01-.17.04-.26.07a.43.43 0 0 0-.28.39c0 .09.02.17.07.23.04.07.11.12.21.17.09.04.2.08.33.11.2.04.42.08.64.13.22.04.41.08.58.13.19.05.37.13.52.23q.24.15.36.39c.09.16.13.36.13.61q0 .435-.18.72c-.18.285-.27.34-.46.45s-.4.19-.64.23c-.23.05-.46.07-.69.07Z" fill="#ffffff" data-color="1"></path>
        <path d="m71.69 127.25-.31-.48c.09-.05.18-.12.28-.2.1-.09.18-.18.27-.29.08-.1.14-.2.17-.28a.83.83 0 0 1-.45-.19c-.12-.11-.18-.27-.18-.47s.07-.38.22-.49c.14-.12.31-.18.49-.18.23 0 .41.08.54.26.13.17.2.39.2.67 0 .25-.06.48-.17.71-.12.23-.27.43-.45.59-.18.17-.38.29-.58.36Z" fill="#ffffff" data-color="1"></path>
        <path d="M76.55 125.96v-3.77h-.74v-.97h.74v-.45c0-.36.05-.66.16-.89s.28-.4.52-.51.54-.16.91-.16h.7v.97h-.58c-.16 0-.29.03-.38.08s-.15.13-.19.24-.06.23-.06.38v.33h1.21v.97h-1.21v3.77h-1.09Z" fill="#ffffff" data-color="1"></path>
        <path d="M81.04 126.02q-.33 0-.63-.09c-.2-.06-.38-.15-.53-.27s-.28-.26-.37-.44a1.35 1.35 0 0 1-.14-.62q0-.465.18-.75c.12-.19.28-.34.49-.45s.44-.17.71-.21c.26-.04.54-.06.83-.06h.93c0-.21-.03-.39-.1-.54a.83.83 0 0 0-.31-.36 1 1 0 0 0-.54-.14c-.14 0-.28.02-.4.05s-.23.08-.32.15-.15.16-.18.27h-1.12c.04-.25.13-.46.26-.63.13-.18.29-.32.48-.44.19-.11.4-.2.62-.26.23-.06.46-.08.69-.08.69 0 1.19.2 1.51.59.32.4.47.95.47 1.67v2.56h-.97l-.03-.61c-.14.2-.3.35-.5.45-.19.1-.38.16-.56.18-.18.03-.33.04-.46.04Zm.21-.89c.24 0 .45-.04.64-.13s.33-.22.45-.38c.11-.16.17-.35.17-.56v-.15h-.86c-.14 0-.29 0-.43.01-.14 0-.27.03-.38.07s-.21.1-.27.18-.1.19-.1.33.04.26.11.35.17.16.3.21.25.07.39.07Z" fill="#ffffff" data-color="1"></path>
        <path d="M86.68 126.02c-.49 0-.91-.1-1.24-.3a1.9 1.9 0 0 1-.76-.85 3 3 0 0 1-.26-1.27c0-.48.09-.91.27-1.27.18-.37.44-.66.79-.87s.77-.32 1.27-.32c.37 0 .69.06.98.19s.52.31.69.55c.18.24.29.54.34.9h-1.08a.86.86 0 0 0-.36-.5c-.17-.11-.36-.16-.59-.16-.31 0-.55.07-.72.22-.18.15-.3.33-.38.55q-.12.33-.12.69c0 .36.04.49.13.71.08.22.21.39.39.53.18.13.41.2.69.2.23 0 .43-.05.62-.15.18-.1.3-.27.36-.5h1.12c-.04.37-.16.67-.37.91-.2.24-.45.42-.76.54q-.465.18-.99.18Z" fill="#ffffff" data-color="1"></path>
        <path d="M90.17 120.67c-.21 0-.38-.06-.5-.19s-.19-.29-.19-.5.07-.36.2-.49.3-.19.5-.19.36.06.5.19.21.29.21.5-.07.37-.2.5-.3.19-.5.19Zm-.55 5.29v-4.74h1.1v4.74z" fill="#ffffff" data-color="1"></path>
        <path d="M91.78 125.96v-6.36h1.1v6.36z" fill="#ffffff" data-color="1"></path>
        <path d="M94.49 120.67c-.21 0-.38-.06-.5-.19s-.19-.29-.19-.5.07-.36.2-.49.3-.19.5-.19.36.06.5.19.21.29.21.5-.07.37-.2.5-.3.19-.5.19Zm-.55 5.29v-4.74h1.1v4.74z" fill="#ffffff" data-color="1"></path>
        <path d="M98.17 125.96c-.38 0-.7-.05-.95-.15s-.43-.27-.56-.5-.18-.53-.18-.92v-2.21h-.73v-.97h.73v-1.32h1.1v1.32h1.11v.97h-1.11v2.06c0 .24.04.42.13.55.08.13.27.19.57.19h.38v.97h-.48Z" fill="#ffffff" data-color="1"></path>
        <path d="M100.93 126.02q-.33 0-.63-.09c-.2-.06-.38-.15-.53-.27s-.28-.26-.37-.44a1.35 1.35 0 0 1-.14-.62q0-.465.18-.75c.12-.19.28-.34.49-.45s.44-.17.71-.21c.26-.04.54-.06.83-.06h.93c0-.21-.03-.39-.1-.54a.83.83 0 0 0-.31-.36 1 1 0 0 0-.54-.14c-.14 0-.28.02-.4.05s-.23.08-.32.15-.15.16-.18.27h-1.12c.04-.25.13-.46.26-.63.13-.18.29-.32.48-.44.19-.11.4-.2.62-.26.23-.06.46-.08.69-.08.69 0 1.19.2 1.51.59.32.4.47.95.47 1.67v2.56h-.97l-.03-.61c-.14.2-.3.35-.5.45-.19.1-.38.16-.56.18-.18.03-.33.04-.46.04Zm.21-.89c.24 0 .45-.04.64-.13s.33-.22.45-.38c.11-.16.17-.35.17-.56v-.15h-.86c-.14 0-.29 0-.43.01-.14 0-.27.03-.38.07s-.21.1-.27.18-.1.19-.1.33.04.26.11.35.17.16.3.21.25.07.39.07Z" fill="#ffffff" data-color="1"></path>
        <path d="M104.48 125.96v-4.74h1.03l.06.6c.13-.17.27-.3.44-.4s.35-.17.53-.21c.19-.04.36-.07.52-.07.45 0 .81.1 1.07.3s.45.46.55.79c.11.33.16.7.16 1.11v2.62h-1.1v-2.44c0-.17-.01-.34-.04-.51-.02-.17-.07-.31-.14-.45-.07-.13-.17-.24-.29-.32s-.29-.12-.5-.12q-.39 0-.66.21c-.18.14-.32.32-.41.55s-.13.49-.13.79v2.28h-1.1Z" fill="#ffffff" data-color="1"></path>
        <path d="M111.82 126.02c-.48 0-.88-.11-1.19-.33s-.54-.51-.7-.88c-.15-.37-.23-.77-.23-1.22s.08-.89.24-1.26.41-.66.73-.87.73-.32 1.21-.32a2.2 2.2 0 0 1 1.02.24c.15.08.28.19.38.32v-2.11h1.1v6.36h-1.06l-.02-.59c-.11.15-.25.27-.4.37s-.32.17-.51.22-.38.07-.58.07Zm.2-.99c.29 0 .53-.07.71-.2q.285-.21.42-.54a1.9 1.9 0 0 0 0-1.43c-.09-.22-.23-.39-.42-.52s-.42-.2-.71-.2q-.465 0-.72.21-.27.21-.39.54c-.12.33-.12.47-.12.72 0 .19.02.37.07.54.04.17.12.32.21.45s.22.24.38.31.35.11.58.11Z" fill="#ffffff" data-color="1"></path>
        <path d="M117.61 126.02c-.49 0-.9-.1-1.26-.3-.35-.2-.62-.48-.81-.85s-.28-.79-.28-1.29.1-.93.29-1.29.46-.65.81-.85.76-.31 1.25-.31.89.1 1.24.31c.35.2.61.49.8.86s.28.8.28 1.3-.09.91-.28 1.27c-.18.36-.45.64-.8.84s-.77.3-1.25.3Zm-.01-1c.3 0 .54-.07.72-.2s.32-.31.4-.52c.08-.22.13-.45.13-.7s-.04-.49-.13-.71a1.2 1.2 0 0 0-.4-.54c-.18-.13-.42-.2-.72-.2s-.54.07-.73.2-.32.31-.41.53-.13.46-.13.72.04.49.13.71.22.39.41.52c.18.13.42.19.72.19Z" fill="#ffffff" data-color="1"></path>
        <path d="M124.83 126.02q-.33 0-.63-.09c-.2-.06-.38-.15-.53-.27s-.28-.26-.37-.44a1.35 1.35 0 0 1-.14-.62q0-.465.18-.75c.12-.19.28-.34.49-.45s.44-.17.71-.21c.26-.04.54-.06.83-.06h.93c0-.21-.03-.39-.1-.54a.83.83 0 0 0-.31-.36 1 1 0 0 0-.54-.14c-.14 0-.28.02-.4.05s-.23.08-.32.15-.15.16-.18.27h-1.12c.04-.25.13-.46.26-.63.13-.18.29-.32.48-.44.19-.11.4-.2.62-.26.23-.06.46-.08.69-.08.69 0 1.19.2 1.51.59.32.4.47.95.47 1.67v2.56h-.97l-.03-.61c-.14.2-.3.35-.5.45-.19.1-.38.16-.56.18-.18.03-.33.04-.46.04Zm.22-.89c.24 0 .45-.04.64-.13s.33-.22.45-.38c.11-.16.17-.35.17-.56v-.15h-.86c-.14 0-.29 0-.43.01-.14 0-.27.03-.38.07s-.21.1-.27.18-.1.19-.1.33.04.26.11.35.17.16.3.21.25.07.39.07Z" fill="#ffffff" data-color="1"></path>
        <path d="M130.89 125.96v-6.36h1.1v6.36z" fill="#ffffff" data-color="1"></path>
        <path d="M133.6 120.67c-.21 0-.38-.06-.5-.19s-.19-.29-.19-.5.07-.36.2-.49.3-.19.5-.19.36.06.5.19.21.29.21.5-.07.37-.2.5-.3.19-.5.19Zm-.55 5.29v-4.74h1.1v4.74z" fill="#ffffff" data-color="1"></path>
        <path d="M135.21 125.96v-4.74h1.01l.07.54c.12-.16.25-.29.39-.37.14-.09.29-.15.44-.18.15-.04.3-.05.44-.05.3 0 .56.06.77.18s.38.3.5.54c.12-.17.25-.3.4-.41.15-.1.31-.18.48-.23s.34-.08.53-.08c.37 0 .66.08.88.23s.38.36.49.63c.1.27.15.57.15.91v3.04h-1.1v-2.69c0-.12 0-.25-.02-.38s-.04-.25-.09-.37a.7.7 0 0 0-.22-.28c-.1-.07-.23-.11-.41-.11s-.32.04-.43.11-.2.17-.27.3c-.07.12-.12.26-.14.4-.03.15-.04.29-.04.44v2.57h-1.1v-2.7c0-.11 0-.23-.02-.36-.01-.13-.04-.25-.09-.37s-.12-.21-.22-.28a.7.7 0 0 0-.41-.11q-.375 0-.57.21c-.13.14-.22.31-.26.5s-.07.39-.07.57v2.55h-1.1Z" fill="#ffffff" data-color="1"></path>
        <path d="M142.78 127.71v-6.49h1.03l.05.64c.19-.25.41-.43.67-.54s.54-.17.85-.17c.47 0 .86.11 1.16.32.31.22.53.51.68.87.15.37.23.78.23 1.24s-.08.88-.23 1.25c-.16.37-.39.66-.71.87s-.71.32-1.18.32c-.22 0-.42-.02-.61-.07-.18-.05-.35-.12-.49-.21s-.26-.19-.36-.31v2.27h-1.1Zm2.37-2.68c.31 0 .55-.07.72-.2.17-.14.3-.31.38-.53s.12-.45.12-.7-.04-.5-.12-.72q-.12-.33-.39-.54t-.72-.21c-.28 0-.51.07-.7.2s-.33.31-.43.54c-.1.22-.14.46-.14.72s.04.51.13.72.23.39.42.52.44.19.73.19Z" fill="#ffffff" data-color="1"></path>
        <path d="M150.46 126.02c-.49 0-.91-.1-1.26-.31-.34-.2-.61-.49-.78-.85s-.27-.79-.27-1.26.09-.91.28-1.27c.18-.37.45-.66.79-.87s.76-.32 1.25-.32c.36 0 .67.06.95.19.27.13.5.3.68.53.18.22.32.47.41.76.09.28.13.58.13.89 0 .07-.01.14-.02.21 0 .07-.01.14-.03.22h-3.33c.02.21.07.4.17.58s.23.31.4.41.38.15.64.15c.15 0 .29-.02.43-.06s.26-.1.36-.18q.165-.12.21-.3h1.1c-.08.34-.22.62-.43.84s-.46.38-.75.48-.6.15-.92.15Zm-1.19-2.9h2.29c0-.2-.04-.38-.13-.54s-.22-.29-.38-.38c-.17-.09-.36-.14-.6-.14q-.375 0-.63.15a1 1 0 0 0-.39.4q-.135.24-.15.51Z" fill="#ffffff" data-color="1"></path>
        <path d="M153.32 125.96v-.85l2.5-2.92h-2.5v-.97h3.92v.84l-2.52 2.93h2.52v.97z" fill="#ffffff" data-color="1"></path>
        <path d="M159.63 126.02q-.33 0-.63-.09c-.2-.06-.38-.15-.53-.27s-.28-.26-.37-.44a1.35 1.35 0 0 1-.14-.62q0-.465.18-.75c.12-.19.28-.34.49-.45s.44-.17.71-.21c.26-.04.54-.06.83-.06h.93c0-.21-.03-.39-.1-.54a.83.83 0 0 0-.31-.36 1 1 0 0 0-.54-.14c-.14 0-.28.02-.4.05s-.23.08-.32.15-.15.16-.18.27h-1.12c.04-.25.13-.46.26-.63.13-.18.29-.32.48-.44.19-.11.4-.2.62-.26.23-.06.46-.08.69-.08.69 0 1.19.2 1.51.59.32.4.47.95.47 1.67v2.56h-.97l-.03-.61c-.14.2-.3.35-.5.45-.19.1-.38.16-.56.18-.18.03-.33.04-.46.04Zm.21-.89c.24 0 .45-.04.64-.13s.33-.22.45-.38c.11-.16.17-.35.17-.56v-.15h-.86c-.14 0-.29 0-.43.01-.14 0-.27.03-.38.07s-.21.1-.27.18-.1.19-.1.33.04.26.11.35.17.16.3.21.25.07.39.07Z" fill="#ffffff" data-color="1"></path>
        <path d="M163.87 126.07c-.19 0-.36-.06-.49-.19-.13-.12-.2-.3-.2-.51a.686.686 0 0 1 .71-.71c.2 0 .35.07.49.19s.2.3.2.52-.07.39-.2.51c-.13.13-.3.19-.5.19Z" fill="#ffffff" data-color="1"></path>
        <path d="M92.61 46.08c-9.25 5.66-21.34 5.13-29.88-1.66-7.04-5.59-10.79-14.64-9.69-23.57S60.18 3.72 68.62.09s18.45-2.42 25.81 3.07c8.31 6.19 12.08 16.96 9.7 26.99-.17.73.96 1.05 1.13.31 2.21-9.3-.56-19.23-7.42-25.92S80.61-4.81 71.33-2.12 54.93 7.96 52.55 17.19s.34 19.28 7.09 26.04c8.85 8.87 22.92 10.37 33.57 3.86.64-.39.05-1.41-.59-1.01Z" fill="#ffffff" data-color="1"></path>
        <path d="M94.35 22.23c-.38.41-1.02.43-1.43.05L80.84 11.06a2.02 2.02 0 0 0-2.75 0L66.01 22.28a1.011 1.011 0 1 1-1.38-1.48L76.71 9.58a4.04 4.04 0 0 1 5.5 0L94.29 20.8c.41.38.43 1.02.05 1.43Z" fill="#ffffff" data-color="1"></path>
        <path d="M90.58 23.34c.56 0 1.01.45 1.01 1.01v11.11c0 2.23-1.81 4.04-4.04 4.04H71.39c-2.23 0-4.04-1.81-4.04-4.04V24.35c0-.56.45-1.01 1.01-1.01s1.01.45 1.01 1.01v11.11c0 1.12.9 2.02 2.02 2.02h16.16c1.12 0 2.02-.9 2.02-2.02V24.35c0-.56.45-1.01 1.01-1.01" fill="#ffffff" data-color="1"></path>
        <path d="M74.61 38.51c-.56 0-1.01-.45-1.01-1.01v-7.92c0-2.23 1.81-4.04 4.04-4.04h3.66c2.23 0 4.04 1.81 4.04 4.04v7.92c0 .56-.45 1.01-1.01 1.01s-1.01-.45-1.01-1.01v-7.92c0-1.12-.9-2.02-2.02-2.02h-3.66c-1.12 0-2.02.9-2.02 2.02v7.92c0 .56-.45 1.01-1.01 1.01" fill="#ffffff" data-color="1"></path>
    </g>
</svg>