<svg preserveAspectRatio="xMidYMid meet" data-bbox="6.53 5.204 144.51 134.906" viewBox="6.53 5.204 144.51 134.906" xmlns="http://www.w3.org/2000/svg" data-type="color" role="presentation" aria-hidden="true" aria-label="">
    <g>
        <path d="M88.16 19.15h-8.04c-6.69 0-12.19 5.1-12.53 11.62a12.1 12.1 0 0 0 2.35 7.84l.25.34-4.14 4.14c-.27.28-.42.66-.42 1.05s.16.76.43 1.04c.58.55 1.5.55 2.08 0l4.14-4.14 9.58-9.58c.57-.57.57-1.5 0-2.08-.58-.55-1.5-.55-2.08 0l-7.49 7.49-.33-.52a9.2 9.2 0 0 1-1.41-5.65c.44-4.9 4.58-8.65 9.5-8.61h7.62c.82 0 1.48.66 1.48 1.48v7.62c.04 4.92-3.7 9.06-8.61 9.5-.21.02-.47.02-.7.02-.5 0-1-.04-1.49-.12-.46-.08-.94.08-1.27.41-.86.86-.36 2.32.84 2.51.83.13 1.68.18 2.54.13 6.53-.33 11.63-5.83 11.63-12.52v-8.04a3.93 3.93 0 0 0-3.93-3.93" fill="#ffffff" data-color="1"></path>
        <path d="M92.61 54.44c-9.25 5.66-21.34 5.13-29.88-1.66-7.04-5.59-10.79-14.64-9.69-23.57s7.14-17.13 15.58-20.76 18.45-2.42 25.81 3.07c8.31 6.19 12.08 16.96 9.7 26.99-.17.73.96 1.05 1.13.31 2.21-9.3-.56-19.23-7.42-25.92S80.61 3.55 71.33 6.24s-16.4 10.08-18.78 19.31.34 19.28 7.09 26.04c8.85 8.87 22.92 10.37 33.57 3.86.64-.39.05-1.41-.59-1.01Z" fill="#ffffff" data-color="1"></path>
        <path d="M33.22 75.93c-.81 0-1.5-.16-2.08-.48a3.23 3.23 0 0 1-1.33-1.36c-.31-.59-.46-1.29-.46-2.1s.16-1.55.48-2.15.77-1.07 1.34-1.4c.58-.33 1.25-.49 2.02-.49.61 0 1.16.11 1.67.33q.75.33 1.23.99c.48.66.5 1 .56 1.67h-1.88c-.09-.35-.25-.62-.5-.82-.24-.19-.58-.29-1.01-.29-.46 0-.83.1-1.1.31s-.46.47-.58.78c-.11.32-.17.64-.17.98s.06.67.18 1 .32.6.59.82.64.32 1.11.32c.28 0 .52-.04.73-.13s.38-.21.51-.37.23-.36.28-.6h1.93c-.04.66-.24 1.21-.57 1.66-.34.44-.76.78-1.28 1s-1.07.33-1.66.33Z" fill="#ffffff" data-color="1"></path>
        <path d="M40.31 75.93c-.57 0-1.09-.11-1.54-.34-.46-.23-.82-.56-1.09-1.01-.27-.44-.41-.98-.41-1.62s.14-1.2.41-1.66c.27-.45.64-.79 1.09-1.03.46-.23.96-.35 1.51-.35s1.07.12 1.52.36q.675.36 1.08 1.05c.27.45.4 1.01.4 1.66s-.13 1.17-.39 1.61-.61.77-1.06 1-.96.34-1.53.34Zm-.03-1.8q.42 0 .66-.18c.16-.12.28-.27.34-.45.07-.18.1-.36.1-.53s-.03-.36-.1-.55a1.15 1.15 0 0 0-.33-.48c-.16-.13-.38-.2-.67-.2s-.5.07-.67.2-.28.29-.35.48a1.58 1.58 0 0 0 0 1.1c.07.18.18.33.35.44.16.11.38.17.66.17Z" fill="#ffffff" data-color="1"></path>
        <path d="M44.1 75.84v-5.8h1.72l.18.62a1.63 1.63 0 0 1 1.1-.68 2.37 2.37 0 0 1 1.3.12c.27.11.5.31.69.62.17-.22.35-.39.54-.5s.39-.19.58-.23.38-.06.56-.06c.47 0 .85.1 1.13.29.29.19.5.46.63.8s.2.75.2 1.22v3.6h-1.95v-3.23c0-.09 0-.18-.02-.29-.01-.1-.04-.2-.08-.29s-.11-.17-.19-.23a.55.55 0 0 0-.34-.09c-.15 0-.28.03-.37.09-.1.06-.17.14-.23.23-.06.1-.09.2-.12.32-.02.12-.03.24-.03.37v3.12h-1.95v-3.25c0-.08 0-.17-.02-.27-.01-.1-.04-.2-.09-.29a.6.6 0 0 0-.2-.24.7.7 0 0 0-.38-.09c-.23 0-.39.06-.5.19-.1.12-.17.27-.19.44s-.03.31-.03.44v3.07h-1.95Z" fill="#ffffff" data-color="1"></path>
        <path d="M58.73 75.93c-.27 0-.53-.04-.77-.11s-.46-.18-.64-.33c-.19-.15-.34-.33-.45-.55s-.17-.48-.17-.78c0-.44.09-.78.28-1.03s.44-.43.76-.55.68-.19 1.09-.23c.41-.03.83-.05 1.27-.05h.26a.7.7 0 0 0-.38-.63.9.9 0 0 0-.45-.1c-.12 0-.25.02-.36.05-.12.04-.21.09-.29.15s-.12.14-.14.23H56.8a2.1 2.1 0 0 1 .96-1.57c.26-.17.54-.29.86-.37s.65-.12 1-.12c.85 0 1.49.24 1.93.71s.65 1.17.65 2.08v3.11h-1.79v-.76c-.19.29-.41.49-.64.6s-.46.19-.65.21-.33.03-.4.03Zm.53-1.48c.18 0 .36-.05.53-.14s.32-.21.43-.35.17-.28.17-.42v-.04H59.3c-.09 0-.17 0-.25.03-.08.02-.15.05-.21.08s-.11.08-.15.14-.05.13-.05.22c0 .1.03.19.08.26.06.07.13.12.23.16s.2.06.32.06Z" fill="#ffffff" data-color="1"></path>
        <path d="M63.24 75.84v-5.8h1.79l.11.53c.18-.19.38-.33.59-.42s.41-.15.61-.18.37-.04.51-.04c.54 0 .97.12 1.28.37s.53.58.67.99c.13.41.2.86.2 1.35v3.2h-1.95V72.8a1.6 1.6 0 0 0-.17-.73.75.75 0 0 0-.26-.27c-.11-.07-.25-.1-.43-.1q-.345 0-.57.15c-.225.15-.26.24-.33.41s-.1.36-.1.58v2.99h-1.95Z" fill="#ffffff" data-color="1"></path>
        <path d="M72.8 75.84c-.51 0-.95-.06-1.31-.17s-.64-.31-.84-.59c-.19-.28-.29-.69-.29-1.23v-2.08h-.8v-1.74h.8v-1.44h1.95v1.44h1.07v1.74h-1.07v1.78c0 .14.02.26.07.37s.19.16.41.16h.52v1.75h-.51Z" fill="#ffffff" data-color="1"></path>
        <path d="M74.97 69.65c-.35 0-.64-.1-.85-.31-.22-.21-.32-.48-.32-.82s.11-.63.34-.85.51-.33.85-.33.6.1.83.31.34.49.34.85-.11.62-.32.83c-.22.21-.5.31-.85.31ZM74 75.84v-5.8h1.95v5.8z" fill="#ffffff" data-color="1"></path>
        <path d="M79.81 75.93c-.57 0-1.09-.11-1.54-.34-.46-.23-.82-.56-1.09-1.01-.27-.44-.41-.98-.41-1.62s.14-1.2.41-1.66c.27-.45.64-.79 1.09-1.03.46-.23.96-.35 1.51-.35s1.07.12 1.52.36q.675.36 1.08 1.05c.27.45.4 1.01.4 1.66s-.13 1.17-.39 1.61-.61.77-1.06 1-.96.34-1.53.34Zm-.03-1.8q.42 0 .66-.18c.16-.12.28-.27.34-.45.07-.18.1-.36.1-.53s-.03-.36-.1-.55a1.15 1.15 0 0 0-.33-.48c-.16-.13-.38-.2-.67-.2s-.5.07-.67.2-.28.29-.35.48a1.58 1.58 0 0 0 0 1.1c.07.18.18.33.35.44.16.11.38.17.66.17Z" fill="#ffffff" data-color="1"></path>
        <path d="m82.97 75.84 2-2.96-1.89-2.84h2.23l.92 1.57.91-1.57h2.18l-1.91 2.87 2.05 2.93h-2.25l-1.03-1.69-1.04 1.69h-2.16Z" fill="#ffffff" data-color="1"></path>
        <path d="M90.96 69.65c-.35 0-.64-.1-.85-.31-.22-.21-.32-.48-.32-.82s.11-.63.34-.85.51-.33.85-.33.6.1.83.31.34.49.34.85-.11.62-.32.83c-.22.21-.5.31-.85.31Zm-.98 6.19v-5.8h1.95v5.8z" fill="#ffffff" data-color="1"></path>
        <path d="M95.4 75.93c-.59 0-1.09-.14-1.48-.41s-.69-.64-.88-1.09-.29-.95-.29-1.5c0-.59.11-1.12.33-1.57s.54-.8.96-1.06.93-.38 1.53-.38q.3 0 .57.06c.27.06.35.1.5.18s.28.17.39.29v-2.4h1.95v7.79h-1.9v-.51c-.14.13-.3.24-.47.33s-.36.15-.56.2-.41.07-.64.07Zm.43-1.77c.29 0 .53-.06.7-.18s.3-.28.37-.46.12-.38.12-.58-.04-.4-.12-.59-.2-.34-.37-.46q-.255-.18-.69-.18c-.435 0-.52.07-.69.2s-.29.3-.36.49a1.7 1.7 0 0 0-.04 1.01c.04.14.11.27.2.39s.21.2.36.27.32.1.53.1Z" fill="#ffffff" data-color="1"></path>
        <path d="M101.83 75.93c-.27 0-.53-.04-.77-.11s-.46-.18-.64-.33c-.19-.15-.34-.33-.45-.55s-.17-.48-.17-.78c0-.44.09-.78.28-1.03s.44-.43.76-.55.68-.19 1.09-.23c.41-.03.83-.05 1.27-.05h.26a.7.7 0 0 0-.38-.63.9.9 0 0 0-.45-.1c-.12 0-.25.02-.36.05-.12.04-.21.09-.29.15s-.12.14-.14.23H99.9a2.1 2.1 0 0 1 .96-1.57c.26-.17.54-.29.86-.37s.65-.12 1-.12c.85 0 1.49.24 1.93.71s.65 1.17.65 2.08v3.11h-1.79v-.76c-.19.29-.41.49-.64.6s-.46.19-.65.21-.33.03-.4.03Zm.52-1.48c.18 0 .36-.05.53-.14s.32-.21.43-.35.17-.28.17-.42v-.04h-1.09c-.09 0-.17 0-.25.03-.08.02-.15.05-.21.08s-.11.08-.15.14-.05.13-.05.22c0 .1.03.19.08.26.06.07.13.12.23.16s.2.06.32.06Z" fill="#ffffff" data-color="1"></path>
        <path d="M106.33 75.84v-5.8h1.79l.11.53c.18-.19.38-.33.59-.42s.41-.15.61-.18.37-.04.51-.04c.54 0 .97.12 1.28.37s.53.58.67.99c.13.41.2.86.2 1.35v3.2h-1.95V72.8a1.6 1.6 0 0 0-.17-.73.75.75 0 0 0-.26-.27c-.11-.07-.25-.1-.43-.1q-.345 0-.57.15c-.225.15-.26.24-.33.41s-.1.36-.1.58v2.99h-1.95Z" fill="#ffffff" data-color="1"></path>
        <path d="M115.89 75.84c-.51 0-.95-.06-1.31-.17s-.64-.31-.84-.59c-.19-.28-.29-.69-.29-1.23v-2.08h-.8v-1.74h.8v-1.44h1.95v1.44h1.07v1.74h-1.07v1.78c0 .14.02.26.07.37s.19.16.41.16h.52v1.75h-.51Z" fill="#ffffff" data-color="1"></path>
        <path d="M119.83 75.93q-.885 0-1.56-.36a2.53 2.53 0 0 1-1.03-1.02c-.25-.44-.37-.96-.37-1.57s.12-1.14.37-1.6.6-.82 1.04-1.07c.45-.26.97-.38 1.56-.38.42 0 .81.07 1.14.2q.51.195.87.57c.36.375.43.55.56.9s.19.75.19 1.19c0 .12 0 .24-.02.36q-.015.165-.06.36h-3.74c.01.14.06.27.14.4.08.12.19.22.32.3.14.07.32.11.53.11.18 0 .33-.02.46-.06s.23-.09.31-.16.13-.13.15-.2h1.9q-.15.72-.57 1.17c-.28.3-.61.53-.99.67s-.79.21-1.23.21Zm-1-3.69h1.96c0-.11-.03-.23-.09-.35s-.17-.22-.31-.3-.33-.12-.57-.12-.41.04-.56.12-.25.18-.32.3-.1.24-.1.35Z" fill="#ffffff" data-color="1"></path>
        <path d="M125.8 75.93c-.29 0-.58-.03-.87-.1s-.57-.18-.82-.33-.47-.36-.64-.63c-.18-.27-.29-.6-.35-1.01h1.97c.03.1.08.18.16.25s.17.13.29.17c.11.04.24.06.37.06.09 0 .17 0 .24-.02s.13-.04.18-.07q.075-.045.12-.12c.045-.075.04-.09.04-.14 0-.1-.04-.18-.12-.23s-.19-.08-.33-.11-.3-.06-.47-.09c-.27-.06-.56-.13-.87-.23s-.57-.21-.79-.35a1.35 1.35 0 0 1-.47-.55 1.3 1.3 0 0 1-.1-.34c-.02-.12-.03-.24-.03-.37 0-.34.08-.62.23-.85s.34-.42.58-.56.5-.24.79-.3.57-.09.85-.09c.41 0 .79.07 1.15.2s.65.35.89.64q.36.435.45 1.17h-1.88c-.01-.13-.09-.23-.21-.31a.96.96 0 0 0-.47-.11c-.07 0-.14 0-.2.02-.06.01-.12.03-.17.06-.05.02-.08.05-.11.09s-.04.08-.04.12c0 .03 0 .06.03.1.02.04.05.07.1.1q.075.045.21.09.36.09.69.15c.22.04.43.09.65.13.24.04.48.12.71.23s.43.27.59.48.24.51.24.89-.08.69-.23.94-.36.45-.61.6-.53.25-.83.32-.6.1-.89.1Z" fill="#ffffff" data-color="1"></path>
        <path d="M57.8 86.84v-5.8h1.79l.11.53c.18-.19.38-.33.59-.42s.41-.15.61-.18.37-.04.51-.04c.54 0 .97.12 1.28.37s.53.58.67.99.2.86.2 1.35v3.2h-1.95V83.8a1.6 1.6 0 0 0-.17-.73.75.75 0 0 0-.26-.27c-.11-.07-.25-.1-.43-.1q-.345 0-.57.15c-.225.15-.26.24-.33.41s-.1.37-.1.58v2.99H57.8Z" fill="#ffffff" data-color="1"></path>
        <path d="M66.38 86.93c-.27 0-.53-.04-.77-.11s-.46-.18-.64-.33c-.19-.15-.34-.33-.45-.55s-.17-.48-.17-.78c0-.44.09-.79.28-1.03.19-.25.44-.43.76-.55s.68-.19 1.09-.23.83-.05 1.27-.05h.26a.7.7 0 0 0-.38-.63 1 1 0 0 0-.45-.1c-.12 0-.25.02-.36.05s-.21.09-.29.15-.12.14-.14.23h-1.94a2.1 2.1 0 0 1 .96-1.57c.26-.17.54-.29.86-.37s.65-.12 1-.12c.85 0 1.49.24 1.93.71s.65 1.17.65 2.08v3.11h-1.79v-.76a1.75 1.75 0 0 1-1.29.82c-.19.02-.33.03-.4.03Zm.53-1.48c.18 0 .36-.05.53-.14s.32-.21.43-.35.17-.28.17-.42v-.04h-1.09c-.09 0-.17 0-.25.03-.08.02-.15.05-.21.08-.06.04-.11.08-.15.14s-.05.13-.05.22c0 .1.03.19.08.26.06.07.13.12.23.16s.2.06.32.06Z" fill="#ffffff" data-color="1"></path>
        <path d="M73.69 86.84c-.51 0-.95-.05-1.31-.17-.36-.11-.64-.31-.84-.59-.19-.28-.29-.69-.29-1.23v-2.08h-.8v-1.74h.8v-1.44h1.95v1.44h1.07v1.74H73.2v1.78c0 .14.02.26.07.37s.19.16.41.16h.52v1.75h-.51Z" fill="#ffffff" data-color="1"></path>
        <path d="M77.66 86.93c-.89 0-1.58-.22-2.06-.67-.49-.44-.73-1.11-.73-2v-3.22h1.95v3.07c0 .19.03.36.08.52s.14.28.27.38.3.14.51.14c.24 0 .42-.05.52-.17s.17-.25.2-.41.04-.32.04-.47v-3.07h1.94v3.22c0 .95-.24 1.63-.73 2.04s-1.15.62-1.97.62Z" fill="#ffffff" data-color="1"></path>
        <path d="M81.39 86.84v-5.8h1.71l.13.55c.15-.21.31-.37.48-.46.18-.09.35-.15.53-.18s.34-.03.48-.03h.34c.1 0 .17 0 .2.02v1.88h-.37c-.27 0-.53.04-.76.1-.24.07-.43.2-.57.4-.14.19-.21.49-.21.88v2.64H81.4Z" fill="#ffffff" data-color="1"></path>
        <path d="M87.68 86.93c-.27 0-.53-.04-.77-.11s-.46-.18-.64-.33c-.19-.15-.34-.33-.45-.55s-.17-.48-.17-.78c0-.44.09-.79.28-1.03.19-.25.44-.43.76-.55s.68-.19 1.09-.23.83-.05 1.27-.05h.26a.7.7 0 0 0-.38-.63 1 1 0 0 0-.45-.1c-.12 0-.25.02-.36.05s-.21.09-.29.15-.12.14-.14.23h-1.94a2.1 2.1 0 0 1 .96-1.57c.26-.17.54-.29.86-.37s.65-.12 1-.12c.85 0 1.49.24 1.93.71s.65 1.17.65 2.08v3.11h-1.79v-.76a1.75 1.75 0 0 1-1.29.82c-.19.02-.33.03-.4.03Zm.53-1.48c.18 0 .36-.05.53-.14s.32-.21.43-.35.17-.28.17-.42v-.04h-1.09c-.09 0-.17 0-.25.03-.08.02-.15.05-.21.08-.06.04-.11.08-.15.14s-.05.13-.05.22c0 .1.03.19.08.26.06.07.13.12.23.16s.2.06.32.06Z" fill="#ffffff" data-color="1"></path>
        <path d="M93.17 80.65c-.35 0-.64-.1-.85-.31-.22-.21-.32-.48-.32-.82s.11-.63.34-.85.51-.33.85-.33.6.1.83.31.34.49.34.85-.11.62-.32.83c-.22.21-.5.31-.85.31Zm-.98 6.19v-5.8h1.95v5.8z" fill="#ffffff" data-color="1"></path>
        <path d="M97.56 86.93c-.29 0-.58-.03-.87-.1s-.57-.18-.82-.33-.47-.36-.64-.63c-.18-.27-.29-.6-.35-1.01h1.97c.03.09.08.18.16.25s.17.13.29.17c.11.04.24.06.37.06.09 0 .17 0 .24-.02s.13-.04.18-.07q.075-.045.12-.12c.045-.075.04-.09.04-.14 0-.1-.04-.18-.12-.23s-.19-.08-.33-.11-.3-.06-.47-.09c-.27-.06-.56-.13-.87-.23s-.57-.21-.79-.35a1.35 1.35 0 0 1-.47-.55 1.3 1.3 0 0 1-.1-.34c-.02-.12-.03-.24-.03-.37 0-.34.08-.62.23-.85s.34-.42.58-.56.5-.24.79-.3.57-.09.85-.09c.41 0 .79.07 1.15.2s.65.34.89.64q.36.435.45 1.17h-1.88c-.01-.13-.09-.23-.21-.31a.96.96 0 0 0-.47-.11c-.07 0-.14 0-.2.02-.06.01-.12.03-.17.05s-.08.05-.11.09-.04.08-.04.12c0 .03 0 .06.03.1.02.04.05.07.1.1q.075.045.21.09.36.09.69.15c.22.04.43.09.65.13.24.04.48.12.71.23s.43.27.59.48.24.51.24.89-.08.69-.23.94-.36.45-.61.6-.53.25-.83.32-.6.1-.89.1Z" fill="#ffffff" data-color="1"></path>
        <path d="m13.95 100.37-2.35-6.36h1.22l1.89 5.41 1.86-5.41h1.21l-2.33 6.36h-1.51Z" fill="#ffffff" data-color="1"></path>
        <path d="M18.94 95.08c-.21 0-.38-.06-.5-.19s-.19-.29-.19-.5.07-.36.2-.49.3-.19.5-.19.36.06.5.19.21.29.21.5-.07.37-.2.5-.3.19-.5.19Zm-.55 5.29v-4.74h1.1v4.74z" fill="#ffffff" data-color="1"></path>
        <path d="M22.62 100.37c-.38 0-.7-.05-.95-.15s-.43-.27-.56-.5c-.12-.23-.18-.53-.18-.92v-2.21h-.73v-.97h.73V94.3h1.1v1.32h1.11v.97h-1.11v2.06c0 .24.04.42.13.55s.27.19.57.19h.38v.97h-.48Z" fill="#ffffff" data-color="1"></path>
        <path d="M25.38 100.43q-.33 0-.63-.09c-.2-.06-.38-.15-.53-.27s-.28-.26-.37-.44a1.4 1.4 0 0 1-.14-.62q0-.465.18-.75c.12-.19.28-.34.49-.45s.44-.17.71-.21c.26-.04.54-.06.83-.06h.93c0-.21-.03-.39-.1-.54a.83.83 0 0 0-.31-.36 1 1 0 0 0-.54-.14c-.14 0-.28.02-.4.05s-.23.08-.32.15a.5.5 0 0 0-.18.27h-1.12c.04-.25.13-.46.26-.63s.29-.32.48-.44c.19-.11.4-.2.62-.26.23-.06.46-.08.69-.08.69 0 1.19.2 1.51.59.32.4.47.95.47 1.67v2.56h-.97l-.03-.61c-.14.2-.3.35-.5.45-.19.1-.38.16-.56.18-.18.03-.33.04-.46.04Zm.21-.89c.24 0 .45-.04.64-.13s.33-.22.45-.38c.11-.16.17-.35.17-.56v-.15h-.86c-.14 0-.29 0-.43.01-.14 0-.27.03-.38.07s-.21.1-.27.17-.1.19-.1.33.04.26.11.35.17.16.3.21.25.07.39.07Z" fill="#ffffff" data-color="1"></path>
        <path d="M28.93 100.37v-4.74h1.01l.07.54c.12-.16.25-.29.39-.37.14-.09.29-.15.44-.18s.3-.05.44-.05c.3 0 .56.06.77.18s.38.3.5.54c.12-.17.25-.3.4-.41s.31-.18.48-.23.34-.08.53-.08c.37 0 .66.08.88.23s.38.36.49.63c.1.27.15.57.15.91v3.04h-1.1v-2.69c0-.12 0-.25-.02-.38s-.04-.25-.09-.37a.7.7 0 0 0-.22-.28c-.1-.07-.23-.11-.41-.11s-.32.04-.43.11-.2.17-.27.3c-.07.12-.12.26-.14.4-.03.15-.04.29-.04.44v2.57h-1.1v-2.7c0-.11 0-.24-.02-.36a1.2 1.2 0 0 0-.09-.37c-.04-.12-.12-.21-.22-.28s-.24-.11-.41-.11q-.375 0-.57.21c-.13.14-.22.31-.26.5-.04.2-.07.39-.07.57v2.55h-1.1Z" fill="#ffffff" data-color="1"></path>
        <path d="M37.05 95.08c-.21 0-.38-.06-.5-.19s-.19-.29-.19-.5.07-.36.2-.49.3-.19.5-.19.36.06.5.19.21.29.21.5-.07.37-.2.5-.3.19-.5.19Zm-.55 5.29v-4.74h1.1v4.74z" fill="#ffffff" data-color="1"></path>
        <path d="M38.66 100.37v-4.74h1.03l.06.6c.13-.17.27-.3.44-.4s.35-.17.53-.21c.19-.04.36-.07.52-.07.45 0 .81.1 1.07.3s.45.46.55.79c.11.33.16.7.16 1.11v2.62h-1.1v-2.44c0-.17-.01-.34-.04-.51-.02-.17-.07-.31-.14-.45-.07-.13-.17-.24-.29-.32s-.29-.12-.5-.12q-.39 0-.66.21c-.18.14-.32.32-.41.55s-.13.49-.13.79v2.28h-1.1Z" fill="#ffffff" data-color="1"></path>
        <path d="M45.57 100.43q-.33 0-.63-.09c-.2-.06-.38-.15-.53-.27s-.28-.26-.37-.44a1.4 1.4 0 0 1-.14-.62q0-.465.18-.75c.12-.19.28-.34.49-.45s.44-.17.71-.21c.26-.04.54-.06.83-.06h.93c0-.21-.03-.39-.1-.54a.83.83 0 0 0-.31-.36 1 1 0 0 0-.54-.14c-.14 0-.28.02-.4.05s-.23.08-.32.15a.5.5 0 0 0-.18.27h-1.12c.04-.25.13-.46.26-.63s.29-.32.48-.44c.19-.11.4-.2.62-.26.23-.06.46-.08.69-.08.69 0 1.19.2 1.51.59.32.4.47.95.47 1.67v2.56h-.97l-.03-.61c-.14.2-.3.35-.5.45-.19.1-.38.16-.56.18-.18.03-.33.04-.46.04Zm.22-.89c.24 0 .45-.04.64-.13s.33-.22.45-.38c.11-.16.17-.35.17-.56v-.15h-.86c-.14 0-.29 0-.43.01-.14 0-.27.03-.38.07s-.21.1-.27.17-.1.19-.1.33.04.26.11.35.17.16.3.21.25.07.39.07Z" fill="#ffffff" data-color="1"></path>
        <path d="M54.48 100.44c-.66 0-1.21-.14-1.67-.41q-.675-.405-1.02-1.14c-.23-.49-.34-1.05-.34-1.69s.12-1.21.35-1.7.58-.88 1.03-1.16q.675-.42 1.65-.42c.48 0 .9.08 1.27.24s.66.39.9.69c.23.3.38.66.45 1.09h-1.09q-.12-.465-.51-.72c-.26-.17-.59-.26-1.01-.26-.45 0-.81.1-1.09.31s-.48.48-.6.81-.18.68-.18 1.06.06.76.19 1.1.33.62.62.83c.28.21.64.32 1.09.32q.42 0 .72-.12c.3-.12.38-.19.52-.34s.24-.32.29-.52h1.14c-.07.43-.23.79-.48 1.09s-.56.53-.95.69c-.38.16-.81.24-1.28.24Z" fill="#ffffff" data-color="1"></path>
        <path d="m58.34 101.65-.31-.48c.09-.05.18-.12.28-.2.1-.09.18-.18.27-.29.08-.1.14-.2.17-.28a.83.83 0 0 1-.45-.19c-.12-.11-.18-.27-.18-.47s.07-.38.22-.5c.14-.12.31-.18.49-.18.23 0 .41.08.54.26.13.17.2.39.2.67 0 .25-.06.48-.17.71-.12.23-.27.43-.45.59-.18.17-.38.29-.58.36Z" fill="#ffffff" data-color="1"></path>
        <path d="m63.99 100.37-1.72-4.74h1.22l1.25 3.81 1.24-3.81h1.21l-1.72 4.74z" fill="#ffffff" data-color="1"></path>
        <path d="M68.28 95.08c-.21 0-.38-.06-.5-.19s-.19-.29-.19-.5.07-.36.2-.49.3-.19.5-.19.36.06.5.19.21.29.21.5-.07.37-.2.5-.3.19-.5.19Zm-.55 5.29v-4.74h1.1v4.74z" fill="#ffffff" data-color="1"></path>
        <path d="M71.96 100.37c-.38 0-.7-.05-.95-.15s-.43-.27-.56-.5c-.12-.23-.18-.53-.18-.92v-2.21h-.73v-.97h.73V94.3h1.1v1.32h1.11v.97h-1.11v2.06c0 .24.04.42.13.55s.27.19.57.19h.38v.97h-.48Z" fill="#ffffff" data-color="1"></path>
        <path d="M74.72 100.43q-.33 0-.63-.09c-.2-.06-.38-.15-.53-.27s-.28-.26-.37-.44a1.4 1.4 0 0 1-.14-.62q0-.465.18-.75c.12-.19.28-.34.49-.45s.44-.17.71-.21c.26-.04.54-.06.83-.06h.93c0-.21-.03-.39-.1-.54a.83.83 0 0 0-.31-.36 1 1 0 0 0-.54-.14c-.14 0-.28.02-.4.05s-.23.08-.32.15a.5.5 0 0 0-.18.27h-1.12c.04-.25.13-.46.26-.63s.29-.32.48-.44c.19-.11.4-.2.62-.26.23-.06.46-.08.69-.08.69 0 1.19.2 1.51.59.32.4.47.95.47 1.67v2.56h-.97l-.03-.61c-.14.2-.3.35-.5.45-.19.1-.38.16-.56.18-.18.03-.33.04-.46.04Zm.21-.89c.24 0 .45-.04.64-.13s.33-.22.45-.38c.11-.16.17-.35.17-.56v-.15h-.86c-.14 0-.29 0-.43.01-.14 0-.27.03-.38.07s-.21.1-.27.17-.1.19-.1.33.04.26.11.35.17.16.3.21.25.07.39.07Z" fill="#ffffff" data-color="1"></path>
        <path d="M78.27 100.37v-4.74h1.01l.07.54c.12-.16.25-.29.39-.37.14-.09.29-.15.44-.18s.3-.05.44-.05c.3 0 .56.06.77.18s.38.3.5.54c.12-.17.25-.3.4-.41s.31-.18.48-.23.34-.08.53-.08c.37 0 .66.08.88.23s.38.36.49.63c.1.27.15.57.15.91v3.04h-1.1v-2.69c0-.12 0-.25-.02-.38s-.04-.25-.09-.37a.7.7 0 0 0-.22-.28c-.1-.07-.23-.11-.41-.11s-.32.04-.43.11-.2.17-.27.3c-.07.12-.12.26-.14.4-.03.15-.04.29-.04.44v2.57H81v-2.7c0-.11 0-.24-.02-.36a1.2 1.2 0 0 0-.09-.37c-.04-.12-.12-.21-.22-.28s-.24-.11-.41-.11q-.375 0-.57.21c-.13.14-.22.31-.26.5-.04.2-.07.39-.07.57v2.55h-1.1Z" fill="#ffffff" data-color="1"></path>
        <path d="M86.39 95.08c-.21 0-.38-.06-.5-.19s-.19-.29-.19-.5.07-.36.2-.49.3-.19.5-.19.36.06.5.19.21.29.21.5-.07.37-.2.5-.3.19-.5.19Zm-.55 5.29v-4.74h1.1v4.74z" fill="#ffffff" data-color="1"></path>
        <path d="M88 100.37v-4.74h1.03l.06.6c.13-.17.27-.3.44-.4s.35-.17.53-.21c.19-.04.36-.07.52-.07.45 0 .81.1 1.07.3s.45.46.55.79c.11.33.16.7.16 1.11v2.62h-1.1v-2.44c0-.17-.01-.34-.04-.51-.02-.17-.07-.31-.14-.45-.07-.13-.17-.24-.29-.32s-.29-.12-.5-.12q-.39 0-.66.21c-.18.14-.32.32-.41.55s-.13.49-.13.79v2.28h-1.1Z" fill="#ffffff" data-color="1"></path>
        <path d="M94.91 100.43q-.33 0-.63-.09c-.2-.06-.38-.15-.53-.27s-.28-.26-.37-.44a1.4 1.4 0 0 1-.14-.62q0-.465.18-.75c.12-.19.28-.34.49-.45s.44-.17.71-.21c.26-.04.54-.06.83-.06h.93c0-.21-.03-.39-.1-.54a.83.83 0 0 0-.31-.36 1 1 0 0 0-.54-.14c-.14 0-.28.02-.4.05s-.23.08-.32.15a.5.5 0 0 0-.18.27h-1.12c.04-.25.13-.46.26-.63s.29-.32.48-.44c.19-.11.4-.2.62-.26.23-.06.46-.08.69-.08.69 0 1.19.2 1.51.59.32.4.47.95.47 1.67v2.56h-.97l-.03-.61c-.14.2-.3.35-.5.45-.19.1-.38.16-.56.18-.18.03-.33.04-.46.04Zm.22-.89c.24 0 .45-.04.64-.13s.33-.22.45-.38c.11-.16.17-.35.17-.56v-.15h-.86c-.14 0-.29 0-.43.01-.14 0-.27.03-.38.07s-.21.1-.27.17-.1.19-.1.33.04.26.11.35.17.16.3.21.25.07.39.07Z" fill="#ffffff" data-color="1"></path>
        <path d="M101.15 100.37v-6.36h4.49v1.03h-3.37v1.67h2.92v1.01h-2.92v1.63h3.37v1.03h-4.49Z" fill="#ffffff" data-color="1"></path>
        <path d="M111.16 100.43c-.49 0-.91-.1-1.26-.31-.34-.2-.61-.49-.78-.85-.18-.36-.27-.79-.27-1.26s.09-.91.28-1.27c.18-.37.45-.66.79-.87s.76-.31 1.25-.31c.36 0 .67.06.95.19.27.13.5.3.68.53.18.22.32.47.41.76s.13.58.13.89c0 .07-.01.14-.02.21 0 .07-.01.14-.03.22h-3.33c.02.21.07.4.17.58s.23.31.4.41.38.15.64.15c.15 0 .29-.02.43-.06s.26-.1.36-.17q.165-.12.21-.3h1.1c-.08.34-.22.62-.43.84q-.315.33-.75.48c-.435.15-.6.15-.92.15Zm-1.19-2.9h2.29c0-.2-.04-.38-.13-.54s-.22-.29-.38-.38c-.17-.09-.36-.14-.6-.14q-.375 0-.63.15c-.17.1-.3.23-.39.4s-.14.33-.15.51Z" fill="#ffffff" data-color="1"></path>
        <path d="M118.52 100.43c-.23 0-.45-.02-.68-.07q-.345-.075-.63-.24a1.25 1.25 0 0 1-.5-.46c-.13-.19-.22-.43-.26-.72h1.11c.05.13.12.24.23.32s.23.14.37.18.28.06.42.06c.08 0 .17 0 .27-.02.1-.01.19-.04.28-.07s.16-.09.21-.16.08-.16.08-.27-.03-.19-.09-.26a.7.7 0 0 0-.24-.15c-.1-.04-.22-.07-.37-.09-.26-.05-.53-.11-.83-.18a2.2 2.2 0 0 1-.76-.3.9.9 0 0 1-.23-.19c-.07-.07-.12-.15-.17-.24s-.08-.18-.1-.28q-.03-.15-.03-.33c0-.25.05-.47.16-.64.11-.18.25-.32.42-.43.18-.11.38-.19.61-.25.23-.05.46-.08.7-.08.32 0 .62.05.88.15s.48.26.66.47.28.48.32.8h-1.04q-.045-.225-.27-.36c-.225-.135-.35-.13-.58-.13-.08 0-.17 0-.26.02-.09.01-.17.04-.26.07s-.15.08-.2.15-.08.15-.08.24.02.17.07.23c.04.07.11.12.21.17.09.04.2.08.33.11.2.04.42.08.64.13.22.04.41.08.58.13.19.05.37.13.52.23q.24.15.36.39c.09.16.13.36.13.61q0 .435-.18.72c-.12.19-.27.34-.46.45s-.4.19-.64.23-.46.07-.69.07Z" fill="#ffffff" data-color="1"></path>
        <path d="M123.42 100.43c-.49 0-.91-.1-1.26-.31-.34-.2-.61-.49-.78-.85-.18-.36-.27-.79-.27-1.26s.09-.91.28-1.27c.18-.37.45-.66.79-.87s.76-.31 1.25-.31c.36 0 .67.06.95.19.27.13.5.3.68.53.18.22.32.47.41.76s.13.58.13.89c0 .07-.01.14-.02.21 0 .07-.01.14-.03.22h-3.33c.02.21.07.4.17.58s.23.31.4.41.38.15.64.15c.15 0 .29-.02.43-.06s.26-.1.36-.17q.165-.12.21-.3h1.1c-.08.34-.22.62-.43.84q-.315.33-.75.48c-.435.15-.6.15-.92.15Zm-1.18-2.9h2.29c0-.2-.04-.38-.13-.54s-.22-.29-.38-.38c-.17-.09-.36-.14-.6-.14q-.375 0-.63.15c-.17.1-.3.23-.39.4s-.14.33-.15.51Z" fill="#ffffff" data-color="1"></path>
        <path d="M126.47 100.37v-6.36h1.1v6.36z" fill="#ffffff" data-color="1"></path>
        <path d="M130.75 100.43c-.49 0-.91-.1-1.26-.31-.34-.2-.61-.49-.78-.85-.18-.36-.27-.79-.27-1.26s.09-.91.28-1.27c.18-.37.45-.66.79-.87s.76-.31 1.25-.31c.36 0 .67.06.95.19.27.13.5.3.68.53.18.22.32.47.41.76s.13.58.13.89c0 .07-.01.14-.02.21 0 .07-.01.14-.03.22h-3.33c.02.21.07.4.17.58s.23.31.4.41.38.15.64.15c.15 0 .29-.02.43-.06s.26-.1.36-.17q.165-.12.21-.3h1.1c-.08.34-.22.62-.43.84q-.315.33-.75.48c-.435.15-.6.15-.92.15Zm-1.69-5.41 1.31-1.58h.75l1.33 1.58h-1.06l-.64-.83-.63.83zm.5 2.51h2.29c0-.2-.04-.38-.13-.54s-.22-.29-.38-.38c-.17-.09-.36-.14-.6-.14q-.375 0-.63.15c-.17.1-.3.23-.39.4s-.14.33-.15.51Z" fill="#ffffff" data-color="1"></path>
        <path d="M133.79 100.37v-4.74h1.03l.06.6c.13-.17.27-.3.44-.4s.35-.17.53-.21c.19-.04.36-.07.52-.07.45 0 .81.1 1.07.3s.45.46.55.79c.11.33.16.7.16 1.11v2.62h-1.1v-2.44c0-.17-.01-.34-.04-.51-.02-.17-.07-.31-.14-.45-.07-.13-.17-.24-.29-.32s-.29-.12-.5-.12q-.39 0-.66.21c-.18.14-.32.32-.41.55s-.13.49-.13.79v2.28h-1.1Z" fill="#ffffff" data-color="1"></path>
        <path d="M139.74 95.08c-.21 0-.38-.06-.5-.19s-.19-.29-.19-.5.07-.36.2-.49.3-.19.5-.19.36.06.5.19.21.29.21.5-.07.37-.2.5-.3.19-.5.19Zm-.55 5.29v-4.74h1.1v4.74z" fill="#ffffff" data-color="1"></path>
        <path d="M143.52 100.43c-.49 0-.9-.1-1.26-.3-.35-.2-.62-.48-.81-.85s-.28-.79-.28-1.29.1-.93.29-1.29.46-.65.81-.85.76-.31 1.25-.31.89.1 1.24.31c.35.2.61.49.8.86s.28.8.28 1.3-.09.91-.28 1.27c-.18.36-.45.64-.8.84s-.77.3-1.25.3Zm-.01-1c.3 0 .54-.07.72-.2s.32-.31.4-.52c.08-.22.13-.45.13-.7s-.04-.49-.13-.71a1.2 1.2 0 0 0-.4-.54c-.18-.13-.42-.2-.72-.2s-.54.07-.73.2-.32.31-.41.53-.13.46-.13.72.04.49.13.71.22.39.41.52c.18.13.42.19.72.19Z" fill="#ffffff" data-color="1"></path>
        <path d="M22.83 109.93c-.49 0-.9-.1-1.26-.3-.35-.2-.62-.48-.81-.85s-.28-.79-.28-1.29.1-.93.29-1.29.46-.65.81-.85.76-.31 1.25-.31.89.1 1.24.31c.35.2.61.49.8.86s.28.8.28 1.3-.09.91-.28 1.27c-.18.36-.45.64-.8.84s-.77.3-1.25.3Zm0-1c.3 0 .54-.07.72-.2s.32-.31.4-.52c.08-.22.13-.45.13-.7s-.04-.49-.13-.71a1.2 1.2 0 0 0-.4-.54c-.18-.13-.42-.2-.72-.2s-.54.07-.73.2-.32.31-.41.53-.13.46-.13.72.04.49.13.71.22.39.41.52c.18.13.42.19.72.19Z" fill="#ffffff" data-color="1"></path>
        <path d="M26.04 109.87v-4.74h1l.06.62c.12-.18.26-.32.41-.42s.32-.17.49-.21q.27-.06.54-.06h.32v1.04h-.29c-.31 0-.58.06-.79.18-.22.12-.38.29-.49.51s-.16.49-.16.82v2.25h-1.1Z" fill="#ffffff" data-color="1"></path>
        <path d="M31.72 112.04c-.35 0-.67-.06-.98-.17-.3-.11-.56-.29-.77-.52s-.35-.54-.42-.91h1.12c.04.14.11.26.22.35s.24.15.38.19q.225.06.45.06c.29 0 .53-.06.7-.18s.29-.28.37-.49c.07-.21.11-.43.11-.68v-.45c-.11.17-.24.31-.41.41s-.34.17-.52.21q-.27.06-.54.06c-.49 0-.89-.11-1.2-.32-.31-.22-.54-.51-.68-.87s-.22-.76-.22-1.2.08-.87.24-1.25.4-.67.72-.9c.32-.22.72-.33 1.21-.33.28 0 .55.05.8.15q.375.15.63.45l.07-.52h1.02v4.33c0 .53-.08 1-.23 1.38-.15.39-.4.68-.73.89-.34.21-.78.31-1.33.31Zm-.07-3.09c.28 0 .52-.07.7-.2.19-.13.33-.32.42-.54.1-.23.14-.47.14-.73s-.05-.51-.14-.73a1.1 1.1 0 0 0-.41-.51c-.18-.13-.42-.19-.71-.19-.31 0-.55.07-.73.21q-.27.21-.39.54c-.12.33-.12.46-.12.72s.04.5.13.72c.08.22.22.39.4.52s.42.19.71.19" fill="#ffffff" data-color="1"></path>
        <path d="M36.58 109.93q-.33 0-.63-.09c-.2-.06-.38-.15-.53-.27s-.28-.26-.37-.44a1.4 1.4 0 0 1-.14-.62q0-.465.18-.75c.12-.19.28-.34.49-.45s.44-.17.71-.21c.26-.04.54-.06.83-.06h.93c0-.21-.03-.39-.1-.54a.83.83 0 0 0-.31-.36 1 1 0 0 0-.54-.14c-.14 0-.28.02-.4.05s-.23.08-.32.15a.5.5 0 0 0-.18.27h-1.12c.04-.25.13-.46.26-.63s.29-.32.48-.44c.19-.11.4-.2.62-.26.23-.06.46-.08.69-.08.69 0 1.19.2 1.51.59.32.4.47.95.47 1.67v2.56h-.97l-.03-.61c-.14.2-.3.35-.5.45-.19.1-.38.16-.56.18-.18.03-.33.04-.46.04Zm-1.14-5.44 1.31-1.58h.75l1.33 1.58h-1.06l-.64-.83-.63.83zm1.36 4.55c.24 0 .45-.04.64-.13s.33-.22.45-.38c.11-.16.17-.35.17-.56v-.15h-.86c-.14 0-.29 0-.43.01-.14 0-.27.03-.38.07s-.21.1-.27.17-.1.19-.1.33.04.26.11.35.17.16.3.21.25.07.39.07Z" fill="#ffffff" data-color="1"></path>
        <path d="M40.14 109.87v-4.74h1.03l.06.6c.13-.17.27-.3.44-.4s.35-.17.53-.21c.19-.04.36-.07.52-.07.45 0 .81.1 1.07.3s.45.46.55.79c.11.33.16.7.16 1.11v2.62h-1.1v-2.44c0-.17-.01-.34-.04-.51-.02-.17-.07-.31-.14-.45-.07-.13-.17-.24-.29-.32s-.29-.12-.5-.12q-.39 0-.66.21c-.18.14-.32.32-.41.55s-.13.49-.13.79v2.28h-1.1Z" fill="#ffffff" data-color="1"></path>
        <path d="M46.09 104.58c-.21 0-.38-.06-.5-.19s-.19-.29-.19-.5.07-.36.2-.49.3-.19.5-.19.36.06.5.19.21.29.21.5-.07.37-.2.5-.3.19-.5.19Zm-.55 5.29v-4.74h1.1v4.74z" fill="#ffffff" data-color="1"></path>
        <path d="M49.79 109.93c-.49 0-.91-.1-1.24-.3s-.59-.48-.76-.85a3 3 0 0 1-.26-1.27c0-.48.09-.91.27-1.27.18-.37.44-.66.79-.87s.77-.31 1.27-.31c.37 0 .69.06.98.19s.52.31.69.55.29.54.34.9h-1.08a.86.86 0 0 0-.36-.5c-.17-.11-.36-.16-.59-.16-.31 0-.55.07-.72.22-.18.15-.3.33-.38.55s-.12.45-.12.69.04.49.13.71c.08.22.21.39.39.53.18.13.41.2.69.2.23 0 .43-.05.62-.15.18-.1.3-.27.36-.5h1.12c-.04.37-.16.67-.37.91s-.45.42-.76.54q-.465.18-.99.18Z" fill="#ffffff" data-color="1"></path>
        <path d="M54.9 109.93c-.49 0-.9-.1-1.26-.3-.35-.2-.62-.48-.81-.85s-.28-.79-.28-1.29.1-.93.29-1.29.46-.65.81-.85.76-.31 1.25-.31.89.1 1.24.31c.35.2.61.49.8.86s.28.8.28 1.3-.09.91-.28 1.27c-.18.36-.45.64-.8.84s-.77.3-1.25.3Zm-.01-1c.3 0 .54-.07.72-.2s.32-.31.4-.52c.08-.22.13-.45.13-.7s-.04-.49-.13-.71a1.2 1.2 0 0 0-.4-.54c-.18-.13-.42-.2-.72-.2s-.54.07-.73.2-.32.31-.41.53-.13.46-.13.72.04.49.13.71.22.39.41.52c.18.13.42.19.72.19Z" fill="#ffffff" data-color="1"></path>
        <path d="M62.7 109.93c-.49 0-.91-.1-1.24-.3s-.59-.48-.76-.85a3 3 0 0 1-.26-1.27c0-.48.09-.91.27-1.27.18-.37.44-.66.79-.87s.77-.31 1.27-.31c.37 0 .69.06.98.19s.52.31.69.55.29.54.34.9H63.7a.86.86 0 0 0-.36-.5c-.17-.11-.36-.16-.59-.16-.31 0-.55.07-.72.22-.18.15-.3.33-.38.55s-.12.45-.12.69.04.49.13.71c.08.22.21.39.39.53.18.13.41.2.69.2.23 0 .43-.05.62-.15.18-.1.3-.27.36-.5h1.12c-.04.37-.16.67-.37.91s-.45.42-.76.54q-.465.18-.99.18Z" fill="#ffffff" data-color="1"></path>
        <path d="M67.81 109.93c-.49 0-.9-.1-1.26-.3-.35-.2-.62-.48-.81-.85s-.28-.79-.28-1.29.1-.93.29-1.29.46-.65.81-.85.76-.31 1.25-.31.89.1 1.24.31c.35.2.61.49.8.86s.28.8.28 1.3-.09.91-.28 1.27c-.18.36-.45.64-.8.84s-.77.3-1.25.3Zm-.01-1c.3 0 .54-.07.72-.2s.32-.31.4-.52c.08-.22.13-.45.13-.7s-.04-.49-.13-.71a1.2 1.2 0 0 0-.4-.54c-.18-.13-.42-.2-.72-.2s-.54.07-.73.2-.32.31-.41.53-.13.46-.13.72.04.49.13.71.22.39.41.52c.18.13.42.19.72.19Z" fill="#ffffff" data-color="1"></path>
        <path d="M71.01 109.87v-4.74h1.03l.06.6c.13-.17.27-.3.44-.4s.35-.17.53-.21c.19-.04.36-.07.52-.07.45 0 .81.1 1.07.3s.45.46.55.79c.11.33.16.7.16 1.11v2.62h-1.1v-2.44c0-.17-.01-.34-.04-.51-.02-.17-.07-.31-.14-.45-.07-.13-.17-.24-.29-.32s-.29-.12-.5-.12q-.39 0-.66.21c-.18.14-.32.32-.41.55s-.13.49-.13.79v2.28H71Z" fill="#ffffff" data-color="1"></path>
        <path d="M78.48 109.87c-.38 0-.7-.05-.95-.15s-.43-.27-.56-.5c-.12-.23-.18-.53-.18-.92v-2.21h-.73v-.97h.73v-1.32h1.1v1.32H79v.97h-1.11v2.06c0 .24.04.42.13.55s.27.19.57.19h.38v.97h-.48Z" fill="#ffffff" data-color="1"></path>
        <path d="M79.72 109.87v-4.74h1l.06.62c.12-.18.26-.32.41-.42s.32-.17.49-.21q.27-.06.54-.06h.32v1.04h-.29c-.31 0-.58.06-.79.18-.22.12-.38.29-.49.51s-.16.49-.16.82v2.25h-1.1Z" fill="#ffffff" data-color="1"></path>
        <path d="M83.75 104.58c-.21 0-.38-.06-.5-.19s-.19-.29-.19-.5.07-.36.2-.49.3-.19.5-.19.36.06.5.19.21.29.21.5-.07.37-.2.5-.3.19-.5.19Zm-.55 5.29v-4.74h1.1v4.74z" fill="#ffffff" data-color="1"></path>
        <path d="M87.9 109.93c-.17 0-.35-.02-.52-.05-.17-.04-.34-.1-.5-.19s-.3-.21-.44-.36l-.03.54h-1.06v-6.36h1.1v2.21c.17-.22.4-.39.67-.5s.56-.17.85-.17c.47 0 .85.11 1.16.32s.53.5.67.87c.15.37.22.78.22 1.24s-.08.88-.23 1.25-.39.66-.7.88-.71.32-1.2.32Zm-.18-.97q.465 0 .72-.21c.18-.14.3-.33.38-.55q.12-.345.12-.72c0-.375-.04-.5-.12-.71-.08-.22-.21-.39-.39-.52s-.42-.2-.72-.2c-.28 0-.51.07-.7.21s-.33.32-.43.55-.14.46-.14.7c0 .25.04.49.13.71s.22.4.41.54.43.21.73.21Z" fill="#ffffff" data-color="1"></path>
        <path d="M93.01 109.93c-.68 0-1.21-.18-1.57-.53q-.54-.525-.54-1.62v-2.66H92v2.58c0 .25.03.47.1.66s.18.33.33.43.35.15.58.15c.25 0 .45-.05.6-.16a.83.83 0 0 0 .31-.44c.06-.19.09-.4.09-.64v-2.58h1.1v2.66c0 .74-.18 1.29-.55 1.63s-.88.52-1.54.52Z" fill="#ffffff" data-color="1"></path>
        <path d="M98.27 109.93c-.49 0-.91-.1-1.26-.31-.34-.2-.61-.49-.78-.85-.18-.36-.27-.79-.27-1.26s.09-.91.28-1.27c.18-.37.45-.66.79-.87s.76-.31 1.25-.31c.36 0 .67.06.95.19.27.13.5.3.68.53.18.22.32.47.41.76s.13.58.13.89c0 .07-.01.14-.02.21 0 .07-.01.14-.03.22h-3.33c.02.21.07.4.17.58s.23.31.4.41.38.15.64.15c.15 0 .29-.02.43-.06s.26-.1.36-.17q.165-.12.21-.3h1.1c-.08.34-.22.62-.43.84q-.315.33-.75.48c-.435.15-.6.15-.92.15Zm-1.19-2.9h2.29c0-.2-.04-.38-.13-.54s-.22-.29-.38-.38c-.17-.09-.36-.14-.6-.14q-.375 0-.63.15c-.17.1-.3.23-.39.4s-.14.33-.15.51Z" fill="#ffffff" data-color="1"></path>
        <path d="M101.31 109.87v-4.74h1.01l.07.54c.12-.16.25-.29.39-.37.14-.09.29-.15.44-.18s.3-.05.44-.05c.3 0 .56.06.77.18s.38.3.5.54c.12-.17.25-.3.4-.41s.31-.18.48-.23.34-.08.53-.08c.37 0 .66.08.88.23s.38.36.49.63c.1.27.15.57.15.91v3.04h-1.1v-2.69c0-.12 0-.25-.02-.38s-.04-.25-.09-.37a.7.7 0 0 0-.22-.28c-.1-.07-.23-.11-.41-.11s-.32.04-.43.11-.2.17-.27.3c-.07.12-.12.26-.14.4-.03.15-.04.29-.04.44v2.57h-1.1v-2.7c0-.11 0-.24-.02-.36a1.2 1.2 0 0 0-.09-.37c-.04-.12-.12-.21-.22-.28s-.24-.11-.41-.11q-.375 0-.57.21c-.13.14-.22.31-.26.5-.04.2-.07.39-.07.57v2.55h-1.1Z" fill="#ffffff" data-color="1"></path>
        <path d="M111.39 111.61v-6.49h1.03l.05.64c.19-.25.41-.43.67-.54s.54-.17.85-.17c.47 0 .86.11 1.16.32.31.22.53.51.68.87.15.37.23.78.23 1.24s-.08.88-.23 1.25c-.16.37-.39.66-.71.87s-.71.32-1.18.32c-.22 0-.42-.02-.61-.07-.18-.05-.35-.12-.49-.21s-.26-.19-.36-.31v2.27h-1.1Zm2.37-2.67c.31 0 .55-.07.72-.2.17-.14.3-.31.38-.53s.12-.45.12-.7-.04-.5-.12-.72q-.12-.33-.39-.54t-.72-.21c-.28 0-.51.07-.7.2s-.33.31-.43.54c-.1.22-.14.46-.14.72s.04.51.13.72c.09.22.23.39.42.52s.44.19.73.19Z" fill="#ffffff" data-color="1"></path>
        <path d="M118.45 109.93q-.33 0-.63-.09c-.2-.06-.38-.15-.53-.27s-.28-.26-.37-.44a1.4 1.4 0 0 1-.14-.62q0-.465.18-.75c.12-.19.28-.34.49-.45s.44-.17.71-.21c.26-.04.54-.06.83-.06h.93c0-.21-.03-.39-.1-.54a.83.83 0 0 0-.31-.36 1 1 0 0 0-.54-.14c-.14 0-.28.02-.4.05s-.23.08-.32.15a.5.5 0 0 0-.18.27h-1.12c.04-.25.13-.46.26-.63s.29-.32.48-.44c.19-.11.4-.2.62-.26.23-.06.46-.08.69-.08.69 0 1.19.2 1.51.59.32.4.47.95.47 1.67v2.56h-.97l-.03-.61c-.14.2-.3.35-.5.45-.19.1-.38.16-.56.18-.18.03-.33.04-.46.04Zm.22-.89c.24 0 .45-.04.64-.13s.33-.22.45-.38c.11-.16.17-.35.17-.56v-.15h-.86c-.14 0-.29 0-.43.01-.14 0-.27.03-.38.07s-.21.1-.27.17-.1.19-.1.33.04.26.11.35.17.16.3.21.25.07.39.07Z" fill="#ffffff" data-color="1"></path>
        <path d="M122.01 109.87v-4.74h1l.06.62c.12-.18.26-.32.41-.42s.32-.17.49-.21q.27-.06.54-.06h.32v1.04h-.29c-.31 0-.58.06-.79.18-.22.12-.38.29-.49.51s-.16.49-.16.82v2.25H122Z" fill="#ffffff" data-color="1"></path>
        <path d="M126.99 109.93q-.33 0-.63-.09c-.2-.06-.38-.15-.53-.27s-.28-.26-.37-.44a1.4 1.4 0 0 1-.14-.62q0-.465.18-.75c.12-.19.28-.34.49-.45s.44-.17.71-.21c.26-.04.54-.06.83-.06h.93c0-.21-.03-.39-.1-.54a.83.83 0 0 0-.31-.36 1 1 0 0 0-.54-.14c-.14 0-.28.02-.4.05s-.23.08-.32.15a.5.5 0 0 0-.18.27h-1.12c.04-.25.13-.46.26-.63s.29-.32.48-.44c.19-.11.4-.2.62-.26.23-.06.46-.08.69-.08.69 0 1.19.2 1.51.59.32.4.47.95.47 1.67v2.56h-.97l-.03-.61c-.14.2-.3.35-.5.45-.19.1-.38.16-.56.18-.18.03-.33.04-.46.04Zm.22-.89c.24 0 .45-.04.64-.13s.33-.22.45-.38c.11-.16.17-.35.17-.56v-.15h-.86c-.14 0-.29 0-.43.01-.14 0-.27.03-.38.07s-.21.1-.27.17-.1.19-.1.33.04.26.11.35.17.16.3.21.25.07.39.07Z" fill="#ffffff" data-color="1"></path>
        <path d="M134.56 109.93q-.33 0-.63-.09c-.2-.06-.38-.15-.53-.27s-.28-.26-.37-.44a1.4 1.4 0 0 1-.14-.62q0-.465.18-.75c.12-.19.28-.34.49-.45s.44-.17.71-.21c.26-.04.54-.06.83-.06h.93c0-.21-.03-.39-.1-.54a.83.83 0 0 0-.31-.36 1 1 0 0 0-.54-.14c-.14 0-.28.02-.4.05s-.23.08-.32.15a.5.5 0 0 0-.18.27h-1.12c.04-.25.13-.46.26-.63s.29-.32.48-.44c.19-.11.4-.2.62-.26.23-.06.46-.08.69-.08.69 0 1.19.2 1.51.59.32.4.47.95.47 1.67v2.56h-.97l-.03-.61c-.14.2-.3.35-.5.45-.19.1-.38.16-.56.18-.18.03-.33.04-.46.04Zm.22-.89c.24 0 .45-.04.64-.13s.33-.22.45-.38c.11-.16.17-.35.17-.56v-.15h-.86c-.14 0-.29 0-.43.01-.14 0-.27.03-.38.07s-.21.1-.27.17-.1.19-.1.33.04.26.11.35.17.16.3.21.25.07.39.07Z" fill="#ffffff" data-color="1"></path>
        <path d="M11.86 119.43c-.48 0-.88-.11-1.19-.33s-.54-.51-.7-.88c-.15-.37-.23-.77-.23-1.22s.08-.89.24-1.25.41-.66.73-.87.73-.32 1.21-.32a2.2 2.2 0 0 1 1.02.24c.15.08.28.19.38.32v-2.11h1.1v6.36h-1.06l-.02-.59c-.11.15-.25.27-.4.37s-.32.17-.51.22-.38.07-.58.07Zm.21-.99c.29 0 .53-.07.71-.2q.285-.21.42-.54a1.92 1.92 0 0 0 0-1.44c-.09-.22-.23-.39-.42-.52s-.42-.2-.71-.2q-.465 0-.72.21-.27.21-.39.54c-.12.33-.12.47-.12.72 0 .19.02.37.07.54.04.17.12.32.21.46s.22.24.38.31.35.11.58.11Z" fill="#ffffff" data-color="1"></path>
        <path d="M16.04 114.08c-.21 0-.38-.06-.5-.19s-.19-.29-.19-.5.07-.36.2-.49.3-.19.5-.19.36.06.5.19.21.29.21.5-.07.37-.2.5-.3.19-.5.19Zm-.55 5.29v-4.74h1.1v4.74z" fill="#ffffff" data-color="1"></path>
        <path d="M17.65 119.37v-4.74h1.01l.07.54c.12-.16.25-.29.39-.37.14-.09.29-.15.44-.18s.3-.05.44-.05c.3 0 .56.06.77.18s.38.3.5.54c.12-.17.25-.3.4-.41s.31-.18.48-.23.34-.08.53-.08c.37 0 .66.08.88.23s.38.36.49.63c.1.27.15.57.15.91v3.04h-1.1v-2.69c0-.12 0-.25-.02-.38s-.04-.25-.09-.37a.7.7 0 0 0-.22-.28c-.1-.07-.23-.11-.41-.11s-.32.04-.43.11-.2.17-.27.3c-.07.12-.12.26-.14.4-.03.15-.04.29-.04.44v2.57h-1.1v-2.7c0-.11 0-.24-.02-.36a1.2 1.2 0 0 0-.09-.37c-.04-.12-.12-.21-.22-.28s-.24-.11-.41-.11q-.375 0-.57.21c-.13.14-.22.31-.26.5-.04.2-.07.39-.07.57v2.55h-1.1Z" fill="#ffffff" data-color="1"></path>
        <path d="M25.77 114.08c-.21 0-.38-.06-.5-.19s-.19-.29-.19-.5.07-.36.2-.49.3-.19.5-.19.36.06.5.19.21.29.21.5-.07.37-.2.5-.3.19-.5.19Zm-.55 5.29v-4.74h1.1v4.74z" fill="#ffffff" data-color="1"></path>
        <path d="M27.38 119.37v-4.74h1.03l.06.6c.13-.17.27-.3.44-.4s.35-.17.53-.21c.19-.04.36-.07.52-.07.45 0 .81.1 1.07.3s.45.46.55.79c.11.33.16.7.16 1.11v2.62h-1.1v-2.44c0-.17-.01-.34-.04-.51-.02-.17-.07-.31-.14-.45-.07-.13-.17-.24-.29-.32s-.29-.12-.5-.12q-.39 0-.66.21c-.18.14-.32.32-.41.55s-.13.49-.13.79v2.28h-1.1Z" fill="#ffffff" data-color="1"></path>
        <path d="M34.88 119.43c-.68 0-1.21-.18-1.57-.53q-.54-.525-.54-1.62v-2.66h1.1v2.58c0 .25.03.47.1.66s.18.33.33.43.35.15.58.15c.25 0 .45-.05.6-.16a.83.83 0 0 0 .31-.44c.06-.19.09-.4.09-.64v-2.58h1.1v2.66c0 .74-.18 1.29-.55 1.63s-.88.52-1.54.52Z" fill="#ffffff" data-color="1"></path>
        <path d="M38.57 114.08c-.21 0-.38-.06-.5-.19s-.19-.29-.19-.5.07-.36.2-.49.3-.19.5-.19.36.06.5.19.21.29.21.5-.07.37-.2.5-.3.19-.5.19Zm-.55 5.29v-4.74h1.1v4.74z" fill="#ffffff" data-color="1"></path>
        <path d="M42.27 119.43c-.49 0-.91-.1-1.24-.3s-.59-.48-.76-.85a3 3 0 0 1-.26-1.27c0-.48.09-.91.27-1.27.18-.37.44-.66.79-.87s.77-.31 1.27-.31c.37 0 .69.06.98.19s.52.31.69.55.29.54.34.9h-1.08a.86.86 0 0 0-.36-.5c-.17-.11-.36-.16-.59-.16-.31 0-.55.07-.72.22-.18.15-.3.33-.38.55s-.12.45-.12.69.04.49.13.71c.08.22.21.39.39.53.18.13.41.2.69.2.23 0 .43-.05.62-.15.18-.1.3-.27.36-.5h1.12c-.04.37-.16.67-.37.91s-.45.42-.76.54q-.465.18-.99.18Zm-.17 2.3h-.33c-.1 0-.2 0-.29-.02v-.66c.13.01.26.02.38.01s.23-.02.32-.04c.09-.03.17-.07.23-.13s.08-.14.08-.23a.24.24 0 0 0-.08-.19c-.06-.04-.12-.08-.2-.09-.08-.02-.14-.02-.2-.02-.08 0-.17 0-.26.02a.7.7 0 0 0-.24.06l.33-1.29h.74l-.15.66h.21c.22.01.39.08.52.22s.19.33.19.59-.06.45-.17.61q-.165.24-.45.36c-.19.08-.39.13-.61.15Z" fill="#ffffff" data-color="1"></path>
        <path d="M46.72 119.43q-.33 0-.63-.09c-.2-.06-.38-.15-.53-.27s-.28-.26-.37-.44a1.4 1.4 0 0 1-.14-.62q0-.465.18-.75c.12-.19.28-.34.49-.45s.44-.17.71-.21c.26-.04.54-.06.83-.06h.93c0-.21-.03-.39-.1-.54a.83.83 0 0 0-.31-.36 1 1 0 0 0-.54-.14c-.14 0-.28.02-.4.05s-.23.08-.32.15a.5.5 0 0 0-.18.27h-1.12c.04-.25.13-.46.26-.63s.29-.32.48-.44c.19-.11.4-.2.62-.26.23-.06.46-.08.69-.08.69 0 1.19.2 1.51.59.32.4.47.95.47 1.67v2.56h-.97l-.03-.61c-.14.2-.3.35-.5.45-.19.1-.38.16-.56.18-.18.03-.33.04-.46.04Zm1.24-5.38c-.17 0-.32-.03-.44-.09-.13-.06-.24-.14-.34-.22s-.19-.16-.27-.22a.4.4 0 0 0-.24-.09c-.08 0-.15.04-.18.11s-.06.15-.07.25v.23h-.79c-.01-.23.01-.45.07-.66s.16-.38.32-.52c.15-.13.37-.2.64-.2.16 0 .29.03.4.09s.22.13.31.22.18.15.26.22c.08.06.16.09.23.09.1 0 .16-.03.2-.1s.06-.15.06-.23v-.23h.79c0 .22-.02.44-.07.65s-.15.38-.28.52c-.14.13-.34.2-.6.2Zm-1.02 4.49c.24 0 .45-.04.64-.13s.33-.22.45-.38c.11-.16.17-.35.17-.56v-.15h-.86c-.14 0-.29 0-.43.01-.14 0-.27.03-.38.07s-.21.1-.27.17-.1.19-.1.33.04.26.11.35.17.16.3.21.25.07.39.07Z" fill="#ffffff" data-color="1"></path>
        <path d="M52.45 119.43c-.49 0-.9-.1-1.26-.3-.35-.2-.62-.48-.81-.85s-.28-.79-.28-1.29.1-.93.29-1.29.46-.65.81-.85.76-.31 1.25-.31.89.1 1.24.31c.35.2.61.49.8.86s.28.8.28 1.3-.09.91-.28 1.27c-.18.36-.45.64-.8.84s-.77.3-1.25.3Zm-.01-1c.3 0 .54-.07.72-.2s.32-.31.4-.52c.08-.22.13-.45.13-.7s-.04-.49-.13-.71a1.2 1.2 0 0 0-.4-.54c-.18-.13-.42-.2-.72-.2s-.54.07-.73.2-.32.31-.41.53-.13.46-.13.72.04.49.13.71.22.39.41.52c.18.13.42.19.72.19Z" fill="#ffffff" data-color="1"></path>
        <path d="M60.09 119.43c-.48 0-.88-.11-1.19-.33s-.54-.51-.7-.88c-.15-.37-.23-.77-.23-1.22s.08-.89.24-1.25.41-.66.73-.87.73-.32 1.21-.32a2.2 2.2 0 0 1 1.02.24c.15.08.28.19.38.32v-2.11h1.1v6.36h-1.06l-.02-.59c-.11.15-.25.27-.4.37s-.32.17-.51.22-.38.07-.58.07Zm.2-.99c.29 0 .53-.07.71-.2q.285-.21.42-.54a1.92 1.92 0 0 0 0-1.44c-.09-.22-.23-.39-.42-.52s-.42-.2-.71-.2q-.465 0-.72.21-.27.21-.39.54c-.12.33-.12.47-.12.72 0 .19.02.37.07.54.04.17.12.32.21.46s.22.24.38.31.35.11.58.11Z" fill="#ffffff" data-color="1"></path>
        <path d="M65.88 119.43c-.49 0-.9-.1-1.26-.3-.35-.2-.62-.48-.81-.85s-.28-.79-.28-1.29.1-.93.29-1.29.46-.65.81-.85.76-.31 1.25-.31.89.1 1.24.31c.35.2.61.49.8.86s.28.8.28 1.3-.09.91-.28 1.27c-.18.36-.45.64-.8.84s-.77.3-1.25.3Zm-.01-1c.3 0 .54-.07.72-.2s.32-.31.4-.52c.08-.22.13-.45.13-.7s-.04-.49-.13-.71a1.2 1.2 0 0 0-.4-.54c-.18-.13-.42-.2-.72-.2s-.54.07-.73.2-.32.31-.41.53-.13.46-.13.72.04.49.13.71.22.39.41.52c.18.13.42.19.72.19Z" fill="#ffffff" data-color="1"></path>
        <path d="M73.71 119.43c-.49 0-.91-.1-1.26-.31-.34-.2-.61-.49-.78-.85-.18-.36-.27-.79-.27-1.26s.09-.91.28-1.27c.18-.37.45-.66.79-.87s.76-.31 1.25-.31c.36 0 .67.06.95.19.27.13.5.3.68.53.18.22.32.47.41.76s.13.58.13.89c0 .07-.01.14-.02.21 0 .07-.01.14-.03.22h-3.33c.02.21.07.4.17.58s.23.31.4.41.38.15.64.15c.15 0 .29-.02.43-.06s.26-.1.36-.17q.165-.12.21-.3h1.1c-.08.34-.22.62-.43.84q-.315.33-.75.48c-.435.15-.6.15-.92.15Zm-1.19-2.9h2.29c0-.2-.04-.38-.13-.54s-.22-.29-.38-.38c-.17-.09-.36-.14-.6-.14q-.375 0-.63.15c-.17.1-.3.23-.39.4s-.14.33-.15.51Z" fill="#ffffff" data-color="1"></path>
        <path d="M78.57 119.43c-.23 0-.45-.02-.68-.07q-.345-.075-.63-.24a1.25 1.25 0 0 1-.5-.46c-.13-.19-.22-.43-.26-.72h1.11c.05.13.12.24.23.32s.23.14.37.18.28.06.42.06c.08 0 .17 0 .27-.02.1-.01.19-.04.28-.07s.16-.09.21-.16.08-.16.08-.27-.03-.19-.09-.26a.7.7 0 0 0-.24-.15c-.1-.04-.22-.07-.37-.09-.26-.05-.53-.11-.83-.18a2.2 2.2 0 0 1-.76-.3.9.9 0 0 1-.23-.19c-.07-.07-.12-.15-.17-.24s-.08-.18-.1-.28q-.03-.15-.03-.33c0-.25.05-.47.16-.64.11-.18.25-.32.42-.43.18-.11.38-.19.61-.25.23-.05.46-.08.7-.08.32 0 .62.05.88.15s.48.26.66.47.28.48.32.8h-1.04q-.045-.225-.27-.36c-.225-.135-.35-.13-.58-.13-.08 0-.17 0-.26.02-.09.01-.17.04-.26.07s-.15.08-.2.15-.08.15-.08.24.02.17.07.23c.04.07.11.12.21.17.09.04.2.08.33.11.2.04.42.08.64.13.22.04.41.08.58.13.19.05.37.13.52.23q.24.15.36.39c.09.16.13.36.13.61q0 .435-.18.72c-.12.19-.27.34-.46.45s-.4.19-.64.23-.46.07-.69.07Z" fill="#ffffff" data-color="1"></path>
        <path d="M83.33 119.37c-.38 0-.7-.05-.95-.15s-.43-.27-.56-.5c-.12-.23-.18-.53-.18-.92v-2.21h-.73v-.97h.73v-1.32h1.1v1.32h1.11v.97h-1.11v2.06c0 .24.04.42.13.55s.27.19.57.19h.38v.97h-.48Z" fill="#ffffff" data-color="1"></path>
        <path d="M84.58 119.37v-4.74h1l.06.62c.12-.18.26-.32.41-.42s.32-.17.49-.21q.27-.06.54-.06h.32v1.04h-.29c-.31 0-.58.06-.79.18-.22.12-.38.29-.49.51s-.16.49-.16.82v2.25h-1.1Z" fill="#ffffff" data-color="1"></path>
        <path d="M90.17 119.43c-.49 0-.91-.1-1.26-.31-.34-.2-.61-.49-.78-.85-.18-.36-.27-.79-.27-1.26s.09-.91.28-1.27c.18-.37.45-.66.79-.87s.76-.31 1.25-.31c.36 0 .67.06.95.19.27.13.5.3.68.53.18.22.32.47.41.76s.13.58.13.89c0 .07-.01.14-.02.21 0 .07-.01.14-.03.22h-3.33c.02.21.07.4.17.58s.23.31.4.41.38.15.64.15c.15 0 .29-.02.43-.06s.26-.1.36-.17q.165-.12.21-.3h1.1c-.08.34-.22.62-.43.84q-.315.33-.75.48c-.435.15-.6.15-.92.15Zm-1.19-2.9h2.29c0-.2-.04-.38-.13-.54s-.22-.29-.38-.38c-.17-.09-.36-.14-.6-.14q-.375 0-.63.15c-.17.1-.3.23-.39.4s-.14.33-.15.51Z" fill="#ffffff" data-color="1"></path>
        <path d="M95.03 119.43c-.23 0-.45-.02-.68-.07q-.345-.075-.63-.24a1.25 1.25 0 0 1-.5-.46c-.13-.19-.22-.43-.26-.72h1.11c.05.13.12.24.23.32s.23.14.37.18.28.06.42.06c.08 0 .17 0 .27-.02.1-.01.19-.04.28-.07s.16-.09.21-.16.08-.16.08-.27-.03-.19-.09-.26a.7.7 0 0 0-.24-.15c-.1-.04-.22-.07-.37-.09-.26-.05-.53-.11-.83-.18a2.2 2.2 0 0 1-.76-.3.9.9 0 0 1-.23-.19c-.07-.07-.12-.15-.17-.24s-.08-.18-.1-.28q-.03-.15-.03-.33c0-.25.05-.47.16-.64.11-.18.25-.32.42-.43.18-.11.38-.19.61-.25.23-.05.46-.08.7-.08.32 0 .62.05.88.15s.48.26.66.47.28.48.32.8h-1.04q-.045-.225-.27-.36c-.225-.135-.35-.13-.58-.13-.08 0-.17 0-.26.02-.09.01-.17.04-.26.07s-.15.08-.2.15-.08.15-.08.24.02.17.07.23c.04.07.11.12.21.17.09.04.2.08.33.11.2.04.42.08.64.13.22.04.41.08.58.13.19.05.37.13.52.23q.24.15.36.39c.09.16.13.36.13.61q0 .435-.18.72c-.12.19-.27.34-.46.45s-.4.19-.64.23-.46.07-.69.07Z" fill="#ffffff" data-color="1"></path>
        <path d="M99.63 119.43c-.23 0-.45-.02-.68-.07q-.345-.075-.63-.24a1.25 1.25 0 0 1-.5-.46c-.13-.19-.22-.43-.26-.72h1.11c.05.13.12.24.23.32s.23.14.37.18.28.06.42.06c.08 0 .17 0 .27-.02.1-.01.19-.04.28-.07s.16-.09.21-.16.08-.16.08-.27-.03-.19-.09-.26a.7.7 0 0 0-.24-.15c-.1-.04-.22-.07-.37-.09-.26-.05-.53-.11-.83-.18a2.2 2.2 0 0 1-.76-.3.9.9 0 0 1-.23-.19c-.07-.07-.12-.15-.17-.24s-.08-.18-.1-.28q-.03-.15-.03-.33c0-.25.05-.47.16-.64.11-.18.25-.32.42-.43.18-.11.38-.19.61-.25.23-.05.46-.08.7-.08.32 0 .62.05.88.15s.48.26.66.47.28.48.32.8h-1.04q-.045-.225-.27-.36c-.225-.135-.35-.13-.58-.13-.08 0-.17 0-.26.02-.09.01-.17.04-.26.07s-.15.08-.2.15-.08.15-.08.24.02.17.07.23c.04.07.11.12.21.17.09.04.2.08.33.11.2.04.42.08.64.13.22.04.41.08.58.13.19.05.37.13.52.23q.24.15.36.39c.09.16.13.36.13.61q0 .435-.18.72c-.12.19-.27.34-.46.45s-.4.19-.64.23-.46.07-.69.07Z" fill="#ffffff" data-color="1"></path>
        <path d="M104.54 119.43c-.49 0-.91-.1-1.26-.31-.34-.2-.61-.49-.78-.85-.18-.36-.27-.79-.27-1.26s.09-.91.28-1.27c.18-.37.45-.66.79-.87s.76-.31 1.25-.31c.36 0 .67.06.95.19.27.13.5.3.68.53.18.22.32.47.41.76s.13.58.13.89c0 .07-.01.14-.02.21 0 .07-.01.14-.03.22h-3.33c.02.21.07.4.17.58s.23.31.4.41.38.15.64.15c.15 0 .29-.02.43-.06s.26-.1.36-.17q.165-.12.21-.3h1.1c-.08.34-.22.62-.43.84q-.315.33-.75.48c-.435.15-.6.15-.92.15Zm-1.19-2.9h2.29c0-.2-.04-.38-.13-.54s-.22-.29-.38-.38c-.17-.09-.36-.14-.6-.14q-.375 0-.63.15c-.17.1-.3.23-.39.4s-.14.33-.15.51Z" fill="#ffffff" data-color="1"></path>
        <path d="M112.25 119.43c-.49 0-.9-.1-1.26-.3-.35-.2-.62-.48-.81-.85s-.28-.79-.28-1.29.1-.93.29-1.29.46-.65.81-.85.76-.31 1.25-.31.89.1 1.24.31c.35.2.61.49.8.86s.28.8.28 1.3-.09.91-.28 1.27c-.18.36-.45.64-.8.84s-.77.3-1.25.3Zm-.01-1c.3 0 .54-.07.72-.2s.32-.31.4-.52c.08-.22.13-.45.13-.7s-.04-.49-.13-.71a1.2 1.2 0 0 0-.4-.54c-.18-.13-.42-.2-.72-.2s-.54.07-.73.2-.32.31-.41.53-.13.46-.13.72.04.49.13.71.22.39.41.52c.18.13.42.19.72.19Z" fill="#ffffff" data-color="1"></path>
        <path d="m114.9 119.37 1.67-2.42-1.58-2.32h1.28l1.03 1.59 1-1.59h1.25l-1.58 2.35 1.7 2.39h-1.29l-1.12-1.64-1.12 1.64h-1.22Z" fill="#ffffff" data-color="1"></path>
        <path d="M120.82 114.08c-.21 0-.38-.06-.5-.19s-.19-.29-.19-.5.07-.36.2-.49.3-.19.5-.19.36.06.5.19.21.29.21.5-.07.37-.2.5-.3.19-.5.19Zm-.55 5.29v-4.74h1.1v4.74z" fill="#ffffff" data-color="1"></path>
        <path d="M124.36 119.43c-.48 0-.88-.11-1.19-.33s-.54-.51-.7-.88c-.15-.37-.23-.77-.23-1.22s.08-.89.24-1.25.41-.66.73-.87.73-.32 1.21-.32a2.2 2.2 0 0 1 1.02.24c.15.08.28.19.38.32v-2.11h1.1v6.36h-1.06l-.02-.59c-.11.15-.25.27-.4.37s-.32.17-.51.22-.38.07-.58.07Zm.21-.99c.29 0 .53-.07.71-.2q.285-.21.42-.54a1.92 1.92 0 0 0 0-1.44c-.09-.22-.23-.39-.42-.52s-.42-.2-.71-.2q-.465 0-.72.21-.27.21-.39.54c-.12.33-.12.47-.12.72 0 .19.02.37.07.54.04.17.12.32.21.46s.22.24.38.31.35.11.58.11Z" fill="#ffffff" data-color="1"></path>
        <path d="M129.5 119.43q-.33 0-.63-.09c-.2-.06-.38-.15-.53-.27s-.28-.26-.37-.44a1.4 1.4 0 0 1-.14-.62q0-.465.18-.75c.12-.19.28-.34.49-.45s.44-.17.71-.21c.26-.04.54-.06.83-.06h.93c0-.21-.03-.39-.1-.54a.83.83 0 0 0-.31-.36 1 1 0 0 0-.54-.14c-.14 0-.28.02-.4.05s-.23.08-.32.15a.5.5 0 0 0-.18.27H128c.04-.25.13-.46.26-.63s.29-.32.48-.44c.19-.11.4-.2.62-.26.23-.06.46-.08.69-.08.69 0 1.19.2 1.51.59.32.4.47.95.47 1.67v2.56h-.97l-.03-.61c-.14.2-.3.35-.5.45-.19.1-.38.16-.56.18-.18.03-.33.04-.46.04Zm.22-.89c.24 0 .45-.04.64-.13s.33-.22.45-.38c.11-.16.17-.35.17-.56v-.15h-.86c-.14 0-.29 0-.43.01-.14 0-.27.03-.38.07s-.21.1-.27.17-.1.19-.1.33.04.26.11.35.17.16.3.21.25.07.39.07Z" fill="#ffffff" data-color="1"></path>
        <path d="M135.13 119.37c-.38 0-.7-.05-.95-.15s-.43-.27-.56-.5c-.12-.23-.18-.53-.18-.92v-2.21h-.73v-.97h.73v-1.32h1.1v1.32h1.11v.97h-1.11v2.06c0 .24.04.42.13.55s.27.19.57.19h.38v.97h-.48Z" fill="#ffffff" data-color="1"></path>
        <path d="M136.92 114.08c-.21 0-.38-.06-.5-.19s-.19-.29-.19-.5.07-.36.2-.49.3-.19.5-.19.36.06.5.19.21.29.21.5-.07.37-.2.5-.3.19-.5.19Zm-.55 5.29v-4.74h1.1v4.74z" fill="#ffffff" data-color="1"></path>
        <path d="m139.73 119.37-1.72-4.74h1.22l1.25 3.81 1.24-3.81h1.21l-1.72 4.74z" fill="#ffffff" data-color="1"></path>
        <path d="M145.65 119.43c-.49 0-.9-.1-1.26-.3-.35-.2-.62-.48-.81-.85s-.28-.79-.28-1.29.1-.93.29-1.29.46-.65.81-.85.76-.31 1.25-.31.89.1 1.24.31c.35.2.61.49.8.86s.28.8.28 1.3-.09.91-.28 1.27c-.18.36-.45.64-.8.84s-.77.3-1.25.3Zm-.01-1c.3 0 .54-.07.72-.2s.32-.31.4-.52c.08-.22.13-.45.13-.7s-.04-.49-.13-.71a1.2 1.2 0 0 0-.4-.54c-.18-.13-.42-.2-.72-.2s-.54.07-.73.2-.32.31-.41.53-.13.46-.13.72.04.49.13.71.22.39.41.52c.18.13.42.19.72.19Z" fill="#ffffff" data-color="1"></path>
        <path d="M16.5 128.93c-.49 0-.91-.1-1.24-.3s-.59-.48-.76-.85a3 3 0 0 1-.26-1.27c0-.48.09-.91.27-1.27.18-.37.44-.66.79-.87s.77-.31 1.27-.31c.37 0 .69.06.98.19s.52.31.69.55.29.54.34.9H17.5a.86.86 0 0 0-.36-.5c-.17-.11-.36-.16-.59-.16-.31 0-.55.07-.72.22-.18.15-.3.33-.38.55s-.12.45-.12.69.04.49.13.71c.08.22.21.39.39.53.18.13.41.2.69.2.23 0 .43-.05.62-.15.18-.1.3-.27.36-.5h1.12c-.04.37-.16.67-.37.91s-.45.42-.76.54q-.465.18-.99.18Z" fill="#ffffff" data-color="1"></path>
        <path d="M21.57 128.93c-.49 0-.91-.1-1.26-.31-.34-.2-.61-.49-.78-.85-.18-.36-.27-.79-.27-1.26s.09-.91.28-1.27c.18-.37.45-.66.79-.87s.76-.31 1.25-.31c.36 0 .67.06.95.19.27.13.5.3.68.53.18.22.32.47.41.76s.13.58.13.89c0 .07-.01.14-.02.21 0 .07-.01.14-.03.22h-3.33c.02.21.07.4.17.58s.23.31.4.41.38.15.64.15c.15 0 .29-.02.43-.06s.26-.1.36-.17q.165-.12.21-.3h1.1c-.08.34-.22.62-.43.84q-.315.33-.75.48c-.435.15-.6.15-.92.15Zm-1.19-2.9h2.29c0-.2-.04-.38-.13-.54s-.22-.29-.38-.38c-.17-.09-.36-.14-.6-.14q-.375 0-.63.15c-.17.1-.3.23-.39.4s-.14.33-.15.51Z" fill="#ffffff" data-color="1"></path>
        <path d="M24.61 128.87v-6.36h1.1v6.36z" fill="#ffffff" data-color="1"></path>
        <path d="M28.86 128.93c-.68 0-1.21-.18-1.57-.53q-.54-.525-.54-1.62v-2.66h1.1v2.58c0 .25.03.47.1.66s.18.33.33.43.35.15.58.15c.25 0 .45-.05.6-.16a.83.83 0 0 0 .31-.44c.06-.19.09-.4.09-.64v-2.58h1.1v2.66c0 .74-.18 1.29-.55 1.63s-.88.52-1.54.52Z" fill="#ffffff" data-color="1"></path>
        <path d="M32.01 128.87v-6.36h1.1v6.36z" fill="#ffffff" data-color="1"></path>
        <path d="M35.68 128.93q-.33 0-.63-.09c-.2-.06-.38-.15-.53-.27s-.28-.26-.37-.44a1.4 1.4 0 0 1-.14-.62q0-.465.18-.75c.12-.19.28-.34.49-.45s.44-.17.71-.21c.26-.04.54-.06.83-.06h.93c0-.21-.03-.39-.1-.54a.83.83 0 0 0-.31-.36 1 1 0 0 0-.54-.14c-.14 0-.28.02-.4.05s-.23.08-.32.15a.5.5 0 0 0-.18.27h-1.12c.04-.25.13-.46.26-.63s.29-.32.48-.44c.19-.11.4-.2.62-.26.23-.06.46-.08.69-.08.69 0 1.19.2 1.51.59.32.4.47.95.47 1.67v2.56h-.97l-.03-.61c-.14.2-.3.35-.5.45-.19.1-.38.16-.56.18-.18.03-.33.04-.46.04Zm.21-.89c.24 0 .45-.04.64-.13s.33-.22.45-.38c.11-.16.17-.35.17-.56v-.15h-.86c-.14 0-.29 0-.43.01-.14 0-.27.03-.38.07s-.21.1-.27.17-.1.19-.1.33.04.26.11.35.17.16.3.21.25.07.39.07Z" fill="#ffffff" data-color="1"></path>
        <path d="M39.23 128.87v-4.74h1l.06.62c.12-.18.26-.32.41-.42s.32-.17.49-.21q.27-.06.54-.06h.32v1.04h-.29c-.31 0-.58.06-.79.18-.22.12-.38.29-.49.51s-.16.49-.16.82v2.25h-1.1Z" fill="#ffffff" data-color="1"></path>
        <path d="m43.02 130.15-.31-.48c.09-.05.18-.12.28-.2.1-.09.18-.18.27-.29.08-.1.14-.2.17-.28a.83.83 0 0 1-.45-.19c-.12-.11-.18-.27-.18-.47s.07-.38.22-.5c.14-.12.31-.18.49-.18.23 0 .41.08.54.26.13.17.2.39.2.67 0 .25-.06.48-.17.71-.12.23-.27.43-.45.59-.18.17-.38.29-.58.36Z" fill="#ffffff" data-color="1"></path>
        <path d="M48.97 128.93q-.33 0-.63-.09c-.2-.06-.38-.15-.53-.27s-.28-.26-.37-.44a1.4 1.4 0 0 1-.14-.62q0-.465.18-.75c.12-.19.28-.34.49-.45s.44-.17.71-.21c.26-.04.54-.06.83-.06h.93c0-.21-.03-.39-.1-.54a.83.83 0 0 0-.31-.36 1 1 0 0 0-.54-.14c-.14 0-.28.02-.4.05s-.23.08-.32.15a.5.5 0 0 0-.18.27h-1.12c.04-.25.13-.46.26-.63s.29-.32.48-.44c.19-.11.4-.2.62-.26.23-.06.46-.08.69-.08.69 0 1.19.2 1.51.59.32.4.47.95.47 1.67v2.56h-.97l-.03-.61c-.14.2-.3.35-.5.45-.19.1-.38.16-.56.18-.18.03-.33.04-.46.04Zm.22-.89c.24 0 .45-.04.64-.13s.33-.22.45-.38c.11-.16.17-.35.17-.56v-.15h-.86c-.14 0-.29 0-.43.01-.14 0-.27.03-.38.07s-.21.1-.27.17-.1.19-.1.33.04.26.11.35.17.16.3.21.25.07.39.07Z" fill="#ffffff" data-color="1"></path>
        <path d="M54.62 128.93c-.68 0-1.21-.18-1.57-.53q-.54-.525-.54-1.62v-2.66h1.1v2.58c0 .25.03.47.1.66s.18.33.33.43.35.15.58.15c.25 0 .45-.05.6-.16a.83.83 0 0 0 .31-.44c.06-.19.09-.4.09-.64v-2.58h1.1v2.66c0 .74-.18 1.29-.55 1.63s-.88.52-1.54.52Z" fill="#ffffff" data-color="1"></path>
        <path d="m57.3 128.87 1.67-2.42-1.58-2.32h1.28l1.03 1.59 1-1.59h1.25l-1.58 2.35 1.7 2.39h-1.29l-1.12-1.64-1.12 1.64h-1.22Z" fill="#ffffff" data-color="1"></path>
        <path d="M63.22 123.58c-.21 0-.38-.06-.5-.19s-.19-.29-.19-.5.07-.36.2-.49.3-.19.5-.19.36.06.5.19.21.29.21.5-.07.37-.2.5-.3.19-.5.19Zm-.55 5.29v-4.74h1.1v4.74z" fill="#ffffff" data-color="1"></path>
        <path d="M64.83 128.87v-6.36h1.1v6.36z" fill="#ffffff" data-color="1"></path>
        <path d="M67.54 123.58c-.21 0-.38-.06-.5-.19s-.19-.29-.19-.5.07-.36.2-.49.3-.19.5-.19.36.06.5.19.21.29.21.5-.07.37-.2.5-.3.19-.5.19Zm-.55 5.29v-4.74h1.1v4.74z" fill="#ffffff" data-color="1"></path>
        <path d="M70.66 128.93q-.33 0-.63-.09c-.2-.06-.38-.15-.53-.27s-.28-.26-.37-.44a1.4 1.4 0 0 1-.14-.62q0-.465.18-.75c.12-.19.28-.34.49-.45s.44-.17.71-.21c.26-.04.54-.06.83-.06h.93c0-.21-.03-.39-.1-.54a.83.83 0 0 0-.31-.36 1 1 0 0 0-.54-.14c-.14 0-.28.02-.4.05s-.23.08-.32.15a.5.5 0 0 0-.18.27h-1.12c.04-.25.13-.46.26-.63s.29-.32.48-.44c.19-.11.4-.2.62-.26.23-.06.46-.08.69-.08.69 0 1.19.2 1.51.59.32.4.47.95.47 1.67v2.56h-.97l-.03-.61c-.14.2-.3.35-.5.45-.19.1-.38.16-.56.18-.18.03-.33.04-.46.04Zm.22-.89c.24 0 .45-.04.64-.13s.33-.22.45-.38c.11-.16.17-.35.17-.56v-.15h-.86c-.14 0-.29 0-.43.01-.14 0-.27.03-.38.07s-.21.1-.27.17-.1.19-.1.33.04.26.11.35.17.16.3.21.25.07.39.07Z" fill="#ffffff" data-color="1"></path>
        <path d="M74.22 128.87v-4.74h1.03l.06.6c.13-.17.27-.3.44-.4s.35-.17.53-.21c.19-.04.36-.07.52-.07.45 0 .81.1 1.07.3s.45.46.55.79c.11.33.16.7.16 1.11v2.62h-1.1v-2.44c0-.17-.01-.34-.04-.51-.02-.17-.07-.31-.14-.45-.07-.13-.17-.24-.29-.32s-.29-.12-.5-.12q-.39 0-.66.21c-.18.14-.32.32-.41.55s-.13.49-.13.79v2.28h-1.1Z" fill="#ffffff" data-color="1"></path>
        <path d="M81.55 128.93c-.48 0-.88-.11-1.19-.33s-.54-.51-.7-.88c-.15-.37-.23-.77-.23-1.22s.08-.89.24-1.25.41-.66.73-.87.73-.32 1.21-.32a2.2 2.2 0 0 1 1.02.24c.15.08.28.19.38.32v-2.11h1.1v6.36h-1.06l-.02-.59c-.11.15-.25.27-.4.37s-.32.17-.51.22-.38.07-.58.07Zm.21-.99c.29 0 .53-.07.71-.2q.285-.21.42-.54a1.92 1.92 0 0 0 0-1.44c-.09-.22-.23-.39-.42-.52s-.42-.2-.71-.2q-.465 0-.72.21-.27.21-.39.54c-.12.33-.12.47-.12.72 0 .19.02.37.07.54.04.17.12.32.21.46s.22.24.38.31.35.11.58.11Z" fill="#ffffff" data-color="1"></path>
        <path d="M87.35 128.93c-.49 0-.9-.1-1.26-.3-.35-.2-.62-.48-.81-.85s-.28-.79-.28-1.29.1-.93.29-1.29.46-.65.81-.85.76-.31 1.25-.31.89.1 1.24.31c.35.2.61.49.8.86s.28.8.28 1.3-.09.91-.28 1.27c-.18.36-.45.64-.8.84s-.77.3-1.25.3Zm-.01-1c.3 0 .54-.07.72-.2s.32-.31.4-.52c.08-.22.13-.45.13-.7s-.04-.49-.13-.71a1.2 1.2 0 0 0-.4-.54c-.18-.13-.42-.2-.72-.2s-.54.07-.73.2-.32.31-.41.53-.13.46-.13.72.04.49.13.71.22.39.41.52c.18.13.42.19.72.19Z" fill="#ffffff" data-color="1"></path>
        <path d="M93.05 128.87v-4.74h1.03l.06.6c.13-.17.27-.3.44-.4s.35-.17.53-.21c.19-.04.36-.07.52-.07.45 0 .81.1 1.07.3s.45.46.55.79c.11.33.16.7.16 1.11v2.62h-1.1v-2.44c0-.17-.01-.34-.04-.51-.02-.17-.07-.31-.14-.45-.07-.13-.17-.24-.29-.32s-.29-.12-.5-.12q-.39 0-.66.21c-.18.14-.32.32-.41.55s-.13.49-.13.79v2.28h-1.1Z" fill="#ffffff" data-color="1"></path>
        <path d="M99.97 128.93q-.33 0-.63-.09c-.2-.06-.38-.15-.53-.27s-.28-.26-.37-.44a1.4 1.4 0 0 1-.14-.62q0-.465.18-.75c.12-.19.28-.34.49-.45s.44-.17.71-.21c.26-.04.54-.06.83-.06h.93c0-.21-.03-.39-.1-.54a.83.83 0 0 0-.31-.36 1 1 0 0 0-.54-.14c-.14 0-.28.02-.4.05s-.23.08-.32.15a.5.5 0 0 0-.18.27h-1.12c.04-.25.13-.46.26-.63s.29-.32.48-.44c.19-.11.4-.2.62-.26.23-.06.46-.08.69-.08.69 0 1.19.2 1.51.59.32.4.47.95.47 1.67v2.56h-.97l-.03-.61c-.14.2-.3.35-.5.45-.19.1-.38.16-.56.18-.18.03-.33.04-.46.04Zm.21-.89c.24 0 .45-.04.64-.13s.33-.22.45-.38c.11-.16.17-.35.17-.56v-.15h-.86c-.14 0-.29 0-.43.01-.14 0-.27.03-.38.07s-.21.1-.27.17-.1.19-.1.33.04.26.11.35.17.16.3.21.25.07.39.07Z" fill="#ffffff" data-color="1"></path>
        <path d="M106.02 130.61v-6.49h1.03l.05.64c.19-.25.41-.43.67-.54s.54-.17.85-.17c.47 0 .86.11 1.16.32.31.22.53.51.68.87.15.37.23.78.23 1.24s-.08.88-.23 1.25c-.16.37-.39.66-.71.87s-.71.32-1.18.32c-.22 0-.42-.02-.61-.07-.18-.05-.35-.12-.49-.21s-.26-.19-.36-.31v2.27h-1.1Zm2.38-2.67c.31 0 .55-.07.72-.2.17-.14.3-.31.38-.53s.12-.45.12-.7-.04-.5-.12-.72q-.12-.33-.39-.54t-.72-.21c-.28 0-.51.07-.7.2s-.33.31-.43.54c-.1.22-.14.46-.14.72s.04.51.13.72c.09.22.23.39.42.52s.44.19.73.19Z" fill="#ffffff" data-color="1"></path>
        <path d="M111.58 128.87v-4.74h1l.06.62c.12-.18.26-.32.41-.42s.32-.17.49-.21q.27-.06.54-.06h.32v1.04h-.29c-.31 0-.58.06-.79.18-.22.12-.38.29-.49.51s-.16.49-.16.82v2.25h-1.1Z" fill="#ffffff" data-color="1"></path>
        <path d="M117.22 128.93c-.49 0-.9-.1-1.26-.3-.35-.2-.62-.48-.81-.85s-.28-.79-.28-1.29.1-.93.29-1.29.46-.65.81-.85.76-.31 1.25-.31.89.1 1.24.31c.35.2.61.49.8.86s.28.8.28 1.3-.09.91-.28 1.27c-.18.36-.45.64-.8.84s-.77.3-1.25.3Zm-.01-1c.3 0 .54-.07.72-.2s.32-.31.4-.52c.08-.22.13-.45.13-.7s-.04-.49-.13-.71a1.2 1.2 0 0 0-.4-.54c-.18-.13-.42-.2-.72-.2s-.54.07-.73.2-.32.31-.41.53-.13.46-.13.72.04.49.13.71.22.39.41.52c.18.13.42.19.72.19Z" fill="#ffffff" data-color="1"></path>
        <path d="M122.49 128.87c-.38 0-.7-.05-.95-.15s-.43-.27-.56-.5c-.12-.23-.18-.53-.18-.92v-2.21h-.73v-.97h.73v-1.32h1.1v1.32h1.11v.97h-1.11v2.06c0 .24.04.42.13.55s.27.19.57.19h.38v.97h-.48Z" fill="#ffffff" data-color="1"></path>
        <path d="M125.86 128.93c-.49 0-.91-.1-1.26-.31-.34-.2-.61-.49-.78-.85-.18-.36-.27-.79-.27-1.26s.09-.91.28-1.27c.18-.37.45-.66.79-.87s.76-.31 1.25-.31c.36 0 .67.06.95.19.27.13.5.3.68.53.18.22.32.47.41.76s.13.58.13.89c0 .07-.01.14-.02.21 0 .07-.01.14-.03.22h-3.33c.02.21.07.4.17.58s.23.31.4.41.38.15.64.15c.15 0 .29-.02.43-.06s.26-.1.36-.17q.165-.12.21-.3h1.1c-.08.34-.22.62-.43.84q-.315.33-.75.48c-.435.15-.6.15-.92.15Zm-1.19-2.9h2.29c0-.2-.04-.38-.13-.54s-.22-.29-.38-.38c-.17-.09-.36-.14-.6-.14q-.375 0-.63.15c-.17.1-.3.23-.39.4s-.14.33-.15.51Z" fill="#ffffff" data-color="1"></path>
        <path d="M130.99 128.93c-.49 0-.91-.1-1.24-.3s-.59-.48-.76-.85a3 3 0 0 1-.26-1.27c0-.48.09-.91.27-1.27.18-.37.44-.66.79-.87s.77-.31 1.27-.31c.37 0 .69.06.98.19s.52.31.69.55.29.54.34.9h-1.08a.86.86 0 0 0-.36-.5c-.17-.11-.36-.16-.59-.16-.31 0-.55.07-.72.22-.18.15-.3.33-.38.55s-.12.45-.12.69.04.49.13.71c.08.22.21.39.39.53.18.13.41.2.69.2.23 0 .43-.05.62-.15.18-.1.3-.27.36-.5h1.12c-.04.37-.16.67-.37.91s-.45.42-.76.54q-.465.18-.99.18Zm-.16 2.3h-.33c-.1 0-.2 0-.29-.02v-.66c.13.01.26.02.38.01s.23-.02.32-.04c.09-.03.17-.07.23-.13s.08-.14.08-.23a.24.24 0 0 0-.08-.19c-.06-.04-.12-.08-.2-.09-.08-.02-.14-.02-.2-.02-.08 0-.17 0-.26.02a.7.7 0 0 0-.24.06l.33-1.29h.74l-.15.66h.21c.22.01.39.08.52.22s.19.33.19.59-.06.45-.17.61q-.165.24-.45.36c-.19.08-.39.13-.61.15Z" fill="#ffffff" data-color="1"></path>
        <path d="M135.44 128.93q-.33 0-.63-.09c-.2-.06-.38-.15-.53-.27s-.28-.26-.37-.44a1.4 1.4 0 0 1-.14-.62q0-.465.18-.75c.12-.19.28-.34.49-.45s.44-.17.71-.21c.26-.04.54-.06.83-.06h.93c0-.21-.03-.39-.1-.54a.83.83 0 0 0-.31-.36 1 1 0 0 0-.54-.14c-.14 0-.28.02-.4.05s-.23.08-.32.15a.5.5 0 0 0-.18.27h-1.12c.04-.25.13-.46.26-.63s.29-.32.48-.44c.19-.11.4-.2.62-.26.23-.06.46-.08.69-.08.69 0 1.19.2 1.51.59.32.4.47.95.47 1.67v2.56H137l-.03-.61c-.14.2-.3.35-.5.45-.19.1-.38.16-.56.18-.18.03-.33.04-.46.04Zm1.25-5.38c-.17 0-.32-.03-.44-.09-.13-.06-.24-.14-.34-.22s-.19-.16-.27-.22a.4.4 0 0 0-.24-.09c-.08 0-.15.04-.18.11s-.06.15-.07.25v.23h-.79c-.01-.23.01-.45.07-.66s.16-.38.32-.52c.15-.13.37-.2.64-.2.16 0 .29.03.4.09s.22.13.31.22.18.15.26.22c.08.06.16.09.23.09.1 0 .16-.03.2-.1s.06-.15.06-.23v-.23h.79c0 .22-.02.44-.07.65s-.15.38-.28.52c-.14.13-.34.2-.6.2Zm-1.03 4.49c.24 0 .45-.04.64-.13s.33-.22.45-.38c.11-.16.17-.35.17-.56v-.15h-.86c-.14 0-.29 0-.43.01-.14 0-.27.03-.38.07s-.21.1-.27.17-.1.19-.1.33.04.26.11.35.17.16.3.21.25.07.39.07Z" fill="#ffffff" data-color="1"></path>
        <path d="M141.17 128.93c-.49 0-.9-.1-1.26-.3-.35-.2-.62-.48-.81-.85s-.28-.79-.28-1.29.1-.93.29-1.29.46-.65.81-.85.76-.31 1.25-.31.89.1 1.24.31c.35.2.61.49.8.86s.28.8.28 1.3-.09.91-.28 1.27c-.18.36-.45.64-.8.84s-.77.3-1.25.3Zm-.01-1c.3 0 .54-.07.72-.2s.32-.31.4-.52c.08-.22.13-.45.13-.7s-.04-.49-.13-.71a1.2 1.2 0 0 0-.4-.54c-.18-.13-.42-.2-.72-.2s-.54.07-.73.2-.32.31-.41.53-.13.46-.13.72.04.49.13.71.22.39.41.52c.18.13.42.19.72.19Z" fill="#ffffff" data-color="1"></path>
        <path d="M8.79 138.43c-.49 0-.91-.1-1.24-.3s-.59-.48-.76-.85a3 3 0 0 1-.26-1.27c0-.48.09-.91.27-1.27.18-.37.44-.66.79-.87s.77-.31 1.27-.31c.37 0 .69.06.98.19s.52.31.69.55.29.54.34.9H9.79a.86.86 0 0 0-.36-.5c-.17-.11-.36-.16-.59-.16-.31 0-.55.07-.72.22-.18.15-.3.33-.38.55s-.12.45-.12.69.04.49.13.71c.08.22.21.39.39.53.18.13.41.2.69.2.23 0 .43-.05.62-.15.18-.1.3-.27.36-.5h1.12c-.04.37-.16.67-.37.91s-.45.42-.76.54q-.465.18-.99.18Z" fill="#ffffff" data-color="1"></path>
        <path d="M13.9 138.43c-.49 0-.9-.1-1.26-.3-.35-.2-.62-.48-.81-.85s-.28-.79-.28-1.29.1-.93.29-1.29.46-.65.81-.85.76-.31 1.25-.31.89.1 1.24.31c.35.2.61.49.8.86s.28.8.28 1.3-.09.91-.28 1.27c-.18.36-.45.64-.8.84s-.77.3-1.25.3Zm-.01-1c.3 0 .54-.07.72-.2s.32-.31.4-.52c.08-.22.13-.45.13-.7s-.04-.49-.13-.71a1.2 1.2 0 0 0-.4-.54c-.18-.13-.42-.2-.72-.2s-.54.07-.73.2-.32.31-.41.53-.13.46-.13.72.04.49.13.71.22.39.41.52c.18.13.42.19.72.19Z" fill="#ffffff" data-color="1"></path>
        <path d="M17.11 138.37v-4.74h1.03l.06.6c.13-.17.27-.3.44-.4s.35-.17.53-.21c.19-.04.36-.07.52-.07.45 0 .81.1 1.07.3s.45.46.55.79c.11.33.16.7.16 1.11v2.62h-1.1v-2.44c0-.17-.01-.34-.04-.51-.02-.17-.07-.31-.14-.45-.07-.13-.17-.24-.29-.32s-.29-.12-.5-.12q-.39 0-.66.21c-.18.14-.32.32-.41.55s-.13.49-.13.79v2.28h-1.1Z" fill="#ffffff" data-color="1"></path>
        <path d="M24.58 138.37c-.38 0-.7-.05-.95-.15s-.43-.27-.56-.5c-.12-.23-.18-.53-.18-.92v-2.21h-.73v-.97h.73v-1.32h1.1v1.32h1.11v.97h-1.11v2.06c0 .24.04.42.13.55s.27.19.57.19h.38v.97h-.48Z" fill="#ffffff" data-color="1"></path>
        <path d="M25.82 138.37v-4.74h1l.06.62c.12-.18.26-.32.41-.42s.32-.17.49-.21q.27-.06.54-.06h.32v1.04h-.29c-.31 0-.58.06-.79.18-.22.12-.38.29-.49.51s-.16.49-.16.82v2.25h-1.1Z" fill="#ffffff" data-color="1"></path>
        <path d="M30.8 138.43q-.33 0-.63-.09c-.2-.06-.38-.15-.53-.27s-.28-.26-.37-.44a1.4 1.4 0 0 1-.14-.62q0-.465.18-.75c.12-.19.28-.34.49-.45s.44-.17.71-.21c.26-.04.54-.06.83-.06h.93c0-.21-.03-.39-.1-.54a.83.83 0 0 0-.31-.36 1 1 0 0 0-.54-.14c-.14 0-.28.02-.4.05s-.23.08-.32.15a.5.5 0 0 0-.18.27H29.3c.04-.25.13-.46.26-.63s.29-.32.48-.44c.19-.11.4-.2.62-.26.23-.06.46-.08.69-.08.69 0 1.19.2 1.51.59.32.4.47.95.47 1.67v2.56h-.97l-.03-.61c-.14.2-.3.35-.5.45-.19.1-.38.16-.56.18-.18.03-.33.04-.46.04Zm.22-.89c.24 0 .45-.04.64-.13s.33-.22.45-.38c.11-.16.17-.35.17-.56v-.15h-.86c-.14 0-.29 0-.43.01-.14 0-.27.03-.38.07s-.21.1-.27.17-.1.19-.1.33.04.26.11.35.17.16.3.21.25.07.39.07Z" fill="#ffffff" data-color="1"></path>
        <path d="M39.03 138.43c-.49 0-.9-.1-1.26-.3-.35-.2-.62-.48-.81-.85s-.28-.79-.28-1.29.1-.93.29-1.29.46-.65.81-.85.76-.31 1.25-.31.89.1 1.24.31c.35.2.61.49.8.86s.28.8.28 1.3-.09.91-.28 1.27c-.18.36-.45.64-.8.84s-.77.3-1.25.3Zm-.01-1c.3 0 .54-.07.72-.2s.32-.31.4-.52c.08-.22.13-.45.13-.7s-.04-.49-.13-.71a1.2 1.2 0 0 0-.4-.54c-.18-.13-.42-.2-.72-.2s-.54.07-.73.2-.32.31-.41.53-.13.46-.13.72.04.49.13.71.22.39.41.52c.18.13.42.19.72.19Z" fill="#ffffff" data-color="1"></path>
        <path d="M46.86 138.43c-.49 0-.91-.1-1.26-.31-.34-.2-.61-.49-.78-.85-.18-.36-.27-.79-.27-1.26s.09-.91.28-1.27c.18-.37.45-.66.79-.87s.76-.31 1.25-.31c.36 0 .67.06.95.19.27.13.5.3.68.53.18.22.32.47.41.76s.13.58.13.89c0 .07-.01.14-.02.21 0 .07-.01.14-.03.22h-3.33c.02.21.07.4.17.58s.23.31.4.41.38.15.64.15c.15 0 .29-.02.43-.06s.26-.1.36-.17q.165-.12.21-.3h1.1c-.08.34-.22.62-.43.84q-.315.33-.75.48c-.435.15-.6.15-.92.15Zm-1.19-2.9h2.29c0-.2-.04-.38-.13-.54s-.22-.29-.38-.38c-.17-.09-.36-.14-.6-.14q-.375 0-.63.15c-.17.1-.3.23-.39.4s-.14.33-.15.51Z" fill="#ffffff" data-color="1"></path>
        <path d="M49.9 138.37v-4.74h1.03l.06.6c.13-.17.27-.3.44-.4s.35-.17.53-.21c.19-.04.36-.07.52-.07.45 0 .81.1 1.07.3s.45.46.55.79c.11.33.16.7.16 1.11v2.62h-1.1v-2.44c0-.17-.01-.34-.04-.51-.02-.17-.07-.31-.14-.45-.07-.13-.17-.24-.29-.32s-.29-.12-.5-.12q-.39 0-.66.21c-.18.14-.32.32-.41.55s-.13.49-.13.79v2.28h-1.1Z" fill="#ffffff" data-color="1"></path>
        <path d="m56.51 138.37-1.72-4.74h1.22l1.25 3.81 1.24-3.81h1.21l-1.72 4.74z" fill="#ffffff" data-color="1"></path>
        <path d="M62.38 138.43c-.49 0-.91-.1-1.26-.31-.34-.2-.61-.49-.78-.85-.18-.36-.27-.79-.27-1.26s.09-.91.28-1.27c.18-.37.45-.66.79-.87s.76-.31 1.25-.31c.36 0 .67.06.95.19.27.13.5.3.68.53.18.22.32.47.41.76s.13.58.13.89c0 .07-.01.14-.02.21 0 .07-.01.14-.03.22h-3.33c.02.21.07.4.17.58s.23.31.4.41.38.15.64.15c.15 0 .29-.02.43-.06s.26-.1.36-.17q.165-.12.21-.3h1.1c-.08.34-.22.62-.43.84q-.315.33-.75.48c-.435.15-.6.15-.92.15Zm-1.19-2.9h2.29c0-.2-.04-.38-.13-.54s-.22-.29-.38-.38c-.17-.09-.36-.14-.6-.14q-.375 0-.63.15c-.17.1-.3.23-.39.4s-.14.33-.15.51Z" fill="#ffffff" data-color="1"></path>
        <path d="M65.42 138.37v-6.36h1.1v6.36z" fill="#ffffff" data-color="1"></path>
        <path d="M67.58 138.37v-6.36h1.1v2.23c.13-.16.27-.29.44-.4.17-.1.34-.18.53-.22s.36-.07.53-.07c.45 0 .8.1 1.06.3s.44.46.54.79c.11.33.16.7.16 1.12v2.61h-1.1v-2.42c0-.16-.01-.33-.04-.5-.02-.17-.07-.32-.14-.45a.9.9 0 0 0-.31-.33c-.13-.08-.31-.13-.54-.13-.21 0-.39.04-.54.13q-.225.135-.36.36c-.09.15-.15.32-.19.5s-.06.36-.06.54v2.3h-1.1Z" fill="#ffffff" data-color="1"></path>
        <path d="M75.1 138.43c-.49 0-.91-.1-1.26-.31-.34-.2-.61-.49-.78-.85-.18-.36-.27-.79-.27-1.26s.09-.91.28-1.27c.18-.37.45-.66.79-.87s.76-.31 1.25-.31c.36 0 .67.06.95.19.27.13.5.3.68.53.18.22.32.47.41.76s.13.58.13.89c0 .07-.01.14-.02.21 0 .07-.01.14-.03.22H73.9c.02.21.07.4.17.58s.23.31.4.41.38.15.64.15c.15 0 .29-.02.43-.06s.26-.1.36-.17q.165-.12.21-.3h1.1c-.08.34-.22.62-.43.84q-.315.33-.75.48c-.435.15-.6.15-.92.15Zm-1.18-2.9h2.29c0-.2-.04-.38-.13-.54s-.22-.29-.38-.38c-.17-.09-.36-.14-.6-.14q-.375 0-.63.15c-.17.1-.3.23-.39.4s-.14.33-.15.51Z" fill="#ffffff" data-color="1"></path>
        <path d="M80.32 138.43c-.49 0-.91-.1-1.24-.3s-.59-.48-.76-.85a3 3 0 0 1-.26-1.27c0-.48.09-.91.27-1.27.18-.37.44-.66.79-.87s.77-.31 1.27-.31c.37 0 .69.06.98.19s.52.31.69.55.29.54.34.9h-1.08a.86.86 0 0 0-.36-.5c-.17-.11-.36-.16-.59-.16-.31 0-.55.07-.72.22-.18.15-.3.33-.38.55s-.12.45-.12.69.04.49.13.71c.08.22.21.39.39.53.18.13.41.2.69.2.23 0 .43-.05.62-.15.18-.1.3-.27.36-.5h1.12c-.04.37-.16.67-.37.91s-.45.42-.76.54q-.465.18-.99.18Z" fill="#ffffff" data-color="1"></path>
        <path d="M83.82 133.08c-.21 0-.38-.06-.5-.19s-.19-.29-.19-.5.07-.36.2-.49.3-.19.5-.19.36.06.5.19.21.29.21.5-.07.37-.2.5-.3.19-.5.19Zm-.55 5.29v-4.74h1.1v4.74z" fill="#ffffff" data-color="1"></path>
        <path d="M85.43 138.37v-4.74h1.01l.07.54c.12-.16.25-.29.39-.37.14-.09.29-.15.44-.18s.3-.05.44-.05c.3 0 .56.06.77.18s.38.3.5.54c.12-.17.25-.3.4-.41s.31-.18.48-.23.34-.08.53-.08c.37 0 .66.08.88.23s.38.36.49.63c.1.27.15.57.15.91v3.04h-1.1v-2.69c0-.12 0-.25-.02-.38s-.04-.25-.09-.37a.7.7 0 0 0-.22-.28c-.1-.07-.23-.11-.41-.11s-.32.04-.43.11-.2.17-.27.3c-.07.12-.12.26-.14.4-.03.15-.04.29-.04.44v2.57h-1.1v-2.7c0-.11 0-.24-.02-.36a1.2 1.2 0 0 0-.09-.37c-.04-.12-.12-.21-.22-.28s-.24-.11-.41-.11q-.375 0-.57.21c-.13.14-.22.31-.26.5-.04.2-.07.39-.07.57v2.55h-1.1Z" fill="#ffffff" data-color="1"></path>
        <path d="M95.12 138.43c-.49 0-.91-.1-1.26-.31-.34-.2-.61-.49-.78-.85-.18-.36-.27-.79-.27-1.26s.09-.91.28-1.27c.18-.37.45-.66.79-.87s.76-.31 1.25-.31c.36 0 .67.06.95.19.27.13.5.3.68.53.18.22.32.47.41.76s.13.58.13.89c0 .07-.01.14-.02.21 0 .07-.01.14-.03.22h-3.33c.02.21.07.4.17.58s.23.31.4.41.38.15.64.15c.15 0 .29-.02.43-.06s.26-.1.36-.17q.165-.12.21-.3h1.1c-.08.34-.22.62-.43.84q-.315.33-.75.48c-.435.15-.6.15-.92.15Zm-1.19-2.9h2.29c0-.2-.04-.38-.13-.54s-.22-.29-.38-.38c-.17-.09-.36-.14-.6-.14q-.375 0-.63.15c-.17.1-.3.23-.39.4s-.14.33-.15.51Z" fill="#ffffff" data-color="1"></path>
        <path d="M98.16 138.37v-4.74h1.03l.06.6c.13-.17.27-.3.44-.4s.35-.17.53-.21c.19-.04.36-.07.52-.07.45 0 .81.1 1.07.3s.45.46.55.79c.11.33.16.7.16 1.11v2.62h-1.1v-2.44c0-.17-.01-.34-.04-.51-.02-.17-.07-.31-.14-.45-.07-.13-.17-.24-.29-.32s-.29-.12-.5-.12q-.39 0-.66.21c-.18.14-.32.32-.41.55s-.13.49-.13.79v2.28h-1.1Z" fill="#ffffff" data-color="1"></path>
        <path d="M105.63 138.37c-.38 0-.7-.05-.95-.15s-.43-.27-.56-.5c-.12-.23-.18-.53-.18-.92v-2.21h-.73v-.97h.73v-1.32h1.1v1.32h1.11v.97h-1.11v2.06c0 .24.04.42.13.55s.27.19.57.19h.38v.97h-.48Z" fill="#ffffff" data-color="1"></path>
        <path d="M109.04 138.43c-.49 0-.9-.1-1.26-.3-.35-.2-.62-.48-.81-.85s-.28-.79-.28-1.29.1-.93.29-1.29.46-.65.81-.85.76-.31 1.25-.31.89.1 1.24.31c.35.2.61.49.8.86s.28.8.28 1.3-.09.91-.28 1.27c-.18.36-.45.64-.8.84s-.77.3-1.25.3Zm-.01-1c.3 0 .54-.07.72-.2s.32-.31.4-.52c.08-.22.13-.45.13-.7s-.04-.49-.13-.71a1.2 1.2 0 0 0-.4-.54c-.18-.13-.42-.2-.72-.2s-.54.07-.73.2-.32.31-.41.53-.13.46-.13.72.04.49.13.71.22.39.41.52c.18.13.42.19.72.19Z" fill="#ffffff" data-color="1"></path>
        <path d="M114.75 140.11v-6.49h1.03l.05.64c.19-.25.41-.43.67-.54s.54-.17.85-.17c.47 0 .86.11 1.16.32.31.22.53.51.68.87.15.37.23.78.23 1.24s-.08.88-.23 1.25c-.16.37-.39.66-.71.87s-.71.32-1.18.32c-.22 0-.42-.02-.61-.07-.18-.05-.35-.12-.49-.21s-.26-.19-.36-.31v2.27h-1.1Zm2.37-2.67c.31 0 .55-.07.72-.2.17-.14.3-.31.38-.53s.12-.45.12-.7-.04-.5-.12-.72q-.12-.33-.39-.54t-.72-.21c-.28 0-.51.07-.7.2s-.33.31-.43.54c-.1.22-.14.46-.14.72s.04.51.13.72c.09.22.23.39.42.52s.44.19.73.19Z" fill="#ffffff" data-color="1"></path>
        <path d="M120.3 138.37v-4.74h1l.06.62c.12-.18.26-.32.41-.42s.32-.17.49-.21q.27-.06.54-.06h.32v1.04h-.29c-.31 0-.58.06-.79.18-.22.12-.38.29-.49.51s-.16.49-.16.82v2.25h-1.1Z" fill="#ffffff" data-color="1"></path>
        <path d="M125.9 138.43c-.49 0-.91-.1-1.26-.31-.34-.2-.61-.49-.78-.85-.18-.36-.27-.79-.27-1.26s.09-.91.28-1.27c.18-.37.45-.66.79-.87s.76-.31 1.25-.31c.36 0 .67.06.95.19.27.13.5.3.68.53.18.22.32.47.41.76s.13.58.13.89c0 .07-.01.14-.02.21 0 .07-.01.14-.03.22h-3.33c.02.21.07.4.17.58s.23.31.4.41.38.15.64.15c.15 0 .29-.02.43-.06s.26-.1.36-.17q.165-.12.21-.3h1.1c-.08.34-.22.62-.43.84q-.315.33-.75.48c-.435.15-.6.15-.92.15Zm-1.19-2.9H127c0-.2-.04-.38-.13-.54s-.22-.29-.38-.38c-.17-.09-.36-.14-.6-.14q-.375 0-.63.15c-.17.1-.3.23-.39.4s-.14.33-.15.51Z" fill="#ffffff" data-color="1"></path>
        <path d="M131.12 138.43c-.49 0-.91-.1-1.24-.3s-.59-.48-.76-.85a3 3 0 0 1-.26-1.27c0-.48.09-.91.27-1.27.18-.37.44-.66.79-.87s.77-.31 1.27-.31c.37 0 .69.06.98.19s.52.31.69.55.29.54.34.9h-1.08a.86.86 0 0 0-.36-.5c-.17-.11-.36-.16-.59-.16-.31 0-.55.07-.72.22-.18.15-.3.33-.38.55s-.12.45-.12.69.04.49.13.71c.08.22.21.39.39.53.18.13.41.2.69.2.23 0 .43-.05.62-.15.18-.1.3-.27.36-.5h1.12c-.04.37-.16.67-.37.91s-.45.42-.76.54q-.465.18-.99.18Z" fill="#ffffff" data-color="1"></path>
        <path d="M136.23 138.43c-.49 0-.9-.1-1.26-.3-.35-.2-.62-.48-.81-.85s-.28-.79-.28-1.29.1-.93.29-1.29.46-.65.81-.85.76-.31 1.25-.31.89.1 1.24.31c.35.2.61.49.8.86s.28.8.28 1.3-.09.91-.28 1.27c-.18.36-.45.64-.8.84s-.77.3-1.25.3Zm-.01-1c.3 0 .54-.07.72-.2s.32-.31.4-.52c.08-.22.13-.45.13-.7s-.04-.49-.13-.71a1.2 1.2 0 0 0-.4-.54c-.18-.13-.42-.2-.72-.2s-.54.07-.73.2-.32.31-.41.53-.13.46-.13.72.04.49.13.71.22.39.41.52c.18.13.42.19.72.19Z" fill="#ffffff" data-color="1"></path>
        <path d="M141.52 138.43c-.49 0-.91-.1-1.24-.3s-.59-.48-.76-.85a3 3 0 0 1-.26-1.27c0-.48.09-.91.27-1.27.18-.37.44-.66.79-.87s.77-.31 1.27-.31c.37 0 .69.06.98.19s.52.31.69.55.29.54.34.9h-1.08a.86.86 0 0 0-.36-.5c-.17-.11-.36-.16-.59-.16-.31 0-.55.07-.72.22-.18.15-.3.33-.38.55s-.12.45-.12.69.04.49.13.71c.08.22.21.39.39.53.18.13.41.2.69.2.23 0 .43-.05.62-.15.18-.1.3-.27.36-.5h1.12c-.04.37-.16.67-.37.91s-.45.42-.76.54q-.465.18-.99.18Z" fill="#ffffff" data-color="1"></path>
        <path d="M146.59 138.43c-.49 0-.91-.1-1.26-.31-.34-.2-.61-.49-.78-.85-.18-.36-.27-.79-.27-1.26s.09-.91.28-1.27c.18-.37.45-.66.79-.87s.76-.31 1.25-.31c.36 0 .67.06.95.19.27.13.5.3.68.53.18.22.32.47.41.76s.13.58.13.89c0 .07-.01.14-.02.21 0 .07-.01.14-.03.22h-3.33c.02.21.07.4.17.58s.23.31.4.41.38.15.64.15c.15 0 .29-.02.43-.06s.26-.1.36-.17q.165-.12.21-.3h1.1c-.08.34-.22.62-.43.84q-.315.33-.75.48c-.435.15-.6.15-.92.15Zm-1.19-2.9h2.29c0-.2-.04-.38-.13-.54s-.22-.29-.38-.38c-.17-.09-.36-.14-.6-.14q-.375 0-.63.15c-.17.1-.3.23-.39.4s-.14.33-.15.51Z" fill="#ffffff" data-color="1"></path>
        <path d="M150.33 138.48c-.19 0-.36-.06-.49-.19s-.2-.3-.2-.51a.686.686 0 0 1 .71-.71c.2 0 .35.06.49.19s.2.3.2.52-.07.39-.2.51-.3.19-.5.19Z" fill="#ffffff" data-color="1"></path>
    </g>
</svg>