<svg preserveAspectRatio="xMidYMid meet" data-bbox="24.35 4.184 110.46 133.266" viewBox="0 0 150 150" xmlns="http://www.w3.org/2000/svg" data-type="ugc" role="presentation" aria-hidden="true" aria-label="">
    <g>
        <path d="M92.67 21.42c-4.33-.11-8.58-1.53-11.55-4.66a.98.98 0 0 0-.81-.31c-.24.02-.47.13-.64.31-2.97 3.13-7.22 4.55-11.55 4.66-.54.01-.97.45-.97.99 0 4.38.69 8.37 1.92 11.8.21.57.86.84 1.41.57.46-.23.68-.77.51-1.26-1.06-2.95-1.71-6.4-1.8-10.22 4.07-.28 8.11-1.64 11.2-4.5 3.09 2.86 7.13 4.22 11.2 4.5-.26 10.97-5.08 18.79-11.2 20.88-2.48-.85-4.75-2.64-6.59-5.2-.29-.41-.83-.54-1.28-.32-.56.28-.74 1-.38 1.51 2.14 2.98 4.86 5.07 7.96 6.03.19.06.39.06.58 0 7.61-2.35 12.95-11.59 12.95-23.8 0-.54-.43-.98-.97-.99Z" stroke="#ffffff" stroke-miterlimit="10" stroke-width="1.39" fill="#ffffff"></path>
        <path d="M93.32 53.42c-9.25 5.66-21.34 5.13-29.88-1.66-7.04-5.59-10.79-14.64-9.69-23.57s7.14-17.13 15.58-20.76 18.45-2.42 25.81 3.07c8.31 6.19 12.08 16.96 9.7 26.99-.17.73.96 1.05 1.13.31 2.21-9.3-.56-19.23-7.42-25.92S81.32 2.53 72.04 5.22 55.64 15.3 53.26 24.53s.34 19.28 7.09 26.04c8.85 8.87 22.92 10.37 33.57 3.86.64-.39.05-1.41-.59-1.01Z" fill="#ffffff"></path>
        <path d="M57.05 74.29c-.81 0-1.5-.16-2.08-.48a3.23 3.23 0 0 1-1.33-1.36c-.31-.59-.46-1.29-.46-2.1s.16-1.55.48-2.15.77-1.07 1.34-1.4c.58-.33 1.25-.49 2.02-.49.61 0 1.16.11 1.67.33q.75.33 1.23.99c.48.66.5 1 .56 1.67H58.6c-.09-.35-.25-.62-.5-.82-.24-.19-.58-.29-1.01-.29-.46 0-.83.1-1.1.31s-.46.47-.58.78c-.11.32-.17.64-.17.98s.06.67.18 1 .32.6.59.82.64.32 1.11.32c.28 0 .52-.04.73-.13s.38-.21.51-.37.23-.36.28-.6h1.93c-.04.66-.24 1.21-.57 1.66-.34.44-.76.78-1.28 1s-1.07.33-1.66.33Z" fill="#ffffff"></path>
        <path d="M64.15 74.29c-.57 0-1.09-.11-1.54-.34-.46-.23-.82-.56-1.09-1.01-.27-.44-.41-.98-.41-1.62s.14-1.2.41-1.66c.27-.45.64-.79 1.09-1.03.46-.23.96-.35 1.51-.35s1.07.12 1.52.36q.675.36 1.08 1.05c.27.45.4 1.01.4 1.66s-.13 1.17-.39 1.61-.61.77-1.06 1-.96.34-1.53.34Zm-.04-1.8q.42 0 .66-.18c.16-.12.28-.27.34-.45.07-.18.1-.36.1-.53s-.03-.36-.1-.55a1.15 1.15 0 0 0-.33-.48c-.16-.13-.38-.2-.67-.2s-.5.07-.67.2-.28.29-.35.48a1.58 1.58 0 0 0 0 1.1c.07.18.18.33.35.44.16.11.38.17.66.17Z" fill="#ffffff"></path>
        <path d="M67.93 74.21v-5.8h1.72l.18.62a1.63 1.63 0 0 1 1.1-.68 2.37 2.37 0 0 1 1.3.12c.27.11.5.31.69.62.17-.22.35-.39.54-.5s.39-.19.58-.23.38-.06.56-.06c.47 0 .85.1 1.13.29.29.19.5.46.63.8s.2.75.2 1.22v3.6h-1.95v-3.23c0-.09 0-.18-.02-.29-.01-.1-.04-.2-.08-.29s-.11-.17-.19-.23a.55.55 0 0 0-.34-.09c-.15 0-.28.03-.37.09-.1.06-.17.14-.23.23-.06.1-.09.2-.12.32-.02.12-.03.24-.03.37v3.12h-1.95v-3.25c0-.08 0-.17-.02-.27-.01-.1-.04-.2-.09-.29a.6.6 0 0 0-.2-.24.7.7 0 0 0-.38-.09c-.23 0-.39.06-.5.19-.1.12-.17.27-.19.44s-.03.31-.03.44v3.07h-1.95Z" fill="#ffffff"></path>
        <path d="M77.54 76.42v-8.01h1.8l.1.64c.26-.29.54-.48.81-.59.28-.11.59-.17.95-.17.56 0 1.02.13 1.4.4.37.27.66.63.85 1.08s.29.96.29 1.51-.1 1.08-.3 1.54-.5.81-.89 1.08c-.39.26-.87.4-1.44.4a2.7 2.7 0 0 1-1.21-.29c-.16-.08-.3-.18-.4-.29v2.71h-1.95Zm3.17-3.9c.29 0 .52-.06.68-.19a.94.94 0 0 0 .33-.46c.06-.18.09-.36.09-.53 0-.2-.04-.4-.11-.59-.07-.2-.19-.36-.36-.49s-.39-.19-.68-.19q-.39 0-.66.18c-.27.18-.31.27-.4.46s-.13.38-.13.59.04.39.13.58c.08.19.22.34.4.46s.41.18.7.18Z" fill="#ffffff"></path>
        <path d="M84.55 74.21v-7.79h1.95v7.79z" fill="#ffffff"></path>
        <path d="M90.28 74.29q-.885 0-1.56-.36a2.53 2.53 0 0 1-1.03-1.02c-.25-.44-.37-.96-.37-1.57s.12-1.14.37-1.6.6-.82 1.04-1.07c.45-.26.97-.38 1.56-.38.42 0 .81.07 1.14.2q.51.195.87.57c.36.375.43.55.56.9s.19.75.19 1.19c0 .12 0 .24-.02.36q-.015.165-.06.36h-3.74c.01.14.06.27.14.4.08.12.19.22.32.3.14.07.32.11.53.11.18 0 .33-.02.46-.06s.23-.09.31-.16.13-.13.15-.2h1.9q-.15.72-.57 1.17c-.28.3-.61.53-.99.67s-.79.21-1.23.21Zm-1-3.69h1.96c0-.11-.03-.23-.09-.35s-.17-.22-.31-.3-.33-.12-.57-.12-.41.04-.56.12-.25.18-.32.3-.1.24-.1.35Z" fill="#ffffff"></path>
        <path d="m93.25 74.21 2-2.96-1.89-2.84h2.23l.92 1.57.91-1.57h2.18l-1.91 2.87 2.05 2.93h-2.25l-1.03-1.69-1.04 1.69h-2.16Z" fill="#ffffff"></path>
        <path d="M102.98 74.29c-.57 0-1.09-.11-1.54-.34-.46-.23-.82-.56-1.09-1.01-.27-.44-.41-.98-.41-1.62s.14-1.2.41-1.66c.27-.45.64-.79 1.09-1.03.46-.23.96-.35 1.51-.35s1.07.12 1.52.36q.675.36 1.08 1.05c.27.45.4 1.01.4 1.66s-.13 1.17-.39 1.61-.61.77-1.06 1-.96.34-1.53.34Zm-.04-1.8q.42 0 .66-.18c.16-.12.28-.27.34-.45.07-.18.1-.36.1-.53s-.03-.36-.1-.55a1.15 1.15 0 0 0-.33-.48c-.16-.13-.38-.2-.67-.2s-.5.07-.67.2-.28.29-.35.48a1.58 1.58 0 0 0 0 1.1c.07.18.18.33.35.44.16.11.38.17.66.17Z" fill="#ffffff"></path>
        <path d="M48.58 79.01c-.35 0-.64-.1-.85-.31-.22-.21-.32-.48-.32-.82s.11-.63.34-.85.51-.33.85-.33.6.1.83.31.34.49.34.85-.11.62-.32.83c-.22.21-.5.31-.85.31Zm-.98 6.2v-5.8h1.95v5.8z" fill="#ffffff"></path>
        <path d="M50.59 85.21v-5.8h1.72l.18.62c.17-.23.35-.39.54-.5s.38-.17.56-.19.32-.04.42-.04c.31 0 .6.05.88.16.27.11.5.31.69.62.17-.22.35-.38.54-.5.19-.11.39-.18.58-.23.19-.04.38-.06.56-.06.47 0 .85.1 1.13.29.29.19.5.46.63.8s.2.75.2 1.22v3.6h-1.95v-3.23c0-.09 0-.18-.02-.29-.01-.1-.04-.2-.08-.29s-.11-.17-.19-.23a.55.55 0 0 0-.34-.09c-.15 0-.28.03-.37.09-.1.06-.17.14-.23.23s-.09.2-.12.32c-.02.12-.03.24-.03.37v3.12h-1.95v-3.25c0-.08 0-.17-.02-.27-.01-.1-.04-.2-.09-.29s-.11-.17-.2-.24-.22-.09-.38-.09c-.23 0-.39.06-.5.19-.1.12-.17.27-.19.44s-.03.32-.03.44v3.07h-1.95Z" fill="#ffffff"></path>
        <path d="M62.97 85.29c-.89 0-1.58-.22-2.06-.67-.49-.44-.73-1.11-.73-2V79.4h1.95v3.07c0 .19.03.36.08.52s.14.28.27.38.3.14.51.14c.24 0 .42-.05.52-.17s.17-.25.2-.41.04-.32.04-.47v-3.07h1.94v3.22c0 .95-.24 1.63-.73 2.04s-1.15.62-1.97.62Z" fill="#ffffff"></path>
        <path d="M66.7 85.21v-5.8h1.79l.11.53c.18-.19.38-.33.59-.42s.41-.15.61-.18.37-.04.51-.04c.54 0 .97.12 1.28.37s.53.58.67.99.2.86.2 1.35v3.2h-1.95v-3.04a1.6 1.6 0 0 0-.17-.73.75.75 0 0 0-.26-.27c-.11-.07-.25-.1-.43-.1q-.345 0-.57.15c-.225.15-.26.24-.33.41s-.1.37-.1.58v2.99H66.7Z" fill="#ffffff"></path>
        <path d="M76.28 85.29c-.57 0-1.09-.11-1.54-.34-.46-.23-.82-.56-1.09-1.01-.27-.44-.41-.99-.41-1.62s.14-1.2.41-1.66c.27-.45.64-.79 1.09-1.03.46-.24.96-.35 1.51-.35s1.07.12 1.52.36.81.59 1.08 1.04.4 1.01.4 1.66-.13 1.17-.39 1.61-.61.77-1.06 1-.96.33-1.53.33Zm-.03-1.8q.42 0 .66-.18c.24-.18.28-.27.34-.45.07-.18.1-.36.1-.53s-.03-.36-.1-.55a1.15 1.15 0 0 0-.33-.48c-.16-.13-.38-.2-.67-.2s-.5.07-.67.2-.28.29-.35.48-.1.37-.1.55.03.37.1.54c.07.18.18.33.35.44.16.11.38.17.66.17Z" fill="#ffffff"></path>
        <path d="M80.07 85.21v-7.79h1.95v7.79z" fill="#ffffff"></path>
        <path d="M85.89 85.29c-.57 0-1.09-.11-1.54-.34-.46-.23-.82-.56-1.09-1.01-.27-.44-.41-.99-.41-1.62s.14-1.2.41-1.66c.27-.45.64-.79 1.09-1.03.46-.24.96-.35 1.51-.35s1.07.12 1.52.36.81.59 1.08 1.04.4 1.01.4 1.66-.13 1.17-.39 1.61-.61.77-1.06 1-.96.33-1.53.33Zm-.04-1.8q.42 0 .66-.18c.24-.18.28-.27.34-.45.07-.18.1-.36.1-.53s-.03-.36-.1-.55a1.15 1.15 0 0 0-.33-.48c-.16-.13-.38-.2-.67-.2s-.5.07-.67.2-.28.29-.35.48-.1.37-.1.55.03.37.1.54c.07.18.18.33.35.44.16.11.38.17.66.17Zm-1.1-4.63 1.45-2.11h2.06l-1.88 2.11z" fill="#ffffff"></path>
        <path d="M92.64 87.95q-.72 0-1.35-.24c-.41-.16-.76-.41-1.04-.75s-.48-.78-.58-1.33h1.98q.06.15.18.27c.08.08.19.14.32.18s.28.07.45.07c.31 0 .54-.07.69-.2.15-.14.26-.31.31-.53s.08-.44.08-.68v-.15c-.14.21-.31.36-.5.45-.19.1-.39.16-.59.19s-.38.05-.54.05c-.62 0-1.13-.14-1.51-.41-.38-.28-.66-.63-.84-1.08-.17-.44-.26-.91-.26-1.4 0-.56.1-1.08.31-1.55s.52-.84.92-1.12q.615-.42 1.5-.42c.37 0 .67.06.91.17s.45.26.63.44l.18-.5h1.76v4.6c0 .81-.09 1.51-.26 2.1s-.48 1.04-.92 1.36-1.05.48-1.84.48Zm-.1-4.41c.28 0 .5-.06.68-.17.17-.11.3-.27.38-.46s.12-.4.12-.62-.04-.43-.12-.62a.96.96 0 0 0-.37-.45 1.16 1.16 0 0 0-.65-.17q-.465 0-.72.21t-.36.51c-.07.2-.1.39-.1.57s.04.38.11.56.19.33.36.45.4.18.68.18Z" fill="#ffffff"></path>
        <path d="M97.68 79.01c-.35 0-.64-.1-.85-.31-.22-.21-.32-.48-.32-.82s.11-.63.34-.85.51-.33.85-.33.6.1.83.31.34.49.34.85-.11.62-.32.83c-.22.21-.5.31-.85.31Zm-.98 6.2v-5.8h1.95v5.8z" fill="#ffffff"></path>
        <path d="M102.37 85.29c-.59 0-1.1-.12-1.53-.35s-.77-.57-1.01-1.02-.36-.98-.36-1.6.12-1.19.37-1.64.59-.8 1.03-1.03q.66-.36 1.53-.36c.52 0 .98.1 1.39.29s.72.47.96.83c.23.36.36.8.37 1.32h-1.87c-.04-.21-.14-.37-.29-.48s-.33-.17-.54-.17c-.26 0-.47.07-.62.2-.15.14-.25.3-.31.5s-.09.38-.09.56c0 .2.03.39.1.57s.17.33.32.45.34.18.58.18.43-.06.57-.17c.15-.11.24-.27.28-.47h1.94c-.01.53-.15.97-.41 1.33s-.59.62-1.01.81-.88.27-1.4.27Z" fill="#ffffff"></path>
        <path d="M108.77 85.29c-.57 0-1.09-.11-1.54-.34-.46-.23-.82-.56-1.09-1.01-.27-.44-.41-.99-.41-1.62s.14-1.2.41-1.66c.27-.45.64-.79 1.09-1.03.46-.24.96-.35 1.51-.35s1.07.12 1.52.36.81.59 1.08 1.04.4 1.01.4 1.66-.13 1.17-.39 1.61-.61.77-1.06 1-.96.33-1.53.33Zm-.04-1.8q.42 0 .66-.18c.24-.18.28-.27.34-.45.07-.18.1-.36.1-.53s-.03-.36-.1-.55a1.15 1.15 0 0 0-.33-.48c-.16-.13-.38-.2-.67-.2s-.5.07-.67.2-.28.29-.35.48-.1.37-.1.55.03.37.1.54c.07.18.18.33.35.44.16.11.38.17.66.17Z" fill="#ffffff"></path>
        <path d="M29.01 99.42c-.66 0-1.21-.14-1.67-.41q-.675-.405-1.02-1.14c-.23-.49-.34-1.05-.34-1.69s.12-1.21.35-1.7.58-.88 1.03-1.16q.675-.42 1.65-.42c.48 0 .9.08 1.27.24s.66.39.9.69c.23.3.38.66.45 1.09h-1.09q-.12-.465-.51-.72c-.26-.17-.59-.26-1.01-.26-.45 0-.81.11-1.09.32s-.48.48-.6.81-.18.68-.18 1.06.06.76.19 1.1.33.62.62.83c.28.21.64.31 1.09.31q.42 0 .72-.12c.3-.12.38-.19.52-.34s.24-.32.29-.52h1.14c-.07.43-.23.79-.48 1.09s-.56.53-.95.69c-.38.16-.81.24-1.28.24Z" fill="#ffffff"></path>
        <path d="M34.72 99.41c-.49 0-.9-.1-1.26-.3-.35-.2-.62-.48-.81-.85s-.28-.79-.28-1.29.1-.93.29-1.29.46-.65.81-.85.76-.31 1.25-.31.89.1 1.24.31c.35.2.61.49.8.86s.28.8.28 1.3-.09.91-.28 1.27c-.18.36-.45.64-.8.84s-.77.3-1.25.3Zm-.01-1c.3 0 .54-.07.72-.2s.32-.31.4-.52c.08-.22.13-.45.13-.7s-.04-.49-.13-.71a1.2 1.2 0 0 0-.4-.54c-.18-.13-.42-.2-.72-.2s-.54.07-.73.2-.32.31-.41.53c-.08.22-.13.46-.13.72s.04.49.13.71.22.39.41.52c.18.13.42.19.72.19Z" fill="#ffffff"></path>
        <path d="M37.93 99.35v-4.74h1.01l.07.54c.12-.16.25-.29.39-.37.14-.09.29-.15.44-.18.15-.04.3-.05.44-.05.3 0 .56.06.77.18s.38.3.5.54c.12-.17.25-.3.4-.41.15-.1.31-.18.48-.23s.34-.08.53-.08c.37 0 .66.08.88.23s.38.36.49.63c.1.27.15.57.15.91v3.04h-1.1v-2.69c0-.12 0-.25-.02-.38s-.04-.25-.09-.37a.7.7 0 0 0-.22-.28c-.1-.07-.23-.11-.41-.11s-.32.04-.43.11-.2.17-.27.3c-.07.12-.12.26-.14.41-.03.15-.04.29-.04.44v2.57h-1.1v-2.7c0-.11 0-.24-.02-.36-.01-.13-.04-.25-.09-.37s-.12-.21-.22-.28a.7.7 0 0 0-.41-.11q-.375 0-.57.21c-.13.14-.22.31-.26.5s-.07.39-.07.57v2.55h-1.1Z" fill="#ffffff"></path>
        <path d="m49.2 99.35-1.72-4.74h1.22l1.25 3.81 1.24-3.81h1.21l-1.72 4.74z" fill="#ffffff"></path>
        <path d="M53.5 94.05c-.21 0-.38-.06-.5-.19s-.19-.29-.19-.5.07-.36.2-.49.3-.19.5-.19.36.06.5.19.21.29.21.5-.07.37-.2.5-.3.19-.5.19Zm-.55 5.3v-4.74h1.1v4.74z" fill="#ffffff"></path>
        <path d="M57.18 99.35c-.38 0-.7-.05-.95-.15s-.43-.27-.56-.5c-.12-.23-.18-.53-.18-.92v-2.21h-.73v-.97h.73v-1.32h1.1v1.32h1.11v.97h-1.11v2.06c0 .24.04.42.13.55s.27.19.57.19h.38v.97h-.48Z" fill="#ffffff"></path>
        <path d="M59.93 99.41q-.33 0-.63-.09c-.3-.09-.38-.15-.53-.27s-.28-.26-.37-.44-.14-.39-.14-.63q0-.465.18-.75c.12-.2.28-.34.49-.45.21-.1.44-.17.71-.21.26-.04.54-.06.83-.06h.93c0-.21-.03-.39-.1-.54a.83.83 0 0 0-.31-.36c-.14-.09-.32-.13-.54-.13-.14 0-.28.02-.4.05a.9.9 0 0 0-.32.15.5.5 0 0 0-.18.27h-1.12c.04-.25.13-.46.26-.63.13-.18.29-.32.48-.44.19-.11.4-.2.62-.26q.345-.09.69-.09c.69 0 1.19.2 1.51.59.32.4.47.95.47 1.67v2.56h-.97l-.03-.61c-.14.2-.3.35-.5.45-.19.1-.38.16-.56.18-.18.03-.33.04-.46.04Zm.22-.89c.24 0 .45-.04.64-.13s.33-.22.45-.38c.11-.16.17-.35.17-.56v-.15h-.86c-.14 0-.29 0-.43.01-.14 0-.27.03-.38.07s-.21.1-.27.18-.1.19-.1.33.04.26.11.35.17.16.3.21.25.07.39.07Z" fill="#ffffff"></path>
        <path d="M63.49 99.35v-4.74h1.01l.07.54c.12-.16.25-.29.39-.37.14-.09.29-.15.44-.18.15-.04.3-.05.44-.05.3 0 .56.06.77.18s.38.3.5.54c.12-.17.25-.3.4-.41.15-.1.31-.18.48-.23s.34-.08.53-.08c.37 0 .66.08.88.23s.38.36.49.63c.1.27.15.57.15.91v3.04h-1.1v-2.69c0-.12 0-.25-.02-.38s-.04-.25-.09-.37a.7.7 0 0 0-.22-.28c-.1-.07-.23-.11-.41-.11s-.32.04-.43.11-.2.17-.27.3c-.07.12-.12.26-.14.41-.03.15-.04.29-.04.44v2.57h-1.1v-2.7c0-.11 0-.24-.02-.36-.01-.13-.04-.25-.09-.37s-.12-.21-.22-.28a.7.7 0 0 0-.41-.11q-.375 0-.57.21c-.13.14-.22.31-.26.5s-.07.39-.07.57v2.55h-1.1Z" fill="#ffffff"></path>
        <path d="M71.6 94.05c-.21 0-.38-.06-.5-.19s-.19-.29-.19-.5.07-.36.2-.49.3-.19.5-.19.36.06.5.19.21.29.21.5-.07.37-.2.5-.3.19-.5.19Zm-.54 5.3v-4.74h1.1v4.74z" fill="#ffffff"></path>
        <path d="M73.22 99.35v-4.74h1.03l.06.6c.13-.17.27-.3.44-.4s.35-.17.53-.21c.19-.04.36-.07.52-.07.45 0 .81.1 1.07.3s.45.46.55.79c.11.33.16.7.16 1.11v2.62h-1.1v-2.44c0-.17-.01-.34-.04-.51s-.07-.31-.14-.45a.8.8 0 0 0-.29-.31.93.93 0 0 0-.5-.12q-.39 0-.66.21c-.27.21-.32.32-.41.55s-.13.49-.13.79v2.28h-1.1Z" fill="#ffffff"></path>
        <path d="M80.13 99.41q-.33 0-.63-.09c-.2-.06-.38-.15-.53-.27s-.28-.26-.37-.44-.14-.39-.14-.63q0-.465.18-.75c.12-.2.28-.34.49-.45.21-.1.44-.17.71-.21.26-.04.54-.06.83-.06h.93c0-.21-.03-.39-.1-.54a.83.83 0 0 0-.31-.36c-.14-.09-.32-.13-.54-.13-.14 0-.28.02-.4.05a.9.9 0 0 0-.32.15.5.5 0 0 0-.18.27h-1.12c.04-.25.13-.46.26-.63.13-.18.29-.32.48-.44.19-.11.4-.2.62-.26q.345-.09.69-.09c.69 0 1.19.2 1.51.59.32.4.47.95.47 1.67v2.56h-.97l-.03-.61c-.14.2-.3.35-.5.45-.19.1-.38.16-.56.18-.18.03-.33.04-.46.04Zm.21-.89c.24 0 .45-.04.64-.13s.33-.22.45-.38c.11-.16.17-.35.17-.56v-.15h-.86c-.14 0-.29 0-.43.01-.14 0-.27.03-.38.07-.12.04-.21.1-.28.18s-.1.19-.1.33.04.26.11.35q.105.135.3.21c.195.075.25.07.39.07Z" fill="#ffffff"></path>
        <path d="M85.5 99.41c-.23 0-.46-.02-.68-.07s-.44-.13-.63-.24c-.2-.11-.36-.26-.49-.45s-.22-.43-.26-.72h1.11c.05.13.12.24.23.32s.23.14.37.18.28.06.42.06c.08 0 .17 0 .27-.02.1-.01.19-.04.28-.07.09-.04.16-.09.21-.16s.08-.16.08-.28c0-.11-.03-.19-.09-.26q-.09-.09-.24-.15a1.3 1.3 0 0 0-.37-.09c-.26-.05-.53-.11-.83-.17a2.2 2.2 0 0 1-.76-.3.9.9 0 0 1-.23-.19c-.07-.07-.12-.15-.17-.24s-.08-.18-.1-.28q-.03-.15-.03-.33c0-.25.05-.47.16-.64.11-.18.25-.32.42-.43.18-.11.38-.19.61-.25s.46-.08.7-.08c.32 0 .62.05.88.15s.48.26.66.47.28.48.32.8H86.3a.52.52 0 0 0-.28-.36c-.15-.09-.35-.14-.58-.14-.08 0-.17 0-.26.02s-.17.04-.26.07a.43.43 0 0 0-.28.39c0 .09.02.17.07.23.04.07.11.12.21.17s.2.08.33.11c.21.04.42.08.64.13.22.04.41.08.58.13.19.05.37.13.52.23s.28.23.36.39c.09.16.13.36.13.61q0 .435-.18.72c-.12.19-.27.34-.46.45s-.4.19-.64.23c-.23.05-.46.07-.69.07Z" fill="#ffffff"></path>
        <path d="M92.91 99.41c-.49 0-.91-.1-1.26-.31-.34-.2-.61-.49-.78-.85q-.27-.54-.27-1.26c0-.72.09-.9.28-1.27s.45-.66.79-.87.76-.32 1.25-.32c.36 0 .67.06.95.19.27.13.5.3.68.53.18.22.32.47.41.76.09.28.13.58.13.89 0 .07-.01.14-.02.21 0 .07-.01.14-.03.22h-3.33c.02.21.07.4.17.58.09.17.22.31.4.41.17.1.38.15.64.15.15 0 .29-.02.43-.06s.26-.1.37-.18.18-.18.21-.3h1.1c-.08.34-.22.62-.43.84q-.315.33-.75.48c-.29.1-.6.15-.92.15Zm-1.19-2.9h2.29c0-.2-.04-.38-.13-.54s-.22-.29-.38-.38a1.2 1.2 0 0 0-.6-.14q-.375 0-.63.15a1 1 0 0 0-.39.4q-.135.24-.15.51Z" fill="#ffffff"></path>
        <path d="M98.45 99.35v-4.74h1.01l.07.54c.12-.16.25-.29.39-.37.14-.09.29-.15.44-.18.15-.04.3-.05.44-.05.3 0 .56.06.77.18s.38.3.5.54c.12-.17.26-.3.4-.41.15-.1.31-.18.48-.23s.34-.08.53-.08c.37 0 .66.08.88.23s.38.36.49.63c.1.27.15.57.15.91v3.04h-1.1v-2.69c0-.12 0-.25-.02-.38s-.04-.25-.1-.37a.7.7 0 0 0-.22-.28c-.1-.07-.23-.11-.41-.11s-.32.04-.43.11-.2.17-.27.3-.12.26-.14.41c-.03.15-.04.29-.04.44v2.57h-1.1v-2.7c0-.11 0-.24-.02-.36s-.04-.25-.09-.37-.12-.21-.22-.28a.7.7 0 0 0-.41-.11q-.375 0-.57.21c-.195.21-.22.31-.26.5s-.07.39-.07.57v2.55h-1.1Z" fill="#ffffff"></path>
        <path d="M106.57 94.05c-.21 0-.38-.06-.5-.19s-.19-.29-.19-.5.07-.36.2-.49.3-.19.49-.19.36.06.5.19.21.29.21.5-.07.37-.2.5-.3.19-.5.19Zm-.55 5.3v-4.74h1.1v4.74z" fill="#ffffff"></path>
        <path d="M108.18 99.35v-4.74h1.03l.06.6c.12-.17.27-.3.44-.4s.35-.17.53-.21c.19-.04.36-.07.52-.07.45 0 .8.1 1.07.3.26.2.45.46.55.79.11.33.16.7.16 1.11v2.62h-1.1v-2.44c0-.17-.01-.34-.04-.51-.02-.17-.07-.31-.14-.45a.8.8 0 0 0-.29-.31c-.12-.08-.29-.12-.5-.12q-.39 0-.66.21c-.27.21-.32.32-.41.55s-.13.49-.13.79v2.28h-1.1Z" fill="#ffffff"></path>
        <path d="M115.71 99.41c-.49 0-.91-.1-1.26-.31-.35-.2-.61-.49-.78-.85q-.27-.54-.27-1.26c0-.72.09-.9.28-1.27.18-.37.45-.66.79-.87s.76-.32 1.25-.32c.36 0 .68.06.95.19s.5.3.68.53c.18.22.32.47.41.76.09.28.13.58.12.89 0 .07-.01.14-.02.21 0 .07-.02.14-.03.22h-3.33c.02.21.07.4.17.58.09.17.23.31.4.41s.38.15.64.15c.15 0 .29-.02.43-.06q.21-.06.36-.18.165-.12.21-.3h1.1c-.08.34-.22.62-.43.84q-.315.33-.75.48c-.29.1-.6.15-.92.15Zm-1.19-2.9h2.29c0-.2-.04-.38-.13-.54s-.22-.29-.38-.38c-.17-.09-.37-.14-.6-.14q-.375 0-.63.15a1 1 0 0 0-.39.4q-.135.24-.15.51Z" fill="#ffffff"></path>
        <path d="M118.75 99.35v-4.74h1l.06.62c.12-.18.26-.32.41-.42s.32-.17.49-.21.36-.06.54-.06h.33v1.04h-.29c-.31 0-.58.06-.79.18s-.38.29-.49.51-.16.5-.16.82v2.25h-1.1Z" fill="#ffffff"></path>
        <path d="M123.73 99.41q-.33 0-.63-.09c-.2-.06-.38-.15-.53-.27s-.28-.26-.37-.44-.14-.39-.14-.63q0-.465.18-.75c.12-.2.28-.34.49-.45.21-.1.44-.17.71-.21.26-.04.54-.06.83-.06h.93c0-.21-.03-.39-.1-.54a.83.83 0 0 0-.31-.36c-.14-.09-.32-.13-.54-.13-.14 0-.28.02-.4.05a.9.9 0 0 0-.32.15.5.5 0 0 0-.18.27h-1.12c.04-.25.13-.46.26-.63.13-.18.29-.32.48-.44.19-.11.4-.2.62-.26q.345-.09.69-.09c.69 0 1.19.2 1.51.59.32.4.47.95.47 1.67v2.56h-.97l-.03-.61c-.14.2-.3.35-.5.45-.19.1-.38.16-.56.18-.18.03-.33.04-.46.04Zm.22-.89c.24 0 .45-.04.64-.13s.33-.22.45-.38c.11-.16.17-.35.17-.56v-.15h-.86c-.14 0-.29 0-.43.01-.14 0-.27.03-.38.07-.12.04-.21.1-.28.18s-.1.19-.1.33.04.26.11.35q.105.135.3.21c.195.075.25.07.39.07Z" fill="#ffffff"></path>
        <path d="M127.84 94.05c-.21 0-.38-.06-.5-.19s-.19-.29-.19-.5.07-.36.2-.49.3-.19.49-.19.36.06.5.19.21.29.21.5-.07.37-.2.5-.3.19-.5.19Zm-.55 5.3v-4.74h1.1v4.74z" fill="#ffffff"></path>
        <path d="M131.27 99.41c-.23 0-.46-.02-.68-.07s-.44-.13-.63-.24c-.2-.11-.36-.26-.49-.45s-.22-.43-.26-.72h1.11c.05.13.12.24.23.32s.23.14.37.18.28.06.42.06c.08 0 .17 0 .27-.02.1-.01.19-.04.28-.07.09-.04.16-.09.21-.16s.08-.16.08-.28c0-.11-.03-.19-.09-.26q-.09-.09-.24-.15a1.3 1.3 0 0 0-.37-.09c-.26-.05-.53-.11-.83-.17a2.2 2.2 0 0 1-.76-.3.9.9 0 0 1-.23-.19c-.07-.07-.12-.15-.17-.24s-.08-.18-.1-.28q-.03-.15-.03-.33c0-.25.05-.47.16-.64.11-.18.25-.32.42-.43.18-.11.38-.19.61-.25s.46-.08.7-.08c.32 0 .62.05.88.15s.48.26.66.47.28.48.32.8h-1.04a.52.52 0 0 0-.28-.36c-.15-.09-.35-.14-.58-.14-.08 0-.17 0-.26.02s-.17.04-.26.07a.43.43 0 0 0-.28.39c0 .09.02.17.07.23.04.07.11.12.21.17s.2.08.33.11c.21.04.42.08.64.13.22.04.41.08.58.13.19.05.37.13.52.23s.28.23.36.39c.09.16.13.36.13.61q0 .435-.18.72c-.12.19-.27.34-.46.45s-.4.19-.64.23c-.23.05-.46.07-.69.07Z" fill="#ffffff"></path>
        <path d="M33.97 108.91c-.49 0-.91-.1-1.26-.31s-.61-.49-.78-.85-.27-.78-.27-1.26.09-.9.28-1.27c.18-.37.45-.66.79-.87s.76-.32 1.25-.32c.36 0 .67.06.95.19.27.13.5.3.68.53.18.22.32.47.41.76.09.28.13.58.13.89 0 .07-.01.14-.02.21 0 .07-.01.14-.03.22h-3.33c.02.21.07.4.17.58s.23.31.4.41.38.15.64.15c.15 0 .29-.02.43-.06s.26-.1.36-.18q.165-.12.21-.3h1.1c-.08.34-.22.62-.43.84s-.46.38-.75.48-.6.15-.92.15Zm-1.19-2.9h2.29c0-.2-.04-.38-.13-.54s-.22-.29-.38-.38-.36-.14-.6-.14q-.375 0-.63.15a1 1 0 0 0-.39.4q-.135.24-.15.51Z" fill="#ffffff"></path>
        <path d="M37.01 108.85v-4.74h1.01l.07.54c.12-.16.25-.29.39-.37.14-.09.29-.15.44-.18.15-.04.3-.05.44-.05.3 0 .56.06.77.18s.38.3.5.54c.12-.17.25-.3.4-.41.15-.1.31-.18.48-.23s.34-.08.53-.08c.37 0 .66.08.88.23s.38.36.49.63c.1.27.15.57.15.91v3.04h-1.1v-2.69c0-.12 0-.25-.02-.38s-.04-.25-.09-.37a.7.7 0 0 0-.22-.28c-.1-.07-.23-.11-.41-.11s-.32.04-.43.11-.2.17-.27.3c-.07.12-.12.26-.14.41-.03.15-.04.29-.04.44v2.57h-1.1v-2.7c0-.11 0-.24-.02-.36-.01-.13-.04-.25-.09-.37s-.12-.21-.22-.28a.7.7 0 0 0-.41-.11q-.375 0-.57.21c-.13.14-.22.31-.26.5s-.07.39-.07.57v2.55H37Z" fill="#ffffff"></path>
        <path d="M47.08 108.85v-4.74h1.03l.06.6c.13-.17.27-.3.44-.4s.35-.17.53-.21c.19-.04.36-.07.52-.07.45 0 .81.1 1.07.3s.45.46.55.79c.11.33.16.7.16 1.11v2.62h-1.1v-2.44c0-.17-.01-.34-.04-.51-.02-.17-.07-.31-.14-.45-.07-.13-.17-.24-.29-.31s-.29-.12-.5-.12q-.39 0-.66.21c-.27.21-.32.32-.41.55s-.13.49-.13.79v2.28h-1.1Z" fill="#ffffff"></path>
        <path d="m52.45 103.5.94-1.45h1.17l-1.16 1.45zm.03 5.35v-4.74h1.1v4.74z" fill="#ffffff"></path>
        <path d="m55.85 108.85-1.72-4.74h1.22l1.25 3.81 1.24-3.81h1.21l-1.72 4.74z" fill="#ffffff"></path>
        <path d="M61.71 108.91c-.49 0-.91-.1-1.26-.31s-.61-.49-.78-.85-.27-.78-.27-1.26.09-.9.28-1.27c.18-.37.45-.66.79-.87s.76-.32 1.25-.32c.36 0 .67.06.95.19.27.13.5.3.68.53.18.22.32.47.41.76.09.28.13.58.13.89 0 .07-.01.14-.02.21 0 .07-.01.14-.03.22h-3.33c.02.21.07.4.17.58s.23.31.4.41.38.15.64.15c.15 0 .29-.02.43-.06s.26-.1.36-.18q.165-.12.21-.3h1.1c-.08.34-.22.62-.43.84s-.46.38-.75.48-.6.15-.92.15Zm-1.18-2.9h2.29c0-.2-.04-.38-.13-.54s-.22-.29-.38-.38-.36-.14-.6-.14q-.375 0-.63.15a1 1 0 0 0-.39.4q-.135.24-.15.51Z" fill="#ffffff"></path>
        <path d="M65.31 103.55c-.21 0-.38-.06-.5-.19s-.19-.29-.19-.5.07-.36.2-.49.3-.19.5-.19.36.06.5.19.21.29.21.5-.07.37-.2.5-.3.19-.5.19Zm-.55 5.3v-4.74h1.1v4.74z" fill="#ffffff"></path>
        <path d="M68.73 108.91c-.23 0-.45-.02-.68-.07q-.345-.075-.63-.24c-.2-.11-.36-.26-.5-.45s-.22-.43-.26-.72h1.11c.05.13.12.24.23.32s.23.14.37.18.28.06.42.06c.08 0 .17 0 .27-.02.1-.01.19-.04.28-.07s.16-.09.21-.16.08-.16.08-.28c0-.11-.03-.19-.09-.26a.7.7 0 0 0-.24-.15c-.1-.04-.22-.07-.37-.09-.26-.05-.53-.11-.83-.17a2.2 2.2 0 0 1-.76-.3.9.9 0 0 1-.23-.19c-.07-.07-.12-.15-.17-.24s-.08-.18-.1-.28q-.03-.15-.03-.33c0-.25.05-.47.16-.64.11-.18.25-.32.42-.43.18-.11.38-.19.61-.25.23-.05.46-.08.7-.08.32 0 .62.05.88.15s.48.26.66.47.28.48.32.8h-1.04q-.045-.225-.27-.36c-.225-.135-.35-.14-.58-.14-.08 0-.17 0-.26.02s-.17.04-.26.07a.43.43 0 0 0-.28.39c0 .09.02.17.07.23.04.07.11.12.21.17.09.04.2.08.33.11.2.04.42.08.64.13.22.04.41.08.58.13.19.05.37.13.52.23q.24.15.36.39c.12.24.13.36.13.61q0 .435-.18.72c-.12.19-.27.34-.46.45s-.4.19-.64.23c-.23.05-.46.07-.69.07Z" fill="#ffffff"></path>
        <path d="M74.57 103.55c-.21 0-.38-.06-.5-.19s-.19-.29-.19-.5.07-.36.2-.49.3-.19.5-.19.36.06.5.19.21.29.21.5-.07.37-.2.5-.3.19-.5.19Zm-.55 5.3v-4.74h1.1v4.74z" fill="#ffffff"></path>
        <path d="M78.11 108.91c-.48 0-.88-.11-1.19-.33s-.54-.51-.7-.88c-.15-.37-.23-.77-.23-1.22s.08-.89.24-1.26.4-.66.73-.87c.32-.21.73-.32 1.21-.32a2.2 2.2 0 0 1 1.02.24c.15.08.28.19.38.32v-2.11h1.1v6.36h-1.06l-.02-.59c-.12.15-.25.27-.4.37s-.32.17-.51.22-.38.07-.58.07Zm.21-.99c.29 0 .53-.07.71-.2q.285-.195.42-.54a1.9 1.9 0 0 0 0-1.43c-.09-.22-.23-.39-.42-.52s-.42-.2-.71-.2c-.3 0-.55.07-.72.21-.18.14-.3.32-.39.54a2.2 2.2 0 0 0-.05 1.26q.075.255.21.45c.1.13.22.24.38.31.16.08.35.11.58.11Z" fill="#ffffff"></path>
        <path d="M83.86 108.91c-.49 0-.91-.1-1.26-.31-.35-.2-.61-.49-.78-.85q-.27-.54-.27-1.26c0-.72.09-.9.28-1.27.18-.37.45-.66.79-.87s.76-.32 1.25-.32c.36 0 .68.06.95.19s.5.3.68.53c.18.22.32.47.41.76.09.28.13.58.12.89 0 .07-.01.14-.02.21 0 .07-.02.14-.03.22h-3.33c.02.21.07.4.17.58.09.17.23.31.4.41s.38.15.64.15c.15 0 .29-.02.43-.06q.21-.06.36-.18.165-.12.21-.3h1.1c-.08.34-.22.62-.43.84q-.315.33-.75.48c-.29.1-.6.15-.92.15Zm-1.19-2.9h2.29c0-.2-.04-.38-.13-.54s-.22-.29-.38-.38c-.17-.09-.37-.14-.6-.14q-.375 0-.63.15a1 1 0 0 0-.39.4q-.135.24-.15.51Z" fill="#ffffff"></path>
        <path d="M88.42 108.91q-.33 0-.63-.09c-.2-.06-.38-.15-.53-.27s-.28-.26-.37-.44-.14-.39-.14-.63q0-.465.18-.75c.12-.2.28-.34.49-.45.21-.1.44-.17.71-.21s.54-.06.83-.06h.93c0-.21-.03-.39-.1-.54s-.17-.27-.31-.36-.32-.13-.54-.13c-.14 0-.28.02-.4.05s-.23.08-.31.15a.5.5 0 0 0-.18.27h-1.12c.04-.25.13-.46.26-.63.13-.18.29-.32.48-.44.19-.11.4-.2.62-.26q.345-.09.69-.09c.69 0 1.19.2 1.51.59.31.4.47.95.47 1.67v2.56h-.97l-.03-.61c-.14.2-.3.35-.49.45s-.38.16-.56.18c-.18.03-.33.04-.46.04Zm.21-.89c.24 0 .45-.04.64-.13s.33-.22.45-.38c.11-.16.17-.35.17-.56v-.15h-.86c-.14 0-.29 0-.43.01-.14 0-.27.03-.38.07s-.21.1-.27.18c-.07.08-.1.19-.1.33s.04.26.11.35c.08.09.17.16.3.21s.25.07.39.07Z" fill="#ffffff"></path>
        <path d="M92.52 103.55c-.21 0-.38-.06-.5-.19s-.19-.29-.19-.5.07-.36.2-.49.3-.19.49-.19.36.06.5.19.21.29.21.5-.07.37-.2.5-.3.19-.5.19Zm-.55 5.3v-4.74h1.1v4.74z" fill="#ffffff"></path>
        <path d="M95.95 108.91c-.23 0-.46-.02-.68-.07s-.44-.13-.63-.24c-.2-.11-.36-.26-.49-.45s-.22-.43-.26-.72H95c.05.13.12.24.23.32s.23.14.37.18.28.06.42.06c.08 0 .17 0 .27-.02.1-.01.19-.04.28-.07.09-.04.16-.09.21-.16s.08-.16.08-.28c0-.11-.03-.19-.09-.26q-.09-.09-.24-.15a1.3 1.3 0 0 0-.37-.09c-.26-.05-.53-.11-.83-.17a2.2 2.2 0 0 1-.76-.3.9.9 0 0 1-.23-.19c-.07-.07-.12-.15-.17-.24s-.08-.18-.1-.28q-.03-.15-.03-.33c0-.25.05-.47.16-.64.11-.18.25-.32.42-.43.18-.11.38-.19.61-.25s.46-.08.7-.08c.32 0 .62.05.88.15s.48.26.66.47.28.48.32.8h-1.04a.52.52 0 0 0-.28-.36c-.15-.09-.35-.14-.58-.14-.08 0-.17 0-.26.02s-.17.04-.26.07a.43.43 0 0 0-.28.39c0 .09.02.17.07.23.04.07.11.12.21.17s.2.08.33.11c.21.04.42.08.64.13.22.04.41.08.58.13.19.05.37.13.52.23s.28.23.36.39c.09.16.13.36.13.61q0 .435-.18.72c-.12.19-.27.34-.46.45s-.4.19-.64.23c-.23.05-.46.07-.69.07Z" fill="#ffffff"></path>
        <path d="m99.04 110.13-.31-.48a1.9 1.9 0 0 0 .55-.49c.08-.11.14-.2.17-.28a.83.83 0 0 1-.45-.19c-.12-.11-.19-.27-.19-.47s.07-.38.22-.5c.14-.12.3-.18.49-.18.23 0 .41.09.54.26s.2.39.2.67c0 .25-.06.48-.17.71-.12.23-.27.43-.45.59s-.38.29-.58.36Z" fill="#ffffff"></path>
        <path d="M103.66 108.85v-6.36h4.49v1.03h-3.37v1.67h2.92v1.01h-2.92v1.63h3.37v1.03h-4.49Z" fill="#ffffff"></path>
        <path d="M109.22 108.85v-6.36h2.39c.48 0 .9.07 1.25.22s.62.38.82.7c.19.32.29.74.29 1.25s-.11.9-.32 1.23-.51.58-.88.74c-.37.17-.8.25-1.28.25h-1.14v1.97h-1.12Zm1.13-2.98h1.12c.41 0 .75-.1 1-.3s.38-.51.38-.94c0-.37-.1-.65-.31-.84s-.53-.28-.97-.28h-1.21v2.36Z" fill="#ffffff"></path>
        <path d="m113.88 108.85 2.44-6.36h1.34l2.43 6.36h-1.21l-.42-1.18h-2.94l-.43 1.18zm2-2.2h2.21l-1.1-3.03z" fill="#ffffff"></path>
        <path d="M124.73 107.58v-1.45h-1.38v-.98h1.38v-1.44h.99v1.44h1.39v.98h-1.39v1.45z" fill="#ffffff"></path>
        <path d="M27 118.35v-6.36h2.35c.67 0 1.23.13 1.69.38s.81.62 1.06 1.1q.36.72.36 1.71c0 .99-.12 1.22-.36 1.69s-.59.84-1.05 1.09-1.03.38-1.7.38h-2.36Zm1.13-1.03h1.21c.47 0 .86-.09 1.15-.27s.5-.43.64-.76c.14-.32.2-.69.2-1.12s-.07-.78-.2-1.11-.34-.58-.63-.77-.67-.28-1.15-.28h-1.21v4.31Z" fill="#ffffff"></path>
        <path d="M33.55 118.35v-6.36h1.12v2.72h2.97v-2.72h1.12v6.36h-1.12v-2.62h-2.97v2.62z" fill="#ffffff"></path>
        <path d="m39.51 118.35 2.44-6.36h1.34l2.43 6.36h-1.21l-.42-1.18h-2.93l-.43 1.18h-1.21Zm1.99-2.2h2.21l-1.1-3.03z" fill="#ffffff"></path>
        <path d="M50.91 118.41c-.49 0-.91-.1-1.26-.31s-.61-.49-.78-.85-.27-.78-.27-1.26.09-.9.28-1.27c.18-.37.45-.66.79-.87s.76-.32 1.25-.32c.36 0 .67.06.95.19.27.13.5.3.68.53.18.22.32.47.41.76.09.28.13.58.13.89 0 .07-.01.14-.02.21 0 .07-.01.14-.03.22h-3.33c.02.21.07.4.17.58s.23.31.4.41.38.15.64.15c.15 0 .29-.02.43-.06s.26-.1.36-.18q.165-.12.21-.3h1.1c-.08.34-.22.62-.43.84s-.46.38-.75.48-.6.15-.92.15Zm-1.19-2.9h2.29c0-.2-.04-.38-.13-.54s-.22-.29-.38-.38-.36-.14-.6-.14q-.375 0-.63.15a1 1 0 0 0-.39.4q-.135.24-.15.51Z" fill="#ffffff"></path>
        <path d="M58.62 118.41c-.49 0-.9-.1-1.26-.3-.35-.2-.62-.48-.81-.85s-.28-.79-.28-1.29.1-.93.29-1.29.46-.65.81-.85.76-.31 1.25-.31.89.1 1.24.31c.35.2.61.49.8.86s.28.8.28 1.3-.09.91-.28 1.27c-.18.36-.45.64-.8.84s-.77.3-1.25.3Zm-.01-1c.3 0 .54-.07.72-.2s.32-.31.4-.52c.08-.22.13-.45.13-.7s-.04-.49-.13-.71a1.2 1.2 0 0 0-.4-.54c-.18-.13-.42-.2-.72-.2s-.54.07-.73.2-.32.31-.41.53c-.08.22-.13.46-.13.72s.04.49.13.71.22.39.41.52c.18.13.42.19.72.19Z" fill="#ffffff"></path>
        <path d="M64.33 120.09v-6.49h1.03l.05.64c.19-.25.41-.43.67-.54s.54-.17.85-.17c.47 0 .86.11 1.16.32s.53.51.68.87c.15.37.23.78.23 1.24s-.08.88-.23 1.25-.39.66-.71.87-.71.32-1.18.32c-.22 0-.42-.02-.61-.07-.18-.05-.35-.12-.49-.21a1.6 1.6 0 0 1-.36-.31v2.27h-1.1Zm2.37-2.67c.31 0 .55-.07.72-.2s.3-.31.38-.53.12-.45.12-.7-.04-.5-.12-.72q-.12-.33-.39-.54t-.72-.21c-.28 0-.51.07-.7.2-.19.14-.33.31-.43.54-.1.22-.14.46-.14.72s.04.51.13.72.23.39.42.52.44.19.73.19Z" fill="#ffffff"></path>
        <path d="M69.88 118.35v-4.74h1l.06.62c.12-.18.26-.32.41-.42s.32-.17.49-.21q.27-.06.54-.06h.32v1.04h-.29c-.31 0-.58.06-.79.18-.22.12-.38.29-.49.51s-.16.5-.16.82v2.25h-1.1Z" fill="#ffffff"></path>
        <path d="M75.48 118.41c-.49 0-.91-.1-1.26-.31s-.61-.49-.78-.85-.27-.78-.27-1.26.09-.9.28-1.27c.18-.37.45-.66.79-.87s.76-.32 1.25-.32c.36 0 .68.06.94.19.27.13.5.3.68.53.18.22.32.47.41.76.09.28.13.58.12.89 0 .07-.01.14-.02.21 0 .07-.02.14-.03.22h-3.33c.02.21.07.4.17.58s.23.31.4.41.38.15.64.15c.15 0 .29-.02.43-.06q.21-.06.36-.18.165-.12.21-.3h1.1c-.08.34-.22.62-.43.84q-.315.33-.75.48c-.29.1-.6.15-.92.15Zm-1.19-2.9h2.29c0-.2-.04-.38-.13-.54s-.22-.29-.38-.38c-.17-.09-.36-.14-.6-.14q-.375 0-.63.15a1 1 0 0 0-.39.4q-.135.24-.15.51Z" fill="#ffffff"></path>
        <path d="M81.07 118.41c-.17 0-.35-.02-.52-.05s-.34-.1-.5-.19-.3-.21-.44-.36l-.03.54h-1.06v-6.36h1.1v2.21c.17-.22.4-.39.67-.5s.55-.17.85-.17c.47 0 .85.11 1.16.32.3.21.53.5.68.87s.22.78.22 1.24-.08.88-.23 1.25-.38.66-.7.88c-.31.22-.71.32-1.2.32m-.18-.97q.465 0 .72-.21c.18-.14.3-.33.38-.55q.12-.345.12-.72c0-.375-.04-.5-.12-.71-.08-.22-.21-.39-.39-.52s-.42-.2-.72-.2c-.28 0-.51.07-.7.21s-.33.32-.43.55c-.1.22-.14.46-.14.7s.04.49.13.71.22.4.41.54.43.21.73.21Z" fill="#ffffff"></path>
        <path d="M84.62 113.05c-.21 0-.38-.06-.5-.19s-.19-.29-.19-.5.07-.36.2-.49.3-.19.49-.19.36.06.5.19.21.29.21.5-.07.37-.2.5-.3.19-.5.19Zm-.55 5.3v-4.74h1.1v4.74z" fill="#ffffff"></path>
        <path d="M88.4 118.41c-.49 0-.9-.1-1.26-.3s-.62-.48-.81-.85-.28-.79-.28-1.29.1-.93.29-1.29.46-.65.81-.85.77-.31 1.25-.31.89.1 1.24.31c.35.2.61.49.8.86s.28.8.28 1.3-.09.91-.28 1.27c-.18.36-.45.64-.8.84s-.77.3-1.25.3Zm-.01-1c.3 0 .54-.07.72-.2s.32-.31.4-.52.13-.45.13-.7-.04-.49-.13-.71-.22-.4-.4-.54-.42-.2-.72-.2-.54.07-.73.2-.32.31-.41.53q-.12.33-.12.72c0 .39.04.49.13.71s.22.39.4.52.42.19.72.19Zm-.57-4.41.94-1.45h1.17L88.77 113z" fill="#ffffff"></path>
        <path d="M93.68 118.35c-.38 0-.7-.05-.95-.15s-.44-.27-.56-.5-.18-.53-.18-.92v-2.21h-.73v-.97h.73v-1.32h1.1v1.32h1.11v.97h-1.11v2.06c0 .24.04.42.12.55s.27.19.57.19h.38v.97h-.48Z" fill="#ffffff"></path>
        <path d="M95.47 113.05c-.21 0-.38-.06-.5-.19-.13-.13-.19-.29-.19-.5s.07-.36.2-.49.3-.19.5-.19.36.06.49.19.21.29.21.5-.07.37-.2.5-.3.19-.5.19Zm-.55 5.3v-4.74h1.1v4.74z" fill="#ffffff"></path>
        <path d="M99.17 118.41c-.49 0-.91-.1-1.24-.3-.34-.2-.59-.49-.77-.85a3 3 0 0 1-.26-1.27c0-.48.09-.9.27-1.27s.44-.66.79-.87.77-.32 1.27-.32c.37 0 .69.06.98.19s.52.31.69.55c.18.24.29.54.34.9h-1.08a.86.86 0 0 0-.36-.5c-.17-.1-.36-.16-.59-.16-.31 0-.55.07-.72.22-.18.15-.3.33-.38.55q-.12.33-.12.69c0 .36.04.49.13.71.08.22.21.39.39.53s.41.2.69.2c.23 0 .43-.05.62-.15.18-.1.3-.27.36-.5h1.12c-.04.37-.16.67-.37.91-.2.24-.46.42-.76.54q-.465.18-.99.18Z" fill="#ffffff"></path>
        <path d="M104.28 118.41c-.49 0-.9-.1-1.26-.3-.35-.2-.62-.48-.81-.85s-.29-.79-.29-1.29.1-.93.29-1.29.46-.65.81-.85.76-.31 1.25-.31.89.1 1.24.31c.35.2.62.49.8.86s.28.8.28 1.3-.09.91-.28 1.27c-.18.36-.45.64-.79.84-.35.2-.77.3-1.25.3Zm-.01-1c.3 0 .54-.07.72-.2s.32-.31.4-.52c.08-.22.12-.45.12-.7s-.04-.49-.12-.71c-.09-.22-.22-.4-.4-.54-.18-.13-.42-.2-.72-.2s-.54.07-.73.2-.32.31-.4.53-.13.46-.13.72.04.49.13.71.22.39.41.52c.18.13.42.19.72.19" fill="#ffffff"></path>
        <path d="M110.16 118.35v-6.36h1.54l1.76 3.21 1.75-3.21h1.49v6.36h-1.12v-4.94l-1.9 3.44h-.48l-1.92-3.44v4.94z" fill="#ffffff"></path>
        <path d="M120.87 118.42c-.65 0-1.21-.14-1.67-.41-.46-.28-.81-.66-1.05-1.15s-.37-1.05-.37-1.68.12-1.21.37-1.7.6-.87 1.06-1.15 1.02-.42 1.67-.42 1.21.14 1.67.41c.46.28.81.66 1.06 1.15s.37 1.05.37 1.69-.12 1.19-.37 1.68c-.24.49-.6.88-1.06 1.16s-1.03.42-1.69.42Zm.01-1.05c.46 0 .83-.1 1.12-.31s.5-.48.63-.82.2-.69.2-1.07c0-.29-.04-.56-.11-.83-.07-.26-.19-.5-.35-.71s-.36-.38-.61-.5-.54-.18-.88-.18c-.45 0-.82.11-1.11.32s-.51.48-.64.82c-.14.34-.21.7-.21 1.09s.07.74.21 1.08.35.61.64.81c.29.21.66.31 1.11.31Z" fill="#ffffff"></path>
        <path d="M127.42 118.42c-.43 0-.83-.06-1.2-.19s-.69-.34-.94-.62-.42-.66-.49-1.12h1.14c.07.23.19.42.35.55s.35.22.56.27.43.08.66.08c.2 0 .38-.03.56-.08s.32-.14.44-.26.18-.28.18-.48a.57.57 0 0 0-.1-.36.7.7 0 0 0-.26-.23c-.11-.06-.25-.11-.4-.15-.15-.05-.31-.09-.49-.13s-.35-.08-.51-.12c-.17-.04-.33-.1-.48-.16-.19-.07-.38-.14-.55-.23-.18-.09-.33-.19-.46-.32s-.23-.28-.31-.47-.12-.41-.12-.67c0-.29.05-.55.15-.76s.23-.39.39-.53c.17-.14.35-.25.56-.32.21-.08.42-.13.65-.17.22-.04.44-.05.64-.05.4 0 .76.07 1.09.2s.59.34.8.61c.21.28.33.63.36 1.06h-1.09c-.03-.2-.1-.37-.22-.49a1.1 1.1 0 0 0-.45-.27c-.18-.06-.38-.08-.59-.08-.14 0-.29.01-.43.04-.14.02-.27.07-.38.13a.8.8 0 0 0-.27.24c-.07.1-.1.22-.1.37 0 .13.03.25.1.35s.16.18.28.25q.18.105.42.18c.21.08.44.15.69.19s.48.1.71.17c.22.06.42.13.6.22s.34.19.47.32c.13.12.23.27.31.45.07.18.11.39.11.63 0 .36-.06.67-.19.91s-.3.45-.53.61c-.22.16-.48.27-.76.34-.29.07-.58.1-.9.1Z" fill="#ffffff"></path>
        <path d="m131.1 119.63-.31-.48a1.9 1.9 0 0 0 .55-.49c.08-.11.14-.2.17-.28a.83.83 0 0 1-.45-.19c-.12-.11-.19-.27-.19-.47s.07-.38.22-.5c.14-.12.3-.18.49-.18.23 0 .41.09.54.26s.2.39.2.67c0 .25-.06.48-.17.71-.12.23-.27.43-.45.59s-.38.29-.58.36Z" fill="#ffffff"></path>
        <path d="M26.02 127.91q-.33 0-.63-.09c-.3-.09-.38-.15-.53-.27s-.28-.26-.37-.44-.14-.39-.14-.63q0-.465.18-.75c.12-.2.28-.34.49-.45.21-.1.44-.17.71-.21.26-.04.54-.06.83-.06h.93c0-.21-.03-.39-.1-.54a.83.83 0 0 0-.31-.36c-.14-.09-.32-.13-.54-.13-.14 0-.28.02-.4.05a.9.9 0 0 0-.32.15.5.5 0 0 0-.18.27h-1.12c.04-.25.13-.46.26-.63.13-.18.29-.32.48-.44.19-.11.4-.2.62-.26q.345-.09.69-.09c.69 0 1.19.2 1.51.59.32.4.47.95.47 1.67v2.56h-.97l-.03-.61c-.14.2-.3.35-.5.45-.19.1-.38.16-.56.18-.18.03-.33.04-.46.04Zm.21-.89c.24 0 .45-.04.64-.13s.33-.22.45-.38c.11-.16.17-.35.17-.56v-.15h-.86c-.14 0-.29 0-.43.01-.14 0-.27.03-.38.07s-.21.1-.27.18-.1.19-.1.33.04.26.11.35.17.16.3.21.25.07.39.07Z" fill="#ffffff"></path>
        <path d="M31.67 127.91c-.68 0-1.21-.18-1.57-.53q-.54-.525-.54-1.62v-2.66h1.1v2.58c0 .25.03.47.1.66s.18.33.33.43.35.15.58.15c.25 0 .45-.05.6-.16.15-.1.25-.25.31-.44s.09-.4.09-.64v-2.58h1.1v2.66c0 .74-.18 1.29-.55 1.63-.37.35-.88.52-1.54.52Z" fill="#ffffff"></path>
        <path d="m34.35 127.85 1.67-2.42-1.58-2.32h1.28l1.03 1.59 1-1.59H39l-1.58 2.35 1.7 2.39h-1.29l-1.12-1.64-1.12 1.64h-1.22Z" fill="#ffffff"></path>
        <path d="M40.27 122.55c-.21 0-.38-.06-.5-.19s-.19-.29-.19-.5.07-.36.2-.49.3-.19.5-.19.36.06.5.19.21.29.21.5-.07.37-.2.5-.3.19-.5.19Zm-.55 5.3v-4.74h1.1v4.74z" fill="#ffffff"></path>
        <path d="M41.88 127.85v-6.36h1.1v6.36z" fill="#ffffff"></path>
        <path d="M44.59 122.55c-.21 0-.38-.06-.5-.19s-.19-.29-.19-.5.07-.36.2-.49.3-.19.5-.19.36.06.5.19.21.29.21.5-.07.37-.2.5-.3.19-.5.19Zm-.55 5.3v-4.74h1.1v4.74z" fill="#ffffff"></path>
        <path d="M47.71 127.91q-.33 0-.63-.09c-.3-.09-.38-.15-.53-.27s-.28-.26-.37-.44-.14-.39-.14-.63q0-.465.18-.75c.12-.2.28-.34.49-.45.21-.1.44-.17.71-.21.26-.04.54-.06.83-.06h.93c0-.21-.03-.39-.1-.54a.83.83 0 0 0-.31-.36c-.14-.09-.32-.13-.54-.13-.14 0-.28.02-.4.05a.9.9 0 0 0-.32.15.5.5 0 0 0-.18.27h-1.12c.04-.25.13-.46.26-.63.13-.18.29-.32.48-.44.19-.11.4-.2.62-.26q.345-.09.69-.09c.69 0 1.19.2 1.51.59.32.4.47.95.47 1.67v2.56h-.97l-.03-.61c-.14.2-.3.35-.5.45-.19.1-.38.16-.56.18-.18.03-.33.04-.46.04Zm.22-.89c.24 0 .45-.04.64-.13s.33-.22.45-.38c.11-.16.17-.35.17-.56v-.15h-.86c-.14 0-.29 0-.43.01-.14 0-.27.03-.38.07s-.21.1-.27.18-.1.19-.1.33.04.26.11.35.17.16.3.21.25.07.39.07Z" fill="#ffffff"></path>
        <path d="M51.27 127.85v-4.74h1.03l.06.6c.13-.17.27-.3.44-.4s.35-.17.53-.21c.19-.04.36-.07.52-.07.45 0 .81.1 1.07.3s.45.46.55.79c.11.33.16.7.16 1.11v2.62h-1.1v-2.44c0-.17-.01-.34-.04-.51-.02-.17-.07-.31-.14-.45-.07-.13-.17-.24-.29-.31s-.29-.12-.5-.12q-.39 0-.66.21c-.27.21-.32.32-.41.55s-.13.49-.13.79v2.28h-1.1Z" fill="#ffffff"></path>
        <path d="M58.6 127.91c-.48 0-.88-.11-1.19-.33s-.54-.51-.7-.88c-.15-.37-.23-.77-.23-1.22s.08-.89.24-1.26.41-.66.73-.87.73-.32 1.21-.32a2.2 2.2 0 0 1 1.02.24c.15.08.28.19.38.32v-2.11h1.1v6.36H60.1l-.02-.59c-.11.15-.25.27-.4.37s-.32.17-.51.22-.38.07-.58.07Zm.21-.99c.29 0 .53-.07.71-.2q.285-.195.42-.54a1.9 1.9 0 0 0 0-1.43c-.09-.22-.23-.39-.42-.52s-.42-.2-.71-.2q-.465 0-.72.21c-.255.21-.31.32-.39.54a2.2 2.2 0 0 0-.05 1.26q.075.255.21.45c.1.13.22.24.38.31.16.08.35.11.58.11Z" fill="#ffffff"></path>
        <path d="M64.4 127.91c-.49 0-.9-.1-1.26-.3-.35-.2-.62-.48-.81-.85s-.28-.79-.28-1.29.1-.93.29-1.29.46-.65.81-.85.76-.31 1.25-.31.89.1 1.24.31c.35.2.61.49.8.86s.28.8.28 1.3-.09.91-.28 1.27c-.18.36-.45.64-.8.84s-.77.3-1.25.3Zm-.01-1c.3 0 .54-.07.72-.2s.32-.31.4-.52c.08-.22.13-.45.13-.7s-.04-.49-.13-.71a1.2 1.2 0 0 0-.4-.54c-.18-.13-.42-.2-.72-.2s-.54.07-.73.2-.32.31-.41.53c-.08.22-.13.46-.13.72s.04.49.13.71.22.39.41.52c.18.13.42.19.72.19Z" fill="#ffffff"></path>
        <path d="M70.1 127.85v-4.74h1.03l.06.6c.13-.17.27-.3.44-.4s.35-.17.53-.21c.19-.04.36-.07.52-.07.45 0 .81.1 1.07.3s.45.46.55.79c.11.33.16.7.16 1.11v2.62h-1.1v-2.44c0-.17-.01-.34-.04-.51-.02-.17-.07-.31-.14-.45-.07-.13-.17-.24-.29-.31s-.29-.12-.5-.12q-.39 0-.66.21c-.27.21-.32.32-.41.55s-.13.49-.13.79v2.28h-1.1Z" fill="#ffffff"></path>
        <path d="M77.02 127.91q-.33 0-.63-.09c-.2-.06-.38-.15-.53-.27-.16-.12-.28-.26-.37-.44s-.14-.39-.14-.63q0-.465.18-.75c.12-.2.28-.34.49-.45.21-.1.44-.17.71-.21.26-.04.54-.06.83-.06h.93c0-.21-.03-.39-.1-.54a.83.83 0 0 0-.31-.36c-.14-.09-.32-.13-.54-.13-.14 0-.28.02-.4.05a.9.9 0 0 0-.32.15.5.5 0 0 0-.18.27h-1.12c.04-.25.13-.46.26-.63.13-.18.29-.32.48-.44.19-.11.4-.2.62-.26q.345-.09.69-.09c.69 0 1.19.2 1.51.59.32.4.47.95.47 1.67v2.56h-.97l-.03-.61c-.14.2-.3.35-.5.45-.19.1-.38.16-.56.18-.18.03-.33.04-.46.04Zm.21-.89c.24 0 .45-.04.64-.13s.33-.22.45-.38c.11-.16.17-.35.17-.56v-.15h-.86c-.14 0-.29 0-.43.01-.14 0-.27.03-.38.07-.12.04-.21.1-.28.18s-.1.19-.1.33.04.26.11.35q.105.135.3.21c.195.075.25.07.39.07Z" fill="#ffffff"></path>
        <path d="M83.07 127.85v-4.74h1.01l.07.54c.12-.16.25-.29.39-.37.14-.09.29-.15.44-.18.15-.04.3-.05.44-.05.3 0 .56.06.77.18s.38.3.5.54c.12-.17.25-.3.4-.41.15-.1.31-.18.48-.23s.35-.08.53-.08c.37 0 .66.08.88.23q.33.225.48.63c.1.27.15.57.15.91v3.04h-1.1v-2.69c0-.12 0-.25-.02-.38s-.04-.25-.09-.37a.7.7 0 0 0-.22-.28c-.1-.07-.23-.11-.4-.11s-.32.04-.43.11-.2.17-.27.3c-.07.12-.12.26-.14.41-.03.15-.04.29-.04.44v2.57h-1.1v-2.7c0-.11 0-.24-.02-.36-.01-.13-.04-.25-.09-.37s-.12-.21-.21-.28a.7.7 0 0 0-.41-.11q-.375 0-.57.21c-.13.14-.21.31-.26.5s-.07.39-.07.57v2.55h-1.1Z" fill="#ffffff"></path>
        <path d="M92.15 127.91q-.33 0-.63-.09c-.2-.06-.38-.15-.53-.27s-.28-.26-.37-.44-.14-.39-.14-.63q0-.465.18-.75c.12-.2.28-.34.49-.45.21-.1.44-.17.71-.21.26-.04.54-.06.83-.06h.93c0-.21-.03-.39-.1-.54a.83.83 0 0 0-.31-.36c-.14-.09-.32-.13-.54-.13-.14 0-.28.02-.4.05a.9.9 0 0 0-.32.15.5.5 0 0 0-.18.27h-1.12c.04-.25.13-.46.26-.63.13-.18.29-.32.48-.44.19-.11.4-.2.62-.26q.345-.09.69-.09c.69 0 1.19.2 1.51.59.32.4.47.95.47 1.67v2.56h-.97l-.03-.61c-.14.2-.3.35-.5.45-.19.1-.38.16-.56.18-.18.03-.33.04-.46.04Zm.22-.89c.24 0 .45-.04.64-.13s.33-.22.45-.38c.11-.16.17-.35.17-.56v-.15h-.86c-.14 0-.29 0-.43.01-.14 0-.27.03-.38.07-.12.04-.21.1-.28.18s-.1.19-.1.33.04.26.11.35q.105.135.3.21c.195.075.25.07.39.07Z" fill="#ffffff"></path>
        <path d="M95.71 127.85v-4.74h1.03l.06.6c.12-.17.27-.3.44-.4s.35-.17.53-.21c.19-.04.36-.07.52-.07.45 0 .8.1 1.07.3.26.2.45.46.55.79.11.33.16.7.16 1.11v2.62h-1.1v-2.44c0-.17-.01-.34-.04-.51-.02-.17-.07-.31-.14-.45a.8.8 0 0 0-.29-.31c-.12-.08-.29-.12-.5-.12q-.39 0-.66.21c-.27.21-.32.32-.41.55s-.13.49-.13.79v2.28h-1.1Z" fill="#ffffff"></path>
        <path d="M103.21 127.91c-.68 0-1.21-.18-1.57-.53q-.54-.525-.54-1.62v-2.66h1.1v2.58c0 .25.04.47.1.66.07.19.18.33.33.43s.35.15.58.15c.25 0 .45-.05.6-.16.15-.1.25-.25.31-.44s.09-.4.09-.64v-2.58h1.1v2.66c0 .74-.18 1.29-.55 1.63-.37.35-.88.52-1.54.52Z" fill="#ffffff"></path>
        <path d="M108.42 127.85c-.38 0-.7-.05-.95-.15s-.44-.27-.56-.5-.18-.53-.18-.92v-2.21H106v-.97h.73v-1.32h1.1v1.32h1.11v.97h-1.11v2.06c0 .24.04.42.12.55s.27.19.57.19h.38v.97h-.48Z" fill="#ffffff"></path>
        <path d="M111.78 127.91c-.49 0-.91-.1-1.26-.31-.34-.2-.61-.49-.78-.85q-.27-.54-.27-1.26c0-.72.09-.9.28-1.27s.45-.66.79-.87.76-.32 1.25-.32c.36 0 .67.06.95.19.27.13.5.3.68.53.18.22.32.47.41.76.09.28.13.58.13.89 0 .07-.01.14-.02.21 0 .07-.01.14-.03.22h-3.33c.02.21.07.4.17.58.09.17.22.31.4.41.17.1.38.15.64.15.15 0 .29-.02.43-.06s.26-.1.37-.18.18-.18.21-.3h1.1c-.08.34-.22.62-.43.84q-.315.33-.75.48c-.29.1-.6.15-.92.15Zm-1.18-2.9h2.29c0-.2-.04-.38-.13-.54s-.22-.29-.38-.38a1.2 1.2 0 0 0-.6-.14q-.375 0-.63.15a1 1 0 0 0-.39.4q-.135.24-.15.51Z" fill="#ffffff"></path>
        <path d="M114.83 127.85v-4.74h1.03l.06.6c.13-.17.27-.3.44-.4s.35-.17.53-.21.36-.07.52-.07c.45 0 .81.1 1.07.3s.45.46.55.79c.11.33.16.7.16 1.11v2.62h-1.1v-2.44c0-.17-.01-.34-.04-.51s-.07-.31-.14-.45a.8.8 0 0 0-.29-.31.93.93 0 0 0-.5-.12q-.39 0-.66.21c-.27.21-.31.32-.4.55s-.13.49-.13.79v2.28z" fill="#ffffff"></path>
        <path d="M122.31 127.91c-.49 0-.91-.1-1.24-.3-.34-.2-.59-.49-.77-.85a3 3 0 0 1-.26-1.27c0-.48.09-.9.27-1.27s.44-.66.79-.87.77-.32 1.27-.32c.37 0 .69.06.98.19s.52.31.69.55c.18.24.29.54.34.9h-1.08a.86.86 0 0 0-.36-.5c-.17-.1-.36-.16-.59-.16-.31 0-.55.07-.72.22-.18.15-.3.33-.38.55q-.12.33-.12.69c0 .36.04.49.13.71.08.22.21.39.39.53s.41.2.69.2c.23 0 .43-.05.62-.15.18-.1.3-.27.36-.5h1.12c-.04.37-.16.67-.37.91-.2.24-.46.42-.76.54q-.465.18-.99.18Zm-.16 2.29h-.33c-.1 0-.2-.01-.29-.02v-.66c.13.01.26.02.38.01.12 0 .23-.02.32-.04.09-.03.17-.07.22-.13.06-.06.09-.14.09-.23 0-.08-.03-.15-.09-.19a.6.6 0 0 0-.2-.09c-.08-.01-.14-.02-.2-.02-.08 0-.16 0-.26.02q-.15.03-.24.06l.33-1.29h.74l-.15.66h.21c.22.01.39.09.52.22s.19.33.19.59c0 .25-.06.45-.17.61q-.165.24-.45.36c-.285.12-.39.13-.61.15Z" fill="#ffffff"></path>
        <path d="M126.77 127.91q-.33 0-.63-.09c-.2-.06-.38-.15-.53-.27s-.28-.26-.37-.44-.14-.39-.14-.63q0-.465.18-.75c.12-.2.28-.34.49-.45.21-.1.44-.17.71-.21.26-.04.54-.06.83-.06h.93c0-.21-.03-.39-.1-.54a.83.83 0 0 0-.31-.36c-.14-.09-.32-.13-.54-.13-.14 0-.28.02-.4.05a.9.9 0 0 0-.32.15.5.5 0 0 0-.18.27h-1.12c.04-.25.13-.46.26-.63.13-.18.29-.32.48-.44.19-.11.4-.2.62-.26q.345-.09.69-.09c.69 0 1.19.2 1.51.59.32.4.47.95.47 1.67v2.56h-.97l-.03-.61c-.14.2-.3.35-.5.45-.19.1-.38.16-.56.18-.18.03-.33.04-.46.04Zm1.24-5.38c-.17 0-.32-.03-.44-.09-.13-.06-.24-.14-.34-.22s-.19-.16-.27-.22a.4.4 0 0 0-.24-.09c-.08 0-.15.04-.19.11s-.06.15-.07.25 0 .17 0 .23h-.79c-.01-.23.01-.45.07-.66s.16-.38.31-.52c.15-.13.37-.2.64-.2.15 0 .29.03.4.09s.22.13.31.22c.09.08.18.15.26.22.08.06.16.09.23.09.1 0 .16-.03.2-.1s.06-.15.06-.23v-.23h.79c0 .22-.02.44-.07.65s-.15.38-.29.52c-.14.13-.34.2-.6.2Zm-1.03 4.49c.24 0 .45-.04.64-.13s.33-.22.45-.38c.11-.16.17-.35.17-.56v-.15h-.86c-.14 0-.29 0-.43.01-.14 0-.27.03-.38.07-.12.04-.21.1-.28.18s-.1.19-.1.33.04.26.11.35q.105.135.3.21c.195.075.25.07.39.07Z" fill="#ffffff"></path>
        <path d="M132.49 127.91c-.49 0-.9-.1-1.26-.3s-.62-.48-.81-.85-.28-.79-.28-1.29.1-.93.29-1.29.46-.65.81-.85.77-.31 1.25-.31.89.1 1.24.31c.35.2.61.49.8.86s.28.8.28 1.3-.09.91-.28 1.27c-.18.36-.45.64-.8.84s-.77.3-1.25.3Zm-.01-1c.3 0 .54-.07.72-.2s.32-.31.4-.52.13-.45.13-.7-.04-.49-.13-.71-.22-.4-.4-.54-.42-.2-.72-.2-.54.07-.73.2-.32.31-.41.53q-.12.33-.12.72c0 .39.04.49.13.71s.22.39.4.52.42.19.72.19Z" fill="#ffffff"></path>
        <path d="M43.88 137.41c-.48 0-.88-.11-1.19-.33s-.54-.51-.7-.88c-.15-.37-.23-.77-.23-1.22s.08-.89.24-1.26.41-.66.73-.87.73-.32 1.21-.32a2.2 2.2 0 0 1 1.02.24c.15.08.28.19.38.32v-2.11h1.1v6.36h-1.06l-.02-.59c-.11.15-.25.27-.4.37s-.32.17-.51.22-.38.07-.58.07Zm.21-.99c.29 0 .53-.07.71-.2q.285-.195.42-.54a1.9 1.9 0 0 0 0-1.43c-.09-.22-.23-.39-.42-.52s-.42-.2-.71-.2q-.465 0-.72.21c-.255.21-.31.32-.39.54a2.2 2.2 0 0 0-.05 1.26q.075.255.21.45c.1.13.22.24.38.31.16.08.35.11.58.11Z" fill="#ffffff"></path>
        <path d="M49.68 137.41c-.49 0-.9-.1-1.26-.3-.35-.2-.62-.48-.81-.85s-.28-.79-.28-1.29.1-.93.29-1.29.46-.65.81-.85.76-.31 1.25-.31.89.1 1.24.31c.35.2.61.49.8.86s.28.8.28 1.3-.09.91-.28 1.27c-.18.36-.45.64-.8.84s-.77.3-1.25.3Zm-.01-1c.3 0 .54-.07.72-.2s.32-.31.4-.52c.08-.22.13-.45.13-.7s-.04-.49-.13-.71a1.2 1.2 0 0 0-.4-.54c-.18-.13-.42-.2-.72-.2s-.54.07-.73.2-.32.31-.41.53c-.08.22-.13.46-.13.72s.04.49.13.71.22.39.41.52c.18.13.42.19.72.19Z" fill="#ffffff"></path>
        <path d="M57.2 137.41c-.23 0-.45-.02-.68-.07q-.345-.075-.63-.24c-.2-.11-.36-.26-.5-.45s-.22-.43-.26-.72h1.11c.05.13.12.24.23.32s.23.14.37.18.28.06.42.06c.08 0 .17 0 .27-.02.1-.01.19-.04.28-.07s.16-.09.21-.16.08-.16.08-.28c0-.11-.03-.19-.09-.26a.7.7 0 0 0-.24-.15c-.1-.04-.22-.07-.37-.09-.26-.05-.53-.11-.83-.17a2.2 2.2 0 0 1-.76-.3.9.9 0 0 1-.23-.19c-.07-.07-.12-.15-.17-.24s-.08-.18-.1-.28q-.03-.15-.03-.33c0-.25.05-.47.16-.64.11-.18.25-.32.42-.43.18-.11.38-.19.61-.25.23-.05.46-.08.7-.08.32 0 .62.05.88.15s.48.26.66.47.28.48.32.8h-1.04q-.045-.225-.27-.36c-.225-.135-.35-.14-.58-.14-.08 0-.17 0-.26.02s-.17.04-.26.07a.43.43 0 0 0-.28.39c0 .09.02.17.07.23.04.07.11.12.21.17.09.04.2.08.33.11.2.04.42.08.64.13.22.04.41.08.58.13.19.05.37.13.52.23q.24.15.36.39c.12.24.13.36.13.61q0 .435-.18.72c-.12.19-.27.34-.46.45s-.4.19-.64.23c-.23.05-.46.07-.69.07Z" fill="#ffffff"></path>
        <path d="M60.53 132.05c-.21 0-.38-.06-.5-.19s-.19-.29-.19-.5.07-.36.2-.49.3-.19.5-.19.36.06.5.19.21.29.21.5-.07.37-.2.5-.3.19-.5.19Zm-.55 5.3v-4.74h1.1v4.74z" fill="#ffffff"></path>
        <path d="M63.96 137.41c-.23 0-.45-.02-.68-.07q-.345-.075-.63-.24c-.2-.11-.36-.26-.5-.45s-.22-.43-.26-.72H63c.05.13.12.24.23.32s.23.14.37.18.28.06.42.06c.08 0 .17 0 .27-.02.1-.01.19-.04.28-.07s.16-.09.21-.16.08-.16.08-.28c0-.11-.03-.19-.09-.26a.7.7 0 0 0-.24-.15c-.1-.04-.22-.07-.37-.09-.26-.05-.53-.11-.83-.17a2.2 2.2 0 0 1-.76-.3.9.9 0 0 1-.23-.19c-.07-.07-.12-.15-.17-.24s-.08-.18-.1-.28q-.03-.15-.03-.33c0-.25.05-.47.16-.64.11-.18.25-.32.42-.43.18-.11.38-.19.61-.25.23-.05.46-.08.7-.08.32 0 .62.05.88.15s.48.26.66.47.28.48.32.8h-1.04q-.045-.225-.27-.36c-.225-.135-.35-.14-.58-.14-.08 0-.17 0-.26.02s-.17.04-.26.07a.43.43 0 0 0-.28.39c0 .09.02.17.07.23.04.07.11.12.21.17.09.04.2.08.33.11.2.04.42.08.64.13.22.04.41.08.58.13.19.05.37.13.52.23q.24.15.36.39c.12.24.13.36.13.61q0 .435-.18.72c-.12.19-.27.34-.46.45s-.4.19-.64.23c-.23.05-.46.07-.69.07Z" fill="#ffffff"></path>
        <path d="M68.72 137.35c-.38 0-.7-.05-.95-.15s-.43-.27-.56-.5c-.12-.23-.18-.53-.18-.92v-2.21h-.73v-.97h.73v-1.32h1.1v1.32h1.11v.97h-1.11v2.06c0 .24.04.42.13.55s.27.19.57.19h.38v.97h-.48Z" fill="#ffffff"></path>
        <path d="M72.09 137.41c-.49 0-.91-.1-1.26-.31s-.61-.49-.78-.85-.27-.78-.27-1.26.09-.9.28-1.27c.18-.37.45-.66.79-.87s.76-.32 1.25-.32c.36 0 .67.06.95.19.27.13.5.3.68.53.18.22.32.47.41.76.09.28.13.58.13.89 0 .07-.01.14-.02.21 0 .07-.01.14-.03.22h-3.33c.02.21.07.4.17.58s.23.31.4.41.38.15.64.15c.15 0 .29-.02.43-.06s.26-.1.36-.18q.165-.12.21-.3h1.1c-.08.34-.22.62-.43.84s-.46.38-.75.48-.6.15-.92.15Zm-1.19-2.9h2.29c0-.2-.04-.38-.13-.54s-.22-.29-.38-.38-.36-.14-.6-.14q-.375 0-.63.15a1 1 0 0 0-.39.4q-.135.24-.15.51Z" fill="#ffffff"></path>
        <path d="M75.13 137.35v-4.74h1.01l.07.54c.12-.16.25-.29.39-.37.14-.09.29-.15.44-.18.15-.04.3-.05.44-.05.3 0 .56.06.77.18s.38.3.5.54c.12-.17.25-.3.4-.41.15-.1.31-.18.48-.23s.35-.08.53-.08c.37 0 .66.08.88.23q.33.225.48.63c.1.27.15.57.15.91v3.04h-1.1v-2.69c0-.12 0-.25-.02-.38s-.04-.25-.09-.37a.7.7 0 0 0-.22-.28c-.1-.07-.23-.11-.4-.11s-.32.04-.43.11-.2.17-.27.3c-.07.12-.12.26-.14.41-.03.15-.04.29-.04.44v2.57h-1.1v-2.7c0-.11 0-.24-.02-.36-.01-.13-.04-.25-.09-.37s-.12-.21-.21-.28a.7.7 0 0 0-.41-.11q-.375 0-.57.21c-.13.14-.21.31-.26.5s-.07.39-.07.57v2.55h-1.1Z" fill="#ffffff"></path>
        <path d="M84.21 137.41q-.33 0-.63-.09c-.2-.06-.38-.15-.53-.27s-.28-.26-.37-.44-.14-.39-.14-.63q0-.465.18-.75c.12-.2.28-.34.49-.45.21-.1.44-.17.71-.21.26-.04.54-.06.83-.06h.93c0-.21-.03-.39-.1-.54a.83.83 0 0 0-.31-.36c-.14-.09-.32-.13-.54-.13-.14 0-.28.02-.4.05a.9.9 0 0 0-.32.15.5.5 0 0 0-.18.27h-1.12c.04-.25.13-.46.26-.63.13-.18.29-.32.48-.44.19-.11.4-.2.62-.26q.345-.09.69-.09c.69 0 1.19.2 1.51.59.32.4.47.95.47 1.67v2.56h-.97l-.03-.61c-.14.2-.3.35-.5.45-.19.1-.38.16-.56.18-.18.03-.33.04-.46.04Zm.22-.89c.24 0 .45-.04.64-.13s.33-.22.45-.38c.11-.16.17-.35.17-.56v-.15h-.86c-.14 0-.29 0-.43.01-.14 0-.27.03-.38.07-.12.04-.21.1-.28.18s-.1.19-.1.33.04.26.11.35q.105.135.3.21c.195.075.25.07.39.07Z" fill="#ffffff"></path>
        <path d="M90.82 132.05c-.21 0-.38-.06-.5-.19s-.19-.29-.19-.5.07-.36.2-.49.3-.19.49-.19.36.06.5.19.21.29.21.5-.07.37-.2.5-.3.19-.5.19Zm-.55 5.3v-4.74h1.1v4.74z" fill="#ffffff"></path>
        <path d="M92.43 137.35v-4.74h1.01l.07.54c.12-.16.25-.29.39-.37.14-.09.29-.15.44-.18.15-.04.3-.05.44-.05.3 0 .56.06.77.18s.38.3.5.54c.12-.17.25-.3.4-.41.15-.1.31-.18.48-.23s.35-.08.53-.08c.37 0 .66.08.88.23q.33.225.48.63c.1.27.15.57.15.91v3.04h-1.1v-2.69c0-.12 0-.25-.02-.38s-.04-.25-.09-.37a.7.7 0 0 0-.22-.28c-.1-.07-.23-.11-.4-.11s-.32.04-.43.11-.2.17-.27.3c-.07.12-.12.26-.14.41-.03.15-.04.29-.04.44v2.57h-1.1v-2.7c0-.11 0-.24-.02-.36-.01-.13-.04-.25-.09-.37s-.12-.21-.21-.28a.7.7 0 0 0-.41-.11q-.375 0-.57.21c-.13.14-.21.31-.26.5s-.07.39-.07.57v2.55h-1.1Z" fill="#ffffff"></path>
        <path d="M102.1 137.41c-.68 0-1.21-.18-1.57-.53q-.54-.525-.54-1.62v-2.66h1.1v2.58c0 .25.03.47.1.66s.18.33.33.43.35.15.58.15c.25 0 .45-.05.6-.16.15-.1.25-.25.31-.44s.09-.4.09-.64v-2.58h1.1v2.66c0 .74-.19 1.29-.55 1.63-.37.35-.88.52-1.54.52Z" fill="#ffffff"></path>
        <path d="M105.24 137.35v-4.74h1.03l.06.6c.13-.17.27-.3.44-.4s.35-.17.53-.21.36-.07.52-.07c.45 0 .81.1 1.07.3s.45.46.55.79c.11.33.16.7.16 1.11v2.62h-1.1v-2.44c0-.17-.01-.34-.04-.51s-.07-.31-.14-.45a.8.8 0 0 0-.29-.31.93.93 0 0 0-.5-.12q-.39 0-.66.21c-.27.21-.31.32-.4.55s-.13.49-.13.79v2.28z" fill="#ffffff"></path>
        <path d="M112.76 137.41c-.49 0-.91-.1-1.26-.31-.34-.2-.61-.49-.78-.85q-.27-.54-.27-1.26c0-.72.09-.9.28-1.27s.45-.66.79-.87.76-.32 1.25-.32c.36 0 .67.06.95.19.27.13.5.3.68.53.18.22.32.47.41.76.09.28.13.58.13.89 0 .07-.01.14-.02.21 0 .07-.01.14-.03.22h-3.33c.02.21.07.4.17.58.09.17.22.31.4.41.17.1.38.15.64.15.15 0 .29-.02.43-.06s.26-.1.37-.18.18-.18.21-.3h1.1c-.08.34-.22.62-.43.84q-.315.33-.75.48c-.29.1-.6.15-.92.15Zm-1.19-2.9h2.29c0-.2-.04-.38-.13-.54s-.22-.29-.38-.38a1.2 1.2 0 0 0-.6-.14q-.375 0-.63.15a1 1 0 0 0-.39.4q-.135.24-.15.51Z" fill="#ffffff"></path>
        <path d="M116.5 137.45c-.19 0-.36-.06-.49-.19s-.2-.3-.2-.51a.686.686 0 0 1 .7-.71c.19 0 .35.07.49.19.13.13.2.3.2.52s-.07.39-.2.51c-.13.13-.3.19-.5.19" fill="#ffffff"></path>
    </g>
</svg>