<svg preserveAspectRatio="xMidYMid meet" data-bbox="9.13 8.374 138.04 123.956" viewBox="9.13 8.374 138.04 123.956" xmlns="http://www.w3.org/2000/svg" data-type="color" role="presentation" aria-hidden="true" aria-label="">
    <g>
        <path d="M91.97 57.61c-9.25 5.66-21.34 5.13-29.88-1.66-7.04-5.59-10.79-14.64-9.69-23.57s7.14-17.13 15.58-20.76c8.45-3.63 18.45-2.42 25.81 3.07 8.31 6.19 12.08 16.96 9.7 26.99-.17.73.96 1.05 1.13.31 2.21-9.3-.56-19.23-7.42-25.92S79.97 6.72 70.69 9.41s-16.4 10.08-18.78 19.31S52.25 48 59 54.76c8.85 8.87 22.92 10.37 33.57 3.86.64-.39.05-1.41-.59-1.01Z" fill="#ffffff" data-color="1"></path>
        <path d="M69 32.91c.05-2.52 1.94-4.58 4.25-4.63h.42c.5 0 .71.21.71.73 0 .53-.28.84-.75.84-1.49.02-2.53.74-2.99 2.08-.13.37-.17.75-.18 1.14-.01.47-.28.72-.76.7-.47-.02-.7-.25-.7-.71z" fill="#ffffff" data-color="1"></path>
        <path d="M78.22 24.47c1.84 0 3.68-.01 5.51 0 .88 0 1.71.28 2.53.56.49.17.62.47.58.94-.04.36-.19.66-.45.92-.2.2-.4.25-.68.11-.84-.4-1.74-.56-2.67-.56-3.22 0-6.43-.02-9.65 0-3.26.02-5.78 2.13-6.39 5.32-.03.17-.06.34-.06.52-.05 2.14-.1 4.28 0 6.41.15 3.06 2.78 5.73 5.85 5.83 3.12.1 6.24.04 9.36.05.87 0 1.74.02 2.59-.21 2.68-.72 4.63-3.03 4.73-5.8.08-2.02.04-4.05 0-6.08-.02-1.2-.42-2.3-1.13-3.27-.32-.43-.2-.76.05-1.11.27-.39.66-.58 1.14-.57.16 0 .22.17.3.28.97 1.32 1.57 2.78 1.64 4.42.09 2.1.12 4.21 0 6.32-.23 4.45-3.58 7.83-8.03 7.99-3.64.13-7.29.15-10.93-.02-3.92-.19-7.36-3.67-7.59-7.58a60 60 0 0 1 0-6.84c.22-3.95 3.67-7.38 7.61-7.62 1.88-.12 3.77-.01 5.66-.01Z" fill="#ffffff" data-color="1"></path>
        <path d="M11.44 79.55v-5.94H9.13v-1.85h6.62v1.85h-2.32v5.94z" fill="#ffffff" data-color="1"></path>
        <path d="M18.15 79.64c-.27 0-.53-.04-.77-.11s-.46-.18-.64-.33c-.19-.15-.34-.33-.45-.55s-.17-.48-.17-.78c0-.44.09-.79.28-1.03.19-.25.44-.43.76-.55s.68-.19 1.09-.23.83-.05 1.27-.05h.26a.7.7 0 0 0-.38-.63.9.9 0 0 0-.45-.1c-.12 0-.25.02-.36.05-.12.04-.21.09-.29.15s-.12.14-.14.23h-1.94a2.1 2.1 0 0 1 .96-1.57c.26-.17.54-.29.86-.37s.65-.12 1-.12c.85 0 1.49.24 1.93.71s.65 1.17.65 2.08v3.11h-1.79v-.76a1.75 1.75 0 0 1-1.29.82c-.19.02-.33.03-.4.03Zm.53-1.49c.18 0 .36-.05.53-.14s.32-.21.43-.35.17-.28.17-.42v-.04h-1.09c-.09 0-.17 0-.25.03-.08.02-.15.05-.21.08-.06.04-.11.08-.15.14s-.05.13-.05.22c0 .1.03.19.08.26.06.07.13.12.23.16s.2.06.32.06Z" fill="#ffffff" data-color="1"></path>
        <path d="M22.66 79.55v-5.8h1.72l.18.62a1.63 1.63 0 0 1 1.1-.68 2.37 2.37 0 0 1 1.3.12c.27.11.5.31.69.62.17-.22.35-.39.54-.5s.39-.19.58-.23.38-.06.56-.06c.47 0 .85.1 1.13.29.29.19.5.46.63.8s.2.75.2 1.22v3.6h-1.95v-3.23c0-.09 0-.18-.02-.29-.01-.1-.04-.2-.08-.29s-.11-.17-.19-.23a.55.55 0 0 0-.34-.09c-.15 0-.28.03-.37.09-.1.06-.17.14-.23.23-.06.1-.09.2-.12.32-.02.12-.03.24-.03.37v3.12h-1.95V76.3c0-.08 0-.17-.02-.27-.01-.1-.04-.2-.09-.29a.6.6 0 0 0-.2-.24.7.7 0 0 0-.38-.09c-.23 0-.39.06-.5.19-.1.12-.17.27-.19.44s-.03.32-.03.44v3.07h-1.95Z" fill="#ffffff" data-color="1"></path>
        <path d="M34.1 79.64c-.27 0-.53-.04-.77-.11s-.46-.18-.64-.33c-.19-.15-.34-.33-.45-.55s-.17-.48-.17-.78c0-.44.09-.79.28-1.03.19-.25.44-.43.76-.55s.68-.19 1.09-.23.83-.05 1.27-.05h.26a.7.7 0 0 0-.38-.63.9.9 0 0 0-.45-.1c-.12 0-.25.02-.36.05-.12.04-.21.09-.29.15s-.12.14-.14.23h-1.94a2.1 2.1 0 0 1 .96-1.57c.26-.17.54-.29.86-.37s.65-.12 1-.12c.85 0 1.49.24 1.93.71s.65 1.17.65 2.08v3.11h-1.79v-.76a1.75 1.75 0 0 1-1.29.82c-.19.02-.33.03-.4.03Zm.53-1.49c.18 0 .36-.05.53-.14s.32-.21.43-.35.17-.28.17-.42v-.04h-1.09c-.09 0-.17 0-.25.03-.08.02-.15.05-.21.08-.06.04-.11.08-.15.14s-.05.13-.05.22c0 .1.03.19.08.26.06.07.13.12.23.16s.2.06.32.06Z" fill="#ffffff" data-color="1"></path>
        <path d="M38.61 79.55v-5.8h1.79l.11.53c.18-.19.38-.33.59-.42s.41-.15.61-.18.37-.04.51-.04c.54 0 .97.12 1.28.37s.53.58.67.99c.13.41.2.86.2 1.35v3.2h-1.95v-3.04a1.6 1.6 0 0 0-.17-.73.75.75 0 0 0-.26-.27c-.11-.07-.25-.1-.43-.1q-.345 0-.57.15c-.225.15-.26.24-.33.41s-.1.37-.1.58v2.99h-1.95Z" fill="#ffffff" data-color="1"></path>
        <path d="M45.36 79.55v-7.79h1.95v2.52c.18-.19.38-.33.59-.42s.42-.15.62-.18.37-.04.5-.04c.53 0 .94.12 1.25.37.3.25.52.58.65 1 .13.41.19.86.19 1.35v3.2h-1.95v-3.04c0-.12-.01-.24-.04-.37q-.045-.195-.15-.36a.8.8 0 0 0-.28-.27.9.9 0 0 0-.45-.1c-.17 0-.31.03-.43.09a.73.73 0 0 0-.29.26c-.07.11-.13.23-.16.37s-.05.28-.05.42v2.99z" fill="#ffffff" data-color="1"></path>
        <path d="M54.94 79.64c-.57 0-1.09-.11-1.54-.34-.46-.23-.82-.56-1.09-1.01-.27-.44-.41-.99-.41-1.62s.14-1.2.41-1.66c.27-.45.64-.79 1.09-1.03.46-.23.96-.35 1.51-.35s1.07.12 1.52.36q.675.36 1.08 1.05c.27.45.4 1.01.4 1.66s-.13 1.17-.39 1.61-.61.77-1.06 1-.96.33-1.53.33Zm-.03-1.81q.42 0 .66-.18c.24-.18.28-.27.34-.45.07-.18.1-.36.1-.53s-.03-.36-.1-.55a1.15 1.15 0 0 0-.33-.48c-.16-.13-.38-.2-.67-.2s-.5.07-.67.2-.28.29-.35.48-.1.37-.1.55.03.37.1.54c.07.18.18.33.35.44.16.11.38.17.66.17Z" fill="#ffffff" data-color="1"></path>
        <path d="M64.66 79.64q-.885 0-1.56-.36a2.53 2.53 0 0 1-1.03-1.02c-.25-.44-.37-.96-.37-1.57s.12-1.14.37-1.6.6-.82 1.04-1.07c.45-.26.97-.38 1.56-.38.42 0 .81.07 1.14.2q.51.195.87.57c.36.375.43.55.56.9s.19.75.19 1.19c0 .12 0 .24-.02.36s-.03.23-.06.36h-3.74c.01.14.06.27.14.4.08.12.19.22.32.3.14.07.32.11.53.11.18 0 .33-.02.46-.06s.23-.09.31-.16.13-.13.15-.2h1.9q-.15.72-.57 1.17c-.28.3-.61.53-.99.67q-.57.21-1.23.21Zm-1-3.7h1.96c0-.11-.03-.23-.09-.35s-.17-.22-.31-.3-.33-.12-.57-.12-.41.04-.56.12-.25.18-.32.3-.1.24-.1.35Z" fill="#ffffff" data-color="1"></path>
        <path d="M71.88 79.55v-4.06h-.83v-1.74h.83v-.46c0-.45.08-.83.23-1.11.15-.29.39-.5.71-.63s.72-.2 1.19-.2h1.16v1.73h-.9c-.1 0-.19.01-.25.04-.07.03-.11.08-.14.14s-.04.14-.04.23v.26h1.34v1.74h-1.34v4.06h-1.95Z" fill="#ffffff" data-color="1"></path>
        <path d="M78.52 79.64c-.57 0-1.09-.11-1.54-.34-.46-.23-.82-.56-1.09-1.01-.27-.44-.41-.99-.41-1.62s.14-1.2.41-1.66c.27-.45.64-.79 1.09-1.03.46-.23.96-.35 1.51-.35s1.07.12 1.52.36q.675.36 1.08 1.05c.27.45.4 1.01.4 1.66s-.13 1.17-.39 1.61-.61.77-1.06 1-.96.33-1.53.33Zm-.04-1.81q.42 0 .66-.18c.24-.18.28-.27.34-.45.07-.18.1-.36.1-.53s-.03-.36-.1-.55a1.15 1.15 0 0 0-.33-.48c-.16-.13-.38-.2-.67-.2s-.5.07-.67.2-.28.29-.35.48-.1.37-.1.55.03.37.1.54c.07.18.18.33.35.44.16.11.38.17.66.17Z" fill="#ffffff" data-color="1"></path>
        <path d="M82.3 79.55v-5.8h1.71l.13.55c.15-.21.31-.37.48-.46s.35-.15.53-.18q.27-.03.48-.03h.34c.1 0 .17 0 .2.02v1.88h-.37c-.27 0-.53.04-.76.1-.24.07-.43.2-.57.4-.14.19-.21.49-.21.88v2.64h-1.95Z" fill="#ffffff" data-color="1"></path>
        <path d="M86.77 79.55v-5.8h1.72l.18.62a1.63 1.63 0 0 1 1.1-.68 2.37 2.37 0 0 1 1.3.12c.27.11.5.31.69.62.17-.22.35-.39.54-.5s.39-.19.58-.23.38-.06.56-.06c.47 0 .85.1 1.13.29.29.19.5.46.63.8s.2.75.2 1.22v3.6h-1.95v-3.23c0-.09 0-.18-.02-.29-.01-.1-.04-.2-.08-.29s-.11-.17-.19-.23a.55.55 0 0 0-.34-.09c-.15 0-.28.03-.37.09-.1.06-.17.14-.23.23-.06.1-.09.2-.12.32-.02.12-.03.24-.03.37v3.12h-1.95V76.3c0-.08 0-.17-.02-.27-.01-.1-.04-.2-.09-.29a.6.6 0 0 0-.2-.24.7.7 0 0 0-.38-.09c-.23 0-.39.06-.5.19-.1.12-.17.27-.19.44s-.03.32-.03.44v3.07h-1.95Z" fill="#ffffff" data-color="1"></path>
        <path d="M98.21 79.64c-.27 0-.53-.04-.77-.11s-.46-.18-.64-.33c-.19-.15-.34-.33-.45-.55s-.17-.48-.17-.78c0-.44.09-.79.28-1.03.19-.25.44-.43.76-.55s.68-.19 1.09-.23.83-.05 1.27-.05h.26a.7.7 0 0 0-.38-.63.9.9 0 0 0-.45-.1c-.12 0-.25.02-.36.05-.12.04-.21.09-.29.15s-.12.14-.14.23h-1.94a2.1 2.1 0 0 1 .96-1.57c.26-.17.54-.29.86-.37s.65-.12 1-.12c.85 0 1.49.24 1.93.71s.65 1.17.65 2.08v3.11h-1.79v-.76a1.75 1.75 0 0 1-1.29.82c-.19.02-.33.03-.4.03Zm.53-1.49c.18 0 .36-.05.53-.14s.32-.21.43-.35.17-.28.17-.42v-.04h-1.09c-.09 0-.17 0-.25.03-.08.02-.15.05-.21.08-.06.04-.11.08-.15.14s-.05.13-.05.22c0 .1.03.19.08.26.06.07.13.12.23.16s.2.06.32.06Z" fill="#ffffff" data-color="1"></path>
        <path d="M105.52 79.55c-.51 0-.95-.05-1.31-.17-.36-.11-.64-.31-.84-.59-.19-.28-.29-.69-.29-1.23v-2.08h-.8v-1.74h.8V72.3h1.95v1.44h1.07v1.74h-1.07v1.78c0 .14.02.26.07.37s.19.16.41.16h.52v1.75h-.51Z" fill="#ffffff" data-color="1"></path>
        <path d="M109.55 79.64c-.57 0-1.09-.11-1.54-.34-.46-.23-.82-.56-1.09-1.01-.27-.44-.41-.99-.41-1.62s.14-1.2.41-1.66c.27-.45.64-.79 1.09-1.03.46-.23.96-.35 1.51-.35s1.07.12 1.52.36q.675.36 1.08 1.05c.27.45.4 1.01.4 1.66s-.13 1.17-.39 1.61-.61.77-1.06 1-.96.33-1.53.33Zm-.04-1.81q.42 0 .66-.18c.24-.18.28-.27.34-.45.07-.18.1-.36.1-.53s-.03-.36-.1-.55a1.15 1.15 0 0 0-.33-.48c-.16-.13-.38-.2-.67-.2s-.5.07-.67.2-.28.29-.35.48-.1.37-.1.55.03.37.1.54c.07.18.18.33.35.44.16.11.38.17.66.17Z" fill="#ffffff" data-color="1"></path>
        <path d="M117.5 73.36c-.35 0-.64-.1-.85-.31-.22-.21-.32-.48-.32-.82s.11-.63.34-.85.51-.33.85-.33.6.1.83.31.34.49.34.85-.11.62-.32.83c-.22.21-.5.31-.85.31Zm-.98 6.19v-5.8h1.95v5.8z" fill="#ffffff" data-color="1"></path>
        <path d="M121.95 79.64c-.59 0-1.09-.14-1.48-.41-.39-.28-.69-.64-.88-1.09a3.8 3.8 0 0 1-.29-1.5c0-.59.11-1.12.33-1.57s.54-.8.96-1.06.93-.38 1.53-.38q.3 0 .57.06c.27.06.35.1.5.18s.28.17.39.29v-2.4h1.95v7.79h-1.9v-.51c-.14.13-.3.24-.47.33s-.36.15-.56.2-.41.07-.64.07Zm.42-1.77c.29 0 .53-.06.7-.18s.3-.28.37-.46c.08-.19.12-.38.12-.58s-.04-.4-.12-.59-.2-.34-.37-.46q-.255-.18-.69-.18c-.435 0-.52.07-.69.2s-.29.3-.36.49a1.7 1.7 0 0 0-.04 1.01c.04.14.11.27.2.39q.135.165.36.27c.15.07.32.1.53.1Z" fill="#ffffff" data-color="1"></path>
        <path d="M129.28 79.64q-.885 0-1.56-.36a2.53 2.53 0 0 1-1.03-1.02c-.25-.44-.37-.96-.37-1.57s.12-1.14.37-1.6.6-.82 1.04-1.07c.45-.26.97-.38 1.56-.38.42 0 .81.07 1.14.2q.51.195.87.57c.36.375.43.55.56.9s.19.75.19 1.19c0 .12 0 .24-.02.36s-.03.23-.06.36h-3.74c.01.14.06.27.14.4.08.12.19.22.32.3.14.07.32.11.53.11.18 0 .33-.02.46-.06s.23-.09.31-.16.13-.13.15-.2h1.9q-.15.72-.57 1.17c-.28.3-.61.53-.99.67q-.57.21-1.23.21Zm-1-3.7h1.96c0-.11-.03-.23-.09-.35s-.17-.22-.31-.3-.33-.12-.57-.12-.41.04-.56.12-.25.18-.32.3-.1.24-.1.35Z" fill="#ffffff" data-color="1"></path>
        <path d="M134.7 79.64c-.27 0-.53-.04-.77-.11s-.46-.18-.64-.33c-.19-.15-.34-.33-.45-.55s-.17-.48-.17-.78c0-.44.09-.79.28-1.03.19-.25.44-.43.76-.55s.68-.19 1.09-.23.83-.05 1.27-.05h.26a.7.7 0 0 0-.38-.63.9.9 0 0 0-.45-.1c-.12 0-.25.02-.36.05-.12.04-.21.09-.29.15s-.12.14-.14.23h-1.94a2.1 2.1 0 0 1 .96-1.57c.26-.17.54-.29.86-.37s.65-.12 1-.12c.85 0 1.49.24 1.93.71s.65 1.17.65 2.08v3.11h-1.79v-.76a1.75 1.75 0 0 1-1.29.82c-.19.02-.33.03-.4.03Zm.53-1.49c.18 0 .36-.05.53-.14s.32-.21.43-.35.17-.28.17-.42v-.04h-1.09c-.09 0-.17 0-.25.03-.08.02-.15.05-.21.08-.06.04-.11.08-.15.14s-.05.13-.05.22c0 .1.03.19.08.26.06.07.13.12.23.16s.2.06.32.06Z" fill="#ffffff" data-color="1"></path>
        <path d="M140.19 73.36c-.35 0-.64-.1-.85-.31-.22-.21-.32-.48-.32-.82s.11-.63.34-.85.51-.33.85-.33.6.1.83.31.34.49.34.85-.11.62-.32.83c-.22.21-.5.31-.85.31Zm-.98 6.19v-5.8h1.95v5.8z" fill="#ffffff" data-color="1"></path>
        <path d="M144.58 79.64c-.29 0-.58-.03-.87-.1s-.57-.18-.82-.33-.47-.36-.64-.63c-.18-.27-.29-.6-.35-1.01h1.97c.03.09.08.18.16.25s.17.13.29.17c.11.04.24.06.37.06.09 0 .17 0 .24-.02s.13-.04.18-.07q.075-.045.12-.12c.045-.075.04-.09.04-.14 0-.1-.04-.18-.12-.23s-.19-.08-.33-.11-.3-.06-.47-.09c-.27-.06-.56-.13-.87-.23s-.57-.21-.79-.35a1.35 1.35 0 0 1-.47-.55 1.3 1.3 0 0 1-.1-.34c-.02-.12-.03-.24-.03-.37 0-.34.08-.62.23-.85s.34-.42.58-.56.5-.24.79-.3.57-.09.85-.09c.41 0 .79.07 1.15.2s.65.35.89.64q.36.435.45 1.17h-1.88c-.01-.13-.09-.23-.21-.31a.96.96 0 0 0-.47-.11c-.07 0-.14 0-.2.02-.06.01-.12.03-.17.06-.05.02-.08.05-.11.09s-.04.08-.04.12c0 .03 0 .06.03.1.02.04.05.07.1.1q.075.045.21.09.36.09.69.15c.22.04.43.09.65.13.24.04.48.12.71.23s.43.27.59.48.24.51.24.89-.08.69-.23.94-.36.45-.61.6-.53.25-.83.32-.6.1-.89.1Z" fill="#ffffff" data-color="1"></path>
        <path d="M18.46 92.23c-.65 0-1.21-.14-1.67-.41-.46-.28-.81-.66-1.05-1.15s-.36-1.05-.36-1.68.12-1.21.37-1.7.6-.87 1.06-1.15 1.02-.42 1.67-.42 1.21.14 1.67.41c.46.28.81.66 1.06 1.15s.37 1.05.37 1.69-.12 1.19-.36 1.68-.6.88-1.06 1.16-1.03.42-1.69.42Zm.01-1.05c.46 0 .83-.1 1.12-.31s.5-.48.63-.82.2-.69.2-1.07c0-.29-.04-.56-.11-.83-.08-.26-.19-.5-.35-.71s-.36-.38-.61-.5-.54-.18-.88-.18c-.45 0-.82.11-1.11.32s-.51.48-.64.82c-.14.34-.21.7-.21 1.09s.07.74.21 1.08.35.61.64.81c.29.21.66.31 1.11.31Z" fill="#ffffff" data-color="1"></path>
        <path d="M24.28 92.22c-.23 0-.45-.02-.68-.07q-.345-.075-.63-.24c-.2-.11-.36-.26-.5-.45s-.22-.43-.26-.72h1.11c.05.13.12.24.23.32s.23.14.37.18.28.06.42.06c.08 0 .17 0 .27-.02.1-.01.19-.04.28-.07s.16-.09.21-.16.08-.16.08-.28c0-.11-.03-.19-.09-.26a.7.7 0 0 0-.24-.15c-.1-.04-.22-.07-.37-.09-.26-.05-.53-.11-.83-.17a2.2 2.2 0 0 1-.76-.3.9.9 0 0 1-.23-.19c-.07-.07-.12-.15-.17-.24s-.08-.18-.1-.28q-.03-.15-.03-.33c0-.25.05-.47.16-.64.11-.18.25-.32.42-.43.18-.11.38-.19.61-.25.23-.05.46-.08.7-.08.32 0 .62.05.88.15s.48.26.66.47.28.48.32.8h-1.04q-.045-.225-.27-.36c-.225-.135-.35-.14-.58-.14-.08 0-.17 0-.26.02s-.17.04-.26.07a.43.43 0 0 0-.28.39c0 .09.02.17.07.23.04.07.11.12.21.17.09.04.2.08.33.11.2.04.42.08.64.13.22.04.41.08.58.13.19.05.37.13.52.23q.24.15.36.39c.12.24.13.36.13.61q0 .435-.18.72c-.12.19-.27.34-.46.45s-.4.19-.64.23c-.23.05-.46.07-.69.07Z" fill="#ffffff" data-color="1"></path>
        <path d="M31.77 94.33c-.35 0-.67-.06-.98-.17-.3-.11-.56-.29-.77-.52-.21-.24-.35-.54-.42-.91h1.12c.04.14.11.26.22.35s.24.15.38.19q.225.06.45.06c.29 0 .53-.06.7-.18s.29-.28.37-.49c.07-.21.11-.43.11-.68v-.45c-.11.17-.24.31-.41.41s-.34.17-.52.21q-.27.06-.54.06c-.49 0-.89-.11-1.2-.32-.31-.22-.54-.5-.68-.87-.14-.36-.22-.76-.22-1.2s.08-.87.24-1.25.4-.67.72-.9c.32-.22.72-.33 1.21-.33.28 0 .55.05.8.15q.375.15.63.45l.07-.52h1.02v4.33c0 .53-.08.99-.23 1.38s-.4.68-.73.89c-.34.21-.78.31-1.33.31Zm-.07-3.09c.28 0 .52-.07.7-.2q.285-.195.42-.54c.1-.22.14-.47.14-.73s-.05-.51-.14-.73a1.1 1.1 0 0 0-.41-.51c-.18-.13-.42-.19-.71-.19-.31 0-.55.07-.73.21s-.31.32-.39.54c-.08.23-.12.46-.12.72s.04.51.13.72c.08.22.22.39.4.52s.42.19.71.19" fill="#ffffff" data-color="1"></path>
        <path d="M35.12 92.16v-4.74h1l.06.62c.12-.18.26-.32.41-.42s.32-.17.49-.21q.27-.06.54-.06h.32v1.04h-.29c-.31 0-.58.06-.79.18-.22.12-.38.29-.49.51s-.16.5-.16.82v2.25h-1.1Z" fill="#ffffff" data-color="1"></path>
        <path d="M40.11 92.22q-.33 0-.63-.09c-.3-.09-.38-.15-.53-.27s-.28-.26-.37-.44-.14-.39-.14-.63q0-.465.18-.75c.12-.2.28-.34.49-.45.21-.1.44-.17.71-.21.26-.04.54-.06.83-.06h.93c0-.21-.03-.39-.1-.54a.83.83 0 0 0-.31-.36c-.14-.09-.32-.13-.54-.13-.14 0-.28.02-.4.05a.9.9 0 0 0-.32.15.5.5 0 0 0-.18.27h-1.12c.04-.25.13-.46.26-.63.13-.18.29-.32.48-.44.19-.11.4-.2.62-.26q.345-.09.69-.09c.69 0 1.19.2 1.51.59.32.4.47.95.47 1.67v2.56h-.97l-.03-.61c-.14.2-.3.35-.5.45-.19.1-.38.16-.56.18-.18.03-.33.04-.46.04Zm1.24-5.38c-.17 0-.32-.03-.44-.09-.13-.06-.24-.14-.34-.22s-.19-.16-.27-.22a.4.4 0 0 0-.24-.09c-.08 0-.15.04-.18.11-.04.07-.06.15-.07.25s0 .17 0 .23h-.79c-.01-.23.01-.45.07-.66s.16-.38.32-.52c.15-.13.37-.2.64-.2.16 0 .29.03.4.09s.22.13.31.22.18.15.26.22c.08.06.16.09.23.09.1 0 .16-.03.2-.1s.06-.15.06-.23v-.23h.79c0 .22-.02.44-.07.65s-.15.38-.28.52c-.14.13-.34.2-.6.2Zm-1.03 4.49c.24 0 .45-.04.64-.13s.33-.22.45-.38c.11-.16.17-.35.17-.56v-.15h-.86c-.14 0-.29 0-.43.01-.14 0-.27.03-.38.07s-.21.1-.27.18-.1.19-.1.33.04.26.11.35.17.16.3.21.25.07.39.07Z" fill="#ffffff" data-color="1"></path>
        <path d="M45.83 92.22c-.49 0-.9-.1-1.26-.3-.35-.2-.62-.48-.81-.85s-.28-.79-.28-1.29.1-.93.29-1.29.46-.65.81-.85.76-.31 1.25-.31.89.1 1.24.31c.35.2.61.49.8.86s.28.8.28 1.3-.09.91-.28 1.27c-.18.36-.45.64-.8.84s-.77.3-1.25.3Zm-.01-1c.3 0 .54-.07.72-.2s.32-.31.4-.52c.08-.22.13-.45.13-.7s-.04-.49-.13-.71a1.2 1.2 0 0 0-.4-.54c-.18-.13-.42-.2-.72-.2s-.54.07-.73.2-.32.31-.41.53c-.08.22-.13.46-.13.72s.04.49.13.71.22.39.41.52c.18.13.42.19.72.19Z" fill="#ffffff" data-color="1"></path>
        <path d="M50.85 92.22c-.23 0-.45-.02-.68-.07q-.345-.075-.63-.24c-.2-.11-.36-.26-.5-.45s-.22-.43-.26-.72h1.11c.05.13.12.24.23.32s.23.14.37.18.28.06.42.06c.08 0 .17 0 .27-.02.1-.01.19-.04.28-.07s.16-.09.21-.16.08-.16.08-.28c0-.11-.03-.19-.09-.26a.7.7 0 0 0-.24-.15c-.1-.04-.22-.07-.37-.09-.26-.05-.53-.11-.83-.17a2.2 2.2 0 0 1-.76-.3.9.9 0 0 1-.23-.19c-.07-.07-.12-.15-.17-.24s-.08-.18-.1-.28q-.03-.15-.03-.33c0-.25.05-.47.16-.64.11-.18.25-.32.42-.43.18-.11.38-.19.61-.25.23-.05.46-.08.7-.08.32 0 .62.05.88.15s.48.26.66.47.28.48.32.8h-1.04q-.045-.225-.27-.36c-.225-.135-.35-.14-.58-.14-.08 0-.17 0-.26.02s-.17.04-.26.07a.43.43 0 0 0-.28.39c0 .09.02.17.07.23.04.07.11.12.21.17.09.04.2.08.33.11.2.04.42.08.64.13.22.04.41.08.58.13.19.05.37.13.52.23q.24.15.36.39c.12.24.13.36.13.61q0 .435-.18.72c-.12.19-.27.34-.46.45s-.4.19-.64.23c-.23.05-.46.07-.69.07Z" fill="#ffffff" data-color="1"></path>
        <path d="M56.14 93.9v-6.49h1.03l.05.64c.19-.25.41-.43.67-.54s.54-.17.85-.17c.47 0 .86.11 1.16.32s.53.51.68.87c.15.37.23.78.23 1.24s-.08.88-.23 1.25-.39.66-.71.87-.71.32-1.18.32c-.22 0-.42-.02-.61-.07-.18-.05-.35-.12-.49-.21a1.6 1.6 0 0 1-.36-.31v2.27h-1.1Zm2.37-2.67c.31 0 .55-.07.72-.2s.3-.31.38-.53.12-.45.12-.7-.04-.5-.12-.72q-.12-.33-.39-.54t-.72-.21c-.28 0-.51.07-.7.2-.19.14-.33.31-.43.54-.1.22-.14.46-.14.72s.04.51.13.72.23.39.42.52.44.19.73.19Z" fill="#ffffff" data-color="1"></path>
        <path d="M63.86 92.22c-.49 0-.9-.1-1.26-.3-.35-.2-.62-.48-.81-.85s-.28-.79-.28-1.29.1-.93.29-1.29.46-.65.81-.85.76-.31 1.25-.31.89.1 1.24.31c.35.2.61.49.8.86s.28.8.28 1.3-.09.91-.28 1.27c-.18.36-.45.64-.8.84s-.77.3-1.25.3Zm-.01-1c.3 0 .54-.07.72-.2s.32-.31.4-.52c.08-.22.13-.45.13-.7s-.04-.49-.13-.71a1.2 1.2 0 0 0-.4-.54c-.18-.13-.42-.2-.72-.2s-.54.07-.73.2-.32.31-.41.53c-.08.22-.13.46-.13.72s.04.49.13.71.22.39.41.52c.18.13.42.19.72.19Z" fill="#ffffff" data-color="1"></path>
        <path d="M68.88 92.22c-.23 0-.45-.02-.68-.07q-.345-.075-.63-.24c-.2-.11-.36-.26-.5-.45s-.22-.43-.26-.72h1.11c.05.13.12.24.23.32s.23.14.37.18.28.06.42.06c.08 0 .17 0 .27-.02.1-.01.19-.04.28-.07s.16-.09.21-.16.08-.16.08-.28c0-.11-.03-.19-.09-.26a.7.7 0 0 0-.24-.15c-.1-.04-.22-.07-.37-.09-.26-.05-.53-.11-.83-.17a2.2 2.2 0 0 1-.76-.3.9.9 0 0 1-.23-.19c-.07-.07-.12-.15-.17-.24s-.08-.18-.1-.28q-.03-.15-.03-.33c0-.25.05-.47.16-.64.11-.18.25-.32.42-.43.18-.11.38-.19.61-.25.23-.05.46-.08.7-.08.32 0 .62.05.88.15s.48.26.66.47.28.48.32.8h-1.04q-.045-.225-.27-.36c-.225-.135-.35-.14-.58-.14-.08 0-.17 0-.26.02s-.17.04-.26.07a.43.43 0 0 0-.28.39c0 .09.02.17.07.23.04.07.11.12.21.17.09.04.2.08.33.11.2.04.42.08.64.13.22.04.41.08.58.13.19.05.37.13.52.23q.24.15.36.39c.12.24.13.36.13.61q0 .435-.18.72c-.12.19-.27.34-.46.45s-.4.19-.64.23c-.23.05-.46.07-.69.07Z" fill="#ffffff" data-color="1"></path>
        <path d="M73.48 92.22c-.23 0-.45-.02-.68-.07q-.345-.075-.63-.24c-.2-.11-.36-.26-.5-.45s-.22-.43-.26-.72h1.11c.05.13.12.24.23.32s.23.14.37.18.28.06.42.06c.08 0 .17 0 .27-.02.1-.01.19-.04.28-.07s.16-.09.21-.16.08-.16.08-.28c0-.11-.03-.19-.09-.26a.7.7 0 0 0-.24-.15c-.1-.04-.22-.07-.37-.09-.26-.05-.53-.11-.83-.17a2.2 2.2 0 0 1-.76-.3.9.9 0 0 1-.23-.19c-.07-.07-.12-.15-.17-.24s-.08-.18-.1-.28q-.03-.15-.03-.33c0-.25.05-.47.16-.64.11-.18.25-.32.42-.43.18-.11.38-.19.61-.25.23-.05.46-.08.7-.08.32 0 .62.05.88.15s.48.26.66.47.28.48.32.8h-1.04q-.045-.225-.27-.36c-.225-.135-.35-.14-.58-.14-.08 0-.17 0-.26.02s-.17.04-.26.07a.43.43 0 0 0-.28.39c0 .09.02.17.07.23.04.07.11.12.21.17.09.04.2.08.33.11.2.04.42.08.64.13.22.04.41.08.58.13.19.05.37.13.52.23q.24.15.36.39c.12.24.13.36.13.61q0 .435-.18.72c-.12.19-.27.34-.46.45s-.4.19-.64.23c-.23.05-.46.07-.69.07Z" fill="#ffffff" data-color="1"></path>
        <path d="M78.36 92.22c-.68 0-1.21-.18-1.57-.53q-.54-.525-.54-1.62v-2.66h1.1v2.58c0 .25.03.47.1.66s.18.33.33.43.35.15.58.15c.25 0 .45-.05.6-.16.15-.1.25-.25.31-.44s.09-.4.09-.64v-2.58h1.1v2.66c0 .74-.18 1.29-.55 1.63-.37.35-.88.52-1.54.52Z" fill="#ffffff" data-color="1"></path>
        <path d="M83.62 92.22c-.49 0-.91-.1-1.26-.31s-.61-.49-.78-.85-.27-.78-.27-1.26.09-.9.28-1.27c.18-.37.45-.66.79-.87s.76-.32 1.25-.32c.36 0 .67.06.95.19.27.13.5.3.68.53.18.22.32.47.41.76.09.28.13.58.13.89 0 .07-.01.14-.02.21 0 .07-.01.14-.03.22h-3.33c.02.21.07.4.17.58s.23.31.4.41.38.15.64.15c.15 0 .29-.02.43-.06s.26-.1.36-.18q.165-.12.21-.3h1.1c-.08.34-.22.62-.43.84s-.46.38-.75.48-.6.15-.92.15Zm-1.19-2.9h2.29c0-.2-.04-.38-.13-.54s-.22-.29-.38-.38-.36-.14-.6-.14q-.375 0-.63.15a1 1 0 0 0-.39.4q-.135.24-.15.51Z" fill="#ffffff" data-color="1"></path>
        <path d="M86.66 92.16v-4.74h1.01l.07.54c.12-.16.25-.29.39-.37.14-.09.29-.15.44-.18.15-.04.3-.05.44-.05.3 0 .56.06.77.18s.38.3.5.54c.12-.17.25-.3.4-.41.15-.1.31-.18.48-.23s.34-.08.53-.08c.37 0 .66.08.88.23s.38.36.49.63c.1.27.15.57.15.91v3.04h-1.1v-2.69c0-.12 0-.25-.02-.38s-.04-.25-.09-.37a.7.7 0 0 0-.22-.28c-.1-.07-.23-.11-.41-.11s-.32.04-.43.11-.2.17-.27.3c-.07.12-.12.26-.14.41-.03.15-.04.29-.04.44v2.57h-1.1v-2.7c0-.11 0-.24-.02-.36-.01-.13-.04-.25-.09-.37s-.12-.21-.22-.28a.7.7 0 0 0-.41-.11q-.375 0-.57.21c-.13.14-.22.31-.26.5s-.07.39-.07.57v2.55h-1.1Z" fill="#ffffff" data-color="1"></path>
        <path d="M98.9 92.22c-.49 0-.9-.1-1.26-.3-.35-.2-.62-.48-.81-.85s-.28-.79-.28-1.29.1-.93.29-1.29.46-.65.81-.85.76-.31 1.25-.31.89.1 1.24.31c.35.2.61.49.8.86s.28.8.28 1.3-.09.91-.28 1.27c-.18.36-.45.64-.8.84s-.77.3-1.25.3Zm0-1c.3 0 .54-.07.72-.2s.32-.31.4-.52c.08-.22.13-.45.13-.7s-.04-.49-.13-.71a1.2 1.2 0 0 0-.4-.54c-.18-.13-.42-.2-.72-.2s-.54.07-.73.2-.32.31-.41.53c-.08.22-.13.46-.13.72s.04.49.13.71.22.39.41.52c.18.13.42.19.72.19Z" fill="#ffffff" data-color="1"></path>
        <path d="M106.68 92.16c-.38 0-.7-.05-.95-.15s-.43-.27-.56-.5c-.12-.23-.18-.53-.18-.92v-2.21h-.73v-.97h.73v-1.32h1.1v1.32h1.11v.97h-1.11v2.06c0 .24.04.42.13.55s.27.19.57.19h.38v.97h-.48Z" fill="#ffffff" data-color="1"></path>
        <path d="M109.43 92.22q-.33 0-.63-.09c-.3-.09-.38-.15-.53-.27s-.28-.26-.37-.44-.14-.39-.14-.63q0-.465.18-.75c.12-.2.28-.34.49-.45.21-.1.44-.17.71-.21.26-.04.54-.06.83-.06h.93c0-.21-.03-.39-.1-.54a.83.83 0 0 0-.31-.36c-.14-.09-.32-.13-.54-.13-.14 0-.28.02-.4.05a.9.9 0 0 0-.32.15.5.5 0 0 0-.18.27h-1.12c.04-.25.13-.46.26-.63.13-.18.29-.32.48-.44.19-.11.4-.2.62-.26q.345-.09.69-.09c.69 0 1.19.2 1.51.59.32.4.47.95.47 1.67v2.56h-.97l-.03-.61c-.14.2-.3.35-.5.45-.19.1-.38.16-.56.18-.18.03-.33.04-.46.04Zm.22-.89c.24 0 .45-.04.64-.13s.33-.22.45-.38c.11-.16.17-.35.17-.56v-.15h-.86c-.14 0-.29 0-.43.01-.14 0-.27.03-.38.07s-.21.1-.27.18-.1.19-.1.33.04.26.11.35.17.16.3.21.25.07.39.07Z" fill="#ffffff" data-color="1"></path>
        <path d="M112.99 92.16v-4.74H114l.07.54c.12-.16.25-.29.39-.37.14-.09.29-.15.44-.18.15-.04.3-.05.44-.05.3 0 .56.06.77.18s.38.3.5.54c.12-.17.25-.3.4-.41.15-.1.31-.18.48-.23s.34-.08.53-.08c.37 0 .66.08.88.23s.38.36.49.63c.1.27.15.57.15.91v3.04h-1.1v-2.69c0-.12 0-.25-.02-.38s-.04-.25-.09-.37a.7.7 0 0 0-.22-.28c-.1-.07-.23-.11-.41-.11s-.32.04-.43.11-.2.17-.27.3c-.07.12-.12.26-.14.41-.03.15-.04.29-.04.44v2.57h-1.1v-2.7c0-.11 0-.24-.02-.36-.01-.13-.04-.25-.09-.37s-.12-.21-.22-.28a.7.7 0 0 0-.41-.11q-.375 0-.57.21c-.13.14-.22.31-.26.5s-.07.39-.07.57v2.55h-1.1Z" fill="#ffffff" data-color="1"></path>
        <path d="M122.07 92.22q-.33 0-.63-.09c-.3-.09-.38-.15-.53-.27s-.28-.26-.37-.44-.14-.39-.14-.63q0-.465.18-.75c.12-.2.28-.34.49-.45.21-.1.44-.17.71-.21.26-.04.54-.06.83-.06h.93c0-.21-.03-.39-.1-.54a.83.83 0 0 0-.31-.36c-.14-.09-.32-.13-.54-.13-.14 0-.28.02-.4.05a.9.9 0 0 0-.32.15.5.5 0 0 0-.18.27h-1.12c.04-.25.13-.46.26-.63.13-.18.29-.32.48-.44.19-.11.4-.2.62-.26q.345-.09.69-.09c.69 0 1.19.2 1.51.59.32.4.47.95.47 1.67v2.56h-.97l-.03-.61c-.14.2-.3.35-.5.45-.19.1-.38.16-.56.18-.18.03-.33.04-.46.04Zm.22-.89c.24 0 .45-.04.64-.13s.33-.22.45-.38c.11-.16.17-.35.17-.56v-.15h-.86c-.14 0-.29 0-.43.01-.14 0-.27.03-.38.07s-.21.1-.27.18-.1.19-.1.33.04.26.11.35.17.16.3.21.25.07.39.07Z" fill="#ffffff" data-color="1"></path>
        <path d="M125.63 92.16v-4.74h1.03l.06.6c.13-.17.27-.3.44-.4s.35-.17.53-.21c.19-.04.36-.07.52-.07.45 0 .81.1 1.07.3s.45.46.55.79c.11.33.16.7.16 1.11v2.62h-1.1v-2.44c0-.17-.01-.34-.04-.51-.02-.17-.07-.31-.14-.45-.07-.13-.17-.24-.29-.31s-.29-.12-.5-.12q-.39 0-.66.21c-.27.21-.32.32-.41.55s-.13.49-.13.79v2.28h-1.1Z" fill="#ffffff" data-color="1"></path>
        <path d="M131.03 92.16V85.8h1.1v2.23c.13-.16.27-.29.44-.4.17-.1.34-.18.53-.22s.36-.07.53-.07c.45 0 .8.1 1.06.3s.44.46.54.79c.11.33.16.7.16 1.12v2.61h-1.1v-2.42c0-.16-.01-.33-.04-.5-.02-.17-.07-.32-.14-.46-.07-.13-.17-.24-.31-.33s-.31-.13-.54-.13c-.21 0-.39.04-.54.13q-.225.135-.36.36c-.09.15-.15.31-.19.49q-.06.27-.06.54v2.3h-1.1Z" fill="#ffffff" data-color="1"></path>
        <path d="M138.6 92.22c-.49 0-.9-.1-1.26-.3-.35-.2-.62-.48-.81-.85s-.28-.79-.28-1.29.1-.93.29-1.29.46-.65.81-.85.76-.31 1.25-.31.89.1 1.24.31c.35.2.61.49.8.86s.28.8.28 1.3-.09.91-.28 1.27c-.18.36-.45.64-.8.84s-.77.3-1.25.3Zm-.01-1c.3 0 .54-.07.72-.2s.32-.31.4-.52c.08-.22.13-.45.13-.7s-.04-.49-.13-.71a1.2 1.2 0 0 0-.4-.54c-.18-.13-.42-.2-.72-.2s-.54.07-.73.2-.32.31-.41.53c-.08.22-.13.46-.13.72s.04.49.13.71.22.39.41.52c.18.13.42.19.72.19Z" fill="#ffffff" data-color="1"></path>
        <path d="M17.98 101.72c-.49 0-.91-.1-1.26-.31s-.61-.49-.78-.85-.27-.78-.27-1.26.09-.9.28-1.27c.18-.37.45-.66.79-.87s.76-.32 1.25-.32c.36 0 .67.06.95.19.27.13.5.3.68.53.18.22.32.47.41.76.09.28.13.58.13.89 0 .07-.01.14-.02.21 0 .07-.01.14-.03.22h-3.33c.02.21.07.4.17.58s.23.31.4.41.38.15.64.15c.15 0 .29-.02.43-.06s.26-.1.36-.18q.165-.12.21-.3h1.1c-.08.34-.22.62-.43.84s-.46.38-.75.48-.6.15-.92.15Zm-1.19-2.9h2.29c0-.2-.04-.38-.13-.54s-.22-.29-.38-.38-.36-.14-.6-.14q-.375 0-.63.15a1 1 0 0 0-.39.4q-.135.24-.15.51Z" fill="#ffffff" data-color="1"></path>
        <path d="M23.95 101.66v-3.77h-.74v-.97h.74v-.45c0-.36.05-.66.16-.89s.28-.4.52-.51.54-.16.91-.16h.7v.97h-.58c-.16 0-.29.03-.38.08s-.15.13-.19.24-.06.23-.06.38v.33h1.21v.97h-1.21v3.77h-1.09Z" fill="#ffffff" data-color="1"></path>
        <path d="M29.01 101.72c-.49 0-.9-.1-1.26-.3-.35-.2-.62-.48-.81-.85s-.28-.79-.28-1.29.1-.93.29-1.29.46-.65.81-.85.76-.31 1.25-.31.89.1 1.24.31c.35.2.61.49.8.86s.28.8.28 1.3-.09.91-.28 1.27c-.18.36-.45.64-.8.84s-.77.3-1.25.3Zm-.01-1c.3 0 .54-.07.72-.2s.32-.31.4-.52c.08-.22.13-.45.13-.7s-.04-.49-.13-.71a1.2 1.2 0 0 0-.4-.54c-.18-.13-.42-.2-.72-.2s-.54.07-.73.2-.32.31-.41.53c-.08.22-.13.46-.13.72s.04.49.13.71.22.39.41.52c.18.13.42.19.72.19Z" fill="#ffffff" data-color="1"></path>
        <path d="M32.21 101.66v-4.74h1l.06.62c.12-.18.26-.32.41-.42s.32-.17.49-.21q.27-.06.54-.06h.32v1.04h-.29c-.31 0-.58.06-.79.18-.22.12-.38.29-.49.51s-.16.5-.16.82v2.25h-1.1Z" fill="#ffffff" data-color="1"></path>
        <path d="M35.69 101.66v-4.74h1.01l.07.54c.12-.16.25-.29.39-.37.14-.09.29-.15.44-.18.15-.04.3-.05.44-.05.3 0 .56.06.77.18s.38.3.5.54c.12-.17.25-.3.4-.41.15-.1.31-.18.48-.23s.34-.08.53-.08c.37 0 .66.08.88.23s.38.36.49.63c.1.27.15.57.15.91v3.04h-1.1v-2.69c0-.12 0-.25-.02-.38s-.04-.25-.09-.37a.7.7 0 0 0-.22-.28c-.1-.07-.23-.11-.41-.11s-.32.04-.43.11-.2.17-.27.3c-.07.12-.12.26-.14.41-.03.15-.04.29-.04.44v2.57h-1.1v-2.7c0-.11 0-.24-.02-.36-.01-.13-.04-.25-.09-.37s-.12-.21-.22-.28a.7.7 0 0 0-.41-.11q-.375 0-.57.21c-.13.14-.22.31-.26.5s-.07.39-.07.57v2.55h-1.1Z" fill="#ffffff" data-color="1"></path>
        <path d="M44.77 101.72q-.33 0-.63-.09c-.3-.09-.38-.15-.53-.27s-.28-.26-.37-.44-.14-.39-.14-.63q0-.465.18-.75c.12-.2.28-.34.49-.45.21-.1.44-.17.71-.21.26-.04.54-.06.83-.06h.93c0-.21-.03-.39-.1-.54a.83.83 0 0 0-.31-.36c-.14-.09-.32-.13-.54-.13-.14 0-.28.02-.4.05a.9.9 0 0 0-.32.15.5.5 0 0 0-.18.27h-1.12c.04-.25.13-.46.26-.63.13-.18.29-.32.48-.44.19-.11.4-.2.62-.26q.345-.09.69-.09c.69 0 1.19.2 1.51.59.32.4.47.95.47 1.67v2.56h-.97l-.03-.61c-.14.2-.3.35-.5.45-.19.1-.38.16-.56.18-.18.03-.33.04-.46.04Zm.21-.89c.24 0 .45-.04.64-.13s.33-.22.45-.38c.11-.16.17-.35.17-.56v-.15h-.86c-.14 0-.29 0-.43.01-.14 0-.27.03-.38.07s-.21.1-.27.18-.1.19-.1.33.04.26.11.35.17.16.3.21.25.07.39.07Z" fill="#ffffff" data-color="1"></path>
        <path d="M50.39 101.66c-.38 0-.7-.05-.95-.15s-.43-.27-.56-.5c-.12-.23-.18-.53-.18-.92v-2.21h-.73v-.97h.73v-1.32h1.1v1.32h1.11v.97H49.8v2.06c0 .24.04.42.13.55s.27.19.57.19h.38v.97h-.48Z" fill="#ffffff" data-color="1"></path>
        <path d="M53.8 101.72c-.49 0-.9-.1-1.26-.3-.35-.2-.62-.48-.81-.85s-.28-.79-.28-1.29.1-.93.29-1.29.46-.65.81-.85.76-.31 1.25-.31.89.1 1.24.31c.35.2.61.49.8.86s.28.8.28 1.3-.09.91-.28 1.27c-.18.36-.45.64-.8.84s-.77.3-1.25.3Zm-.01-1c.3 0 .54-.07.72-.2s.32-.31.4-.52c.08-.22.13-.45.13-.7s-.04-.49-.13-.71a1.2 1.2 0 0 0-.4-.54c-.18-.13-.42-.2-.72-.2s-.54.07-.73.2-.32.31-.41.53c-.08.22-.13.46-.13.72s.04.49.13.71.22.39.41.52c.18.13.42.19.72.19Z" fill="#ffffff" data-color="1"></path>
        <path d="M60.06 96.37c-.21 0-.38-.06-.5-.19s-.19-.29-.19-.5.07-.36.2-.49.3-.19.5-.19.36.06.5.19.21.29.21.5-.07.37-.2.5-.3.19-.5.19Zm-.55 5.29v-4.74h1.1v4.74z" fill="#ffffff" data-color="1"></path>
        <path d="M63.6 101.72c-.48 0-.88-.11-1.19-.33s-.54-.51-.7-.88c-.15-.37-.23-.77-.23-1.22s.08-.89.24-1.26.41-.66.73-.87.73-.32 1.21-.32a2.2 2.2 0 0 1 1.02.24c.15.08.28.19.38.32v-2.11h1.1v6.36H65.1l-.02-.59c-.11.15-.25.27-.4.37s-.32.17-.51.22-.38.07-.58.07Zm.21-.99c.29 0 .53-.07.71-.2q.285-.195.42-.54a1.9 1.9 0 0 0 0-1.43c-.09-.22-.23-.39-.42-.52s-.42-.2-.71-.2q-.465 0-.72.21c-.255.21-.31.32-.39.54a2.2 2.2 0 0 0-.05 1.26q.075.255.21.45c.1.13.22.24.38.31.16.08.35.11.58.11Z" fill="#ffffff" data-color="1"></path>
        <path d="M69.35 101.72c-.49 0-.91-.1-1.26-.31s-.61-.49-.78-.85-.27-.78-.27-1.26.09-.9.28-1.27c.18-.37.45-.66.79-.87s.76-.32 1.25-.32c.36 0 .67.06.95.19.27.13.5.3.68.53.18.22.32.47.41.76.09.28.13.58.13.89 0 .07-.01.14-.02.21 0 .07-.01.14-.03.22h-3.33c.02.21.07.4.17.58s.23.31.4.41.38.15.64.15c.15 0 .29-.02.43-.06s.26-.1.36-.18q.165-.12.21-.3h1.1c-.08.34-.22.62-.43.84s-.46.38-.75.48-.6.15-.92.15Zm-1.18-2.9h2.29c0-.2-.04-.38-.13-.54s-.22-.29-.38-.38-.36-.14-.6-.14q-.375 0-.63.15a1 1 0 0 0-.39.4q-.135.24-.15.51Z" fill="#ffffff" data-color="1"></path>
        <path d="M73.91 101.72q-.33 0-.63-.09c-.3-.09-.38-.15-.53-.27s-.28-.26-.37-.44-.14-.39-.14-.63q0-.465.18-.75c.12-.2.28-.34.49-.45.21-.1.44-.17.71-.21.26-.04.54-.06.83-.06h.93c0-.21-.03-.39-.1-.54a.83.83 0 0 0-.31-.36c-.14-.09-.32-.13-.54-.13-.14 0-.28.02-.4.05a.9.9 0 0 0-.32.15.5.5 0 0 0-.18.27h-1.12c.04-.25.13-.46.26-.63.13-.18.29-.32.48-.44.19-.11.4-.2.62-.26q.345-.09.69-.09c.69 0 1.19.2 1.51.59.32.4.47.95.47 1.67v2.56h-.97l-.03-.61c-.14.2-.3.35-.5.45-.19.1-.38.16-.56.18-.18.03-.33.04-.46.04Zm.21-.89c.24 0 .45-.04.64-.13s.33-.22.45-.38c.11-.16.17-.35.17-.56v-.15h-.86c-.14 0-.29 0-.43.01-.14 0-.27.03-.38.07s-.21.1-.27.18-.1.19-.1.33.04.26.11.35.17.16.3.21.25.07.39.07Z" fill="#ffffff" data-color="1"></path>
        <path d="M78.01 96.37c-.21 0-.38-.06-.5-.19s-.19-.29-.19-.5.07-.36.2-.49.3-.19.5-.19.36.06.5.19.21.29.21.5-.07.37-.2.5-.3.19-.5.19Zm-.55 5.29v-4.74h1.1v4.74z" fill="#ffffff" data-color="1"></path>
        <path d="M81.44 101.72c-.23 0-.45-.02-.68-.07q-.345-.075-.63-.24c-.2-.11-.36-.26-.5-.45s-.22-.43-.26-.72h1.11c.05.13.12.24.23.32s.23.14.37.18.28.06.42.06c.08 0 .17 0 .27-.02.1-.01.19-.04.28-.07s.16-.09.21-.16.08-.16.08-.28c0-.11-.03-.19-.09-.26a.7.7 0 0 0-.24-.15c-.1-.04-.22-.07-.37-.09-.26-.05-.53-.11-.83-.17a2.2 2.2 0 0 1-.76-.3.9.9 0 0 1-.23-.19c-.07-.07-.12-.15-.17-.24s-.08-.18-.1-.28q-.03-.15-.03-.33c0-.25.05-.47.16-.64.11-.18.25-.32.42-.43.18-.11.38-.19.61-.25.23-.05.46-.08.7-.08.32 0 .62.05.88.15s.48.26.66.47.28.48.32.8h-1.04q-.045-.225-.27-.36c-.225-.135-.35-.14-.58-.14-.08 0-.17 0-.26.02s-.17.04-.26.07a.43.43 0 0 0-.28.39c0 .09.02.17.07.23.04.07.11.12.21.17.09.04.2.08.33.11.2.04.42.08.64.13.22.04.41.08.58.13.19.05.37.13.52.23q.24.15.36.39c.12.24.13.36.13.61q0 .435-.18.72c-.12.19-.27.34-.46.45s-.4.19-.64.23c-.23.05-.46.07-.69.07Z" fill="#ffffff" data-color="1"></path>
        <path d="M86.72 103.4v-6.49h1.03l.05.64c.19-.25.41-.43.67-.54s.54-.17.85-.17c.47 0 .86.11 1.16.32s.53.51.68.87c.15.37.23.78.23 1.24s-.08.88-.23 1.25-.39.66-.71.87-.71.32-1.18.32c-.22 0-.42-.02-.61-.07-.18-.05-.35-.12-.49-.21a1.6 1.6 0 0 1-.36-.31v2.27h-1.1Zm2.38-2.67c.31 0 .55-.07.72-.2s.3-.31.38-.53.12-.45.12-.7-.04-.5-.12-.72q-.12-.33-.39-.54t-.72-.21c-.28 0-.51.07-.7.2-.19.14-.33.31-.43.54-.1.22-.14.46-.14.72s.04.51.13.72.23.39.42.52.44.19.73.19Z" fill="#ffffff" data-color="1"></path>
        <path d="M93.79 101.72q-.33 0-.63-.09c-.3-.09-.38-.15-.53-.27s-.28-.26-.37-.44-.14-.39-.14-.63q0-.465.18-.75c.12-.2.28-.34.49-.45.21-.1.44-.17.71-.21.26-.04.54-.06.83-.06h.93c0-.21-.03-.39-.1-.54a.83.83 0 0 0-.31-.36c-.14-.09-.32-.13-.54-.13-.14 0-.28.02-.4.05a.9.9 0 0 0-.32.15.5.5 0 0 0-.18.27h-1.12c.04-.25.13-.46.26-.63.13-.18.29-.32.48-.44.19-.11.4-.2.62-.26q.345-.09.69-.09c.69 0 1.19.2 1.51.59.32.4.47.95.47 1.67v2.56h-.97l-.03-.61c-.14.2-.3.35-.5.45-.19.1-.38.16-.56.18-.18.03-.33.04-.46.04Zm.21-.89c.24 0 .45-.04.64-.13s.33-.22.45-.38c.11-.16.17-.35.17-.56v-.15h-.86c-.14 0-.29 0-.43.01-.14 0-.27.03-.38.07s-.21.1-.27.18-.1.19-.1.33.04.26.11.35.17.16.3.21.25.07.39.07Z" fill="#ffffff" data-color="1"></path>
        <path d="M97.34 101.66v-4.74h1l.06.62c.12-.18.26-.32.41-.42s.32-.17.49-.21q.27-.06.54-.06h.32v1.04h-.29c-.31 0-.58.06-.79.18-.22.12-.38.29-.49.51s-.16.5-.16.82v2.25h-1.1Z" fill="#ffffff" data-color="1"></path>
        <path d="M102.33 101.72q-.33 0-.63-.09c-.3-.09-.38-.15-.53-.27s-.28-.26-.37-.44-.14-.39-.14-.63q0-.465.18-.75c.12-.2.28-.34.49-.45.21-.1.44-.17.71-.21.26-.04.54-.06.83-.06h.93c0-.21-.03-.39-.1-.54a.83.83 0 0 0-.31-.36c-.14-.09-.32-.13-.54-.13-.14 0-.28.02-.4.05a.9.9 0 0 0-.32.15.5.5 0 0 0-.18.27h-1.12c.04-.25.13-.46.26-.63.13-.18.29-.32.48-.44.19-.11.4-.2.62-.26q.345-.09.69-.09c.69 0 1.19.2 1.51.59.32.4.47.95.47 1.67v2.56h-.97l-.03-.61c-.14.2-.3.35-.5.45-.19.1-.38.16-.56.18-.18.03-.33.04-.46.04Zm.21-.89c.24 0 .45-.04.64-.13s.33-.22.45-.38c.11-.16.17-.35.17-.56v-.15h-.86c-.14 0-.29 0-.43.01-.14 0-.27.03-.38.07s-.21.1-.27.18-.1.19-.1.33.04.26.11.35.17.16.3.21.25.07.39.07Z" fill="#ffffff" data-color="1"></path>
        <path d="M110.47 101.72c-.49 0-.91-.1-1.24-.3a1.9 1.9 0 0 1-.76-.85 3 3 0 0 1-.26-1.27c0-.48.09-.9.27-1.27s.44-.66.79-.87.77-.32 1.27-.32c.37 0 .69.06.98.19s.52.31.69.55c.18.24.29.54.34.9h-1.08a.86.86 0 0 0-.36-.5c-.17-.1-.36-.16-.59-.16-.31 0-.55.07-.72.22-.18.15-.3.33-.38.55q-.12.33-.12.69c0 .36.04.49.13.71.08.22.21.39.39.53.18.13.41.2.69.2.23 0 .43-.05.62-.15.18-.1.3-.27.36-.5h1.12c-.04.37-.16.67-.37.91-.2.24-.45.42-.76.54q-.465.18-.99.18Z" fill="#ffffff" data-color="1"></path>
        <path d="M114.93 101.72q-.33 0-.63-.09c-.3-.09-.38-.15-.53-.27s-.28-.26-.37-.44-.14-.39-.14-.63q0-.465.18-.75c.12-.2.28-.34.49-.45.21-.1.44-.17.71-.21.26-.04.54-.06.83-.06h.93c0-.21-.03-.39-.1-.54a.83.83 0 0 0-.31-.36c-.14-.09-.32-.13-.54-.13-.14 0-.28.02-.4.05a.9.9 0 0 0-.32.15.5.5 0 0 0-.18.27h-1.12c.04-.25.13-.46.26-.63.13-.18.29-.32.48-.44.19-.11.4-.2.62-.26q.345-.09.69-.09c.69 0 1.19.2 1.51.59.32.4.47.95.47 1.67v2.56h-.97l-.03-.61c-.14.2-.3.35-.5.45-.19.1-.38.16-.56.18-.18.03-.33.04-.46.04Zm1.24-5.38c-.17 0-.32-.03-.44-.09-.13-.06-.24-.14-.34-.22s-.19-.16-.27-.22a.4.4 0 0 0-.24-.09c-.08 0-.15.04-.18.11-.04.07-.06.15-.07.25s0 .17 0 .23h-.79c-.01-.23.01-.45.07-.66s.16-.38.32-.52c.15-.13.37-.2.64-.2.16 0 .29.03.4.09s.22.13.31.22.18.15.26.22c.08.06.16.09.23.09.1 0 .16-.03.2-.1s.06-.15.06-.23v-.23h.79c0 .22-.02.44-.07.65s-.15.38-.28.52c-.14.13-.34.2-.6.2Zm-1.03 4.49c.24 0 .45-.04.64-.13s.33-.22.45-.38c.11-.16.17-.35.17-.56v-.15h-.86c-.14 0-.29 0-.43.01-.14 0-.27.03-.38.07s-.21.1-.27.18-.1.19-.1.33.04.26.11.35.17.16.3.21.25.07.39.07Z" fill="#ffffff" data-color="1"></path>
        <path d="M120.61 101.72c-.49 0-.91-.1-1.26-.31s-.61-.49-.78-.85-.27-.78-.27-1.26.09-.9.28-1.27c.18-.37.45-.66.79-.87s.76-.32 1.25-.32c.36 0 .67.06.95.19.27.13.5.3.68.53.18.22.32.47.41.76.09.28.13.58.13.89 0 .07-.01.14-.02.21 0 .07-.01.14-.03.22h-3.33c.02.21.07.4.17.58s.23.31.4.41.38.15.64.15c.15 0 .29-.02.43-.06s.26-.1.36-.18q.165-.12.21-.3h1.1c-.08.34-.22.62-.43.84s-.46.38-.75.48-.6.15-.92.15Zm-1.19-2.9h2.29c0-.2-.04-.38-.13-.54s-.22-.29-.38-.38-.36-.14-.6-.14q-.375 0-.63.15a1 1 0 0 0-.39.4q-.135.24-.15.51Z" fill="#ffffff" data-color="1"></path>
        <path d="M125.47 101.72c-.23 0-.45-.02-.68-.07q-.345-.075-.63-.24c-.2-.11-.36-.26-.5-.45s-.22-.43-.26-.72h1.11c.05.13.12.24.23.32s.23.14.37.18.28.06.42.06c.08 0 .17 0 .27-.02.1-.01.19-.04.28-.07s.16-.09.21-.16.08-.16.08-.28c0-.11-.03-.19-.09-.26a.7.7 0 0 0-.24-.15c-.1-.04-.22-.07-.37-.09-.26-.05-.53-.11-.83-.17a2.2 2.2 0 0 1-.76-.3.9.9 0 0 1-.23-.19c-.07-.07-.12-.15-.17-.24s-.08-.18-.1-.28q-.03-.15-.03-.33c0-.25.05-.47.16-.64.11-.18.25-.32.42-.43.18-.11.38-.19.61-.25.23-.05.46-.08.7-.08.32 0 .62.05.88.15s.48.26.66.47.28.48.32.8h-1.04q-.045-.225-.27-.36c-.225-.135-.35-.14-.58-.14-.08 0-.17 0-.26.02s-.17.04-.26.07a.43.43 0 0 0-.28.39c0 .09.02.17.07.23.04.07.11.12.21.17.09.04.2.08.33.11.2.04.42.08.64.13.22.04.41.08.58.13.19.05.37.13.52.23q.24.15.36.39c.12.24.13.36.13.61q0 .435-.18.72c-.12.19-.27.34-.46.45s-.4.19-.64.23c-.23.05-.46.07-.69.07Z" fill="#ffffff" data-color="1"></path>
        <path d="M132.68 101.72c-.48 0-.88-.11-1.19-.33s-.54-.51-.7-.88c-.15-.37-.23-.77-.23-1.22s.08-.89.24-1.26.41-.66.73-.87.73-.32 1.21-.32a2.2 2.2 0 0 1 1.02.24c.15.08.28.19.38.32v-2.11h1.1v6.36h-1.06l-.02-.59c-.11.15-.25.27-.4.37s-.32.17-.51.22-.38.07-.58.07Zm.21-.99c.29 0 .53-.07.71-.2q.285-.195.42-.54a1.9 1.9 0 0 0 0-1.43c-.09-.22-.23-.39-.42-.52s-.42-.2-.71-.2q-.465 0-.72.21c-.255.21-.31.32-.39.54a2.2 2.2 0 0 0-.05 1.26q.075.255.21.45c.1.13.22.24.38.31.16.08.35.11.58.11Z" fill="#ffffff" data-color="1"></path>
        <path d="M138.44 101.72c-.49 0-.91-.1-1.26-.31s-.61-.49-.78-.85-.27-.78-.27-1.26.09-.9.28-1.27c.18-.37.45-.66.79-.87s.76-.32 1.25-.32c.36 0 .67.06.95.19.27.13.5.3.68.53.18.22.32.47.41.76.09.28.13.58.13.89 0 .07-.01.14-.02.21 0 .07-.01.14-.03.22h-3.33c.02.21.07.4.17.58s.23.31.4.41.38.15.64.15c.15 0 .29-.02.43-.06s.26-.1.36-.18q.165-.12.21-.3h1.1c-.08.34-.22.62-.43.84s-.46.38-.75.48-.6.15-.92.15Zm-1.19-2.9h2.29c0-.2-.04-.38-.13-.54s-.22-.29-.38-.38-.36-.14-.6-.14q-.375 0-.63.15a1 1 0 0 0-.39.4q-.135.24-.15.51Z" fill="#ffffff" data-color="1"></path>
        <path d="M20.39 112.9v-6.49h1.03l.05.64c.19-.25.41-.43.67-.54s.54-.17.85-.17c.47 0 .86.11 1.16.32s.53.51.68.87c.15.37.23.78.23 1.24s-.08.88-.23 1.25-.39.66-.71.87-.71.32-1.18.32c-.22 0-.42-.02-.61-.07-.18-.05-.35-.12-.49-.21a1.6 1.6 0 0 1-.36-.31v2.27h-1.1Zm2.38-2.67c.31 0 .55-.07.72-.2s.3-.31.38-.53.12-.45.12-.7-.04-.5-.12-.72q-.12-.33-.39-.54t-.72-.21c-.28 0-.51.07-.7.2-.19.14-.33.31-.43.54-.1.22-.14.46-.14.72s.04.51.13.72.23.39.42.52.44.19.73.19Z" fill="#ffffff" data-color="1"></path>
        <path d="M28.11 111.22c-.49 0-.9-.1-1.26-.3-.35-.2-.62-.48-.81-.85s-.28-.79-.28-1.29.1-.93.29-1.29.46-.65.81-.85.76-.31 1.25-.31.89.1 1.24.31c.35.2.61.49.8.86s.28.8.28 1.3-.09.91-.28 1.27c-.18.36-.45.64-.8.84s-.77.3-1.25.3Zm-.01-1c.3 0 .54-.07.72-.2s.32-.31.4-.52c.08-.22.13-.45.13-.7s-.04-.49-.13-.71a1.2 1.2 0 0 0-.4-.54c-.18-.13-.42-.2-.72-.2s-.54.07-.73.2-.32.31-.41.53c-.08.22-.13.46-.13.72s.04.49.13.71.22.39.41.52c.18.13.42.19.72.19Z" fill="#ffffff" data-color="1"></path>
        <path d="M31.32 111.16v-4.74h1l.06.62c.12-.18.26-.32.41-.42s.32-.17.49-.21q.27-.06.54-.06h.32v1.04h-.29c-.31 0-.58.06-.79.18-.22.12-.38.29-.49.51s-.16.5-.16.82v2.25h-1.1Z" fill="#ffffff" data-color="1"></path>
        <path d="M36.86 111.16c-.38 0-.7-.05-.95-.15s-.43-.27-.56-.5c-.12-.23-.18-.53-.18-.92v-2.21h-.73v-.97h.73v-1.32h1.1v1.32h1.11v.97h-1.11v2.06c0 .24.04.42.13.55s.27.19.57.19h.38v.97h-.48Z" fill="#ffffff" data-color="1"></path>
        <path d="M40.22 111.22c-.49 0-.91-.1-1.26-.31s-.61-.49-.78-.85-.27-.78-.27-1.26.09-.9.28-1.27c.18-.37.45-.66.79-.87s.76-.32 1.25-.32c.36 0 .67.06.95.19.27.13.5.3.68.53.18.22.32.47.41.76.09.28.13.58.13.89 0 .07-.01.14-.02.21 0 .07-.01.14-.03.22h-3.33c.02.21.07.4.17.58s.23.31.4.41.38.15.64.15c.15 0 .29-.02.43-.06s.26-.1.36-.18q.165-.12.21-.3h1.1c-.08.34-.22.62-.43.84s-.46.38-.75.48-.6.15-.92.15Zm-1.18-2.9h2.29c0-.2-.04-.38-.13-.54s-.22-.29-.38-.38-.36-.14-.6-.14q-.375 0-.63.15a1 1 0 0 0-.39.4q-.135.24-.15.51Z" fill="#ffffff" data-color="1"></path>
        <path d="M45.77 112.9v-6.49h1.03l.05.64c.19-.25.41-.43.67-.54s.54-.17.85-.17c.47 0 .86.11 1.16.32s.53.51.68.87c.15.37.23.78.23 1.24s-.08.88-.23 1.25-.39.66-.71.87-.71.32-1.18.32c-.22 0-.42-.02-.61-.07-.18-.05-.35-.12-.49-.21a1.6 1.6 0 0 1-.36-.31v2.27h-1.1Zm2.37-2.67c.31 0 .55-.07.72-.2s.3-.31.38-.53.12-.45.12-.7-.04-.5-.12-.72q-.12-.33-.39-.54t-.72-.21c-.28 0-.51.07-.7.2-.19.14-.33.31-.43.54-.1.22-.14.46-.14.72s.04.51.13.72.23.39.42.52.44.19.73.19Z" fill="#ffffff" data-color="1"></path>
        <path d="M53.45 111.22c-.49 0-.91-.1-1.26-.31s-.61-.49-.78-.85-.27-.78-.27-1.26.09-.9.28-1.27c.18-.37.45-.66.79-.87s.76-.32 1.25-.32c.36 0 .67.06.95.19.27.13.5.3.68.53.18.22.32.47.41.76.09.28.13.58.13.89 0 .07-.01.14-.02.21 0 .07-.01.14-.03.22h-3.33c.02.21.07.4.17.58s.23.31.4.41.38.15.64.15c.15 0 .29-.02.43-.06s.26-.1.36-.18q.165-.12.21-.3h1.1c-.08.34-.22.62-.43.84s-.46.38-.75.48-.6.15-.92.15Zm-1.19-2.9h2.29c0-.2-.04-.38-.13-.54s-.22-.29-.38-.38-.36-.14-.6-.14q-.375 0-.63.15a1 1 0 0 0-.39.4q-.135.24-.15.51Z" fill="#ffffff" data-color="1"></path>
        <path d="M59.89 112.9v-2.32c-.17.23-.38.4-.65.5s-.54.14-.81.14c-.36 0-.67-.06-.94-.18s-.49-.29-.66-.51-.3-.48-.39-.77-.13-.61-.13-.95c0-.47.08-.9.25-1.27s.41-.66.74-.88c.32-.21.72-.32 1.19-.32.27 0 .53.05.79.14q.39.135.63.45l.05-.52h1.03v6.49zm-1.25-2.67c.27 0 .5-.06.69-.19s.33-.3.43-.53c.1-.22.14-.46.14-.73s-.05-.52-.14-.74-.24-.39-.42-.52c-.19-.13-.42-.19-.7-.19s-.53.07-.71.2c-.18.14-.31.31-.4.53-.08.22-.13.46-.13.72s.04.51.13.73c.08.22.22.4.4.53.19.13.42.19.71.19" fill="#ffffff" data-color="1"></path>
        <path d="M64.15 111.22c-.68 0-1.21-.18-1.57-.53q-.54-.525-.54-1.62v-2.66h1.1v2.58c0 .25.03.47.1.66s.18.33.33.43.35.15.58.15c.25 0 .45-.05.6-.16.15-.1.25-.25.31-.44s.09-.4.09-.64v-2.58h1.1v2.66c0 .74-.18 1.29-.55 1.63-.37.35-.88.52-1.54.52Z" fill="#ffffff" data-color="1"></path>
        <path d="M69.41 111.22c-.49 0-.91-.1-1.26-.31s-.61-.49-.78-.85-.27-.78-.27-1.26.09-.9.28-1.27c.18-.37.45-.66.79-.87s.76-.32 1.25-.32c.36 0 .67.06.95.19.27.13.5.3.68.53.18.22.32.47.41.76.09.28.13.58.13.89 0 .07-.01.14-.02.21 0 .07-.01.14-.03.22h-3.33c.02.21.07.4.17.58s.23.31.4.41.38.15.64.15c.15 0 .29-.02.43-.06s.26-.1.36-.18q.165-.12.21-.3h1.1c-.08.34-.22.62-.43.84s-.46.38-.75.48-.6.15-.92.15Zm-1.19-2.9h2.29c0-.2-.04-.38-.13-.54s-.22-.29-.38-.38-.36-.14-.6-.14q-.375 0-.63.15a1 1 0 0 0-.39.4q-.135.24-.15.51Z" fill="#ffffff" data-color="1"></path>
        <path d="M72.45 111.16v-4.74h1.03l.06.6c.13-.17.27-.3.44-.4s.35-.17.53-.21c.19-.04.36-.07.52-.07.45 0 .81.1 1.07.3s.45.46.55.79c.11.33.16.7.16 1.11v2.62h-1.1v-2.44c0-.17-.01-.34-.04-.51-.02-.17-.07-.31-.14-.45-.07-.13-.17-.24-.29-.31s-.29-.12-.5-.12q-.39 0-.66.21c-.27.21-.32.32-.41.55s-.13.49-.13.79v2.28h-1.1Z" fill="#ffffff" data-color="1"></path>
        <path d="M80.02 111.22c-.49 0-.9-.1-1.26-.3-.35-.2-.62-.48-.81-.85s-.28-.79-.28-1.29.1-.93.29-1.29.46-.65.81-.85.76-.31 1.25-.31.89.1 1.24.31c.35.2.61.49.8.86s.28.8.28 1.3-.09.91-.28 1.27c-.18.36-.45.64-.8.84s-.77.3-1.25.3Zm-.01-1c.3 0 .54-.07.72-.2s.32-.31.4-.52c.08-.22.13-.45.13-.7s-.04-.49-.13-.71a1.2 1.2 0 0 0-.4-.54c-.18-.13-.42-.2-.72-.2s-.54.07-.73.2-.32.31-.41.53c-.08.22-.13.46-.13.72s.04.49.13.71.22.39.41.52c.18.13.42.19.72.19Z" fill="#ffffff" data-color="1"></path>
        <path d="m83.54 112.44-.31-.48c.09-.05.18-.12.28-.2.1-.09.18-.18.27-.29.08-.11.14-.2.17-.28a.83.83 0 0 1-.45-.19c-.12-.11-.18-.27-.18-.47s.07-.38.22-.5c.14-.12.31-.18.49-.18.23 0 .41.09.54.26s.2.39.2.67c0 .25-.06.48-.17.71-.12.23-.27.43-.45.59-.18.17-.38.29-.58.36Z" fill="#ffffff" data-color="1"></path>
        <path d="M90.15 111.22c-.49 0-.9-.1-1.26-.3-.35-.2-.62-.48-.81-.85s-.28-.79-.28-1.29.1-.93.29-1.29.46-.65.81-.85.76-.31 1.25-.31.89.1 1.24.31c.35.2.61.49.8.86s.28.8.28 1.3-.09.91-.28 1.27c-.18.36-.45.64-.8.84s-.77.3-1.25.3Zm-.01-1c.3 0 .54-.07.72-.2s.32-.31.4-.52c.08-.22.13-.45.13-.7s-.04-.49-.13-.71a1.2 1.2 0 0 0-.4-.54c-.18-.13-.42-.2-.72-.2s-.54.07-.73.2-.32.31-.41.53c-.08.22-.13.46-.13.72s.04.49.13.71.22.39.41.52c.18.13.42.19.72.19Z" fill="#ffffff" data-color="1"></path>
        <path d="M99.25 112.9v-2.32c-.17.23-.38.4-.65.5s-.54.14-.81.14c-.36 0-.67-.06-.94-.18s-.49-.29-.66-.51-.3-.48-.39-.77-.13-.61-.13-.95c0-.47.08-.9.25-1.27s.41-.66.74-.88c.32-.21.72-.32 1.19-.32.27 0 .53.05.79.14q.39.135.63.45l.05-.52h1.03v6.49zM98 110.23c.27 0 .5-.06.69-.19s.33-.3.43-.53c.1-.22.14-.46.14-.73s-.05-.52-.14-.74-.24-.39-.42-.52c-.19-.13-.42-.19-.7-.19s-.53.07-.71.2c-.18.14-.31.31-.4.53-.08.22-.13.46-.13.72s.04.51.13.73c.08.22.22.4.4.53.19.13.42.19.71.19" fill="#ffffff" data-color="1"></path>
        <path d="M103.51 111.22c-.68 0-1.21-.18-1.57-.53q-.54-.525-.54-1.62v-2.66h1.1v2.58c0 .25.03.47.1.66s.18.33.33.43.35.15.58.15c.25 0 .45-.05.6-.16.15-.1.25-.25.31-.44s.09-.4.09-.64v-2.58h1.1v2.66c0 .74-.18 1.29-.55 1.63-.37.35-.88.52-1.54.52Z" fill="#ffffff" data-color="1"></path>
        <path d="M108.78 111.22c-.49 0-.91-.1-1.26-.31s-.61-.49-.78-.85-.27-.78-.27-1.26.09-.9.28-1.27c.18-.37.45-.66.79-.87s.76-.32 1.25-.32c.36 0 .67.06.95.19.27.13.5.3.68.53.18.22.32.47.41.76.09.28.13.58.13.89 0 .07-.01.14-.02.21 0 .07-.01.14-.03.22h-3.33c.02.21.07.4.17.58s.23.31.4.41.38.15.64.15c.15 0 .29-.02.43-.06s.26-.1.36-.18q.165-.12.21-.3h1.1c-.08.34-.22.62-.43.84s-.46.38-.75.48-.6.15-.92.15Zm-1.19-2.9h2.29c0-.2-.04-.38-.13-.54s-.22-.29-.38-.38-.36-.14-.6-.14q-.375 0-.63.15a1 1 0 0 0-.39.4q-.135.24-.15.51Z" fill="#ffffff" data-color="1"></path>
        <path d="M116.39 111.16c-.38 0-.7-.05-.95-.15s-.43-.27-.56-.5c-.12-.23-.18-.53-.18-.92v-2.21h-.73v-.97h.73v-1.32h1.1v1.32h1.11v.97h-1.11v2.06c0 .24.04.42.13.55s.27.19.57.19h.38v.97h-.48Z" fill="#ffffff" data-color="1"></path>
        <path d="M119.8 111.22c-.49 0-.9-.1-1.26-.3-.35-.2-.62-.48-.81-.85s-.28-.79-.28-1.29.1-.93.29-1.29.46-.65.81-.85.76-.31 1.25-.31.89.1 1.24.31c.35.2.61.49.8.86s.28.8.28 1.3-.09.91-.28 1.27c-.18.36-.45.64-.8.84s-.77.3-1.25.3Zm-.01-1c.3 0 .54-.07.72-.2s.32-.31.4-.52c.08-.22.13-.45.13-.7s-.04-.49-.13-.71a1.2 1.2 0 0 0-.4-.54c-.18-.13-.42-.2-.72-.2s-.54.07-.73.2-.32.31-.41.53c-.08.22-.13.46-.13.72s.04.49.13.71.22.39.41.52c.18.13.42.19.72.19Z" fill="#ffffff" data-color="1"></path>
        <path d="M123.01 111.16v-4.74h1l.06.62c.12-.18.26-.32.41-.42s.32-.17.49-.21q.27-.06.54-.06h.32v1.04h-.29c-.31 0-.58.06-.79.18-.22.12-.38.29-.49.51s-.16.5-.16.82v2.25H123Z" fill="#ffffff" data-color="1"></path>
        <path d="M126.48 111.16v-4.74h1.03l.06.6c.13-.17.27-.3.44-.4s.35-.17.53-.21c.19-.04.36-.07.52-.07.45 0 .81.1 1.07.3s.45.46.55.79c.11.33.16.7.16 1.11v2.62h-1.1v-2.44c0-.17-.01-.34-.04-.51-.02-.17-.07-.31-.14-.45-.07-.13-.17-.24-.29-.31s-.29-.12-.5-.12q-.39 0-.66.21c-.27.21-.32.32-.41.55s-.13.49-.13.79v2.28h-1.1Z" fill="#ffffff" data-color="1"></path>
        <path d="M133.39 111.22q-.33 0-.63-.09c-.3-.09-.38-.15-.53-.27s-.28-.26-.37-.44-.14-.39-.14-.63q0-.465.18-.75c.12-.2.28-.34.49-.45.21-.1.44-.17.71-.21.26-.04.54-.06.83-.06h.93c0-.21-.03-.39-.1-.54a.83.83 0 0 0-.31-.36c-.14-.09-.32-.13-.54-.13-.14 0-.28.02-.4.05a.9.9 0 0 0-.32.15.5.5 0 0 0-.18.27h-1.12c.04-.25.13-.46.26-.63.13-.18.29-.32.48-.44.19-.11.4-.2.62-.26q.345-.09.69-.09c.69 0 1.19.2 1.51.59.32.4.47.95.47 1.67v2.56h-.97l-.03-.61c-.14.2-.3.35-.5.45-.19.1-.38.16-.56.18-.18.03-.33.04-.46.04Zm.22-.89c.24 0 .45-.04.64-.13s.33-.22.45-.38c.11-.16.17-.35.17-.56v-.15h-.86c-.14 0-.29 0-.43.01-.14 0-.27.03-.38.07s-.21.1-.27.18-.1.19-.1.33.04.26.11.35.17.16.3.21.25.07.39.07Z" fill="#ffffff" data-color="1"></path>
        <path d="M25.87 120.72q-.33 0-.63-.09c-.3-.09-.38-.15-.53-.27s-.28-.26-.37-.44-.14-.39-.14-.63q0-.465.18-.75c.12-.2.28-.34.49-.45.21-.1.44-.17.71-.21.26-.04.54-.06.83-.06h.93c0-.21-.03-.39-.1-.54a.83.83 0 0 0-.31-.36c-.14-.09-.32-.13-.54-.13-.14 0-.28.02-.4.05a.9.9 0 0 0-.32.15.5.5 0 0 0-.18.27h-1.12c.04-.25.13-.46.26-.63.13-.18.29-.32.48-.44.19-.11.4-.2.62-.26q.345-.09.69-.09c.69 0 1.19.2 1.51.59.32.4.47.95.47 1.67v2.56h-.97l-.03-.61c-.14.2-.3.35-.5.45-.19.1-.38.16-.56.18-.18.03-.33.04-.46.04Zm.21-.89c.24 0 .45-.04.64-.13s.33-.22.45-.38c.11-.16.17-.35.17-.56v-.15h-.86c-.14 0-.29 0-.43.01-.14 0-.27.03-.38.07s-.21.1-.27.18-.1.19-.1.33.04.26.11.35.17.16.3.21.25.07.39.07Z" fill="#ffffff" data-color="1"></path>
        <path d="M31.92 120.66v-4.74h1.01l.07.54c.12-.16.25-.29.39-.37.14-.09.29-.15.44-.18.15-.04.3-.05.44-.05.3 0 .56.06.77.18s.38.3.5.54c.12-.17.25-.3.4-.41.15-.1.31-.18.48-.23s.34-.08.53-.08c.37 0 .66.08.88.23s.38.36.49.63c.1.27.15.57.15.91v3.04h-1.1v-2.69c0-.12 0-.25-.02-.38s-.04-.25-.09-.37a.7.7 0 0 0-.22-.28c-.1-.07-.23-.11-.41-.11s-.32.04-.43.11-.2.17-.27.3c-.07.12-.12.26-.14.41-.03.15-.04.29-.04.44v2.57h-1.1v-2.7c0-.11 0-.24-.02-.36-.01-.13-.04-.25-.09-.37s-.12-.21-.22-.28a.7.7 0 0 0-.41-.11q-.375 0-.57.21c-.13.14-.22.31-.26.5s-.07.39-.07.57v2.55h-1.1Z" fill="#ffffff" data-color="1"></path>
        <path d="M41 120.72q-.33 0-.63-.09c-.3-.09-.38-.15-.53-.27s-.28-.26-.37-.44-.14-.39-.14-.63q0-.465.18-.75c.12-.2.28-.34.49-.45.21-.1.44-.17.71-.21.26-.04.54-.06.83-.06h.93c0-.21-.03-.39-.1-.54a.83.83 0 0 0-.31-.36c-.14-.09-.32-.13-.54-.13-.14 0-.28.02-.4.05a.9.9 0 0 0-.32.15.5.5 0 0 0-.18.27H39.5c.04-.25.13-.46.26-.63.13-.18.29-.32.48-.44.19-.11.4-.2.62-.26q.345-.09.69-.09c.69 0 1.19.2 1.51.59.32.4.47.95.47 1.67v2.56h-.97l-.03-.61c-.14.2-.3.35-.5.45-.19.1-.38.16-.56.18-.18.03-.33.04-.46.04Zm.22-.89c.24 0 .45-.04.64-.13s.33-.22.45-.38c.11-.16.17-.35.17-.56v-.15h-.86c-.14 0-.29 0-.43.01-.14 0-.27.03-.38.07s-.21.1-.27.18-.1.19-.1.33.04.26.11.35.17.16.3.21.25.07.39.07Z" fill="#ffffff" data-color="1"></path>
        <path d="M46.38 120.72c-.23 0-.45-.02-.68-.07q-.345-.075-.63-.24c-.2-.11-.36-.26-.5-.45s-.22-.43-.26-.72h1.11c.05.13.12.24.23.32s.23.14.37.18.28.06.42.06c.08 0 .17 0 .27-.02.1-.01.19-.04.28-.07s.16-.09.21-.16.08-.16.08-.28c0-.11-.03-.19-.09-.26a.7.7 0 0 0-.24-.15c-.1-.04-.22-.07-.37-.09-.26-.05-.53-.11-.83-.17a2.2 2.2 0 0 1-.76-.3.9.9 0 0 1-.23-.19c-.07-.07-.12-.15-.17-.24s-.08-.18-.1-.28q-.03-.15-.03-.33c0-.25.05-.47.16-.64.11-.18.25-.32.42-.43.18-.11.38-.19.61-.25.23-.05.46-.08.7-.08.32 0 .62.05.88.15s.48.26.66.47.28.48.32.8h-1.04q-.045-.225-.27-.36c-.225-.135-.35-.14-.58-.14-.08 0-.17 0-.26.02s-.17.04-.26.07a.43.43 0 0 0-.28.39c0 .09.02.17.07.23.04.07.11.12.21.17.09.04.2.08.33.11.2.04.42.08.64.13.22.04.41.08.58.13.19.05.37.13.52.23q.24.15.36.39c.12.24.13.36.13.61q0 .435-.18.72c-.12.19-.27.34-.46.45s-.4.19-.64.23c-.23.05-.46.07-.69.07Z" fill="#ffffff" data-color="1"></path>
        <path d="M51.14 120.66c-.38 0-.7-.05-.95-.15s-.43-.27-.56-.5c-.12-.23-.18-.53-.18-.92v-2.21h-.73v-.97h.73v-1.32h1.1v1.32h1.11v.97h-1.11v2.06c0 .24.04.42.13.55s.27.19.57.19h.38v.97h-.48Z" fill="#ffffff" data-color="1"></path>
        <path d="M52.93 115.37c-.21 0-.38-.06-.5-.19s-.19-.29-.19-.5.07-.36.2-.49.3-.19.5-.19.36.06.5.19.21.29.21.5-.07.37-.2.5-.3.19-.5.19Zm-.55 5.29v-4.74h1.1v4.74z" fill="#ffffff" data-color="1"></path>
        <path d="M56.75 122.83c-.35 0-.67-.06-.98-.17-.3-.11-.56-.29-.77-.52-.21-.24-.35-.54-.42-.91h1.12c.04.14.11.26.22.35s.24.15.38.19q.225.06.45.06c.29 0 .53-.06.7-.18s.29-.28.37-.49c.07-.21.11-.43.11-.68v-.45c-.11.17-.24.31-.41.41s-.34.17-.52.21q-.27.06-.54.06c-.49 0-.89-.11-1.2-.32-.31-.22-.54-.5-.68-.87-.14-.36-.22-.76-.22-1.2s.08-.87.24-1.25.4-.67.72-.9c.32-.22.72-.33 1.21-.33.28 0 .55.05.8.15q.375.15.63.45l.07-.52h1.02v4.33c0 .53-.08.99-.23 1.38s-.4.68-.73.89c-.34.21-.78.31-1.33.31Zm-.07-3.09c.28 0 .52-.07.7-.2q.285-.195.42-.54c.1-.22.14-.47.14-.73s-.05-.51-.14-.73a1.1 1.1 0 0 0-.41-.51c-.18-.13-.42-.19-.71-.19-.31 0-.55.07-.73.21s-.31.32-.39.54c-.08.23-.12.46-.12.72s.04.51.13.72c.08.22.22.39.4.52s.42.19.71.19" fill="#ffffff" data-color="1"></path>
        <path d="M61.61 120.72q-.33 0-.63-.09c-.3-.09-.38-.15-.53-.27s-.28-.26-.37-.44-.14-.39-.14-.63q0-.465.18-.75c.12-.2.28-.34.49-.45.21-.1.44-.17.71-.21.26-.04.54-.06.83-.06h.93c0-.21-.03-.39-.1-.54a.83.83 0 0 0-.31-.36c-.14-.09-.32-.13-.54-.13-.14 0-.28.02-.4.05a.9.9 0 0 0-.32.15.5.5 0 0 0-.18.27h-1.12c.04-.25.13-.46.26-.63.13-.18.29-.32.48-.44.19-.11.4-.2.62-.26q.345-.09.69-.09c.69 0 1.19.2 1.51.59.32.4.47.95.47 1.67v2.56h-.97l-.03-.61c-.14.2-.3.35-.5.45-.19.1-.38.16-.56.18-.18.03-.33.04-.46.04Zm.22-.89c.24 0 .45-.04.64-.13s.33-.22.45-.38c.11-.16.17-.35.17-.56v-.15h-.86c-.14 0-.29 0-.43.01-.14 0-.27.03-.38.07s-.21.1-.27.18-.1.19-.1.33.04.26.11.35.17.16.3.21.25.07.39.07Z" fill="#ffffff" data-color="1"></path>
        <path d="M67.26 120.72c-.49 0-.91-.1-1.24-.3a1.9 1.9 0 0 1-.76-.85 3 3 0 0 1-.26-1.27c0-.48.09-.9.27-1.27s.44-.66.79-.87.77-.32 1.27-.32c.37 0 .69.06.98.19s.52.31.69.55c.18.24.29.54.34.9h-1.08a.86.86 0 0 0-.36-.5c-.17-.1-.36-.16-.59-.16-.31 0-.55.07-.72.22-.18.15-.3.33-.38.55q-.12.33-.12.69c0 .36.04.49.13.71.08.22.21.39.39.53.18.13.41.2.69.2.23 0 .43-.05.62-.15.18-.1.3-.27.36-.5h1.12c-.04.37-.16.67-.37.91-.2.24-.45.42-.76.54q-.465.18-.99.18Zm-.17 2.29h-.33c-.1 0-.2-.01-.29-.02v-.66c.13.01.26.02.38.01s.23-.02.32-.04.17-.07.23-.13.08-.14.08-.23a.24.24 0 0 0-.08-.19.6.6 0 0 0-.2-.09c-.08-.01-.14-.02-.2-.02-.08 0-.17 0-.26.02q-.15.03-.24.06l.33-1.29h.74l-.15.66h.21c.22.01.39.09.52.22s.19.33.19.59c0 .25-.06.45-.17.61q-.165.24-.45.36c-.19.08-.39.13-.61.15Z" fill="#ffffff" data-color="1"></path>
        <path d="M71.71 120.72q-.33 0-.63-.09c-.3-.09-.38-.15-.53-.27s-.28-.26-.37-.44-.14-.39-.14-.63q0-.465.18-.75c.12-.2.28-.34.49-.45.21-.1.44-.17.71-.21.26-.04.54-.06.83-.06h.93c0-.21-.03-.39-.1-.54a.83.83 0 0 0-.31-.36c-.14-.09-.32-.13-.54-.13-.14 0-.28.02-.4.05a.9.9 0 0 0-.32.15.5.5 0 0 0-.18.27h-1.12c.04-.25.13-.46.26-.63.13-.18.29-.32.48-.44.19-.11.4-.2.62-.26q.345-.09.69-.09c.69 0 1.19.2 1.51.59.32.4.47.95.47 1.67v2.56h-.97l-.03-.61c-.14.2-.3.35-.5.45-.19.1-.38.16-.56.18-.18.03-.33.04-.46.04Zm1.24-5.38c-.17 0-.32-.03-.44-.09-.13-.06-.24-.14-.34-.22s-.19-.16-.27-.22a.4.4 0 0 0-.24-.09c-.08 0-.15.04-.18.11-.04.07-.06.15-.07.25s0 .17 0 .23h-.79c-.01-.23.01-.45.07-.66s.16-.38.32-.52c.15-.13.37-.2.64-.2.16 0 .29.03.4.09s.22.13.31.22.18.15.26.22c.08.06.16.09.23.09.1 0 .16-.03.2-.1s.06-.15.06-.23v-.23h.79c0 .22-.02.44-.07.65s-.15.38-.28.52c-.14.13-.34.2-.6.2Zm-1.02 4.49c.24 0 .45-.04.64-.13s.33-.22.45-.38c.11-.16.17-.35.17-.56v-.15h-.86c-.14 0-.29 0-.43.01-.14 0-.27.03-.38.07s-.21.1-.27.18-.1.19-.1.33.04.26.11.35.17.16.3.21.25.07.39.07Z" fill="#ffffff" data-color="1"></path>
        <path d="M77.44 120.72c-.49 0-.9-.1-1.26-.3-.35-.2-.62-.48-.81-.85s-.28-.79-.28-1.29.1-.93.29-1.29.46-.65.81-.85.76-.31 1.25-.31.89.1 1.24.31c.35.2.61.49.8.86s.28.8.28 1.3-.09.91-.28 1.27c-.18.36-.45.64-.8.84s-.77.3-1.25.3Zm-.01-1c.3 0 .54-.07.72-.2s.32-.31.4-.52c.08-.22.13-.45.13-.7s-.04-.49-.13-.71a1.2 1.2 0 0 0-.4-.54c-.18-.13-.42-.2-.72-.2s-.54.07-.73.2-.32.31-.41.53c-.08.22-.13.46-.13.72s.04.49.13.71.22.39.41.52c.18.13.42.19.72.19Z" fill="#ffffff" data-color="1"></path>
        <path d="M83.14 120.66v-4.74h1.01l.07.54c.12-.16.25-.29.39-.37.14-.09.29-.15.44-.18.15-.04.3-.05.44-.05.3 0 .56.06.77.18s.38.3.5.54c.12-.17.25-.3.4-.41.15-.1.31-.18.48-.23s.34-.08.53-.08c.37 0 .66.08.88.23s.38.36.49.63c.1.27.15.57.15.91v3.04h-1.1v-2.69c0-.12 0-.25-.02-.38s-.04-.25-.09-.37a.7.7 0 0 0-.22-.28c-.1-.07-.23-.11-.41-.11s-.32.04-.43.11-.2.17-.27.3c-.07.12-.12.26-.14.41-.03.15-.04.29-.04.44v2.57h-1.1v-2.7c0-.11 0-.24-.02-.36-.01-.13-.04-.25-.09-.37s-.12-.21-.22-.28a.7.7 0 0 0-.41-.11q-.375 0-.57.21c-.13.14-.22.31-.26.5s-.07.39-.07.57v2.55h-1.1Z" fill="#ffffff" data-color="1"></path>
        <path d="M92.22 120.72q-.33 0-.63-.09c-.3-.09-.38-.15-.53-.27s-.28-.26-.37-.44-.14-.39-.14-.63q0-.465.18-.75c.12-.2.28-.34.49-.45.21-.1.44-.17.71-.21.26-.04.54-.06.83-.06h.93c0-.21-.03-.39-.1-.54a.83.83 0 0 0-.31-.36c-.14-.09-.32-.13-.54-.13-.14 0-.28.02-.4.05a.9.9 0 0 0-.32.15.5.5 0 0 0-.18.27h-1.12c.04-.25.13-.46.26-.63.13-.18.29-.32.48-.44.19-.11.4-.2.62-.26q.345-.09.69-.09c.69 0 1.19.2 1.51.59.32.4.47.95.47 1.67v2.56h-.97l-.03-.61c-.14.2-.3.35-.5.45-.19.1-.38.16-.56.18-.18.03-.33.04-.46.04Zm.22-.89c.24 0 .45-.04.64-.13s.33-.22.45-.38c.11-.16.17-.35.17-.56v-.15h-.86c-.14 0-.29 0-.43.01-.14 0-.27.03-.38.07s-.21.1-.27.18-.1.19-.1.33.04.26.11.35.17.16.3.21.25.07.39.07Z" fill="#ffffff" data-color="1"></path>
        <path d="M96.33 115.37c-.21 0-.38-.06-.5-.19s-.19-.29-.19-.5.07-.36.2-.49.3-.19.5-.19.36.06.5.19.21.29.21.5-.07.37-.2.5-.3.19-.5.19Zm-.55 5.29v-4.74h1.1v4.74z" fill="#ffffff" data-color="1"></path>
        <path d="M99.76 120.72c-.23 0-.45-.02-.68-.07q-.345-.075-.63-.24c-.2-.11-.36-.26-.5-.45s-.22-.43-.26-.72h1.11c.05.13.12.24.23.32s.23.14.37.18.28.06.42.06c.08 0 .17 0 .27-.02.1-.01.19-.04.28-.07s.16-.09.21-.16.08-.16.08-.28c0-.11-.03-.19-.09-.26a.7.7 0 0 0-.24-.15c-.1-.04-.22-.07-.37-.09-.26-.05-.53-.11-.83-.17a2.2 2.2 0 0 1-.76-.3.9.9 0 0 1-.23-.19c-.07-.07-.12-.15-.17-.24s-.08-.18-.1-.28q-.03-.15-.03-.33c0-.25.05-.47.16-.64.11-.18.25-.32.42-.43.18-.11.38-.19.61-.25.23-.05.46-.08.7-.08.32 0 .62.05.88.15s.48.26.66.47.28.48.32.8h-1.04q-.045-.225-.27-.36c-.225-.135-.35-.14-.58-.14-.08 0-.17 0-.26.02s-.17.04-.26.07a.43.43 0 0 0-.28.39c0 .09.02.17.07.23.04.07.11.12.21.17.09.04.2.08.33.11.2.04.42.08.64.13.22.04.41.08.58.13.19.05.37.13.52.23q.24.15.36.39c.12.24.13.36.13.61q0 .435-.18.72c-.12.19-.27.34-.46.45s-.4.19-.64.23c-.23.05-.46.07-.69.07Z" fill="#ffffff" data-color="1"></path>
        <path d="M107.16 120.72c-.49 0-.91-.1-1.26-.31s-.61-.49-.78-.85-.27-.78-.27-1.26.09-.9.28-1.27c.18-.37.45-.66.79-.87s.76-.32 1.25-.32c.36 0 .67.06.95.19.27.13.5.3.68.53.18.22.32.47.41.76.09.28.13.58.13.89 0 .07-.01.14-.02.21 0 .07-.01.14-.03.22h-3.33c.02.21.07.4.17.58s.23.31.4.41.38.15.64.15c.15 0 .29-.02.43-.06s.26-.1.36-.18q.165-.12.21-.3h1.1c-.08.34-.22.62-.43.84s-.46.38-.75.48-.6.15-.92.15Zm-1.19-2.9h2.29c0-.2-.04-.38-.13-.54s-.22-.29-.38-.38-.36-.14-.6-.14q-.375 0-.63.15a1 1 0 0 0-.39.4q-.135.24-.15.51Z" fill="#ffffff" data-color="1"></path>
        <path d="M110.54 120.66v-3.77h-.74v-.97h.74v-.45c0-.36.05-.66.16-.89s.28-.4.52-.51.54-.16.91-.16h.7v.97h-.58c-.16 0-.29.03-.38.08s-.15.13-.19.24-.06.23-.06.38v.33h1.21v.97h-1.21v3.77h-1.09Z" fill="#ffffff" data-color="1"></path>
        <path d="M114.07 115.37c-.21 0-.38-.06-.5-.19s-.19-.29-.19-.5.07-.36.2-.49.3-.19.5-.19.36.06.5.19.21.29.21.5-.07.37-.2.5-.3.19-.5.19Zm-.55 5.29v-4.74h1.1v4.74z" fill="#ffffff" data-color="1"></path>
        <path d="M117.77 120.72c-.49 0-.91-.1-1.24-.3a1.9 1.9 0 0 1-.76-.85 3 3 0 0 1-.26-1.27c0-.48.09-.9.27-1.27s.44-.66.79-.87.77-.32 1.27-.32c.37 0 .69.06.98.19s.52.31.69.55c.18.24.29.54.34.9h-1.08a.86.86 0 0 0-.36-.5c-.17-.1-.36-.16-.59-.16-.31 0-.55.07-.72.22-.18.15-.3.33-.38.55q-.12.33-.12.69c0 .36.04.49.13.71.08.22.21.39.39.53.18.13.41.2.69.2.23 0 .43-.05.62-.15.18-.1.3-.27.36-.5h1.12c-.04.37-.16.67-.37.91-.2.24-.45.42-.76.54q-.465.18-.99.18Z" fill="#ffffff" data-color="1"></path>
        <path d="M122.22 120.72q-.33 0-.63-.09c-.3-.09-.38-.15-.53-.27s-.28-.26-.37-.44-.14-.39-.14-.63q0-.465.18-.75c.12-.2.28-.34.49-.45.21-.1.44-.17.71-.21.26-.04.54-.06.83-.06h.93c0-.21-.03-.39-.1-.54a.83.83 0 0 0-.31-.36c-.14-.09-.32-.13-.54-.13-.14 0-.28.02-.4.05a.9.9 0 0 0-.32.15.5.5 0 0 0-.18.27h-1.12c.04-.25.13-.46.26-.63.13-.18.29-.32.48-.44.19-.11.4-.2.62-.26q.345-.09.69-.09c.69 0 1.19.2 1.51.59.32.4.47.95.47 1.67v2.56h-.97l-.03-.61c-.14.2-.3.35-.5.45-.19.1-.38.16-.56.18-.18.03-.33.04-.46.04Zm.22-.89c.24 0 .45-.04.64-.13s.33-.22.45-.38c.11-.16.17-.35.17-.56v-.15h-.86c-.14 0-.29 0-.43.01-.14 0-.27.03-.38.07s-.21.1-.27.18-.1.19-.1.33.04.26.11.35.17.16.3.21.25.07.39.07Z" fill="#ffffff" data-color="1"></path>
        <path d="M125.6 120.66v-.85l2.5-2.92h-2.5v-.97h3.92v.84l-2.52 2.93h2.52v.97z" fill="#ffffff" data-color="1"></path>
        <path d="m130.71 121.94-.31-.48c.09-.05.18-.12.28-.2.1-.09.18-.18.27-.29.08-.11.14-.2.17-.28a.83.83 0 0 1-.45-.19c-.12-.11-.18-.27-.18-.47s.07-.38.22-.5c.14-.12.31-.18.49-.18.23 0 .41.09.54.26s.2.39.2.67c0 .25-.06.48-.17.71-.12.23-.27.43-.45.59-.18.17-.38.29-.58.36Z" fill="#ffffff" data-color="1"></path>
        <path d="M32.13 130.16v-3.77h-.74v-.97h.74v-.45c0-.36.05-.66.16-.89s.28-.4.52-.51.54-.16.91-.16h.7v.97h-.58c-.16 0-.29.03-.38.08s-.15.13-.19.24-.06.23-.06.38v.33h1.21v.97h-1.21v3.77h-1.09Z" fill="#ffffff" data-color="1"></path>
        <path d="M36.62 130.22q-.33 0-.63-.09c-.3-.09-.38-.15-.53-.27s-.28-.26-.37-.44-.14-.39-.14-.63q0-.465.18-.75c.12-.2.28-.34.49-.45.21-.1.44-.17.71-.21.26-.04.54-.06.83-.06h.93c0-.21-.03-.39-.1-.54a.83.83 0 0 0-.31-.36c-.14-.09-.32-.13-.54-.13-.14 0-.28.02-.4.05a.9.9 0 0 0-.32.15.5.5 0 0 0-.18.27h-1.12c.04-.25.13-.46.26-.63.13-.18.29-.32.48-.44.19-.11.4-.2.62-.26q.345-.09.69-.09c.69 0 1.19.2 1.51.59.32.4.47.95.47 1.67v2.56h-.97l-.03-.61c-.14.2-.3.35-.5.45-.19.1-.38.16-.56.18-.18.03-.33.04-.46.04Zm.22-.89c.24 0 .45-.04.64-.13s.33-.22.45-.38c.11-.16.17-.35.17-.56v-.15h-.86c-.14 0-.29 0-.43.01-.14 0-.27.03-.38.07s-.21.1-.27.18-.1.19-.1.33.04.26.11.35.17.16.3.21.25.07.39.07Z" fill="#ffffff" data-color="1"></path>
        <path d="M42.26 130.22c-.49 0-.91-.1-1.24-.3a1.9 1.9 0 0 1-.76-.85 3 3 0 0 1-.26-1.27c0-.48.09-.9.27-1.27s.44-.66.79-.87.77-.32 1.27-.32c.37 0 .69.06.98.19s.52.31.69.55c.18.24.29.54.34.9h-1.08a.86.86 0 0 0-.36-.5c-.17-.1-.36-.16-.59-.16-.31 0-.55.07-.72.22-.18.15-.3.33-.38.55q-.12.33-.12.69c0 .36.04.49.13.71.08.22.21.39.39.53.18.13.41.2.69.2.23 0 .43-.05.62-.15.18-.1.3-.27.36-.5h1.12c-.04.37-.16.67-.37.91-.2.24-.45.42-.76.54q-.465.18-.99.18Z" fill="#ffffff" data-color="1"></path>
        <path d="M45.76 124.87c-.21 0-.38-.06-.5-.19s-.19-.29-.19-.5.07-.36.2-.49.3-.19.5-.19.36.06.5.19.21.29.21.5-.07.37-.2.5-.3.19-.5.19Zm-.55 5.29v-4.74h1.1v4.74z" fill="#ffffff" data-color="1"></path>
        <path d="M47.37 130.16v-6.36h1.1v6.36z" fill="#ffffff" data-color="1"></path>
        <path d="M50.08 124.87c-.21 0-.38-.06-.5-.19s-.19-.29-.19-.5.07-.36.2-.49.3-.19.5-.19.36.06.5.19.21.29.21.5-.07.37-.2.5-.3.19-.5.19Zm-.55 5.29v-4.74h1.1v4.74z" fill="#ffffff" data-color="1"></path>
        <path d="M53.76 130.16c-.38 0-.7-.05-.95-.15s-.43-.27-.56-.5c-.12-.23-.18-.53-.18-.92v-2.21h-.73v-.97h.73v-1.32h1.1v1.32h1.11v.97h-1.11v2.06c0 .24.04.42.13.55s.27.19.57.19h.38v.97h-.48Z" fill="#ffffff" data-color="1"></path>
        <path d="M56.51 130.22q-.33 0-.63-.09c-.3-.09-.38-.15-.53-.27s-.28-.26-.37-.44-.14-.39-.14-.63q0-.465.18-.75c.12-.2.28-.34.49-.45.21-.1.44-.17.71-.21.26-.04.54-.06.83-.06h.93c0-.21-.03-.39-.1-.54a.83.83 0 0 0-.31-.36c-.14-.09-.32-.13-.54-.13-.14 0-.28.02-.4.05a.9.9 0 0 0-.32.15.5.5 0 0 0-.18.27h-1.12c.04-.25.13-.46.26-.63.13-.18.29-.32.48-.44.19-.11.4-.2.62-.26q.345-.09.69-.09c.69 0 1.19.2 1.51.59.32.4.47.95.47 1.67v2.56h-.97l-.03-.61c-.14.2-.3.35-.5.45-.19.1-.38.16-.56.18-.18.03-.33.04-.46.04Zm.22-.89c.24 0 .45-.04.64-.13s.33-.22.45-.38c.11-.16.17-.35.17-.56v-.15h-.86c-.14 0-.29 0-.43.01-.14 0-.27.03-.38.07s-.21.1-.27.18-.1.19-.1.33.04.26.11.35.17.16.3.21.25.07.39.07Z" fill="#ffffff" data-color="1"></path>
        <path d="M60.07 130.16v-4.74h1.03l.06.6c.13-.17.27-.3.44-.4s.35-.17.53-.21c.19-.04.36-.07.52-.07.45 0 .81.1 1.07.3s.45.46.55.79c.11.33.16.7.16 1.11v2.62h-1.1v-2.44c0-.17-.01-.34-.04-.51-.02-.17-.07-.31-.14-.45-.07-.13-.17-.24-.29-.31s-.29-.12-.5-.12q-.39 0-.66.21c-.27.21-.32.32-.41.55s-.13.49-.13.79v2.28h-1.1Z" fill="#ffffff" data-color="1"></path>
        <path d="M67.4 130.22c-.48 0-.88-.11-1.19-.33s-.54-.51-.7-.88c-.15-.37-.23-.77-.23-1.22s.08-.89.24-1.26.41-.66.73-.87.73-.32 1.21-.32a2.2 2.2 0 0 1 1.02.24c.15.08.28.19.38.32v-2.11h1.1v6.36H68.9l-.02-.59c-.11.15-.25.27-.4.37s-.32.17-.51.22-.38.07-.58.07Zm.21-.99c.29 0 .53-.07.71-.2q.285-.195.42-.54a1.9 1.9 0 0 0 0-1.43c-.09-.22-.23-.39-.42-.52s-.42-.2-.71-.2q-.465 0-.72.21c-.255.21-.31.32-.39.54a2.2 2.2 0 0 0-.05 1.26q.075.255.21.45c.1.13.22.24.38.31.16.08.35.11.58.11Z" fill="#ffffff" data-color="1"></path>
        <path d="M73.2 130.22c-.49 0-.9-.1-1.26-.3-.35-.2-.62-.48-.81-.85s-.28-.79-.28-1.29.1-.93.29-1.29.46-.65.81-.85.76-.31 1.25-.31.89.1 1.24.31c.35.2.61.49.8.86s.28.8.28 1.3-.09.91-.28 1.27c-.18.36-.45.64-.8.84s-.77.3-1.25.3Zm-.01-1c.3 0 .54-.07.72-.2s.32-.31.4-.52c.08-.22.13-.45.13-.7s-.04-.49-.13-.71a1.2 1.2 0 0 0-.4-.54c-.18-.13-.42-.2-.72-.2s-.54.07-.73.2-.32.31-.41.53c-.08.22-.13.46-.13.72s.04.49.13.71.22.39.41.52c.18.13.42.19.72.19Z" fill="#ffffff" data-color="1"></path>
        <path d="M80.42 130.22q-.33 0-.63-.09c-.3-.09-.38-.15-.53-.27s-.28-.26-.37-.44-.14-.39-.14-.63q0-.465.18-.75c.12-.2.28-.34.49-.45.21-.1.44-.17.71-.21.26-.04.54-.06.83-.06h.93c0-.21-.03-.39-.1-.54a.83.83 0 0 0-.31-.36c-.14-.09-.32-.13-.54-.13-.14 0-.28.02-.4.05a.9.9 0 0 0-.32.15.5.5 0 0 0-.18.27h-1.12c.04-.25.13-.46.26-.63.13-.18.29-.32.48-.44.19-.11.4-.2.62-.26q.345-.09.69-.09c.69 0 1.19.2 1.51.59.32.4.47.95.47 1.67v2.56h-.97l-.03-.61c-.14.2-.3.35-.5.45-.19.1-.38.16-.56.18-.18.03-.33.04-.46.04Zm.21-.89c.24 0 .45-.04.64-.13s.33-.22.45-.38c.11-.16.17-.35.17-.56v-.15h-.86c-.14 0-.29 0-.43.01-.14 0-.27.03-.38.07s-.21.1-.27.18-.1.19-.1.33.04.26.11.35.17.16.3.21.25.07.39.07Z" fill="#ffffff" data-color="1"></path>
        <path d="M88.41 130.22c-.48 0-.88-.11-1.19-.33s-.54-.51-.7-.88c-.15-.37-.23-.77-.23-1.22s.08-.89.24-1.26.41-.66.73-.87.73-.32 1.21-.32a2.2 2.2 0 0 1 1.02.24c.15.08.28.19.38.32v-2.11h1.1v6.36h-1.06l-.02-.59c-.11.15-.25.27-.4.37s-.32.17-.51.22-.38.07-.58.07Zm.21-.99c.29 0 .53-.07.71-.2q.285-.195.42-.54a1.9 1.9 0 0 0 0-1.43c-.09-.22-.23-.39-.42-.52s-.42-.2-.71-.2q-.465 0-.72.21c-.255.21-.31.32-.39.54a2.2 2.2 0 0 0-.05 1.26q.075.255.21.45c.1.13.22.24.38.31.16.08.35.11.58.11Z" fill="#ffffff" data-color="1"></path>
        <path d="M92.58 124.87c-.21 0-.38-.06-.5-.19s-.19-.29-.19-.5.07-.36.2-.49.3-.19.5-.19.36.06.5.19.21.29.21.5-.07.37-.2.5-.3.19-.5.19Zm-.54 5.29v-4.74h1.1v4.74z" fill="#ffffff" data-color="1"></path>
        <path d="M96.4 132.33c-.35 0-.67-.06-.98-.17-.3-.11-.56-.29-.77-.52-.21-.24-.35-.54-.42-.91h1.12c.04.14.11.26.22.35s.24.15.38.19q.225.06.45.06c.29 0 .53-.06.7-.18s.29-.28.37-.49c.07-.21.11-.43.11-.68v-.45c-.11.17-.24.31-.41.41s-.34.17-.52.21q-.27.06-.54.06c-.49 0-.89-.11-1.2-.32-.31-.22-.54-.5-.68-.87-.14-.36-.22-.76-.22-1.2s.08-.87.24-1.25.4-.67.72-.9c.32-.22.72-.33 1.21-.33.28 0 .55.05.8.15q.375.15.63.45l.07-.52h1.02v4.33c0 .53-.08.99-.23 1.38s-.4.68-.73.89c-.34.21-.78.31-1.33.31Zm-.06-3.09c.28 0 .52-.07.7-.2q.285-.195.42-.54c.1-.22.14-.47.14-.73s-.05-.51-.14-.73a1.1 1.1 0 0 0-.41-.51c-.18-.13-.42-.19-.71-.19-.31 0-.55.07-.73.21s-.31.32-.39.54c-.08.23-.12.46-.12.72s.04.51.13.72c.08.22.22.39.4.52s.42.19.71.19" fill="#ffffff" data-color="1"></path>
        <path d="M101.88 130.22c-.49 0-.91-.1-1.26-.31s-.61-.49-.78-.85-.27-.78-.27-1.26.09-.9.28-1.27c.18-.37.45-.66.79-.87s.76-.32 1.25-.32c.36 0 .67.06.95.19.27.13.5.3.68.53.18.22.32.47.41.76.09.28.13.58.13.89 0 .07-.01.14-.02.21 0 .07-.01.14-.03.22h-3.33c.02.21.07.4.17.58s.23.31.4.41.38.15.64.15c.15 0 .29-.02.43-.06s.26-.1.36-.18q.165-.12.21-.3h1.1c-.08.34-.22.62-.43.84s-.46.38-.75.48-.6.15-.92.15Zm-1.19-2.9h2.29c0-.2-.04-.38-.13-.54s-.22-.29-.38-.38-.36-.14-.6-.14q-.375 0-.63.15a1 1 0 0 0-.39.4q-.135.24-.15.51Z" fill="#ffffff" data-color="1"></path>
        <path d="M106.74 130.22c-.23 0-.45-.02-.68-.07q-.345-.075-.63-.24c-.2-.11-.36-.26-.5-.45s-.22-.43-.26-.72h1.11c.05.13.12.24.23.32s.23.14.37.18.28.06.42.06c.08 0 .17 0 .27-.02.1-.01.19-.04.28-.07s.16-.09.21-.16.08-.16.08-.28c0-.11-.03-.19-.09-.26a.7.7 0 0 0-.24-.15c-.1-.04-.22-.07-.37-.09-.26-.05-.53-.11-.83-.17a2.2 2.2 0 0 1-.76-.3.9.9 0 0 1-.23-.19c-.07-.07-.12-.15-.17-.24s-.08-.18-.1-.28q-.03-.15-.03-.33c0-.25.05-.47.16-.64.11-.18.25-.32.42-.43.18-.11.38-.19.61-.25.23-.05.46-.08.7-.08.32 0 .62.05.88.15s.48.26.66.47.28.48.32.8h-1.04q-.045-.225-.27-.36c-.225-.135-.35-.14-.58-.14-.08 0-.17 0-.26.02s-.17.04-.26.07a.43.43 0 0 0-.28.39c0 .09.02.17.07.23.04.07.11.12.21.17.09.04.2.08.33.11.2.04.42.08.64.13.22.04.41.08.58.13.19.05.37.13.52.23q.24.15.36.39c.12.24.13.36.13.61q0 .435-.18.72c-.12.19-.27.34-.46.45s-.4.19-.64.23c-.23.05-.46.07-.69.07Z" fill="#ffffff" data-color="1"></path>
        <path d="M111.5 130.16c-.38 0-.7-.05-.95-.15s-.43-.27-.56-.5c-.12-.23-.18-.53-.18-.92v-2.21h-.73v-.97h.73v-1.32h1.1v1.32h1.11v.97h-1.11v2.06c0 .24.04.42.13.55s.27.19.57.19h.38v.97h-.48Z" fill="#ffffff" data-color="1"></path>
        <path d="M114.25 130.22q-.33 0-.63-.09c-.3-.09-.38-.15-.53-.27s-.28-.26-.37-.44-.14-.39-.14-.63q0-.465.18-.75c.12-.2.28-.34.49-.45.21-.1.44-.17.71-.21.26-.04.54-.06.83-.06h.93c0-.21-.03-.39-.1-.54a.83.83 0 0 0-.31-.36c-.14-.09-.32-.13-.54-.13-.14 0-.28.02-.4.05a.9.9 0 0 0-.32.15.5.5 0 0 0-.18.27h-1.12c.04-.25.13-.46.26-.63.13-.18.29-.32.48-.44.19-.11.4-.2.62-.26q.345-.09.69-.09c.69 0 1.19.2 1.51.59.32.4.47.95.47 1.67v2.56h-.97l-.03-.61c-.14.2-.3.35-.5.45-.19.1-.38.16-.56.18-.18.03-.33.04-.46.04Zm1.25-5.38c-.17 0-.32-.03-.44-.09-.13-.06-.24-.14-.34-.22s-.19-.16-.27-.22a.4.4 0 0 0-.24-.09c-.08 0-.15.04-.18.11-.04.07-.06.15-.07.25s0 .17 0 .23h-.79c-.01-.23.01-.45.07-.66s.16-.38.32-.52c.15-.13.37-.2.64-.2.16 0 .29.03.4.09s.22.13.31.22.18.15.26.22c.08.06.16.09.23.09.1 0 .16-.03.2-.1s.06-.15.06-.23v-.23h.79c0 .22-.02.44-.07.65s-.15.38-.28.52c-.14.13-.34.2-.6.2Zm-1.03 4.49c.24 0 .45-.04.64-.13s.33-.22.45-.38c.11-.16.17-.35.17-.56v-.15h-.86c-.14 0-.29 0-.43.01-.14 0-.27.03-.38.07s-.21.1-.27.18-.1.19-.1.33.04.26.11.35.17.16.3.21.25.07.39.07Z" fill="#ffffff" data-color="1"></path>
        <path d="M119.98 130.22c-.49 0-.9-.1-1.26-.3-.35-.2-.62-.48-.81-.85s-.28-.79-.28-1.29.1-.93.29-1.29.46-.65.81-.85.76-.31 1.25-.31.89.1 1.24.31c.35.2.61.49.8.86s.28.8.28 1.3-.09.91-.28 1.27c-.18.36-.45.64-.8.84s-.77.3-1.25.3Zm-.01-1c.3 0 .54-.07.72-.2s.32-.31.4-.52c.08-.22.13-.45.13-.7s-.04-.49-.13-.71a1.2 1.2 0 0 0-.4-.54c-.18-.13-.42-.2-.72-.2s-.54.07-.73.2-.32.31-.41.53c-.08.22-.13.46-.13.72s.04.49.13.71.22.39.41.52c.18.13.42.19.72.19Z" fill="#ffffff" data-color="1"></path>
        <path d="M123.88 130.26c-.19 0-.36-.06-.49-.19s-.2-.3-.2-.51a.686.686 0 0 1 .71-.71c.2 0 .35.07.49.19s.2.3.2.52-.07.39-.2.51-.3.19-.5.19Z" fill="#ffffff" data-color="1"></path>
    </g>
</svg>