<svg preserveAspectRatio="xMidYMid meet" data-bbox="39.24 12.254 85.03 111.006" viewBox="39.24 12.254 85.03 111.006" xmlns="http://www.w3.org/2000/svg" data-type="color" role="presentation" aria-hidden="true" aria-label="">
    <g>
        <path d="M42.86 82.13c-.57 0-1.1-.1-1.59-.29s-.89-.49-1.2-.89-.5-.92-.57-1.54h2c.05.21.15.37.29.5s.31.22.52.28.43.09.68.09c.15 0 .3-.01.45-.04s.28-.08.39-.17c.11-.08.16-.2.16-.35a.4.4 0 0 0-.09-.27.75.75 0 0 0-.26-.18c-.11-.05-.25-.09-.42-.13-.07-.01-.13-.03-.2-.04s-.14-.03-.2-.04-.14-.03-.21-.04c-.37-.08-.73-.17-1.08-.28s-.65-.25-.91-.42c-.26-.18-.47-.41-.63-.7-.15-.29-.23-.66-.23-1.11 0-.41.07-.76.22-1.04s.34-.51.58-.68.51-.3.79-.39c.29-.09.57-.15.85-.18s.53-.05.75-.05c.54 0 1.02.1 1.43.3s.74.5 1 .89c.25.39.41.86.46 1.41h-1.92a.7.7 0 0 0-.2-.41c-.11-.11-.25-.2-.42-.26q-.255-.09-.6-.09c-.13 0-.26.01-.37.03-.12.02-.22.05-.3.1-.08.04-.15.1-.2.17s-.08.14-.08.23c0 .12.05.22.14.3s.23.15.41.21.4.12.67.19c.12.03.25.06.36.08.12.03.23.05.35.08.32.07.62.16.91.25.28.09.53.22.75.37s.39.36.51.62.19.59.19 1c0 .46-.09.85-.26 1.17s-.41.58-.71.78-.64.34-1.01.43-.76.14-1.14.14Z" fill="#ffffff" data-color="1"></path>
        <path d="M48.75 82.13c-.27 0-.53-.04-.77-.11s-.46-.18-.64-.33c-.19-.15-.34-.33-.45-.55s-.17-.48-.17-.78c0-.44.09-.78.28-1.03s.44-.43.76-.55.68-.19 1.09-.23c.41-.03.83-.05 1.27-.05h.26a.7.7 0 0 0-.38-.63.9.9 0 0 0-.45-.1c-.12 0-.25.02-.36.05-.12.04-.21.09-.29.15s-.12.14-.14.23h-1.94a2.1 2.1 0 0 1 .96-1.57c.26-.17.54-.29.86-.37s.65-.12 1-.12c.85 0 1.49.24 1.93.71s.65 1.17.65 2.08v3.11h-1.79v-.76c-.19.29-.41.49-.64.6s-.46.19-.65.21-.33.03-.4.03Zm.53-1.49c.18 0 .36-.05.53-.14s.32-.21.43-.35.17-.28.17-.42v-.04h-1.09c-.09 0-.17 0-.25.03-.08.02-.15.05-.21.08-.06.04-.11.08-.15.14s-.05.13-.05.22c0 .1.03.19.08.26.06.07.13.12.23.16s.2.05.32.05Z" fill="#ffffff" data-color="1"></path>
        <path d="M56.03 82.13c-.89 0-1.58-.22-2.06-.67-.49-.44-.73-1.11-.73-2v-3.22h1.95v3.07c0 .19.03.37.08.52.05.16.14.28.27.38s.3.14.51.14c.24 0 .42-.05.52-.17.11-.11.17-.25.2-.41s.04-.32.04-.47v-3.07h1.94v3.22c0 .95-.24 1.63-.73 2.04-.49.42-1.15.62-1.97.62Zm-1.13-6.44 1.45-2.11h2.06l-1.88 2.11z" fill="#ffffff" data-color="1"></path>
        <path d="M62.19 82.13c-.59 0-1.09-.14-1.48-.41s-.69-.64-.88-1.09c-.19-.46-.29-.95-.29-1.5 0-.59.11-1.12.33-1.57s.54-.8.96-1.06.93-.38 1.53-.38q.3 0 .57.06c.18.04.35.1.5.18s.28.17.39.29v-2.4h1.95v7.79h-1.9v-.51c-.14.13-.3.24-.47.33s-.36.15-.56.2-.41.07-.64.07Zm.43-1.77c.29 0 .53-.06.7-.18s.3-.28.37-.46c.08-.19.12-.38.12-.58s-.04-.4-.12-.59-.2-.34-.37-.46q-.255-.18-.69-.18c-.435 0-.52.07-.69.2s-.29.3-.36.49c-.07.2-.1.39-.1.58 0 .15.02.29.06.43s.11.27.2.38q.135.165.36.27c.15.07.32.1.53.1Z" fill="#ffffff" data-color="1"></path>
        <path d="M69.53 82.13q-.885 0-1.56-.36a2.53 2.53 0 0 1-1.03-1.02c-.25-.44-.37-.96-.37-1.57s.12-1.14.37-1.6.6-.82 1.04-1.07.97-.38 1.56-.38c.42 0 .81.07 1.14.2q.51.195.87.57c.24.25.43.55.56.9s.19.75.19 1.19c0 .12 0 .24-.02.36q-.015.165-.06.36h-3.74c.01.14.06.27.14.4s.19.22.32.3c.14.07.32.11.53.11.18 0 .33-.02.46-.06s.23-.09.31-.16.13-.13.15-.2h1.9q-.15.72-.57 1.17c-.28.3-.61.53-.99.67q-.57.21-1.23.21Zm-1-3.7h1.96c0-.11-.03-.23-.09-.35s-.17-.22-.31-.3q-.21-.12-.57-.12c-.36 0-.41.04-.56.12s-.25.18-.32.3-.1.24-.1.35Z" fill="#ffffff" data-color="1"></path>
        <path d="M77.3 75.85c-.35 0-.64-.1-.85-.31-.22-.21-.32-.48-.32-.82s.11-.63.34-.85.51-.33.85-.33.6.1.83.31.34.49.34.85-.11.62-.32.83c-.22.21-.5.31-.85.31Zm-.98 6.19v-5.8h1.95v5.8z" fill="#ffffff" data-color="1"></path>
        <path d="M79.31 82.04v-5.8h1.79l.11.53c.18-.19.38-.33.59-.42s.41-.15.61-.18.37-.04.51-.04c.54 0 .97.12 1.28.37s.53.58.67.99c.13.41.2.86.2 1.35v3.2h-1.95V79a1.6 1.6 0 0 0-.17-.73.75.75 0 0 0-.26-.27c-.11-.07-.25-.1-.43-.1q-.345 0-.57.15c-.225.15-.26.24-.33.41s-.1.36-.1.58v2.99h-1.95Z" fill="#ffffff" data-color="1"></path>
        <path d="M88.87 82.04c-.51 0-.95-.06-1.31-.17s-.64-.31-.84-.59c-.19-.28-.29-.69-.29-1.23v-2.08h-.8v-1.74h.8v-1.44h1.95v1.44h1.07v1.74h-1.07v1.78c0 .14.02.26.07.37s.19.16.41.16h.52v1.75h-.51Z" fill="#ffffff" data-color="1"></path>
        <path d="M92.81 82.13q-.885 0-1.56-.36a2.53 2.53 0 0 1-1.03-1.02c-.25-.44-.37-.96-.37-1.57s.12-1.14.37-1.6.6-.82 1.04-1.07.97-.38 1.56-.38c.42 0 .81.07 1.14.2q.51.195.87.57c.24.25.43.55.56.9s.19.75.19 1.19c0 .12 0 .24-.02.36q-.015.165-.06.36h-3.74c.01.14.06.27.14.4s.19.22.32.3c.14.07.32.11.53.11.18 0 .33-.02.46-.06s.23-.09.31-.16.13-.13.15-.2h1.9q-.15.72-.57 1.17c-.28.3-.61.53-.99.67q-.57.21-1.23.21Zm-1-3.7h1.96c0-.11-.03-.23-.09-.35s-.17-.22-.31-.3q-.21-.12-.57-.12c-.36 0-.41.04-.56.12s-.25.18-.32.3-.1.24-.1.35Z" fill="#ffffff" data-color="1"></path>
        <path d="M98.78 82.13c-.29 0-.58-.03-.87-.1s-.57-.18-.82-.33-.47-.37-.64-.63c-.18-.27-.29-.6-.35-1.01h1.97c.03.1.08.18.16.25s.17.13.29.17c.11.04.24.06.37.06.09 0 .17 0 .24-.02s.13-.04.18-.07q.075-.045.12-.12c.045-.075.04-.09.04-.14 0-.1-.04-.18-.12-.23s-.19-.08-.33-.11-.3-.06-.47-.09c-.27-.06-.56-.13-.87-.23s-.57-.21-.79-.35a1.35 1.35 0 0 1-.47-.55 1.3 1.3 0 0 1-.1-.34c-.02-.12-.03-.24-.03-.37 0-.34.08-.62.23-.85s.34-.42.58-.56.5-.24.79-.3.57-.09.85-.09c.41 0 .79.07 1.15.2s.65.35.89.64.39.68.45 1.17h-1.88c-.01-.13-.09-.23-.21-.31a.96.96 0 0 0-.47-.11c-.07 0-.14 0-.2.02-.06.01-.12.03-.17.06-.05.02-.08.05-.11.09s-.04.08-.04.12c0 .03 0 .06.03.1.02.04.05.07.1.1q.075.045.21.09.36.09.69.15c.22.04.43.09.65.13.24.04.48.12.71.23s.43.27.59.48.24.51.24.89-.08.69-.23.94-.36.45-.61.6-.53.25-.83.32-.6.1-.89.1Z" fill="#ffffff" data-color="1"></path>
        <path d="M104.76 82.04c-.51 0-.95-.06-1.31-.17s-.64-.31-.84-.59c-.19-.28-.29-.69-.29-1.23v-2.08h-.8v-1.74h.8v-1.44h1.95v1.44h1.07v1.74h-1.07v1.78c0 .14.02.26.07.37s.19.16.41.16h.52v1.75h-.51Z" fill="#ffffff" data-color="1"></path>
        <path d="M106.94 75.85c-.35 0-.64-.1-.85-.31-.22-.21-.32-.48-.32-.82s.11-.63.34-.85.51-.33.85-.33.6.1.83.31.34.49.34.85-.11.62-.32.83c-.22.21-.5.31-.85.31Zm-.98 6.19v-5.8h1.95v5.8z" fill="#ffffff" data-color="1"></path>
        <path d="M108.95 82.04v-5.8h1.79l.11.53c.18-.19.38-.33.59-.42s.41-.15.61-.18.37-.04.51-.04c.54 0 .97.12 1.28.37s.53.58.67.99c.13.41.2.86.2 1.35v3.2h-1.95V79a1.6 1.6 0 0 0-.17-.73.75.75 0 0 0-.26-.27c-.11-.07-.25-.1-.43-.1q-.345 0-.57.15c-.225.15-.26.24-.33.41s-.1.36-.1.58v2.99h-1.95Z" fill="#ffffff" data-color="1"></path>
        <path d="M117.53 82.13c-.27 0-.53-.04-.77-.11s-.46-.18-.64-.33c-.19-.15-.34-.33-.45-.55s-.17-.48-.17-.78c0-.44.09-.78.28-1.03s.44-.43.76-.55.68-.19 1.09-.23c.41-.03.83-.05 1.27-.05h.26a.7.7 0 0 0-.38-.63.9.9 0 0 0-.45-.1c-.12 0-.25.02-.36.05-.12.04-.21.09-.29.15s-.12.14-.14.23h-1.94a2.1 2.1 0 0 1 .96-1.57c.26-.17.54-.29.86-.37s.65-.12 1-.12c.85 0 1.49.24 1.93.71s.65 1.17.65 2.08v3.11h-1.79v-.76c-.19.29-.41.49-.64.6s-.46.19-.65.21-.33.03-.4.03Zm.53-1.49c.18 0 .36-.05.53-.14s.32-.21.43-.35.17-.28.17-.42v-.04h-1.09c-.09 0-.17 0-.25.03-.08.02-.15.05-.21.08-.06.04-.11.08-.15.14s-.05.13-.05.22c0 .1.03.19.08.26.06.07.13.12.23.16s.2.05.32.05Z" fill="#ffffff" data-color="1"></path>
        <path d="M122.04 82.04v-7.79h1.95v7.79z" fill="#ffffff" data-color="1"></path>
        <path d="M43.42 94.72c-.65 0-1.21-.14-1.67-.41-.46-.28-.81-.66-1.05-1.15s-.36-1.05-.36-1.68.12-1.21.37-1.7.6-.87 1.06-1.15 1.02-.42 1.67-.42 1.21.14 1.67.41c.46.28.81.66 1.06 1.15s.37 1.05.37 1.69-.12 1.19-.36 1.68-.6.88-1.06 1.16-1.03.42-1.69.42Zm.02-1.04c.46 0 .83-.1 1.12-.31s.5-.48.63-.82.2-.69.2-1.07c0-.29-.04-.56-.11-.83-.08-.26-.19-.5-.35-.71s-.36-.38-.61-.5-.54-.18-.88-.18c-.45 0-.82.11-1.11.32s-.51.48-.64.82c-.14.34-.21.7-.21 1.09s.07.74.21 1.08.35.61.64.81c.29.21.66.31 1.11.31Z" fill="#ffffff" data-color="1"></path>
        <path d="M49.93 96.4v-6.49h1.03l.05.64c.19-.25.41-.43.67-.54s.54-.17.85-.17c.47 0 .86.11 1.16.32s.53.51.68.87c.15.37.23.78.23 1.24s-.08.88-.23 1.25-.39.66-.71.87-.71.32-1.18.32c-.22 0-.42-.02-.61-.07-.18-.05-.35-.12-.49-.21a1.6 1.6 0 0 1-.36-.31v2.27h-1.1Zm2.37-2.68c.31 0 .55-.07.72-.2s.3-.31.38-.53.12-.45.12-.7-.04-.5-.12-.72q-.12-.33-.39-.54t-.72-.21c-.28 0-.51.07-.7.2-.19.14-.33.31-.43.54-.1.22-.14.46-.14.72s.04.51.13.72.23.39.42.52.44.19.73.19Z" fill="#ffffff" data-color="1"></path>
        <path d="M55.48 94.65v-4.74h1l.06.62c.12-.18.26-.32.41-.42s.32-.17.49-.21q.27-.06.54-.06h.32v1.04h-.29c-.31 0-.58.06-.79.18-.22.12-.38.29-.49.51s-.16.5-.16.82v2.25h-1.1Z" fill="#ffffff" data-color="1"></path>
        <path d="M61.08 94.71c-.49 0-.91-.1-1.26-.31s-.61-.49-.78-.85-.27-.78-.27-1.26.09-.9.28-1.27c.18-.37.45-.66.79-.87s.76-.32 1.25-.32c.36 0 .67.06.95.19.27.13.5.3.68.53.18.22.32.47.41.76.09.28.13.58.13.89 0 .07-.01.14-.02.21 0 .07-.01.14-.03.22h-3.33c.02.21.07.4.17.58s.23.31.4.41.38.15.64.15c.15 0 .29-.02.43-.06s.26-.1.36-.18q.165-.12.21-.3h1.1c-.08.34-.22.62-.43.84s-.46.38-.75.48-.6.15-.92.15Zm-1.19-2.9h2.29c0-.2-.04-.38-.13-.54s-.22-.29-.38-.38-.36-.14-.6-.14q-.375 0-.63.15a1 1 0 0 0-.39.4q-.135.24-.15.51Z" fill="#ffffff" data-color="1"></path>
        <path d="M66.67 94.71c-.17 0-.35-.02-.52-.05s-.34-.1-.5-.19-.3-.21-.44-.36l-.03.54h-1.06v-6.36h1.1v2.21c.17-.22.4-.39.67-.5s.56-.17.85-.17c.47 0 .85.11 1.16.32.3.21.53.5.67.87s.22.78.22 1.24-.08.88-.23 1.25-.39.66-.7.88-.71.32-1.2.32Zm-.18-.97q.465 0 .72-.21c.18-.14.3-.33.38-.55q.12-.345.12-.72c0-.375-.04-.5-.12-.71-.08-.22-.21-.39-.39-.52s-.42-.2-.72-.2c-.28 0-.51.07-.7.21s-.33.32-.43.55c-.1.22-.14.46-.14.7s.04.49.13.71.22.4.41.54.43.21.73.21Z" fill="#ffffff" data-color="1"></path>
        <path d="M70.22 89.36c-.21 0-.38-.06-.5-.19s-.19-.29-.19-.5.07-.36.2-.49.3-.19.5-.19.36.06.5.19.21.29.21.5-.07.37-.2.5-.3.19-.5.19Zm-.55 5.29v-4.74h1.1v4.74z" fill="#ffffff" data-color="1"></path>
        <path d="M74 94.71c-.49 0-.9-.1-1.26-.3-.35-.2-.62-.48-.81-.85s-.28-.79-.28-1.29.1-.93.29-1.29.46-.65.81-.85.76-.31 1.25-.31.89.1 1.24.31c.35.2.61.49.8.86s.28.8.28 1.3-.09.91-.28 1.27c-.18.36-.45.64-.8.84s-.77.3-1.25.3Zm-.01-1c.3 0 .54-.07.72-.2s.32-.31.4-.52c.08-.22.13-.45.13-.7s-.04-.49-.13-.71a1.2 1.2 0 0 0-.4-.54c-.18-.13-.42-.2-.72-.2s-.54.07-.73.2-.32.31-.41.53c-.08.22-.13.46-.13.72s.04.49.13.71.22.39.41.52c.18.13.42.19.72.19Zm-.57-4.41.94-1.45h1.17l-1.16 1.45h-.94Z" fill="#ffffff" data-color="1"></path>
        <path d="M79.28 94.65c-.38 0-.7-.05-.95-.15s-.43-.27-.56-.5c-.12-.23-.19-.53-.19-.92v-2.21h-.73v-.97h.73v-1.32h1.1v1.32h1.11v.97h-1.11v2.06c0 .24.04.42.13.55s.27.19.57.19h.38v.97h-.48Z" fill="#ffffff" data-color="1"></path>
        <path d="M81.07 89.36c-.21 0-.38-.06-.5-.19s-.19-.29-.19-.5.07-.36.2-.49.3-.19.49-.19.36.06.5.19.21.29.21.5-.07.37-.2.5-.3.19-.5.19Zm-.55 5.29v-4.74h1.1v4.74z" fill="#ffffff" data-color="1"></path>
        <path d="M84.77 94.71c-.49 0-.91-.1-1.24-.3a1.9 1.9 0 0 1-.76-.85c-.18-.37-.26-.79-.26-1.27s.09-.9.27-1.27.45-.66.79-.87.77-.32 1.27-.32c.37 0 .69.06.98.19s.52.31.69.55c.18.24.29.54.34.9h-1.08a.86.86 0 0 0-.36-.5c-.16-.1-.36-.16-.59-.16-.3 0-.55.07-.72.22-.18.15-.3.33-.38.55q-.12.33-.12.69c0 .36.04.49.12.71s.21.39.39.53c.18.13.41.2.69.2.23 0 .43-.05.62-.15.18-.1.3-.27.36-.5h1.12c-.04.37-.16.67-.37.91-.2.24-.45.42-.76.54s-.64.18-.99.18Z" fill="#ffffff" data-color="1"></path>
        <path d="M89.88 94.71c-.49 0-.9-.1-1.26-.3s-.62-.48-.81-.85-.28-.79-.28-1.29.1-.93.29-1.29.46-.65.81-.85.77-.31 1.25-.31.89.1 1.24.31c.35.2.61.49.8.86s.28.8.28 1.3-.09.91-.28 1.27c-.18.36-.45.64-.8.84s-.77.3-1.25.3Zm-.01-1c.3 0 .54-.07.72-.2s.32-.31.4-.52.13-.45.13-.7-.04-.49-.13-.71-.22-.4-.4-.54-.42-.2-.72-.2-.54.07-.73.2-.32.31-.41.53q-.12.33-.12.72c0 .39.04.49.13.71s.22.39.4.52.42.19.72.19Z" fill="#ffffff" data-color="1"></path>
        <path d="M95.76 94.65v-6.36h1.54l1.76 3.21 1.75-3.21h1.49v6.36h-1.12v-4.94l-1.9 3.44h-.48l-1.92-3.44v4.94z" fill="#ffffff" data-color="1"></path>
        <path d="M106.46 94.72c-.65 0-1.21-.14-1.67-.41-.46-.28-.81-.66-1.05-1.15q-.36-.735-.36-1.68c0-.945.12-1.21.37-1.7s.6-.87 1.06-1.15 1.02-.42 1.67-.42 1.21.14 1.67.41c.46.28.81.66 1.06 1.15.24.49.37 1.05.37 1.69s-.12 1.19-.36 1.68-.6.88-1.06 1.16-1.03.42-1.69.42Zm.02-1.04c.46 0 .83-.1 1.12-.31s.5-.48.63-.82.2-.69.2-1.07c0-.29-.04-.56-.11-.83-.08-.26-.19-.5-.35-.71s-.36-.38-.61-.5-.54-.18-.88-.18c-.45 0-.82.11-1.11.32s-.51.48-.64.82c-.14.34-.21.7-.21 1.09s.07.74.21 1.08.35.61.64.81c.29.21.66.31 1.11.31Z" fill="#ffffff" data-color="1"></path>
        <path d="M113.02 94.72c-.43 0-.83-.06-1.2-.19-.38-.13-.69-.34-.94-.62s-.42-.66-.49-1.12h1.14c.07.23.19.42.35.55s.35.22.56.27c.22.05.44.08.66.08.2 0 .38-.03.56-.08s.32-.14.44-.26.18-.28.18-.48q0-.225-.09-.36a.6.6 0 0 0-.26-.23c-.11-.06-.24-.11-.4-.15-.15-.05-.31-.09-.49-.13s-.34-.08-.51-.12-.33-.1-.48-.16c-.19-.07-.38-.14-.55-.23s-.33-.19-.46-.32-.23-.28-.31-.47-.12-.41-.12-.67c0-.29.05-.55.15-.76s.23-.39.4-.53c.16-.14.35-.25.56-.32a3.7 3.7 0 0 1 1.29-.22c.4 0 .76.07 1.08.2.33.13.6.34.81.61.21.28.33.63.36 1.06h-1.09c-.02-.2-.1-.37-.21-.49a1.1 1.1 0 0 0-.45-.27 1.9 1.9 0 0 0-.58-.08c-.14 0-.29.01-.43.04-.14.02-.27.07-.38.13a.8.8 0 0 0-.27.24c-.07.1-.1.22-.1.37 0 .13.03.25.1.35s.16.18.27.25q.18.105.42.18c.21.08.44.15.69.19s.48.1.71.17c.21.06.42.13.6.22s.34.19.47.32c.13.12.24.27.31.45.08.18.11.39.11.63 0 .36-.06.67-.19.91s-.31.45-.53.61-.48.27-.77.34-.58.1-.89.1Z" fill="#ffffff" data-color="1"></path>
        <path d="M121.01 94.71c-.49 0-.91-.1-1.26-.31-.35-.2-.61-.49-.78-.85q-.27-.54-.27-1.26c0-.72.09-.9.28-1.27.18-.37.45-.66.79-.87s.76-.32 1.25-.32c.36 0 .68.06.95.19s.5.3.68.53c.18.22.32.47.41.76.09.28.13.58.12.89 0 .07-.01.14-.02.21 0 .07-.02.14-.03.22h-3.33c.02.21.07.4.17.58.09.17.23.31.4.41s.38.15.64.15c.15 0 .29-.02.43-.06q.21-.06.36-.18.165-.12.21-.3h1.1c-.08.34-.22.62-.43.84q-.315.33-.75.48c-.29.1-.6.15-.92.15Zm-1.19-2.9h2.29c0-.2-.04-.38-.13-.54s-.22-.29-.38-.38c-.17-.09-.37-.14-.6-.14q-.375 0-.63.15a1 1 0 0 0-.39.4q-.135.24-.15.51Z" fill="#ffffff" data-color="1"></path>
        <path d="M42.41 104.21q-.33 0-.63-.09c-.3-.09-.38-.15-.53-.27s-.28-.26-.37-.44-.14-.39-.14-.63q0-.465.18-.75c.12-.2.28-.34.49-.45.21-.1.44-.17.71-.21.26-.04.54-.06.83-.06h.93c0-.21-.03-.39-.1-.54a.83.83 0 0 0-.31-.36c-.14-.09-.32-.13-.54-.13-.14 0-.28.02-.4.05a.9.9 0 0 0-.32.15.5.5 0 0 0-.18.27h-1.12c.04-.25.13-.46.26-.63.13-.18.29-.32.48-.44.19-.11.4-.2.62-.26q.345-.09.69-.09c.69 0 1.19.2 1.51.59.32.4.47.95.47 1.67v2.56h-.97l-.03-.61c-.14.2-.3.35-.5.45-.19.1-.38.16-.56.18-.18.03-.33.04-.46.04Zm.22-.89c.24 0 .45-.04.64-.13s.33-.22.45-.38c.11-.16.17-.35.17-.56v-.15h-.86c-.14 0-.29 0-.43.01-.14 0-.27.03-.38.07s-.21.1-.27.18-.1.19-.1.33.04.26.11.35.17.16.3.21.25.07.39.07Z" fill="#ffffff" data-color="1"></path>
        <path d="M47.79 104.21c-.23 0-.45-.02-.68-.07q-.345-.075-.63-.24c-.2-.11-.36-.26-.5-.45s-.22-.43-.26-.72h1.11c.05.13.12.24.23.32s.23.14.37.18.28.06.42.06c.08 0 .17 0 .27-.02.1-.01.19-.04.28-.07s.16-.09.21-.16.08-.16.08-.28c0-.11-.03-.19-.09-.26a.7.7 0 0 0-.24-.15c-.1-.04-.22-.07-.37-.09-.26-.05-.53-.11-.83-.17a2.2 2.2 0 0 1-.76-.3.9.9 0 0 1-.23-.19c-.07-.07-.12-.15-.17-.24s-.08-.18-.1-.28q-.03-.15-.03-.33c0-.25.05-.47.16-.64.11-.18.25-.32.42-.43.18-.11.38-.19.61-.25.23-.05.46-.08.7-.08.32 0 .62.05.88.15s.48.26.66.47.28.48.32.8h-1.04q-.045-.225-.27-.36c-.225-.135-.35-.14-.58-.14-.08 0-.17 0-.26.02s-.17.04-.26.07a.43.43 0 0 0-.28.39c0 .09.02.17.07.23.04.07.11.12.21.17.09.04.2.08.33.11.2.04.42.08.64.13.22.04.41.08.58.13.19.05.37.13.52.23q.24.15.36.39c.12.24.13.36.13.61q0 .435-.18.72c-.12.19-.27.34-.46.45s-.4.19-.64.23c-.23.05-.46.07-.69.07Z" fill="#ffffff" data-color="1"></path>
        <path d="M53.49 104.15v-3.77h-.74v-.97h.74v-.45c0-.36.05-.66.16-.89s.28-.4.52-.51.54-.16.91-.16h.7v.97h-.58c-.16 0-.29.03-.38.08s-.15.13-.19.24-.06.23-.06.38v.33h1.21v.97h-1.21v3.77h-1.09Z" fill="#ffffff" data-color="1"></path>
        <path d="M57.02 98.86c-.21 0-.38-.06-.5-.19s-.19-.29-.19-.5.07-.36.2-.49.3-.19.5-.19.36.06.5.19.21.29.21.5-.07.37-.2.5-.3.19-.5.19Zm-.55 5.29v-4.74h1.1v4.74z" fill="#ffffff" data-color="1"></path>
        <path d="M61.18 104.21c-.17 0-.35-.02-.52-.05s-.34-.1-.5-.19-.3-.21-.44-.36l-.03.54h-1.06v-6.36h1.1V100c.17-.22.4-.39.67-.5s.56-.17.85-.17c.47 0 .85.11 1.16.32.3.21.53.5.67.87s.22.78.22 1.24-.08.88-.23 1.25-.39.66-.7.88-.71.32-1.2.32Zm-.18-.97q.465 0 .72-.21c.18-.14.3-.33.38-.55q.12-.345.12-.72c0-.375-.04-.5-.12-.71-.08-.22-.21-.39-.39-.52s-.42-.2-.72-.2c-.28 0-.51.07-.7.21s-.33.32-.43.55c-.1.22-.14.46-.14.7s.04.49.13.71.22.4.41.54.43.21.73.21Z" fill="#ffffff" data-color="1"></path>
        <path d="M64.18 104.15v-4.74h1l.06.62c.12-.18.26-.32.41-.42s.32-.17.49-.21q.27-.06.54-.06H67v1.04h-.29c-.31 0-.58.06-.79.18-.22.12-.38.29-.49.51s-.16.5-.16.82v2.25h-1.1Z" fill="#ffffff" data-color="1"></path>
        <path d="M69.17 104.21q-.33 0-.63-.09c-.3-.09-.38-.15-.53-.27s-.28-.26-.37-.44-.14-.39-.14-.63q0-.465.18-.75c.12-.2.28-.34.49-.45.21-.1.44-.17.71-.21.26-.04.54-.06.83-.06h.93c0-.21-.03-.39-.1-.54a.83.83 0 0 0-.31-.36c-.14-.09-.32-.13-.54-.13-.14 0-.28.02-.4.05a.9.9 0 0 0-.32.15.5.5 0 0 0-.18.27h-1.12c.04-.25.13-.46.26-.63.13-.18.29-.32.48-.44.19-.11.4-.2.62-.26q.345-.09.69-.09c.69 0 1.19.2 1.51.59.32.4.47.95.47 1.67v2.56h-.97l-.03-.61c-.14.2-.3.35-.5.45-.19.1-.38.16-.56.18-.18.03-.33.04-.46.04Zm.22-.89c.24 0 .45-.04.64-.13s.33-.22.45-.38c.11-.16.17-.35.17-.56v-.15h-.86c-.14 0-.29 0-.43.01-.14 0-.27.03-.38.07s-.21.1-.27.18-.1.19-.1.33.04.26.11.35.17.16.3.21.25.07.39.07Z" fill="#ffffff" data-color="1"></path>
        <path d="M74.54 104.21c-.23 0-.45-.02-.68-.07q-.345-.075-.63-.24c-.2-.11-.36-.26-.5-.45s-.22-.43-.26-.72h1.11c.05.13.12.24.23.32s.23.14.37.18.28.06.42.06c.08 0 .17 0 .27-.02.1-.01.19-.04.28-.07s.16-.09.21-.16.08-.16.08-.28c0-.11-.03-.19-.09-.26a.7.7 0 0 0-.24-.15c-.1-.04-.22-.07-.37-.09-.26-.05-.53-.11-.83-.17a2.2 2.2 0 0 1-.76-.3.9.9 0 0 1-.23-.19c-.07-.07-.12-.15-.17-.24s-.08-.18-.1-.28q-.03-.15-.03-.33c0-.25.05-.47.16-.64.11-.18.25-.32.42-.43.18-.11.38-.19.61-.25.23-.05.46-.08.7-.08.32 0 .62.05.88.15s.48.26.66.47.28.48.32.8h-1.04q-.045-.225-.27-.36c-.225-.135-.35-.14-.58-.14-.08 0-.17 0-.26.02s-.17.04-.26.07a.43.43 0 0 0-.28.39c0 .09.02.17.07.23.04.07.11.12.21.17.09.04.2.08.33.11.2.04.42.08.64.13.22.04.41.08.58.13.19.05.37.13.52.23.16.1.28.23.37.39s.13.36.13.61q0 .435-.18.72c-.12.19-.27.34-.46.45s-.4.19-.64.23c-.23.05-.46.07-.69.07Z" fill="#ffffff" data-color="1"></path>
        <path d="M80.25 104.15v-3.77h-.74v-.97h.74v-.45c0-.36.05-.66.16-.89s.28-.4.52-.51.54-.16.91-.16h.7v.97h-.58c-.16 0-.29.03-.38.08s-.15.13-.19.24-.06.23-.06.38v.33h1.21v.97h-1.21v3.77h-1.09Z" fill="#ffffff" data-color="1"></path>
        <path d="M85.32 104.21c-.68 0-1.21-.18-1.57-.53q-.54-.525-.54-1.62V99.4h1.1v2.58c0 .25.04.47.1.66.07.19.18.33.33.43s.35.15.58.15c.25 0 .45-.05.6-.16.15-.1.25-.25.31-.44s.09-.4.09-.64V99.4h1.1v2.66c0 .74-.18 1.29-.55 1.63-.37.35-.88.52-1.54.52Z" fill="#ffffff" data-color="1"></path>
        <path d="M88.46 104.15v-4.74h1.03l.06.6c.12-.17.27-.3.44-.4s.35-.17.53-.21c.19-.04.36-.07.52-.07.45 0 .8.1 1.07.3.26.2.45.46.55.79.11.33.16.7.16 1.11v2.62h-1.1v-2.44c0-.17-.01-.34-.04-.51-.02-.17-.07-.31-.14-.45a.8.8 0 0 0-.29-.31c-.12-.08-.29-.12-.5-.12q-.39 0-.66.21c-.27.21-.32.32-.41.55s-.13.49-.13.79v2.28h-1.1Z" fill="#ffffff" data-color="1"></path>
        <path d="M95.95 104.21c-.49 0-.91-.1-1.24-.3a1.9 1.9 0 0 1-.76-.85c-.18-.37-.26-.79-.26-1.27s.09-.9.27-1.27.45-.66.79-.87.77-.32 1.27-.32c.37 0 .69.06.98.19s.52.31.69.55c.18.24.29.54.34.9h-1.08a.86.86 0 0 0-.36-.5c-.16-.1-.36-.16-.59-.16-.3 0-.55.07-.72.22-.18.15-.3.33-.38.55q-.12.33-.12.69c0 .36.04.49.12.71s.21.39.39.53c.18.13.41.2.69.2.23 0 .43-.05.62-.15.18-.1.3-.27.36-.5h1.12c-.04.37-.16.67-.37.91-.2.24-.45.42-.76.54s-.64.18-.99.18Z" fill="#ffffff" data-color="1"></path>
        <path d="M99.45 98.86c-.21 0-.38-.06-.5-.19s-.19-.29-.19-.5.07-.36.2-.49.3-.19.49-.19.36.06.5.19.21.29.21.5-.07.37-.2.5-.3.19-.5.19Zm-.55 5.29v-4.74h1.1v4.74z" fill="#ffffff" data-color="1"></path>
        <path d="M103.23 104.21c-.49 0-.9-.1-1.26-.3s-.62-.48-.81-.85-.28-.79-.28-1.29.1-.93.29-1.29.46-.65.81-.85.77-.31 1.25-.31.89.1 1.24.31c.35.2.61.49.8.86s.28.8.28 1.3-.09.91-.28 1.27c-.18.36-.45.64-.8.84s-.77.3-1.25.3Zm-.01-1c.3 0 .54-.07.72-.2s.32-.31.4-.52.13-.45.13-.7-.04-.49-.13-.71-.22-.4-.4-.54-.42-.2-.72-.2-.54.07-.73.2-.32.31-.41.53q-.12.33-.12.72c0 .39.04.49.13.71s.22.39.4.52.42.19.72.19Z" fill="#ffffff" data-color="1"></path>
        <path d="M106.43 104.15v-4.74h1.03l.06.6c.12-.17.27-.3.44-.4s.35-.17.53-.21c.19-.04.36-.07.52-.07.45 0 .8.1 1.07.3.26.2.45.46.55.79.11.33.16.7.16 1.11v2.62h-1.1v-2.44c0-.17-.01-.34-.04-.51-.02-.17-.07-.31-.14-.45a.8.8 0 0 0-.29-.31c-.12-.08-.29-.12-.5-.12q-.39 0-.66.21c-.27.21-.32.32-.41.55s-.13.49-.13.79v2.28h-1.1Z" fill="#ffffff" data-color="1"></path>
        <path d="M113.34 104.21q-.33 0-.63-.09c-.2-.06-.38-.15-.53-.27s-.28-.26-.37-.44-.14-.39-.14-.63q0-.465.18-.75c.12-.2.28-.34.49-.45.21-.1.44-.17.71-.21s.54-.06.83-.06h.93c0-.21-.03-.39-.1-.54s-.17-.27-.31-.36-.32-.13-.54-.13c-.14 0-.28.02-.4.05s-.23.08-.31.15a.5.5 0 0 0-.18.27h-1.12c.04-.25.13-.46.26-.63.13-.18.29-.32.48-.44.19-.11.4-.2.62-.26q.345-.09.69-.09c.69 0 1.19.2 1.51.59.31.4.47.95.47 1.67v2.56h-.97l-.03-.61c-.14.2-.3.35-.49.45s-.38.16-.56.18c-.18.03-.33.04-.46.04Zm.22-.89c.24 0 .45-.04.64-.13s.33-.22.45-.38c.11-.16.17-.35.17-.56v-.15h-.86c-.14 0-.29 0-.43.01-.14 0-.27.03-.38.07s-.21.1-.27.18c-.07.08-.1.19-.1.33s.04.26.11.35c.08.09.17.16.3.21s.25.07.39.07Z" fill="#ffffff" data-color="1"></path>
        <path d="M117.45 98.86c-.21 0-.38-.06-.5-.19-.13-.13-.19-.29-.19-.5s.07-.36.2-.49.3-.19.5-.19.36.06.49.19.21.29.21.5-.07.37-.2.5-.3.19-.5.19Zm-.55 5.29v-4.74h1.1v4.74z" fill="#ffffff" data-color="1"></path>
        <path d="M120.88 104.21c-.23 0-.45-.02-.68-.07q-.345-.075-.63-.24c-.2-.11-.36-.26-.5-.45-.13-.19-.22-.43-.26-.72h1.11c.05.13.12.24.23.32s.23.14.37.18.28.06.42.06c.08 0 .18 0 .28-.02.1-.01.19-.04.28-.07.09-.04.16-.09.21-.16s.08-.16.08-.28c0-.11-.03-.19-.09-.26a.7.7 0 0 0-.24-.15c-.1-.04-.22-.07-.37-.09-.26-.05-.54-.11-.83-.17s-.55-.16-.77-.3a.9.9 0 0 1-.23-.19c-.06-.07-.12-.15-.17-.24s-.08-.18-.1-.28q-.03-.15-.03-.33c0-.25.05-.47.16-.64s.25-.32.42-.43c.18-.11.38-.19.61-.25.23-.05.46-.08.7-.08.32 0 .62.05.88.15s.48.26.66.47.28.48.32.8h-1.04a.54.54 0 0 0-.27-.36c-.15-.09-.35-.14-.58-.14-.08 0-.17 0-.26.02s-.18.04-.26.07a.43.43 0 0 0-.28.39c0 .09.02.17.07.23.04.07.11.12.21.17.09.04.2.08.33.11.2.04.42.08.64.13.22.04.41.08.58.13.19.05.37.13.52.23.16.1.28.23.37.39s.13.36.13.61q0 .435-.18.72c-.12.19-.27.34-.46.45s-.4.19-.64.23c-.23.05-.46.07-.69.07Z" fill="#ffffff" data-color="1"></path>
        <path d="M40.91 113.71q-.33 0-.63-.09c-.3-.09-.38-.15-.53-.27s-.28-.26-.37-.44-.14-.39-.14-.63q0-.465.18-.75c.12-.2.28-.34.49-.45.21-.1.44-.17.71-.21.26-.04.54-.06.83-.06h.93c0-.21-.03-.39-.1-.54a.83.83 0 0 0-.31-.36c-.14-.09-.32-.13-.54-.13-.14 0-.28.02-.4.05a.9.9 0 0 0-.32.15.5.5 0 0 0-.18.27h-1.12c.04-.25.13-.46.26-.63.13-.18.29-.32.48-.44.19-.11.4-.2.62-.26q.345-.09.69-.09c.69 0 1.19.2 1.51.59.32.4.47.95.47 1.67v2.56h-.97l-.03-.61c-.14.2-.3.35-.5.45-.19.1-.38.16-.56.18-.18.03-.33.04-.46.04Zm.22-.89c.24 0 .45-.04.64-.13s.33-.22.45-.38c.11-.16.17-.35.17-.56v-.15h-.86c-.14 0-.29 0-.43.01-.14 0-.27.03-.38.07s-.21.1-.27.18-.1.19-.1.33.04.26.11.35.17.16.3.21.25.07.39.07Z" fill="#ffffff" data-color="1"></path>
        <path d="M43.58 115.41v-.97h.34c.19 0 .34-.03.43-.1.1-.07.16-.16.19-.27.03-.12.04-.25.04-.39v-4.77h1.1v4.92c0 .36-.05.66-.15.89s-.26.41-.49.52c-.22.11-.52.17-.9.17h-.58Zm1.56-7.05c-.21 0-.38-.06-.5-.19s-.19-.29-.19-.5.07-.36.2-.49.3-.19.5-.19.36.06.5.19.21.29.21.5-.07.37-.2.5-.3.19-.5.19Z" fill="#ffffff" data-color="1"></path>
        <path d="M48.93 113.71c-.68 0-1.21-.18-1.57-.53q-.54-.525-.54-1.62v-2.66h1.1v2.58c0 .25.03.47.1.66s.18.33.33.43.35.15.58.15c.25 0 .45-.05.6-.16.15-.1.25-.25.31-.44s.09-.4.09-.64v-2.58h1.1v2.66c0 .74-.18 1.29-.55 1.63-.37.35-.88.52-1.54.52Z" fill="#ffffff" data-color="1"></path>
        <path d="M54.01 113.71c-.48 0-.88-.11-1.19-.33s-.54-.51-.7-.88c-.15-.37-.23-.77-.23-1.22s.08-.89.24-1.26.41-.66.73-.87.73-.32 1.21-.32a2.2 2.2 0 0 1 1.02.24c.15.08.28.19.38.32v-2.11h1.1v6.36h-1.06l-.02-.59c-.11.15-.25.27-.4.37s-.32.17-.51.22-.38.07-.58.07Zm.2-.99c.29 0 .53-.07.71-.2q.285-.195.42-.54a1.9 1.9 0 0 0 0-1.43c-.09-.22-.23-.39-.42-.52s-.42-.2-.71-.2q-.465 0-.72.21c-.255.21-.31.32-.39.54a2.2 2.2 0 0 0-.05 1.26q.075.255.21.45c.1.13.22.24.38.31.16.08.35.11.58.11Z" fill="#ffffff" data-color="1"></path>
        <path d="M59.15 113.71q-.33 0-.63-.09c-.3-.09-.38-.15-.53-.27s-.28-.26-.37-.44-.14-.39-.14-.63q0-.465.18-.75c.12-.2.28-.34.49-.45.21-.1.44-.17.71-.21.26-.04.54-.06.83-.06h.93c0-.21-.03-.39-.1-.54a.83.83 0 0 0-.31-.36c-.14-.09-.32-.13-.54-.13-.14 0-.28.02-.4.05a.9.9 0 0 0-.32.15.5.5 0 0 0-.18.27h-1.12c.04-.25.13-.46.26-.63.13-.18.29-.32.48-.44.19-.11.4-.2.62-.26q.345-.09.69-.09c.69 0 1.19.2 1.51.59.32.4.47.95.47 1.67v2.56h-.97l-.03-.61c-.14.2-.3.35-.5.45-.19.1-.38.16-.56.18-.18.03-.33.04-.46.04Zm.21-.89c.24 0 .45-.04.64-.13s.33-.22.45-.38c.11-.16.17-.35.17-.56v-.15h-.86c-.14 0-.29 0-.43.01-.14 0-.27.03-.38.07s-.21.1-.27.18-.1.19-.1.33.04.26.11.35.17.16.3.21.25.07.39.07Z" fill="#ffffff" data-color="1"></path>
        <path d="M62.7 113.65v-4.74h1.01l.07.54c.12-.16.25-.29.39-.37.14-.09.29-.15.44-.18.15-.04.3-.05.44-.05.3 0 .56.06.77.18s.38.3.5.54c.12-.17.25-.3.4-.41.15-.1.31-.18.48-.23s.34-.08.53-.08c.37 0 .66.08.88.23s.38.36.49.63c.1.27.15.57.15.91v3.04h-1.1v-2.69c0-.12 0-.25-.02-.38s-.04-.25-.09-.37a.7.7 0 0 0-.22-.28c-.1-.07-.23-.11-.41-.11s-.32.04-.43.11-.2.17-.27.3c-.07.12-.12.26-.14.41-.03.15-.04.29-.04.44v2.57h-1.1v-2.7c0-.11 0-.24-.02-.36-.01-.13-.04-.25-.09-.37s-.12-.21-.22-.28a.7.7 0 0 0-.41-.11q-.375 0-.57.21c-.13.14-.22.31-.26.5s-.07.39-.07.57v2.55h-1.1Z" fill="#ffffff" data-color="1"></path>
        <path d="M72.77 113.65v-4.74h1.03l.06.6c.13-.17.27-.3.44-.4s.35-.17.53-.21c.19-.04.36-.07.52-.07.45 0 .81.1 1.07.3s.45.46.55.79c.11.33.16.7.16 1.11v2.62h-1.1v-2.44c0-.17-.01-.34-.04-.51-.02-.17-.07-.31-.14-.45-.07-.13-.17-.24-.29-.31s-.29-.12-.5-.12q-.39 0-.66.21c-.27.21-.32.32-.41.55s-.13.49-.13.79v2.28h-1.1Z" fill="#ffffff" data-color="1"></path>
        <path d="M80.34 113.71c-.49 0-.9-.1-1.26-.3s-.62-.48-.81-.85-.28-.79-.28-1.29.1-.93.29-1.29.46-.65.81-.85.77-.31 1.25-.31.89.1 1.24.31c.35.2.61.49.8.86s.28.8.28 1.3-.09.91-.28 1.27c-.18.36-.45.64-.8.84s-.77.3-1.25.3Zm-.01-1c.3 0 .54-.07.72-.2s.32-.31.4-.52.13-.45.13-.7-.04-.49-.13-.71-.22-.4-.4-.54-.42-.2-.72-.2-.54.07-.73.2-.32.31-.41.53q-.12.33-.12.72c0 .39.04.49.13.71s.22.39.4.52.42.19.72.19Z" fill="#ffffff" data-color="1"></path>
        <path d="M88.17 113.71c-.49 0-.91-.1-1.26-.31-.35-.2-.61-.49-.78-.85q-.27-.54-.27-1.26c0-.72.09-.9.28-1.27.18-.37.45-.66.79-.87s.76-.32 1.25-.32c.36 0 .68.06.95.19s.5.3.68.53c.18.22.32.47.41.76.09.28.13.58.12.89 0 .07-.01.14-.02.21 0 .07-.02.14-.03.22h-3.33c.02.21.07.4.17.58.09.17.23.31.4.41s.38.15.64.15c.15 0 .29-.02.43-.06q.21-.06.36-.18.165-.12.21-.3h1.1c-.08.34-.22.62-.43.84q-.315.33-.75.48c-.29.1-.6.15-.92.15Zm-1.19-2.9h2.29c0-.2-.04-.38-.13-.54s-.22-.29-.38-.38c-.17-.09-.37-.14-.6-.14q-.375 0-.63.15a1 1 0 0 0-.39.4q-.135.24-.15.51Z" fill="#ffffff" data-color="1"></path>
        <path d="M94.62 115.4v-2.32c-.17.23-.38.4-.65.5s-.54.14-.81.14c-.36 0-.67-.06-.94-.18a1.7 1.7 0 0 1-.66-.51c-.17-.22-.3-.48-.39-.77a3.2 3.2 0 0 1-.13-.95c0-.47.08-.9.25-1.27s.41-.66.74-.88c.32-.21.72-.32 1.19-.32.27 0 .53.05.79.14q.39.135.63.45l.05-.52h1.03v6.49zm-1.26-2.68c.27 0 .5-.06.69-.19s.33-.3.43-.53c.1-.22.14-.46.14-.73s-.05-.52-.14-.74-.24-.39-.42-.52-.42-.19-.7-.19-.53.07-.71.2c-.18.14-.31.31-.4.53s-.12.46-.12.72.04.51.12.73.22.4.4.53c.19.13.42.19.71.19" fill="#ffffff" data-color="1"></path>
        <path d="M98.87 113.71c-.68 0-1.21-.18-1.57-.53q-.54-.525-.54-1.62v-2.66h1.1v2.58c0 .25.03.47.1.66s.18.33.33.43.35.15.58.15c.25 0 .45-.05.6-.16.15-.1.25-.25.31-.44s.09-.4.09-.64v-2.58h1.1v2.66c0 .74-.19 1.29-.55 1.63-.37.35-.88.52-1.54.52Z" fill="#ffffff" data-color="1"></path>
        <path d="M102.56 108.36c-.21 0-.38-.06-.5-.19-.13-.13-.19-.29-.19-.5s.07-.36.2-.49.3-.19.5-.19.36.06.49.19.21.29.21.5-.07.37-.2.5-.3.19-.5.19Zm-.55 5.29v-4.74h1.1v4.74z" fill="#ffffff" data-color="1"></path>
        <path d="M104.17 113.65v-6.36h1.1v6.36z" fill="#ffffff" data-color="1"></path>
        <path d="m106.31 108.3.94-1.45h1.17l-1.16 1.45zm.02 5.35v-4.74h1.1v4.74z" fill="#ffffff" data-color="1"></path>
        <path d="M111.15 113.71c-.17 0-.35-.02-.52-.05s-.34-.1-.5-.19-.3-.21-.44-.36l-.03.54h-1.06v-6.36h1.1v2.21c.17-.22.4-.39.67-.5s.55-.17.85-.17c.47 0 .85.11 1.16.32.3.21.53.5.68.87s.22.78.22 1.24-.08.88-.23 1.25-.38.66-.7.88c-.31.22-.71.32-1.2.32m-.18-.97q.465 0 .72-.21c.18-.14.3-.33.38-.55q.12-.345.12-.72c0-.375-.04-.5-.12-.71-.08-.22-.21-.39-.39-.52s-.42-.2-.72-.2c-.28 0-.51.07-.7.21s-.33.32-.43.55c-.1.22-.14.46-.14.7s.04.49.13.71.22.4.41.54.43.21.73.21Z" fill="#ffffff" data-color="1"></path>
        <path d="M114.15 113.65v-4.74h1l.06.62c.12-.18.26-.32.41-.42s.32-.17.49-.21.36-.06.54-.06h.33v1.04h-.29c-.31 0-.58.06-.79.18s-.38.29-.49.51-.16.5-.16.82v2.25h-1.1Z" fill="#ffffff" data-color="1"></path>
        <path d="M118.18 108.36c-.21 0-.38-.06-.5-.19-.13-.13-.19-.29-.19-.5s.07-.36.2-.49.3-.19.5-.19.36.06.49.19.21.29.21.5-.07.37-.2.5-.3.19-.5.19Zm-.55 5.29v-4.74h1.1v4.74z" fill="#ffffff" data-color="1"></path>
        <path d="M121.96 113.71c-.49 0-.9-.1-1.26-.3-.35-.2-.62-.48-.81-.85s-.29-.79-.29-1.29.1-.93.29-1.29.46-.65.81-.85.76-.31 1.25-.31.89.1 1.24.31c.35.2.62.49.8.86s.28.8.28 1.3-.09.91-.28 1.27c-.18.36-.45.64-.79.84-.35.2-.77.3-1.25.3Zm-.01-1c.3 0 .54-.07.72-.2s.32-.31.4-.52c.08-.22.12-.45.12-.7s-.04-.49-.12-.71c-.09-.22-.22-.4-.4-.54-.18-.13-.42-.2-.72-.2s-.54.07-.73.2-.32.31-.4.53-.13.46-.13.72.04.49.13.71.22.39.41.52c.18.13.42.19.72.19" fill="#ffffff" data-color="1"></path>
        <path d="M46.11 123.21c-.48 0-.88-.11-1.19-.33s-.54-.51-.7-.88c-.15-.37-.23-.77-.23-1.22s.08-.89.24-1.26.41-.66.73-.87.73-.32 1.21-.32a2.2 2.2 0 0 1 1.02.24c.15.08.28.19.38.32v-2.11h1.1v6.36h-1.06l-.02-.59c-.11.15-.25.27-.4.37s-.32.17-.51.22-.38.07-.58.07Zm.21-.99c.29 0 .53-.07.71-.2q.285-.195.42-.54a1.9 1.9 0 0 0 0-1.43c-.09-.22-.23-.39-.42-.52s-.42-.2-.71-.2q-.465 0-.72.21c-.255.21-.31.32-.39.54a2.2 2.2 0 0 0-.05 1.26q.075.255.21.45c.1.13.22.24.38.31.16.08.35.11.58.11Z" fill="#ffffff" data-color="1"></path>
        <path d="M51.25 123.21q-.33 0-.63-.09c-.3-.09-.38-.15-.53-.27s-.28-.26-.37-.44-.14-.39-.14-.63q0-.465.18-.75c.12-.2.28-.34.49-.45.21-.1.44-.17.71-.21.26-.04.54-.06.83-.06h.93c0-.21-.03-.39-.1-.54a.83.83 0 0 0-.31-.36c-.14-.09-.32-.13-.54-.13-.14 0-.28.02-.4.05a.9.9 0 0 0-.32.15.5.5 0 0 0-.18.27h-1.12c.04-.25.13-.46.26-.63.13-.18.29-.32.48-.44.19-.11.4-.2.62-.26q.345-.09.69-.09c.69 0 1.19.2 1.51.59.32.4.47.95.47 1.67v2.56h-.97l-.03-.61c-.14.2-.3.35-.5.45-.19.1-.38.16-.56.18-.18.03-.33.04-.46.04Zm.22-.89c.24 0 .45-.04.64-.13s.33-.22.45-.38c.11-.16.17-.35.17-.56v-.15h-.86c-.14 0-.29 0-.43.01-.14 0-.27.03-.38.07s-.21.1-.27.18-.1.19-.1.33.04.26.11.35.17.16.3.21.25.07.39.07Z" fill="#ffffff" data-color="1"></path>
        <path d="M57.73 123.15v-3.77h-.74v-.97h.74v-.45c0-.36.05-.66.16-.89s.28-.4.52-.51.54-.16.91-.16h.7v.97h-.58c-.16 0-.29.03-.38.08s-.15.13-.19.24-.06.23-.06.38v.33h1.21v.97h-1.21v3.77h-1.09Z" fill="#ffffff" data-color="1"></path>
        <path d="M60.71 123.15v-6.36h1.1v6.36z" fill="#ffffff" data-color="1"></path>
        <path d="M65.04 123.21c-.49 0-.9-.1-1.26-.3-.35-.2-.62-.48-.81-.85s-.28-.79-.28-1.29.1-.93.29-1.29.46-.65.81-.85.76-.31 1.25-.31.89.1 1.24.31c.35.2.61.49.8.86s.28.8.28 1.3-.09.91-.28 1.27c-.18.36-.45.64-.8.84s-.77.3-1.25.3Zm-.01-1c.3 0 .54-.07.72-.2s.32-.31.4-.52c.08-.22.13-.45.13-.7s-.04-.49-.13-.71a1.2 1.2 0 0 0-.4-.54c-.18-.13-.42-.2-.72-.2s-.54.07-.73.2-.32.31-.41.53c-.08.22-.13.46-.13.72s.04.49.13.71.22.39.41.52c.18.13.42.19.72.19Z" fill="#ffffff" data-color="1"></path>
        <path d="M68.24 123.15v-4.74h1l.06.62c.12-.18.26-.32.41-.42s.32-.17.49-.21q.27-.06.54-.06h.32v1.04h-.29c-.31 0-.58.06-.79.18-.22.12-.38.29-.49.51s-.16.5-.16.82v2.25h-1.1Z" fill="#ffffff" data-color="1"></path>
        <path d="M73.23 123.21q-.33 0-.63-.09c-.3-.09-.38-.15-.53-.27s-.28-.26-.37-.44-.14-.39-.14-.63q0-.465.18-.75c.12-.2.28-.34.49-.45.21-.1.44-.17.71-.21.26-.04.54-.06.83-.06h.93c0-.21-.03-.39-.1-.54a.83.83 0 0 0-.31-.36c-.14-.09-.32-.13-.54-.13-.14 0-.28.02-.4.05a.9.9 0 0 0-.32.15.5.5 0 0 0-.18.27h-1.12c.04-.25.13-.46.26-.63.13-.18.29-.32.48-.44.19-.11.4-.2.62-.26q.345-.09.69-.09c.69 0 1.19.2 1.51.59.32.4.47.95.47 1.67v2.56h-.97l-.03-.61c-.14.2-.3.35-.5.45-.19.1-.38.16-.56.18-.18.03-.33.04-.46.04Zm.21-.89c.24 0 .45-.04.64-.13s.33-.22.45-.38c.11-.16.17-.35.17-.56v-.15h-.86c-.14 0-.29 0-.43.01-.14 0-.27.03-.38.07s-.21.1-.27.18-.1.19-.1.33.04.26.11.35.17.16.3.21.25.07.39.07Z" fill="#ffffff" data-color="1"></path>
        <path d="M79.84 117.86c-.21 0-.38-.06-.5-.19-.13-.13-.19-.29-.19-.5s.07-.36.2-.49.3-.19.5-.19.36.06.49.19.21.29.21.5-.07.37-.2.5-.3.19-.5.19Zm-.55 5.29v-4.74h1.1v4.74z" fill="#ffffff" data-color="1"></path>
        <path d="M81.45 123.15v-4.74h1.03l.06.6c.13-.17.27-.3.44-.4s.35-.17.53-.21.36-.07.52-.07c.45 0 .81.1 1.07.3s.45.46.55.79c.11.33.16.7.16 1.11v2.62h-1.1v-2.44c0-.17-.01-.34-.04-.51s-.07-.31-.14-.45a.8.8 0 0 0-.29-.31.93.93 0 0 0-.5-.12q-.39 0-.66.21c-.27.21-.31.32-.4.55s-.13.49-.13.79v2.28z" fill="#ffffff" data-color="1"></path>
        <path d="M88.92 123.15c-.38 0-.7-.05-.95-.15s-.43-.27-.56-.5c-.12-.23-.19-.53-.19-.92v-2.21h-.73v-.97h.73v-1.32h1.1v1.32h1.11v.97h-1.11v2.06c0 .24.04.42.13.55s.27.19.57.19h.38v.97h-.48Z" fill="#ffffff" data-color="1"></path>
        <path d="M92.28 123.21c-.49 0-.91-.1-1.26-.31-.35-.2-.61-.49-.78-.85q-.27-.54-.27-1.26c0-.72.09-.9.28-1.27.18-.37.45-.66.79-.87s.76-.32 1.25-.32c.36 0 .68.06.95.19s.5.3.68.53c.18.22.32.47.41.76.09.28.13.58.12.89 0 .07-.01.14-.02.21 0 .07-.02.14-.03.22h-3.33c.02.21.07.4.17.58.09.17.23.31.4.41s.38.15.64.15c.15 0 .29-.02.43-.06q.21-.06.36-.18.165-.12.21-.3h1.1c-.08.34-.22.62-.43.84q-.315.33-.75.48c-.29.1-.6.15-.92.15Zm-1.19-2.9h2.29c0-.2-.04-.38-.13-.54s-.22-.29-.38-.38c-.17-.09-.37-.14-.6-.14q-.375 0-.63.15a1 1 0 0 0-.39.4q-.135.24-.15.51Z" fill="#ffffff" data-color="1"></path>
        <path d="M97.14 123.21c-.23 0-.46-.02-.68-.07s-.44-.13-.63-.24c-.2-.11-.36-.26-.49-.45s-.22-.43-.26-.72h1.11c.05.13.12.24.23.32s.23.14.37.18.28.06.42.06c.08 0 .17 0 .27-.02.1-.01.19-.04.28-.07.09-.04.16-.09.21-.16s.08-.16.08-.28c0-.11-.03-.19-.09-.26q-.09-.09-.24-.15a1.3 1.3 0 0 0-.37-.09c-.26-.05-.53-.11-.83-.17a2.2 2.2 0 0 1-.76-.3.9.9 0 0 1-.23-.19c-.07-.07-.12-.15-.17-.24s-.08-.18-.1-.28q-.03-.15-.03-.33c0-.25.05-.47.16-.64.11-.18.25-.32.42-.43.18-.11.38-.19.61-.25s.46-.08.7-.08c.32 0 .62.05.88.15s.48.26.66.47.28.48.32.8h-1.04a.52.52 0 0 0-.28-.36c-.15-.09-.35-.14-.58-.14-.08 0-.17 0-.26.02s-.17.04-.26.07a.43.43 0 0 0-.28.39c0 .09.02.17.07.23.04.07.11.12.21.17s.2.08.33.11c.21.04.42.08.64.13.22.04.41.08.58.13.19.05.37.13.52.23s.28.23.36.39c.09.16.13.36.13.61q0 .435-.18.72c-.12.19-.27.34-.46.45s-.4.19-.64.23c-.23.05-.46.07-.69.07Z" fill="#ffffff" data-color="1"></path>
        <path d="M101.9 123.15c-.38 0-.7-.05-.95-.15s-.43-.27-.56-.5c-.12-.23-.19-.53-.19-.92v-2.21h-.73v-.97h.73v-1.32h1.1v1.32h1.11v.97h-1.11v2.06c0 .24.04.42.13.55s.27.19.57.19h.38v.97h-.48Z" fill="#ffffff" data-color="1"></path>
        <path d="M103.69 117.86c-.21 0-.38-.06-.5-.19s-.19-.29-.19-.5.07-.36.2-.49.3-.19.49-.19.36.06.5.19.21.29.21.5-.07.37-.2.5-.3.19-.5.19Zm-.55 5.29v-4.74h1.1v4.74z" fill="#ffffff" data-color="1"></path>
        <path d="M105.3 123.15v-4.74h1.03l.06.6c.12-.17.27-.3.44-.4s.35-.17.53-.21c.19-.04.36-.07.52-.07.45 0 .8.1 1.07.3.26.2.45.46.55.79.11.33.16.7.16 1.11v2.62h-1.1v-2.44c0-.17-.01-.34-.04-.51-.02-.17-.07-.31-.14-.45a.8.8 0 0 0-.29-.31c-.12-.08-.29-.12-.5-.12q-.39 0-.66.21c-.27.21-.32.32-.41.55s-.13.49-.13.79v2.28h-1.1Z" fill="#ffffff" data-color="1"></path>
        <path d="M112.22 123.21q-.33 0-.63-.09c-.2-.06-.38-.15-.53-.27s-.28-.26-.37-.44-.14-.39-.14-.63q0-.465.18-.75c.12-.2.28-.34.49-.45.21-.1.44-.17.71-.21s.54-.06.83-.06h.93c0-.21-.03-.39-.1-.54s-.17-.27-.31-.36-.32-.13-.54-.13c-.14 0-.28.02-.4.05s-.23.08-.31.15a.5.5 0 0 0-.18.27h-1.12c.04-.25.13-.46.26-.63.13-.18.29-.32.48-.44.19-.11.4-.2.62-.26q.345-.09.69-.09c.69 0 1.19.2 1.51.59.31.4.47.95.47 1.67v2.56h-.97l-.03-.61c-.14.2-.3.35-.49.45s-.38.16-.56.18c-.18.03-.33.04-.46.04Zm.21-.89c.24 0 .45-.04.64-.13s.33-.22.45-.38c.11-.16.17-.35.17-.56v-.15h-.86c-.14 0-.29 0-.43.01-.14 0-.27.03-.38.07s-.21.1-.27.18c-.07.08-.1.19-.1.33s.04.26.11.35c.08.09.17.16.3.21s.25.07.39.07Z" fill="#ffffff" data-color="1"></path>
        <path d="M115.77 123.15v-6.36h1.1v6.36z" fill="#ffffff" data-color="1"></path>
        <path d="M118.62 123.26c-.19 0-.36-.06-.49-.19s-.2-.3-.2-.51a.686.686 0 0 1 .7-.71c.19 0 .35.07.49.19.13.13.2.3.2.52s-.07.39-.2.51c-.13.13-.3.19-.5.19" fill="#ffffff" data-color="1"></path>
        <path d="M83.62 52.57c0-2.58-2.1-4.67-4.67-4.67h-3.71c-.5 0-.94-.39-.96-.89-.03-.54.4-.98.93-.98h11.16c1.57 0 2.88-1.28 2.85-2.85s-1.27-2.75-2.8-2.75H75.23c-.5 0-.94-.39-.96-.89-.03-.54.4-.98.93-.98h11.16c1.57 0 2.88-1.28 2.85-2.85a2.805 2.805 0 0 0-2.8-2.75H75.22c-.5 0-.94-.39-.96-.89-.03-.54.4-.98.93-.98h3.74c2.58 0 4.67-2.09 4.67-4.67v-1.99c0-.52.42-.94.94-.94s.93.42.93.93v1.99c0 1.83-.75 3.48-1.97 4.67h2.83c2.59 0 4.76 2.12 4.74 4.71a4.67 4.67 0 0 1-1.87 3.7c1.13.85 1.86 2.19 1.87 3.7.02 2.59-2.15 4.71-4.74 4.71H83.5a6.53 6.53 0 0 1 1.97 4.67v1.87c0 .52-.42.93-.93.93s-.93-.42-.93-.93v-1.87Z" fill="#ffffff" data-color="1"></path>
        <path d="M70.54 39.48c0-1.53.74-2.88 1.87-3.74a4.69 4.69 0 0 1-1.87-3.7c-.02-2.59 2.15-4.71 4.74-4.71h3.66c.52 0 .94-.42.94-.94V24.4c0-.52.42-.94.94-.94.51 0 .92.41.92.91v2.01a2.79 2.79 0 0 1-2.79 2.81h-3.68c-1.63 0-2.95 1.33-2.85 2.96a2.806 2.806 0 0 0 2.8 2.64h11.19c.5 0 .94.39.96.89.02.54-.4.98-.93.98H75.28c-1.63 0-2.95 1.33-2.85 2.96a2.806 2.806 0 0 0 2.8 2.64h11.19c.5 0 .94.39.96.89.02.54-.4.98-.93.98H75.29c-1.63 0-2.95 1.33-2.85 2.96a2.806 2.806 0 0 0 2.8 2.64h3.74c1.55 0 2.8 1.26 2.8 2.8v1.86c0 .52-.41.94-.93.94s-.94-.42-.94-.94v-1.86c0-.52-.42-.94-.94-.94h-3.66c-2.59 0-4.77-2.12-4.74-4.71.01-1.51.74-2.85 1.87-3.7a4.68 4.68 0 0 1-1.87-3.74Z" fill="#ffffff" data-color="1"></path>
        <path d="M93.28 34.53h1.87c.52 0 .93.42.93.93s-.42.93-.93.93h-1.87c-.52 0-.93-.42-.93-.93s.42-.93.93-.93" fill="#ffffff" data-color="1"></path>
        <path d="M89.08 29.8a.933.933 0 0 1-.34-1.28l.93-1.62c.26-.45.83-.6 1.28-.34s.6.83.34 1.28l-.93 1.62c-.26.45-.83.6-1.28.34" fill="#ffffff" data-color="1"></path>
        <path d="m91.81 30.92 1.62-.93a.94.94 0 0 1 1.28.34c.26.45.1 1.02-.34 1.28l-1.62.93c-.45.26-1.02.1-1.28-.34a.94.94 0 0 1 .34-1.28" fill="#ffffff" data-color="1"></path>
        <path d="M95.5 61.49c-9.25 5.66-21.34 5.13-29.88-1.66-7.04-5.59-10.79-14.64-9.69-23.57s7.14-17.13 15.58-20.76 18.45-2.42 25.81 3.07c8.31 6.19 12.08 16.96 9.7 26.99-.17.73.96 1.05 1.13.31 2.21-9.3-.56-19.23-7.42-25.92S83.5 10.6 74.22 13.29 57.82 23.37 55.44 32.6s.34 19.28 7.09 26.04c8.85 8.87 22.92 10.37 33.57 3.86.64-.39.05-1.41-.59-1.01Z" fill="#ffffff" data-color="1"></path>
    </g>
</svg>