<svg preserveAspectRatio="xMidYMid meet" data-bbox="28.3 21.785 102.08 103.775" viewBox="28.3 21.785 102.08 103.775" xmlns="http://www.w3.org/2000/svg" data-type="color" role="presentation" aria-hidden="true" aria-label="">
    <g>
        <path fill="#ffffff" d="M78.73 61.65v.01z" data-color="1"></path>
        <path d="M90.92 43.84c0-.87-.13-1.72-.38-2.5a7.1 7.1 0 0 0-1.94-3.06c-.45-.41-.96-.76-1.53-1.04-.55-.27-1.14-.48-1.77-.61h-.06c-.02 0-.04-.01-.06-.02-.48-.09-.97-.13-1.46-.13-.79 0-1.58.12-2.35.33-.29.08-.61.19-.9.31-.29.11-.56.23-.74.31-.04.02-.08.03-.13.03-.03 0-.07 0-.1-.02-.32-.11-.96-.31-1.65-.49-.34-.09-.7-.17-1.05-.23s-.68-.1-.97-.1c-.6 0-1.21.07-1.81.2-.92.21-1.76.57-2.5 1.05a7.6 7.6 0 0 0-2.59 2.89c-.6 1.16-.92 2.48-.92 3.87 0 .97.16 1.96.48 2.95.5 1.54 1.35 2.88 2.41 3.97.02.64.07 1.31.15 1.99.15 1.17.38 2.32.68 3.37.23.79.49 1.54.78 2.23.22.51.46.99.72 1.42.19.32.4.62.61.9.33.41.68.76 1.09 1.03.21.13.43.25.67.33s.5.13.76.13h.2c.2-.02.41-.06.62-.12.16-.05.33-.11.5-.19.13-.06.26-.14.38-.23.1-.07.19-.15.28-.24q.21-.21.36-.51c.1-.21.15-.44.16-.68s0-.01 0-.01v-.16c0-.1-.02-.26-.03-.45-.02-.29-.04-.64-.06-.93-.01-.15-.02-.28-.02-.38v-.15c0-.49.04-.96.12-1.37.06-.31.13-.59.22-.83.06-.18.13-.33.2-.45.05-.09.1-.17.14-.22 0 0 .01-.02.02-.03.03.03.06.08.09.13.04.06.08.14.13.23.13.27.26.64.34 1.08.09.44.14.94.14 1.47v.03s0 .1-.01.17c-.02.26-.05.67-.07 1.03-.01.18-.02.35-.03.48 0 .07 0 .12-.01.17v.17c0 .19.04.38.11.55.06.15.13.29.21.4.15.21.32.37.49.49.13.09.26.17.39.23.19.09.39.16.57.21s.36.08.53.09h.2c.21 0 .41-.03.61-.08.37-.1.7-.27.99-.49.26-.19.49-.41.71-.66.38-.43.73-.95 1.04-1.53.07-.13.14-.28.21-.44.22-.49.23-.66.41-1.17a1.03 1.03 0 0 0-.24-1.07c-.09-.09-.2-.17-.33-.23-.13-.05-.26-.08-.41-.08-.21 0-.4.07-.57.18-.16.11-.29.28-.36.47-.11.32-.23.63-.36.91-.19.44-.17.4-.37.74-.15.26-.31.48-.45.67-.22.28-.44.48-.6.58-.08.05-.15.08-.2.1s-.08.02-.11.02h-.02c-.06 0-.16-.02-.24-.05a3 3 0 0 1-.17-.06c.02-.25.05-.67.07-1.03.01-.18.02-.35.03-.49 0-.07 0-.13.01-.18v-.14c0-.62-.05-1.21-.15-1.75-.08-.41-.18-.8-.3-1.16-.1-.27-.21-.52-.34-.76-.1-.18-.21-.34-.33-.5-.18-.23-.4-.45-.68-.62a2 2 0 0 0-.46-.2 1.8 1.8 0 0 0-.52-.08c-.14 0-.28.02-.42.05-.25.06-.48.17-.67.3-.17.12-.32.25-.45.4-.23.25-.41.54-.56.85-.23.47-.4 1-.51 1.58-.12.58-.18 1.22-.18 1.88v.13c0 .05 0 .12.01.2.02.27.05.69.07 1.04.01.18.02.34.03.47 0 0-.02 0-.02.01-.04.02-.08.03-.12.05a1 1 0 0 1-.26.05h-.02c-.02 0-.04 0-.08-.01-.06-.02-.16-.06-.29-.15-.11-.08-.25-.2-.39-.36-.25-.28-.51-.66-.77-1.14-.39-.71-.75-1.62-1.05-2.63s-.54-2.13-.68-3.28c-.09-.76-.14-1.49-.14-2.19v-.12c0-.21-.09-.41-.24-.55l-.09-.08a8.34 8.34 0 0 1-2.18-3.42c-.26-.79-.38-1.57-.38-2.32 0-1.42.43-2.71 1.19-3.72.38-.51.84-.94 1.37-1.29s1.14-.61 1.82-.77q.675-.15 1.35-.15c1.12 0 2.25.3 3.3.86l.33.17c.05.03.11.04.17.04s.12-.01.17-.04l.31-.18a7.8 7.8 0 0 1 1.79-.73c.61-.17 1.21-.25 1.81-.25.36 0 .72.03 1.07.1h.05c.02 0 .03.01.05.02.62.13 1.16.35 1.63.64.73.45 1.3 1.08 1.7 1.85s.62 1.68.62 2.68c0 .85-.16 1.77-.52 2.71a9.3 9.3 0 0 1-2.08 3.24l-.08.08a.75.75 0 0 0-.22.53v.77q-.015.195-.06.48c-.04.28-.09.59-.13.87-.02.14-.09.6-.11.72-.01.12-.03.21-.03.29v.07c0 .29.12.55.31.74s.45.31.74.31h.02c.27 0 .51-.1.69-.27s.3-.41.32-.67c0-.05.01-.13.02-.23.03-.34.15-1.24.21-1.72.03-.24.05-.46.07-.63 0-.08.02-.15.02-.2.95-1.05 1.73-2.28 2.25-3.65.44-1.16.65-2.33.65-3.45Z" fill="#ffffff" data-color="1"></path>
        <path d="M67.62 38.86c-.2-.08-.38-.21-.53-.38s-.27-.38-.34-.62a.24.24 0 0 0-.06-.11.36.36 0 0 0-.14-.11.5.5 0 0 0-.16-.04.4.4 0 0 0-.21.06c-.03.02-.06.05-.09.08-.02.03-.04.07-.06.11-.07.23-.19.44-.34.61s-.32.3-.52.38c-.07.03-.14.09-.18.15a.394.394 0 0 0 .18.57c.19.08.37.21.51.38.15.17.26.38.34.61.01.04.03.08.06.11.04.05.09.09.14.11s.11.04.16.04q.105 0 .21-.06c.03-.02.06-.05.09-.08.02-.03.04-.07.06-.11.07-.24.19-.45.34-.62s.33-.3.53-.38c.07-.03.14-.08.18-.15a.36.36 0 0 0 0-.4.4.4 0 0 0-.18-.15Zm-1.45 1.52" fill="#ffffff" data-color="1"></path>
        <path d="M95.73 44.78a.4.4 0 0 0-.18-.15c-.2-.08-.38-.21-.53-.38s-.27-.38-.34-.62-.03-.08-.06-.11a.36.36 0 0 0-.14-.11.5.5 0 0 0-.16-.04.4.4 0 0 0-.21.06c-.03.02-.06.05-.09.08-.02.03-.04.07-.06.11-.07.23-.19.44-.34.61s-.32.3-.52.38c-.07.03-.14.09-.18.15a.394.394 0 0 0 .18.57c.19.08.37.21.51.38.15.17.26.38.34.61s.03.08.06.11c.04.05.09.09.14.11s.11.04.16.04q.105 0 .21-.06c.03-.02.06-.05.09-.08.02-.03.04-.07.06-.11.07-.24.19-.45.34-.62s.33-.3.53-.38c.07-.03.14-.08.18-.15a.36.36 0 0 0 0-.4Zm-.41.42" fill="#ffffff" data-color="1"></path>
        <path d="M68.11 36.2c.11.04.2.12.29.21.08.09.15.21.19.34.02.05.05.1.1.14.05.03.1.05.15.05s.1-.01.15-.05c.05-.03.08-.08.1-.14.04-.13.11-.25.19-.35s.18-.17.29-.21c.05-.02.1-.06.12-.1a.23.23 0 0 0 .04-.14c0-.05-.01-.1-.04-.14a.3.3 0 0 0-.12-.1.75.75 0 0 1-.29-.21 1 1 0 0 1-.19-.35c-.02-.05-.05-.11-.1-.14a.3.3 0 0 0-.15-.05c-.05 0-.1.01-.15.05-.05.03-.08.08-.1.14-.04.13-.11.25-.19.34s-.18.17-.29.21c-.05.02-.1.06-.12.1-.03.05-.04.1-.04.15s.01.1.04.15.07.08.12.1" fill="#ffffff" data-color="1"></path>
        <path d="M92.99 42.63c.04-.13.11-.25.19-.35s.18-.17.29-.21c.05-.02.1-.06.12-.1a.23.23 0 0 0 .04-.14c0-.05-.01-.1-.04-.14a.3.3 0 0 0-.12-.1.75.75 0 0 1-.29-.21 1 1 0 0 1-.19-.35c-.02-.05-.05-.11-.1-.14a.3.3 0 0 0-.15-.05c-.05 0-.1.01-.15.05-.05.03-.08.08-.1.14-.04.13-.11.25-.19.34s-.18.17-.29.21c-.05.02-.1.06-.12.1-.03.05-.04.1-.04.15s.01.1.04.15.07.08.12.1c.11.04.2.12.29.21.08.09.15.21.19.34.02.05.05.1.1.14.05.03.1.05.15.05s.1-.01.15-.05c.05-.03.08-.08.1-.14" fill="#ffffff" data-color="1"></path>
        <path d="M93.13 71.03c-9.25 5.66-21.34 5.13-29.88-1.66-7.04-5.59-10.79-14.64-9.69-23.57s7.14-17.13 15.58-20.76 18.45-2.42 25.81 3.07c8.31 6.19 12.08 16.96 9.7 26.99-.17.73.96 1.05 1.13.31 2.21-9.3-.56-19.23-7.42-25.92-6.91-6.75-17.23-9.35-26.51-6.66s-16.4 10.08-18.78 19.31.34 19.28 7.09 26.04c8.85 8.87 22.92 10.37 33.57 3.86.64-.39.05-1.41-.59-1.01Z" fill="#ffffff" data-color="1"></path>
        <path d="M54.64 91.62c-.57 0-1.1-.1-1.59-.29s-.89-.49-1.2-.89-.5-.92-.57-1.54h2c.05.21.15.37.29.5s.31.22.52.28.43.09.68.09c.15 0 .3-.01.45-.04s.28-.08.39-.17c.11-.08.16-.2.16-.35a.4.4 0 0 0-.09-.27.75.75 0 0 0-.26-.18c-.11-.05-.25-.09-.42-.13-.07-.01-.13-.03-.2-.04s-.14-.03-.2-.04-.14-.03-.21-.04c-.37-.08-.73-.17-1.08-.28s-.65-.25-.91-.42c-.26-.18-.47-.41-.63-.7-.15-.29-.23-.66-.23-1.11 0-.41.07-.76.22-1.04s.34-.51.58-.68.51-.3.79-.39.57-.15.85-.18.53-.05.75-.05c.54 0 1.02.1 1.43.3s.74.5 1 .89.41.86.46 1.41H55.7a.7.7 0 0 0-.2-.41c-.11-.11-.25-.2-.42-.26q-.255-.09-.6-.09c-.13 0-.26.01-.37.03-.12.02-.22.05-.3.1-.08.04-.15.1-.2.17s-.08.14-.08.23c0 .12.05.22.14.3s.23.15.41.21.4.12.67.19c.12.03.25.06.36.08.12.03.23.05.35.08.32.07.62.16.91.25.28.09.53.22.75.37s.39.36.51.62.19.59.19 1c0 .46-.09.85-.26 1.17s-.41.58-.71.78-.64.34-1.01.43-.76.14-1.14.14Z" fill="#ffffff" data-color="1"></path>
        <path d="M60.54 91.62c-.27 0-.53-.04-.77-.11s-.46-.18-.64-.33c-.19-.15-.34-.33-.45-.55s-.17-.48-.17-.78c0-.44.09-.78.28-1.03s.44-.43.76-.55.68-.19 1.09-.23c.41-.03.83-.05 1.27-.05h.26a.7.7 0 0 0-.38-.63.9.9 0 0 0-.45-.1c-.12 0-.25.02-.36.05-.12.04-.21.09-.29.15s-.12.14-.14.23h-1.94a2.1 2.1 0 0 1 .96-1.57c.26-.17.54-.29.86-.37s.65-.12 1-.12c.85 0 1.49.24 1.93.71s.65 1.17.65 2.08v3.11h-1.79v-.76c-.19.29-.41.49-.64.6s-.46.19-.65.21-.33.03-.4.03Zm.52-1.48c.18 0 .36-.05.53-.14s.32-.21.43-.35.17-.28.17-.42v-.04H61.1c-.09 0-.17 0-.25.03-.08.02-.15.05-.21.08-.06.04-.11.08-.15.14s-.05.13-.05.22c0 .1.03.19.08.26.06.07.13.12.23.16s.2.05.32.05Z" fill="#ffffff" data-color="1"></path>
        <path d="M67.82 91.62c-.89 0-1.58-.22-2.06-.67-.49-.44-.73-1.11-.73-2v-3.22h1.95v3.07c0 .19.03.37.08.52.05.16.14.28.27.38s.3.14.51.14c.24 0 .42-.05.52-.17.11-.11.17-.25.2-.41s.04-.32.04-.47v-3.07h1.94v3.22c0 .95-.24 1.63-.73 2.04-.49.42-1.15.62-1.97.62Zm-1.14-6.43 1.45-2.11h2.06l-1.88 2.11z" fill="#ffffff" data-color="1"></path>
        <path d="M73.98 91.62c-.59 0-1.09-.14-1.48-.41s-.69-.64-.88-1.09c-.19-.46-.29-.95-.29-1.5 0-.59.11-1.12.33-1.57s.54-.8.96-1.06.93-.38 1.53-.38q.3 0 .57.06c.18.04.35.1.5.18s.28.17.39.29v-2.4h1.95v7.79h-1.9v-.51c-.14.13-.3.24-.47.33s-.36.15-.56.2-.41.07-.64.07Zm.43-1.77c.29 0 .53-.06.7-.18s.3-.28.37-.46c.08-.19.12-.38.12-.58s-.04-.4-.12-.59-.2-.34-.37-.46q-.255-.18-.69-.18c-.435 0-.52.07-.69.2s-.29.3-.36.49c-.07.2-.1.39-.1.58 0 .15.02.29.06.43s.11.27.2.38q.135.165.36.27c.15.07.32.1.53.1Z" fill="#ffffff" data-color="1"></path>
        <path d="M81.31 91.62q-.885 0-1.56-.36a2.53 2.53 0 0 1-1.03-1.02c-.25-.44-.37-.96-.37-1.57s.12-1.14.37-1.6.6-.82 1.04-1.07.97-.38 1.56-.38c.42 0 .81.07 1.14.2q.51.195.87.57c.24.25.43.55.56.9s.19.75.19 1.19c0 .12 0 .24-.02.36q-.015.165-.06.36h-3.74c.01.14.06.27.14.4s.19.22.32.3c.14.07.32.11.53.11.18 0 .33-.02.46-.06s.23-.09.31-.16.13-.13.15-.2h1.9q-.15.72-.57 1.17c-.28.3-.61.53-.99.67q-.57.21-1.23.21Zm-1-3.69h1.96c0-.11-.03-.23-.09-.35s-.17-.22-.31-.3q-.21-.12-.57-.12c-.36 0-.41.04-.56.12s-.25.18-.32.3-.1.24-.1.35Z" fill="#ffffff" data-color="1"></path>
        <path d="M90.93 91.62c-.57 0-1.09-.11-1.54-.34-.46-.23-.82-.56-1.09-1.01s-.41-.98-.41-1.62.14-1.21.41-1.66.64-.79 1.09-1.03c.46-.23.96-.35 1.51-.35s1.07.12 1.52.36q.675.36 1.08 1.05c.27.45.4 1.01.4 1.66s-.13 1.17-.39 1.61-.61.77-1.06 1-.96.34-1.53.34Zm-.04-1.8q.42 0 .66-.18c.16-.12.28-.27.34-.45.07-.18.1-.36.1-.53s-.03-.36-.1-.55a1.15 1.15 0 0 0-.33-.48c-.16-.13-.38-.2-.67-.2s-.5.07-.67.2-.28.29-.35.48a1.58 1.58 0 0 0 0 1.1c.07.18.18.33.35.44.16.11.38.17.66.17Z" fill="#ffffff" data-color="1"></path>
        <path d="M94.71 91.54v-5.8h1.71l.13.55c.15-.21.31-.37.48-.46.18-.1.35-.15.53-.18q.27-.03.48-.03h.34c.1 0 .17 0 .2.02v1.88h-.37c-.27 0-.53.04-.76.1-.24.07-.43.2-.57.4-.14.19-.21.49-.21.87v2.64h-1.95Z" fill="#ffffff" data-color="1"></path>
        <path d="M101 91.62c-.27 0-.53-.04-.77-.11s-.46-.18-.64-.33c-.19-.15-.34-.33-.45-.55s-.17-.48-.17-.78c0-.44.09-.78.28-1.03s.44-.43.76-.55.68-.19 1.09-.23c.41-.03.83-.05 1.27-.05h.26a.7.7 0 0 0-.38-.63.9.9 0 0 0-.45-.1c-.12 0-.25.02-.36.05-.12.04-.21.09-.29.15s-.12.14-.14.23h-1.94a2.1 2.1 0 0 1 .96-1.57c.26-.17.54-.29.86-.37s.65-.12 1-.12c.85 0 1.49.24 1.93.71s.65 1.17.65 2.08v3.11h-1.79v-.76c-.19.29-.41.49-.64.6s-.46.19-.65.21-.33.03-.4.03Zm.53-1.48c.18 0 .36-.05.53-.14s.32-.21.43-.35.17-.28.17-.42v-.04h-1.09c-.09 0-.17 0-.25.03-.08.02-.15.05-.21.08-.06.04-.11.08-.15.14s-.05.13-.05.22c0 .1.03.19.08.26.06.07.13.12.23.16s.2.05.32.05Z" fill="#ffffff" data-color="1"></path>
        <path d="M105.51 91.54v-7.79h1.95v7.79z" fill="#ffffff" data-color="1"></path>
        <path d="M35.54 104.26c-.65 0-1.21-.14-1.67-.41-.46-.28-.81-.66-1.05-1.15s-.36-1.05-.36-1.68.12-1.21.37-1.7.6-.87 1.06-1.15 1.02-.42 1.67-.42 1.21.14 1.67.41c.46.28.81.66 1.06 1.15s.37 1.05.37 1.69-.12 1.19-.36 1.68-.6.88-1.06 1.16-1.03.42-1.69.42Zm.02-1.04c.46 0 .83-.1 1.12-.31s.5-.48.63-.82.2-.69.2-1.07c0-.29-.04-.56-.11-.83-.08-.26-.19-.5-.35-.71s-.36-.38-.61-.5-.54-.18-.88-.18c-.45 0-.82.11-1.11.32s-.51.48-.64.82c-.14.34-.21.7-.21 1.09s.07.74.21 1.08.35.61.64.81c.29.21.66.31 1.11.31Z" fill="#ffffff" data-color="1"></path>
        <path d="M42.05 104.19v-6.36h1.1v2.23c.13-.16.27-.29.44-.4.17-.1.34-.18.53-.22s.36-.07.53-.07c.45 0 .8.1 1.06.3s.44.46.54.79c.11.33.16.7.16 1.12v2.61h-1.1v-2.42c0-.16-.01-.33-.04-.5-.02-.17-.07-.32-.14-.46-.07-.13-.17-.24-.31-.33s-.31-.13-.54-.13c-.21 0-.39.04-.54.13q-.225.135-.36.36c-.09.15-.15.31-.19.49q-.06.27-.06.54v2.3h-1.1Z" fill="#ffffff" data-color="1"></path>
        <path d="M49.57 104.25c-.49 0-.91-.1-1.26-.31s-.61-.49-.78-.85-.27-.78-.27-1.26.09-.9.28-1.27c.18-.37.45-.66.79-.87s.76-.32 1.25-.32c.36 0 .67.06.95.19.27.13.5.3.68.53.18.22.32.47.41.76.09.28.13.58.13.89 0 .07-.01.14-.02.21 0 .07-.01.14-.03.22h-3.33c.02.21.07.4.17.58s.23.31.4.41.38.15.64.15c.15 0 .29-.02.43-.06s.26-.1.36-.18q.165-.12.21-.3h1.1c-.08.34-.22.62-.43.84s-.46.38-.75.48-.6.15-.92.15Zm-1.19-2.9h2.29c0-.2-.04-.38-.13-.54s-.22-.29-.38-.38-.36-.14-.6-.14q-.375 0-.63.15a1 1 0 0 0-.39.4q-.135.24-.15.51Z" fill="#ffffff" data-color="1"></path>
        <path d="m52.06 104.19 1.67-2.42-1.58-2.32h1.28l1.03 1.59 1-1.59h1.25l-1.58 2.35 1.7 2.39h-1.29l-1.12-1.64-1.12 1.64h-1.22Z" fill="#ffffff" data-color="1"></path>
        <path d="M58.94 104.25q-.33 0-.63-.09c-.3-.09-.38-.15-.53-.27s-.28-.26-.37-.44-.14-.39-.14-.63q0-.465.18-.75c.12-.2.28-.34.49-.45.21-.1.44-.17.71-.21.26-.04.54-.06.83-.06h.93c0-.21-.03-.39-.1-.54a.83.83 0 0 0-.31-.36c-.14-.09-.32-.13-.54-.13-.14 0-.28.02-.4.05a.9.9 0 0 0-.32.15.5.5 0 0 0-.18.27h-1.12c.04-.25.13-.46.26-.63.13-.18.29-.32.48-.44.19-.11.4-.2.62-.26q.345-.09.69-.09c.69 0 1.19.2 1.51.59.32.4.47.95.47 1.67v2.56h-.97l-.03-.61c-.14.2-.3.35-.5.45-.19.1-.38.16-.56.18-.18.03-.33.04-.46.04Zm.22-.89c.24 0 .45-.04.64-.13s.33-.22.45-.38c.11-.16.17-.35.17-.56v-.15h-.86c-.14 0-.29 0-.43.01-.14 0-.27.03-.38.07s-.21.1-.27.18-.1.19-.1.33.04.26.11.35.17.16.3.21.25.07.39.07Z" fill="#ffffff" data-color="1"></path>
        <path d="M62.5 104.19v-4.74h1.01l.07.54c.12-.16.25-.29.39-.37.14-.09.29-.15.44-.18.15-.04.3-.05.44-.05.3 0 .56.06.77.18s.38.3.5.54c.12-.17.25-.3.4-.41.15-.1.31-.18.48-.23s.34-.08.53-.08c.37 0 .66.08.88.23s.38.36.49.63c.1.27.15.57.15.91v3.04h-1.1v-2.69c0-.12 0-.25-.02-.38s-.04-.25-.09-.37a.7.7 0 0 0-.22-.28c-.1-.07-.23-.11-.41-.11s-.32.04-.43.11-.2.17-.27.3c-.07.12-.12.26-.14.41-.03.15-.04.29-.04.44v2.57h-1.1v-2.7c0-.11 0-.24-.02-.36-.01-.13-.04-.25-.09-.37s-.12-.21-.22-.28a.7.7 0 0 0-.41-.11q-.375 0-.57.21c-.13.14-.22.31-.26.5s-.07.39-.07.57v2.55h-1.1Z" fill="#ffffff" data-color="1"></path>
        <path d="M72.19 104.25c-.49 0-.91-.1-1.26-.31s-.61-.49-.78-.85-.27-.78-.27-1.26.09-.9.28-1.27c.18-.37.45-.66.79-.87s.76-.32 1.25-.32c.36 0 .67.06.95.19.27.13.5.3.68.53.18.22.32.47.41.76.09.28.13.58.13.89 0 .07-.01.14-.02.21 0 .07-.01.14-.03.22h-3.33c.02.21.07.4.17.58s.23.31.4.41.38.15.64.15c.15 0 .29-.02.43-.06s.26-.1.36-.18q.165-.12.21-.3h1.1c-.08.34-.22.62-.43.84s-.46.38-.75.48-.6.15-.92.15Zm-1.19-2.9h2.29c0-.2-.04-.38-.13-.54s-.22-.29-.38-.38-.36-.14-.6-.14q-.375 0-.63.15a1 1 0 0 0-.39.4q-.135.24-.15.51Z" fill="#ffffff" data-color="1"></path>
        <path d="M77.3 104.19c-.38 0-.7-.05-.95-.15s-.43-.27-.56-.5c-.12-.23-.18-.53-.18-.92v-2.21h-.73v-.97h.73v-1.32h1.1v1.32h1.11v.97h-1.11v2.06c0 .24.04.42.13.55s.27.19.57.19h.38v.97h-.48Z" fill="#ffffff" data-color="1"></path>
        <path d="M80.05 104.25q-.33 0-.63-.09c-.3-.09-.38-.15-.53-.27s-.28-.26-.37-.44-.14-.39-.14-.63q0-.465.18-.75c.12-.2.28-.34.49-.45.21-.1.44-.17.71-.21.26-.04.54-.06.83-.06h.93c0-.21-.03-.39-.1-.54a.83.83 0 0 0-.31-.36c-.14-.09-.32-.13-.54-.13-.14 0-.28.02-.4.05a.9.9 0 0 0-.32.15.5.5 0 0 0-.18.27h-1.12c.04-.25.13-.46.26-.63.13-.18.29-.32.48-.44.19-.11.4-.2.62-.26q.345-.09.69-.09c.69 0 1.19.2 1.51.59.32.4.47.95.47 1.67v2.56h-.97l-.03-.61c-.14.2-.3.35-.5.45-.19.1-.38.16-.56.18-.18.03-.33.04-.46.04Zm.22-.89c.24 0 .45-.04.64-.13s.33-.22.45-.38c.11-.16.17-.35.17-.56v-.15h-.86c-.14 0-.29 0-.43.01-.14 0-.27.03-.38.07s-.21.1-.27.18-.1.19-.1.33.04.26.11.35.17.16.3.21.25.07.39.07Z" fill="#ffffff" data-color="1"></path>
        <path d="M84.03 104.19v-3.77h-.74v-.97h.74V99c0-.36.05-.66.16-.89s.28-.4.52-.51.54-.16.91-.16h.7v.97h-.58c-.16 0-.29.03-.38.08s-.15.13-.19.24-.06.23-.06.38v.33h1.21v.97h-1.21v3.77h-1.09Z" fill="#ffffff" data-color="1"></path>
        <path d="M89.09 104.25c-.49 0-.9-.1-1.26-.3-.35-.2-.62-.48-.81-.85s-.28-.79-.28-1.29.1-.93.29-1.29.46-.65.81-.85.76-.31 1.25-.31.89.1 1.24.31c.35.2.61.49.8.86s.28.8.28 1.3-.09.91-.28 1.27c-.18.36-.45.64-.8.84s-.77.3-1.25.3Zm-.01-1c.3 0 .54-.07.72-.2s.32-.31.4-.52c.08-.22.13-.45.13-.7s-.04-.49-.13-.71a1.2 1.2 0 0 0-.4-.54c-.18-.13-.42-.2-.72-.2s-.54.07-.73.2-.32.31-.41.53c-.08.22-.13.46-.13.72s.04.49.13.71.22.39.41.52c.18.13.42.19.72.19Z" fill="#ffffff" data-color="1"></path>
        <path d="M94.11 104.25c-.23 0-.45-.02-.68-.07q-.345-.075-.63-.24c-.2-.11-.36-.26-.5-.45s-.22-.43-.26-.72h1.11c.05.13.12.24.23.32s.23.14.37.18.28.06.42.06c.08 0 .17 0 .27-.02.1-.01.19-.04.28-.07s.16-.09.21-.16.08-.16.08-.28c0-.11-.03-.19-.09-.26a.7.7 0 0 0-.24-.15c-.1-.04-.22-.07-.37-.09-.26-.05-.53-.11-.83-.17a2.2 2.2 0 0 1-.76-.3.9.9 0 0 1-.23-.19c-.07-.07-.12-.15-.17-.24s-.08-.18-.1-.28q-.03-.15-.03-.33c0-.25.05-.47.16-.64.11-.18.25-.32.42-.43.18-.11.38-.19.61-.25.23-.05.46-.08.7-.08.32 0 .62.05.88.15s.48.26.66.47.28.48.32.8H94.9q-.045-.225-.27-.36c-.225-.135-.35-.14-.58-.14-.08 0-.17 0-.26.02s-.17.04-.26.07a.43.43 0 0 0-.28.39c0 .09.02.17.07.23.04.07.11.12.21.17.09.04.2.08.33.11.2.04.42.08.64.13.22.04.41.08.58.13.19.05.37.13.52.23q.24.15.36.39c.12.24.13.36.13.61q0 .435-.18.72c-.12.19-.27.34-.46.45s-.4.19-.64.23c-.23.05-.46.07-.69.07Z" fill="#ffffff" data-color="1"></path>
        <path d="M97.23 104.19v-3.77h-.74v-.97h.74V99c0-.36.05-.66.16-.89s.28-.4.52-.51.54-.16.91-.16h.7v.97h-.58c-.16 0-.29.03-.38.08s-.15.13-.19.24-.06.23-.06.38v.33h1.21v.97h-1.21v3.77h-1.09Z" fill="#ffffff" data-color="1"></path>
        <path d="M101.72 104.25q-.33 0-.63-.09c-.3-.09-.38-.15-.53-.27s-.28-.26-.37-.44-.14-.39-.14-.63q0-.465.18-.75c.12-.2.28-.34.49-.45.21-.1.44-.17.71-.21.26-.04.54-.06.83-.06h.93c0-.21-.03-.39-.1-.54a.83.83 0 0 0-.31-.36c-.14-.09-.32-.13-.54-.13-.14 0-.28.02-.4.05a.9.9 0 0 0-.32.15.5.5 0 0 0-.18.27h-1.12c.04-.25.13-.46.26-.63.13-.18.29-.32.48-.44.19-.11.4-.2.62-.26q.345-.09.69-.09c.69 0 1.19.2 1.51.59.32.4.47.95.47 1.67v2.56h-.97l-.03-.61c-.14.2-.3.35-.5.45-.19.1-.38.16-.56.18-.18.03-.33.04-.46.04Zm.21-.89c.24 0 .45-.04.64-.13s.33-.22.45-.38c.11-.16.17-.35.17-.56v-.15h-.86c-.14 0-.29 0-.43.01-.14 0-.27.03-.38.07s-.21.1-.27.18-.1.19-.1.33.04.26.11.35.17.16.3.21.25.07.39.07Z" fill="#ffffff" data-color="1"></path>
        <path d="M107.34 104.19c-.38 0-.7-.05-.95-.15s-.43-.27-.56-.5c-.12-.23-.18-.53-.18-.92v-2.21h-.73v-.97h.73v-1.32h1.1v1.32h1.11v.97h-1.11v2.06c0 .24.04.42.13.55s.27.19.57.19h.38v.97h-.48Z" fill="#ffffff" data-color="1"></path>
        <path d="M110.75 104.25c-.49 0-.9-.1-1.26-.3-.35-.2-.62-.48-.81-.85s-.28-.79-.28-1.29.1-.93.29-1.29.46-.65.81-.85.76-.31 1.25-.31.89.1 1.24.31c.35.2.61.49.8.86s.28.8.28 1.3-.09.91-.28 1.27c-.18.36-.45.64-.8.84s-.77.3-1.25.3Zm0-1c.3 0 .54-.07.72-.2s.32-.31.4-.52c.08-.22.13-.45.13-.7s-.04-.49-.13-.71a1.2 1.2 0 0 0-.4-.54c-.18-.13-.42-.2-.72-.2s-.54.07-.73.2-.32.31-.41.53c-.08.22-.13.46-.13.72s.04.49.13.71.22.39.41.52c.18.13.42.19.72.19Z" fill="#ffffff" data-color="1"></path>
        <path d="M118.39 104.25c-.48 0-.88-.11-1.19-.33s-.54-.51-.7-.88c-.15-.37-.23-.77-.23-1.22s.08-.89.24-1.26.41-.66.73-.87.73-.32 1.21-.32a2.2 2.2 0 0 1 1.02.24c.15.08.28.19.38.32v-2.11h1.1v6.36h-1.06l-.02-.59c-.11.15-.25.27-.4.37s-.32.17-.51.22-.38.07-.58.07Zm.21-.99c.29 0 .53-.07.71-.2q.285-.195.42-.54a1.9 1.9 0 0 0 0-1.43c-.09-.22-.23-.39-.42-.52s-.42-.2-.71-.2q-.465 0-.72.21c-.255.21-.31.32-.39.54a2.2 2.2 0 0 0-.05 1.26q.075.255.21.45c.1.13.22.24.38.31.16.08.35.11.58.11Z" fill="#ffffff" data-color="1"></path>
        <path d="M124.15 104.25c-.49 0-.91-.1-1.26-.31s-.61-.49-.78-.85-.27-.78-.27-1.26.09-.9.28-1.27c.18-.37.45-.66.79-.87s.76-.32 1.25-.32c.36 0 .67.06.95.19.27.13.5.3.68.53.18.22.32.47.41.76.09.28.13.58.13.89 0 .07-.01.14-.02.21 0 .07-.01.14-.03.22h-3.33c.02.21.07.4.17.58s.23.31.4.41.38.15.64.15c.15 0 .29-.02.43-.06s.26-.1.36-.18q.165-.12.21-.3h1.1c-.08.34-.22.62-.43.84s-.46.38-.75.48-.6.15-.92.15Zm-1.19-2.9h2.29c0-.2-.04-.38-.13-.54s-.22-.29-.38-.38-.36-.14-.6-.14q-.375 0-.63.15a1 1 0 0 0-.39.4q-.135.24-.15.51Z" fill="#ffffff" data-color="1"></path>
        <path d="M30.37 113.75c-.23 0-.45-.02-.68-.07q-.345-.075-.63-.24c-.2-.11-.36-.26-.5-.45s-.22-.43-.26-.72h1.11c.05.13.12.24.23.32s.23.14.37.18.28.06.42.06c.08 0 .17 0 .27-.02.1-.01.19-.04.28-.07s.16-.09.21-.16.08-.16.08-.28c0-.11-.03-.19-.09-.26a.7.7 0 0 0-.24-.15c-.1-.04-.22-.07-.37-.09-.26-.05-.53-.11-.83-.17a2.2 2.2 0 0 1-.76-.3.9.9 0 0 1-.23-.19c-.07-.07-.12-.15-.17-.24s-.08-.18-.1-.28q-.03-.15-.03-.33c0-.25.05-.47.16-.64.11-.18.25-.32.42-.43.18-.11.38-.19.61-.25.23-.05.46-.08.7-.08.32 0 .62.05.88.15s.48.26.66.47.28.48.32.8h-1.04q-.045-.225-.27-.36c-.225-.135-.35-.14-.58-.14-.08 0-.17 0-.26.02s-.17.04-.26.07a.43.43 0 0 0-.28.39c0 .09.02.17.07.23.04.07.11.12.21.17.09.04.2.08.33.11.2.04.42.08.64.13.22.04.41.08.58.13.19.05.37.13.52.23q.24.15.36.39c.12.24.13.36.13.61q0 .435-.18.72c-.12.19-.27.34-.46.45s-.4.19-.64.23c-.23.05-.46.07-.69.07Z" fill="#ffffff" data-color="1"></path>
        <path d="M35.32 113.75c-.49 0-.9-.1-1.26-.3-.35-.2-.62-.48-.81-.85s-.28-.79-.28-1.29.1-.93.29-1.29.46-.65.81-.85.76-.31 1.25-.31.89.1 1.24.31c.35.2.61.49.8.86s.28.8.28 1.3-.09.91-.28 1.27c-.18.36-.45.64-.8.84s-.77.3-1.25.3Zm-.01-1c.3 0 .54-.07.72-.2s.32-.31.4-.52c.08-.22.13-.45.13-.7s-.04-.49-.13-.71a1.2 1.2 0 0 0-.4-.54c-.18-.13-.42-.2-.72-.2s-.54.07-.73.2-.32.31-.41.53c-.08.22-.13.46-.13.72s.04.49.13.71.22.39.41.52c.18.13.42.19.72.19Zm-.57-4.41.94-1.45h1.17l-1.16 1.45h-.94Z" fill="#ffffff" data-color="1"></path>
        <path d="M40.46 113.75c-.48 0-.88-.11-1.19-.33s-.54-.51-.7-.88c-.15-.37-.23-.77-.23-1.22s.08-.89.24-1.26.41-.66.73-.87.73-.32 1.21-.32a2.2 2.2 0 0 1 1.02.24c.15.08.28.19.38.32v-2.11h1.1v6.36h-1.06l-.02-.59c-.11.15-.25.27-.4.37s-.32.17-.51.22-.38.07-.58.07Zm.21-.99c.29 0 .53-.07.71-.2q.285-.195.42-.54a1.9 1.9 0 0 0 0-1.43c-.09-.22-.23-.39-.42-.52s-.42-.2-.71-.2q-.465 0-.72.21c-.255.21-.31.32-.39.54a2.2 2.2 0 0 0-.05 1.26q.075.255.21.45c.1.13.22.24.38.31.16.08.35.11.58.11Z" fill="#ffffff" data-color="1"></path>
        <path d="M44.63 108.4c-.21 0-.38-.06-.5-.19s-.19-.29-.19-.5.07-.36.2-.49.3-.19.5-.19.36.06.5.19.21.29.21.5-.07.37-.2.5-.3.19-.5.19Zm-.54 5.29v-4.74h1.1v4.74z" fill="#ffffff" data-color="1"></path>
        <path d="M48.42 113.75c-.49 0-.9-.1-1.26-.3-.35-.2-.62-.48-.81-.85s-.28-.79-.28-1.29.1-.93.29-1.29.46-.65.81-.85.76-.31 1.25-.31.89.1 1.24.31c.35.2.61.49.8.86s.28.8.28 1.3-.09.91-.28 1.27c-.18.36-.45.64-.8.84s-.77.3-1.25.3Zm-.01-1c.3 0 .54-.07.72-.2s.32-.31.4-.52c.08-.22.13-.45.13-.7s-.04-.49-.13-.71a1.2 1.2 0 0 0-.4-.54c-.18-.13-.42-.2-.72-.2s-.54.07-.73.2-.32.31-.41.53c-.08.22-.13.46-.13.72s.04.49.13.71.22.39.41.52c.18.13.42.19.72.19Z" fill="#ffffff" data-color="1"></path>
        <path d="M55.63 113.75q-.33 0-.63-.09c-.3-.09-.38-.15-.53-.27s-.28-.26-.37-.44-.14-.39-.14-.63q0-.465.18-.75c.12-.2.28-.34.49-.45.21-.1.44-.17.71-.21.26-.04.54-.06.83-.06h.93c0-.21-.03-.39-.1-.54a.83.83 0 0 0-.31-.36c-.14-.09-.32-.13-.54-.13-.14 0-.28.02-.4.05a.9.9 0 0 0-.32.15.5.5 0 0 0-.18.27h-1.12c.04-.25.13-.46.26-.63.13-.18.29-.32.48-.44.19-.11.4-.2.62-.26q.345-.09.69-.09c.69 0 1.19.2 1.51.59.32.4.47.95.47 1.67v2.56h-.97l-.03-.61c-.14.2-.3.35-.5.45-.19.1-.38.16-.56.18-.18.03-.33.04-.46.04Zm.22-.89c.24 0 .45-.04.64-.13s.33-.22.45-.38c.11-.16.17-.35.17-.56v-.15h-.86c-.14 0-.29 0-.43.01-.14 0-.27.03-.38.07s-.21.1-.27.18-.1.19-.1.33.04.26.11.35.17.16.3.21.25.07.39.07Z" fill="#ffffff" data-color="1"></path>
        <path d="M61.28 113.75c-.68 0-1.21-.18-1.57-.53q-.54-.525-.54-1.62v-2.66h1.1v2.58c0 .25.03.47.1.66s.18.33.33.43.35.15.58.15c.25 0 .45-.05.6-.16.15-.1.25-.25.31-.44s.09-.4.09-.64v-2.58h1.1v2.66c0 .74-.18 1.29-.55 1.63-.37.35-.88.52-1.54.52Z" fill="#ffffff" data-color="1"></path>
        <path d="m63.97 113.69 1.67-2.42-1.58-2.32h1.28l1.03 1.59 1-1.59h1.25l-1.58 2.35 1.7 2.39h-1.29l-1.12-1.64-1.12 1.64h-1.22Z" fill="#ffffff" data-color="1"></path>
        <path d="M69.88 108.4c-.21 0-.38-.06-.5-.19s-.19-.29-.19-.5.07-.36.2-.49.3-.19.5-.19.36.06.5.19.21.29.21.5-.07.37-.2.5-.3.19-.5.19Zm-.55 5.29v-4.74h1.1v4.74z" fill="#ffffff" data-color="1"></path>
        <path d="M71.49 113.69v-6.36h1.1v6.36z" fill="#ffffff" data-color="1"></path>
        <path d="M74.2 108.4c-.21 0-.38-.06-.5-.19s-.19-.29-.19-.5.07-.36.2-.49.3-.19.5-.19.36.06.5.19.21.29.21.5-.07.37-.2.5-.3.19-.5.19Zm-.55 5.29v-4.74h1.1v4.74z" fill="#ffffff" data-color="1"></path>
        <path d="M77.32 113.75q-.33 0-.63-.09c-.3-.09-.38-.15-.53-.27s-.28-.26-.37-.44-.14-.39-.14-.63q0-.465.18-.75c.12-.2.28-.34.49-.45.21-.1.44-.17.71-.21.26-.04.54-.06.83-.06h.93c0-.21-.03-.39-.1-.54a.83.83 0 0 0-.31-.36c-.14-.09-.32-.13-.54-.13-.14 0-.28.02-.4.05a.9.9 0 0 0-.32.15.5.5 0 0 0-.18.27h-1.12c.04-.25.13-.46.26-.63.13-.18.29-.32.48-.44.19-.11.4-.2.62-.26q.345-.09.69-.09c.69 0 1.19.2 1.51.59.32.4.47.95.47 1.67v2.56h-.97l-.03-.61c-.14.2-.3.35-.5.45-.19.1-.38.16-.56.18-.18.03-.33.04-.46.04Zm.22-.89c.24 0 .45-.04.64-.13s.33-.22.45-.38c.11-.16.17-.35.17-.56v-.15h-.86c-.14 0-.29 0-.43.01-.14 0-.27.03-.38.07s-.21.1-.27.18-.1.19-.1.33.04.26.11.35.17.16.3.21.25.07.39.07Z" fill="#ffffff" data-color="1"></path>
        <path d="M83.38 113.69v-4.74h1.03l.06.6c.13-.17.27-.3.44-.4s.35-.17.53-.21c.19-.04.36-.07.52-.07.45 0 .81.1 1.07.3s.45.46.55.79c.11.33.16.7.16 1.11v2.62h-1.1v-2.44c0-.17-.01-.34-.04-.51-.02-.17-.07-.31-.14-.45-.07-.13-.17-.24-.29-.31s-.29-.12-.5-.12q-.39 0-.66.21c-.27.21-.32.32-.41.55s-.13.49-.13.79v2.28h-1.1Z" fill="#ffffff" data-color="1"></path>
        <path d="M90.29 113.75q-.33 0-.63-.09c-.3-.09-.38-.15-.53-.27s-.28-.26-.37-.44-.14-.39-.14-.63q0-.465.18-.75c.12-.2.28-.34.49-.45.21-.1.44-.17.71-.21.26-.04.54-.06.83-.06h.93c0-.21-.03-.39-.1-.54a.83.83 0 0 0-.31-.36c-.14-.09-.32-.13-.54-.13-.14 0-.28.02-.4.05a.9.9 0 0 0-.32.15.5.5 0 0 0-.18.27h-1.12c.04-.25.13-.46.26-.63.13-.18.29-.32.48-.44.19-.11.4-.2.62-.26q.345-.09.69-.09c.69 0 1.19.2 1.51.59.32.4.47.95.47 1.67v2.56h-.97l-.03-.61c-.14.2-.3.35-.5.45-.19.1-.38.16-.56.18-.18.03-.33.04-.46.04Zm.22-.89c.24 0 .45-.04.64-.13s.33-.22.45-.38c.11-.16.17-.35.17-.56v-.15h-.86c-.14 0-.29 0-.43.01-.14 0-.27.03-.38.07s-.21.1-.27.18-.1.19-.1.33.04.26.11.35.17.16.3.21.25.07.39.07Z" fill="#ffffff" data-color="1"></path>
        <path d="M96.35 113.69v-4.74h1l.06.62c.12-.18.26-.32.41-.42s.32-.17.49-.21q.27-.06.54-.06h.32v1.04h-.29c-.31 0-.58.06-.79.18-.22.12-.38.29-.49.51s-.16.5-.16.82v2.25h-1.1Z" fill="#ffffff" data-color="1"></path>
        <path d="M101.95 113.75c-.49 0-.91-.1-1.26-.31s-.61-.49-.78-.85-.27-.78-.27-1.26.09-.9.28-1.27c.18-.37.45-.66.79-.87s.76-.32 1.25-.32c.36 0 .67.06.95.19.27.13.5.3.68.53.18.22.32.47.41.76.09.28.13.58.13.89 0 .07-.01.14-.02.21 0 .07-.01.14-.03.22h-3.33c.02.21.07.4.17.58s.23.31.4.41.38.15.64.15c.15 0 .29-.02.43-.06s.26-.1.36-.18q.165-.12.21-.3h1.1c-.08.34-.22.62-.43.84s-.46.38-.75.48-.6.15-.92.15Zm-1.19-2.9h2.29c0-.2-.04-.38-.13-.54s-.22-.29-.38-.38-.36-.14-.6-.14q-.375 0-.63.15a1 1 0 0 0-.39.4q-.135.24-.15.51Z" fill="#ffffff" data-color="1"></path>
        <path d="M106.92 113.75c-.48 0-.88-.11-1.19-.33s-.54-.51-.7-.88c-.15-.37-.23-.77-.23-1.22s.08-.89.24-1.26.41-.66.73-.87.73-.32 1.21-.32a2.2 2.2 0 0 1 1.02.24c.15.08.28.19.38.32v-2.11h1.1v6.36h-1.06l-.02-.59c-.11.15-.25.27-.4.37s-.32.17-.51.22-.38.07-.58.07Zm.21-.99c.29 0 .53-.07.71-.2q.285-.195.42-.54a1.9 1.9 0 0 0 0-1.43c-.09-.22-.23-.39-.42-.52s-.42-.2-.71-.2q-.465 0-.72.21c-.255.21-.31.32-.39.54a2.2 2.2 0 0 0-.05 1.26q.075.255.21.45c.1.13.22.24.38.31.16.08.35.11.58.11Z" fill="#ffffff" data-color="1"></path>
        <path d="M112.65 113.75c-.68 0-1.21-.18-1.57-.53q-.54-.525-.54-1.62v-2.66h1.1v2.58c0 .25.03.47.1.66s.18.33.33.43.35.15.58.15c.25 0 .45-.05.6-.16.15-.1.25-.25.31-.44s.09-.4.09-.64v-2.58h1.1v2.66c0 .74-.18 1.29-.55 1.63-.37.35-.88.52-1.54.52Z" fill="#ffffff" data-color="1"></path>
        <path d="M117.88 113.75c-.49 0-.91-.1-1.24-.3a1.9 1.9 0 0 1-.76-.85 3 3 0 0 1-.26-1.27c0-.48.09-.9.27-1.27s.44-.66.79-.87.77-.32 1.27-.32c.37 0 .69.06.98.19s.52.31.69.55c.18.24.29.54.34.9h-1.08a.86.86 0 0 0-.36-.5c-.17-.1-.36-.16-.59-.16-.31 0-.55.07-.72.22-.18.15-.3.33-.38.55q-.12.33-.12.69c0 .36.04.49.13.71.08.22.21.39.39.53.18.13.41.2.69.2.23 0 .43-.05.62-.15.18-.1.3-.27.36-.5h1.12c-.04.37-.16.67-.37.91-.2.24-.45.42-.76.54q-.465.18-.99.18Zm-.17 2.3h-.33c-.1 0-.2-.01-.29-.02v-.66c.13.01.26.02.38.01s.23-.02.32-.04.17-.07.23-.13.08-.14.08-.23a.24.24 0 0 0-.08-.19.6.6 0 0 0-.2-.09c-.08-.01-.14-.02-.2-.02-.08 0-.17 0-.26.02q-.15.03-.24.06l.33-1.29h.74l-.15.66h.21c.22.01.39.09.52.22s.19.33.19.59c0 .25-.06.45-.17.61q-.165.24-.45.36c-.19.08-.39.13-.61.15Z" fill="#ffffff" data-color="1"></path>
        <path d="M122.33 113.75q-.33 0-.63-.09c-.3-.09-.38-.15-.53-.27s-.28-.26-.37-.44-.14-.39-.14-.63q0-.465.18-.75c.12-.2.28-.34.49-.45.21-.1.44-.17.71-.21.26-.04.54-.06.83-.06h.93c0-.21-.03-.39-.1-.54a.83.83 0 0 0-.31-.36c-.14-.09-.32-.13-.54-.13-.14 0-.28.02-.4.05a.9.9 0 0 0-.32.15.5.5 0 0 0-.18.27h-1.12c.04-.25.13-.46.26-.63.13-.18.29-.32.48-.44.19-.11.4-.2.62-.26q.345-.09.69-.09c.69 0 1.19.2 1.51.59.32.4.47.95.47 1.67v2.56h-.97l-.03-.61c-.14.2-.3.35-.5.45-.19.1-.38.16-.56.18-.18.03-.33.04-.46.04Zm1.24-5.38c-.17 0-.32-.03-.44-.09-.13-.06-.24-.14-.34-.22s-.19-.16-.27-.22a.4.4 0 0 0-.24-.09c-.08 0-.15.04-.18.11-.04.07-.06.15-.07.25s0 .17 0 .23h-.79c-.01-.23.01-.45.07-.66s.16-.38.32-.52c.15-.13.37-.2.64-.2.16 0 .29.03.4.09s.22.13.31.22.18.15.26.22c.08.06.16.09.23.09.1 0 .16-.03.2-.1s.06-.15.06-.23v-.23h.79c0 .22-.02.44-.07.65s-.15.38-.28.52c-.14.13-.34.2-.6.2Zm-1.02 4.49c.24 0 .45-.04.64-.13s.33-.22.45-.38c.11-.16.17-.35.17-.56v-.15h-.86c-.14 0-.29 0-.43.01-.14 0-.27.03-.38.07s-.21.1-.27.18-.1.19-.1.33.04.26.11.35.17.16.3.21.25.07.39.07Z" fill="#ffffff" data-color="1"></path>
        <path d="M128.06 113.75c-.49 0-.9-.1-1.26-.3-.35-.2-.62-.48-.81-.85s-.28-.79-.28-1.29.1-.93.29-1.29.46-.65.81-.85.76-.31 1.25-.31.89.1 1.24.31c.35.2.61.49.8.86s.28.8.28 1.3-.09.91-.28 1.27c-.18.36-.45.64-.8.84s-.77.3-1.25.3Zm-.01-1c.3 0 .54-.07.72-.2s.32-.31.4-.52c.08-.22.13-.45.13-.7s-.04-.49-.13-.71a1.2 1.2 0 0 0-.4-.54c-.18-.13-.42-.2-.72-.2s-.54.07-.73.2-.32.31-.41.53c-.08.22-.13.46-.13.72s.04.49.13.71.22.39.41.52c.18.13.42.19.72.19Z" fill="#ffffff" data-color="1"></path>
        <path d="M31.51 123.25c-.48 0-.88-.11-1.19-.33s-.54-.51-.7-.88c-.15-.37-.23-.77-.23-1.22s.08-.89.24-1.26.41-.66.73-.87.73-.32 1.21-.32a2.2 2.2 0 0 1 1.02.24c.15.08.28.19.38.32v-2.11h1.1v6.36h-1.06l-.02-.59c-.11.15-.25.27-.4.37s-.32.17-.51.22-.38.07-.58.07Zm.21-.99c.29 0 .53-.07.71-.2q.285-.195.42-.54a1.9 1.9 0 0 0 0-1.43c-.09-.22-.23-.39-.42-.52s-.42-.2-.71-.2q-.465 0-.72.21c-.255.21-.31.32-.39.54a2.2 2.2 0 0 0-.05 1.26q.075.255.21.45c.1.13.22.24.38.31.16.08.35.11.58.11Z" fill="#ffffff" data-color="1"></path>
        <path d="M36.65 123.25q-.33 0-.63-.09c-.3-.09-.38-.15-.53-.27s-.28-.26-.37-.44-.14-.39-.14-.63q0-.465.18-.75c.12-.2.28-.34.49-.45.21-.1.44-.17.71-.21.26-.04.54-.06.83-.06h.93c0-.21-.03-.39-.1-.54a.83.83 0 0 0-.31-.36c-.14-.09-.32-.13-.54-.13-.14 0-.28.02-.4.05a.9.9 0 0 0-.32.15.5.5 0 0 0-.18.27h-1.12c.04-.25.13-.46.26-.63.13-.18.29-.32.48-.44.19-.11.4-.2.62-.26q.345-.09.69-.09c.69 0 1.19.2 1.51.59.32.4.47.95.47 1.67v2.56h-.97l-.03-.61c-.14.2-.3.35-.5.45-.19.1-.38.16-.56.18-.18.03-.33.04-.46.04Zm.22-.89c.24 0 .45-.04.64-.13s.33-.22.45-.38c.11-.16.17-.35.17-.56v-.15h-.86c-.14 0-.29 0-.43.01-.14 0-.27.03-.38.07s-.21.1-.27.18-.1.19-.1.33.04.26.11.35.17.16.3.21.25.07.39.07Z" fill="#ffffff" data-color="1"></path>
        <path d="M43.13 123.19v-3.77h-.74v-.97h.74V118c0-.36.05-.66.16-.89s.28-.4.52-.51.54-.16.91-.16h.7v.97h-.58c-.16 0-.29.03-.38.08s-.15.13-.19.24-.06.23-.06.38v.33h1.21v.97h-1.21v3.77h-1.09Z" fill="#ffffff" data-color="1"></path>
        <path d="M48.19 123.25c-.49 0-.9-.1-1.26-.3-.35-.2-.62-.48-.81-.85s-.28-.79-.28-1.29.1-.93.29-1.29.46-.65.81-.85.76-.31 1.25-.31.89.1 1.24.31c.35.2.61.49.8.86s.28.8.28 1.3-.09.91-.28 1.27c-.18.36-.45.64-.8.84s-.77.3-1.25.3Zm-.01-1c.3 0 .54-.07.72-.2s.32-.31.4-.52c.08-.22.13-.45.13-.7s-.04-.49-.13-.71a1.2 1.2 0 0 0-.4-.54c-.18-.13-.42-.2-.72-.2s-.54.07-.73.2-.32.31-.41.53c-.08.22-.13.46-.13.72s.04.49.13.71.22.39.41.52c.18.13.42.19.72.19Z" fill="#ffffff" data-color="1"></path>
        <path d="M51.39 123.19v-4.74h1l.06.62c.12-.18.26-.32.41-.42s.32-.17.49-.21q.27-.06.54-.06h.32v1.04h-.29c-.31 0-.58.06-.79.18-.22.12-.38.29-.49.51s-.16.5-.16.82v2.25h-1.1Z" fill="#ffffff" data-color="1"></path>
        <path d="M54.87 123.19v-4.74h1.01l.07.54c.12-.16.25-.29.39-.37.14-.09.29-.15.44-.18.15-.04.3-.05.44-.05.3 0 .56.06.77.18s.38.3.5.54c.12-.17.25-.3.4-.41.15-.1.31-.18.48-.23s.34-.08.53-.08c.37 0 .66.08.88.23s.38.36.49.63c.1.27.15.57.15.91v3.04h-1.1v-2.69c0-.12 0-.25-.02-.38s-.04-.25-.09-.37a.7.7 0 0 0-.22-.28c-.1-.07-.23-.11-.41-.11s-.32.04-.43.11-.2.17-.27.3c-.07.12-.12.26-.14.41-.03.15-.04.29-.04.44v2.57h-1.1v-2.7c0-.11 0-.24-.02-.36-.01-.13-.04-.25-.09-.37s-.12-.21-.22-.28a.7.7 0 0 0-.41-.11q-.375 0-.57.21c-.13.14-.22.31-.26.5s-.07.39-.07.57v2.55h-1.1Z" fill="#ffffff" data-color="1"></path>
        <path d="M63.95 123.25q-.33 0-.63-.09c-.3-.09-.38-.15-.53-.27s-.28-.26-.37-.44-.14-.39-.14-.63q0-.465.18-.75c.12-.2.28-.34.49-.45.21-.1.44-.17.71-.21.26-.04.54-.06.83-.06h.93c0-.21-.03-.39-.1-.54a.83.83 0 0 0-.31-.36c-.14-.09-.32-.13-.54-.13-.14 0-.28.02-.4.05a.9.9 0 0 0-.32.15.5.5 0 0 0-.18.27h-1.12c.04-.25.13-.46.26-.63.13-.18.29-.32.48-.44.19-.11.4-.2.62-.26q.345-.09.69-.09c.69 0 1.19.2 1.51.59.32.4.47.95.47 1.67v2.56h-.97l-.03-.61c-.14.2-.3.35-.5.45-.19.1-.38.16-.56.18-.18.03-.33.04-.46.04Zm.22-.89c.24 0 .45-.04.64-.13s.33-.22.45-.38c.11-.16.17-.35.17-.56v-.15h-.86c-.14 0-.29 0-.43.01-.14 0-.27.03-.38.07s-.21.1-.27.18-.1.19-.1.33.04.26.11.35.17.16.3.21.25.07.39.07Z" fill="#ffffff" data-color="1"></path>
        <path d="M69.59 123.25c-.49 0-.91-.1-1.24-.3a1.9 1.9 0 0 1-.76-.85 3 3 0 0 1-.26-1.27c0-.48.09-.9.27-1.27s.44-.66.79-.87.77-.32 1.27-.32c.37 0 .69.06.98.19s.52.31.69.55c.18.24.29.54.34.9h-1.08a.86.86 0 0 0-.36-.5c-.17-.1-.36-.16-.59-.16-.31 0-.55.07-.72.22-.18.15-.3.33-.38.55q-.12.33-.12.69c0 .36.04.49.13.71.08.22.21.39.39.53.18.13.41.2.69.2.23 0 .43-.05.62-.15.18-.1.3-.27.36-.5h1.12c-.04.37-.16.67-.37.91-.2.24-.45.42-.76.54q-.465.18-.99.18Zm-.16 2.3h-.33c-.1 0-.2-.01-.29-.02v-.66c.13.01.26.02.38.01s.23-.02.32-.04.17-.07.23-.13.08-.14.08-.23a.24.24 0 0 0-.08-.19.6.6 0 0 0-.2-.09c-.08-.01-.14-.02-.2-.02-.08 0-.17 0-.26.02q-.15.03-.24.06l.33-1.29h.74l-.15.66h.21c.22.01.39.09.52.22s.19.33.19.59c0 .25-.06.45-.17.61q-.165.24-.45.36c-.19.08-.39.13-.61.15Z" fill="#ffffff" data-color="1"></path>
        <path d="M74.05 123.25q-.33 0-.63-.09c-.3-.09-.38-.15-.53-.27s-.28-.26-.37-.44-.14-.39-.14-.63q0-.465.18-.75c.12-.2.28-.34.49-.45.21-.1.44-.17.71-.21.26-.04.54-.06.83-.06h.93c0-.21-.03-.39-.1-.54a.83.83 0 0 0-.31-.36c-.14-.09-.32-.13-.54-.13-.14 0-.28.02-.4.05a.9.9 0 0 0-.32.15.5.5 0 0 0-.18.27h-1.12c.04-.25.13-.46.26-.63.13-.18.29-.32.48-.44.19-.11.4-.2.62-.26q.345-.09.69-.09c.69 0 1.19.2 1.51.59.32.4.47.95.47 1.67v2.56h-.97l-.03-.61c-.14.2-.3.35-.5.45-.19.1-.38.16-.56.18-.18.03-.33.04-.46.04Zm1.24-5.38c-.17 0-.32-.03-.44-.09-.13-.06-.24-.14-.34-.22s-.19-.16-.27-.22a.4.4 0 0 0-.24-.09c-.08 0-.15.04-.18.11-.04.07-.06.15-.07.25s0 .17 0 .23h-.79c-.01-.23.01-.45.07-.66s.16-.38.32-.52c.15-.13.37-.2.64-.2.16 0 .29.03.4.09s.22.13.31.22.18.15.26.22c.08.06.16.09.23.09.1 0 .16-.03.2-.1s.06-.15.06-.23v-.23h.79c0 .22-.02.44-.07.65s-.15.38-.28.52c-.14.13-.34.2-.6.2Zm-1.03 4.49c.24 0 .45-.04.64-.13s.33-.22.45-.38c.11-.16.17-.35.17-.56v-.15h-.86c-.14 0-.29 0-.43.01-.14 0-.27.03-.38.07s-.21.1-.27.18-.1.19-.1.33.04.26.11.35.17.16.3.21.25.07.39.07Z" fill="#ffffff" data-color="1"></path>
        <path d="M79.77 123.25c-.49 0-.9-.1-1.26-.3-.35-.2-.62-.48-.81-.85s-.28-.79-.28-1.29.1-.93.29-1.29.46-.65.81-.85.76-.31 1.25-.31.89.1 1.24.31c.35.2.61.49.8.86s.28.8.28 1.3-.09.91-.28 1.27c-.18.36-.45.64-.8.84s-.77.3-1.25.3Zm-.01-1c.3 0 .54-.07.72-.2s.32-.31.4-.52c.08-.22.13-.45.13-.7s-.04-.49-.13-.71a1.2 1.2 0 0 0-.4-.54c-.18-.13-.42-.2-.72-.2s-.54.07-.73.2-.32.31-.41.53c-.08.22-.13.46-.13.72s.04.49.13.71.22.39.41.52c.18.13.42.19.72.19Z" fill="#ffffff" data-color="1"></path>
        <path d="M87.41 123.25c-.48 0-.88-.11-1.19-.33s-.54-.51-.7-.88c-.15-.37-.23-.77-.23-1.22s.08-.89.24-1.26.41-.66.73-.87.73-.32 1.21-.32a2.2 2.2 0 0 1 1.02.24c.15.08.28.19.38.32v-2.11h1.1v6.36h-1.06l-.02-.59c-.11.15-.25.27-.4.37s-.32.17-.51.22-.38.07-.58.07Zm.21-.99c.29 0 .53-.07.71-.2q.285-.195.42-.54a1.9 1.9 0 0 0 0-1.43c-.09-.22-.23-.39-.42-.52s-.42-.2-.71-.2q-.465 0-.72.21c-.255.21-.31.32-.39.54a2.2 2.2 0 0 0-.05 1.26q.075.255.21.45c.1.13.22.24.38.31.16.08.35.11.58.11Z" fill="#ffffff" data-color="1"></path>
        <path d="M93.16 123.25c-.49 0-.91-.1-1.26-.31s-.61-.49-.78-.85-.27-.78-.27-1.26.09-.9.28-1.27c.18-.37.45-.66.79-.87s.76-.32 1.25-.32c.36 0 .67.06.95.19.27.13.5.3.68.53.18.22.32.47.41.76.09.28.13.58.13.89 0 .07-.01.14-.02.21 0 .07-.01.14-.03.22h-3.33c.02.21.07.4.17.58s.23.31.4.41.38.15.64.15c.15 0 .29-.02.43-.06s.26-.1.36-.18q.165-.12.21-.3h1.1c-.08.34-.22.62-.43.84s-.46.38-.75.48-.6.15-.92.15Zm-1.19-2.9h2.29c0-.2-.04-.38-.13-.54s-.22-.29-.38-.38-.36-.14-.6-.14q-.375 0-.63.15a1 1 0 0 0-.39.4q-.135.24-.15.51Z" fill="#ffffff" data-color="1"></path>
        <path d="M100.78 123.19c-.38 0-.7-.05-.95-.15s-.43-.27-.56-.5c-.12-.23-.18-.53-.18-.92v-2.21h-.73v-.97h.73v-1.32h1.1v1.32h1.11v.97h-1.11v2.06c0 .24.04.42.13.55s.27.19.57.19h.38v.97h-.48Z" fill="#ffffff" data-color="1"></path>
        <path d="M103.53 123.25q-.33 0-.63-.09c-.3-.09-.38-.15-.53-.27s-.28-.26-.37-.44-.14-.39-.14-.63q0-.465.18-.75c.12-.2.28-.34.49-.45.21-.1.44-.17.71-.21.26-.04.54-.06.83-.06h.93c0-.21-.03-.39-.1-.54a.83.83 0 0 0-.31-.36c-.14-.09-.32-.13-.54-.13-.14 0-.28.02-.4.05a.9.9 0 0 0-.32.15.5.5 0 0 0-.18.27h-1.12c.04-.25.13-.46.26-.63.13-.18.29-.32.48-.44.19-.11.4-.2.62-.26q.345-.09.69-.09c.69 0 1.19.2 1.51.59.32.4.47.95.47 1.67v2.56h-.97l-.03-.61c-.14.2-.3.35-.5.45-.19.1-.38.16-.56.18-.18.03-.33.04-.46.04Zm.22-.89c.24 0 .45-.04.64-.13s.33-.22.45-.38c.11-.16.17-.35.17-.56v-.15h-.86c-.14 0-.29 0-.43.01-.14 0-.27.03-.38.07s-.21.1-.27.18-.1.19-.1.33.04.26.11.35.17.16.3.21.25.07.39.07Zm-.24-4.54.94-1.45h1.17l-1.16 1.45h-.94Z" fill="#ffffff" data-color="1"></path>
        <path d="M107.08 123.19v-4.74h1l.06.62c.12-.18.26-.32.41-.42s.32-.17.49-.21q.27-.06.54-.06h.32v1.04h-.29c-.31 0-.58.06-.79.18-.22.12-.38.29-.49.51s-.16.5-.16.82v2.25h-1.1Z" fill="#ffffff" data-color="1"></path>
        <path d="M112.63 123.19c-.38 0-.7-.05-.95-.15s-.43-.27-.56-.5c-.12-.23-.18-.53-.18-.92v-2.21h-.73v-.97h.73v-1.32h1.1v1.32h1.11v.97h-1.11v2.06c0 .24.04.42.13.55s.27.19.57.19h.38v.97h-.48Z" fill="#ffffff" data-color="1"></path>
        <path d="M115.38 123.25q-.33 0-.63-.09c-.3-.09-.38-.15-.53-.27s-.28-.26-.37-.44-.14-.39-.14-.63q0-.465.18-.75c.12-.2.28-.34.49-.45.21-.1.44-.17.71-.21.26-.04.54-.06.83-.06h.93c0-.21-.03-.39-.1-.54a.83.83 0 0 0-.31-.36c-.14-.09-.32-.13-.54-.13-.14 0-.28.02-.4.05a.9.9 0 0 0-.32.15.5.5 0 0 0-.18.27h-1.12c.04-.25.13-.46.26-.63.13-.18.29-.32.48-.44.19-.11.4-.2.62-.26q.345-.09.69-.09c.69 0 1.19.2 1.51.59.32.4.47.95.47 1.67v2.56h-.97l-.03-.61c-.14.2-.3.35-.5.45-.19.1-.38.16-.56.18-.18.03-.33.04-.46.04Zm.22-.89c.24 0 .45-.04.64-.13s.33-.22.45-.38c.11-.16.17-.35.17-.56v-.15H116c-.14 0-.29 0-.43.01-.14 0-.27.03-.38.07s-.21.1-.27.18-.1.19-.1.33.04.26.11.35.17.16.3.21.25.07.39.07Z" fill="#ffffff" data-color="1"></path>
        <path d="M118.94 123.19v-4.74h1l.06.62c.12-.18.26-.32.41-.42s.32-.17.49-.21q.27-.06.54-.06h.32v1.04h-.29c-.31 0-.58.06-.79.18-.22.12-.38.29-.49.51s-.16.5-.16.82v2.25h-1.1Z" fill="#ffffff" data-color="1"></path>
        <path d="M124.58 123.25c-.49 0-.9-.1-1.26-.3-.35-.2-.62-.48-.81-.85s-.28-.79-.28-1.29.1-.93.29-1.29.46-.65.81-.85.76-.31 1.25-.31.89.1 1.24.31c.35.2.61.49.8.86s.28.8.28 1.3-.09.91-.28 1.27c-.18.36-.45.64-.8.84s-.77.3-1.25.3Zm-.01-1c.3 0 .54-.07.72-.2s.32-.31.4-.52c.08-.22.13-.45.13-.7s-.04-.49-.13-.71a1.2 1.2 0 0 0-.4-.54c-.18-.13-.42-.2-.72-.2s-.54.07-.73.2-.32.31-.41.53c-.08.22-.13.46-.13.72s.04.49.13.71.22.39.41.52c.18.13.42.19.72.19Z" fill="#ffffff" data-color="1"></path>
        <path d="M128.47 123.3c-.19 0-.36-.06-.49-.19s-.2-.3-.2-.51a.686.686 0 0 1 .71-.71c.2 0 .35.07.49.19s.2.3.2.52-.07.39-.2.51-.3.19-.5.19Z" fill="#ffffff" data-color="1"></path>
    </g>
</svg>