<svg preserveAspectRatio="xMidYMid meet" data-bbox="12 10.114 132.61 124.486" viewBox="12 10.114 132.61 124.486" xmlns="http://www.w3.org/2000/svg" data-type="color" role="presentation" aria-hidden="true" aria-label="">
    <g>
        <path d="M24.95 80.75v-7.79h3.27c.61 0 1.14.09 1.61.26s.82.46 1.09.86c.26.4.4.95.4 1.64q0 .96-.42 1.59c-.28.42-.66.74-1.13.94-.48.21-1.02.31-1.62.31h-1.2v2.19h-1.99Zm1.99-3.96h1.2c.38 0 .68-.09.89-.27s.32-.44.32-.78c0-.3-.09-.53-.28-.69s-.5-.24-.94-.24h-1.19z" fill="#ffffff" data-color="1"></path>
        <path d="M33.69 80.84c-.27 0-.53-.04-.77-.11s-.46-.18-.64-.33c-.19-.15-.34-.33-.45-.55s-.17-.48-.17-.78c0-.44.09-.78.28-1.03s.44-.43.76-.55.68-.19 1.09-.23c.41-.03.83-.05 1.27-.05h.26a.7.7 0 0 0-.38-.63.9.9 0 0 0-.45-.1c-.12 0-.25.02-.36.05-.12.04-.21.09-.29.15s-.12.14-.14.23h-1.94a2.1 2.1 0 0 1 .96-1.57c.26-.17.54-.29.86-.37s.65-.12 1-.12c.85 0 1.49.24 1.93.71s.65 1.17.65 2.08v3.11h-1.79v-.76c-.19.29-.41.49-.64.6s-.46.19-.65.21-.33.03-.4.03Zm.53-1.49c.18 0 .36-.05.53-.14s.32-.21.43-.35.17-.28.17-.42v-.04h-1.09c-.09 0-.17 0-.25.03-.08.02-.15.05-.21.08s-.11.08-.15.14-.05.13-.05.22c0 .1.03.19.08.26.06.07.13.12.23.16s.2.06.32.06Z" fill="#ffffff" data-color="1"></path>
        <path d="M38.2 80.75v-7.79h1.95v7.79z" fill="#ffffff" data-color="1"></path>
        <path d="M43.02 80.84c-.27 0-.53-.04-.77-.11s-.46-.18-.64-.33c-.19-.15-.34-.33-.45-.55s-.17-.48-.17-.78c0-.44.09-.78.28-1.03s.44-.43.76-.55.68-.19 1.09-.23c.41-.03.83-.05 1.27-.05h.26a.7.7 0 0 0-.38-.63.9.9 0 0 0-.45-.1c-.12 0-.25.02-.36.05-.12.04-.21.09-.29.15s-.12.14-.14.23h-1.94a2.1 2.1 0 0 1 .96-1.57c.26-.17.54-.29.86-.37s.65-.12 1-.12c.85 0 1.49.24 1.93.71s.65 1.17.65 2.08v3.11H44.7v-.76c-.19.29-.41.49-.64.6s-.46.19-.65.21-.33.03-.4.03Zm.53-1.49c.18 0 .36-.05.53-.14s.32-.21.43-.35.17-.28.17-.42v-.04h-1.09c-.09 0-.17 0-.25.03-.08.02-.15.05-.21.08s-.11.08-.15.14-.05.13-.05.22c0 .1.03.19.08.26.06.07.13.12.23.16s.2.06.32.06Z" fill="#ffffff" data-color="1"></path>
        <path d="M49.96 80.84c-.59 0-1.09-.14-1.48-.41s-.69-.64-.88-1.09-.29-.95-.29-1.5c0-.59.11-1.12.33-1.57s.54-.8.96-1.06.93-.38 1.53-.38q.3 0 .57.06c.27.06.35.1.5.18s.28.17.39.29v-2.4h1.95v7.79h-1.9v-.51c-.14.13-.3.24-.47.33s-.36.15-.56.2-.41.07-.64.07Zm.43-1.77c.29 0 .53-.06.7-.18s.3-.28.37-.46.12-.38.12-.58-.04-.4-.12-.59-.2-.34-.37-.46q-.255-.18-.69-.18c-.435 0-.52.07-.69.2s-.29.3-.36.49a1.7 1.7 0 0 0-.04 1.01c.04.14.11.27.2.39s.21.2.36.27.32.1.53.1Z" fill="#ffffff" data-color="1"></path>
        <path d="M56.38 80.84c-.27 0-.53-.04-.77-.11s-.46-.18-.64-.33c-.19-.15-.34-.33-.45-.55s-.17-.48-.17-.78c0-.44.09-.78.28-1.03s.44-.43.76-.55.68-.19 1.09-.23c.41-.03.83-.05 1.27-.05h.26a.7.7 0 0 0-.38-.63.9.9 0 0 0-.45-.1c-.12 0-.25.02-.36.05-.12.04-.21.09-.29.15s-.12.14-.14.23h-1.94a2.1 2.1 0 0 1 .96-1.57c.26-.17.54-.29.86-.37s.65-.12 1-.12c.85 0 1.49.24 1.93.71s.65 1.17.65 2.08v3.11h-1.79v-.76c-.19.29-.41.49-.64.6s-.46.19-.65.21-.33.03-.4.03Zm.53-1.49c.18 0 .36-.05.53-.14s.32-.21.43-.35.17-.28.17-.42v-.04h-1.09c-.09 0-.17 0-.25.03-.08.02-.15.05-.21.08s-.11.08-.15.14-.05.13-.05.22c0 .1.03.19.08.26.06.07.13.12.23.16s.2.06.32.06Z" fill="#ffffff" data-color="1"></path>
        <path d="M60.89 80.75v-5.8h1.71l.13.55c.15-.21.31-.37.48-.46s.35-.15.53-.18q.27-.03.48-.03h.34c.1 0 .17 0 .2.02v1.88h-.37c-.27 0-.53.04-.76.1-.24.07-.43.2-.57.4-.14.19-.21.49-.21.87v2.64H60.9Z" fill="#ffffff" data-color="1"></path>
        <path d="M68.1 80.84q-.885 0-1.56-.36a2.53 2.53 0 0 1-1.03-1.02c-.25-.44-.37-.96-.37-1.57s.12-1.14.37-1.6.6-.82 1.04-1.07c.45-.26.97-.38 1.56-.38.42 0 .81.07 1.14.2q.51.195.87.57c.36.375.43.55.56.9s.19.75.19 1.19c0 .12 0 .24-.02.36q-.015.165-.06.36h-3.74c.01.14.06.27.14.4.08.12.19.22.32.3.14.07.32.11.53.11.18 0 .33-.02.46-.06s.23-.09.31-.16.13-.13.15-.2h1.9q-.15.72-.57 1.17c-.28.3-.61.53-.99.67s-.79.21-1.23.21Zm-1-3.7h1.96c0-.11-.03-.23-.09-.35s-.17-.22-.31-.3-.33-.12-.57-.12-.41.04-.56.12-.25.18-.32.3-.1.24-.1.35Z" fill="#ffffff" data-color="1"></path>
        <path d="M74.07 80.84c-.29 0-.58-.03-.87-.1s-.57-.18-.82-.33-.47-.36-.64-.63c-.18-.27-.29-.6-.35-1.01h1.97c.03.1.08.18.16.25s.17.13.29.17c.11.04.24.06.37.06.09 0 .17 0 .24-.02s.13-.04.18-.07q.075-.045.12-.12c.045-.075.04-.09.04-.14 0-.1-.04-.18-.12-.23s-.19-.08-.33-.11-.3-.06-.47-.09c-.27-.06-.56-.13-.87-.23s-.57-.21-.79-.35a1.35 1.35 0 0 1-.47-.55 1.3 1.3 0 0 1-.1-.34c-.02-.12-.03-.24-.03-.37 0-.34.08-.62.23-.85s.34-.42.58-.56.5-.24.79-.3.57-.09.85-.09c.41 0 .79.07 1.15.2s.65.35.89.64q.36.435.45 1.17h-1.88c-.01-.13-.09-.23-.21-.31a.96.96 0 0 0-.47-.11c-.07 0-.14 0-.2.02-.06.01-.12.03-.17.06-.05.02-.08.05-.11.09s-.04.08-.04.12c0 .03 0 .06.03.1.02.04.05.07.1.1q.075.045.21.09.36.09.69.15c.22.04.43.09.65.13.24.04.48.12.71.23s.43.27.59.48.24.51.24.89-.08.69-.23.94-.36.45-.61.6-.53.25-.83.32-.6.1-.89.1Z" fill="#ffffff" data-color="1"></path>
        <path d="M83.29 80.84q-.885 0-1.56-.36a2.53 2.53 0 0 1-1.03-1.02c-.25-.44-.37-.96-.37-1.57s.12-1.14.37-1.6.6-.82 1.04-1.07c.45-.26.97-.38 1.56-.38.42 0 .81.07 1.14.2q.51.195.87.57c.36.375.43.55.56.9s.19.75.19 1.19c0 .12 0 .24-.02.36q-.015.165-.06.36h-3.74c.01.14.06.27.14.4.08.12.19.22.32.3.14.07.32.11.53.11.18 0 .33-.02.46-.06s.23-.09.31-.16.13-.13.15-.2h1.9q-.15.72-.57 1.17c-.28.3-.61.53-.99.67s-.79.21-1.23.21Zm-1-3.7h1.96c0-.11-.03-.23-.09-.35s-.17-.22-.31-.3-.33-.12-.57-.12-.41.04-.56.12-.25.18-.32.3-.1.24-.1.35Z" fill="#ffffff" data-color="1"></path>
        <path d="m86.26 80.75 2-2.96-1.89-2.84h2.23l.92 1.57.91-1.57h2.18l-1.91 2.87 2.05 2.93H90.5l-1.03-1.69-1.04 1.69h-2.16Z" fill="#ffffff" data-color="1"></path>
        <path d="M94.25 74.56c-.35 0-.64-.1-.85-.31-.22-.21-.32-.48-.32-.82s.11-.63.34-.85.51-.33.85-.33.6.1.83.31.34.49.34.85-.11.62-.32.83c-.22.21-.5.31-.85.31Zm-.98 6.19v-5.8h1.95v5.8z" fill="#ffffff" data-color="1"></path>
        <path d="M99.23 83.49q-.72 0-1.35-.24c-.63-.24-.76-.41-1.04-.75s-.48-.78-.58-1.33h1.98q.06.15.18.27c.08.08.19.14.32.18s.28.07.45.07c.31 0 .54-.07.69-.2.15-.14.26-.31.31-.53s.08-.44.08-.68v-.15c-.14.21-.31.36-.5.45s-.39.16-.59.19-.38.05-.54.05c-.62 0-1.13-.14-1.51-.41s-.66-.63-.84-1.08c-.17-.44-.26-.91-.26-1.4 0-.56.1-1.08.31-1.55s.52-.84.92-1.12q.615-.42 1.5-.42c.37 0 .67.06.91.17s.45.26.63.44l.18-.5h1.76v4.6c0 .81-.09 1.51-.26 2.1-.18.59-.48 1.04-.92 1.36s-1.05.48-1.84.48Zm-.1-4.41c.28 0 .5-.06.68-.17s.3-.27.38-.46.12-.4.12-.62-.04-.43-.12-.62-.2-.34-.37-.45-.38-.17-.65-.17q-.465 0-.72.21t-.36.51c-.07.2-.1.39-.1.57s.04.38.11.56q.105.27.36.45c.17.12.4.18.68.18Z" fill="#ffffff" data-color="1"></path>
        <path d="M106.03 80.84q-.885 0-1.56-.36a2.53 2.53 0 0 1-1.03-1.02c-.25-.44-.37-.96-.37-1.57s.12-1.14.37-1.6.6-.82 1.04-1.07c.45-.26.97-.38 1.56-.38.42 0 .81.07 1.14.2q.51.195.87.57c.36.375.43.55.56.9s.19.75.19 1.19c0 .12 0 .24-.02.36q-.015.165-.06.36h-3.74c.01.14.06.27.14.4.08.12.19.22.32.3.14.07.32.11.53.11.18 0 .33-.02.46-.06s.23-.09.31-.16.13-.13.15-.2h1.9q-.15.72-.57 1.17c-.28.3-.61.53-.99.67s-.79.21-1.23.21Zm-1.01-3.7h1.96c0-.11-.03-.23-.09-.35s-.17-.22-.31-.3-.33-.12-.57-.12-.41.04-.56.12-.25.18-.32.3-.1.24-.1.35Z" fill="#ffffff" data-color="1"></path>
        <path d="M109.62 80.75v-5.8h1.79l.11.53c.18-.19.38-.33.59-.42s.41-.15.61-.18.37-.04.51-.04c.54 0 .97.12 1.28.37s.53.58.67.99c.13.41.2.86.2 1.35v3.2h-1.95v-3.04a1.6 1.6 0 0 0-.17-.73.75.75 0 0 0-.26-.27c-.11-.07-.25-.1-.43-.1q-.345 0-.57.15c-.225.15-.26.24-.33.41s-.1.36-.1.58v2.99h-1.95Z" fill="#ffffff" data-color="1"></path>
        <path d="M119.18 80.75c-.51 0-.95-.06-1.31-.17s-.64-.31-.84-.59c-.19-.28-.29-.69-.29-1.23v-2.08h-.8v-1.74h.8V73.5h1.95v1.44h1.07v1.74h-1.07v1.78c0 .14.02.26.07.37s.19.16.41.16h.52v1.75h-.51Z" fill="#ffffff" data-color="1"></path>
        <path d="M123.12 80.84q-.885 0-1.56-.36a2.53 2.53 0 0 1-1.03-1.02c-.25-.44-.37-.96-.37-1.57s.12-1.14.37-1.6.6-.82 1.04-1.07c.45-.26.97-.38 1.56-.38.42 0 .81.07 1.14.2q.51.195.87.57c.36.375.43.55.56.9s.19.75.19 1.19c0 .12 0 .24-.02.36q-.015.165-.06.36h-3.74c.01.14.06.27.14.4.08.12.19.22.32.3.14.07.32.11.53.11.18 0 .33-.02.46-.06s.23-.09.31-.16.13-.13.15-.2h1.9q-.15.72-.57 1.17c-.28.3-.61.53-.99.67s-.79.21-1.23.21Zm-1-3.7h1.96c0-.11-.03-.23-.09-.35s-.17-.22-.31-.3-.33-.12-.57-.12-.41.04-.56.12-.25.18-.32.3-.1.24-.1.35Z" fill="#ffffff" data-color="1"></path>
        <path d="M129.09 80.84c-.29 0-.58-.03-.87-.1s-.57-.18-.82-.33-.47-.36-.64-.63c-.18-.27-.29-.6-.35-1.01h1.97c.03.1.08.18.16.25s.17.13.29.17c.11.04.24.06.37.06.09 0 .17 0 .24-.02s.13-.04.18-.07q.075-.045.12-.12c.045-.075.04-.09.04-.14 0-.1-.04-.18-.12-.23s-.19-.08-.33-.11-.3-.06-.47-.09c-.27-.06-.56-.13-.87-.23s-.57-.21-.79-.35a1.35 1.35 0 0 1-.47-.55 1.3 1.3 0 0 1-.1-.34c-.02-.12-.03-.24-.03-.37 0-.34.08-.62.23-.85s.34-.42.58-.56.5-.24.79-.3.57-.09.85-.09c.41 0 .79.07 1.15.2s.65.35.89.64q.36.435.45 1.17h-1.88c-.01-.13-.09-.23-.21-.31a.96.96 0 0 0-.47-.11c-.07 0-.14 0-.2.02-.06.01-.12.03-.17.06-.05.02-.08.05-.11.09s-.04.08-.04.12c0 .03 0 .06.03.1.02.04.05.07.1.1q.075.045.21.09.36.09.69.15c.22.04.43.09.65.13.24.04.48.12.71.23s.43.27.59.48.24.51.24.89-.08.69-.23.94-.36.45-.61.6-.53.25-.83.32-.6.1-.89.1Z" fill="#ffffff" data-color="1"></path>
        <path d="M24.05 94.3c-.66 0-1.21-.14-1.67-.41q-.675-.405-1.02-1.14c-.23-.49-.34-1.05-.34-1.69s.12-1.21.35-1.7.58-.88 1.03-1.16q.675-.42 1.65-.42c.48 0 .9.08 1.27.24s.66.39.9.69c.23.3.38.66.45 1.09h-1.09q-.12-.465-.51-.72c-.26-.17-.59-.26-1.01-.26-.45 0-.81.11-1.09.32s-.48.48-.6.81-.18.68-.18 1.06.06.76.19 1.1.33.62.62.83c.28.21.64.31 1.09.31q.42 0 .72-.12c.3-.12.38-.19.52-.34s.24-.32.29-.52h1.14c-.07.43-.23.79-.48 1.09s-.56.53-.95.69c-.38.16-.81.24-1.28.24Z" fill="#ffffff" data-color="1"></path>
        <path d="M29.58 94.29c-.49 0-.9-.1-1.26-.3-.35-.2-.62-.48-.81-.85s-.28-.79-.28-1.29.1-.93.29-1.29.46-.65.81-.85.76-.31 1.25-.31.89.1 1.24.31c.35.2.61.49.8.86s.28.8.28 1.3-.09.91-.28 1.27c-.18.36-.45.64-.8.84s-.77.3-1.25.3Zm0-1c.3 0 .54-.07.72-.2s.32-.31.4-.52c.08-.22.13-.45.13-.7s-.04-.49-.13-.71a1.2 1.2 0 0 0-.4-.54c-.18-.13-.42-.2-.72-.2s-.54.07-.73.2-.32.31-.41.53c-.08.22-.13.46-.13.72s.04.49.13.71.22.39.41.52c.18.13.42.19.72.19Z" fill="#ffffff" data-color="1"></path>
        <path d="M32.61 94.23v-4.74h1.01l.07.54c.12-.16.25-.29.39-.37a1.54 1.54 0 0 1 .88-.24c.3 0 .56.06.77.18s.38.3.5.54c.12-.17.25-.3.4-.41s.31-.18.48-.23.34-.08.53-.08c.37 0 .66.08.88.23s.38.36.49.63c.1.27.15.57.15.91v3.04h-1.1v-2.69c0-.12 0-.25-.02-.38-.01-.13-.04-.26-.09-.37a.7.7 0 0 0-.22-.28c-.1-.07-.23-.11-.41-.11s-.32.04-.43.11c-.11.08-.2.17-.27.3-.07.12-.12.26-.14.41-.03.15-.04.29-.04.44v2.57h-1.1v-2.7c0-.11 0-.24-.02-.36-.01-.13-.04-.25-.09-.37s-.12-.21-.22-.28-.24-.11-.41-.11q-.375 0-.57.21c-.13.14-.22.31-.26.5-.04.2-.07.39-.07.57v2.55h-1.1Z" fill="#ffffff" data-color="1"></path>
        <path d="M44.42 94.29c-.68 0-1.21-.18-1.57-.53s-.54-.89-.54-1.62v-2.66h1.1v2.58c0 .25.03.47.1.66s.18.33.33.43.35.15.58.15c.25 0 .45-.05.6-.16a.83.83 0 0 0 .31-.44c.06-.19.09-.4.09-.64v-2.58h1.1v2.66c0 .74-.18 1.29-.55 1.63-.37.35-.88.52-1.54.52Z" fill="#ffffff" data-color="1"></path>
        <path d="M47.38 94.23v-4.74h1.01l.07.54c.12-.16.25-.29.39-.37a1.54 1.54 0 0 1 .88-.24c.3 0 .56.06.77.18s.38.3.5.54c.12-.17.25-.3.4-.41s.31-.18.48-.23.34-.08.53-.08c.37 0 .66.08.88.23s.38.36.49.63c.1.27.15.57.15.91v3.04h-1.1v-2.69c0-.12 0-.25-.02-.38-.01-.13-.04-.26-.09-.37a.7.7 0 0 0-.22-.28c-.1-.07-.23-.11-.41-.11s-.32.04-.43.11c-.11.08-.2.17-.27.3-.07.12-.12.26-.14.41-.03.15-.04.29-.04.44v2.57h-1.1v-2.7c0-.11 0-.24-.02-.36-.01-.13-.04-.25-.09-.37s-.12-.21-.22-.28-.24-.11-.41-.11q-.375 0-.57.21c-.13.14-.22.31-.26.5-.04.2-.07.39-.07.57v2.55h-1.1Z" fill="#ffffff" data-color="1"></path>
        <path d="M59.02 94.29c-.48 0-.88-.11-1.19-.33s-.54-.51-.7-.88c-.15-.37-.23-.77-.23-1.22s.08-.89.24-1.26.41-.66.73-.87.73-.32 1.21-.32a2.2 2.2 0 0 1 1.02.24c.15.08.28.19.38.32v-2.11h1.1v6.36h-1.06l-.02-.59c-.11.15-.25.27-.4.37s-.32.17-.51.22-.38.07-.58.07Zm.21-.99c.29 0 .53-.07.71-.2q.285-.21.42-.54c.09-.22.14-.46.14-.71s-.05-.5-.14-.72c-.09-.21-.23-.39-.42-.52s-.42-.2-.71-.2q-.465 0-.72.21c-.255.21-.31.32-.39.54a2.2 2.2 0 0 0-.05 1.26c.04.17.12.32.21.46.1.13.22.24.38.31s.35.11.58.11Z" fill="#ffffff" data-color="1"></path>
        <path d="M64.59 94.29c-.49 0-.91-.1-1.26-.31s-.61-.49-.78-.85-.27-.78-.27-1.26.09-.91.28-1.27c.18-.37.45-.66.79-.87s.76-.31 1.25-.31c.36 0 .67.06.95.19.27.13.5.3.68.53.18.22.32.47.41.76s.13.58.13.89c0 .07-.01.14-.02.21s-.01.14-.03.22h-3.33c.02.21.07.4.17.58s.23.31.4.41.38.15.64.15c.15 0 .29-.02.43-.06s.26-.1.36-.18q.165-.12.21-.3h1.1c-.08.34-.22.62-.43.84-.21.21-.46.38-.75.48s-.6.15-.92.15Zm-1.18-2.89h2.29c0-.2-.04-.38-.13-.54s-.22-.29-.38-.38c-.17-.09-.36-.14-.6-.14q-.375 0-.63.15c-.255.15-.3.23-.39.4s-.14.33-.15.51Z" fill="#ffffff" data-color="1"></path>
        <path d="M67.46 94.23v-6.36h1.1v6.36z" fill="#ffffff" data-color="1"></path>
        <path d="M69.99 88.94c-.21 0-.38-.06-.5-.19-.13-.13-.19-.29-.19-.5s.07-.36.2-.49.3-.19.5-.19.36.06.5.19.21.29.21.49-.07.37-.2.5a.72.72 0 0 1-.5.19Zm-.55 5.29v-4.74h1.1v4.74z" fill="#ffffff" data-color="1"></path>
        <path d="M73.5 94.29c-.49 0-.91-.1-1.24-.3s-.59-.48-.76-.85a3 3 0 0 1-.26-1.27c0-.48.09-.91.27-1.27.18-.37.44-.66.79-.87s.77-.31 1.27-.31c.37 0 .69.06.98.19s.52.31.69.55c.18.24.29.54.34.9H74.5a.86.86 0 0 0-.36-.5c-.17-.1-.36-.16-.59-.16-.31 0-.55.07-.72.22s-.3.33-.38.55q-.12.33-.12.69c0 .36.04.49.13.71.08.22.21.39.39.53.18.13.41.2.69.2.23 0 .43-.05.62-.15.18-.1.3-.27.36-.5h1.12c-.04.37-.16.67-.37.91-.2.24-.45.43-.76.54q-.465.18-.99.18Z" fill="#ffffff" data-color="1"></path>
        <path d="M76.82 88.94c-.21 0-.38-.06-.5-.19-.13-.13-.19-.29-.19-.5s.07-.36.2-.49.3-.19.5-.19.36.06.5.19.21.29.21.49-.07.37-.2.5a.72.72 0 0 1-.5.19Zm-.55 5.29v-4.74h1.1v4.74z" fill="#ffffff" data-color="1"></path>
        <path d="M80.42 94.29c-.49 0-.9-.1-1.26-.3-.35-.2-.62-.48-.81-.85s-.28-.79-.28-1.29.1-.93.29-1.29.46-.65.81-.85.76-.31 1.25-.31.89.1 1.24.31c.35.2.61.49.8.86s.28.8.28 1.3-.09.91-.28 1.27c-.18.36-.45.64-.8.84s-.77.3-1.25.3Zm-.01-1c.3 0 .54-.07.72-.2s.32-.31.4-.52c.08-.22.13-.45.13-.7s-.04-.49-.13-.71a1.2 1.2 0 0 0-.4-.54c-.18-.13-.42-.2-.72-.2s-.54.07-.73.2-.32.31-.41.53c-.08.22-.13.46-.13.72s.04.49.13.71.22.39.41.52c.18.13.42.19.72.19Z" fill="#ffffff" data-color="1"></path>
        <path d="M85.26 94.29c-.23 0-.45-.02-.68-.07q-.345-.075-.63-.24c-.2-.11-.36-.26-.5-.45s-.22-.43-.26-.72h1.11c.05.13.12.24.23.32s.23.14.37.18.28.06.42.06c.08 0 .17 0 .27-.02.1-.01.19-.04.28-.07s.16-.09.21-.16.08-.16.08-.28c0-.11-.03-.19-.09-.26a.7.7 0 0 0-.24-.15c-.1-.04-.22-.07-.37-.1-.26-.05-.53-.11-.83-.17s-.55-.16-.76-.3a.9.9 0 0 1-.23-.19 1 1 0 0 1-.17-.24c-.04-.09-.08-.18-.1-.28q-.03-.15-.03-.33c0-.25.05-.47.16-.64.11-.18.25-.32.42-.43.18-.11.38-.19.61-.25.23-.05.46-.08.7-.08.32 0 .62.05.88.15s.48.26.66.47.28.48.32.8h-1.04q-.045-.225-.27-.36c-.225-.135-.35-.14-.58-.14-.08 0-.17 0-.26.02-.09.01-.17.04-.26.07s-.15.08-.2.15-.08.15-.08.24.02.17.07.23.11.12.21.17c.09.04.2.08.33.11.2.04.42.08.64.12s.41.08.58.13c.19.05.37.13.52.23q.24.15.36.39c.12.24.13.36.13.61q0 .435-.18.72c-.12.19-.27.34-.46.45s-.4.19-.64.23-.46.07-.69.07Z" fill="#ffffff" data-color="1"></path>
        <path d="M90.03 94.29c-.49 0-.9-.1-1.26-.3-.35-.2-.62-.48-.81-.85s-.28-.79-.28-1.29.1-.93.29-1.29.46-.65.81-.85.76-.31 1.25-.31.89.1 1.24.31c.35.2.61.49.8.86s.28.8.28 1.3-.09.91-.28 1.27c-.18.36-.45.64-.8.84s-.77.3-1.25.3Zm-.01-1c.3 0 .54-.07.72-.2s.32-.31.4-.52c.08-.22.13-.45.13-.7s-.04-.49-.13-.71a1.2 1.2 0 0 0-.4-.54c-.18-.13-.42-.2-.72-.2s-.54.07-.73.2-.32.31-.41.53c-.08.22-.13.46-.13.72s.04.49.13.71.22.39.41.52c.18.13.42.19.72.19Z" fill="#ffffff" data-color="1"></path>
        <path d="M97.19 94.29c-.23 0-.45-.02-.68-.07q-.345-.075-.63-.24c-.2-.11-.36-.26-.5-.45s-.22-.43-.26-.72h1.11c.05.13.12.24.23.32s.23.14.37.18.28.06.42.06c.08 0 .17 0 .27-.02.1-.01.19-.04.28-.07s.16-.09.21-.16.08-.16.08-.28c0-.11-.03-.19-.09-.26a.7.7 0 0 0-.24-.15c-.1-.04-.22-.07-.37-.1-.26-.05-.53-.11-.83-.17s-.55-.16-.76-.3a.9.9 0 0 1-.23-.19 1 1 0 0 1-.17-.24c-.04-.09-.08-.18-.1-.28q-.03-.15-.03-.33c0-.25.05-.47.16-.64.11-.18.25-.32.42-.43.18-.11.38-.19.61-.25.23-.05.46-.08.7-.08.32 0 .62.05.88.15s.48.26.66.47.28.48.32.8h-1.04q-.045-.225-.27-.36c-.225-.135-.35-.14-.58-.14-.08 0-.17 0-.26.02-.09.01-.17.04-.26.07s-.15.08-.2.15-.08.15-.08.24.02.17.07.23.11.12.21.17c.09.04.2.08.33.11.2.04.42.08.64.12s.41.08.58.13c.19.05.37.13.52.23q.24.15.36.39c.12.24.13.36.13.61q0 .435-.18.72c-.12.19-.27.34-.46.45s-.4.19-.64.23-.46.07-.69.07Z" fill="#ffffff" data-color="1"></path>
        <path d="M101.31 94.29q-.33 0-.63-.09c-.2-.06-.38-.15-.53-.27s-.28-.26-.37-.44-.14-.39-.14-.63q0-.465.18-.75c.18-.285.28-.34.49-.45.21-.1.44-.17.71-.21.26-.04.54-.06.83-.06h.93c0-.21-.03-.39-.1-.54a.83.83 0 0 0-.31-.36 1 1 0 0 0-.54-.14c-.14 0-.28.02-.4.05s-.23.08-.32.15a.5.5 0 0 0-.18.27h-1.12c.04-.25.13-.46.26-.63.13-.18.29-.32.48-.44.19-.11.4-.2.62-.26.23-.06.46-.08.69-.08.69 0 1.19.2 1.51.59.32.4.47.95.47 1.66v2.56h-.97l-.03-.61c-.14.2-.3.35-.5.45-.19.1-.38.16-.56.18s-.33.04-.46.04Zm.21-.89c.24 0 .45-.04.64-.13s.33-.22.45-.38c.11-.16.17-.35.17-.56v-.15h-.86c-.14 0-.29 0-.43.01-.14 0-.27.03-.38.07s-.21.1-.27.18-.1.19-.1.33.04.26.11.35.17.16.3.21c.12.05.25.07.39.07Z" fill="#ffffff" data-color="1"></path>
        <path d="M107.23 94.29c-.17 0-.35-.02-.52-.05s-.34-.1-.5-.19-.3-.21-.44-.36l-.03.54h-1.06v-6.36h1.1v2.21c.17-.22.4-.39.67-.5s.56-.17.85-.17c.47 0 .85.11 1.16.32.3.21.53.5.67.87.15.37.22.78.22 1.24s-.08.88-.23 1.25-.39.66-.7.88-.71.32-1.2.32Zm-.18-.97q.465 0 .72-.21c.18-.14.3-.32.38-.55s.12-.47.12-.72-.04-.49-.12-.71c-.08-.21-.21-.39-.39-.52s-.42-.2-.72-.2c-.28 0-.51.07-.7.21s-.33.32-.43.55c-.1.22-.14.46-.14.7s.04.49.13.71.22.4.41.54.43.21.73.21Z" fill="#ffffff" data-color="1"></path>
        <path d="M112.22 94.29c-.49 0-.9-.1-1.26-.3-.35-.2-.62-.48-.81-.85s-.28-.79-.28-1.29.1-.93.29-1.29.46-.65.81-.85.76-.31 1.25-.31.89.1 1.24.31c.35.2.61.49.8.86s.28.8.28 1.3-.09.91-.28 1.27c-.18.36-.45.64-.8.84s-.77.3-1.25.3Zm-.01-1c.3 0 .54-.07.72-.2s.32-.31.4-.52c.08-.22.13-.45.13-.7s-.04-.49-.13-.71a1.2 1.2 0 0 0-.4-.54c-.18-.13-.42-.2-.72-.2s-.54.07-.73.2-.32.31-.41.53c-.08.22-.13.46-.13.72s.04.49.13.71.22.39.41.52c.18.13.42.19.72.19Z" fill="#ffffff" data-color="1"></path>
        <path d="M115.25 94.23v-4.74h1l.06.62c.12-.18.26-.32.41-.42s.32-.17.49-.21q.27-.06.54-.06h.32v1.04h-.29c-.31 0-.58.06-.79.18-.22.12-.38.29-.49.51s-.16.49-.16.82v2.25h-1.1Z" fill="#ffffff" data-color="1"></path>
        <path d="M124.26 95.98v-2.32c-.17.23-.38.4-.65.5s-.54.14-.81.14c-.36 0-.67-.06-.94-.18s-.49-.29-.66-.51-.3-.47-.39-.77a3.2 3.2 0 0 1-.13-.95c0-.47.08-.9.25-1.27s.41-.66.74-.88c.32-.21.72-.32 1.19-.32.27 0 .53.05.79.14s.47.24.63.46l.05-.52h1.03v6.49h-1.1Zm-1.25-2.68c.27 0 .5-.06.69-.19s.33-.3.43-.53c.1-.22.14-.46.14-.73s-.05-.52-.14-.74c-.1-.22-.24-.39-.42-.52-.19-.13-.42-.19-.7-.19s-.53.07-.71.2c-.18.14-.31.31-.4.53-.08.22-.13.46-.13.72s.04.51.13.73c.08.22.22.4.4.53.19.13.42.19.71.19" fill="#ffffff" data-color="1"></path>
        <path d="M128.34 94.29c-.68 0-1.21-.18-1.57-.53s-.54-.89-.54-1.62v-2.66h1.1v2.58c0 .25.03.47.1.66s.18.33.33.43.35.15.58.15c.25 0 .45-.05.6-.16a.83.83 0 0 0 .31-.44c.06-.19.09-.4.09-.64v-2.58h1.1v2.66c0 .74-.18 1.29-.55 1.63-.37.35-.88.52-1.54.52Z" fill="#ffffff" data-color="1"></path>
        <path d="M133.43 94.29c-.49 0-.91-.1-1.26-.31s-.61-.49-.78-.85-.27-.78-.27-1.26.09-.91.28-1.27c.18-.37.45-.66.79-.87s.76-.31 1.25-.31c.36 0 .67.06.95.19.27.13.5.3.68.53.18.22.32.47.41.76s.13.58.13.89c0 .07-.01.14-.02.21s-.01.14-.03.22h-3.33c.02.21.07.4.17.58s.23.31.4.41.38.15.64.15c.15 0 .29-.02.43-.06s.26-.1.36-.18q.165-.12.21-.3h1.1c-.08.34-.22.62-.43.84-.21.21-.46.38-.75.48s-.6.15-.92.15Zm-1.19-2.89h2.29c0-.2-.04-.38-.13-.54s-.22-.29-.38-.38c-.17-.09-.36-.14-.6-.14q-.375 0-.63.15c-.255.15-.3.23-.39.4s-.14.33-.15.51Z" fill="#ffffff" data-color="1"></path>
        <path d="M15.48 103.79c-.49 0-.91-.1-1.24-.3s-.59-.48-.76-.85a3 3 0 0 1-.26-1.27c0-.48.09-.91.27-1.27.18-.37.44-.66.79-.87s.77-.31 1.27-.31c.37 0 .69.06.98.19s.52.31.69.55c.18.24.29.54.34.9h-1.08a.86.86 0 0 0-.36-.5c-.17-.1-.36-.16-.59-.16-.31 0-.55.07-.72.22s-.3.33-.38.55q-.12.33-.12.69c0 .36.04.49.13.71.08.22.21.39.39.53.18.13.41.2.69.2.23 0 .43-.05.62-.15.18-.1.3-.27.36-.5h1.12c-.04.37-.16.67-.37.91-.2.24-.45.43-.76.54q-.465.18-.99.18Z" fill="#ffffff" data-color="1"></path>
        <path d="M20.41 103.79c-.49 0-.9-.1-1.26-.3-.35-.2-.62-.48-.81-.85s-.28-.79-.28-1.29.1-.93.29-1.29.46-.65.81-.85.76-.31 1.25-.31.89.1 1.24.31c.35.2.61.49.8.86s.28.8.28 1.3-.09.91-.28 1.27c-.18.36-.45.64-.8.84s-.77.3-1.25.3Zm-.01-1c.3 0 .54-.07.72-.2s.32-.31.4-.52c.08-.22.13-.45.13-.7s-.04-.49-.13-.71a1.2 1.2 0 0 0-.4-.54c-.18-.13-.42-.2-.72-.2s-.54.07-.73.2-.32.31-.41.53c-.08.22-.13.46-.13.72s.04.49.13.71.22.39.41.52c.18.13.42.19.72.19Z" fill="#ffffff" data-color="1"></path>
        <path d="M23.43 103.73v-4.74h1.03l.06.6c.13-.17.27-.3.44-.4s.35-.17.53-.21c.19-.04.36-.07.52-.07.45 0 .81.1 1.07.3s.45.46.55.79c.11.33.16.7.16 1.11v2.62h-1.1v-2.44c0-.17-.01-.34-.04-.51-.02-.17-.07-.31-.14-.45-.07-.13-.17-.24-.29-.32s-.29-.12-.5-.12q-.39 0-.66.21c-.27.21-.32.32-.41.55s-.13.49-.13.79v2.28h-1.1Z" fill="#ffffff" data-color="1"></path>
        <path d="M32.06 105.48v-2.32c-.17.23-.38.4-.65.5s-.54.14-.81.14c-.36 0-.67-.06-.94-.18s-.49-.29-.66-.51-.3-.47-.39-.77a3.2 3.2 0 0 1-.13-.95c0-.47.08-.9.25-1.27s.41-.66.74-.88c.32-.21.72-.32 1.19-.32.27 0 .53.05.79.14s.47.24.63.46l.05-.52h1.03v6.49h-1.1Zm-1.26-2.68c.27 0 .5-.06.69-.19s.33-.3.43-.53c.1-.22.14-.46.14-.73s-.05-.52-.14-.74c-.1-.22-.24-.39-.42-.52-.19-.13-.42-.19-.7-.19s-.53.07-.71.2c-.18.14-.31.31-.4.53-.08.22-.13.46-.13.72s.04.51.13.73c.08.22.22.4.4.53.19.13.42.19.71.19" fill="#ffffff" data-color="1"></path>
        <path d="M36.13 103.79c-.68 0-1.21-.18-1.57-.53s-.54-.89-.54-1.62v-2.66h1.1v2.58c0 .25.03.47.1.66s.18.33.33.43.35.15.58.15c.25 0 .45-.05.6-.16a.83.83 0 0 0 .31-.44c.06-.19.09-.4.09-.64v-2.58h1.1v2.66c0 .74-.18 1.29-.55 1.63-.37.35-.88.52-1.54.52Z" fill="#ffffff" data-color="1"></path>
        <path d="M39.64 98.44c-.21 0-.38-.06-.5-.19-.13-.13-.19-.29-.19-.5s.07-.36.2-.49.3-.19.5-.19.36.06.5.19c.14.12.21.29.21.49s-.07.37-.2.5a.72.72 0 0 1-.5.19Zm-.55 5.29v-4.74h1.1v4.74z" fill="#ffffff" data-color="1"></path>
        <path d="M42.89 103.79c-.23 0-.45-.02-.68-.07q-.345-.075-.63-.24c-.2-.11-.36-.26-.5-.45s-.22-.43-.26-.72h1.11c.05.13.12.24.23.32s.23.14.37.18.28.06.42.06c.08 0 .17 0 .27-.02.1-.01.19-.04.28-.07s.16-.09.21-.16.08-.16.08-.28c0-.11-.03-.19-.09-.26a.7.7 0 0 0-.24-.15c-.1-.04-.22-.07-.37-.1-.26-.05-.53-.11-.83-.17s-.55-.16-.76-.3a.9.9 0 0 1-.23-.19 1 1 0 0 1-.17-.24c-.04-.09-.08-.18-.1-.28q-.03-.15-.03-.33c0-.25.05-.47.16-.64.11-.18.25-.32.42-.43.18-.11.38-.19.61-.25.23-.05.46-.08.7-.08.32 0 .62.05.88.15s.48.26.66.47.28.48.32.8h-1.04q-.045-.225-.27-.36c-.225-.135-.35-.14-.58-.14-.08 0-.17 0-.26.02-.09.01-.17.04-.26.07s-.15.08-.2.15-.08.15-.08.24.02.17.07.23.11.12.21.17c.09.04.2.08.33.11.2.04.42.08.64.12s.41.08.58.13c.19.05.37.13.52.23q.24.15.36.39c.12.24.13.36.13.61q0 .435-.18.72c-.12.19-.27.34-.46.45s-.4.19-.64.23-.46.07-.69.07Z" fill="#ffffff" data-color="1"></path>
        <path d="M47.47 103.73c-.38 0-.7-.05-.95-.15s-.43-.27-.56-.5c-.12-.23-.18-.53-.18-.92v-2.21h-.73v-.97h.73v-1.32h1.1v1.32h1.11v.97h-1.11v2.06c0 .24.04.42.13.55s.27.19.57.19h.38v.97h-.48Z" fill="#ffffff" data-color="1"></path>
        <path d="M50.05 103.79q-.33 0-.63-.09c-.2-.06-.38-.15-.53-.27s-.28-.26-.37-.44-.14-.39-.14-.63q0-.465.18-.75c.18-.285.28-.34.49-.45.21-.1.44-.17.71-.21.26-.04.54-.06.83-.06h.93c0-.21-.03-.39-.1-.54a.83.83 0 0 0-.31-.36 1 1 0 0 0-.54-.14c-.14 0-.28.02-.4.05s-.23.08-.32.15a.5.5 0 0 0-.18.27h-1.12c.04-.25.13-.46.26-.63.13-.18.29-.32.48-.44.19-.11.4-.2.62-.26.23-.06.46-.08.69-.08.69 0 1.19.2 1.51.59.32.4.47.95.47 1.66v2.56h-.97l-.03-.61c-.14.2-.3.35-.5.45-.19.1-.38.16-.56.18s-.33.04-.46.04Zm.21-.89c.24 0 .45-.04.64-.13s.33-.22.45-.38c.11-.16.17-.35.17-.56v-.15h-.86c-.14 0-.29 0-.43.01-.14 0-.27.03-.38.07s-.21.1-.27.18-.1.19-.1.33.04.26.11.35.17.16.3.21c.12.05.25.07.39.07Z" fill="#ffffff" data-color="1"></path>
        <path d="M57.25 103.79q-.33 0-.63-.09c-.2-.06-.38-.15-.53-.27s-.28-.26-.37-.44-.14-.39-.14-.63q0-.465.18-.75c.18-.285.28-.34.49-.45.21-.1.44-.17.71-.21.26-.04.54-.06.83-.06h.93c0-.21-.03-.39-.1-.54a.83.83 0 0 0-.31-.36 1 1 0 0 0-.54-.14c-.14 0-.28.02-.4.05s-.23.08-.32.15a.5.5 0 0 0-.18.27h-1.12c.04-.25.13-.46.26-.63.13-.18.29-.32.48-.44.19-.11.4-.2.62-.26.23-.06.46-.08.69-.08.69 0 1.19.2 1.51.59.32.4.47.95.47 1.66v2.56h-.97l-.03-.61c-.14.2-.3.35-.5.45-.19.1-.38.16-.56.18s-.33.04-.46.04Zm.22-.89c.24 0 .45-.04.64-.13s.33-.22.45-.38c.11-.16.17-.35.17-.56v-.15h-.86c-.14 0-.29 0-.43.01-.14 0-.27.03-.38.07s-.21.1-.27.18-.1.19-.1.33.04.26.11.35.17.16.3.21c.12.05.25.07.39.07Z" fill="#ffffff" data-color="1"></path>
        <path d="M62.7 103.73c-.38 0-.7-.05-.95-.15s-.43-.27-.56-.5c-.12-.23-.18-.53-.18-.92v-2.21h-.73v-.97h.73v-1.32h1.1v1.32h1.11v.97h-1.11v2.06c0 .24.04.42.13.55s.27.19.57.19h.38v.97h-.48Z" fill="#ffffff" data-color="1"></path>
        <path d="M65.88 103.79c-.49 0-.91-.1-1.26-.31s-.61-.49-.78-.85-.27-.78-.27-1.26.09-.91.28-1.27c.18-.37.45-.66.79-.87s.76-.31 1.25-.31c.36 0 .67.06.95.19.27.13.5.3.68.53.18.22.32.47.41.76s.13.58.13.89c0 .07-.01.14-.02.21s-.01.14-.03.22h-3.33c.02.21.07.4.17.58s.23.31.4.41.38.15.64.15c.15 0 .29-.02.43-.06s.26-.1.36-.18q.165-.12.21-.3h1.1c-.08.34-.22.62-.43.84-.21.21-.46.38-.75.48s-.6.15-.92.15Zm-1.18-2.89h2.29c0-.2-.04-.38-.13-.54s-.22-.29-.38-.38c-.17-.09-.36-.14-.6-.14q-.375 0-.63.15c-.255.15-.3.23-.39.4s-.14.33-.15.51Zm.62-2.52.94-1.45h1.17l-1.16 1.45z" fill="#ffffff" data-color="1"></path>
        <path d="M73.24 103.79c-.49 0-.9-.1-1.26-.3-.35-.2-.62-.48-.81-.85s-.28-.79-.28-1.29.1-.93.29-1.29.46-.65.81-.85.76-.31 1.25-.31.89.1 1.24.31c.35.2.61.49.8.86s.28.8.28 1.3-.09.91-.28 1.27c-.18.36-.45.64-.8.84s-.77.3-1.25.3Zm-.01-1c.3 0 .54-.07.72-.2s.32-.31.4-.52c.08-.22.13-.45.13-.7s-.04-.49-.13-.71a1.2 1.2 0 0 0-.4-.54c-.18-.13-.42-.2-.72-.2s-.54.07-.73.2-.32.31-.41.53c-.08.22-.13.46-.13.72s.04.49.13.71.22.39.41.52c.18.13.42.19.72.19Z" fill="#ffffff" data-color="1"></path>
        <path d="M78.08 103.79c-.23 0-.45-.02-.68-.07q-.345-.075-.63-.24c-.2-.11-.36-.26-.5-.45s-.22-.43-.26-.72h1.11c.05.13.12.24.23.32s.23.14.37.18.28.06.42.06c.08 0 .17 0 .27-.02.1-.01.19-.04.28-.07s.16-.09.21-.16.08-.16.08-.28c0-.11-.03-.19-.09-.26a.7.7 0 0 0-.24-.15c-.1-.04-.22-.07-.37-.1-.26-.05-.53-.11-.83-.17s-.55-.16-.76-.3a.9.9 0 0 1-.23-.19 1 1 0 0 1-.17-.24c-.04-.09-.08-.18-.1-.28q-.03-.15-.03-.33c0-.25.05-.47.16-.64.11-.18.25-.32.42-.43.18-.11.38-.19.61-.25.23-.05.46-.08.7-.08.32 0 .62.05.88.15s.48.26.66.47.28.48.32.8h-1.04q-.045-.225-.27-.36c-.225-.135-.35-.14-.58-.14-.08 0-.17 0-.26.02-.09.01-.17.04-.26.07s-.15.08-.2.15-.08.15-.08.24.02.17.07.23.11.12.21.17c.09.04.2.08.33.11.2.04.42.08.64.12s.41.08.58.13c.19.05.37.13.52.23q.24.15.36.39c.12.24.13.36.13.61q0 .435-.18.72c-.12.19-.27.34-.46.45s-.4.19-.64.23-.46.07-.69.07Z" fill="#ffffff" data-color="1"></path>
        <path d="M83 105.48v-6.49h1.03l.05.64c.19-.25.41-.43.67-.54s.54-.17.85-.17c.47 0 .86.11 1.16.32s.53.51.68.87c.15.37.23.78.23 1.24s-.08.88-.23 1.25c-.16.37-.39.66-.71.87s-.71.32-1.18.32c-.22 0-.42-.02-.61-.07-.18-.05-.35-.12-.49-.21a1.6 1.6 0 0 1-.36-.31v2.27h-1.1Zm2.38-2.68c.31 0 .55-.07.72-.2.17-.14.3-.31.38-.53s.12-.45.12-.7-.04-.5-.12-.72q-.12-.33-.39-.54t-.72-.21c-.28 0-.51.07-.7.2-.19.14-.33.31-.43.54-.1.22-.14.46-.14.72s.04.51.13.72.23.39.42.52.44.19.73.19Z" fill="#ffffff" data-color="1"></path>
        <path d="M89.89 103.79q-.33 0-.63-.09c-.2-.06-.38-.15-.53-.27s-.28-.26-.37-.44-.14-.39-.14-.63q0-.465.18-.75c.18-.285.28-.34.49-.45.21-.1.44-.17.71-.21.26-.04.54-.06.83-.06h.93c0-.21-.03-.39-.1-.54a.83.83 0 0 0-.31-.36 1 1 0 0 0-.54-.14c-.14 0-.28.02-.4.05s-.23.08-.32.15a.5.5 0 0 0-.18.27h-1.12c.04-.25.13-.46.26-.63.13-.18.29-.32.48-.44.19-.11.4-.2.62-.26.23-.06.46-.08.69-.08.69 0 1.19.2 1.51.59.32.4.47.95.47 1.66v2.56h-.97l-.03-.61c-.14.2-.3.35-.5.45-.19.1-.38.16-.56.18s-.33.04-.46.04Zm.21-.89c.24 0 .45-.04.64-.13s.33-.22.45-.38c.11-.16.17-.35.17-.56v-.15h-.86c-.14 0-.29 0-.43.01-.14 0-.27.03-.38.07s-.21.1-.27.18-.1.19-.1.33.04.26.11.35.17.16.3.21c.12.05.25.07.39.07Z" fill="#ffffff" data-color="1"></path>
        <path d="M93.26 103.73v-6.36h1.1v6.36z" fill="#ffffff" data-color="1"></path>
        <path d="M96.75 103.79q-.33 0-.63-.09c-.2-.06-.38-.15-.53-.27s-.28-.26-.37-.44-.14-.39-.14-.63q0-.465.18-.75c.18-.285.28-.34.49-.45.21-.1.44-.17.71-.21.26-.04.54-.06.83-.06h.93c0-.21-.03-.39-.1-.54a.83.83 0 0 0-.31-.36 1 1 0 0 0-.54-.14c-.14 0-.28.02-.4.05s-.23.08-.32.15a.5.5 0 0 0-.18.27h-1.12c.04-.25.13-.46.26-.63.13-.18.29-.32.48-.44.19-.11.4-.2.62-.26.23-.06.46-.08.69-.08.69 0 1.19.2 1.51.59.32.4.47.95.47 1.66v2.56h-.97l-.03-.61c-.14.2-.3.35-.5.45-.19.1-.38.16-.56.18s-.33.04-.46.04Zm.22-.89c.24 0 .45-.04.64-.13s.33-.22.45-.38c.11-.16.17-.35.17-.56v-.15h-.86c-.14 0-.29 0-.43.01-.14 0-.27.03-.38.07s-.21.1-.27.18-.1.19-.1.33.04.26.11.35.17.16.3.21c.12.05.25.07.39.07Z" fill="#ffffff" data-color="1"></path>
        <path d="M102.06 103.79c-.48 0-.88-.11-1.19-.33s-.54-.51-.7-.88c-.15-.37-.23-.77-.23-1.22s.08-.89.24-1.26.41-.66.73-.87.73-.32 1.21-.32a2.2 2.2 0 0 1 1.02.24c.15.08.28.19.38.32v-2.11h1.1v6.36h-1.06l-.02-.59c-.11.15-.25.27-.4.37s-.32.17-.51.22-.38.07-.58.07Zm.21-.99c.29 0 .53-.07.71-.2q.285-.21.42-.54c.09-.22.14-.46.14-.71s-.05-.5-.14-.72c-.09-.21-.23-.39-.42-.52s-.42-.2-.71-.2q-.465 0-.72.21c-.255.21-.31.32-.39.54a2.2 2.2 0 0 0-.05 1.26c.04.17.12.32.21.46.1.13.22.24.38.31s.35.11.58.11Z" fill="#ffffff" data-color="1"></path>
        <path d="M107.02 103.79q-.33 0-.63-.09c-.2-.06-.38-.15-.53-.27s-.28-.26-.37-.44-.14-.39-.14-.63q0-.465.18-.75c.18-.285.28-.34.49-.45.21-.1.44-.17.71-.21.26-.04.54-.06.83-.06h.93c0-.21-.03-.39-.1-.54a.83.83 0 0 0-.31-.36 1 1 0 0 0-.54-.14c-.14 0-.28.02-.4.05s-.23.08-.32.15a.5.5 0 0 0-.18.27h-1.12c.04-.25.13-.46.26-.63.13-.18.29-.32.48-.44.19-.11.4-.2.62-.26.23-.06.46-.08.69-.08.69 0 1.19.2 1.51.59.32.4.47.95.47 1.66v2.56h-.97l-.03-.61c-.14.2-.3.35-.5.45-.19.1-.38.16-.56.18s-.33.04-.46.04Zm.22-.89c.24 0 .45-.04.64-.13s.33-.22.45-.38c.11-.16.17-.35.17-.56v-.15h-.86c-.14 0-.29 0-.43.01-.14 0-.27.03-.38.07s-.21.1-.27.18-.1.19-.1.33.04.26.11.35.17.16.3.21c.12.05.25.07.39.07Z" fill="#ffffff" data-color="1"></path>
        <path d="M110.4 103.73v-4.74h1l.06.62c.12-.18.26-.32.41-.42s.32-.17.49-.21q.27-.06.54-.06h.32v1.04h-.29c-.31 0-.58.06-.79.18-.22.12-.38.29-.49.51s-.16.49-.16.82v2.25h-1.1Z" fill="#ffffff" data-color="1"></path>
        <path d="M115.81 103.79c-.49 0-.91-.1-1.26-.31s-.61-.49-.78-.85-.27-.78-.27-1.26.09-.91.28-1.27c.18-.37.45-.66.79-.87s.76-.31 1.25-.31c.36 0 .67.06.95.19.27.13.5.3.68.53.18.22.32.47.41.76s.13.58.13.89c0 .07-.01.14-.02.21s-.01.14-.03.22h-3.33c.02.21.07.4.17.58s.23.31.4.41.38.15.64.15c.15 0 .29-.02.43-.06s.26-.1.36-.18q.165-.12.21-.3h1.1c-.08.34-.22.62-.43.84-.21.21-.46.38-.75.48s-.6.15-.92.15Zm-1.18-2.89h2.29c0-.2-.04-.38-.13-.54s-.22-.29-.38-.38c-.17-.09-.36-.14-.6-.14q-.375 0-.63.15c-.255.15-.3.23-.39.4s-.14.33-.15.51Z" fill="#ffffff" data-color="1"></path>
        <path d="M120.49 103.79c-.23 0-.45-.02-.68-.07q-.345-.075-.63-.24c-.2-.11-.36-.26-.5-.45s-.22-.43-.26-.72h1.11c.05.13.12.24.23.32s.23.14.37.18.28.06.42.06c.08 0 .17 0 .27-.02.1-.01.19-.04.28-.07s.16-.09.21-.16.08-.16.08-.28c0-.11-.03-.19-.09-.26a.7.7 0 0 0-.24-.15c-.1-.04-.22-.07-.37-.1-.26-.05-.53-.11-.83-.17s-.55-.16-.76-.3a.9.9 0 0 1-.23-.19 1 1 0 0 1-.17-.24c-.04-.09-.08-.18-.1-.28q-.03-.15-.03-.33c0-.25.05-.47.16-.64.11-.18.25-.32.42-.43.18-.11.38-.19.61-.25.23-.05.46-.08.7-.08.32 0 .62.05.88.15s.48.26.66.47.28.48.32.8h-1.04q-.045-.225-.27-.36c-.225-.135-.35-.14-.58-.14-.08 0-.17 0-.26.02-.09.01-.17.04-.26.07s-.15.08-.2.15-.08.15-.08.24.02.17.07.23.11.12.21.17c.09.04.2.08.33.11.2.04.42.08.64.12s.41.08.58.13c.19.05.37.13.52.23q.24.15.36.39c.12.24.13.36.13.61q0 .435-.18.72c-.12.19-.27.34-.46.45s-.4.19-.64.23-.46.07-.69.07Z" fill="#ffffff" data-color="1"></path>
        <path d="M125.42 103.73v-4.74h1.01l.07.54c.12-.16.25-.29.39-.37a1.54 1.54 0 0 1 .88-.24c.3 0 .56.06.77.18s.38.3.5.54c.12-.17.25-.3.4-.41s.31-.18.48-.23.34-.08.53-.08c.37 0 .66.08.88.23s.38.36.49.63c.1.27.15.57.15.91v3.04h-1.1v-2.69c0-.12 0-.25-.02-.38-.01-.13-.04-.26-.09-.37a.7.7 0 0 0-.22-.28c-.1-.07-.23-.11-.41-.11s-.32.04-.43.11c-.11.08-.2.17-.27.3-.07.12-.12.26-.14.41-.03.15-.04.29-.04.44v2.57h-1.1v-2.7c0-.11 0-.24-.02-.36-.01-.13-.04-.25-.09-.37s-.12-.21-.22-.28-.24-.11-.41-.11q-.375 0-.57.21c-.13.14-.22.31-.26.5-.04.2-.07.39-.07.57v2.55h-1.1Z" fill="#ffffff" data-color="1"></path>
        <path d="M134.32 103.79q-.33 0-.63-.09c-.2-.06-.38-.15-.53-.27s-.28-.26-.37-.44-.14-.39-.14-.63q0-.465.18-.75c.18-.285.28-.34.49-.45.21-.1.44-.17.71-.21.26-.04.54-.06.83-.06h.93c0-.21-.03-.39-.1-.54a.83.83 0 0 0-.31-.36 1 1 0 0 0-.54-.14c-.14 0-.28.02-.4.05s-.23.08-.32.15a.5.5 0 0 0-.18.27h-1.12c.04-.25.13-.46.26-.63.13-.18.29-.32.48-.44.19-.11.4-.2.62-.26.23-.06.46-.08.69-.08.69 0 1.19.2 1.51.59.32.4.47.95.47 1.66v2.56h-.97l-.03-.61c-.14.2-.3.35-.5.45-.19.1-.38.16-.56.18s-.33.04-.46.04Zm.21-.89c.24 0 .45-.04.64-.13s.33-.22.45-.38c.11-.16.17-.35.17-.56v-.15h-.86c-.14 0-.29 0-.43.01-.14 0-.27.03-.38.07s-.21.1-.27.18-.1.19-.1.33.04.26.11.35.17.16.3.21c.12.05.25.07.39.07Z" fill="#ffffff" data-color="1"></path>
        <path d="M138.24 98.44c-.21 0-.38-.06-.5-.19-.13-.13-.19-.29-.19-.5s.07-.36.2-.49.3-.19.5-.19.36.06.5.19c.14.12.21.29.21.49s-.07.37-.2.5a.72.72 0 0 1-.5.19Zm-.55 5.29v-4.74h1.1v4.74z" fill="#ffffff" data-color="1"></path>
        <path d="M141.49 103.79c-.23 0-.45-.02-.68-.07q-.345-.075-.63-.24c-.2-.11-.36-.26-.5-.45s-.22-.43-.26-.72h1.11c.05.13.12.24.23.32s.23.14.37.18.28.06.42.06c.08 0 .17 0 .27-.02.1-.01.19-.04.28-.07s.16-.09.21-.16.08-.16.08-.28c0-.11-.03-.19-.09-.26a.7.7 0 0 0-.24-.15c-.1-.04-.22-.07-.37-.1-.26-.05-.53-.11-.83-.17s-.55-.16-.76-.3a.9.9 0 0 1-.23-.19 1 1 0 0 1-.17-.24c-.04-.09-.08-.18-.1-.28q-.03-.15-.03-.33c0-.25.05-.47.16-.64.11-.18.25-.32.42-.43.18-.11.38-.19.61-.25.23-.05.46-.08.7-.08.32 0 .62.05.88.15s.48.26.66.47.28.48.32.8h-1.04q-.045-.225-.27-.36c-.225-.135-.35-.14-.58-.14-.08 0-.17 0-.26.02-.09.01-.17.04-.26.07s-.15.08-.2.15-.08.15-.08.24.02.17.07.23.11.12.21.17c.09.04.2.08.33.11.2.04.42.08.64.12s.41.08.58.13c.19.05.37.13.52.23q.24.15.36.39c.12.24.13.36.13.61q0 .435-.18.72c-.12.19-.27.34-.46.45s-.4.19-.64.23-.46.07-.69.07Z" fill="#ffffff" data-color="1"></path>
        <path d="M17.1 113.29c-.49 0-.91-.1-1.26-.31s-.61-.49-.78-.85-.27-.78-.27-1.26.09-.91.28-1.27c.18-.37.45-.66.79-.87s.76-.31 1.25-.31c.36 0 .67.06.95.19.27.13.5.3.68.53.18.22.32.47.41.76s.13.58.13.89c0 .07-.01.14-.02.21s-.01.14-.03.22H15.9c.02.21.07.4.17.58s.23.31.4.41.38.15.64.15c.15 0 .29-.02.43-.06s.26-.1.36-.18q.165-.12.21-.3h1.1c-.08.34-.22.62-.43.84-.21.21-.46.38-.75.48s-.6.15-.92.15Zm-1.19-2.89h2.29c0-.2-.04-.38-.13-.54s-.22-.29-.38-.38c-.17-.09-.36-.14-.6-.14q-.375 0-.63.15c-.255.15-.3.23-.39.4s-.14.33-.15.51Z" fill="#ffffff" data-color="1"></path>
        <path d="m19.42 113.23 1.67-2.42-1.58-2.32h1.28l1.03 1.59 1-1.59h1.25l-1.58 2.35 1.7 2.39H22.9l-1.12-1.64-1.12 1.64h-1.22Z" fill="#ffffff" data-color="1"></path>
        <path d="M25.15 107.94c-.21 0-.38-.06-.5-.19-.13-.13-.19-.29-.19-.5s.07-.36.2-.49.3-.19.5-.19.36.06.5.19c.14.12.21.29.21.49s-.07.37-.2.5a.72.72 0 0 1-.5.19Zm-.55 5.29v-4.74h1.1v4.74z" fill="#ffffff" data-color="1"></path>
        <path d="M28.78 115.4c-.35 0-.67-.06-.98-.17-.3-.11-.56-.29-.77-.52-.21-.24-.35-.54-.42-.91h1.12c.04.14.11.26.22.35s.24.15.38.19q.225.06.45.06c.29 0 .53-.06.7-.18s.29-.28.37-.49c.07-.21.11-.43.11-.68v-.45c-.11.17-.24.31-.41.41s-.34.17-.52.21q-.27.06-.54.06c-.49 0-.89-.11-1.2-.32-.31-.22-.54-.51-.68-.87s-.22-.76-.22-1.2.08-.87.24-1.25.4-.67.72-.9c.32-.22.72-.33 1.21-.33.28 0 .55.05.8.15q.375.15.63.45l.07-.52h1.02v4.33c0 .53-.08.99-.23 1.38s-.4.68-.73.89c-.34.21-.78.31-1.33.31Zm-.06-3.09c.28 0 .52-.07.7-.2q.285-.195.42-.54c.1-.23.14-.47.14-.73s-.05-.51-.14-.73a1.1 1.1 0 0 0-.41-.51c-.18-.12-.42-.19-.71-.19-.31 0-.55.07-.73.21s-.31.32-.39.54c-.08.23-.12.46-.12.72s.04.5.13.72c.08.22.22.39.4.52s.42.19.71.19" fill="#ffffff" data-color="1"></path>
        <path d="M34.08 113.29c-.49 0-.91-.1-1.26-.31s-.61-.49-.78-.85-.27-.78-.27-1.26.09-.91.28-1.27c.18-.37.45-.66.79-.87s.76-.31 1.25-.31c.36 0 .67.06.95.19.27.13.5.3.68.53.18.22.32.47.41.76s.13.58.13.89c0 .07-.01.14-.02.21s-.01.14-.03.22h-3.33c.02.21.07.4.17.58s.23.31.4.41.38.15.64.15c.15 0 .29-.02.43-.06s.26-.1.36-.18q.165-.12.21-.3h1.1c-.08.34-.22.62-.43.84-.21.21-.46.38-.75.48s-.6.15-.92.15Zm-1.18-2.89h2.29c0-.2-.04-.38-.13-.54s-.22-.29-.38-.38c-.17-.09-.36-.14-.6-.14q-.375 0-.63.15c-.255.15-.3.23-.39.4s-.14.33-.15.51Z" fill="#ffffff" data-color="1"></path>
        <path d="M36.95 113.23v-4.74h1.03l.06.6c.13-.17.27-.3.44-.4s.35-.17.53-.21c.19-.04.36-.07.52-.07.45 0 .81.1 1.07.3s.45.46.55.79c.11.33.16.7.16 1.11v2.62h-1.1v-2.44c0-.17-.01-.34-.04-.51-.02-.17-.07-.31-.14-.45-.07-.13-.17-.24-.29-.32s-.29-.12-.5-.12q-.39 0-.66.21c-.27.21-.32.32-.41.55s-.13.49-.13.79v2.28h-1.1Z" fill="#ffffff" data-color="1"></path>
        <path d="M44.24 113.23c-.38 0-.7-.05-.95-.15s-.43-.27-.56-.5c-.12-.23-.18-.53-.18-.92v-2.21h-.73v-.97h.73v-1.32h1.1v1.32h1.11v.97h-1.11v2.06c0 .24.04.42.13.55s.27.19.57.19h.38v.97h-.48Z" fill="#ffffff" data-color="1"></path>
        <path d="M47.42 113.29c-.49 0-.91-.1-1.26-.31s-.61-.49-.78-.85-.27-.78-.27-1.26.09-.91.28-1.27c.18-.37.45-.66.79-.87s.76-.31 1.25-.31c.36 0 .67.06.95.19.27.13.5.3.68.53.18.22.32.47.41.76s.13.58.13.89c0 .07-.01.14-.02.21s-.01.14-.03.22h-3.33c.02.21.07.4.17.58s.23.31.4.41.38.15.64.15c.15 0 .29-.02.43-.06s.26-.1.36-.18q.165-.12.21-.3h1.1c-.08.34-.22.62-.43.84-.21.21-.46.38-.75.48s-.6.15-.92.15Zm-1.19-2.89h2.29c0-.2-.04-.38-.13-.54s-.22-.29-.38-.38c-.17-.09-.36-.14-.6-.14q-.375 0-.63.15c-.255.15-.3.23-.39.4s-.14.33-.15.51Z" fill="#ffffff" data-color="1"></path>
        <path d="M52.1 113.29c-.23 0-.45-.02-.68-.07q-.345-.075-.63-.24c-.2-.11-.36-.26-.5-.45s-.22-.43-.26-.72h1.11c.05.13.12.24.23.32s.23.14.37.18.28.06.42.06c.08 0 .17 0 .27-.02.1-.01.19-.04.28-.07s.16-.09.21-.16.08-.16.08-.28c0-.11-.03-.19-.09-.26a.7.7 0 0 0-.24-.15c-.1-.04-.22-.07-.37-.1-.26-.05-.53-.11-.83-.17s-.55-.16-.76-.3a.9.9 0 0 1-.23-.19 1 1 0 0 1-.17-.24c-.04-.09-.08-.18-.1-.28q-.03-.15-.03-.33c0-.25.05-.47.16-.64.11-.18.25-.32.42-.43.18-.11.38-.19.61-.25.23-.05.46-.08.7-.08.32 0 .62.05.88.15s.48.26.66.47.28.48.32.8h-1.04q-.045-.225-.27-.36c-.225-.135-.35-.14-.58-.14-.08 0-.17 0-.26.02-.09.01-.17.04-.26.07s-.15.08-.2.15-.08.15-.08.24.02.17.07.23.11.12.21.17c.09.04.2.08.33.11.2.04.42.08.64.12s.41.08.58.13c.19.05.37.13.52.23q.24.15.36.39c.12.24.13.36.13.61q0 .435-.18.72c-.12.19-.27.34-.46.45s-.4.19-.64.23-.46.07-.69.07Z" fill="#ffffff" data-color="1"></path>
        <path d="m55.02 114.52-.31-.48c.09-.05.18-.12.28-.2.1-.09.18-.18.27-.29s.14-.2.17-.28a.83.83 0 0 1-.45-.19c-.12-.11-.18-.27-.18-.47s.07-.38.22-.5c.14-.12.31-.18.49-.18.23 0 .41.08.54.26.13.17.2.39.2.67 0 .25-.06.48-.17.71-.12.23-.27.43-.45.59-.18.17-.38.29-.58.36Z" fill="#ffffff" data-color="1"></path>
        <path d="M59.52 113.23v-3.77h-.74v-.97h.74v-.45c0-.36.05-.66.16-.89s.28-.4.52-.51.54-.16.91-.16h.7v.97h-.58c-.16 0-.29.03-.38.08s-.15.13-.19.24-.06.23-.06.38v.33h1.21v.97H60.6v3.77h-1.09Z" fill="#ffffff" data-color="1"></path>
        <path d="M63.83 113.29q-.33 0-.63-.09c-.2-.06-.38-.15-.53-.27s-.28-.26-.37-.44-.14-.39-.14-.63q0-.465.18-.75c.18-.285.28-.34.49-.45.21-.1.44-.17.71-.21.26-.04.54-.06.83-.06h.93c0-.21-.03-.39-.1-.54a.83.83 0 0 0-.31-.36 1 1 0 0 0-.54-.14c-.14 0-.28.02-.4.05s-.23.08-.32.15a.5.5 0 0 0-.18.27h-1.12c.04-.25.13-.46.26-.63.13-.18.29-.32.48-.44.19-.11.4-.2.62-.26.23-.06.46-.08.69-.08.69 0 1.19.2 1.51.59.32.4.47.95.47 1.66v2.56h-.97l-.03-.61c-.14.2-.3.35-.5.45-.19.1-.38.16-.56.18s-.33.04-.46.04Zm.21-.89c.24 0 .45-.04.64-.13s.33-.22.45-.38c.11-.16.17-.35.17-.56v-.15h-.86c-.14 0-.29 0-.43.01-.14 0-.27.03-.38.07s-.21.1-.27.18-.1.19-.1.33.04.26.11.35.17.16.3.21c.12.05.25.07.39.07Z" fill="#ffffff" data-color="1"></path>
        <path d="M69.29 113.29c-.49 0-.91-.1-1.24-.3s-.59-.48-.76-.85a3 3 0 0 1-.26-1.27c0-.48.09-.91.27-1.27.18-.37.44-.66.79-.87s.77-.31 1.27-.31c.37 0 .69.06.98.19s.52.31.69.55c.18.24.29.54.34.9h-1.08a.86.86 0 0 0-.36-.5c-.17-.1-.36-.16-.59-.16-.31 0-.55.07-.72.22s-.3.33-.38.55q-.12.33-.12.69c0 .36.04.49.13.71.08.22.21.39.39.53.18.13.41.2.69.2.23 0 .43-.05.62-.15.18-.1.3-.27.36-.5h1.12c-.04.37-.16.67-.37.91-.2.24-.45.43-.76.54q-.465.18-.99.18Z" fill="#ffffff" data-color="1"></path>
        <path d="M72.61 107.94c-.21 0-.38-.06-.5-.19-.13-.13-.19-.29-.19-.5s.07-.36.2-.49.3-.19.5-.19.36.06.5.19c.14.12.21.29.21.49s-.07.37-.2.5a.72.72 0 0 1-.5.19Zm-.55 5.29v-4.74h1.1v4.74z" fill="#ffffff" data-color="1"></path>
        <path d="M74.04 113.23v-6.36h1.1v6.36z" fill="#ffffff" data-color="1"></path>
        <path d="M76.57 107.94c-.21 0-.38-.06-.5-.19-.13-.13-.19-.29-.19-.5s.07-.36.2-.49.3-.19.5-.19.36.06.5.19c.14.12.21.29.21.49s-.07.37-.2.5a.72.72 0 0 1-.5.19Zm-.55 5.29v-4.74h1.1v4.74z" fill="#ffffff" data-color="1"></path>
        <path d="M80.07 113.23c-.38 0-.7-.05-.95-.15s-.43-.27-.56-.5c-.12-.23-.18-.53-.18-.92v-2.21h-.73v-.97h.73v-1.32h1.1v1.32h1.11v.97h-1.11v2.06c0 .24.04.42.13.55s.27.19.57.19h.38v.97h-.48Z" fill="#ffffff" data-color="1"></path>
        <path d="M82.64 113.29q-.33 0-.63-.09c-.2-.06-.38-.15-.53-.27s-.28-.26-.37-.44-.14-.39-.14-.63q0-.465.18-.75c.18-.285.28-.34.49-.45.21-.1.44-.17.71-.21.26-.04.54-.06.83-.06h.93c0-.21-.03-.39-.1-.54a.83.83 0 0 0-.31-.36 1 1 0 0 0-.54-.14c-.14 0-.28.02-.4.05s-.23.08-.32.15a.5.5 0 0 0-.18.27h-1.12c.04-.25.13-.46.26-.63.13-.18.29-.32.48-.44.19-.11.4-.2.62-.26.23-.06.46-.08.69-.08.69 0 1.19.2 1.51.59.32.4.47.95.47 1.66v2.56h-.97l-.03-.61c-.14.2-.3.35-.5.45-.19.1-.38.16-.56.18s-.33.04-.46.04Zm.22-.89c.24 0 .45-.04.64-.13s.33-.22.45-.38c.11-.16.17-.35.17-.56v-.15h-.86c-.14 0-.29 0-.43.01-.14 0-.27.03-.38.07s-.21.1-.27.18-.1.19-.1.33.04.26.11.35.17.16.3.21c.12.05.25.07.39.07Z" fill="#ffffff" data-color="1"></path>
        <path d="M89.85 113.29q-.33 0-.63-.09c-.2-.06-.38-.15-.53-.27s-.28-.26-.37-.44-.14-.39-.14-.63q0-.465.18-.75c.18-.285.28-.34.49-.45.21-.1.44-.17.71-.21.26-.04.54-.06.83-.06h.93c0-.21-.03-.39-.1-.54a.83.83 0 0 0-.31-.36 1 1 0 0 0-.54-.14c-.14 0-.28.02-.4.05s-.23.08-.32.15a.5.5 0 0 0-.18.27h-1.12c.04-.25.13-.46.26-.63.13-.18.29-.32.48-.44.19-.11.4-.2.62-.26.23-.06.46-.08.69-.08.69 0 1.19.2 1.51.59.32.4.47.95.47 1.66v2.56h-.97l-.03-.61c-.14.2-.3.35-.5.45-.19.1-.38.16-.56.18s-.33.04-.46.04Zm.22-.89c.24 0 .45-.04.64-.13s.33-.22.45-.38c.11-.16.17-.35.17-.56v-.15h-.86c-.14 0-.29 0-.43.01-.14 0-.27.03-.38.07s-.21.1-.27.18-.1.19-.1.33.04.26.11.35.17.16.3.21c.12.05.25.07.39.07Z" fill="#ffffff" data-color="1"></path>
        <path d="M97.06 113.29q-.33 0-.63-.09c-.2-.06-.38-.15-.53-.27s-.28-.26-.37-.44-.14-.39-.14-.63q0-.465.18-.75c.18-.285.28-.34.49-.45.21-.1.44-.17.71-.21.26-.04.54-.06.83-.06h.93c0-.21-.03-.39-.1-.54a.83.83 0 0 0-.31-.36 1 1 0 0 0-.54-.14c-.14 0-.28.02-.4.05s-.23.08-.32.15a.5.5 0 0 0-.18.27h-1.12c.04-.25.13-.46.26-.63.13-.18.29-.32.48-.44.19-.11.4-.2.62-.26.23-.06.46-.08.69-.08.69 0 1.19.2 1.51.59.32.4.47.95.47 1.66v2.56h-.97l-.03-.61c-.14.2-.3.35-.5.45-.19.1-.38.16-.56.18s-.33.04-.46.04Zm.21-.89c.24 0 .45-.04.64-.13s.33-.22.45-.38c.11-.16.17-.35.17-.56v-.15h-.86c-.14 0-.29 0-.43.01-.14 0-.27.03-.38.07s-.21.1-.27.18-.1.19-.1.33.04.26.11.35.17.16.3.21c.12.05.25.07.39.07Z" fill="#ffffff" data-color="1"></path>
        <path d="M102.52 113.29c-.49 0-.91-.1-1.24-.3s-.59-.48-.76-.85a3 3 0 0 1-.26-1.27c0-.48.09-.91.27-1.27.18-.37.44-.66.79-.87s.77-.31 1.27-.31c.37 0 .69.06.98.19s.52.31.69.55c.18.24.29.54.34.9h-1.08a.86.86 0 0 0-.36-.5c-.17-.1-.36-.16-.59-.16-.31 0-.55.07-.72.22s-.3.33-.38.55q-.12.33-.12.69c0 .36.04.49.13.71.08.22.21.39.39.53.18.13.41.2.69.2.23 0 .43-.05.62-.15.18-.1.3-.27.36-.5h1.12c-.04.37-.16.67-.37.91-.2.24-.45.43-.76.54q-.465.18-.99.18Z" fill="#ffffff" data-color="1"></path>
        <path d="M107.41 113.29c-.49 0-.91-.1-1.26-.31s-.61-.49-.78-.85-.27-.78-.27-1.26.09-.91.28-1.27c.18-.37.45-.66.79-.87s.76-.31 1.25-.31c.36 0 .67.06.95.19.27.13.5.3.68.53.18.22.32.47.41.76s.13.58.13.89c0 .07-.01.14-.02.21s-.01.14-.03.22h-3.33c.02.21.07.4.17.58s.23.31.4.41.38.15.64.15c.15 0 .29-.02.43-.06s.26-.1.36-.18q.165-.12.21-.3h1.1c-.08.34-.22.62-.43.84-.21.21-.46.38-.75.48s-.6.15-.92.15Zm-1.19-2.89h2.29c0-.2-.04-.38-.13-.54s-.22-.29-.38-.38c-.17-.09-.36-.14-.6-.14q-.375 0-.63.15c-.255.15-.3.23-.39.4s-.14.33-.15.51Z" fill="#ffffff" data-color="1"></path>
        <path d="M110.82 107.94c-.21 0-.38-.06-.5-.19-.13-.13-.19-.29-.19-.5s.07-.36.2-.49.3-.19.5-.19.36.06.5.19c.14.12.21.29.21.49s-.07.37-.2.5a.72.72 0 0 1-.5.19Zm-.55 5.29v-4.74h1.1v4.74z" fill="#ffffff" data-color="1"></path>
        <path d="M114.32 113.23c-.38 0-.7-.05-.95-.15s-.43-.27-.56-.5c-.12-.23-.18-.53-.18-.92v-2.21h-.73v-.97h.73v-1.32h1.1v1.32h1.11v.97h-1.11v2.06c0 .24.04.42.13.55s.27.19.57.19h.38v.97h-.48Z" fill="#ffffff" data-color="1"></path>
        <path d="M116.89 113.29q-.33 0-.63-.09c-.2-.06-.38-.15-.53-.27s-.28-.26-.37-.44-.14-.39-.14-.63q0-.465.18-.75c.18-.285.28-.34.49-.45.21-.1.44-.17.71-.21.26-.04.54-.06.83-.06h.93c0-.21-.03-.39-.1-.54a.83.83 0 0 0-.31-.36 1 1 0 0 0-.54-.14c-.14 0-.28.02-.4.05s-.23.08-.32.15a.5.5 0 0 0-.18.27h-1.12c.04-.25.13-.46.26-.63.13-.18.29-.32.48-.44.19-.11.4-.2.62-.26.23-.06.46-.08.69-.08.69 0 1.19.2 1.51.59.32.4.47.95.47 1.66v2.56h-.97l-.03-.61c-.14.2-.3.35-.5.45-.19.1-.38.16-.56.18s-.33.04-.46.04Zm.22-.89c.24 0 .45-.04.64-.13s.33-.22.45-.38c.11-.16.17-.35.17-.56v-.15h-.86c-.14 0-.29 0-.43.01-.14 0-.27.03-.38.07s-.21.1-.27.18-.1.19-.1.33.04.26.11.35.17.16.3.21c.12.05.25.07.39.07Z" fill="#ffffff" data-color="1"></path>
        <path d="M122.36 113.29c-.49 0-.91-.1-1.24-.3s-.59-.48-.76-.85a3 3 0 0 1-.26-1.27c0-.48.09-.91.27-1.27.18-.37.44-.66.79-.87s.77-.31 1.27-.31c.37 0 .69.06.98.19s.52.31.69.55c.18.24.29.54.34.9h-1.08a.86.86 0 0 0-.36-.5c-.17-.1-.36-.16-.59-.16-.31 0-.55.07-.72.22s-.3.33-.38.55q-.12.33-.12.69c0 .36.04.49.13.71.08.22.21.39.39.53.18.13.41.2.69.2.23 0 .43-.05.62-.15.18-.1.3-.27.36-.5h1.12c-.04.37-.16.67-.37.91-.2.24-.45.43-.76.54q-.465.18-.99.18Zm-.17 2.3h-.33c-.1 0-.2-.01-.29-.02v-.66c.13.01.26.02.38.01s.23-.02.32-.04c.09-.03.17-.07.23-.13s.08-.14.08-.23a.24.24 0 0 0-.08-.19c-.06-.04-.12-.08-.2-.09-.08-.02-.14-.02-.2-.02-.08 0-.17 0-.26.02a.7.7 0 0 0-.24.06l.33-1.29h.74l-.15.66h.21c.22.01.39.09.52.22s.19.33.19.59-.06.45-.17.61q-.165.24-.45.36c-.19.08-.39.13-.61.15Z" fill="#ffffff" data-color="1"></path>
        <path d="M126.63 113.29q-.33 0-.63-.09c-.2-.06-.38-.15-.53-.27s-.28-.26-.37-.44-.14-.39-.14-.63q0-.465.18-.75c.18-.285.28-.34.49-.45.21-.1.44-.17.71-.21.26-.04.54-.06.83-.06h.93c0-.21-.03-.39-.1-.54a.83.83 0 0 0-.31-.36 1 1 0 0 0-.54-.14c-.14 0-.28.02-.4.05s-.23.08-.32.15a.5.5 0 0 0-.18.27h-1.12c.04-.25.13-.46.26-.63.13-.18.29-.32.48-.44.19-.11.4-.2.62-.26.23-.06.46-.08.69-.08.69 0 1.19.2 1.51.59.32.4.47.95.47 1.66v2.56h-.97l-.03-.61c-.14.2-.3.35-.5.45-.19.1-.38.16-.56.18s-.33.04-.46.04Zm1.24-5.38c-.17 0-.32-.03-.44-.1-.13-.06-.24-.14-.34-.22s-.19-.16-.27-.22-.16-.09-.24-.09-.15.04-.18.11c-.04.07-.06.15-.07.25v.23h-.79c-.01-.23.01-.45.07-.66s.16-.38.32-.52c.15-.13.37-.2.64-.2.16 0 .29.03.4.09s.22.13.31.22.18.15.26.22c.08.06.16.09.23.09.1 0 .16-.03.2-.1s.06-.15.06-.23v-.23h.79c0 .22-.02.44-.07.65s-.15.38-.28.52c-.14.13-.34.2-.6.2Zm-1.02 4.49c.24 0 .45-.04.64-.13s.33-.22.45-.38c.11-.16.17-.35.17-.56v-.15h-.86c-.14 0-.29 0-.43.01-.14 0-.27.03-.38.07s-.21.1-.27.18-.1.19-.1.33.04.26.11.35.17.16.3.21c.12.05.25.07.39.07Z" fill="#ffffff" data-color="1"></path>
        <path d="M132.17 113.29c-.49 0-.9-.1-1.26-.3-.35-.2-.62-.48-.81-.85s-.28-.79-.28-1.29.1-.93.29-1.29.46-.65.81-.85.76-.31 1.25-.31.89.1 1.24.31c.35.2.61.49.8.86s.28.8.28 1.3-.09.91-.28 1.27c-.18.36-.45.64-.8.84s-.77.3-1.25.3Zm0-1c.3 0 .54-.07.72-.2s.32-.31.4-.52c.08-.22.13-.45.13-.7s-.04-.49-.13-.71a1.2 1.2 0 0 0-.4-.54c-.18-.13-.42-.2-.72-.2s-.54.07-.73.2-.32.31-.41.53c-.08.22-.13.46-.13.72s.04.49.13.71.22.39.41.52c.18.13.42.19.72.19Z" fill="#ffffff" data-color="1"></path>
        <path d="M139.65 113.29c-.49 0-.91-.1-1.26-.31s-.61-.49-.78-.85-.27-.78-.27-1.26.09-.91.28-1.27c.18-.37.45-.66.79-.87s.76-.31 1.25-.31c.36 0 .67.06.95.19.27.13.5.3.68.53.18.22.32.47.41.76s.13.58.13.89c0 .07-.01.14-.02.21s-.01.14-.03.22h-3.33c.02.21.07.4.17.58s.23.31.4.41.38.15.64.15c.15 0 .29-.02.43-.06s.26-.1.36-.18q.165-.12.21-.3h1.1c-.08.34-.22.62-.43.84-.21.21-.46.38-.75.48s-.6.15-.92.15Zm-1.19-2.89h2.29c0-.2-.04-.38-.13-.54s-.22-.29-.38-.38c-.17-.09-.36-.14-.6-.14q-.375 0-.63.15c-.255.15-.3.23-.39.4s-.14.33-.15.51Z" fill="#ffffff" data-color="1"></path>
        <path d="M14.77 122.73c-.38 0-.7-.05-.95-.15s-.43-.27-.56-.5c-.12-.23-.18-.53-.18-.92v-2.21h-.73v-.97h.73v-1.32h1.1v1.32h1.11v.97h-1.11v2.06c0 .24.04.42.13.55s.27.19.57.19h.38v.97h-.48Z" fill="#ffffff" data-color="1"></path>
        <path d="M15.83 122.73v-4.74h1l.06.62c.12-.18.26-.32.41-.42s.32-.17.49-.21q.27-.06.54-.06h.32v1.04h-.29c-.31 0-.58.06-.79.18-.22.12-.38.29-.49.51s-.16.49-.16.82v2.25h-1.1Z" fill="#ffffff" data-color="1"></path>
        <path d="M20.63 122.79q-.33 0-.63-.09c-.2-.06-.38-.15-.53-.27s-.28-.26-.37-.44-.14-.39-.14-.63q0-.465.18-.75c.18-.285.28-.34.49-.45.21-.1.44-.17.71-.21.26-.04.54-.06.83-.06h.93c0-.21-.03-.39-.1-.54a.83.83 0 0 0-.31-.36 1 1 0 0 0-.54-.14c-.14 0-.28.02-.4.05s-.23.08-.32.15a.5.5 0 0 0-.18.27h-1.12c.04-.25.13-.46.26-.63.13-.18.29-.32.48-.44.19-.11.4-.2.62-.26.23-.06.46-.08.69-.08.69 0 1.19.2 1.51.59.32.4.47.95.47 1.66v2.56h-.97l-.03-.61c-.14.2-.3.35-.5.45-.19.1-.38.16-.56.18s-.33.04-.46.04Zm.22-.89c.24 0 .45-.04.64-.13s.33-.22.45-.38c.11-.16.17-.35.17-.56v-.15h-.86c-.14 0-.29 0-.43.01-.14 0-.27.03-.38.07s-.21.1-.27.18-.1.19-.1.33.04.26.11.35.17.16.3.21c.12.05.25.07.39.07Z" fill="#ffffff" data-color="1"></path>
        <path d="M24.01 122.73v-4.74h1.03l.06.6c.13-.17.27-.3.44-.4s.35-.17.53-.21c.19-.04.36-.07.52-.07.45 0 .81.1 1.07.3s.45.46.55.79c.11.33.16.7.16 1.11v2.62h-1.1v-2.44c0-.17-.01-.34-.04-.51-.02-.17-.07-.31-.14-.45-.07-.13-.17-.24-.29-.32s-.29-.12-.5-.12q-.39 0-.66.21c-.27.21-.32.32-.41.55s-.13.49-.13.79v2.28H24Z" fill="#ffffff" data-color="1"></path>
        <path d="M31.05 122.79c-.23 0-.45-.02-.68-.07q-.345-.075-.63-.24c-.2-.11-.36-.26-.5-.45s-.22-.43-.26-.72h1.11c.05.13.12.24.23.32s.23.14.37.18.28.06.42.06c.08 0 .17 0 .27-.02.1-.01.19-.04.28-.07s.16-.09.21-.16.08-.16.08-.28c0-.11-.03-.19-.09-.26a.7.7 0 0 0-.24-.15c-.1-.04-.22-.07-.37-.1-.26-.05-.53-.11-.83-.17s-.55-.16-.76-.3a.9.9 0 0 1-.23-.19 1 1 0 0 1-.17-.24c-.04-.09-.08-.18-.1-.28q-.03-.15-.03-.33c0-.25.05-.47.16-.64.11-.18.25-.32.42-.43.18-.11.38-.19.61-.25.23-.05.46-.08.7-.08.32 0 .62.05.88.15s.48.26.66.47.28.48.32.8h-1.04q-.045-.225-.27-.36c-.225-.135-.35-.14-.58-.14-.08 0-.17 0-.26.02-.09.01-.17.04-.26.07s-.15.08-.2.15-.08.15-.08.24.02.17.07.23.11.12.21.17c.09.04.2.08.33.11.2.04.42.08.64.12s.41.08.58.13c.19.05.37.13.52.23q.24.15.36.39c.12.24.13.36.13.61q0 .435-.18.72c-.12.19-.27.34-.46.45s-.4.19-.64.23-.46.07-.69.07Z" fill="#ffffff" data-color="1"></path>
        <path d="M33.98 122.73v-3.77h-.74v-.97h.74v-.45c0-.36.05-.66.16-.89s.28-.4.52-.51.54-.16.91-.16h.7v.97h-.58c-.16 0-.29.03-.38.08s-.15.13-.19.24-.06.23-.06.38v.33h1.21v.97h-1.21v3.77h-1.09Z" fill="#ffffff" data-color="1"></path>
        <path d="M38.86 122.79c-.49 0-.9-.1-1.26-.3-.35-.2-.62-.48-.81-.85s-.28-.79-.28-1.29.1-.93.29-1.29.46-.65.81-.85.76-.31 1.25-.31.89.1 1.24.31c.35.2.61.49.8.86s.28.8.28 1.3-.09.91-.28 1.27c-.18.36-.45.64-.8.84s-.77.3-1.25.3Zm-.01-1c.3 0 .54-.07.72-.2s.32-.31.4-.52c.08-.22.13-.45.13-.7s-.04-.49-.13-.71a1.2 1.2 0 0 0-.4-.54c-.18-.13-.42-.2-.72-.2s-.54.07-.73.2-.32.31-.41.53c-.08.22-.13.46-.13.72s.04.49.13.71.22.39.41.52c.18.13.42.19.72.19Z" fill="#ffffff" data-color="1"></path>
        <path d="M41.88 122.73v-4.74h1l.06.62c.12-.18.26-.32.41-.42s.32-.17.49-.21q.27-.06.54-.06h.32v1.04h-.29c-.31 0-.58.06-.79.18-.22.12-.38.29-.49.51s-.16.49-.16.82v2.25h-1.1Z" fill="#ffffff" data-color="1"></path>
        <path d="M45.18 122.73v-4.74h1.01l.07.54c.12-.16.25-.29.39-.37a1.54 1.54 0 0 1 .88-.24c.3 0 .56.06.77.18s.38.3.5.54c.12-.17.25-.3.4-.41s.31-.18.48-.23.34-.08.53-.08c.37 0 .66.08.88.23s.38.36.49.63c.1.27.15.57.15.91v3.04h-1.1v-2.69c0-.12 0-.25-.02-.38-.01-.13-.04-.26-.09-.37a.7.7 0 0 0-.22-.28c-.1-.07-.23-.11-.41-.11s-.32.04-.43.11c-.11.08-.2.17-.27.3-.07.12-.12.26-.14.41-.03.15-.04.29-.04.44v2.57h-1.1v-2.7c0-.11 0-.24-.02-.36-.01-.13-.04-.25-.09-.37s-.12-.21-.22-.28-.24-.11-.41-.11q-.375 0-.57.21c-.13.14-.22.31-.26.5-.04.2-.07.39-.07.57v2.55h-1.1Z" fill="#ffffff" data-color="1"></path>
        <path d="M54.08 122.79q-.33 0-.63-.09c-.2-.06-.38-.15-.53-.27s-.28-.26-.37-.44-.14-.39-.14-.63q0-.465.18-.75c.18-.285.28-.34.49-.45.21-.1.44-.17.71-.21.26-.04.54-.06.83-.06h.93c0-.21-.03-.39-.1-.54a.83.83 0 0 0-.31-.36 1 1 0 0 0-.54-.14c-.14 0-.28.02-.4.05s-.23.08-.32.15a.5.5 0 0 0-.18.27h-1.12c.04-.25.13-.46.26-.63.13-.18.29-.32.48-.44.19-.11.4-.2.62-.26.23-.06.46-.08.69-.08.69 0 1.19.2 1.51.59.32.4.47.95.47 1.66v2.56h-.97l-.03-.61c-.14.2-.3.35-.5.45-.19.1-.38.16-.56.18s-.33.04-.46.04Zm.21-.89c.24 0 .45-.04.64-.13s.33-.22.45-.38c.11-.16.17-.35.17-.56v-.15h-.86c-.14 0-.29 0-.43.01-.14 0-.27.03-.38.07s-.21.1-.27.18-.1.19-.1.33.04.26.11.35.17.16.3.21c.12.05.25.07.39.07Z" fill="#ffffff" data-color="1"></path>
        <path d="M61.86 122.79c-.49 0-.91-.1-1.24-.3s-.59-.48-.76-.85a3 3 0 0 1-.26-1.27c0-.48.09-.91.27-1.27.18-.37.44-.66.79-.87s.77-.31 1.27-.31c.37 0 .69.06.98.19s.52.31.69.55c.18.24.29.54.34.9h-1.08a.86.86 0 0 0-.36-.5c-.17-.1-.36-.16-.59-.16-.31 0-.55.07-.72.22s-.3.33-.38.55q-.12.33-.12.69c0 .36.04.49.13.71.08.22.21.39.39.53.18.13.41.2.69.2.23 0 .43-.05.62-.15.18-.1.3-.27.36-.5H64c-.04.37-.16.67-.37.91-.2.24-.45.43-.76.54q-.465.18-.99.18Z" fill="#ffffff" data-color="1"></path>
        <path d="M66.14 122.79q-.33 0-.63-.09c-.2-.06-.38-.15-.53-.27s-.28-.26-.37-.44-.14-.39-.14-.63q0-.465.18-.75c.18-.285.28-.34.49-.45.21-.1.44-.17.71-.21.26-.04.54-.06.83-.06h.93c0-.21-.03-.39-.1-.54a.83.83 0 0 0-.31-.36 1 1 0 0 0-.54-.14c-.14 0-.28.02-.4.05s-.23.08-.32.15a.5.5 0 0 0-.18.27h-1.12c.04-.25.13-.46.26-.63.13-.18.29-.32.48-.44.19-.11.4-.2.62-.26.23-.06.46-.08.69-.08.69 0 1.19.2 1.51.59.32.4.47.95.47 1.66v2.56h-.97l-.03-.61c-.14.2-.3.35-.5.45-.19.1-.38.16-.56.18s-.33.04-.46.04Zm.21-.89c.24 0 .45-.04.64-.13s.33-.22.45-.38c.11-.16.17-.35.17-.56v-.15h-.86c-.14 0-.29 0-.43.01-.14 0-.27.03-.38.07s-.21.1-.27.18-.1.19-.1.33.04.26.11.35.17.16.3.21c.12.05.25.07.39.07Z" fill="#ffffff" data-color="1"></path>
        <path d="M71.45 122.79c-.48 0-.88-.11-1.19-.33s-.54-.51-.7-.88c-.15-.37-.23-.77-.23-1.22s.08-.89.24-1.26.41-.66.73-.87.73-.32 1.21-.32a2.2 2.2 0 0 1 1.02.24c.15.08.28.19.38.32v-2.11h1.1v6.36h-1.06l-.02-.59c-.11.15-.25.27-.4.37s-.32.17-.51.22-.38.07-.58.07Zm.21-.99c.29 0 .53-.07.71-.2q.285-.21.42-.54c.09-.22.14-.46.14-.71s-.05-.5-.14-.72c-.09-.21-.23-.39-.42-.52s-.42-.2-.71-.2q-.465 0-.72.21c-.255.21-.31.32-.39.54a2.2 2.2 0 0 0-.05 1.26c.04.17.12.32.21.46.1.13.22.24.38.31s.35.11.58.11Z" fill="#ffffff" data-color="1"></path>
        <path d="M76.41 122.79q-.33 0-.63-.09c-.2-.06-.38-.15-.53-.27s-.28-.26-.37-.44-.14-.39-.14-.63q0-.465.18-.75c.18-.285.28-.34.49-.45.21-.1.44-.17.71-.21.26-.04.54-.06.83-.06h.93c0-.21-.03-.39-.1-.54a.83.83 0 0 0-.31-.36 1 1 0 0 0-.54-.14c-.14 0-.28.02-.4.05s-.23.08-.32.15a.5.5 0 0 0-.18.27h-1.12c.04-.25.13-.46.26-.63.13-.18.29-.32.48-.44.19-.11.4-.2.62-.26.23-.06.46-.08.69-.08.69 0 1.19.2 1.51.59.32.4.47.95.47 1.66v2.56h-.97l-.03-.61c-.14.2-.3.35-.5.45-.19.1-.38.16-.56.18s-.33.04-.46.04Zm.21-.89c.24 0 .45-.04.64-.13s.33-.22.45-.38c.11-.16.17-.35.17-.56v-.15h-.86c-.14 0-.29 0-.43.01-.14 0-.27.03-.38.07s-.21.1-.27.18-.1.19-.1.33.04.26.11.35.17.16.3.21c.12.05.25.07.39.07Z" fill="#ffffff" data-color="1"></path>
        <path d="M82.1 122.73v-4.74h1l.06.62c.12-.18.26-.32.41-.42s.32-.17.49-.21q.27-.06.54-.06h.32v1.04h-.29c-.31 0-.58.06-.79.18-.22.12-.38.29-.49.51s-.16.49-.16.82v2.25h-1.1Z" fill="#ffffff" data-color="1"></path>
        <path d="M87.52 122.79c-.49 0-.91-.1-1.26-.31s-.61-.49-.78-.85-.27-.78-.27-1.26.09-.91.28-1.27c.18-.37.45-.66.79-.87s.76-.31 1.25-.31c.36 0 .67.06.95.19.27.13.5.3.68.53.18.22.32.47.41.76s.13.58.13.89c0 .07-.01.14-.02.21s-.01.14-.03.22h-3.33c.02.21.07.4.17.58s.23.31.4.41.38.15.64.15c.15 0 .29-.02.43-.06s.26-.1.36-.18q.165-.12.21-.3h1.1c-.08.34-.22.62-.43.84-.21.21-.46.38-.75.48s-.6.15-.92.15Zm-1.19-2.89h2.29c0-.2-.04-.38-.13-.54s-.22-.29-.38-.38c-.17-.09-.36-.14-.6-.14q-.375 0-.63.15c-.255.15-.3.23-.39.4s-.14.33-.15.51Z" fill="#ffffff" data-color="1"></path>
        <path d="M90.72 122.73v-3.77h-.74v-.97h.74v-.45c0-.36.05-.66.16-.89s.28-.4.52-.51.54-.16.91-.16h.7v.97h-.58c-.16 0-.29.03-.38.08s-.15.13-.19.24-.06.23-.06.38v.33h1.21v.97H91.8v3.77h-1.09Z" fill="#ffffff" data-color="1"></path>
        <path d="M95.55 122.79c-.49 0-.91-.1-1.26-.31s-.61-.49-.78-.85-.27-.78-.27-1.26.09-.91.28-1.27c.18-.37.45-.66.79-.87s.76-.31 1.25-.31c.36 0 .67.06.95.19.27.13.5.3.68.53.18.22.32.47.41.76s.13.58.13.89c0 .07-.01.14-.02.21s-.01.14-.03.22h-3.33c.02.21.07.4.17.58s.23.31.4.41.38.15.64.15c.15 0 .29-.02.43-.06s.26-.1.36-.18q.165-.12.21-.3h1.1c-.08.34-.22.62-.43.84-.21.21-.46.38-.75.48s-.6.15-.92.15Zm-1.19-2.89h2.29c0-.2-.04-.38-.13-.54s-.22-.29-.38-.38c-.17-.09-.36-.14-.6-.14q-.375 0-.63.15c-.255.15-.3.23-.39.4s-.14.33-.15.51Z" fill="#ffffff" data-color="1"></path>
        <path d="M98.96 117.44c-.21 0-.38-.06-.5-.19-.13-.13-.19-.29-.19-.5s.07-.36.2-.49.3-.19.5-.19.36.06.5.19c.14.12.21.29.21.49s-.07.37-.2.5a.72.72 0 0 1-.5.19Zm-.55 5.29v-4.74h1.1v4.74z" fill="#ffffff" data-color="1"></path>
        <path d="M102.48 122.79c-.49 0-.91-.1-1.24-.3s-.59-.48-.76-.85a3 3 0 0 1-.26-1.27c0-.48.09-.91.27-1.27.18-.37.44-.66.79-.87s.77-.31 1.27-.31c.37 0 .69.06.98.19s.52.31.69.55c.18.24.29.54.34.9h-1.08a.86.86 0 0 0-.36-.5c-.17-.1-.36-.16-.59-.16-.31 0-.55.07-.72.22s-.3.33-.38.55q-.12.33-.12.69c0 .36.04.49.13.71.08.22.21.39.39.53.18.13.41.2.69.2.23 0 .43-.05.62-.15.18-.1.3-.27.36-.5h1.12c-.04.37-.16.67-.37.91-.2.24-.45.43-.76.54q-.465.18-.99.18Zm-.16 2.3h-.33c-.1 0-.2-.01-.29-.02v-.66c.13.01.26.02.38.01s.23-.02.32-.04c.09-.03.17-.07.23-.13s.08-.14.08-.23a.24.24 0 0 0-.08-.19c-.06-.04-.12-.08-.2-.09-.08-.02-.14-.02-.2-.02-.08 0-.17 0-.26.02a.7.7 0 0 0-.24.06l.33-1.29h.74l-.15.66h.21c.22.01.39.09.52.22s.19.33.19.59-.06.45-.17.61q-.165.24-.45.36c-.19.08-.39.13-.61.15Z" fill="#ffffff" data-color="1"></path>
        <path d="M106.76 122.79q-.33 0-.63-.09c-.2-.06-.38-.15-.53-.27s-.28-.26-.37-.44-.14-.39-.14-.63q0-.465.18-.75c.18-.285.28-.34.49-.45.21-.1.44-.17.71-.21.26-.04.54-.06.83-.06h.93c0-.21-.03-.39-.1-.54a.83.83 0 0 0-.31-.36 1 1 0 0 0-.54-.14c-.14 0-.28.02-.4.05s-.23.08-.32.15a.5.5 0 0 0-.18.27h-1.12c.04-.25.13-.46.26-.63.13-.18.29-.32.48-.44.19-.11.4-.2.62-.26.23-.06.46-.08.69-.08.69 0 1.19.2 1.51.59.32.4.47.95.47 1.66v2.56h-.97l-.03-.61c-.14.2-.3.35-.5.45-.19.1-.38.16-.56.18s-.33.04-.46.04Zm1.24-5.38c-.17 0-.32-.03-.44-.1-.13-.06-.24-.14-.34-.22s-.19-.16-.27-.22-.16-.09-.24-.09-.15.04-.18.11c-.04.07-.06.15-.07.25v.23h-.79c-.01-.23.01-.45.07-.66s.16-.38.32-.52c.15-.13.37-.2.64-.2.16 0 .29.03.4.09s.22.13.31.22.18.15.26.22c.08.06.16.09.23.09.1 0 .16-.03.2-.1s.06-.15.06-.23v-.23h.79c0 .22-.02.44-.07.65s-.15.38-.28.52c-.14.13-.34.2-.6.2Zm-1.03 4.49c.24 0 .45-.04.64-.13s.33-.22.45-.38c.11-.16.17-.35.17-.56v-.15h-.86c-.14 0-.29 0-.43.01-.14 0-.27.03-.38.07s-.21.1-.27.18-.1.19-.1.33.04.26.11.35.17.16.3.21c.12.05.25.07.39.07Z" fill="#ffffff" data-color="1"></path>
        <path d="M112.3 122.79c-.49 0-.9-.1-1.26-.3-.35-.2-.62-.48-.81-.85s-.28-.79-.28-1.29.1-.93.29-1.29.46-.65.81-.85.76-.31 1.25-.31.89.1 1.24.31c.35.2.61.49.8.86s.28.8.28 1.3-.09.91-.28 1.27c-.18.36-.45.64-.8.84s-.77.3-1.25.3Zm-.01-1c.3 0 .54-.07.72-.2s.32-.31.4-.52c.08-.22.13-.45.13-.7s-.04-.49-.13-.71a1.2 1.2 0 0 0-.4-.54c-.18-.13-.42-.2-.72-.2s-.54.07-.73.2-.32.31-.41.53c-.08.22-.13.46-.13.72s.04.49.13.71.22.39.41.52c.18.13.42.19.72.19Z" fill="#ffffff" data-color="1"></path>
        <path d="M119.77 122.79c-.49 0-.91-.1-1.26-.31s-.61-.49-.78-.85-.27-.78-.27-1.26.09-.91.28-1.27c.18-.37.45-.66.79-.87s.76-.31 1.25-.31c.36 0 .67.06.95.19.27.13.5.3.68.53.18.22.32.47.41.76s.13.58.13.89c0 .07-.01.14-.02.21s-.01.14-.03.22h-3.33c.02.21.07.4.17.58s.23.31.4.41.38.15.64.15c.15 0 .29-.02.43-.06s.26-.1.36-.18q.165-.12.21-.3h1.1c-.08.34-.22.62-.43.84-.21.21-.46.38-.75.48s-.6.15-.92.15Zm-1.19-2.89h2.29c0-.2-.04-.38-.13-.54s-.22-.29-.38-.38c-.17-.09-.36-.14-.6-.14q-.375 0-.63.15c-.255.15-.3.23-.39.4s-.14.33-.15.51Z" fill="#ffffff" data-color="1"></path>
        <path d="M122.63 122.73v-4.74h1.01l.07.54c.12-.16.25-.29.39-.37a1.54 1.54 0 0 1 .88-.24c.3 0 .56.06.77.18s.38.3.5.54c.12-.17.25-.3.4-.41s.31-.18.48-.23.34-.08.53-.08c.37 0 .66.08.88.23s.38.36.49.63c.1.27.15.57.15.91v3.04h-1.1v-2.69c0-.12 0-.25-.02-.38-.01-.13-.04-.26-.09-.37a.7.7 0 0 0-.22-.28c-.1-.07-.23-.11-.41-.11s-.32.04-.43.11c-.11.08-.2.17-.27.3-.07.12-.12.26-.14.41-.03.15-.04.29-.04.44v2.57h-1.1v-2.7c0-.11 0-.24-.02-.36-.01-.13-.04-.25-.09-.37s-.12-.21-.22-.28-.24-.11-.41-.11q-.375 0-.57.21c-.13.14-.22.31-.26.5-.04.2-.07.39-.07.57v2.55h-1.1Z" fill="#ffffff" data-color="1"></path>
        <path d="M134.44 122.79c-.68 0-1.21-.18-1.57-.53s-.54-.89-.54-1.62v-2.66h1.1v2.58c0 .25.03.47.1.66s.18.33.33.43.35.15.58.15c.25 0 .45-.05.6-.16a.83.83 0 0 0 .31-.44c.06-.19.09-.4.09-.64v-2.58h1.1v2.66c0 .74-.18 1.29-.55 1.63-.37.35-.88.52-1.54.52Z" fill="#ffffff" data-color="1"></path>
        <path d="M137.4 122.73v-4.74h1.01l.07.54c.12-.16.25-.29.39-.37a1.54 1.54 0 0 1 .88-.24c.3 0 .56.06.77.18s.38.3.5.54c.12-.17.25-.3.4-.41s.31-.18.48-.23.34-.08.53-.08c.37 0 .66.08.88.23s.38.36.49.63c.1.27.15.57.15.91v3.04h-1.1v-2.69c0-.12 0-.25-.02-.38-.01-.13-.04-.26-.09-.37a.7.7 0 0 0-.22-.28c-.1-.07-.23-.11-.41-.11s-.32.04-.43.11c-.11.08-.2.17-.27.3-.07.12-.12.26-.14.41-.03.15-.04.29-.04.44v2.57h-1.1v-2.7c0-.11 0-.24-.02-.36-.01-.13-.04-.25-.09-.37s-.12-.21-.22-.28-.24-.11-.41-.11q-.375 0-.57.21c-.13.14-.22.31-.26.5-.04.2-.07.39-.07.57v2.55h-1.1Z" fill="#ffffff" data-color="1"></path>
        <path d="M12.01 132.23v-4.74h1.01l.07.54c.12-.16.25-.29.39-.37a1.54 1.54 0 0 1 .88-.24c.3 0 .56.06.77.18s.38.3.5.54c.12-.17.25-.3.4-.41s.31-.18.48-.23.34-.08.53-.08c.37 0 .66.08.88.23s.38.36.49.63c.1.27.15.57.15.91v3.04h-1.1v-2.69c0-.12 0-.25-.02-.38-.01-.13-.04-.26-.09-.37a.7.7 0 0 0-.22-.28c-.1-.07-.23-.11-.41-.11s-.32.04-.43.11c-.11.08-.2.17-.27.3-.07.12-.12.26-.14.41-.03.15-.04.29-.04.44v2.57h-1.1v-2.7c0-.11 0-.24-.02-.36-.01-.13-.04-.25-.09-.37s-.12-.21-.22-.28-.24-.11-.41-.11q-.375 0-.57.21c-.13.14-.22.31-.26.5-.04.2-.07.39-.07.57v2.55H12Z" fill="#ffffff" data-color="1"></path>
        <path d="M21.57 132.29c-.49 0-.9-.1-1.26-.3-.35-.2-.62-.48-.81-.85s-.28-.79-.28-1.29.1-.93.29-1.29.46-.65.81-.85.76-.31 1.25-.31.89.1 1.24.31c.35.2.61.49.8.86s.28.8.28 1.3-.09.91-.28 1.27c-.18.36-.45.64-.8.84s-.77.3-1.25.3Zm-.01-1c.3 0 .54-.07.72-.2s.32-.31.4-.52c.08-.22.13-.45.13-.7s-.04-.49-.13-.71a1.2 1.2 0 0 0-.4-.54c-.18-.13-.42-.2-.72-.2s-.54.07-.73.2-.32.31-.41.53c-.08.22-.13.46-.13.72s.04.49.13.71.22.39.41.52c.18.13.42.19.72.19Z" fill="#ffffff" data-color="1"></path>
        <path d="M24.59 132.23v-4.74h1.01l.07.54c.12-.16.25-.29.39-.37a1.54 1.54 0 0 1 .88-.24c.3 0 .56.06.77.18s.38.3.5.54c.12-.17.25-.3.4-.41s.31-.18.48-.23.34-.08.53-.08c.37 0 .66.08.88.23s.38.36.49.63c.1.27.15.57.15.91v3.04h-1.1v-2.69c0-.12 0-.25-.02-.38-.01-.13-.04-.26-.09-.37a.7.7 0 0 0-.22-.28c-.1-.07-.23-.11-.41-.11s-.32.04-.43.11c-.11.08-.2.17-.27.3-.07.12-.12.26-.14.41-.03.15-.04.29-.04.44v2.57h-1.1v-2.7c0-.11 0-.24-.02-.36-.01-.13-.04-.25-.09-.37s-.12-.21-.22-.28-.24-.11-.41-.11q-.375 0-.57.21c-.13.14-.22.31-.26.5-.04.2-.07.39-.07.57v2.55h-1.1Z" fill="#ffffff" data-color="1"></path>
        <path d="M34.1 132.29c-.49 0-.91-.1-1.26-.31s-.61-.49-.78-.85-.27-.78-.27-1.26.09-.91.28-1.27c.18-.37.45-.66.79-.87s.76-.31 1.25-.31c.36 0 .67.06.95.19.27.13.5.3.68.53.18.22.32.47.41.76s.13.58.13.89c0 .07-.01.14-.02.21s-.01.14-.03.22H32.9c.02.21.07.4.17.58s.23.31.4.41.38.15.64.15c.15 0 .29-.02.43-.06s.26-.1.36-.18q.165-.12.21-.3h1.1c-.08.34-.22.62-.43.84-.21.21-.46.38-.75.48s-.6.15-.92.15Zm-1.18-2.89h2.29c0-.2-.04-.38-.13-.54s-.22-.29-.38-.38c-.17-.09-.36-.14-.6-.14q-.375 0-.63.15c-.255.15-.3.23-.39.4s-.14.33-.15.51Z" fill="#ffffff" data-color="1"></path>
        <path d="M36.97 132.23v-4.74H38l.06.6c.13-.17.27-.3.44-.4s.35-.17.53-.21c.19-.04.36-.07.52-.07.45 0 .81.1 1.07.3s.45.46.55.79c.11.33.16.7.16 1.11v2.62h-1.1v-2.44c0-.17-.01-.34-.04-.51-.02-.17-.07-.31-.14-.45-.07-.13-.17-.24-.29-.32s-.29-.12-.5-.12q-.39 0-.66.21c-.27.21-.32.32-.41.55s-.13.49-.13.79v2.28h-1.1Z" fill="#ffffff" data-color="1"></path>
        <path d="M44.25 132.23c-.38 0-.7-.05-.95-.15s-.43-.27-.56-.5c-.12-.23-.18-.53-.18-.92v-2.21h-.73v-.97h.73v-1.32h1.1v1.32h1.11v.97h-1.11v2.06c0 .24.04.42.13.55s.27.19.57.19h.38v.97h-.48Z" fill="#ffffff" data-color="1"></path>
        <path d="M47.49 132.29c-.49 0-.9-.1-1.26-.3-.35-.2-.62-.48-.81-.85s-.28-.79-.28-1.29.1-.93.29-1.29.46-.65.81-.85.76-.31 1.25-.31.89.1 1.24.31c.35.2.61.49.8.86s.28.8.28 1.3-.09.91-.28 1.27c-.18.36-.45.64-.8.84s-.77.3-1.25.3Zm-.01-1c.3 0 .54-.07.72-.2s.32-.31.4-.52c.08-.22.13-.45.13-.7s-.04-.49-.13-.71a1.2 1.2 0 0 0-.4-.54c-.18-.13-.42-.2-.72-.2s-.54.07-.73.2-.32.31-.41.53c-.08.22-.13.46-.13.72s.04.49.13.71.22.39.41.52c.18.13.42.19.72.19Z" fill="#ffffff" data-color="1"></path>
        <path d="M54.77 132.29c-.48 0-.88-.11-1.19-.33s-.54-.51-.7-.88c-.15-.37-.23-.77-.23-1.22s.08-.89.24-1.26.41-.66.73-.87.73-.32 1.21-.32a2.2 2.2 0 0 1 1.02.24c.15.08.28.19.38.32v-2.11h1.1v6.36h-1.06l-.02-.59c-.11.15-.25.27-.4.37s-.32.17-.51.22-.38.07-.58.07Zm.2-.99c.29 0 .53-.07.71-.2q.285-.21.42-.54c.09-.22.14-.46.14-.71s-.05-.5-.14-.72c-.09-.21-.23-.39-.42-.52s-.42-.2-.71-.2q-.465 0-.72.21c-.255.21-.31.32-.39.54a2.2 2.2 0 0 0-.05 1.26c.04.17.12.32.21.46.1.13.22.24.38.31s.35.11.58.11Z" fill="#ffffff" data-color="1"></path>
        <path d="M60.34 132.29c-.49 0-.91-.1-1.26-.31s-.61-.49-.78-.85-.27-.78-.27-1.26.09-.91.28-1.27c.18-.37.45-.66.79-.87s.76-.31 1.25-.31c.36 0 .67.06.95.19.27.13.5.3.68.53.18.22.32.47.41.76s.13.58.13.89c0 .07-.01.14-.02.21s-.01.14-.03.22h-3.33c.02.21.07.4.17.58s.23.31.4.41.38.15.64.15c.15 0 .29-.02.43-.06s.26-.1.36-.18q.165-.12.21-.3h1.1c-.08.34-.22.62-.43.84-.21.21-.46.38-.75.48s-.6.15-.92.15Zm-1.19-2.89h2.29c0-.2-.04-.38-.13-.54s-.22-.29-.38-.38c-.17-.09-.36-.14-.6-.14q-.375 0-.63.15c-.255.15-.3.23-.39.4s-.14.33-.15.51Z" fill="#ffffff" data-color="1"></path>
        <path d="M65.52 133.98v-6.49h1.03l.05.64c.19-.25.41-.43.67-.54s.54-.17.85-.17c.47 0 .86.11 1.16.32s.53.51.68.87c.15.37.23.78.23 1.24s-.08.88-.23 1.25c-.16.37-.39.66-.71.87s-.71.32-1.18.32c-.22 0-.42-.02-.61-.07-.18-.05-.35-.12-.49-.21a1.6 1.6 0 0 1-.36-.31v2.27h-1.1Zm2.38-2.68c.31 0 .55-.07.72-.2.17-.14.3-.31.38-.53s.12-.45.12-.7-.04-.5-.12-.72q-.12-.33-.39-.54t-.72-.21c-.28 0-.51.07-.7.2-.19.14-.33.31-.43.54-.1.22-.14.46-.14.72s.04.51.13.72.23.39.42.52.44.19.73.19Z" fill="#ffffff" data-color="1"></path>
        <path d="M70.89 132.23v-4.74h1l.06.62c.12-.18.26-.32.41-.42s.32-.17.49-.21q.27-.06.54-.06h.32v1.04h-.29c-.31 0-.58.06-.79.18-.22.12-.38.29-.49.51s-.16.49-.16.82v2.25h-1.1Z" fill="#ffffff" data-color="1"></path>
        <path d="M75.7 132.29q-.33 0-.63-.09c-.2-.06-.38-.15-.53-.27s-.28-.26-.37-.44-.14-.39-.14-.63q0-.465.18-.75c.18-.285.28-.34.49-.45.21-.1.44-.17.71-.21.26-.04.54-.06.83-.06h.93c0-.21-.03-.39-.1-.54a.83.83 0 0 0-.31-.36 1 1 0 0 0-.54-.14c-.14 0-.28.02-.4.05s-.23.08-.32.15a.5.5 0 0 0-.18.27H74.2c.04-.25.13-.46.26-.63.13-.18.29-.32.48-.44.19-.11.4-.2.62-.26.23-.06.46-.08.69-.08.69 0 1.19.2 1.51.59.32.4.47.95.47 1.66v2.56h-.97l-.03-.61c-.14.2-.3.35-.5.45-.19.1-.38.16-.56.18s-.33.04-.46.04Zm.22-.89c.24 0 .45-.04.64-.13s.33-.22.45-.38c.11-.16.17-.35.17-.56v-.15h-.86c-.14 0-.29 0-.43.01-.14 0-.27.03-.38.07s-.21.1-.27.18-.1.19-.1.33.04.26.11.35.17.16.3.21c.12.05.25.07.39.07Z" fill="#ffffff" data-color="1"></path>
        <path d="M78.9 132.23v-.85l2.5-2.93h-2.5v-.97h3.92v.84l-2.52 2.93h2.52v.97H78.9Z" fill="#ffffff" data-color="1"></path>
        <path d="M85.64 132.29c-.49 0-.91-.1-1.26-.31s-.61-.49-.78-.85-.27-.78-.27-1.26.09-.91.28-1.27c.18-.37.45-.66.79-.87s.76-.31 1.25-.31c.36 0 .67.06.95.19.27.13.5.3.68.53.18.22.32.47.41.76s.13.58.13.89c0 .07-.01.14-.02.21s-.01.14-.03.22h-3.33c.02.21.07.4.17.58s.23.31.4.41.38.15.64.15c.15 0 .29-.02.43-.06s.26-.1.36-.18q.165-.12.21-.3h1.1c-.08.34-.22.62-.43.84-.21.21-.46.38-.75.48s-.6.15-.92.15Zm-1.19-2.89h2.29c0-.2-.04-.38-.13-.54s-.22-.29-.38-.38c-.17-.09-.36-.14-.6-.14q-.375 0-.63.15c-.255.15-.3.23-.39.4s-.14.33-.15.51Z" fill="#ffffff" data-color="1"></path>
        <path d="M88.5 132.23v-4.74h1l.06.62c.12-.18.26-.32.41-.42s.32-.17.49-.21q.27-.06.54-.06h.32v1.04h-.29c-.31 0-.58.06-.79.18-.22.12-.38.29-.49.51s-.16.49-.16.82v2.25h-1.1Z" fill="#ffffff" data-color="1"></path>
        <path d="M96.24 132.29c-.49 0-.91-.1-1.26-.31s-.61-.49-.78-.85-.27-.78-.27-1.26.09-.91.28-1.27c.18-.37.45-.66.79-.87s.76-.31 1.25-.31c.36 0 .67.06.95.19.27.13.5.3.68.53.18.22.32.47.41.76s.13.58.13.89c0 .07-.01.14-.02.21s-.01.14-.03.22h-3.33c.02.21.07.4.17.58s.23.31.4.41.38.15.64.15c.15 0 .29-.02.43-.06s.26-.1.36-.18q.165-.12.21-.3h1.1c-.08.34-.22.62-.43.84-.21.21-.46.38-.75.48s-.6.15-.92.15Zm-1.19-2.89h2.29c0-.2-.04-.38-.13-.54s-.22-.29-.38-.38c-.17-.09-.36-.14-.6-.14q-.375 0-.63.15c-.255.15-.3.23-.39.4s-.14.33-.15.51Z" fill="#ffffff" data-color="1"></path>
        <path d="M103.24 132.29c-.23 0-.45-.02-.68-.07q-.345-.075-.63-.24c-.2-.11-.36-.26-.5-.45s-.22-.43-.26-.72h1.11c.05.13.12.24.23.32s.23.14.37.18.28.06.42.06c.08 0 .17 0 .27-.02.1-.01.19-.04.28-.07s.16-.09.21-.16.08-.16.08-.28c0-.11-.03-.19-.09-.26a.7.7 0 0 0-.24-.15c-.1-.04-.22-.07-.37-.1-.26-.05-.53-.11-.83-.17s-.55-.16-.76-.3a.9.9 0 0 1-.23-.19 1 1 0 0 1-.17-.24c-.04-.09-.08-.18-.1-.28q-.03-.15-.03-.33c0-.25.05-.47.16-.64.11-.18.25-.32.42-.43.18-.11.38-.19.61-.25.23-.05.46-.08.7-.08.32 0 .62.05.88.15s.48.26.66.47.28.48.32.8h-1.04q-.045-.225-.27-.36c-.225-.135-.35-.14-.58-.14-.08 0-.17 0-.26.02-.09.01-.17.04-.26.07s-.15.08-.2.15-.08.15-.08.24.02.17.07.23.11.12.21.17c.09.04.2.08.33.11.2.04.42.08.64.12s.41.08.58.13c.19.05.37.13.52.23q.24.15.36.39c.12.24.13.36.13.61q0 .435-.18.72c-.12.19-.27.34-.46.45s-.4.19-.64.23-.46.07-.69.07Z" fill="#ffffff" data-color="1"></path>
        <path d="M107.35 132.29q-.33 0-.63-.09c-.2-.06-.38-.15-.53-.27s-.28-.26-.37-.44-.14-.39-.14-.63q0-.465.18-.75c.18-.285.28-.34.49-.45.21-.1.44-.17.71-.21.26-.04.54-.06.83-.06h.93c0-.21-.03-.39-.1-.54a.83.83 0 0 0-.31-.36 1 1 0 0 0-.54-.14c-.14 0-.28.02-.4.05s-.23.08-.32.15a.5.5 0 0 0-.18.27h-1.12c.04-.25.13-.46.26-.63.13-.18.29-.32.48-.44.19-.11.4-.2.62-.26.23-.06.46-.08.69-.08.69 0 1.19.2 1.51.59.32.4.47.95.47 1.66v2.56h-.97l-.03-.61c-.14.2-.3.35-.5.45-.19.1-.38.16-.56.18s-.33.04-.46.04Zm.22-.89c.24 0 .45-.04.64-.13s.33-.22.45-.38c.11-.16.17-.35.17-.56v-.15h-.86c-.14 0-.29 0-.43.01-.14 0-.27.03-.38.07s-.21.1-.27.18-.1.19-.1.33.04.26.11.35.17.16.3.21c.12.05.25.07.39.07Z" fill="#ffffff" data-color="1"></path>
        <path d="M112.8 132.23c-.38 0-.7-.05-.95-.15s-.43-.27-.56-.5c-.12-.23-.18-.53-.18-.92v-2.21h-.73v-.97h.73v-1.32h1.1v1.32h1.11v.97h-1.11v2.06c0 .24.04.42.13.55s.27.19.57.19h.38v.97h-.48Z" fill="#ffffff" data-color="1"></path>
        <path d="M114.41 126.94c-.21 0-.38-.06-.5-.19-.13-.13-.19-.29-.19-.5s.07-.36.2-.49.3-.19.5-.19.36.06.5.19c.14.12.21.29.21.49s-.07.37-.2.5a.72.72 0 0 1-.5.19Zm-.55 5.29v-4.74h1.1v4.74z" fill="#ffffff" data-color="1"></path>
        <path d="M117.66 132.29c-.23 0-.45-.02-.68-.07q-.345-.075-.63-.24c-.2-.11-.36-.26-.5-.45s-.22-.43-.26-.72h1.11c.05.13.12.24.23.32s.23.14.37.18.28.06.42.06c.08 0 .17 0 .27-.02.1-.01.19-.04.28-.07s.16-.09.21-.16.08-.16.08-.28c0-.11-.03-.19-.09-.26a.7.7 0 0 0-.24-.15c-.1-.04-.22-.07-.37-.1-.26-.05-.53-.11-.83-.17s-.55-.16-.76-.3a.9.9 0 0 1-.23-.19 1 1 0 0 1-.17-.24c-.04-.09-.08-.18-.1-.28q-.03-.15-.03-.33c0-.25.05-.47.16-.64.11-.18.25-.32.42-.43.18-.11.38-.19.61-.25.23-.05.46-.08.7-.08.32 0 .62.05.88.15s.48.26.66.47.28.48.32.8h-1.04q-.045-.225-.27-.36c-.225-.135-.35-.14-.58-.14-.08 0-.17 0-.26.02-.09.01-.17.04-.26.07s-.15.08-.2.15-.08.15-.08.24.02.17.07.23.11.12.21.17c.09.04.2.08.33.11.2.04.42.08.64.12s.41.08.58.13c.19.05.37.13.52.23q.24.15.36.39c.12.24.13.36.13.61q0 .435-.18.72c-.12.19-.27.34-.46.45s-.4.19-.64.23-.46.07-.69.07Z" fill="#ffffff" data-color="1"></path>
        <path d="M120.59 132.23v-3.77h-.74v-.97h.74v-.45c0-.36.05-.66.16-.89s.28-.4.52-.51.54-.16.91-.16h.7v.97h-.58c-.16 0-.29.03-.38.08s-.15.13-.19.24-.06.23-.06.38v.33h1.21v.97h-1.21v3.77h-1.09Z" fill="#ffffff" data-color="1"></path>
        <path d="M124.9 132.29q-.33 0-.63-.09c-.2-.06-.38-.15-.53-.27s-.28-.26-.37-.44-.14-.39-.14-.63q0-.465.18-.75c.18-.285.28-.34.49-.45.21-.1.44-.17.71-.21.26-.04.54-.06.83-.06h.93c0-.21-.03-.39-.1-.54a.83.83 0 0 0-.31-.36 1 1 0 0 0-.54-.14c-.14 0-.28.02-.4.05s-.23.08-.32.15a.5.5 0 0 0-.18.27h-1.12c.04-.25.13-.46.26-.63.13-.18.29-.32.48-.44.19-.11.4-.2.62-.26.23-.06.46-.08.69-.08.69 0 1.19.2 1.51.59.32.4.47.95.47 1.66v2.56h-.97l-.03-.61c-.14.2-.3.35-.5.45-.19.1-.38.16-.56.18s-.33.04-.46.04Zm.22-.89c.24 0 .45-.04.64-.13s.33-.22.45-.38c.11-.16.17-.35.17-.56v-.15h-.86c-.14 0-.29 0-.43.01-.14 0-.27.03-.38.07s-.21.1-.27.18-.1.19-.1.33.04.26.11.35.17.16.3.21c.12.05.25.07.39.07Z" fill="#ffffff" data-color="1"></path>
        <path d="M130.36 132.29c-.49 0-.91-.1-1.24-.3s-.59-.48-.76-.85a3 3 0 0 1-.26-1.27c0-.48.09-.91.27-1.27.18-.37.44-.66.79-.87s.77-.31 1.27-.31c.37 0 .69.06.98.19s.52.31.69.55c.18.24.29.54.34.9h-1.08a.86.86 0 0 0-.36-.5c-.17-.1-.36-.16-.59-.16-.31 0-.55.07-.72.22s-.3.33-.38.55q-.12.33-.12.69c0 .36.04.49.13.71.08.22.21.39.39.53.18.13.41.2.69.2.23 0 .43-.05.62-.15.18-.1.3-.27.36-.5h1.12c-.04.37-.16.67-.37.91-.2.24-.45.43-.76.54q-.465.18-.99.18Zm-.16 2.3h-.33c-.1 0-.2-.01-.29-.02v-.66c.13.01.26.02.38.01s.23-.02.32-.04c.09-.03.17-.07.23-.13s.08-.14.08-.23a.24.24 0 0 0-.08-.19c-.06-.04-.12-.08-.2-.09-.08-.02-.14-.02-.2-.02-.08 0-.17 0-.26.02a.7.7 0 0 0-.24.06l.33-1.29h.74l-.15.66h.21c.22.01.39.09.52.22s.19.33.19.59-.06.45-.17.61q-.165.24-.45.36c-.19.08-.39.13-.61.15Z" fill="#ffffff" data-color="1"></path>
        <path d="M134.64 132.29q-.33 0-.63-.09c-.2-.06-.38-.15-.53-.27s-.28-.26-.37-.44-.14-.39-.14-.63q0-.465.18-.75c.18-.285.28-.34.49-.45.21-.1.44-.17.71-.21.26-.04.54-.06.83-.06h.93c0-.21-.03-.39-.1-.54a.83.83 0 0 0-.31-.36 1 1 0 0 0-.54-.14c-.14 0-.28.02-.4.05s-.23.08-.32.15a.5.5 0 0 0-.18.27h-1.12c.04-.25.13-.46.26-.63.13-.18.29-.32.48-.44.19-.11.4-.2.62-.26.23-.06.46-.08.69-.08.69 0 1.19.2 1.51.59.32.4.47.95.47 1.66v2.56h-.97l-.03-.61c-.14.2-.3.35-.5.45-.19.1-.38.16-.56.18s-.33.04-.46.04Zm1.24-5.38c-.17 0-.32-.03-.44-.1-.13-.06-.24-.14-.34-.22s-.19-.16-.27-.22-.16-.09-.24-.09-.15.04-.18.11c-.04.07-.06.15-.07.25v.23h-.79c-.01-.23.01-.45.07-.66s.16-.38.32-.52c.15-.13.37-.2.64-.2.16 0 .29.03.4.09s.22.13.31.22.18.15.26.22c.08.06.16.09.23.09.1 0 .16-.03.2-.1s.06-.15.06-.23v-.23h.79c0 .22-.02.44-.07.65s-.15.38-.28.52c-.14.13-.34.2-.6.2Zm-1.02 4.49c.24 0 .45-.04.64-.13s.33-.22.45-.38c.11-.16.17-.35.17-.56v-.15h-.86c-.14 0-.29 0-.43.01-.14 0-.27.03-.38.07s-.21.1-.27.18-.1.19-.1.33.04.26.11.35.17.16.3.21c.12.05.25.07.39.07Z" fill="#ffffff" data-color="1"></path>
        <path d="M140.18 132.29c-.49 0-.9-.1-1.26-.3-.35-.2-.62-.48-.81-.85s-.28-.79-.28-1.29.1-.93.29-1.29.46-.65.81-.85.76-.31 1.25-.31.89.1 1.24.31c.35.2.61.49.8.86s.28.8.28 1.3-.09.91-.28 1.27c-.18.36-.45.64-.8.84s-.77.3-1.25.3Zm-.01-1c.3 0 .54-.07.72-.2s.32-.31.4-.52c.08-.22.13-.45.13-.7s-.04-.49-.13-.71a1.2 1.2 0 0 0-.4-.54c-.18-.13-.42-.2-.72-.2s-.54.07-.73.2-.32.31-.41.53c-.08.22-.13.46-.13.72s.04.49.13.71.22.39.41.52c.18.13.42.19.72.19Z" fill="#ffffff" data-color="1"></path>
        <path d="M143.9 132.34c-.19 0-.36-.06-.49-.19s-.2-.3-.2-.51a.686.686 0 0 1 .71-.71c.2 0 .35.06.49.19s.2.3.2.52-.07.39-.2.51-.3.19-.5.19Z" fill="#ffffff" data-color="1"></path>
        <path d="M92.06 59.35c-9.25 5.66-21.34 5.13-29.88-1.66-7.04-5.59-10.79-14.64-9.69-23.57s7.14-17.13 15.58-20.76 18.45-2.42 25.81 3.07c8.31 6.19 12.08 16.96 9.7 26.99-.17.73.96 1.05 1.13.31 2.21-9.3-.56-19.23-7.42-25.92s-17.23-9.35-26.51-6.66S54.38 21.23 52 30.46s.34 19.28 7.09 26.04c8.85 8.87 22.92 10.37 33.57 3.86.64-.39.05-1.41-.59-1.01Z" fill="#ffffff" data-color="1"></path>
        <path d="M91.25 31.46c-.67-.35-1.51-.09-1.86.58-1.7 3.25-2.74 4.42-5.13 4.54-.84.05-2.15-.35-3.17-1.32-.64-.61-1.41-1.69-1.41-3.39 0-.07-.01-.14-.02-.21 1.63-.79 4.01-2.52 4.01-4.53 0-2.76-2.4-3.15-5.37-3.15s-5.37.39-5.37 3.15c0 2.01 2.38 3.74 4.01 4.53-.01.07-.02.14-.02.21 0 1.7-.77 2.78-1.41 3.39-1.02.97-2.33 1.36-3.17 1.32-2.4-.12-3.43-1.3-5.13-4.54-.35-.67-1.19-.93-1.86-.58s-.93 1.19-.58 1.86c1.48 2.82 3 5.22 6.18 5.86-.04 1.62-.05 3.96-.05 3.99 0 4.27 5.19 7.4 7.39 7.4s7.39-3.13 7.39-7.4c0-.03 0-2.37-.05-3.99 3.18-.64 4.7-3.04 6.18-5.86.35-.67.09-1.51-.58-1.86ZM78.3 47.81c-1.04 0-4.63-2.25-4.63-4.64 0-.5.02-2.63.05-3.96 1.13-.23 2.26-.76 3.21-1.52v3.78c0 .76.62 1.38 1.38 1.38s1.38-.62 1.38-1.38v-3.78c.95.76 2.08 1.29 3.21 1.52.03 1.33.05 3.46.05 3.96 0 2.39-3.6 4.64-4.63 4.64Z" fill="#ffffff" data-color="1"></path>
    </g>
</svg>