<svg preserveAspectRatio="xMidYMid meet" data-bbox="7.93 -7.136 143.76 125.576" viewBox="7.93 -7.136 143.76 125.576" xmlns="http://www.w3.org/2000/svg" data-type="color" role="presentation" aria-hidden="true" aria-label="">
    <g>
        <path d="M94.82 17.28c-.03-.67-.54-1.21-1.22-1.22-1.64-.03-3.28-.05-4.92-.05-1.02 0-2.03 0-3.05.04-.36.02-.74.04-1.09.16-.46.15-.85.37-1.21.7-.48.43-.82 1.08-.91 1.72-.07.46-.08.85.02 1.31.03.12.07.23.12.35.12.3.25.6.38.9.37.86.77 1.71 1.14 2.57.39.94.75 1.91.91 2.92.04.4.04.79 0 1.19-.06.35-.15.7-.28 1.03-.12.27-.27.52-.44.76q-.27.33-.6.6c-.28.2-.58.37-.89.51-.5.19-1.02.32-1.55.41-.42.05-.83.07-1.25.07h-.27c-.42 0-.84-.02-1.25-.07-.53-.08-1.05-.21-1.55-.41a5.3 5.3 0 0 1-.89-.51q-.33-.27-.6-.6a4.4 4.4 0 0 1-.44-.76 5.2 5.2 0 0 1-.28-1.03c-.04-.4-.04-.79 0-1.19.16-1.01.52-1.99.91-2.93.33-.77.68-1.52 1.01-2.28.32-.72.7-1.43.71-2.23 0-.65-.19-1.34-.58-1.87-.27-.36-.57-.67-.96-.89-.44-.25-.89-.36-1.39-.41-.44-.05-.88-.04-1.32-.05-.55 0-1.09-.01-1.64-.01-1.13 0-2.27 0-3.4.02-.65 0-1.3.02-1.95.03-.32 0-.64.13-.86.36-.21.21-.37.56-.36.86.03.65.54 1.23 1.22 1.22l2.25-.03c1.4-.01 2.79-.02 4.19-.01.57 0 1.16-.01 1.72.04.09.02.17.04.26.07.04.02.09.05.13.08l.09.09.09.15c.02.07.05.15.06.23v.19c-.06.22-.16.44-.25.65.04-.1.08-.19.12-.29-.61 1.43-1.3 2.83-1.84 4.28-.45 1.22-.8 2.56-.68 3.87.09.96.34 1.89.83 2.73.53.9 1.31 1.65 2.22 2.15 1.34.74 2.89.99 4.41 1h.27c1.41 0 2.8-.23 4.08-.83.98-.45 1.8-1.19 2.4-2.08a5.8 5.8 0 0 0 .91-2.41c.08-.58.13-1.15.06-1.74-.09-.75-.25-1.47-.49-2.19-.55-1.64-1.34-3.19-2.02-4.79.04.1.08.19.12.29-.09-.21-.19-.43-.25-.65v-.19l.06-.23.09-.15.09-.09c.04-.03.09-.05.13-.08.08-.03.17-.05.26-.07.49-.05.99-.03 1.48-.04h2.07c1.27 0 2.54.02 3.81.03.27 0 .54 0 .81.01.64.01 1.25-.57 1.22-1.22Z" fill="#ffffff" data-color="1"></path>
        <path d="M77.17 26.25c0-.34.15-.85.32-1.33.61-1.76.87-3.59 1.17-5.42.31-1.86.6-3.72 1.24-5.5.78-2.17 2.06-4.02 3.65-5.66.64-.66 2.13-1.76 2.34-1.94.09-.07.24-.08.32 0 .07.07.05.18-.02.29-.7.81-1.12 1.18-1.52 1.79-1.14 1.72-2.11 3.51-2.78 5.47-.44 1.29-.69 2.61-.78 3.97-.18 2.71.2 5.36.82 7.99.23.97.06 1.84-.75 2.47-.8.62-1.82.78-2.74.35s-1.31-1.1-1.28-2.48Z" fill="#ffffff" data-color="1"></path>
        <path fill="#ffffff" d="M70.14 20.47a1.05 1.05 0 1 1-2.1 0 1.05 1.05 0 0 1 2.1 0" data-color="1"></path>
        <path fill="#ffffff" d="M71.18 24.19a1.05 1.05 0 1 1-2.1 0 1.05 1.05 0 0 1 2.1 0" data-color="1"></path>
        <path fill="#ffffff" d="M70.48 27.92a1.05 1.05 0 1 1-2.1 0 1.05 1.05 0 0 1 2.1 0" data-color="1"></path>
        <path fill="#ffffff" d="M91.79 20.47a1.05 1.05 0 1 1-2.1 0 1.05 1.05 0 0 1 2.1 0" data-color="1"></path>
        <path fill="#ffffff" d="M90.75 24.19a1.05 1.05 0 1 1-2.1 0 1.05 1.05 0 0 1 2.1 0" data-color="1"></path>
        <path fill="#ffffff" d="M91.45 27.92a1.05 1.05 0 1 1-2.1 0 1.05 1.05 0 0 1 2.1 0" data-color="1"></path>
        <path d="M93.6 42.09c-9.25 5.66-21.34 5.13-29.88-1.66-7.04-5.59-10.79-14.64-9.69-23.57S61.16-.26 69.6-3.89 88.05-6.31 95.41-.82c8.31 6.19 12.08 16.96 9.7 26.99-.17.73.96 1.05 1.13.31 2.21-9.3-.56-19.23-7.42-25.92S81.59-8.79 72.31-6.1 55.91 3.99 53.53 13.21c-2.39 9.24.34 19.28 7.09 26.04 8.85 8.87 22.92 10.37 33.57 3.86.64-.39.05-1.41-.59-1.01Z" fill="#ffffff" data-color="1"></path>
        <path d="M38.91 62.87v-7.79h3.27c.61 0 1.14.09 1.61.26s.82.46 1.09.86c.26.4.4.95.4 1.64q0 .96-.42 1.59c-.28.42-.66.74-1.13.94-.48.21-1.02.31-1.62.31h-1.2v2.19h-1.99Zm1.99-3.96h1.2c.38 0 .68-.09.89-.27s.32-.44.32-.78c0-.3-.09-.53-.28-.69s-.5-.24-.94-.24H40.9z" fill="#ffffff" data-color="1"></path>
        <path d="M48.68 62.95q-.885 0-1.56-.36a2.53 2.53 0 0 1-1.03-1.02c-.25-.44-.37-.96-.37-1.57s.12-1.14.37-1.6.6-.82 1.04-1.07c.45-.26.97-.38 1.56-.38.42 0 .81.07 1.14.2q.51.195.87.57c.36.375.43.55.56.9s.19.75.19 1.19c0 .12 0 .24-.02.36q-.015.165-.06.36h-3.74c.01.14.06.27.14.4.08.12.19.22.32.3.14.07.32.11.53.11.18 0 .33-.02.46-.06s.23-.09.31-.16.13-.13.15-.2h1.9q-.15.72-.57 1.17c-.28.3-.61.53-.99.67s-.79.21-1.23.21Zm-1-3.69h1.96c0-.11-.03-.23-.09-.35s-.17-.22-.31-.3-.33-.12-.57-.12-.41.04-.56.12-.25.18-.32.3-.1.24-.1.35Z" fill="#ffffff" data-color="1"></path>
        <path d="M52.27 62.87v-7.79h1.95v7.79z" fill="#ffffff" data-color="1"></path>
        <path d="M58.01 62.95q-.885 0-1.56-.36a2.53 2.53 0 0 1-1.03-1.02c-.25-.44-.37-.96-.37-1.57s.12-1.14.37-1.6.6-.82 1.04-1.07c.45-.26.97-.38 1.56-.38.42 0 .81.07 1.14.2q.51.195.87.57c.36.375.43.55.56.9s.19.75.19 1.19c0 .12 0 .24-.02.36q-.015.165-.06.36h-3.74c.01.14.06.27.14.4.08.12.19.22.32.3.14.07.32.11.53.11.18 0 .33-.02.46-.06s.23-.09.31-.16.13-.13.15-.2h1.9q-.15.72-.57 1.17c-.28.3-.61.53-.99.67s-.79.21-1.23.21Zm-1-3.69h1.96c0-.11-.03-.23-.09-.35s-.17-.22-.31-.3-.33-.12-.57-.12-.41.04-.56.12-.25.18-.32.3-.1.24-.1.35Z" fill="#ffffff" data-color="1"></path>
        <path d="M67.17 62.95c-.29 0-.58-.03-.87-.1s-.57-.18-.82-.33-.47-.36-.64-.63c-.18-.27-.29-.6-.35-1.01h1.97c.03.1.08.18.16.25s.17.13.29.17c.11.04.24.06.37.06.09 0 .17 0 .24-.02s.13-.04.18-.07q.075-.045.12-.12c.045-.075.04-.09.04-.14 0-.1-.04-.18-.12-.23s-.19-.08-.33-.11-.3-.06-.47-.09c-.27-.06-.56-.13-.87-.23s-.57-.21-.79-.35a1.35 1.35 0 0 1-.47-.55 1.3 1.3 0 0 1-.1-.34c-.02-.12-.03-.24-.03-.37 0-.34.08-.62.23-.85s.34-.42.58-.56.5-.24.79-.3.57-.09.85-.09c.41 0 .79.07 1.15.2s.65.35.89.64q.36.435.45 1.17h-1.88c-.01-.13-.09-.23-.21-.31a.96.96 0 0 0-.47-.11c-.07 0-.14 0-.2.02-.06.01-.12.03-.17.06-.05.02-.08.05-.11.09s-.04.08-.04.12c0 .03 0 .06.03.1.02.04.05.07.1.1q.075.045.21.09.36.09.69.15c.22.04.43.09.65.13.24.04.48.12.71.23s.43.27.59.48.24.51.24.89-.08.69-.23.94-.36.45-.61.6-.53.25-.83.32-.6.1-.89.1Z" fill="#ffffff" data-color="1"></path>
        <path d="M72.28 62.95c-.27 0-.53-.04-.77-.11s-.46-.18-.64-.33c-.19-.15-.34-.33-.45-.55s-.17-.48-.17-.78c0-.44.09-.78.28-1.03s.44-.43.76-.55.68-.19 1.09-.23c.41-.03.83-.05 1.27-.05h.26a.7.7 0 0 0-.38-.63.9.9 0 0 0-.45-.1c-.12 0-.25.02-.36.05-.12.04-.21.09-.29.15s-.12.14-.14.23h-1.94a2.1 2.1 0 0 1 .96-1.57c.26-.17.54-.29.86-.37s.65-.12 1-.12c.85 0 1.49.24 1.93.71s.65 1.17.65 2.08v3.11h-1.79v-.76c-.19.29-.41.49-.64.6s-.46.19-.65.21-.33.03-.4.03Zm.53-1.48c.18 0 .36-.05.53-.14s.32-.21.43-.35.17-.28.17-.42v-.04h-1.09c-.09 0-.17 0-.25.03-.08.02-.15.05-.21.08s-.11.08-.15.14-.05.13-.05.22c0 .1.03.19.08.26.06.07.13.12.23.16s.2.06.32.06Z" fill="#ffffff" data-color="1"></path>
        <path d="M79.57 62.95c-.89 0-1.58-.22-2.06-.67-.49-.44-.73-1.11-.73-2v-3.22h1.95v3.07c0 .19.03.36.08.52s.14.28.27.38.3.14.51.14c.24 0 .42-.05.52-.17.11-.11.17-.25.2-.41s.04-.32.04-.47v-3.07h1.94v3.22c0 .95-.24 1.63-.73 2.04s-1.15.62-1.97.62Z" fill="#ffffff" data-color="1"></path>
        <path d="M85.73 62.95c-.6 0-1.09-.14-1.48-.41s-.69-.64-.88-1.09c-.2-.45-.29-.95-.29-1.5 0-.59.11-1.12.33-1.57s.54-.8.96-1.06.93-.38 1.53-.38q.3 0 .57.06c.27.06.35.1.5.18s.28.17.39.29v-2.4h1.95v7.79h-1.9v-.51c-.14.13-.29.24-.47.33-.17.09-.36.15-.56.2-.2.04-.41.07-.64.07Zm.42-1.77c.29 0 .53-.06.7-.18s.3-.28.37-.46c.08-.19.12-.38.12-.58s-.04-.4-.12-.59-.2-.34-.37-.46-.4-.18-.69-.18-.53.07-.69.2-.29.3-.36.49a1.7 1.7 0 0 0-.04 1.01c.04.14.11.27.2.39s.21.2.36.27.32.1.53.1Z" fill="#ffffff" data-color="1"></path>
        <path d="M92.15 62.95c-.27 0-.53-.04-.77-.11s-.46-.18-.64-.33c-.19-.15-.34-.33-.45-.55s-.17-.48-.17-.78c0-.44.09-.78.28-1.03s.44-.43.76-.55.68-.19 1.09-.23c.41-.03.83-.05 1.27-.05h.27a.7.7 0 0 0-.38-.63.9.9 0 0 0-.45-.1c-.12 0-.25.02-.36.05-.12.04-.21.09-.29.15s-.12.14-.14.23h-1.94a2.1 2.1 0 0 1 .96-1.57c.26-.17.54-.29.86-.37s.65-.12 1-.12c.85 0 1.49.24 1.93.71s.65 1.17.65 2.08v3.11h-1.79v-.76c-.19.29-.41.49-.64.6s-.46.19-.65.21c-.2.02-.33.03-.4.03Zm-.18-6.43 1.45-2.11h2.06l-1.88 2.11zm.71 4.95c.18 0 .36-.05.53-.14s.31-.21.43-.35c.11-.14.17-.28.17-.42v-.04h-1.09c-.09 0-.17 0-.25.03-.08.02-.15.05-.21.08s-.11.08-.15.14-.05.13-.05.22c0 .1.03.19.08.26s.13.12.22.16c.1.04.2.06.32.06" fill="#ffffff" data-color="1"></path>
        <path d="m97.99 62.87-1.9-5.8h2.11l1.09 4.3 1.1-4.3h2.1l-1.9 5.8z" fill="#ffffff" data-color="1"></path>
        <path d="M105.69 62.95q-.885 0-1.56-.36c-.44-.24-.79-.58-1.03-1.02s-.37-.96-.37-1.57.12-1.14.38-1.6c.25-.46.6-.82 1.04-1.07.45-.26.97-.38 1.56-.38.42 0 .81.07 1.14.2q.51.195.87.57c.36.375.43.55.56.9s.19.75.19 1.19c0 .12 0 .24-.02.36q-.015.165-.06.36h-3.74c.01.14.06.27.14.4.08.12.19.22.32.3.14.07.32.11.53.11.18 0 .33-.02.46-.06s.23-.09.31-.16.13-.13.15-.2h1.9q-.15.72-.57 1.17c-.28.3-.61.53-.99.67s-.79.21-1.23.21Zm-1-3.69h1.96c0-.11-.03-.23-.09-.35s-.16-.22-.31-.3-.33-.12-.57-.12-.41.04-.56.12-.25.18-.32.3-.1.24-.1.35Z" fill="#ffffff" data-color="1"></path>
        <path d="M109.29 62.87v-7.79h1.95v7.79z" fill="#ffffff" data-color="1"></path>
        <path d="M118.21 62.95q-.885 0-1.56-.36c-.44-.24-.79-.58-1.03-1.02s-.37-.96-.37-1.57.12-1.14.38-1.6c.25-.46.6-.82 1.04-1.07.45-.26.97-.38 1.56-.38.42 0 .81.07 1.14.2q.51.195.87.57c.36.375.43.55.56.9s.19.75.19 1.19c0 .12 0 .24-.02.36q-.015.165-.06.36h-3.74c.01.14.06.27.14.4.08.12.19.22.32.3.14.07.32.11.53.11.18 0 .33-.02.46-.06s.23-.09.31-.16.13-.13.15-.2h1.9q-.15.72-.57 1.17c-.28.3-.61.53-.99.67s-.79.21-1.23.21Zm-1-3.69h1.96c0-.11-.03-.23-.09-.35s-.16-.22-.31-.3-.33-.12-.57-.12-.41.04-.56.12-.25.18-.32.3-.1.24-.1.35Z" fill="#ffffff" data-color="1"></path>
        <path d="M32.01 76.08v-8.01h1.8l.1.64c.26-.29.54-.48.81-.59.28-.11.59-.17.95-.17.56 0 1.02.13 1.4.4.37.27.66.63.85 1.08s.29.96.29 1.51-.1 1.08-.3 1.54-.5.81-.89 1.08c-.39.26-.87.4-1.44.4a2.7 2.7 0 0 1-1.21-.29c-.16-.08-.3-.18-.4-.29v2.71h-1.95Zm3.17-3.9c.29 0 .52-.06.68-.19a.94.94 0 0 0 .33-.46c.06-.18.09-.36.09-.53 0-.2-.04-.4-.11-.59-.07-.2-.19-.36-.36-.49s-.39-.19-.68-.19q-.39 0-.66.18c-.27.18-.31.27-.4.46s-.13.38-.13.59.04.39.13.58c.08.19.22.34.4.46s.41.18.7.18Z" fill="#ffffff" data-color="1"></path>
        <path d="M41.75 73.95q-.885 0-1.56-.36a2.53 2.53 0 0 1-1.03-1.02c-.25-.44-.37-.96-.37-1.57s.12-1.14.37-1.6.6-.82 1.04-1.07c.45-.26.97-.38 1.56-.38.42 0 .81.07 1.14.2q.51.195.87.57c.36.375.43.55.56.9s.19.75.19 1.19c0 .12 0 .24-.02.36q-.015.165-.06.36H40.7c.01.14.06.27.14.4.08.12.19.22.32.3.14.07.32.11.53.11.18 0 .33-.02.46-.06s.23-.09.31-.16.13-.13.15-.2h1.9q-.15.72-.57 1.17c-.28.3-.61.53-.99.67s-.79.21-1.23.21Zm-1-3.69h1.96c0-.11-.03-.23-.09-.35s-.17-.22-.31-.3-.33-.12-.57-.12-.41.04-.56.12-.25.18-.32.3-.1.24-.1.35Z" fill="#ffffff" data-color="1"></path>
        <path d="M45.35 73.87v-7.79h1.95v7.79z" fill="#ffffff" data-color="1"></path>
        <path d="M50.17 73.95c-.27 0-.53-.04-.77-.11s-.46-.18-.64-.33c-.19-.15-.34-.33-.45-.55s-.17-.48-.17-.78c0-.44.09-.78.28-1.03s.44-.43.76-.55.68-.19 1.09-.23c.41-.03.83-.05 1.27-.05h.26a.7.7 0 0 0-.38-.63.9.9 0 0 0-.45-.1c-.12 0-.25.02-.36.05-.12.04-.21.09-.29.15s-.12.14-.14.23h-1.94a2.1 2.1 0 0 1 .96-1.57c.26-.17.54-.29.86-.37s.65-.12 1-.12c.85 0 1.49.24 1.93.71s.65 1.17.65 2.08v3.11h-1.79v-.76c-.19.29-.41.49-.64.6s-.46.19-.65.21-.33.03-.4.03Zm.53-1.48c.18 0 .36-.05.53-.14s.32-.21.43-.35.17-.28.17-.42v-.04h-1.09c-.09 0-.17 0-.25.03-.08.02-.15.05-.21.08s-.11.08-.15.14-.05.13-.05.22c0 .1.03.19.08.26.06.07.13.12.23.16s.2.06.32.06Z" fill="#ffffff" data-color="1"></path>
        <path d="M57.65 76.61q-.72 0-1.35-.24a2.5 2.5 0 0 1-1.04-.75c-.28-.34-.48-.78-.58-1.33h1.98q.06.15.18.27c.08.08.19.14.32.18s.28.07.45.07c.31 0 .54-.07.69-.2.15-.14.26-.31.31-.53s.08-.44.08-.68v-.15c-.14.21-.31.36-.5.45s-.39.16-.59.19-.38.05-.54.05c-.62 0-1.13-.14-1.51-.41s-.66-.63-.84-1.08c-.17-.44-.26-.91-.26-1.4 0-.56.1-1.08.31-1.55s.52-.84.92-1.12q.615-.42 1.5-.42c.37 0 .67.06.91.17s.45.26.63.44l.18-.5h1.76v4.6c0 .81-.09 1.51-.26 2.1-.18.59-.48 1.04-.92 1.36s-1.05.48-1.84.48Zm-.1-4.42c.28 0 .5-.06.68-.17s.3-.27.38-.46.12-.4.12-.62-.04-.43-.12-.62-.2-.34-.37-.45-.38-.17-.65-.17q-.465 0-.72.21t-.36.51c-.07.2-.1.39-.1.57s.04.38.11.56q.105.27.36.45c.17.12.4.18.68.18Z" fill="#ffffff" data-color="1"></path>
        <path d="M64.45 73.95q-.885 0-1.56-.36a2.53 2.53 0 0 1-1.03-1.02c-.25-.44-.37-.96-.37-1.57s.12-1.14.37-1.6.6-.82 1.04-1.07c.45-.26.97-.38 1.56-.38.42 0 .81.07 1.14.2q.51.195.87.57c.36.375.43.55.56.9s.19.75.19 1.19c0 .12 0 .24-.02.36q-.015.165-.06.36H63.4c.01.14.06.27.14.4.08.12.19.22.32.3.14.07.32.11.53.11.18 0 .33-.02.46-.06s.23-.09.31-.16.13-.13.15-.2h1.9q-.15.72-.57 1.17c-.28.3-.61.53-.99.67s-.79.21-1.23.21Zm-1-3.69h1.96c0-.11-.03-.23-.09-.35s-.17-.22-.31-.3-.33-.12-.57-.12-.41.04-.56.12-.25.18-.32.3-.1.24-.1.35Z" fill="#ffffff" data-color="1"></path>
        <path d="M68.04 73.87v-5.8h1.72l.18.62a1.63 1.63 0 0 1 1.1-.68 2.37 2.37 0 0 1 1.3.12c.27.11.5.31.69.62.17-.22.35-.39.54-.5s.39-.19.58-.23.38-.06.56-.06c.47 0 .85.1 1.13.29.29.19.5.46.63.8s.2.75.2 1.22v3.6h-1.95v-3.23c0-.09 0-.18-.02-.29-.01-.1-.04-.2-.08-.29s-.11-.17-.19-.23a.55.55 0 0 0-.34-.09c-.15 0-.28.03-.37.09-.1.06-.17.14-.23.23-.06.1-.09.2-.12.32-.02.12-.03.24-.03.37v3.12h-1.95v-3.25c0-.08 0-.17-.02-.27-.01-.1-.04-.2-.09-.29a.6.6 0 0 0-.2-.24.7.7 0 0 0-.38-.09c-.23 0-.39.06-.5.19-.1.12-.17.27-.19.44s-.03.31-.03.44v3.07h-1.95Z" fill="#ffffff" data-color="1"></path>
        <path d="M84.52 73.95c-.14 0-.31 0-.51-.03-.2-.02-.41-.08-.62-.18-.22-.1-.43-.26-.63-.49v.6h-1.91v-7.79h1.95v2.56c.24-.24.52-.42.82-.53s.62-.17.96-.17q.84 0 1.38.39c.54.39.63.62.81 1.07s.27.97.27 1.56-.09 1.09-.27 1.55c-.18.45-.46.8-.83 1.06s-.84.38-1.42.38Zm-.54-1.73c.31 0 .54-.07.71-.21s.28-.31.34-.52.09-.4.09-.59-.04-.38-.11-.56a.9.9 0 0 0-.36-.44c-.16-.11-.39-.17-.66-.17s-.49.06-.67.17-.31.26-.4.45-.13.39-.13.62c0 .21.04.42.13.61.08.19.21.35.39.47s.4.18.67.18Z" fill="#ffffff" data-color="1"></path>
        <path d="M87.85 73.87v-5.8h1.71l.13.55c.15-.21.31-.37.48-.46s.35-.15.53-.18q.27-.03.48-.03h.34c.1 0 .17 0 .2.02v1.88h-.38c-.27 0-.53.04-.76.1-.24.07-.43.2-.57.4-.14.19-.21.49-.21.87v2.64h-1.95Z" fill="#ffffff" data-color="1"></path>
        <path d="M93.3 67.67c-.35 0-.64-.1-.85-.31-.22-.21-.32-.48-.32-.82s.11-.63.34-.85.51-.33.85-.33.6.1.82.31c.23.21.34.49.34.85s-.11.62-.32.83c-.22.21-.5.31-.85.31Zm-.98 6.2v-5.8h1.95v5.8z" fill="#ffffff" data-color="1"></path>
        <path d="M95.31 73.87v-7.79h1.95v7.79z" fill="#ffffff" data-color="1"></path>
        <path d="M98.3 73.87v-7.79h1.95v2.52c.18-.19.38-.33.59-.42s.42-.15.62-.18.37-.04.5-.04c.53 0 .95.12 1.25.37s.52.58.65 1c.13.41.19.86.19 1.35v3.2h-1.95v-3.04c0-.12-.02-.24-.04-.37s-.08-.25-.15-.36a.8.8 0 0 0-.28-.27.9.9 0 0 0-.45-.1c-.17 0-.31.03-.44.09a.73.73 0 0 0-.29.26c-.07.11-.13.23-.16.37s-.05.28-.05.42v2.99h-1.95Z" fill="#ffffff" data-color="1"></path>
        <path d="M106.88 73.95c-.27 0-.53-.04-.77-.11s-.46-.18-.64-.33c-.19-.15-.34-.33-.45-.55s-.16-.48-.16-.78c0-.44.09-.78.28-1.03s.44-.43.76-.55.68-.19 1.09-.23c.41-.03.83-.05 1.27-.05h.26c0-.14-.03-.26-.1-.37a.64.64 0 0 0-.28-.26.9.9 0 0 0-.45-.1c-.12 0-.25.02-.36.05-.12.04-.21.09-.29.15s-.12.14-.14.23h-1.94a2.1 2.1 0 0 1 .96-1.57c.26-.17.54-.29.86-.37s.65-.12 1-.12c.85 0 1.49.24 1.93.71s.65 1.17.65 2.08v3.11h-1.79v-.76c-.19.29-.4.49-.64.6s-.46.19-.65.21-.33.03-.4.03Zm.53-1.48c.18 0 .36-.05.53-.14s.32-.21.43-.35.17-.28.17-.42v-.04h-1.09c-.09 0-.17 0-.25.03-.08.02-.15.05-.21.08s-.11.08-.15.14-.05.13-.05.22c0 .1.03.19.08.26.06.07.13.12.23.16s.2.06.32.06Z" fill="#ffffff" data-color="1"></path>
        <path d="M111.39 73.87v-5.8h1.79l.11.53c.18-.19.38-.33.59-.42s.41-.15.61-.18.37-.04.51-.04c.54 0 .97.12 1.28.37s.54.58.67.99.2.86.2 1.35v3.2h-1.95v-3.04a1.6 1.6 0 0 0-.17-.73.75.75 0 0 0-.26-.27c-.11-.07-.25-.1-.43-.1q-.345 0-.57.15c-.225.15-.26.24-.33.41s-.1.36-.1.58v2.99h-1.95Z" fill="#ffffff" data-color="1"></path>
        <path d="M120.95 73.87c-.51 0-.95-.06-1.31-.17s-.64-.31-.84-.59-.29-.69-.29-1.23V69.8h-.8v-1.74h.8v-1.44h1.95v1.44h1.07v1.74h-1.07v1.78c0 .14.02.26.07.37s.19.16.41.16h.52v1.75h-.51Z" fill="#ffffff" data-color="1"></path>
        <path d="M124.89 73.95q-.885 0-1.56-.36c-.44-.24-.79-.58-1.03-1.02s-.37-.96-.37-1.57.12-1.14.38-1.6c.25-.46.6-.82 1.04-1.07.45-.26.97-.38 1.56-.38.42 0 .81.07 1.14.2q.51.195.87.57c.36.375.43.55.56.9s.19.75.19 1.19c0 .12 0 .24-.02.36q-.015.165-.06.36h-3.74c.01.14.06.27.14.4.08.12.19.22.32.3.14.07.32.11.53.11.18 0 .33-.02.46-.06s.23-.09.31-.16.13-.13.15-.2h1.9q-.15.72-.57 1.17c-.28.3-.61.53-.99.67s-.79.21-1.23.21Zm-1-3.69h1.96c0-.11-.03-.23-.09-.35s-.16-.22-.31-.3-.33-.12-.57-.12-.41.04-.56.12-.25.18-.32.3-.1.24-.1.35Z" fill="#ffffff" data-color="1"></path>
        <path d="M11.01 88.27c-.65 0-1.21-.14-1.67-.41-.46-.28-.81-.66-1.05-1.15s-.36-1.05-.36-1.68.12-1.21.37-1.7.6-.87 1.06-1.15 1.02-.42 1.67-.42 1.21.14 1.67.41c.46.28.81.66 1.06 1.15s.37 1.05.37 1.69-.12 1.19-.36 1.68-.6.88-1.06 1.16-1.03.42-1.69.42Zm.01-1.05c.46 0 .83-.1 1.12-.31s.5-.48.63-.82.2-.69.2-1.07c0-.29-.04-.56-.11-.83-.08-.26-.19-.5-.35-.71s-.36-.38-.61-.5-.54-.18-.88-.18c-.45 0-.82.11-1.11.32s-.51.48-.64.82c-.14.34-.21.7-.21 1.09s.07.74.21 1.08.35.61.64.81c.29.21.66.31 1.11.31Z" fill="#ffffff" data-color="1"></path>
        <path d="M16.29 88.26c-.23 0-.45-.02-.68-.07q-.345-.075-.63-.24c-.2-.11-.36-.26-.5-.45s-.22-.43-.26-.72h1.11c.05.13.12.24.23.32s.23.14.37.18.28.06.42.06c.08 0 .17 0 .27-.02.1-.01.19-.04.28-.07s.16-.09.21-.16.08-.16.08-.28c0-.11-.03-.19-.09-.26a.7.7 0 0 0-.24-.15c-.1-.04-.22-.07-.37-.09-.26-.05-.53-.11-.83-.17a2.2 2.2 0 0 1-.76-.3.9.9 0 0 1-.23-.19c-.07-.07-.12-.15-.17-.24s-.08-.18-.1-.28q-.03-.15-.03-.33c0-.25.05-.47.16-.64.11-.18.25-.32.42-.43.18-.11.38-.19.61-.25.23-.05.46-.08.7-.08.32 0 .62.05.88.15s.48.26.66.47.28.48.32.8h-1.04q-.045-.225-.27-.36c-.225-.135-.35-.14-.58-.14-.08 0-.17 0-.26.02s-.17.04-.26.07a.43.43 0 0 0-.28.39c0 .09.02.17.07.23.04.07.11.12.21.17.09.04.2.08.33.11.2.04.42.08.64.13.22.04.41.08.58.13.19.05.37.13.52.23q.24.15.36.39c.12.24.13.36.13.61q0 .435-.18.72c-.12.19-.27.34-.46.45s-.4.19-.64.23c-.23.05-.46.07-.69.07Z" fill="#ffffff" data-color="1"></path>
        <path d="M22 88.26q-.33 0-.63-.09c-.3-.09-.38-.15-.53-.27s-.28-.26-.37-.44-.14-.39-.14-.63q0-.465.18-.75c.12-.2.28-.34.49-.45.21-.1.44-.17.71-.21.26-.04.54-.06.83-.06h.93c0-.21-.03-.39-.1-.54a.83.83 0 0 0-.31-.36c-.14-.09-.32-.13-.54-.13-.14 0-.28.02-.4.05a.9.9 0 0 0-.32.15.5.5 0 0 0-.18.27H20.5c.04-.25.13-.46.26-.63.13-.18.29-.32.48-.44.19-.11.4-.2.62-.26q.345-.09.69-.09c.69 0 1.19.2 1.51.59.32.4.47.95.47 1.67v2.56h-.97l-.03-.61c-.14.2-.3.35-.5.45-.19.1-.38.16-.56.18-.18.03-.33.04-.46.04Zm.22-.89c.24 0 .45-.04.64-.13s.33-.22.45-.38c.11-.16.17-.35.17-.56v-.15h-.86c-.14 0-.29 0-.43.01-.14 0-.27.03-.38.07s-.21.1-.27.18-.1.19-.1.33.04.26.11.35.17.16.3.21.25.07.39.07Zm-.23-4.55.94-1.45h1.17l-1.16 1.45H22Z" fill="#ffffff" data-color="1"></path>
        <path d="M27.11 88.26c-.49 0-.91-.1-1.24-.3a1.9 1.9 0 0 1-.76-.85 3 3 0 0 1-.26-1.27c0-.48.09-.9.27-1.27s.44-.66.79-.87.77-.32 1.27-.32c.37 0 .69.06.98.19s.52.31.69.55c.18.24.29.54.34.9h-1.08a.86.86 0 0 0-.36-.5c-.17-.1-.36-.16-.59-.16-.31 0-.55.07-.72.22-.18.15-.3.33-.38.55q-.12.33-.12.69c0 .36.04.49.13.71.08.22.21.39.39.53.18.13.41.2.69.2.23 0 .43-.05.62-.15.18-.1.3-.27.36-.5h1.12c-.04.37-.16.67-.37.91-.2.24-.45.42-.76.54q-.465.18-.99.18Z" fill="#ffffff" data-color="1"></path>
        <path d="M30.06 82.9c-.21 0-.38-.06-.5-.19s-.19-.29-.19-.5.07-.36.2-.49.3-.19.5-.19.36.06.5.19.21.29.21.5-.07.37-.2.5-.3.19-.5.19Zm-.55 5.3v-4.74h1.1v4.74z" fill="#ffffff" data-color="1"></path>
        <path d="M33.07 88.26c-.48 0-.88-.11-1.19-.33s-.54-.51-.7-.88c-.15-.37-.23-.77-.23-1.22s.08-.89.24-1.26.41-.66.73-.87.73-.32 1.21-.32a2.2 2.2 0 0 1 1.02.24c.15.08.28.19.38.32v-2.11h1.1v6.36h-1.06l-.02-.59c-.11.15-.25.27-.4.37s-.32.17-.51.22-.38.07-.58.07Zm.2-.99c.29 0 .53-.07.71-.2q.285-.195.42-.54a1.9 1.9 0 0 0 0-1.43c-.09-.22-.23-.39-.42-.52s-.42-.2-.71-.2q-.465 0-.72.21c-.255.21-.31.32-.39.54a2.2 2.2 0 0 0-.05 1.26q.075.255.21.45c.1.13.22.24.38.31.16.08.35.11.58.11Z" fill="#ffffff" data-color="1"></path>
        <path d="M38.32 88.26c-.49 0-.9-.1-1.26-.3-.35-.2-.62-.48-.81-.85s-.28-.79-.28-1.29.1-.93.29-1.29.46-.65.81-.85.76-.31 1.25-.31.89.1 1.24.31c.35.2.61.49.8.86s.28.8.28 1.3-.09.91-.28 1.27c-.18.36-.45.64-.8.84s-.77.3-1.25.3Zm-.01-1c.3 0 .54-.07.72-.2s.32-.31.4-.52c.08-.22.13-.45.13-.7s-.04-.49-.13-.71a1.2 1.2 0 0 0-.4-.54c-.18-.13-.42-.2-.72-.2s-.54.07-.73.2-.32.31-.41.53c-.08.22-.13.46-.13.72s.04.49.13.71.22.39.41.52c.18.13.42.19.72.19Z" fill="#ffffff" data-color="1"></path>
        <path d="M42.8 88.26c-.23 0-.45-.02-.68-.07q-.345-.075-.63-.24c-.2-.11-.36-.26-.5-.45s-.22-.43-.26-.72h1.11c.05.13.12.24.23.32s.23.14.37.18.28.06.42.06c.08 0 .17 0 .27-.02.1-.01.19-.04.28-.07s.16-.09.21-.16.08-.16.08-.28c0-.11-.03-.19-.09-.26a.7.7 0 0 0-.24-.15c-.1-.04-.22-.07-.37-.09-.26-.05-.53-.11-.83-.17a2.2 2.2 0 0 1-.76-.3.9.9 0 0 1-.23-.19c-.07-.07-.12-.15-.17-.24s-.08-.18-.1-.28q-.03-.15-.03-.33c0-.25.05-.47.16-.64.11-.18.25-.32.42-.43.18-.11.38-.19.61-.25.23-.05.46-.08.7-.08.32 0 .62.05.88.15s.48.26.66.47.28.48.32.8h-1.04q-.045-.225-.27-.36c-.225-.135-.35-.14-.58-.14-.08 0-.17 0-.26.02s-.17.04-.26.07a.43.43 0 0 0-.28.39c0 .09.02.17.07.23.04.07.11.12.21.17.09.04.2.08.33.11.2.04.42.08.64.13.22.04.41.08.58.13.19.05.37.13.52.23q.24.15.36.39c.12.24.13.36.13.61q0 .435-.18.72c-.12.19-.27.34-.46.45s-.4.19-.64.23c-.23.05-.46.07-.69.07Z" fill="#ffffff" data-color="1"></path>
        <path d="M49.21 90.37c-.35 0-.67-.06-.98-.17-.3-.11-.56-.29-.77-.52-.21-.24-.35-.54-.42-.91h1.12c.04.14.11.26.22.35s.24.15.38.19q.225.06.45.06c.29 0 .53-.06.7-.18s.29-.28.37-.49c.07-.21.11-.43.11-.68v-.45c-.11.17-.24.31-.41.41s-.34.17-.52.21q-.27.06-.54.06c-.49 0-.89-.11-1.2-.32-.31-.22-.54-.5-.68-.87-.14-.36-.22-.76-.22-1.2s.08-.87.24-1.25.4-.67.72-.9c.32-.22.72-.33 1.21-.33.28 0 .55.05.8.15q.375.15.63.45l.07-.52h1.02v4.33c0 .53-.08.99-.23 1.38s-.4.68-.73.89c-.34.21-.78.31-1.33.31Zm-.06-3.09c.28 0 .52-.07.7-.2q.285-.195.42-.54c.1-.22.14-.47.14-.73s-.05-.51-.14-.73a1.1 1.1 0 0 0-.41-.51c-.18-.13-.42-.19-.71-.19-.31 0-.55.07-.73.21s-.31.32-.39.54c-.08.23-.12.46-.12.72s.04.51.13.72c.08.22.22.39.4.52s.42.19.71.19" fill="#ffffff" data-color="1"></path>
        <path d="M52.03 88.2v-4.74h1l.06.62c.12-.18.26-.32.41-.42s.32-.17.49-.21q.27-.06.54-.06h.32v1.04h-.29c-.31 0-.58.06-.79.18-.22.12-.38.29-.49.51s-.16.5-.16.82v2.25h-1.1Z" fill="#ffffff" data-color="1"></path>
        <path d="M56.47 88.26q-.33 0-.63-.09c-.3-.09-.38-.15-.53-.27s-.28-.26-.37-.44-.14-.39-.14-.63q0-.465.18-.75c.12-.2.28-.34.49-.45.21-.1.44-.17.71-.21.26-.04.54-.06.83-.06h.93c0-.21-.03-.39-.1-.54a.83.83 0 0 0-.31-.36c-.14-.09-.32-.13-.54-.13-.14 0-.28.02-.4.05a.9.9 0 0 0-.32.15.5.5 0 0 0-.18.27h-1.12c.04-.25.13-.46.26-.63.13-.18.29-.32.48-.44.19-.11.4-.2.62-.26q.345-.09.69-.09c.69 0 1.19.2 1.51.59.32.4.47.95.47 1.67v2.56h-.97l-.03-.61c-.14.2-.3.35-.5.45-.19.1-.38.16-.56.18-.18.03-.33.04-.46.04Zm.22-.89c.24 0 .45-.04.64-.13s.33-.22.45-.38c.11-.16.17-.35.17-.56v-.15h-.86c-.14 0-.29 0-.43.01-.14 0-.27.03-.38.07s-.21.1-.27.18-.1.19-.1.33.04.26.11.35.17.16.3.21.25.07.39.07Z" fill="#ffffff" data-color="1"></path>
        <path d="m59.03 88.2 1.67-2.42-1.58-2.32h1.28l1.03 1.59 1-1.59h1.25l-1.58 2.35 1.7 2.39h-1.29l-1.12-1.64-1.12 1.64h-1.22Z" fill="#ffffff" data-color="1"></path>
        <path d="M65.93 88.26c-.49 0-.9-.1-1.26-.3-.35-.2-.62-.48-.81-.85s-.28-.79-.28-1.29.1-.93.29-1.29.46-.65.81-.85.76-.31 1.25-.31.89.1 1.24.31c.35.2.61.49.8.86s.28.8.28 1.3-.09.91-.28 1.27c-.18.36-.45.64-.8.84s-.77.3-1.25.3Zm-.01-1c.3 0 .54-.07.72-.2s.32-.31.4-.52c.08-.22.13-.45.13-.7s-.04-.49-.13-.71a1.2 1.2 0 0 0-.4-.54c-.18-.13-.42-.2-.72-.2s-.54.07-.73.2-.32.31-.41.53c-.08.22-.13.46-.13.72s.04.49.13.71.22.39.41.52c.18.13.42.19.72.19Z" fill="#ffffff" data-color="1"></path>
        <path d="M70.41 88.26c-.23 0-.45-.02-.68-.07q-.345-.075-.63-.24c-.2-.11-.36-.26-.5-.45s-.22-.43-.26-.72h1.11c.05.13.12.24.23.32s.23.14.37.18.28.06.42.06c.08 0 .17 0 .27-.02.1-.01.19-.04.28-.07s.16-.09.21-.16.08-.16.08-.28c0-.11-.03-.19-.09-.26a.7.7 0 0 0-.24-.15c-.1-.04-.22-.07-.37-.09-.26-.05-.53-.11-.83-.17a2.2 2.2 0 0 1-.76-.3.9.9 0 0 1-.23-.19c-.07-.07-.12-.15-.17-.24s-.08-.18-.1-.28q-.03-.15-.03-.33c0-.25.05-.47.16-.64.11-.18.25-.32.42-.43.18-.11.38-.19.61-.25.23-.05.46-.08.7-.08.32 0 .62.05.88.15s.48.26.66.47.28.48.32.8H71.2q-.045-.225-.27-.36c-.225-.135-.35-.14-.58-.14-.08 0-.17 0-.26.02s-.17.04-.26.07a.43.43 0 0 0-.28.39c0 .09.02.17.07.23.04.07.11.12.21.17.09.04.2.08.33.11.2.04.42.08.64.13.22.04.41.08.58.13.19.05.37.13.52.23q.24.15.36.39c.12.24.13.36.13.61q0 .435-.18.72c-.12.19-.27.34-.46.45s-.4.19-.64.23c-.23.05-.46.07-.69.07Z" fill="#ffffff" data-color="1"></path>
        <path d="M76.74 88.26c-.49 0-.91-.1-1.26-.31s-.61-.49-.78-.85-.27-.78-.27-1.26.09-.9.28-1.27c.18-.37.45-.66.79-.87s.76-.32 1.25-.32c.36 0 .67.06.95.19.27.13.5.3.68.53.18.22.32.47.41.76.09.28.13.58.13.89 0 .07-.01.14-.02.21 0 .07-.01.14-.03.22h-3.33c.02.21.07.4.17.58s.23.31.4.41.38.15.64.15c.15 0 .29-.02.43-.06s.26-.1.36-.18q.165-.12.21-.3h1.1c-.08.34-.22.62-.43.84s-.46.38-.75.48-.6.15-.92.15Zm-1.19-2.9h2.29c0-.2-.04-.38-.13-.54s-.22-.29-.38-.38-.36-.14-.6-.14q-.375 0-.63.15a1 1 0 0 0-.39.4q-.135.24-.15.51Z" fill="#ffffff" data-color="1"></path>
        <path d="M81.06 88.26c-.23 0-.45-.02-.68-.07q-.345-.075-.63-.24c-.2-.11-.36-.26-.5-.45s-.22-.43-.26-.72h1.11c.05.13.12.24.23.32s.23.14.37.18.28.06.42.06c.08 0 .17 0 .27-.02.1-.01.19-.04.28-.07s.16-.09.21-.16.08-.16.08-.28c0-.11-.03-.19-.09-.26a.7.7 0 0 0-.24-.15c-.1-.04-.22-.07-.37-.09-.26-.05-.53-.11-.83-.17a2.2 2.2 0 0 1-.76-.3.9.9 0 0 1-.23-.19c-.07-.07-.12-.15-.17-.24s-.08-.18-.1-.28q-.03-.15-.03-.33c0-.25.05-.47.16-.64.11-.18.25-.32.42-.43.18-.11.38-.19.61-.25.23-.05.46-.08.7-.08.32 0 .62.05.88.15s.48.26.66.47.28.48.32.8h-1.04q-.045-.225-.27-.36c-.225-.135-.35-.14-.58-.14-.08 0-.17 0-.26.02s-.17.04-.26.07a.43.43 0 0 0-.28.39c0 .09.02.17.07.23.04.07.11.12.21.17.09.04.2.08.33.11.2.04.42.08.64.13.22.04.41.08.58.13.19.05.37.13.52.23q.24.15.36.39c.12.24.13.36.13.61q0 .435-.18.72c-.12.19-.27.34-.46.45s-.4.19-.64.23c-.23.05-.46.07-.69.07Z" fill="#ffffff" data-color="1"></path>
        <path d="M85.12 88.26c-.23 0-.45-.02-.68-.07q-.345-.075-.63-.24c-.2-.11-.36-.26-.5-.45s-.22-.43-.26-.72h1.11c.05.13.12.24.23.32s.23.14.37.18.28.06.42.06c.08 0 .17 0 .27-.02.1-.01.19-.04.28-.07s.16-.09.21-.16.08-.16.08-.28c0-.11-.03-.19-.09-.26a.7.7 0 0 0-.24-.15c-.1-.04-.22-.07-.37-.09-.26-.05-.53-.11-.83-.17a2.2 2.2 0 0 1-.76-.3.9.9 0 0 1-.23-.19c-.07-.07-.12-.15-.17-.24s-.08-.18-.1-.28q-.03-.15-.03-.33c0-.25.05-.47.16-.64.11-.18.25-.32.42-.43.18-.11.38-.19.61-.25.23-.05.46-.08.7-.08.32 0 .62.05.88.15s.48.26.66.47.28.48.32.8h-1.04q-.045-.225-.27-.36c-.225-.135-.35-.14-.58-.14-.08 0-.17 0-.26.02s-.17.04-.26.07a.43.43 0 0 0-.28.39c0 .09.02.17.07.23.04.07.11.12.21.17.09.04.2.08.33.11.2.04.42.08.64.13.22.04.41.08.58.13.19.05.37.13.52.23q.24.15.36.39c.12.24.13.36.13.61q0 .435-.18.72c-.12.19-.27.34-.46.45s-.4.19-.64.23c-.23.05-.46.07-.69.07Z" fill="#ffffff" data-color="1"></path>
        <path d="M89.48 88.26c-.49 0-.91-.1-1.26-.31s-.61-.49-.78-.85-.27-.78-.27-1.26.09-.9.28-1.27c.18-.37.45-.66.79-.87s.76-.32 1.25-.32c.36 0 .67.06.95.19.27.13.5.3.68.53.18.22.32.47.41.76.09.28.13.58.13.89 0 .07-.01.14-.02.21 0 .07-.01.14-.03.22h-3.33c.02.21.07.4.17.58s.23.31.4.41.38.15.64.15c.15 0 .29-.02.43-.06s.26-.1.36-.18q.165-.12.21-.3h1.1c-.08.34-.22.62-.43.84s-.46.38-.75.48-.6.15-.92.15Zm-1.18-2.9h2.29c0-.2-.04-.38-.13-.54s-.22-.29-.38-.38-.36-.14-.6-.14q-.375 0-.63.15a1 1 0 0 0-.39.4q-.135.24-.15.51Z" fill="#ffffff" data-color="1"></path>
        <path d="M91.99 88.2v-4.74h1.03l.06.6c.13-.17.27-.3.44-.4s.35-.17.53-.21c.19-.04.36-.07.52-.07.45 0 .81.1 1.07.3s.45.46.55.79c.11.33.16.7.16 1.11v2.62h-1.1v-2.44c0-.17-.01-.34-.04-.51-.02-.17-.07-.31-.14-.45-.07-.13-.17-.24-.29-.31s-.29-.12-.5-.12q-.39 0-.66.21c-.27.21-.32.32-.41.55s-.13.49-.13.79v2.28h-1.1Z" fill="#ffffff" data-color="1"></path>
        <path d="M98.93 88.26c-.49 0-.91-.1-1.24-.3a1.9 1.9 0 0 1-.76-.85 3 3 0 0 1-.26-1.27c0-.48.09-.9.27-1.27s.44-.66.79-.87.77-.32 1.27-.32c.37 0 .69.06.98.19s.52.31.69.55c.18.24.29.54.34.9h-1.08a.86.86 0 0 0-.36-.5c-.17-.1-.36-.16-.59-.16-.31 0-.55.07-.72.22-.18.15-.3.33-.38.55q-.12.33-.12.69c0 .36.04.49.13.71.08.22.21.39.39.53.18.13.41.2.69.2.23 0 .43-.05.62-.15.18-.1.3-.27.36-.5h1.12c-.04.37-.16.67-.37.91-.2.24-.45.42-.76.54q-.465.18-.99.18Z" fill="#ffffff" data-color="1"></path>
        <path d="M101.89 82.9c-.21 0-.38-.06-.5-.19s-.19-.29-.19-.5.07-.36.2-.49.3-.19.5-.19.36.06.5.19.21.29.21.5-.07.37-.2.5-.3.19-.5.19Zm-.55 5.3v-4.74h1.1v4.74z" fill="#ffffff" data-color="1"></path>
        <path d="M104.47 88.26q-.33 0-.63-.09c-.3-.09-.38-.15-.53-.27s-.28-.26-.37-.44-.14-.39-.14-.63q0-.465.18-.75c.12-.2.28-.34.49-.45.21-.1.44-.17.71-.21.26-.04.54-.06.83-.06h.93c0-.21-.03-.39-.1-.54a.83.83 0 0 0-.31-.36c-.14-.09-.32-.13-.54-.13-.14 0-.28.02-.4.05a.9.9 0 0 0-.32.15.5.5 0 0 0-.18.27h-1.12c.04-.25.13-.46.26-.63.13-.18.29-.32.48-.44.19-.11.4-.2.62-.26q.345-.09.69-.09c.69 0 1.19.2 1.51.59.32.4.47.95.47 1.67v2.56h-.97l-.03-.61c-.14.2-.3.35-.5.45-.19.1-.38.16-.56.18-.18.03-.33.04-.46.04Zm.22-.89c.24 0 .45-.04.64-.13s.33-.22.45-.38c.11-.16.17-.35.17-.56v-.15h-.86c-.14 0-.29 0-.43.01-.14 0-.27.03-.38.07s-.21.1-.27.18-.1.19-.1.33.04.26.11.35.17.16.3.21.25.07.39.07Z" fill="#ffffff" data-color="1"></path>
        <path d="M108.03 82.9c-.21 0-.38-.06-.5-.19s-.19-.29-.19-.5.07-.36.2-.49.3-.19.5-.19.36.06.5.19.21.29.21.5-.07.37-.2.5-.3.19-.5.19Zm-.55 5.3v-4.74h1.1v4.74z" fill="#ffffff" data-color="1"></path>
        <path d="M110.92 88.26c-.23 0-.45-.02-.68-.07q-.345-.075-.63-.24c-.2-.11-.36-.26-.5-.45s-.22-.43-.26-.72h1.11c.05.13.12.24.23.32s.23.14.37.18.28.06.42.06c.08 0 .17 0 .27-.02.1-.01.19-.04.28-.07s.16-.09.21-.16.08-.16.08-.28c0-.11-.03-.19-.09-.26a.7.7 0 0 0-.24-.15c-.1-.04-.22-.07-.37-.09-.26-.05-.53-.11-.83-.17a2.2 2.2 0 0 1-.76-.3.9.9 0 0 1-.23-.19c-.07-.07-.12-.15-.17-.24s-.08-.18-.1-.28q-.03-.15-.03-.33c0-.25.05-.47.16-.64.11-.18.25-.32.42-.43.18-.11.38-.19.61-.25.23-.05.46-.08.7-.08.32 0 .62.05.88.15s.48.26.66.47.28.48.32.8h-1.04q-.045-.225-.27-.36c-.225-.135-.35-.14-.58-.14-.08 0-.17 0-.26.02s-.17.04-.26.07a.43.43 0 0 0-.28.39c0 .09.02.17.07.23.04.07.11.12.21.17.09.04.2.08.33.11.2.04.42.08.64.13.22.04.41.08.58.13.19.05.37.13.52.23q.24.15.36.39c.12.24.13.36.13.61q0 .435-.18.72c-.12.19-.27.34-.46.45s-.4.19-.64.23c-.23.05-.46.07-.69.07Z" fill="#ffffff" data-color="1"></path>
        <path d="M117.29 88.26c-.49 0-.9-.1-1.26-.3-.35-.2-.62-.48-.81-.85s-.28-.79-.28-1.29.1-.93.29-1.29.46-.65.81-.85.76-.31 1.25-.31.89.1 1.24.31c.35.2.61.49.8.86s.28.8.28 1.3-.09.91-.28 1.27c-.18.36-.45.64-.8.84s-.77.3-1.25.3Zm-1.71-5.41 1.31-1.57h.75l1.33 1.57h-1.06l-.64-.83-.63.83zm1.71 4.41c.3 0 .54-.07.72-.2s.32-.31.4-.52c.08-.22.13-.45.13-.7s-.04-.49-.13-.71a1.2 1.2 0 0 0-.4-.54c-.18-.13-.42-.2-.72-.2s-.54.07-.73.2-.32.31-.41.53c-.08.22-.13.46-.13.72s.04.49.13.71.22.39.41.52c.18.13.42.19.72.19Z" fill="#ffffff" data-color="1"></path>
        <path d="M119.96 88.2v-4.74h1.01l.07.54c.12-.16.25-.29.39-.37.14-.09.29-.15.44-.18.15-.04.3-.05.44-.05.3 0 .56.06.77.18s.38.3.5.54c.12-.17.25-.3.4-.41.15-.1.31-.18.48-.23s.34-.08.53-.08c.37 0 .66.08.88.23s.38.36.49.63c.1.27.15.57.15.91v3.04h-1.1v-2.69c0-.12 0-.25-.02-.38s-.04-.25-.09-.37a.7.7 0 0 0-.22-.28c-.1-.07-.23-.11-.41-.11s-.32.04-.43.11-.2.17-.27.3c-.07.12-.12.26-.14.41-.03.15-.04.29-.04.44v2.57h-1.1v-2.7c0-.11 0-.24-.02-.36-.01-.13-.04-.25-.09-.37s-.12-.21-.22-.28a.7.7 0 0 0-.41-.11q-.375 0-.57.21c-.13.14-.22.31-.26.5s-.07.39-.07.57v2.55h-1.1Z" fill="#ffffff" data-color="1"></path>
        <path d="M129.11 88.26c-.49 0-.91-.1-1.26-.31s-.61-.49-.78-.85-.27-.78-.27-1.26.09-.9.28-1.27c.18-.37.45-.66.79-.87s.76-.32 1.25-.32c.36 0 .67.06.95.19.27.13.5.3.68.53.18.22.32.47.41.76.09.28.13.58.13.89 0 .07-.01.14-.02.21 0 .07-.01.14-.03.22h-3.33c.02.21.07.4.17.58s.23.31.4.41.38.15.64.15c.15 0 .29-.02.43-.06s.26-.1.36-.18q.165-.12.21-.3h1.1c-.08.34-.22.62-.43.84s-.46.38-.75.48-.6.15-.92.15Zm-1.19-2.9h2.29c0-.2-.04-.38-.13-.54s-.22-.29-.38-.38-.36-.14-.6-.14q-.375 0-.63.15a1 1 0 0 0-.39.4q-.135.24-.15.51Z" fill="#ffffff" data-color="1"></path>
        <path d="M133.82 90.37c-.35 0-.67-.06-.98-.17-.3-.11-.56-.29-.77-.52-.21-.24-.35-.54-.42-.91h1.12c.04.14.11.26.22.35s.24.15.38.19q.225.06.45.06c.29 0 .53-.06.7-.18s.29-.28.37-.49c.07-.21.11-.43.11-.68v-.45c-.11.17-.24.31-.41.41s-.34.17-.52.21q-.27.06-.54.06c-.49 0-.89-.11-1.2-.32-.31-.22-.54-.5-.68-.87-.14-.36-.22-.76-.22-1.2s.08-.87.24-1.25.4-.67.72-.9c.32-.22.72-.33 1.21-.33.28 0 .55.05.8.15q.375.15.63.45l.07-.52h1.02v4.33c0 .53-.08.99-.23 1.38s-.4.68-.73.89c-.34.21-.78.31-1.33.31Zm-.07-3.09c.28 0 .52-.07.7-.2q.285-.195.42-.54c.1-.22.14-.47.14-.73s-.05-.51-.14-.73a1.1 1.1 0 0 0-.41-.51c-.18-.13-.42-.19-.71-.19-.31 0-.55.07-.73.21s-.31.32-.39.54c-.08.23-.12.46-.12.72s.04.51.13.72c.08.22.22.39.4.52s.42.19.71.19" fill="#ffffff" data-color="1"></path>
        <path d="M138.15 88.26q-.33 0-.63-.09c-.3-.09-.38-.15-.53-.27s-.28-.26-.37-.44-.14-.39-.14-.63q0-.465.18-.75c.12-.2.28-.34.49-.45.21-.1.44-.17.71-.21.26-.04.54-.06.83-.06h.93c0-.21-.03-.39-.1-.54a.83.83 0 0 0-.31-.36c-.14-.09-.32-.13-.54-.13-.14 0-.28.02-.4.05a.9.9 0 0 0-.32.15.5.5 0 0 0-.18.27h-1.12c.04-.25.13-.46.26-.63.13-.18.29-.32.48-.44.19-.11.4-.2.62-.26q.345-.09.69-.09c.69 0 1.19.2 1.51.59.32.4.47.95.47 1.67v2.56h-.97l-.03-.61c-.14.2-.3.35-.5.45-.19.1-.38.16-.56.18-.18.03-.33.04-.46.04Zm.21-.89c.24 0 .45-.04.64-.13s.33-.22.45-.38c.11-.16.17-.35.17-.56v-.15h-.86c-.14 0-.29 0-.43.01-.14 0-.27.03-.38.07s-.21.1-.27.18-.1.19-.1.33.04.26.11.35.17.16.3.21.25.07.39.07Z" fill="#ffffff" data-color="1"></path>
        <path d="M142.98 88.26c-.23 0-.45-.02-.68-.07q-.345-.075-.63-.24c-.2-.11-.36-.26-.5-.45s-.22-.43-.26-.72h1.11c.05.13.12.24.23.32s.23.14.37.18.28.06.42.06c.08 0 .17 0 .27-.02.1-.01.19-.04.28-.07s.16-.09.21-.16.08-.16.08-.28c0-.11-.03-.19-.09-.26a.7.7 0 0 0-.24-.15c-.1-.04-.22-.07-.37-.09-.26-.05-.53-.11-.83-.17a2.2 2.2 0 0 1-.76-.3.9.9 0 0 1-.23-.19c-.07-.07-.12-.15-.17-.24s-.08-.18-.1-.28q-.03-.15-.03-.33c0-.25.05-.47.16-.64.11-.18.25-.32.42-.43.18-.11.38-.19.61-.25.23-.05.46-.08.7-.08.32 0 .62.05.88.15s.48.26.66.47.28.48.32.8h-1.04q-.045-.225-.27-.36c-.225-.135-.35-.14-.58-.14-.08 0-.17 0-.26.02s-.17.04-.26.07a.43.43 0 0 0-.28.39c0 .09.02.17.07.23.04.07.11.12.21.17.09.04.2.08.33.11.2.04.42.08.64.13.22.04.41.08.58.13.19.05.37.13.52.23q.24.15.36.39c.12.24.13.36.13.61q0 .435-.18.72c-.12.19-.27.34-.46.45s-.4.19-.64.23c-.23.05-.46.07-.69.07Z" fill="#ffffff" data-color="1"></path>
        <path d="M149.33 88.27c-.28 0-.56-.03-.84-.1s-.53-.17-.76-.31a1.9 1.9 0 0 1-.57-.55c-.15-.23-.25-.5-.29-.83h1.12c.05.19.15.33.29.44s.3.19.49.24.38.08.57.08c.14 0 .28-.01.41-.04.14-.02.27-.07.39-.13a.8.8 0 0 0 .29-.28c.07-.12.11-.28.11-.47 0-.17-.03-.32-.09-.43a.75.75 0 0 0-.26-.27c-.11-.06-.24-.11-.38-.13s-.29-.04-.45-.04h-.7v-.96h.46c.17 0 .33-.02.48-.05.14-.04.27-.09.38-.16s.19-.16.25-.27q.09-.165.09-.39c0-.22-.05-.38-.14-.5s-.22-.21-.37-.26a1.62 1.62 0 0 0-1 0c-.16.05-.29.13-.4.23s-.19.23-.22.39h-1.1c.04-.3.12-.56.26-.77.14-.22.31-.39.52-.54.21-.14.44-.24.7-.31s.52-.1.8-.1.53.03.78.09.47.16.66.29.35.31.46.53.17.48.17.79a1.5 1.5 0 0 1-.38 1.02c-.12.13-.27.24-.45.32.24.07.44.17.6.32s.28.32.36.53c.08.2.12.43.12.68q0 .57-.21.96c-.21.39-.33.46-.56.6s-.48.25-.76.31-.55.09-.82.09Z" fill="#ffffff" data-color="1"></path>
        <path d="M20.28 97.76c-.49 0-.91-.1-1.26-.31s-.61-.49-.78-.85-.27-.78-.27-1.26.09-.9.28-1.27c.18-.37.45-.66.79-.87s.76-.32 1.25-.32c.36 0 .67.06.95.19.27.13.5.3.68.53.18.22.32.47.41.76.09.28.13.58.13.89 0 .07-.01.14-.02.21 0 .07-.01.14-.03.22h-3.33c.02.21.07.4.17.58s.23.31.4.41.38.15.64.15c.15 0 .29-.02.43-.06s.26-.1.36-.18q.165-.12.21-.3h1.1c-.08.34-.22.62-.43.84s-.46.38-.75.48-.6.15-.92.15Zm-1.19-2.9h2.29c0-.2-.04-.38-.13-.54s-.22-.29-.38-.38-.36-.14-.6-.14q-.375 0-.63.15a1 1 0 0 0-.39.4q-.135.24-.15.51Z" fill="#ffffff" data-color="1"></path>
        <path d="M27.16 97.77c-.44 0-.83-.08-1.14-.25-.32-.17-.58-.4-.77-.68-.2-.29-.34-.62-.44-.99-.09-.37-.14-.76-.14-1.17 0-.46.05-.9.15-1.31s.25-.77.46-1.09c.21-.31.48-.56.82-.75.33-.18.73-.27 1.18-.27.34 0 .66.06.95.18s.54.3.73.54c.2.24.33.54.41.9h-1.08a.94.94 0 0 0-.41-.45c-.19-.11-.4-.16-.62-.16s-.44.04-.61.13a1.48 1.48 0 0 0-.73.83c-.07.19-.13.38-.16.58-.04.2-.05.39-.05.58.14-.21.31-.37.5-.49s.38-.2.58-.25.4-.08.58-.08c.43 0 .79.08 1.09.25s.54.4.71.71c.17.3.25.66.25 1.07 0 .44-.1.82-.29 1.14s-.46.58-.8.76-.73.27-1.17.27m-.01-1.02c.23 0 .44-.06.6-.15q.255-.15.39-.39c.09-.17.14-.35.14-.54 0-.21-.04-.4-.14-.56-.09-.17-.22-.3-.38-.4-.17-.1-.36-.15-.59-.15-.22 0-.41.05-.59.14s-.32.22-.43.39-.16.36-.16.57q0 .3.15.54c.1.17.24.3.41.4s.38.15.6.15" fill="#ffffff" data-color="1"></path>
        <path d="M33.29 97.76q-.33 0-.63-.09c-.3-.09-.38-.15-.53-.27s-.28-.26-.37-.44-.14-.39-.14-.63q0-.465.18-.75c.12-.2.28-.34.49-.45.21-.1.44-.17.71-.21.26-.04.54-.06.83-.06h.93c0-.21-.03-.39-.1-.54a.83.83 0 0 0-.31-.36c-.14-.09-.32-.13-.54-.13-.14 0-.28.02-.4.05a.9.9 0 0 0-.32.15.5.5 0 0 0-.18.27h-1.12c.04-.25.13-.46.26-.63.13-.18.29-.32.48-.44.19-.11.4-.2.62-.26q.345-.09.69-.09c.69 0 1.19.2 1.51.59.32.4.47.95.47 1.67v2.56h-.97l-.03-.61c-.14.2-.3.35-.5.45-.19.1-.38.16-.56.18-.18.03-.33.04-.46.04Zm.21-.89c.24 0 .45-.04.64-.13s.33-.22.45-.38c.11-.16.17-.35.17-.56v-.15h-.86c-.14 0-.29 0-.43.01-.14 0-.27.03-.38.07s-.21.1-.27.18-.1.19-.1.33.04.26.11.35.17.16.3.21.25.07.39.07Z" fill="#ffffff" data-color="1"></path>
        <path d="M38.12 97.76c-.23 0-.45-.02-.68-.07q-.345-.075-.63-.24c-.2-.11-.36-.26-.5-.45s-.22-.43-.26-.72h1.11c.05.13.12.24.23.32s.23.14.37.18.28.06.42.06c.08 0 .17 0 .27-.02.1-.01.19-.04.28-.07s.16-.09.21-.16.08-.16.08-.28c0-.11-.03-.19-.09-.26a.7.7 0 0 0-.24-.15c-.1-.04-.22-.07-.37-.09-.26-.05-.53-.11-.83-.17a2.2 2.2 0 0 1-.76-.3.9.9 0 0 1-.23-.19c-.07-.07-.12-.15-.17-.24s-.08-.18-.1-.28q-.03-.15-.03-.33c0-.25.05-.47.16-.64.11-.18.25-.32.42-.43.18-.11.38-.19.61-.25.23-.05.46-.08.7-.08.32 0 .62.05.88.15s.48.26.66.47.28.48.32.8h-1.04q-.045-.225-.27-.36c-.225-.135-.35-.14-.58-.14-.08 0-.17 0-.26.02s-.17.04-.26.07a.43.43 0 0 0-.28.39c0 .09.02.17.07.23.04.07.11.12.21.17.09.04.2.08.33.11.2.04.42.08.64.13.22.04.41.08.58.13.19.05.37.13.52.23q.24.15.36.39c.12.24.13.36.13.61q0 .435-.18.72c-.12.19-.27.34-.46.45s-.4.19-.64.23c-.23.05-.46.07-.69.07Z" fill="#ffffff" data-color="1"></path>
        <path d="M42.18 97.76c-.23 0-.45-.02-.68-.07q-.345-.075-.63-.24c-.2-.11-.36-.26-.5-.45s-.22-.43-.26-.72h1.11c.05.13.12.24.23.32s.23.14.37.18.28.06.42.06c.08 0 .17 0 .27-.02.1-.01.19-.04.28-.07s.16-.09.21-.16.08-.16.08-.28c0-.11-.03-.19-.09-.26a.7.7 0 0 0-.24-.15c-.1-.04-.22-.07-.37-.09-.26-.05-.53-.11-.83-.17a2.2 2.2 0 0 1-.76-.3.9.9 0 0 1-.23-.19c-.07-.07-.12-.15-.17-.24s-.08-.18-.1-.28q-.03-.15-.03-.33c0-.25.05-.47.16-.64.11-.18.25-.32.42-.43.18-.11.38-.19.61-.25.23-.05.46-.08.7-.08.32 0 .62.05.88.15s.48.26.66.47.28.48.32.8h-1.04q-.045-.225-.27-.36c-.225-.135-.35-.14-.58-.14-.08 0-.17 0-.26.02s-.17.04-.26.07a.43.43 0 0 0-.28.39c0 .09.02.17.07.23.04.07.11.12.21.17.09.04.2.08.33.11.2.04.42.08.64.13.22.04.41.08.58.13.19.05.37.13.52.23q.24.15.36.39c.12.24.13.36.13.61q0 .435-.18.72c-.12.19-.27.34-.46.45s-.4.19-.64.23c-.23.05-.46.07-.69.07Z" fill="#ffffff" data-color="1"></path>
        <path d="M46.59 97.76c-.49 0-.9-.1-1.26-.3-.35-.2-.62-.48-.81-.85s-.28-.79-.28-1.29.1-.93.29-1.29.46-.65.81-.85.76-.31 1.25-.31.89.1 1.24.31c.35.2.61.49.8.86s.28.8.28 1.3-.09.91-.28 1.27c-.18.36-.45.64-.8.84s-.77.3-1.25.3Zm-.01-1c.3 0 .54-.07.72-.2s.32-.31.4-.52c.08-.22.13-.45.13-.7s-.04-.49-.13-.71a1.2 1.2 0 0 0-.4-.54c-.18-.13-.42-.2-.72-.2s-.54.07-.73.2-.32.31-.41.53c-.08.22-.13.46-.13.72s.04.49.13.71.22.39.41.52c.18.13.42.19.72.19Z" fill="#ffffff" data-color="1"></path>
        <path d="M51.34 97.76c-.49 0-.91-.1-1.24-.3a1.9 1.9 0 0 1-.76-.85 3 3 0 0 1-.26-1.27c0-.48.09-.9.27-1.27s.44-.66.79-.87.77-.32 1.27-.32c.37 0 .69.06.98.19s.52.31.69.55c.18.24.29.54.34.9h-1.08a.86.86 0 0 0-.36-.5c-.17-.1-.36-.16-.59-.16-.31 0-.55.07-.72.22-.18.15-.3.33-.38.55q-.12.33-.12.69c0 .36.04.49.13.71.08.22.21.39.39.53.18.13.41.2.69.2.23 0 .43-.05.62-.15.18-.1.3-.27.36-.5h1.12c-.04.37-.16.67-.37.91-.2.24-.45.42-.76.54q-.465.18-.99.18Z" fill="#ffffff" data-color="1"></path>
        <path d="M54.29 92.4c-.21 0-.38-.06-.5-.19s-.19-.29-.19-.5.07-.36.2-.49.3-.19.5-.19.36.06.5.19.21.29.21.5-.07.37-.2.5-.3.19-.5.19Zm-.55 5.3v-4.74h1.1v4.74z" fill="#ffffff" data-color="1"></path>
        <path d="M56.87 97.76q-.33 0-.63-.09c-.3-.09-.38-.15-.53-.27s-.28-.26-.37-.44-.14-.39-.14-.63q0-.465.18-.75c.12-.2.28-.34.49-.45.21-.1.44-.17.71-.21.26-.04.54-.06.83-.06h.93c0-.21-.03-.39-.1-.54a.83.83 0 0 0-.31-.36c-.14-.09-.32-.13-.54-.13-.14 0-.28.02-.4.05a.9.9 0 0 0-.32.15.5.5 0 0 0-.18.27h-1.12c.04-.25.13-.46.26-.63.13-.18.29-.32.48-.44.19-.11.4-.2.62-.26q.345-.09.69-.09c.69 0 1.19.2 1.51.59.32.4.47.95.47 1.67v2.56h-.97l-.03-.61c-.14.2-.3.35-.5.45-.19.1-.38.16-.56.18-.18.03-.33.04-.46.04Zm.22-.89c.24 0 .45-.04.64-.13s.33-.22.45-.38c.11-.16.17-.35.17-.56v-.15h-.86c-.14 0-.29 0-.43.01-.14 0-.27.03-.38.07s-.21.1-.27.18-.1.19-.1.33.04.26.11.35.17.16.3.21.25.07.39.07Z" fill="#ffffff" data-color="1"></path>
        <path d="M61.82 97.76c-.48 0-.88-.11-1.19-.33s-.54-.51-.7-.88c-.15-.37-.23-.77-.23-1.22s.08-.89.24-1.26.41-.66.73-.87.73-.32 1.21-.32a2.2 2.2 0 0 1 1.02.24c.15.08.28.19.38.32v-2.11h1.1v6.36h-1.06l-.02-.59c-.11.15-.25.27-.4.37s-.32.17-.51.22-.38.07-.58.07Zm.21-.99c.29 0 .53-.07.71-.2q.285-.195.42-.54a1.9 1.9 0 0 0 0-1.43c-.09-.22-.23-.39-.42-.52s-.42-.2-.71-.2q-.465 0-.72.21c-.255.21-.31.32-.39.54a2.2 2.2 0 0 0-.05 1.26q.075.255.21.45c.1.13.22.24.38.31.16.08.35.11.58.11Z" fill="#ffffff" data-color="1"></path>
        <path d="M67.08 97.76c-.49 0-.9-.1-1.26-.3-.35-.2-.62-.48-.81-.85s-.28-.79-.28-1.29.1-.93.29-1.29.46-.65.81-.85.76-.31 1.25-.31.89.1 1.24.31c.35.2.61.49.8.86s.28.8.28 1.3-.09.91-.28 1.27c-.18.36-.45.64-.8.84s-.77.3-1.25.3Zm-.01-1c.3 0 .54-.07.72-.2s.32-.31.4-.52c.08-.22.13-.45.13-.7s-.04-.49-.13-.71a1.2 1.2 0 0 0-.4-.54c-.18-.13-.42-.2-.72-.2s-.54.07-.73.2-.32.31-.41.53c-.08.22-.13.46-.13.72s.04.49.13.71.22.39.41.52c.18.13.42.19.72.19Z" fill="#ffffff" data-color="1"></path>
        <path d="M71.56 97.76c-.23 0-.45-.02-.68-.07q-.345-.075-.63-.24c-.2-.11-.36-.26-.5-.45s-.22-.43-.26-.72h1.11c.05.13.12.24.23.32s.23.14.37.18.28.06.42.06c.08 0 .17 0 .27-.02.1-.01.19-.04.28-.07s.16-.09.21-.16.08-.16.08-.28c0-.11-.03-.19-.09-.26a.7.7 0 0 0-.24-.15c-.1-.04-.22-.07-.37-.09-.26-.05-.53-.11-.83-.17a2.2 2.2 0 0 1-.76-.3.9.9 0 0 1-.23-.19c-.07-.07-.12-.15-.17-.24s-.08-.18-.1-.28q-.03-.15-.03-.33c0-.25.05-.47.16-.64.11-.18.25-.32.42-.43.18-.11.38-.19.61-.25.23-.05.46-.08.7-.08.32 0 .62.05.88.15s.48.26.66.47.28.48.32.8h-1.04q-.045-.225-.27-.36c-.225-.135-.35-.14-.58-.14-.08 0-.17 0-.26.02s-.17.04-.26.07a.43.43 0 0 0-.28.39c0 .09.02.17.07.23.04.07.11.12.21.17.09.04.2.08.33.11.2.04.42.08.64.13.22.04.41.08.58.13.19.05.37.13.52.23q.24.15.36.39c.12.24.13.36.13.61q0 .435-.18.72c-.12.19-.27.34-.46.45s-.4.19-.64.23c-.23.05-.46.07-.69.07Z" fill="#ffffff" data-color="1"></path>
        <path d="M77.28 97.76q-.33 0-.63-.09c-.3-.09-.38-.15-.53-.27s-.28-.26-.37-.44-.14-.39-.14-.63q0-.465.18-.75c.12-.2.28-.34.49-.45.21-.1.44-.17.71-.21.26-.04.54-.06.83-.06h.93c0-.21-.03-.39-.1-.54a.83.83 0 0 0-.31-.36c-.14-.09-.32-.13-.54-.13-.14 0-.28.02-.4.05a.9.9 0 0 0-.32.15.5.5 0 0 0-.18.27h-1.12c.04-.25.13-.46.26-.63.13-.18.29-.32.48-.44.19-.11.4-.2.62-.26q.345-.09.69-.09c.69 0 1.19.2 1.51.59.32.4.47.95.47 1.67v2.56h-.97l-.03-.61c-.14.2-.3.35-.5.45-.19.1-.38.16-.56.18-.18.03-.33.04-.46.04Zm.21-.89c.24 0 .45-.04.64-.13s.33-.22.45-.38c.11-.16.17-.35.17-.56v-.15h-.86c-.14 0-.29 0-.43.01-.14 0-.27.03-.38.07s-.21.1-.27.18-.1.19-.1.33.04.26.11.35.17.16.3.21.25.07.39.07Z" fill="#ffffff" data-color="1"></path>
        <path d="M82.46 97.76c-.49 0-.9-.1-1.26-.3-.35-.2-.62-.48-.81-.85s-.28-.79-.28-1.29.1-.93.29-1.29.46-.65.81-.85.76-.31 1.25-.31.89.1 1.24.31c.35.2.61.49.8.86s.28.8.28 1.3-.09.91-.28 1.27c-.18.36-.45.64-.8.84s-.77.3-1.25.3Zm-.01-1c.3 0 .54-.07.72-.2s.32-.31.4-.52c.08-.22.13-.45.13-.7s-.04-.49-.13-.71a1.2 1.2 0 0 0-.4-.54c-.18-.13-.42-.2-.72-.2s-.54.07-.73.2-.32.31-.41.53c-.08.22-.13.46-.13.72s.04.49.13.71.22.39.41.52c.18.13.42.19.72.19Z" fill="#ffffff" data-color="1"></path>
        <path d="M86.9 97.7v-.85l2.5-2.92h-2.5v-.97h3.92v.84l-2.52 2.93h2.52v.97z" fill="#ffffff" data-color="1"></path>
        <path d="M91.71 92.4c-.21 0-.38-.06-.5-.19s-.19-.29-.19-.5.07-.36.2-.49.3-.19.5-.19.36.06.5.19.21.29.21.5-.07.37-.2.5-.3.19-.5.19Zm-.55 5.3v-4.74h1.1v4.74z" fill="#ffffff" data-color="1"></path>
        <path d="M92.78 97.7v-4.74h1.03l.06.6c.13-.17.27-.3.44-.4s.35-.17.53-.21c.19-.04.36-.07.52-.07.45 0 .81.1 1.07.3s.45.46.55.79c.11.33.16.7.16 1.11v2.62h-1.1v-2.44c0-.17-.01-.34-.04-.51-.02-.17-.07-.31-.14-.45-.07-.13-.17-.24-.29-.31s-.29-.12-.5-.12q-.39 0-.66.21c-.27.21-.32.32-.41.55s-.13.49-.13.79v2.28h-1.1Z" fill="#ffffff" data-color="1"></path>
        <path d="M99.73 97.76c-.49 0-.91-.1-1.24-.3a1.9 1.9 0 0 1-.76-.85 3 3 0 0 1-.26-1.27c0-.48.09-.9.27-1.27s.44-.66.79-.87.77-.32 1.27-.32c.37 0 .69.06.98.19s.52.31.69.55c.18.24.29.54.34.9h-1.08a.86.86 0 0 0-.36-.5c-.17-.1-.36-.16-.59-.16-.31 0-.55.07-.72.22-.18.15-.3.33-.38.55q-.12.33-.12.69c0 .36.04.49.13.71.08.22.21.39.39.53.18.13.41.2.69.2.23 0 .43-.05.62-.15.18-.1.3-.27.36-.5h1.12c-.04.37-.16.67-.37.91-.2.24-.45.42-.76.54q-.465.18-.99.18Z" fill="#ffffff" data-color="1"></path>
        <path d="M104.3 97.76c-.49 0-.9-.1-1.26-.3-.35-.2-.62-.48-.81-.85s-.28-.79-.28-1.29.1-.93.29-1.29.46-.65.81-.85.76-.31 1.25-.31.89.1 1.24.31c.35.2.61.49.8.86s.28.8.28 1.3-.09.91-.28 1.27c-.18.36-.45.64-.8.84s-.77.3-1.25.3Zm-.01-1c.3 0 .54-.07.72-.2s.32-.31.4-.52c.08-.22.13-.45.13-.7s-.04-.49-.13-.71a1.2 1.2 0 0 0-.4-.54c-.18-.13-.42-.2-.72-.2s-.54.07-.73.2-.32.31-.41.53c-.08.22-.13.46-.13.72s.04.49.13.71.22.39.41.52c.18.13.42.19.72.19Z" fill="#ffffff" data-color="1"></path>
        <path d="M111.1 97.76c-.49 0-.9-.1-1.26-.3-.35-.2-.62-.48-.81-.85s-.28-.79-.28-1.29.1-.93.29-1.29.46-.65.81-.85.76-.31 1.25-.31.89.1 1.24.31c.35.2.61.49.8.86s.28.8.28 1.3-.09.91-.28 1.27c-.18.36-.45.64-.8.84s-.77.3-1.25.3Zm-.01-1c.3 0 .54-.07.72-.2s.32-.31.4-.52c.08-.22.13-.45.13-.7s-.04-.49-.13-.71a1.2 1.2 0 0 0-.4-.54c-.18-.13-.42-.2-.72-.2s-.54.07-.73.2-.32.31-.41.53c-.08.22-.13.46-.13.72s.04.49.13.71.22.39.41.52c.18.13.42.19.72.19Z" fill="#ffffff" data-color="1"></path>
        <path d="M113.76 97.7v-4.74h1l.06.62c.12-.18.26-.32.41-.42s.32-.17.49-.21q.27-.06.54-.06h.32v1.04h-.29c-.31 0-.58.06-.79.18-.22.12-.38.29-.49.51s-.16.5-.16.82v2.25h-1.1Z" fill="#ffffff" data-color="1"></path>
        <path d="M118.9 99.87c-.35 0-.67-.06-.98-.17-.3-.11-.56-.29-.77-.52-.21-.24-.35-.54-.42-.91h1.12c.04.14.11.26.22.35s.24.15.38.19q.225.06.45.06c.29 0 .53-.06.7-.18s.29-.28.37-.49c.07-.21.11-.43.11-.68v-.45c-.11.17-.24.31-.41.41s-.34.17-.52.21q-.27.06-.54.06c-.49 0-.89-.11-1.2-.32-.31-.22-.54-.5-.68-.87-.14-.36-.22-.76-.22-1.2s.08-.87.24-1.25.4-.67.72-.9c.32-.22.72-.33 1.21-.33.28 0 .55.05.8.15q.375.15.63.45l.07-.52h1.02v4.33c0 .53-.08.99-.23 1.38s-.4.68-.73.89c-.34.21-.78.31-1.33.31Zm-.06-3.09c.28 0 .52-.07.7-.2q.285-.195.42-.54c.1-.22.14-.47.14-.73s-.05-.51-.14-.73a1.1 1.1 0 0 0-.41-.51c-.18-.13-.42-.19-.71-.19-.31 0-.55.07-.73.21s-.31.32-.39.54c-.08.23-.12.46-.12.72s.04.51.13.72c.08.22.22.39.4.52s.42.19.71.19" fill="#ffffff" data-color="1"></path>
        <path d="M123.23 97.76q-.33 0-.63-.09c-.3-.09-.38-.15-.53-.27s-.28-.26-.37-.44-.14-.39-.14-.63q0-.465.18-.75c.12-.2.28-.34.49-.45.21-.1.44-.17.71-.21.26-.04.54-.06.83-.06h.93c0-.21-.03-.39-.1-.54a.83.83 0 0 0-.31-.36c-.14-.09-.32-.13-.54-.13-.14 0-.28.02-.4.05a.9.9 0 0 0-.32.15.5.5 0 0 0-.18.27h-1.12c.04-.25.13-.46.26-.63.13-.18.29-.32.48-.44.19-.11.4-.2.62-.26q.345-.09.69-.09c.69 0 1.19.2 1.51.59.32.4.47.95.47 1.67v2.56h-.97l-.03-.61c-.14.2-.3.35-.5.45-.19.1-.38.16-.56.18-.18.03-.33.04-.46.04Zm-1.14-5.44 1.31-1.58h.75l1.33 1.58h-1.06l-.64-.83-.63.83zm1.35 4.55c.24 0 .45-.04.64-.13s.33-.22.45-.38c.11-.16.17-.35.17-.56v-.15h-.86c-.14 0-.29 0-.43.01-.14 0-.27.03-.38.07s-.21.1-.27.18-.1.19-.1.33.04.26.11.35.17.16.3.21.25.07.39.07Z" fill="#ffffff" data-color="1"></path>
        <path d="M126.24 97.7v-4.74h1.03l.06.6c.13-.17.27-.3.44-.4s.35-.17.53-.21c.19-.04.36-.07.52-.07.45 0 .81.1 1.07.3s.45.46.55.79c.11.33.16.7.16 1.11v2.62h-1.1v-2.44c0-.17-.01-.34-.04-.51-.02-.17-.07-.31-.14-.45-.07-.13-.17-.24-.29-.31s-.29-.12-.5-.12q-.39 0-.66.21c-.27.21-.32.32-.41.55s-.13.49-.13.79v2.28h-1.1Z" fill="#ffffff" data-color="1"></path>
        <path d="M131.65 92.4c-.21 0-.38-.06-.5-.19s-.19-.29-.19-.5.07-.36.2-.49.3-.19.5-.19.36.06.5.19.21.29.21.5-.07.37-.2.5-.3.19-.5.19Zm-.55 5.3v-4.74h1.1v4.74z" fill="#ffffff" data-color="1"></path>
        <path d="M134.81 97.76c-.49 0-.91-.1-1.24-.3a1.9 1.9 0 0 1-.76-.85 3 3 0 0 1-.26-1.27c0-.48.09-.9.27-1.27s.44-.66.79-.87.77-.32 1.27-.32c.37 0 .69.06.98.19s.52.31.69.55c.18.24.29.54.34.9h-1.08a.86.86 0 0 0-.36-.5c-.17-.1-.36-.16-.59-.16-.31 0-.55.07-.72.22-.18.15-.3.33-.38.55q-.12.33-.12.69c0 .36.04.49.13.71.08.22.21.39.39.53.18.13.41.2.69.2.23 0 .43-.05.62-.15.18-.1.3-.27.36-.5h1.12c-.04.37-.16.67-.37.91-.2.24-.45.42-.76.54q-.465.18-.99.18Z" fill="#ffffff" data-color="1"></path>
        <path d="M139.38 97.76c-.49 0-.9-.1-1.26-.3-.35-.2-.62-.48-.81-.85s-.28-.79-.28-1.29.1-.93.29-1.29.46-.65.81-.85.76-.31 1.25-.31.89.1 1.24.31c.35.2.61.49.8.86s.28.8.28 1.3-.09.91-.28 1.27c-.18.36-.45.64-.8.84s-.77.3-1.25.3Zm0-1c.3 0 .54-.07.72-.2s.32-.31.4-.52c.08-.22.13-.45.13-.7s-.04-.49-.13-.71a1.2 1.2 0 0 0-.4-.54c-.18-.13-.42-.2-.72-.2s-.54.07-.73.2-.32.31-.41.53c-.08.22-.13.46-.13.72s.04.49.13.71.22.39.41.52c.18.13.42.19.72.19Z" fill="#ffffff" data-color="1"></path>
        <path d="M17.61 107.26c-.49 0-.91-.1-1.24-.3a1.9 1.9 0 0 1-.76-.85 3 3 0 0 1-.26-1.27c0-.48.09-.9.27-1.27s.44-.66.79-.87.77-.32 1.27-.32c.37 0 .69.06.98.19s.52.31.69.55c.18.24.29.54.34.9h-1.08a.86.86 0 0 0-.36-.5c-.17-.1-.36-.16-.59-.16-.31 0-.55.07-.72.22-.18.15-.3.33-.38.55q-.12.33-.12.69c0 .36.04.49.13.71.08.22.21.39.39.53.18.13.41.2.69.2.23 0 .43-.05.62-.15.18-.1.3-.27.36-.5h1.12c-.04.37-.16.67-.37.91-.2.24-.45.42-.76.54q-.465.18-.99.18Z" fill="#ffffff" data-color="1"></path>
        <path d="M22.18 107.26c-.49 0-.9-.1-1.26-.3-.35-.2-.62-.48-.81-.85s-.28-.79-.28-1.29.1-.93.29-1.29.46-.65.81-.85.76-.31 1.25-.31.89.1 1.24.31c.35.2.61.49.8.86s.28.8.28 1.3-.09.91-.28 1.27c-.18.36-.45.64-.8.84s-.77.3-1.25.3Zm-.01-1c.3 0 .54-.07.72-.2s.32-.31.4-.52c.08-.22.13-.45.13-.7s-.04-.49-.13-.71a1.2 1.2 0 0 0-.4-.54c-.18-.13-.42-.2-.72-.2s-.54.07-.73.2-.32.31-.41.53c-.08.22-.13.46-.13.72s.04.49.13.71.22.39.41.52c.18.13.42.19.72.19Z" fill="#ffffff" data-color="1"></path>
        <path d="M24.84 107.2v-4.74h1.03l.06.6c.13-.17.27-.3.44-.4s.35-.17.53-.21c.19-.04.36-.07.52-.07.45 0 .81.1 1.07.3s.45.46.55.79c.11.33.16.7.16 1.11v2.62h-1.1v-2.44c0-.17-.01-.34-.04-.51-.02-.17-.07-.31-.14-.45-.07-.13-.17-.24-.29-.31s-.29-.12-.5-.12q-.39 0-.66.21c-.27.21-.32.32-.41.55s-.13.49-.13.79v2.28h-1.1Z" fill="#ffffff" data-color="1"></path>
        <path d="M31.77 107.2c-.38 0-.7-.05-.95-.15s-.43-.27-.56-.5c-.12-.23-.18-.53-.18-.92v-2.21h-.73v-.97h.73v-1.32h1.1v1.32h1.11v.97h-1.11v2.06c0 .24.04.42.13.55s.27.19.57.19h.38v.97h-.48Z" fill="#ffffff" data-color="1"></path>
        <path d="M32.48 107.2v-4.74h1l.06.62c.12-.18.26-.32.41-.42s.32-.17.49-.21q.27-.06.54-.06h.32v1.04h-.29c-.31 0-.58.06-.79.18-.22.12-.38.29-.49.51s-.16.5-.16.82v2.25h-1.1Z" fill="#ffffff" data-color="1"></path>
        <path d="M35.96 101.9c-.21 0-.38-.06-.5-.19s-.19-.29-.19-.5.07-.36.2-.49.3-.19.5-.19.36.06.5.19.21.29.21.5-.07.37-.2.5-.3.19-.5.19Zm-.55 5.3v-4.74h1.1v4.74z" fill="#ffffff" data-color="1"></path>
        <path d="M39.58 107.26c-.17 0-.35-.02-.52-.05s-.34-.1-.5-.19-.3-.21-.44-.36l-.03.54h-1.06v-6.36h1.1v2.21c.17-.22.4-.39.67-.5s.56-.17.85-.17c.47 0 .85.11 1.16.32.3.21.53.5.67.87s.22.78.22 1.24-.08.88-.23 1.25-.39.66-.7.88-.71.32-1.2.32Zm-.18-.97q.465 0 .72-.21c.18-.14.3-.33.38-.55q.12-.345.12-.72c0-.375-.04-.5-.12-.71-.08-.22-.21-.39-.39-.52s-.42-.2-.72-.2c-.28 0-.51.07-.7.21s-.33.32-.43.55c-.1.22-.14.46-.14.7s.04.49.13.71.22.4.41.54.43.21.73.21Z" fill="#ffffff" data-color="1"></path>
        <path d="M44.14 107.26c-.68 0-1.21-.18-1.57-.53q-.54-.525-.54-1.62v-2.66h1.1v2.58c0 .25.03.47.1.66s.18.33.33.43.35.15.58.15c.25 0 .45-.05.6-.16.15-.1.25-.25.31-.44s.09-.4.09-.64v-2.58h1.1v2.66c0 .74-.18 1.29-.55 1.63-.37.35-.88.52-1.54.52Z" fill="#ffffff" data-color="1"></path>
        <path d="M48.87 107.26c-.49 0-.91-.1-1.26-.31s-.61-.49-.78-.85-.27-.78-.27-1.26.09-.9.28-1.27c.18-.37.45-.66.79-.87s.76-.32 1.25-.32c.36 0 .67.06.95.19.27.13.5.3.68.53.18.22.32.47.41.76.09.28.13.58.13.89 0 .07-.01.14-.02.21 0 .07-.01.14-.03.22h-3.33c.02.21.07.4.17.58s.23.31.4.41.38.15.64.15c.15 0 .29-.02.43-.06s.26-.1.36-.18q.165-.12.21-.3h1.1c-.08.34-.22.62-.43.84s-.46.38-.75.48-.6.15-.92.15Zm-1.19-2.9h2.29c0-.2-.04-.38-.13-.54s-.22-.29-.38-.38-.36-.14-.6-.14q-.375 0-.63.15a1 1 0 0 0-.39.4q-.135.24-.15.51Z" fill="#ffffff" data-color="1"></path>
        <path d="M51.37 107.2v-4.74h1.01l.07.54c.12-.16.25-.29.39-.37.14-.09.29-.15.44-.18.15-.04.3-.05.44-.05.3 0 .56.06.77.18s.38.3.5.54c.12-.17.25-.3.4-.41.15-.1.31-.18.48-.23s.34-.08.53-.08c.37 0 .66.08.88.23s.38.36.49.63c.1.27.15.57.15.91v3.04h-1.1v-2.69c0-.12 0-.25-.02-.38s-.04-.25-.09-.37a.7.7 0 0 0-.22-.28c-.1-.07-.23-.11-.41-.11s-.32.04-.43.11-.2.17-.27.3c-.07.12-.12.26-.14.41-.03.15-.04.29-.04.44v2.57h-1.1v-2.7c0-.11 0-.24-.02-.36-.01-.13-.04-.25-.09-.37s-.12-.21-.22-.28a.7.7 0 0 0-.41-.11q-.375 0-.57.21c-.13.14-.22.31-.26.5s-.07.39-.07.57v2.55h-1.1Z" fill="#ffffff" data-color="1"></path>
        <path d="M60.36 108.94v-6.49h1.03l.05.64c.19-.25.41-.43.67-.54s.54-.17.85-.17c.47 0 .86.11 1.16.32s.53.51.68.87c.15.37.23.78.23 1.24s-.08.88-.23 1.25-.39.66-.71.87-.71.32-1.18.32c-.22 0-.42-.02-.61-.07-.18-.05-.35-.12-.49-.21a1.6 1.6 0 0 1-.36-.31v2.27h-1.1Zm2.37-2.67c.31 0 .55-.07.72-.2s.3-.31.38-.53.12-.45.12-.7-.04-.5-.12-.72q-.12-.33-.39-.54t-.72-.21c-.28 0-.51.07-.7.2-.19.14-.33.31-.43.54-.1.22-.14.46-.14.72s.04.51.13.72.23.39.42.52.44.19.73.19Z" fill="#ffffff" data-color="1"></path>
        <path d="M66.88 107.26q-.33 0-.63-.09c-.3-.09-.38-.15-.53-.27s-.28-.26-.37-.44-.14-.39-.14-.63q0-.465.18-.75c.12-.2.28-.34.49-.45.21-.1.44-.17.71-.21.26-.04.54-.06.83-.06h.93c0-.21-.03-.39-.1-.54a.83.83 0 0 0-.31-.36c-.14-.09-.32-.13-.54-.13-.14 0-.28.02-.4.05a.9.9 0 0 0-.32.15.5.5 0 0 0-.18.27h-1.12c.04-.25.13-.46.26-.63.13-.18.29-.32.48-.44.19-.11.4-.2.62-.26q.345-.09.69-.09c.69 0 1.19.2 1.51.59.32.4.47.95.47 1.67v2.56h-.97l-.03-.61c-.14.2-.3.35-.5.45-.19.1-.38.16-.56.18-.18.03-.33.04-.46.04Zm.22-.89c.24 0 .45-.04.64-.13s.33-.22.45-.38c.11-.16.17-.35.17-.56v-.15h-.86c-.14 0-.29 0-.43.01-.14 0-.27.03-.38.07s-.21.1-.27.18-.1.19-.1.33.04.26.11.35.17.16.3.21.25.07.39.07Z" fill="#ffffff" data-color="1"></path>
        <path d="M69.9 107.2v-4.74h1l.06.62c.12-.18.26-.32.41-.42s.32-.17.49-.21q.27-.06.54-.06h.32v1.04h-.29c-.31 0-.58.06-.79.18-.22.12-.38.29-.49.51s-.16.5-.16.82v2.25h-1.1Z" fill="#ffffff" data-color="1"></path>
        <path d="M74.34 107.26q-.33 0-.63-.09c-.3-.09-.38-.15-.53-.27s-.28-.26-.37-.44-.14-.39-.14-.63q0-.465.18-.75c.12-.2.28-.34.49-.45.21-.1.44-.17.71-.21.26-.04.54-.06.83-.06h.93c0-.21-.03-.39-.1-.54a.83.83 0 0 0-.31-.36c-.14-.09-.32-.13-.54-.13-.14 0-.28.02-.4.05a.9.9 0 0 0-.32.15.5.5 0 0 0-.18.27h-1.12c.04-.25.13-.46.26-.63.13-.18.29-.32.48-.44.19-.11.4-.2.62-.26q.345-.09.69-.09c.69 0 1.19.2 1.51.59.32.4.47.95.47 1.67v2.56h-.97l-.03-.61c-.14.2-.3.35-.5.45-.19.1-.38.16-.56.18-.18.03-.33.04-.46.04Zm.22-.89c.24 0 .45-.04.64-.13s.33-.22.45-.38c.11-.16.17-.35.17-.56v-.15h-.86c-.14 0-.29 0-.43.01-.14 0-.27.03-.38.07s-.21.1-.27.18-.1.19-.1.33.04.26.11.35.17.16.3.21.25.07.39.07Z" fill="#ffffff" data-color="1"></path>
        <path d="M80.83 107.26q-.33 0-.63-.09c-.3-.09-.38-.15-.53-.27s-.28-.26-.37-.44-.14-.39-.14-.63q0-.465.18-.75c.12-.2.28-.34.49-.45.21-.1.44-.17.71-.21.26-.04.54-.06.83-.06h.93c0-.21-.03-.39-.1-.54a.83.83 0 0 0-.31-.36c-.14-.09-.32-.13-.54-.13-.14 0-.28.02-.4.05a.9.9 0 0 0-.32.15.5.5 0 0 0-.18.27h-1.12c.04-.25.13-.46.26-.63.13-.18.29-.32.48-.44.19-.11.4-.2.62-.26q.345-.09.69-.09c.69 0 1.19.2 1.51.59.32.4.47.95.47 1.67v2.56h-.97l-.03-.61c-.14.2-.3.35-.5.45-.19.1-.38.16-.56.18-.18.03-.33.04-.46.04Zm.22-.89c.24 0 .45-.04.64-.13s.33-.22.45-.38c.11-.16.17-.35.17-.56v-.15h-.86c-.14 0-.29 0-.43.01-.14 0-.27.03-.38.07s-.21.1-.27.18-.1.19-.1.33.04.26.11.35.17.16.3.21.25.07.39.07Z" fill="#ffffff" data-color="1"></path>
        <path d="M87.63 107.26c-.23 0-.45-.02-.68-.07q-.345-.075-.63-.24c-.2-.11-.36-.26-.5-.45s-.22-.43-.26-.72h1.11c.05.13.12.24.23.32s.23.14.37.18.28.06.42.06c.08 0 .17 0 .27-.02.1-.01.19-.04.28-.07s.16-.09.21-.16.08-.16.08-.28c0-.11-.03-.19-.09-.26a.7.7 0 0 0-.24-.15c-.1-.04-.22-.07-.37-.09-.26-.05-.53-.11-.83-.17a2.2 2.2 0 0 1-.76-.3.9.9 0 0 1-.23-.19c-.07-.07-.12-.15-.17-.24s-.08-.18-.1-.28q-.03-.15-.03-.33c0-.25.05-.47.16-.64.11-.18.25-.32.42-.43.18-.11.38-.19.61-.25.23-.05.46-.08.7-.08.32 0 .62.05.88.15s.48.26.66.47.28.48.32.8h-1.04q-.045-.225-.27-.36c-.225-.135-.35-.14-.58-.14-.08 0-.17 0-.26.02s-.17.04-.26.07a.43.43 0 0 0-.28.39c0 .09.02.17.07.23.04.07.11.12.21.17.09.04.2.08.33.11.2.04.42.08.64.13.22.04.41.08.58.13.19.05.37.13.52.23q.24.15.36.39c.12.24.13.36.13.61q0 .435-.18.72c-.12.19-.27.34-.46.45s-.4.19-.64.23c-.23.05-.46.07-.69.07Z" fill="#ffffff" data-color="1"></path>
        <path d="M91.38 107.26q-.33 0-.63-.09c-.3-.09-.38-.15-.53-.27s-.28-.26-.37-.44-.14-.39-.14-.63q0-.465.18-.75c.12-.2.28-.34.49-.45.21-.1.44-.17.71-.21.26-.04.54-.06.83-.06h.93c0-.21-.03-.39-.1-.54a.83.83 0 0 0-.31-.36c-.14-.09-.32-.13-.54-.13-.14 0-.28.02-.4.05a.9.9 0 0 0-.32.15.5.5 0 0 0-.18.27h-1.12c.04-.25.13-.46.26-.63.13-.18.29-.32.48-.44.19-.11.4-.2.62-.26q.345-.09.69-.09c.69 0 1.19.2 1.51.59.32.4.47.95.47 1.67v2.56h-.97l-.03-.61c-.14.2-.3.35-.5.45-.19.1-.38.16-.56.18-.18.03-.33.04-.46.04Zm.22-.89c.24 0 .45-.04.64-.13s.33-.22.45-.38c.11-.16.17-.35.17-.56v-.15H92c-.14 0-.29 0-.43.01-.14 0-.27.03-.38.07s-.21.1-.27.18-.1.19-.1.33.04.26.11.35.17.16.3.21.25.07.39.07Z" fill="#ffffff" data-color="1"></path>
        <path d="M96.49 107.26c-.68 0-1.21-.18-1.57-.53q-.54-.525-.54-1.62v-2.66h1.1v2.58c0 .25.03.47.1.66s.18.33.33.43.35.15.58.15c.25 0 .45-.05.6-.16.15-.1.25-.25.31-.44s.09-.4.09-.64v-2.58h1.1v2.66c0 .74-.18 1.29-.55 1.63-.37.35-.88.52-1.54.52Zm-.58-5.41.94-1.45h1.17l-1.16 1.45z" fill="#ffffff" data-color="1"></path>
        <path d="M101.03 107.26c-.48 0-.88-.11-1.19-.33s-.54-.51-.7-.88c-.15-.37-.23-.77-.23-1.22s.08-.89.24-1.26.41-.66.73-.87.73-.32 1.21-.32a2.2 2.2 0 0 1 1.02.24c.15.08.28.19.38.32v-2.11h1.1v6.36h-1.06l-.02-.59c-.11.15-.25.27-.4.37s-.32.17-.51.22-.38.07-.58.07Zm.21-.99c.29 0 .53-.07.71-.2q.285-.195.42-.54a1.9 1.9 0 0 0 0-1.43c-.09-.22-.23-.39-.42-.52s-.42-.2-.71-.2q-.465 0-.72.21c-.255.21-.31.32-.39.54a2.2 2.2 0 0 0-.05 1.26q.075.255.21.45c.1.13.22.24.38.31.16.08.35.11.58.11Z" fill="#ffffff" data-color="1"></path>
        <path d="M106.24 107.26c-.49 0-.91-.1-1.26-.31s-.61-.49-.78-.85-.27-.78-.27-1.26.09-.9.28-1.27c.18-.37.45-.66.79-.87s.76-.32 1.25-.32c.36 0 .67.06.95.19.27.13.5.3.68.53.18.22.32.47.41.76.09.28.13.58.13.89 0 .07-.01.14-.02.21 0 .07-.01.14-.03.22h-3.33c.02.21.07.4.17.58s.23.31.4.41.38.15.64.15c.15 0 .29-.02.43-.06s.26-.1.36-.18q.165-.12.21-.3h1.1c-.08.34-.22.62-.43.84s-.46.38-.75.48-.6.15-.92.15Zm-1.19-2.9h2.29c0-.2-.04-.38-.13-.54s-.22-.29-.38-.38-.36-.14-.6-.14q-.375 0-.63.15a1 1 0 0 0-.39.4q-.135.24-.15.51Z" fill="#ffffff" data-color="1"></path>
        <path d="M112.64 107.26c-.48 0-.88-.11-1.19-.33s-.54-.51-.7-.88c-.15-.37-.23-.77-.23-1.22s.08-.89.24-1.26.41-.66.73-.87.73-.32 1.21-.32a2.2 2.2 0 0 1 1.02.24c.15.08.28.19.38.32v-2.11h1.1v6.36h-1.06l-.02-.59c-.11.15-.25.27-.4.37s-.32.17-.51.22-.38.07-.58.07Zm.2-.99c.29 0 .53-.07.71-.2q.285-.195.42-.54a1.9 1.9 0 0 0 0-1.43c-.09-.22-.23-.39-.42-.52s-.42-.2-.71-.2q-.465 0-.72.21c-.255.21-.31.32-.39.54a2.2 2.2 0 0 0-.05 1.26q.075.255.21.45c.1.13.22.24.38.31.16.08.35.11.58.11Z" fill="#ffffff" data-color="1"></path>
        <path d="M117.24 107.26q-.33 0-.63-.09c-.3-.09-.38-.15-.53-.27s-.28-.26-.37-.44-.14-.39-.14-.63q0-.465.18-.75c.12-.2.28-.34.49-.45.21-.1.44-.17.71-.21.26-.04.54-.06.83-.06h.93c0-.21-.03-.39-.1-.54a.83.83 0 0 0-.31-.36c-.14-.09-.32-.13-.54-.13-.14 0-.28.02-.4.05a.9.9 0 0 0-.32.15.5.5 0 0 0-.18.27h-1.12c.04-.25.13-.46.26-.63.13-.18.29-.32.48-.44.19-.11.4-.2.62-.26q.345-.09.69-.09c.69 0 1.19.2 1.51.59.32.4.47.95.47 1.67v2.56h-.97l-.03-.61c-.14.2-.3.35-.5.45-.19.1-.38.16-.56.18-.18.03-.33.04-.46.04Zm.21-.89c.24 0 .45-.04.64-.13s.33-.22.45-.38c.11-.16.17-.35.17-.56v-.15h-.86c-.14 0-.29 0-.43.01-.14 0-.27.03-.38.07s-.21.1-.27.18-.1.19-.1.33.04.26.11.35.17.16.3.21.25.07.39.07Z" fill="#ffffff" data-color="1"></path>
        <path d="M122.21 108.94v-6.49h1.03l.05.64c.19-.25.41-.43.67-.54s.54-.17.85-.17c.47 0 .86.11 1.16.32s.53.51.68.87c.15.37.23.78.23 1.24s-.08.88-.23 1.25-.39.66-.71.87-.71.32-1.18.32c-.22 0-.42-.02-.61-.07-.18-.05-.35-.12-.49-.21a1.6 1.6 0 0 1-.36-.31v2.27h-1.1Zm2.38-2.67c.31 0 .55-.07.72-.2s.3-.31.38-.53.12-.45.12-.7-.04-.5-.12-.72q-.12-.33-.39-.54t-.72-.21c-.28 0-.51.07-.7.2-.19.14-.33.31-.43.54-.1.22-.14.46-.14.72s.04.51.13.72.23.39.42.52.44.19.73.19Z" fill="#ffffff" data-color="1"></path>
        <path d="M129.35 107.26c-.49 0-.91-.1-1.26-.31s-.61-.49-.78-.85-.27-.78-.27-1.26.09-.9.28-1.27c.18-.37.45-.66.79-.87s.76-.32 1.25-.32c.36 0 .67.06.95.19.27.13.5.3.68.53.18.22.32.47.41.76.09.28.13.58.13.89 0 .07-.01.14-.02.21 0 .07-.01.14-.03.22h-3.33c.02.21.07.4.17.58s.23.31.4.41.38.15.64.15c.15 0 .29-.02.43-.06s.26-.1.36-.18q.165-.12.21-.3h1.1c-.08.34-.22.62-.43.84s-.46.38-.75.48-.6.15-.92.15Zm-1.19-2.9h2.29c0-.2-.04-.38-.13-.54s-.22-.29-.38-.38-.36-.14-.6-.14q-.375 0-.63.15a1 1 0 0 0-.39.4q-.135.24-.15.51Z" fill="#ffffff" data-color="1"></path>
        <path d="M131.85 107.2v-6.36h1.1v6.36z" fill="#ffffff" data-color="1"></path>
        <path d="M135.6 107.26c-.49 0-.91-.1-1.26-.31s-.61-.49-.78-.85-.27-.78-.27-1.26.09-.9.28-1.27c.18-.37.45-.66.79-.87s.76-.32 1.25-.32c.36 0 .67.06.95.19.27.13.5.3.68.53.18.22.32.47.41.76.09.28.13.58.13.89 0 .07-.01.14-.02.21 0 .07-.01.14-.03.22h-3.33c.02.21.07.4.17.58s.23.31.4.41.38.15.64.15c.15 0 .29-.02.43-.06s.26-.1.36-.18q.165-.12.21-.3h1.1c-.08.34-.22.62-.43.84s-.46.38-.75.48-.6.15-.92.15Zm-1.19-2.9h2.29c0-.2-.04-.38-.13-.54s-.22-.29-.38-.38-.36-.14-.6-.14q-.375 0-.63.15a1 1 0 0 0-.39.4q-.135.24-.15.51Z" fill="#ffffff" data-color="1"></path>
        <path d="M142.18 107.26c-.49 0-.91-.1-1.26-.31s-.61-.49-.78-.85-.27-.78-.27-1.26.09-.9.28-1.27c.18-.37.45-.66.79-.87s.76-.32 1.25-.32c.36 0 .67.06.95.19.27.13.5.3.68.53.18.22.32.47.41.76.09.28.13.58.13.89 0 .07-.01.14-.02.21 0 .07-.01.14-.03.22h-3.33c.02.21.07.4.17.58s.23.31.4.41.38.15.64.15c.15 0 .29-.02.43-.06s.26-.1.36-.18q.165-.12.21-.3h1.1c-.08.34-.22.62-.43.84s-.46.38-.75.48-.6.15-.92.15Zm-1.18-2.9h2.29c0-.2-.04-.38-.13-.54s-.22-.29-.38-.38-.36-.14-.6-.14q-.375 0-.63.15a1 1 0 0 0-.39.4q-.135.24-.15.51Z" fill="#ffffff" data-color="1"></path>
        <path d="M10.26 116.7v-4.74h1.01l.07.54c.12-.16.25-.29.39-.37.14-.09.29-.15.44-.18.15-.04.3-.05.44-.05.3 0 .56.06.77.18s.38.3.5.54c.12-.17.25-.3.4-.41.15-.1.31-.18.48-.23s.34-.08.53-.08c.37 0 .66.08.88.23s.38.36.49.63c.1.27.15.57.15.91v3.04h-1.1v-2.69c0-.12 0-.25-.02-.38s-.04-.25-.09-.37a.7.7 0 0 0-.22-.28c-.1-.07-.23-.11-.41-.11s-.32.04-.43.11-.2.17-.27.3c-.07.12-.12.26-.14.41-.03.15-.04.29-.04.44v2.57h-1.1v-2.7c0-.11 0-.24-.02-.36-.01-.13-.04-.25-.09-.37s-.12-.21-.22-.28a.7.7 0 0 0-.41-.11q-.375 0-.57.21c-.13.14-.22.31-.26.5s-.07.39-.07.57v2.55h-1.1Z" fill="#ffffff" data-color="1"></path>
        <path d="M18.81 116.76q-.33 0-.63-.09c-.3-.09-.38-.15-.53-.27s-.28-.26-.37-.44-.14-.39-.14-.63q0-.465.18-.75c.12-.2.28-.34.49-.45.21-.1.44-.17.71-.21.26-.04.54-.06.83-.06h.93c0-.21-.03-.39-.1-.54a.83.83 0 0 0-.31-.36c-.14-.09-.32-.13-.54-.13-.14 0-.28.02-.4.05a.9.9 0 0 0-.32.15.5.5 0 0 0-.18.27h-1.12c.04-.25.13-.46.26-.63.13-.18.29-.32.48-.44.19-.11.4-.2.62-.26q.345-.09.69-.09c.69 0 1.19.2 1.51.59.32.4.47.95.47 1.67v2.56h-.97l-.03-.61c-.14.2-.3.35-.5.45-.19.1-.38.16-.56.18-.18.03-.33.04-.46.04Zm.21-.89c.24 0 .45-.04.64-.13s.33-.22.45-.38c.11-.16.17-.35.17-.56v-.15h-.86c-.14 0-.29 0-.43.01-.14 0-.27.03-.38.07s-.21.1-.27.18-.1.19-.1.33.04.26.11.35.17.16.3.21.25.07.39.07Z" fill="#ffffff" data-color="1"></path>
        <path d="M21.82 116.7v-4.74h1.03l.06.6c.13-.17.27-.3.44-.4s.35-.17.53-.21c.19-.04.36-.07.52-.07.45 0 .81.1 1.07.3s.45.46.55.79c.11.33.16.7.16 1.11v2.62h-1.1v-2.44c0-.17-.01-.34-.04-.51-.02-.17-.07-.31-.14-.45-.07-.13-.17-.24-.29-.31s-.29-.12-.5-.12q-.39 0-.66.21c-.27.21-.32.32-.41.55s-.13.49-.13.79v2.28h-1.1Z" fill="#ffffff" data-color="1"></path>
        <path d="M28.75 116.7c-.38 0-.7-.05-.95-.15s-.43-.27-.56-.5c-.12-.23-.18-.53-.18-.92v-2.21h-.73v-.97h.73v-1.32h1.1v1.32h1.11v.97h-1.11v2.06c0 .24.04.42.13.55s.27.19.57.19h.38v.97h-.48Z" fill="#ffffff" data-color="1"></path>
        <path d="M31.58 116.76c-.49 0-.91-.1-1.26-.31s-.61-.49-.78-.85-.27-.78-.27-1.26.09-.9.28-1.27c.18-.37.45-.66.79-.87s.76-.32 1.25-.32c.36 0 .67.06.95.19.27.13.5.3.68.53.18.22.32.47.41.76.09.28.13.58.13.89 0 .07-.01.14-.02.21 0 .07-.01.14-.03.22h-3.33c.02.21.07.4.17.58s.23.31.4.41.38.15.64.15c.15 0 .29-.02.43-.06s.26-.1.36-.18q.165-.12.21-.3h1.1c-.08.34-.22.62-.43.84s-.46.38-.75.48-.6.15-.92.15Zm-1.19-2.9h2.29c0-.2-.04-.38-.13-.54s-.22-.29-.38-.38-.36-.14-.6-.14q-.375 0-.63.15a1 1 0 0 0-.39.4q-.135.24-.15.51Zm.62-2.51.94-1.45h1.17l-1.16 1.45z" fill="#ffffff" data-color="1"></path>
        <path d="M34.08 116.7v-4.74h1.01l.07.54c.12-.16.25-.29.39-.37.14-.09.29-.15.44-.18.15-.04.3-.05.44-.05.3 0 .56.06.77.18s.38.3.5.54c.12-.17.25-.3.4-.41.15-.1.31-.18.48-.23s.34-.08.53-.08c.37 0 .66.08.88.23s.38.36.49.63c.1.27.15.57.15.91v3.04h-1.1v-2.69c0-.12 0-.25-.02-.38s-.04-.25-.09-.37a.7.7 0 0 0-.22-.28c-.1-.07-.23-.11-.41-.11s-.32.04-.43.11-.2.17-.27.3c-.07.12-.12.26-.14.41-.03.15-.04.29-.04.44v2.57h-1.1v-2.7c0-.11 0-.24-.02-.36-.01-.13-.04-.25-.09-.37s-.12-.21-.22-.28a.7.7 0 0 0-.41-.11q-.375 0-.57.21c-.13.14-.22.31-.26.5s-.07.39-.07.57v2.55h-1.1Z" fill="#ffffff" data-color="1"></path>
        <path d="M45.24 116.76c-.49 0-.9-.1-1.26-.3-.35-.2-.62-.48-.81-.85s-.28-.79-.28-1.29.1-.93.29-1.29.46-.65.81-.85.76-.31 1.25-.31.89.1 1.24.31c.35.2.61.49.8.86s.28.8.28 1.3-.09.91-.28 1.27c-.18.36-.45.64-.8.84s-.77.3-1.25.3Zm-.01-1c.3 0 .54-.07.72-.2s.32-.31.4-.52c.08-.22.13-.45.13-.7s-.04-.49-.13-.71a1.2 1.2 0 0 0-.4-.54c-.18-.13-.42-.2-.72-.2s-.54.07-.73.2-.32.31-.41.53c-.08.22-.13.46-.13.72s.04.49.13.71.22.39.41.52c.18.13.42.19.72.19Z" fill="#ffffff" data-color="1"></path>
        <path d="M49.72 116.76c-.23 0-.45-.02-.68-.07q-.345-.075-.63-.24c-.2-.11-.36-.26-.5-.45s-.22-.43-.26-.72h1.11c.05.13.12.24.23.32s.23.14.37.18.28.06.42.06c.08 0 .17 0 .27-.02.1-.01.19-.04.28-.07s.16-.09.21-.16.08-.16.08-.28c0-.11-.03-.19-.09-.26a.7.7 0 0 0-.24-.15c-.1-.04-.22-.07-.37-.09-.26-.05-.53-.11-.83-.17a2.2 2.2 0 0 1-.76-.3.9.9 0 0 1-.23-.19c-.07-.07-.12-.15-.17-.24s-.08-.18-.1-.28q-.03-.15-.03-.33c0-.25.05-.47.16-.64.11-.18.25-.32.42-.43.18-.11.38-.19.61-.25.23-.05.46-.08.7-.08.32 0 .62.05.88.15s.48.26.66.47.28.48.32.8h-1.04q-.045-.225-.27-.36c-.225-.135-.35-.14-.58-.14-.08 0-.17 0-.26.02s-.17.04-.26.07a.43.43 0 0 0-.28.39c0 .09.02.17.07.23.04.07.11.12.21.17.09.04.2.08.33.11.2.04.42.08.64.13.22.04.41.08.58.13.19.05.37.13.52.23q.24.15.36.39c.12.24.13.36.13.61q0 .435-.18.72c-.12.19-.27.34-.46.45s-.4.19-.64.23c-.23.05-.46.07-.69.07Z" fill="#ffffff" data-color="1"></path>
        <path d="M53.92 118.44v-6.49h1.03l.05.64c.19-.25.41-.43.67-.54s.54-.17.85-.17c.47 0 .86.11 1.16.32s.53.51.68.87c.15.37.23.78.23 1.24s-.08.88-.23 1.25-.39.66-.71.87-.71.32-1.18.32c-.22 0-.42-.02-.61-.07-.18-.05-.35-.12-.49-.21a1.6 1.6 0 0 1-.36-.31v2.27h-1.1Zm2.38-2.67c.31 0 .55-.07.72-.2s.3-.31.38-.53.12-.45.12-.7-.04-.5-.12-.72q-.12-.33-.39-.54t-.72-.21c-.28 0-.51.07-.7.2-.19.14-.33.31-.43.54-.1.22-.14.46-.14.72s.04.51.13.72.23.39.42.52.44.19.73.19Z" fill="#ffffff" data-color="1"></path>
        <path d="M61.06 116.76c-.49 0-.91-.1-1.26-.31s-.61-.49-.78-.85-.27-.78-.27-1.26.09-.9.28-1.27c.18-.37.45-.66.79-.87s.76-.32 1.25-.32c.36 0 .67.06.95.19.27.13.5.3.68.53.18.22.32.47.41.76.09.28.13.58.13.89 0 .07-.01.14-.02.21 0 .07-.01.14-.03.22h-3.33c.02.21.07.4.17.58s.23.31.4.41.38.15.64.15c.15 0 .29-.02.43-.06s.26-.1.36-.18q.165-.12.21-.3h1.1c-.08.34-.22.62-.43.84s-.46.38-.75.48-.6.15-.92.15Zm-1.19-2.9h2.29c0-.2-.04-.38-.13-.54s-.22-.29-.38-.38-.36-.14-.6-.14q-.375 0-.63.15a1 1 0 0 0-.39.4q-.135.24-.15.51Z" fill="#ffffff" data-color="1"></path>
        <path d="M63.56 116.7v-6.36h1.1v6.36z" fill="#ffffff" data-color="1"></path>
        <path d="M67.35 116.76c-.49 0-.9-.1-1.26-.3-.35-.2-.62-.48-.81-.85s-.28-.79-.28-1.29.1-.93.29-1.29.46-.65.81-.85.76-.31 1.25-.31.89.1 1.24.31c.35.2.61.49.8.86s.28.8.28 1.3-.09.91-.28 1.27c-.18.36-.45.64-.8.84s-.77.3-1.25.3Zm-.01-1c.3 0 .54-.07.72-.2s.32-.31.4-.52c.08-.22.13-.45.13-.7s-.04-.49-.13-.71a1.2 1.2 0 0 0-.4-.54c-.18-.13-.42-.2-.72-.2s-.54.07-.73.2-.32.31-.41.53c-.08.22-.13.46-.13.72s.04.49.13.71.22.39.41.52c.18.13.42.19.72.19Z" fill="#ffffff" data-color="1"></path>
        <path d="M71.83 116.76c-.23 0-.45-.02-.68-.07q-.345-.075-.63-.24c-.2-.11-.36-.26-.5-.45s-.22-.43-.26-.72h1.11c.05.13.12.24.23.32s.23.14.37.18.28.06.42.06c.08 0 .17 0 .27-.02.1-.01.19-.04.28-.07s.16-.09.21-.16.08-.16.08-.28c0-.11-.03-.19-.09-.26a.7.7 0 0 0-.24-.15c-.1-.04-.22-.07-.37-.09-.26-.05-.53-.11-.83-.17a2.2 2.2 0 0 1-.76-.3.9.9 0 0 1-.23-.19c-.07-.07-.12-.15-.17-.24s-.08-.18-.1-.28q-.03-.15-.03-.33c0-.25.05-.47.16-.64.11-.18.25-.32.42-.43.18-.11.38-.19.61-.25.23-.05.46-.08.7-.08.32 0 .62.05.88.15s.48.26.66.47.28.48.32.8h-1.04q-.045-.225-.27-.36c-.225-.135-.35-.14-.58-.14-.08 0-.17 0-.26.02s-.17.04-.26.07a.43.43 0 0 0-.28.39c0 .09.02.17.07.23.04.07.11.12.21.17.09.04.2.08.33.11.2.04.42.08.64.13.22.04.41.08.58.13.19.05.37.13.52.23q.24.15.36.39c.12.24.13.36.13.61q0 .435-.18.72c-.12.19-.27.34-.46.45s-.4.19-.64.23c-.23.05-.46.07-.69.07Z" fill="#ffffff" data-color="1"></path>
        <path d="M76.04 116.7v-4.74h1.01l.07.54c.12-.16.25-.29.39-.37.14-.09.29-.15.44-.18.15-.04.3-.05.44-.05.3 0 .56.06.77.18s.38.3.5.54c.12-.17.25-.3.4-.41.15-.1.31-.18.48-.23s.34-.08.53-.08c.37 0 .66.08.88.23s.38.36.49.63c.1.27.15.57.15.91v3.04h-1.1v-2.69c0-.12 0-.25-.02-.38s-.04-.25-.09-.37a.7.7 0 0 0-.22-.28c-.1-.07-.23-.11-.41-.11s-.32.04-.43.11-.2.17-.27.3c-.07.12-.12.26-.14.41-.03.15-.04.29-.04.44v2.57h-1.1v-2.7c0-.11 0-.24-.02-.36-.01-.13-.04-.25-.09-.37s-.12-.21-.22-.28a.7.7 0 0 0-.41-.11q-.375 0-.57.21c-.13.14-.22.31-.26.5s-.07.39-.07.57v2.55h-1.1Z" fill="#ffffff" data-color="1"></path>
        <path d="M84.58 116.76q-.33 0-.63-.09c-.3-.09-.38-.15-.53-.27s-.28-.26-.37-.44-.14-.39-.14-.63q0-.465.18-.75c.12-.2.28-.34.49-.45.21-.1.44-.17.71-.21.26-.04.54-.06.83-.06h.93c0-.21-.03-.39-.1-.54a.83.83 0 0 0-.31-.36c-.14-.09-.32-.13-.54-.13-.14 0-.28.02-.4.05a.9.9 0 0 0-.32.15.5.5 0 0 0-.18.27h-1.12c.04-.25.13-.46.26-.63.13-.18.29-.32.48-.44.19-.11.4-.2.62-.26q.345-.09.69-.09c.69 0 1.19.2 1.51.59.32.4.47.95.47 1.67v2.56h-.97l-.03-.61c-.14.2-.3.35-.5.45-.19.1-.38.16-.56.18-.18.03-.33.04-.46.04Zm.21-.89c.24 0 .45-.04.64-.13s.33-.22.45-.38c.11-.16.17-.35.17-.56v-.15h-.86c-.14 0-.29 0-.43.01-.14 0-.27.03-.38.07s-.21.1-.27.18-.1.19-.1.33.04.26.11.35.17.16.3.21.25.07.39.07Z" fill="#ffffff" data-color="1"></path>
        <path d="M89.68 116.76c-.49 0-.91-.1-1.24-.3a1.9 1.9 0 0 1-.76-.85 3 3 0 0 1-.26-1.27c0-.48.09-.9.27-1.27s.44-.66.79-.87.77-.32 1.27-.32c.37 0 .69.06.98.19s.52.31.69.55c.18.24.29.54.34.9h-1.08a.86.86 0 0 0-.36-.5c-.17-.1-.36-.16-.59-.16-.31 0-.55.07-.72.22-.18.15-.3.33-.38.55q-.12.33-.12.69c0 .36.04.49.13.71.08.22.21.39.39.53.18.13.41.2.69.2.23 0 .43-.05.62-.15.18-.1.3-.27.36-.5h1.12c-.04.37-.16.67-.37.91-.2.24-.45.42-.76.54q-.465.18-.99.18Z" fill="#ffffff" data-color="1"></path>
        <path d="M92.63 111.4c-.21 0-.38-.06-.5-.19s-.19-.29-.19-.5.07-.36.2-.49.3-.19.5-.19.36.06.5.19.21.29.21.5-.07.37-.2.5-.3.19-.5.19Zm-.55 5.3v-4.74h1.1v4.74z" fill="#ffffff" data-color="1"></path>
        <path d="M95.87 116.76c-.49 0-.9-.1-1.26-.3-.35-.2-.62-.48-.81-.85s-.28-.79-.28-1.29.1-.93.29-1.29.46-.65.81-.85.76-.31 1.25-.31.89.1 1.24.31c.35.2.61.49.8.86s.28.8.28 1.3-.09.91-.28 1.27c-.18.36-.45.64-.8.84s-.77.3-1.25.3Zm-.01-1c.3 0 .54-.07.72-.2s.32-.31.4-.52c.08-.22.13-.45.13-.7s-.04-.49-.13-.71a1.2 1.2 0 0 0-.4-.54c-.18-.13-.42-.2-.72-.2s-.54.07-.73.2-.32.31-.41.53c-.08.22-.13.46-.13.72s.04.49.13.71.22.39.41.52c.18.13.42.19.72.19Z" fill="#ffffff" data-color="1"></path>
        <path d="M100.35 116.76c-.23 0-.45-.02-.68-.07q-.345-.075-.63-.24c-.2-.11-.36-.26-.5-.45s-.22-.43-.26-.72h1.11c.05.13.12.24.23.32s.23.14.37.18.28.06.42.06c.08 0 .17 0 .27-.02.1-.01.19-.04.28-.07s.16-.09.21-.16.08-.16.08-.28c0-.11-.03-.19-.09-.26a.7.7 0 0 0-.24-.15c-.1-.04-.22-.07-.37-.09-.26-.05-.53-.11-.83-.17a2.2 2.2 0 0 1-.76-.3.9.9 0 0 1-.23-.19c-.07-.07-.12-.15-.17-.24s-.08-.18-.1-.28q-.03-.15-.03-.33c0-.25.05-.47.16-.64.11-.18.25-.32.42-.43.18-.11.38-.19.61-.25.23-.05.46-.08.7-.08.32 0 .62.05.88.15s.48.26.66.47.28.48.32.8h-1.04q-.045-.225-.27-.36c-.225-.135-.35-.14-.58-.14-.08 0-.17 0-.26.02s-.17.04-.26.07a.43.43 0 0 0-.28.39c0 .09.02.17.07.23.04.07.11.12.21.17.09.04.2.08.33.11.2.04.42.08.64.13.22.04.41.08.58.13.19.05.37.13.52.23q.24.15.36.39c.12.24.13.36.13.61q0 .435-.18.72c-.12.19-.27.34-.46.45s-.4.19-.64.23c-.23.05-.46.07-.69.07Z" fill="#ffffff" data-color="1"></path>
        <path d="M106.68 116.76c-.49 0-.91-.1-1.26-.31s-.61-.49-.78-.85-.27-.78-.27-1.26.09-.9.28-1.27c.18-.37.45-.66.79-.87s.76-.32 1.25-.32c.36 0 .67.06.95.19.27.13.5.3.68.53.18.22.32.47.41.76.09.28.13.58.13.89 0 .07-.01.14-.02.21 0 .07-.01.14-.03.22h-3.33c.02.21.07.4.17.58s.23.31.4.41.38.15.64.15c.15 0 .29-.02.43-.06s.26-.1.36-.18q.165-.12.21-.3h1.1c-.08.34-.22.62-.43.84s-.46.38-.75.48-.6.15-.92.15Zm-1.19-2.9h2.29c0-.2-.04-.38-.13-.54s-.22-.29-.38-.38-.36-.14-.6-.14q-.375 0-.63.15a1 1 0 0 0-.39.4q-.135.24-.15.51Z" fill="#ffffff" data-color="1"></path>
        <path d="M113.69 116.76c-.17 0-.35-.02-.52-.05s-.34-.1-.5-.19-.3-.21-.44-.36l-.03.54h-1.06v-6.36h1.1v2.21c.17-.22.4-.39.67-.5s.56-.17.85-.17c.47 0 .85.11 1.16.32.3.21.53.5.67.87s.22.78.22 1.24-.08.88-.23 1.25-.39.66-.7.88-.71.32-1.2.32Zm-.18-.97q.465 0 .72-.21c.18-.14.3-.33.38-.55q.12-.345.12-.72c0-.375-.04-.5-.12-.71-.08-.22-.21-.39-.39-.52s-.42-.2-.72-.2c-.28 0-.51.07-.7.21s-.33.32-.43.55c-.1.22-.14.46-.14.7s.04.49.13.71.22.4.41.54.43.21.73.21Z" fill="#ffffff" data-color="1"></path>
        <path d="M116.16 116.7v-4.74h1l.06.62c.12-.18.26-.32.41-.42s.32-.17.49-.21q.27-.06.54-.06h.32v1.04h-.29c-.31 0-.58.06-.79.18-.22.12-.38.29-.49.51s-.16.5-.16.82v2.25h-1.1Z" fill="#ffffff" data-color="1"></path>
        <path d="M119.64 111.4c-.21 0-.38-.06-.5-.19s-.19-.29-.19-.5.07-.36.2-.49.3-.19.5-.19.36.06.5.19.21.29.21.5-.07.37-.2.5-.3.19-.5.19Zm-.55 5.3v-4.74h1.1v4.74z" fill="#ffffff" data-color="1"></path>
        <path d="M120.71 116.7v-6.36h1.1v6.36z" fill="#ffffff" data-color="1"></path>
        <path d="M122.33 116.7v-6.36h1.1v2.23c.13-.16.27-.29.44-.4.17-.1.34-.18.53-.22s.36-.07.53-.07c.45 0 .8.1 1.06.3s.44.46.54.79c.11.33.16.7.16 1.12v2.61h-1.1v-2.42c0-.16-.01-.33-.04-.5-.02-.17-.07-.32-.14-.46-.07-.13-.17-.24-.31-.33s-.31-.13-.54-.13c-.21 0-.39.04-.54.13q-.225.135-.36.36c-.09.15-.15.31-.19.49q-.06.27-.06.54v2.3h-1.1Z" fill="#ffffff" data-color="1"></path>
        <path d="M128.7 116.76q-.33 0-.63-.09c-.3-.09-.38-.15-.53-.27s-.28-.26-.37-.44-.14-.39-.14-.63q0-.465.18-.75c.12-.2.28-.34.49-.45.21-.1.44-.17.71-.21.26-.04.54-.06.83-.06h.93c0-.21-.03-.39-.1-.54a.83.83 0 0 0-.31-.36c-.14-.09-.32-.13-.54-.13-.14 0-.28.02-.4.05a.9.9 0 0 0-.32.15.5.5 0 0 0-.18.27h-1.12c.04-.25.13-.46.26-.63.13-.18.29-.32.48-.44.19-.11.4-.2.62-.26q.345-.09.69-.09c.69 0 1.19.2 1.51.59.32.4.47.95.47 1.67v2.56h-.97l-.03-.61c-.14.2-.3.35-.5.45-.19.1-.38.16-.56.18-.18.03-.33.04-.46.04Zm.22-.89c.24 0 .45-.04.64-.13s.33-.22.45-.38c.11-.16.17-.35.17-.56v-.15h-.86c-.14 0-.29 0-.43.01-.14 0-.27.03-.38.07s-.21.1-.27.18-.1.19-.1.33.04.26.11.35.17.16.3.21.25.07.39.07Z" fill="#ffffff" data-color="1"></path>
        <path d="M131.72 116.7v-4.74h1.03l.06.6c.13-.17.27-.3.44-.4s.35-.17.53-.21c.19-.04.36-.07.52-.07.45 0 .81.1 1.07.3s.45.46.55.79c.11.33.16.7.16 1.11v2.62h-1.1v-2.44c0-.17-.01-.34-.04-.51-.02-.17-.07-.31-.14-.45-.07-.13-.17-.24-.29-.31s-.29-.12-.5-.12q-.39 0-.66.21c-.27.21-.32.32-.41.55s-.13.49-.13.79v2.28h-1.1Z" fill="#ffffff" data-color="1"></path>
        <path d="M138.65 116.7c-.38 0-.7-.05-.95-.15s-.43-.27-.56-.5c-.12-.23-.18-.53-.18-.92v-2.21h-.73v-.97h.73v-1.32h1.1v1.32h1.11v.97h-1.11v2.06c0 .24.04.42.13.55s.27.19.57.19h.38v.97h-.48Z" fill="#ffffff" data-color="1"></path>
        <path d="M141.47 116.76c-.49 0-.91-.1-1.26-.31s-.61-.49-.78-.85-.27-.78-.27-1.26.09-.9.28-1.27c.18-.37.45-.66.79-.87s.76-.32 1.25-.32c.36 0 .67.06.95.19.27.13.5.3.68.53.18.22.32.47.41.76.09.28.13.58.13.89 0 .07-.01.14-.02.21 0 .07-.01.14-.03.22h-3.33c.02.21.07.4.17.58s.23.31.4.41.38.15.64.15c.15 0 .29-.02.43-.06s.26-.1.36-.18q.165-.12.21-.3h1.1c-.08.34-.22.62-.43.84s-.46.38-.75.48-.6.15-.92.15Zm-1.18-2.9h2.29c0-.2-.04-.38-.13-.54s-.22-.29-.38-.38-.36-.14-.6-.14q-.375 0-.63.15a1 1 0 0 0-.39.4q-.135.24-.15.51Z" fill="#ffffff" data-color="1"></path>
        <path d="M145.79 116.76c-.23 0-.45-.02-.68-.07q-.345-.075-.63-.24c-.2-.11-.36-.26-.5-.45s-.22-.43-.26-.72h1.11c.05.13.12.24.23.32s.23.14.37.18.28.06.42.06c.08 0 .17 0 .27-.02.1-.01.19-.04.28-.07s.16-.09.21-.16.08-.16.08-.28c0-.11-.03-.19-.09-.26a.7.7 0 0 0-.24-.15c-.1-.04-.22-.07-.37-.09-.26-.05-.53-.11-.83-.17a2.2 2.2 0 0 1-.76-.3.9.9 0 0 1-.23-.19c-.07-.07-.12-.15-.17-.24s-.08-.18-.1-.28q-.03-.15-.03-.33c0-.25.05-.47.16-.64.11-.18.25-.32.42-.43.18-.11.38-.19.61-.25.23-.05.46-.08.7-.08.32 0 .62.05.88.15s.48.26.66.47.28.48.32.8h-1.04q-.045-.225-.27-.36c-.225-.135-.35-.14-.58-.14-.08 0-.17 0-.26.02s-.17.04-.26.07a.43.43 0 0 0-.28.39c0 .09.02.17.07.23.04.07.11.12.21.17.09.04.2.08.33.11.2.04.42.08.64.13.22.04.41.08.58.13.19.05.37.13.52.23q.24.15.36.39c.12.24.13.36.13.61q0 .435-.18.72c-.12.19-.27.34-.46.45s-.4.19-.64.23c-.23.05-.46.07-.69.07Z" fill="#ffffff" data-color="1"></path>
        <path d="M148.73 116.8c-.19 0-.36-.06-.49-.19s-.2-.3-.2-.51a.686.686 0 0 1 .71-.71c.2 0 .35.07.49.19s.2.3.2.52-.07.39-.2.51-.3.19-.5.19Z" fill="#ffffff" data-color="1"></path>
    </g>
</svg>