<svg preserveAspectRatio="xMidYMid meet" data-bbox="23.11 5.485 112.09 123.775" viewBox="0 0 150 150" xmlns="http://www.w3.org/2000/svg" data-type="ugc" role="presentation" aria-hidden="true" aria-label="">
    <g>
        <path d="M90.16 22.46c-.12-.29-.27-.56-.44-.81.12-.06.23-.13.34-.21.27-.19.53-.4.77-.63.54-.54.63-1.24.22-1.65-.35-.35-.91-.33-1.4.01 0-.76-.43-1.3-1.02-1.3s-1.03.56-1.03 1.32c0 .24.02.59.08.94a4.1 4.1 0 0 0-1.44-.21c-3.42 0-6.49 3.37-6.49 7.08v2.11h-6.68c-2.75-5.49-4.05-6.41-5.13-6.07-1.79.56-1.4 5.63-.77 9.73.41 3.79 2.69 7.09 6.05 8.62l1.6 5.56c.08.29.35.49.66.49h5.42c.38 0 .68-.31.68-.68s-.31-.68-.68-.68h-2.09l-1.3-3.7c.5.06.96.11 1.24.12 1.59.06 3.13-.53 4.53-1.28a.74.74 0 0 0 .25-1.08.6.6 0 0 0-.78-.18c-1.2.66-2.57 1.2-4.04 1.17-.83-.02-2.49-.18-3.3-.35-1.6-.33-3-1.29-4.16-2.44a9.56 9.56 0 0 1-2.75-5.75c-.58-3.78-.65-7.52-.17-8.2.25.12 1.26.89 3.59 5.54-.1.88-.04 1.77.2 2.63.37 1.4 1.35 3.36 3.96 4.66.09.05.2.07.3.07a.687.687 0 0 0 .29-1.3c-3.28-1.63-3.5-4.4-3.44-5.51h7.16c.38 0 .68-.31.68-.68V27c0-2.98 2.45-5.71 5.13-5.71 1.16-.07 2.23.61 2.67 1.69.02.06.05.12.09.17l.34.49h-.55c-.55 0-1.31.09-1.78.52-.45.42-.72 1.01-.74 1.62l-.03.19c-.02.16.01.33.1.47a9.46 9.46 0 0 1 1.42 4.47c.16 2.49-.65 4.82-2.1 6.63-.19.24-.2.57-.02.82.26.36.8.39 1.08.04 2.78-3.46 3.29-8.42.9-12.47.06-.45.09-.58.28-.75.27-.15.58-.21.89-.18h.03c.38.01 1.66-.05 1.81-.05a.688.688 0 0 0 .54-1.07l-.97-1.44Zm-15.1 19.56.91.14 1.37 3.91h-1.37l-1.19-4.12c.09.02.18.05.27.07Z" stroke="#ffffff" stroke-miterlimit="10" stroke-width=".69" fill="#ffffff"></path>
        <path d="M92.72 54.73c-9.25 5.66-21.34 5.13-29.88-1.66-7.04-5.59-10.79-14.64-9.69-23.57s7.14-17.13 15.58-20.76 18.45-2.42 25.81 3.07c8.31 6.19 12.08 16.96 9.7 26.99-.17.73.96 1.05 1.13.31 2.21-9.3-.56-19.23-7.42-25.92-6.91-6.75-17.23-9.35-26.51-6.66s-16.4 10.08-18.78 19.31.34 19.28 7.09 26.04c8.85 8.87 22.92 10.37 33.57 3.86.64-.39.05-1.41-.59-1.01Z" fill="#ffffff"></path>
        <path d="M54.44 76.09V68.3h3.27c.61 0 1.14.09 1.61.26s.82.46 1.09.86c.26.4.4.95.4 1.64q0 .96-.42 1.59c-.28.42-.66.74-1.13.94-.48.21-1.02.31-1.62.31h-1.2v2.19h-1.99Zm1.99-3.96h1.2c.38 0 .68-.09.89-.27s.32-.44.32-.78c0-.3-.09-.53-.28-.69s-.5-.24-.94-.24h-1.19z" fill="#ffffff"></path>
        <path d="M61.58 76.09v-5.8h1.71l.13.55c.15-.21.31-.37.48-.46s.35-.15.53-.18q.27-.03.48-.03h.34c.1 0 .17 0 .2.02v1.88h-.37c-.27 0-.53.04-.76.1-.24.07-.43.2-.57.4-.14.19-.21.49-.21.87v2.64h-1.95Z" fill="#ffffff"></path>
        <path d="M68.87 76.18c-.57 0-1.09-.11-1.54-.34-.46-.23-.82-.56-1.09-1.01-.27-.44-.41-.98-.41-1.62s.14-1.2.41-1.66c.27-.45.64-.79 1.09-1.03.46-.23.96-.35 1.51-.35s1.07.12 1.52.36q.675.36 1.08 1.05c.27.45.4 1.01.4 1.66s-.13 1.17-.39 1.61-.61.77-1.06 1c-.45.22-.96.34-1.53.34Zm-.03-1.81q.42 0 .66-.18c.16-.12.28-.27.34-.45.07-.18.1-.36.1-.53s-.03-.36-.1-.55a1.15 1.15 0 0 0-.33-.48c-.16-.13-.38-.2-.67-.2s-.5.07-.67.2-.28.29-.35.48a1.58 1.58 0 0 0 0 1.1c.07.18.18.33.35.44.16.11.38.17.66.17Z" fill="#ffffff"></path>
        <path d="M75.46 76.09c-.51 0-.95-.05-1.31-.17-.36-.11-.64-.31-.84-.59-.19-.28-.29-.69-.29-1.23v-2.08h-.8v-1.74h.8v-1.44h1.95v1.44h1.07v1.74h-1.07v1.78c0 .14.02.26.07.37s.19.16.41.16h.52v1.75h-.51Z" fill="#ffffff"></path>
        <path d="M79.4 76.18q-.885 0-1.56-.36c-.675-.36-.79-.58-1.04-1.02-.24-.44-.37-.96-.37-1.57s.12-1.14.37-1.6.6-.82 1.04-1.07c.45-.26.97-.38 1.56-.38.43 0 .81.07 1.14.2q.51.195.87.57c.36.375.43.55.55.9s.19.75.19 1.19c0 .12 0 .24-.02.36 0 .11-.03.23-.06.36h-3.74c.02.14.06.27.14.4.08.12.19.22.32.3s.31.11.53.11c.18 0 .33-.02.46-.06s.23-.09.31-.16.13-.13.15-.2h1.9q-.15.72-.57 1.17c-.28.3-.61.53-.99.67q-.57.21-1.23.21Zm-1.01-3.7h1.96c0-.11-.03-.23-.09-.35s-.17-.22-.31-.3-.33-.12-.57-.12-.41.04-.56.12-.26.18-.32.3c-.07.12-.11.24-.11.35" fill="#ffffff"></path>
        <path d="m82.87 69.74 1.45-2.11h2.06l-1.88 2.11zm.12 6.35v-5.8h1.95v5.8z" fill="#ffffff"></path>
        <path d="M85.98 76.09v-5.8h1.79l.11.53c.18-.19.38-.33.59-.42s.41-.15.61-.18.37-.04.51-.04c.54 0 .97.12 1.28.37s.53.58.67.99c.13.41.2.86.2 1.35v3.2h-1.95v-3.04a1.6 1.6 0 0 0-.17-.73.75.75 0 0 0-.26-.27c-.11-.07-.25-.1-.43-.1q-.345 0-.57.15c-.225.15-.26.24-.33.41a1.5 1.5 0 0 0-.11.58v2.99h-1.95Z" fill="#ffffff"></path>
        <path d="M94.56 76.18c-.27 0-.53-.04-.77-.11a1.8 1.8 0 0 1-.64-.33c-.19-.15-.34-.33-.45-.55s-.17-.48-.17-.78c0-.44.09-.78.28-1.03s.44-.43.76-.55.68-.19 1.09-.23c.41-.03.83-.05 1.27-.05h.27a.7.7 0 0 0-.38-.63.9.9 0 0 0-.45-.1c-.12 0-.25.02-.36.05-.12.04-.21.09-.29.15s-.12.14-.14.23h-1.94a2.1 2.1 0 0 1 .96-1.57c.26-.17.54-.29.86-.37s.65-.12 1-.12c.85 0 1.49.24 1.93.71s.65 1.17.65 2.08v3.11h-1.79v-.76c-.19.29-.41.49-.64.6-.24.12-.46.19-.65.21-.2.02-.33.03-.4.03Zm.53-1.49c.18 0 .36-.05.53-.14s.31-.21.43-.35c.11-.14.17-.28.17-.42v-.04h-1.09c-.09 0-.17 0-.25.03-.08.02-.15.05-.21.08s-.11.08-.15.14-.05.13-.05.22c0 .1.03.19.08.26s.13.12.22.16c.1.04.2.06.32.06" fill="#ffffff"></path>
        <path d="M101.45 76.18c-.29 0-.58-.03-.87-.1s-.57-.18-.82-.33-.47-.36-.64-.63c-.18-.27-.29-.6-.35-1.01h1.97c.03.1.08.18.16.25s.17.13.29.17c.11.04.24.06.37.06.09 0 .17 0 .24-.02.07-.01.13-.04.18-.07q.075-.045.12-.12c.045-.075.04-.09.04-.14 0-.1-.04-.18-.12-.23s-.19-.08-.33-.11-.3-.06-.47-.09c-.27-.06-.56-.13-.87-.23-.31-.09-.57-.21-.79-.35a1.35 1.35 0 0 1-.47-.55 2 2 0 0 1-.11-.34c-.02-.12-.03-.24-.03-.37 0-.34.08-.62.23-.85s.34-.42.58-.56.5-.24.79-.3.57-.09.85-.09c.41 0 .79.07 1.15.2s.65.35.89.64q.36.435.45 1.17h-1.88a.44.44 0 0 0-.21-.31.96.96 0 0 0-.47-.11c-.07 0-.14 0-.2.02a.5.5 0 0 0-.28.15c-.03.04-.04.08-.04.12 0 .03 0 .06.03.1.02.04.05.07.11.1q.075.045.21.09.36.09.69.15c.21.04.43.09.65.13.24.04.48.12.71.23s.43.27.59.48.24.51.24.89-.08.69-.23.94-.36.45-.61.6-.53.25-.83.32-.6.1-.89.1Z" fill="#ffffff"></path>
        <path d="M47.15 87.18c-.29 0-.58-.03-.87-.1s-.57-.18-.82-.33-.47-.36-.64-.63c-.18-.27-.29-.6-.35-1.01h1.97c.03.09.08.18.16.25s.17.13.29.17c.11.04.24.06.37.06.09 0 .17 0 .24-.02s.13-.04.18-.07q.075-.045.12-.12c.045-.075.04-.09.04-.14 0-.1-.04-.18-.12-.23s-.19-.08-.33-.11-.3-.06-.47-.09c-.27-.06-.56-.13-.87-.23s-.57-.21-.79-.35a1.35 1.35 0 0 1-.47-.55 1.3 1.3 0 0 1-.1-.34c-.02-.12-.03-.24-.03-.37 0-.34.08-.62.23-.85s.34-.42.58-.56.5-.24.79-.3.57-.09.85-.09c.41 0 .79.07 1.15.2s.65.34.89.64q.36.435.45 1.17h-1.88c-.01-.13-.09-.23-.21-.31a.96.96 0 0 0-.47-.11c-.07 0-.14 0-.2.02-.06.01-.12.03-.17.05s-.08.05-.11.09-.04.08-.04.12c0 .03 0 .06.03.1.02.04.05.07.1.1q.075.045.21.09.36.09.69.15c.22.04.43.09.65.13.24.04.48.12.71.23s.43.27.59.48.24.51.24.89-.08.69-.23.94-.36.45-.61.6-.53.25-.83.32-.6.1-.89.1Z" fill="#ffffff"></path>
        <path d="M53.18 87.18q-.885 0-1.56-.36a2.53 2.53 0 0 1-1.03-1.02c-.25-.44-.37-.96-.37-1.57s.12-1.14.37-1.6.6-.82 1.04-1.07c.45-.26.97-.38 1.56-.38.42 0 .81.07 1.14.2s.63.32.87.57.43.55.56.9.19.75.19 1.19c0 .12 0 .24-.02.36s-.03.23-.06.36h-3.74c.01.14.06.27.14.4.08.12.19.22.32.3.14.07.32.11.53.11.18 0 .33-.02.46-.06s.23-.09.31-.16.13-.13.15-.2h1.9q-.15.72-.57 1.17c-.28.3-.61.53-.99.67q-.57.21-1.23.21Zm-1-3.7h1.96c0-.11-.03-.23-.09-.35s-.17-.22-.31-.3q-.21-.12-.57-.12c-.36 0-.41.04-.56.12s-.25.18-.32.3-.1.24-.1.35Z" fill="#ffffff"></path>
        <path d="M56.77 87.09V79.3h1.95v7.79z" fill="#ffffff"></path>
        <path d="M62.51 87.18q-.885 0-1.56-.36a2.53 2.53 0 0 1-1.03-1.02c-.25-.44-.37-.96-.37-1.57s.12-1.14.37-1.6.6-.82 1.04-1.07c.45-.26.97-.38 1.56-.38.42 0 .81.07 1.14.2s.63.32.87.57.43.55.56.9.19.75.19 1.19c0 .12 0 .24-.02.36s-.03.23-.06.36h-3.74c.01.14.06.27.14.4.08.12.19.22.32.3.14.07.32.11.53.11.18 0 .33-.02.46-.06s.23-.09.31-.16.13-.13.15-.2h1.9q-.15.72-.57 1.17c-.28.3-.61.53-.99.67q-.57.21-1.23.21Zm-1-3.7h1.96c0-.11-.03-.23-.09-.35s-.17-.22-.31-.3q-.21-.12-.57-.12c-.36 0-.41.04-.56.12s-.25.18-.32.3-.1.24-.1.35Z" fill="#ffffff"></path>
        <path d="M68.89 87.18c-.59 0-1.1-.12-1.53-.35s-.77-.57-1.01-1.02-.36-.98-.36-1.6.12-1.19.37-1.64.59-.8 1.03-1.03q.66-.36 1.53-.36c.52 0 .98.1 1.39.29s.72.47.96.83c.23.36.36.8.37 1.32h-1.87c-.04-.21-.14-.37-.29-.48s-.33-.17-.54-.17c-.26 0-.47.07-.62.2-.15.14-.25.3-.31.5s-.09.38-.09.56c0 .2.03.39.1.57s.17.33.32.45.34.18.58.18.43-.06.57-.17c.15-.11.24-.27.28-.47h1.94c-.01.53-.15.97-.41 1.33s-.59.62-1.01.81-.88.27-1.4.27Z" fill="#ffffff"></path>
        <path d="M73.44 80.9c-.35 0-.64-.1-.85-.31-.22-.21-.32-.48-.32-.82s.11-.63.34-.85.51-.33.85-.33.6.1.83.31.34.49.34.85-.11.62-.32.83c-.22.21-.5.31-.85.31Zm-.98 6.19v-5.8h1.95v5.8z" fill="#ffffff"></path>
        <path d="M78.28 87.18c-.57 0-1.09-.11-1.54-.34-.46-.23-.82-.56-1.09-1.01-.27-.44-.41-.99-.41-1.62s.14-1.2.41-1.66c.27-.45.64-.79 1.09-1.03.46-.24.96-.35 1.51-.35s1.07.12 1.53.36c.45.24.81.59 1.08 1.04s.4 1.01.4 1.66-.13 1.17-.38 1.61c-.26.44-.61.77-1.06 1s-.96.33-1.53.33Zm-.03-1.81q.42 0 .66-.18c.16-.12.28-.27.34-.45s.1-.36.1-.53-.03-.36-.1-.55-.18-.35-.34-.48-.38-.2-.67-.2-.5.07-.66.2c-.17.13-.28.29-.35.48-.06.19-.1.37-.1.55s.03.37.1.54.19.33.35.44.38.17.66.17Z" fill="#ffffff"></path>
        <path d="M82.06 87.09v-5.8h1.79l.11.53c.18-.19.38-.33.59-.42s.41-.15.61-.18.37-.04.51-.04c.54 0 .97.12 1.28.37s.53.58.67.99c.13.41.2.86.2 1.35v3.2h-1.95v-3.04a1.6 1.6 0 0 0-.17-.73.75.75 0 0 0-.26-.27c-.11-.07-.25-.1-.43-.1q-.345 0-.57.15c-.225.15-.26.24-.33.41s-.11.37-.11.58v2.99h-1.95Z" fill="#ffffff"></path>
        <path d="M90.64 87.18c-.27 0-.53-.04-.77-.11s-.46-.18-.64-.33c-.19-.15-.34-.33-.45-.55s-.17-.48-.17-.78c0-.44.09-.79.28-1.03.19-.25.44-.43.76-.55s.68-.19 1.09-.23c.41-.03.83-.05 1.27-.05h.27a.7.7 0 0 0-.38-.63 1 1 0 0 0-.45-.1c-.12 0-.25.02-.36.05s-.21.09-.29.15-.12.14-.14.23h-1.94a2.1 2.1 0 0 1 .96-1.57c.26-.17.54-.29.86-.37s.65-.12 1-.12c.85 0 1.49.24 1.93.71s.65 1.17.65 2.08v3.11h-1.79v-.76a1.75 1.75 0 0 1-1.29.82c-.2.02-.33.03-.4.03m.53-1.49c.18 0 .36-.05.53-.14s.31-.21.43-.35c.11-.14.17-.28.17-.42v-.04h-1.09c-.09 0-.17 0-.25.03-.08.02-.15.05-.21.08-.06.04-.11.08-.15.14s-.05.13-.05.22c0 .1.03.19.08.26s.13.12.22.16c.1.04.2.06.32.06" fill="#ffffff"></path>
        <path d="M97.58 87.18c-.59 0-1.09-.14-1.48-.41-.39-.28-.69-.64-.88-1.09a3.8 3.8 0 0 1-.29-1.5c0-.59.11-1.12.33-1.57s.54-.8.96-1.06.93-.38 1.53-.38q.3 0 .57.06c.18.04.35.1.5.18s.28.17.38.29v-2.4h1.95v7.79h-1.9v-.51c-.14.13-.3.24-.47.33s-.36.15-.55.2c-.2.04-.41.07-.64.07Zm.43-1.77c.29 0 .53-.06.7-.18s.3-.28.38-.46c.08-.19.12-.38.12-.58s-.04-.4-.12-.59a1 1 0 0 0-.38-.46q-.255-.18-.69-.18c-.435 0-.52.07-.69.2s-.29.29-.36.49c-.07.19-.11.39-.11.58 0 .15.02.29.06.43s.11.27.2.39q.135.165.36.27c.15.07.32.1.53.1Z" fill="#ffffff"></path>
        <path d="M104.01 87.18c-.27 0-.53-.04-.77-.11s-.46-.18-.64-.33c-.19-.15-.34-.33-.45-.55s-.17-.48-.17-.78c0-.44.09-.79.28-1.03.19-.25.44-.43.76-.55s.68-.19 1.09-.23c.41-.03.83-.05 1.27-.05h.27a.7.7 0 0 0-.38-.63 1 1 0 0 0-.45-.1c-.12 0-.25.02-.36.05s-.21.09-.29.15-.12.14-.14.23h-1.94a2.1 2.1 0 0 1 .96-1.57c.26-.17.54-.29.86-.37s.65-.12 1-.12c.85 0 1.49.24 1.93.71s.65 1.17.65 2.08v3.11h-1.79v-.76a1.75 1.75 0 0 1-1.29.82c-.2.02-.33.03-.4.03m.53-1.49c.18 0 .36-.05.53-.14s.31-.21.43-.35c.11-.14.17-.28.17-.42v-.04h-1.09c-.09 0-.17 0-.25.03-.08.02-.15.05-.21.08-.06.04-.11.08-.15.14s-.05.13-.05.22c0 .1.03.19.08.26s.13.12.22.16c.1.04.2.06.32.06" fill="#ffffff"></path>
        <path d="M110.89 87.18c-.29 0-.58-.03-.87-.1s-.57-.18-.82-.33-.47-.36-.64-.63c-.18-.27-.29-.6-.35-1.01h1.97c.03.09.08.18.16.25s.17.13.29.17c.11.04.24.06.37.06.09 0 .17 0 .24-.02.07-.01.13-.04.18-.07q.075-.045.12-.12c.045-.075.04-.09.04-.14 0-.1-.04-.18-.12-.23s-.19-.08-.33-.11-.3-.06-.47-.09c-.27-.06-.56-.13-.87-.23-.31-.09-.57-.21-.79-.35a1.35 1.35 0 0 1-.47-.55 2 2 0 0 1-.11-.34c-.02-.12-.03-.24-.03-.37 0-.34.08-.62.23-.85s.34-.42.58-.56.5-.24.79-.3.57-.09.85-.09c.41 0 .79.07 1.15.2s.65.34.89.64q.36.435.45 1.17h-1.88c-.02-.13-.09-.23-.21-.31s-.28-.11-.47-.11c-.07 0-.14 0-.2.02-.06.01-.12.03-.17.05s-.08.05-.11.09-.04.08-.04.12c0 .03 0 .06.03.1.02.04.05.07.11.1q.075.045.21.09.36.09.69.15c.21.04.43.09.65.13.24.04.48.12.71.23s.43.27.59.48.24.51.24.89-.08.69-.23.94-.36.45-.61.6-.53.25-.83.32-.6.1-.89.1Z" fill="#ffffff"></path>
        <path d="M23.11 100.66V94.3h2.39c.48 0 .9.07 1.25.22s.62.38.82.7c.19.32.29.74.29 1.25s-.11.9-.32 1.23c-.22.33-.51.58-.88.74s-.8.25-1.28.25h-1.14v1.97h-1.12Zm1.12-2.98h1.12c.41 0 .75-.1 1-.3s.38-.51.38-.94c0-.37-.1-.65-.31-.84s-.53-.28-.97-.28h-1.21v2.36Z" fill="#ffffff"></path>
        <path d="M28.74 100.66v-4.74h1l.06.62c.12-.18.26-.32.41-.42s.32-.17.49-.21q.27-.06.54-.06h.32v1.04h-.29c-.31 0-.58.06-.79.18-.22.12-.38.29-.49.51s-.16.5-.16.82v2.25h-1.1Z" fill="#ffffff"></path>
        <path d="M34.38 100.72c-.49 0-.9-.1-1.26-.3-.35-.2-.62-.48-.81-.85s-.28-.79-.28-1.29.1-.93.29-1.29.46-.65.81-.85.76-.31 1.25-.31.89.1 1.24.31c.35.2.61.49.8.86s.28.8.28 1.3-.09.91-.28 1.27c-.18.36-.45.64-.8.84s-.77.3-1.25.3Zm-.01-1c.3 0 .54-.07.72-.2s.32-.31.4-.52c.08-.22.13-.45.13-.7s-.04-.49-.13-.71a1.2 1.2 0 0 0-.4-.54c-.18-.13-.42-.2-.72-.2s-.54.07-.73.2-.32.31-.41.53c-.08.22-.13.46-.13.72s.04.49.13.71.22.39.41.52c.18.13.42.19.72.19Z" fill="#ffffff"></path>
        <path d="M39.66 100.66c-.38 0-.7-.05-.95-.15s-.43-.27-.56-.5c-.12-.23-.18-.53-.18-.92v-2.21h-.73v-.97h.73v-1.32h1.1v1.32h1.11v.97h-1.11v2.06c0 .24.04.42.13.55s.27.19.57.19h.38v.97h-.48Z" fill="#ffffff"></path>
        <path d="M43.02 100.72c-.49 0-.91-.1-1.26-.31s-.61-.49-.78-.85-.27-.78-.27-1.26.09-.9.28-1.27c.18-.37.45-.66.79-.87s.76-.32 1.25-.32c.36 0 .67.06.95.19.27.13.5.3.68.53.18.22.32.47.41.76.09.28.13.58.13.89 0 .07-.01.14-.02.21 0 .07-.01.14-.03.22h-3.33c.02.21.07.4.17.58s.23.31.4.41.38.15.64.15c.15 0 .29-.02.43-.06s.26-.1.36-.18q.165-.12.21-.3h1.1c-.08.34-.22.62-.43.84s-.46.38-.75.48-.6.15-.92.15Zm-1.19-2.9h2.29c0-.2-.04-.38-.13-.54s-.22-.29-.38-.38-.36-.14-.6-.14q-.375 0-.63.15a1 1 0 0 0-.39.4q-.135.24-.15.51Z" fill="#ffffff"></path>
        <path d="m46.04 95.31.94-1.45h1.17l-1.16 1.45zm.02 5.35v-4.74h1.1v4.74z" fill="#ffffff"></path>
        <path d="M48.22 100.66v-4.74h1.03l.06.6c.13-.17.27-.3.44-.4s.35-.17.53-.21c.19-.04.36-.07.52-.07.45 0 .81.1 1.07.3s.45.46.55.79c.11.33.16.7.16 1.11v2.62h-1.1v-2.44c0-.17-.01-.34-.04-.51-.02-.17-.07-.31-.14-.45-.07-.13-.17-.24-.29-.31s-.29-.12-.5-.12q-.39 0-.66.21c-.27.21-.32.32-.41.55s-.13.49-.13.79v2.28h-1.1Z" fill="#ffffff"></path>
        <path d="M55.14 100.72q-.33 0-.63-.09c-.3-.09-.38-.15-.53-.27s-.28-.26-.37-.44-.14-.39-.14-.63q0-.465.18-.75c.12-.2.28-.34.49-.45.21-.1.44-.17.71-.21.26-.04.54-.06.83-.06h.93c0-.21-.03-.39-.1-.54a.83.83 0 0 0-.31-.36c-.14-.09-.32-.13-.54-.13-.14 0-.28.02-.4.05a.9.9 0 0 0-.32.15.5.5 0 0 0-.18.27h-1.12c.04-.25.13-.46.26-.63.13-.18.29-.32.48-.44.19-.11.4-.2.62-.26q.345-.09.69-.09c.69 0 1.19.2 1.51.59.32.4.47.95.47 1.67v2.56h-.97l-.03-.61c-.14.2-.3.35-.5.45-.19.1-.38.16-.56.18-.18.03-.33.04-.46.04Zm.21-.89c.24 0 .45-.04.64-.13s.33-.22.45-.38c.11-.16.17-.35.17-.56v-.15h-.86c-.14 0-.29 0-.43.01-.14 0-.27.03-.38.07s-.21.1-.27.18-.1.19-.1.33.04.26.11.35.17.16.3.21.25.07.39.07Z" fill="#ffffff"></path>
        <path d="M60.51 100.72c-.23 0-.45-.02-.68-.07q-.345-.075-.63-.24c-.2-.11-.36-.26-.5-.45s-.22-.43-.26-.72h1.11c.05.13.12.24.23.32s.23.14.37.18.28.06.42.06c.08 0 .17 0 .27-.02.1-.01.19-.04.28-.07s.16-.09.21-.16.08-.16.08-.28c0-.11-.03-.19-.09-.26a.7.7 0 0 0-.24-.15c-.1-.04-.22-.07-.37-.09-.26-.05-.53-.11-.83-.17a2.2 2.2 0 0 1-.76-.3.9.9 0 0 1-.23-.19c-.07-.07-.12-.15-.17-.24s-.08-.18-.1-.28q-.03-.15-.03-.33c0-.25.05-.47.16-.64.11-.18.25-.32.42-.43.18-.11.38-.19.61-.25.23-.05.46-.08.7-.08.32 0 .62.05.88.15s.48.26.66.47.28.48.32.8H61.3q-.045-.225-.27-.36c-.225-.135-.35-.14-.58-.14-.08 0-.17 0-.26.02s-.17.04-.26.07a.43.43 0 0 0-.28.39c0 .09.02.17.07.23.04.07.11.12.21.17.09.04.2.08.33.11.2.04.42.08.64.13.22.04.41.08.58.13.19.05.37.13.52.23q.24.15.36.39c.12.24.13.36.13.61q0 .435-.18.72c-.12.19-.27.34-.46.45s-.4.19-.64.23c-.23.05-.46.07-.69.07Z" fill="#ffffff"></path>
        <path d="M67.88 100.72c-.49 0-.91-.1-1.24-.3a1.9 1.9 0 0 1-.76-.85 3 3 0 0 1-.26-1.27c0-.48.09-.9.27-1.27s.44-.66.79-.87.77-.32 1.27-.32c.37 0 .69.06.98.19s.52.31.69.55c.18.24.29.54.34.9h-1.08a.86.86 0 0 0-.36-.5c-.17-.1-.36-.16-.59-.16-.31 0-.55.07-.72.22-.18.15-.3.33-.38.55q-.12.33-.12.69c0 .36.04.49.13.71.08.22.21.39.39.53.18.13.41.2.69.2.23 0 .43-.05.62-.15.18-.1.3-.27.36-.5h1.12c-.04.37-.16.67-.37.91-.2.24-.45.42-.76.54q-.465.18-.99.18Z" fill="#ffffff"></path>
        <path d="M72.92 100.72c-.68 0-1.21-.18-1.57-.53q-.54-.525-.54-1.62v-2.66h1.1v2.58c0 .25.03.47.1.66s.18.33.33.43.35.15.58.15c.25 0 .45-.05.6-.16.15-.1.25-.25.31-.44s.09-.4.09-.64v-2.58h1.1v2.66c0 .74-.18 1.29-.55 1.63-.37.35-.88.52-1.54.52Z" fill="#ffffff"></path>
        <path d="M76.61 95.36c-.21 0-.38-.06-.5-.19s-.19-.29-.19-.5.07-.36.2-.49.3-.19.5-.19.36.06.5.19.21.29.21.5-.07.37-.2.5-.3.19-.5.19Zm-.55 5.3v-4.74h1.1v4.74z" fill="#ffffff"></path>
        <path d="M80.16 100.72c-.48 0-.88-.11-1.19-.33s-.54-.51-.7-.88c-.15-.37-.23-.77-.23-1.22s.08-.89.24-1.26.41-.66.73-.87.73-.32 1.21-.32a2.2 2.2 0 0 1 1.02.24c.15.08.28.19.38.32v-2.11h1.1v6.36h-1.06l-.02-.59c-.11.15-.25.27-.4.37s-.32.17-.51.22-.38.07-.58.07Zm.2-.99c.29 0 .53-.07.71-.2q.285-.195.42-.54a1.9 1.9 0 0 0 0-1.43c-.09-.22-.23-.39-.42-.52s-.42-.2-.71-.2q-.465 0-.72.21c-.255.21-.31.32-.39.54a2.2 2.2 0 0 0-.05 1.26q.075.255.21.45c.1.13.22.24.38.31.16.08.35.11.58.11Z" fill="#ffffff"></path>
        <path d="M85.29 100.72q-.33 0-.63-.09c-.3-.09-.38-.15-.53-.27s-.28-.26-.37-.44-.14-.39-.14-.63q0-.465.18-.75c.12-.2.28-.34.49-.45.21-.1.44-.17.71-.21.26-.04.54-.06.83-.06h.93c0-.21-.03-.39-.1-.54a.83.83 0 0 0-.31-.36c-.14-.09-.32-.13-.54-.13-.14 0-.28.02-.4.05a.9.9 0 0 0-.32.15.5.5 0 0 0-.18.27h-1.12c.04-.25.13-.46.26-.63.13-.18.29-.32.48-.44.19-.11.4-.2.62-.26q.345-.09.69-.09c.69 0 1.19.2 1.51.59.32.4.47.95.47 1.67v2.56h-.97l-.03-.61c-.14.2-.3.35-.5.45-.19.1-.38.16-.56.18-.18.03-.33.04-.46.04Zm.22-.89c.24 0 .45-.04.64-.13s.33-.22.45-.38c.11-.16.17-.35.17-.56v-.15h-.86c-.14 0-.29 0-.43.01-.14 0-.27.03-.38.07s-.21.1-.27.18-.1.19-.1.33.04.26.11.35.17.16.3.21.25.07.39.07Z" fill="#ffffff"></path>
        <path d="M90.78 100.72c-.48 0-.88-.11-1.19-.33s-.54-.51-.7-.88c-.15-.37-.23-.77-.23-1.22s.08-.89.24-1.26.41-.66.73-.87.73-.32 1.21-.32a2.2 2.2 0 0 1 1.02.24c.15.08.28.19.38.32v-2.11h1.1v6.36h-1.06l-.02-.59c-.11.15-.25.27-.4.37s-.32.17-.51.22-.38.07-.58.07Zm.21-.99c.29 0 .53-.07.71-.2q.285-.195.42-.54a1.9 1.9 0 0 0 0-1.43c-.09-.22-.23-.39-.42-.52s-.42-.2-.71-.2q-.465 0-.72.21c-.255.21-.31.32-.39.54a2.2 2.2 0 0 0-.05 1.26q.075.255.21.45c.1.13.22.24.38.31.16.08.35.11.58.11Z" fill="#ffffff"></path>
        <path d="M96.58 100.72c-.49 0-.9-.1-1.26-.3-.35-.2-.62-.48-.81-.85s-.28-.79-.28-1.29.1-.93.29-1.29.46-.65.81-.85.76-.31 1.25-.31.89.1 1.24.31c.35.2.61.49.8.86s.28.8.28 1.3-.09.91-.28 1.27c-.18.36-.45.64-.8.84s-.77.3-1.25.3Zm-.01-1c.3 0 .54-.07.72-.2s.32-.31.4-.52c.08-.22.13-.45.13-.7s-.04-.49-.13-.71a1.2 1.2 0 0 0-.4-.54c-.18-.13-.42-.2-.72-.2s-.54.07-.73.2-.32.31-.41.53c-.08.22-.13.46-.13.72s.04.49.13.71.22.39.41.52c.18.13.42.19.72.19Z" fill="#ffffff"></path>
        <path d="M101.6 100.72c-.23 0-.45-.02-.68-.07q-.345-.075-.63-.24c-.2-.11-.36-.26-.5-.45s-.22-.43-.26-.72h1.11c.05.13.12.24.23.32s.23.14.37.18.28.06.42.06c.08 0 .17 0 .27-.02.1-.01.19-.04.28-.07s.16-.09.21-.16.08-.16.08-.28c0-.11-.03-.19-.09-.26a.7.7 0 0 0-.24-.15c-.1-.04-.22-.07-.37-.09-.26-.05-.53-.11-.83-.17a2.2 2.2 0 0 1-.76-.3.9.9 0 0 1-.23-.19c-.07-.07-.12-.15-.17-.24s-.08-.18-.1-.28q-.03-.15-.03-.33c0-.25.05-.47.16-.64.11-.18.25-.32.42-.43.18-.11.38-.19.61-.25.23-.05.46-.08.7-.08.32 0 .62.05.88.15s.48.26.66.47.28.48.32.8h-1.04q-.045-.225-.27-.36c-.225-.135-.35-.14-.58-.14-.08 0-.17 0-.26.02s-.17.04-.26.07a.43.43 0 0 0-.28.39c0 .09.02.17.07.23.04.07.11.12.21.17.09.04.2.08.33.11.2.04.42.08.64.13.22.04.41.08.58.13.19.05.37.13.52.23q.24.15.36.39c.12.24.13.36.13.61q0 .435-.18.72c-.12.19-.27.34-.46.45s-.4.19-.64.23c-.23.05-.46.07-.69.07Z" fill="#ffffff"></path>
        <path d="M105.89 100.72q-.33 0-.63-.09c-.3-.09-.38-.15-.53-.27s-.28-.26-.37-.44-.14-.39-.14-.63q0-.465.18-.75c.12-.2.28-.34.49-.45.21-.1.44-.17.71-.21.26-.04.54-.06.83-.06h.93c0-.21-.03-.39-.1-.54a.83.83 0 0 0-.31-.36c-.14-.09-.32-.13-.54-.13-.14 0-.28.02-.4.05a.9.9 0 0 0-.32.15.5.5 0 0 0-.18.27h-1.12c.04-.25.13-.46.26-.63.13-.18.29-.32.48-.44.19-.11.4-.2.62-.26q.345-.09.69-.09c.69 0 1.19.2 1.51.59.32.4.47.95.47 1.67v2.56h-.97l-.03-.61c-.14.2-.3.35-.5.45-.19.1-.38.16-.56.18-.18.03-.33.04-.46.04Zm.22-.89c.24 0 .45-.04.64-.13s.33-.22.45-.38c.11-.16.17-.35.17-.56v-.15h-.86c-.14 0-.29 0-.43.01-.14 0-.27.03-.38.07s-.21.1-.27.18-.1.19-.1.33.04.26.11.35.17.16.3.21.25.07.39.07Z" fill="#ffffff"></path>
        <path d="M109.45 100.66v-4.74h1.01l.07.54c.12-.16.25-.29.39-.37.14-.09.29-.15.44-.18.15-.04.3-.05.44-.05.3 0 .56.06.77.18s.38.3.5.54c.12-.17.25-.3.4-.41.15-.1.31-.18.48-.23s.34-.08.53-.08c.37 0 .66.08.88.23s.38.36.49.63c.1.27.15.57.15.91v3.04h-1.1v-2.69c0-.12 0-.25-.02-.38s-.04-.25-.09-.37a.7.7 0 0 0-.22-.28c-.1-.07-.23-.11-.41-.11s-.32.04-.43.11-.2.17-.27.3c-.07.12-.12.26-.14.41-.03.15-.04.29-.04.44v2.57h-1.1v-2.7c0-.11 0-.24-.02-.36-.01-.13-.04-.25-.09-.37s-.12-.21-.22-.28a.7.7 0 0 0-.41-.11q-.375 0-.57.21c-.13.14-.22.31-.26.5s-.07.39-.07.57v2.55h-1.1Z" fill="#ffffff"></path>
        <path d="M119.14 100.72c-.49 0-.91-.1-1.26-.31s-.61-.49-.78-.85-.27-.78-.27-1.26.09-.9.28-1.27c.18-.37.45-.66.79-.87s.76-.32 1.25-.32c.36 0 .67.06.95.19.27.13.5.3.68.53.18.22.32.47.41.76.09.28.13.58.13.89 0 .07-.01.14-.02.21 0 .07-.01.14-.03.22h-3.33c.02.21.07.4.17.58s.23.31.4.41.38.15.64.15c.15 0 .29-.02.43-.06s.26-.1.36-.18q.165-.12.21-.3h1.1c-.08.34-.22.62-.43.84s-.46.38-.75.48-.6.15-.92.15Zm-1.19-2.9h2.29c0-.2-.04-.38-.13-.54s-.22-.29-.38-.38-.36-.14-.6-.14q-.375 0-.63.15a1 1 0 0 0-.39.4q-.135.24-.15.51Z" fill="#ffffff"></path>
        <path d="M122.18 100.66v-4.74h1.03l.06.6c.13-.17.27-.3.44-.4s.35-.17.53-.21c.19-.04.36-.07.52-.07.45 0 .81.1 1.07.3s.45.46.55.79c.11.33.16.7.16 1.11v2.62h-1.1v-2.44c0-.17-.01-.34-.04-.51-.02-.17-.07-.31-.14-.45-.07-.13-.17-.24-.29-.31s-.29-.12-.5-.12q-.39 0-.66.21c-.27.21-.32.32-.41.55s-.13.49-.13.79v2.28h-1.1Z" fill="#ffffff"></path>
        <path d="M129.65 100.66c-.38 0-.7-.05-.95-.15s-.43-.27-.56-.5c-.12-.23-.18-.53-.18-.92v-2.21h-.73v-.97h.73v-1.32h1.1v1.32h1.11v.97h-1.11v2.06c0 .24.04.42.13.55s.27.19.57.19h.38v.97h-.48Z" fill="#ffffff"></path>
        <path d="M133.02 100.72c-.49 0-.91-.1-1.26-.31s-.61-.49-.78-.85-.27-.78-.27-1.26.09-.9.28-1.27c.18-.37.45-.66.79-.87s.76-.32 1.25-.32c.36 0 .67.06.95.19.27.13.5.3.68.53.18.22.32.47.41.76.09.28.13.58.13.89 0 .07-.01.14-.02.21 0 .07-.01.14-.03.22h-3.33c.02.21.07.4.17.58s.23.31.4.41.38.15.64.15c.15 0 .29-.02.43-.06s.26-.1.36-.18q.165-.12.21-.3h1.1c-.08.34-.22.62-.43.84s-.46.38-.75.48-.6.15-.92.15Zm-1.19-2.9h2.29c0-.2-.04-.38-.13-.54s-.22-.29-.38-.38-.36-.14-.6-.14q-.375 0-.63.15a1 1 0 0 0-.39.4q-.135.24-.15.51Z" fill="#ffffff"></path>
        <path d="M26.71 110.22c-.23 0-.45-.02-.68-.07q-.345-.075-.63-.24c-.2-.11-.36-.26-.5-.45s-.22-.43-.26-.72h1.11c.05.13.12.24.23.32s.23.14.37.18.28.06.42.06c.08 0 .17 0 .27-.02.1-.01.19-.04.28-.07s.16-.09.21-.16.08-.16.08-.28c0-.11-.03-.19-.09-.26a.7.7 0 0 0-.24-.15c-.1-.04-.22-.07-.37-.09-.26-.05-.53-.11-.83-.17a2.2 2.2 0 0 1-.76-.3.9.9 0 0 1-.23-.19c-.07-.07-.12-.15-.17-.24s-.08-.18-.1-.28q-.03-.15-.03-.33c0-.25.05-.47.16-.64.11-.18.25-.32.42-.43.18-.11.38-.19.61-.25.23-.05.46-.08.7-.08.32 0 .62.05.88.15s.48.26.66.47.28.48.32.8H27.5q-.045-.225-.27-.36c-.225-.135-.35-.14-.58-.14-.08 0-.17 0-.26.02s-.17.04-.26.07a.43.43 0 0 0-.28.39c0 .09.02.17.07.23.04.07.11.12.21.17.09.04.2.08.33.11.2.04.42.08.64.13.22.04.41.08.58.13.19.05.37.13.52.23q.24.15.36.39c.12.24.13.36.13.61q0 .435-.18.72c-.12.19-.27.34-.46.45s-.4.19-.64.23c-.23.05-.46.07-.69.07Z" fill="#ffffff"></path>
        <path d="M31.61 110.22c-.49 0-.91-.1-1.26-.31s-.61-.49-.78-.85-.27-.78-.27-1.26.09-.9.28-1.27c.18-.37.45-.66.79-.87s.76-.32 1.25-.32c.36 0 .67.06.95.19.27.13.5.3.68.53.18.22.32.47.41.76.09.28.13.58.13.89 0 .07-.01.14-.02.21 0 .07-.01.14-.03.22h-3.33c.02.21.07.4.17.58s.23.31.4.41.38.15.64.15c.15 0 .29-.02.43-.06s.26-.1.36-.18q.165-.12.21-.3h1.1c-.08.34-.22.62-.43.84s-.46.38-.75.48-.6.15-.92.15Zm-1.19-2.9h2.29c0-.2-.04-.38-.13-.54s-.22-.29-.38-.38-.36-.14-.6-.14q-.375 0-.63.15a1 1 0 0 0-.39.4q-.135.24-.15.51Z" fill="#ffffff"></path>
        <path d="M34.65 110.16v-6.36h1.1v6.36z" fill="#ffffff"></path>
        <path d="M38.94 110.22c-.49 0-.91-.1-1.26-.31s-.61-.49-.78-.85-.27-.78-.27-1.26.09-.9.28-1.27c.18-.37.45-.66.79-.87s.76-.32 1.25-.32c.36 0 .67.06.95.19.27.13.5.3.68.53.18.22.32.47.41.76.09.28.13.58.13.89 0 .07-.01.14-.02.21 0 .07-.01.14-.03.22h-3.33c.02.21.07.4.17.58s.23.31.4.41.38.15.64.15c.15 0 .29-.02.43-.06s.26-.1.36-.18q.165-.12.21-.3h1.1c-.08.34-.22.62-.43.84s-.46.38-.75.48-.6.15-.92.15Zm-1.19-2.9h2.29c0-.2-.04-.38-.13-.54s-.22-.29-.38-.38-.36-.14-.6-.14q-.375 0-.63.15a1 1 0 0 0-.39.4q-.135.24-.15.51Z" fill="#ffffff"></path>
        <path d="M44.16 110.22c-.49 0-.91-.1-1.24-.3a1.9 1.9 0 0 1-.76-.85 3 3 0 0 1-.26-1.27c0-.48.09-.9.27-1.27s.44-.66.79-.87.77-.32 1.27-.32c.37 0 .69.06.98.19s.52.31.69.55c.18.24.29.54.34.9h-1.08a.86.86 0 0 0-.36-.5c-.17-.1-.36-.16-.59-.16-.31 0-.55.07-.72.22-.18.15-.3.33-.38.55q-.12.33-.12.69c0 .36.04.49.13.71.08.22.21.39.39.53.18.13.41.2.69.2.23 0 .43-.05.62-.15.18-.1.3-.27.36-.5h1.12c-.04.37-.16.67-.37.91-.2.24-.45.42-.76.54q-.465.18-.99.18Z" fill="#ffffff"></path>
        <path d="M47.65 104.86c-.21 0-.38-.06-.5-.19s-.19-.29-.19-.5.07-.36.2-.49.3-.19.5-.19.36.06.5.19.21.29.21.5-.07.37-.2.5-.3.19-.5.19Zm-.55 5.3v-4.74h1.1v4.74z" fill="#ffffff"></path>
        <path d="M51.43 110.22c-.49 0-.9-.1-1.26-.3-.35-.2-.62-.48-.81-.85s-.28-.79-.28-1.29.1-.93.29-1.29.46-.65.81-.85.76-.31 1.25-.31.89.1 1.24.31c.35.2.61.49.8.86s.28.8.28 1.3-.09.91-.28 1.27c-.18.36-.45.64-.8.84s-.77.3-1.25.3Zm-.01-1c.3 0 .54-.07.72-.2s.32-.31.4-.52c.08-.22.13-.45.13-.7s-.04-.49-.13-.71a1.2 1.2 0 0 0-.4-.54c-.18-.13-.42-.2-.72-.2s-.54.07-.73.2-.32.31-.41.53c-.08.22-.13.46-.13.72s.04.49.13.71.22.39.41.52c.18.13.42.19.72.19Z" fill="#ffffff"></path>
        <path d="M54.63 110.16v-4.74h1.03l.06.6c.13-.17.27-.3.44-.4s.35-.17.53-.21c.19-.04.36-.07.52-.07.45 0 .81.1 1.07.3s.45.46.55.79c.11.33.16.7.16 1.11v2.62h-1.1v-2.44c0-.17-.01-.34-.04-.51-.02-.17-.07-.31-.14-.45-.07-.13-.17-.24-.29-.31s-.29-.12-.5-.12q-.39 0-.66.21c-.27.21-.32.32-.41.55s-.13.49-.13.79v2.28h-1.1Z" fill="#ffffff"></path>
        <path d="M61.54 110.22q-.33 0-.63-.09c-.3-.09-.38-.15-.53-.27s-.28-.26-.37-.44-.14-.39-.14-.63q0-.465.18-.75c.12-.2.28-.34.49-.45.21-.1.44-.17.71-.21.26-.04.54-.06.83-.06h.93c0-.21-.03-.39-.1-.54a.83.83 0 0 0-.31-.36c-.14-.09-.32-.13-.54-.13-.14 0-.28.02-.4.05a.9.9 0 0 0-.32.15.5.5 0 0 0-.18.27h-1.12c.04-.25.13-.46.26-.63.13-.18.29-.32.48-.44.19-.11.4-.2.62-.26q.345-.09.69-.09c.69 0 1.19.2 1.51.59.32.4.47.95.47 1.67v2.56h-.97l-.03-.61c-.14.2-.3.35-.5.45-.19.1-.38.16-.56.18-.18.03-.33.04-.46.04Zm.22-.89c.24 0 .45-.04.64-.13s.33-.22.45-.38c.11-.16.17-.35.17-.56v-.15h-.86c-.14 0-.29 0-.43.01-.14 0-.27.03-.38.07s-.21.1-.27.18-.1.19-.1.33.04.26.11.35.17.16.3.21.25.07.39.07Z" fill="#ffffff"></path>
        <path d="M67.04 110.22c-.48 0-.88-.11-1.19-.33s-.54-.51-.7-.88c-.15-.37-.23-.77-.23-1.22s.08-.89.24-1.26.41-.66.73-.87.73-.32 1.21-.32a2.2 2.2 0 0 1 1.02.24c.15.08.28.19.38.32v-2.11h1.1v6.36h-1.06l-.02-.59c-.11.15-.25.27-.4.37s-.32.17-.51.22-.38.07-.58.07Zm.2-.99c.29 0 .53-.07.71-.2q.285-.195.42-.54a1.9 1.9 0 0 0 0-1.43c-.09-.22-.23-.39-.42-.52s-.42-.2-.71-.2q-.465 0-.72.21c-.255.21-.31.32-.39.54a2.2 2.2 0 0 0-.05 1.26q.075.255.21.45c.1.13.22.24.38.31.16.08.35.11.58.11Z" fill="#ffffff"></path>
        <path d="M72.17 110.22q-.33 0-.63-.09c-.3-.09-.38-.15-.53-.27s-.28-.26-.37-.44-.14-.39-.14-.63q0-.465.18-.75c.12-.2.28-.34.49-.45.21-.1.44-.17.71-.21.26-.04.54-.06.83-.06h.93c0-.21-.03-.39-.1-.54a.83.83 0 0 0-.31-.36c-.14-.09-.32-.13-.54-.13-.14 0-.28.02-.4.05a.9.9 0 0 0-.32.15.5.5 0 0 0-.18.27h-1.12c.04-.25.13-.46.26-.63.13-.18.29-.32.48-.44.19-.11.4-.2.62-.26q.345-.09.69-.09c.69 0 1.19.2 1.51.59.32.4.47.95.47 1.67v2.56h-.97l-.03-.61c-.14.2-.3.35-.5.45-.19.1-.38.16-.56.18-.18.03-.33.04-.46.04Zm.22-.89c.24 0 .45-.04.64-.13s.33-.22.45-.38c.11-.16.17-.35.17-.56v-.15h-.86c-.14 0-.29 0-.43.01-.14 0-.27.03-.38.07s-.21.1-.27.18-.1.19-.1.33.04.26.11.35.17.16.3.21.25.07.39.07Z" fill="#ffffff"></path>
        <path d="M77.55 110.22c-.23 0-.45-.02-.68-.07q-.345-.075-.63-.24c-.2-.11-.36-.26-.5-.45s-.22-.43-.26-.72h1.11c.05.13.12.24.23.32s.23.14.37.18.28.06.42.06c.08 0 .17 0 .27-.02.1-.01.19-.04.28-.07s.16-.09.21-.16.08-.16.08-.28c0-.11-.03-.19-.09-.26a.7.7 0 0 0-.24-.15c-.1-.04-.22-.07-.37-.09-.26-.05-.53-.11-.83-.17a2.2 2.2 0 0 1-.76-.3.9.9 0 0 1-.23-.19c-.07-.07-.12-.15-.17-.24s-.08-.18-.1-.28q-.03-.15-.03-.33c0-.25.05-.47.16-.64.11-.18.25-.32.42-.43.18-.11.38-.19.61-.25.23-.05.46-.08.7-.08.32 0 .62.05.88.15s.48.26.66.47.28.48.32.8h-1.04q-.045-.225-.27-.36c-.225-.135-.35-.14-.58-.14-.08 0-.17 0-.26.02s-.17.04-.26.07a.43.43 0 0 0-.28.39c0 .09.02.17.07.23.04.07.11.12.21.17.09.04.2.08.33.11.2.04.42.08.64.13.22.04.41.08.58.13.19.05.37.13.52.23q.24.15.36.39c.12.24.13.36.13.61q0 .435-.18.72c-.12.19-.27.34-.46.45s-.4.19-.64.23c-.23.05-.46.07-.69.07Z" fill="#ffffff"></path>
        <path d="m80.64 111.44-.31-.48c.09-.05.18-.12.28-.2.1-.09.18-.18.27-.29.08-.11.14-.2.17-.28a.83.83 0 0 1-.45-.19c-.12-.11-.18-.27-.18-.47s.07-.38.22-.5c.14-.12.31-.18.49-.18.23 0 .41.09.54.26s.2.39.2.67c0 .25-.06.48-.17.71-.12.23-.27.43-.45.59-.18.17-.38.29-.58.36Z" fill="#ffffff"></path>
        <path d="M87.25 110.22c-.49 0-.9-.1-1.26-.3-.35-.2-.62-.48-.81-.85s-.28-.79-.28-1.29.1-.93.29-1.29.46-.65.81-.85.76-.31 1.25-.31.89.1 1.24.31c.35.2.61.49.8.86s.28.8.28 1.3-.09.91-.28 1.27c-.18.36-.45.64-.8.84s-.77.3-1.25.3Zm-.01-1c.3 0 .54-.07.72-.2s.32-.31.4-.52c.08-.22.13-.45.13-.7s-.04-.49-.13-.71a1.2 1.2 0 0 0-.4-.54c-.18-.13-.42-.2-.72-.2s-.54.07-.73.2-.32.31-.41.53c-.08.22-.13.46-.13.72s.04.49.13.71.22.39.41.52c.18.13.42.19.72.19Z" fill="#ffffff"></path>
        <path d="M90.79 110.16v-3.77h-.74v-.97h.74v-.45c0-.36.05-.66.16-.89s.28-.4.52-.51.54-.16.91-.16h.7v.97h-.58c-.16 0-.29.03-.38.08s-.15.13-.19.24-.06.23-.06.38v.33h1.21v.97h-1.21v3.77h-1.09Z" fill="#ffffff"></path>
        <path d="M95.8 110.22c-.49 0-.91-.1-1.26-.31s-.61-.49-.78-.85-.27-.78-.27-1.26.09-.9.28-1.27c.18-.37.45-.66.79-.87s.76-.32 1.25-.32c.36 0 .67.06.95.19.27.13.5.3.68.53.18.22.32.47.41.76.09.28.13.58.13.89 0 .07-.01.14-.02.21 0 .07-.01.14-.03.22H94.6c.02.21.07.4.17.58s.23.31.4.41.38.15.64.15c.15 0 .29-.02.43-.06s.26-.1.36-.18q.165-.12.21-.3h1.1c-.08.34-.22.62-.43.84s-.46.38-.75.48-.6.15-.92.15Zm-1.19-2.9h2.29c0-.2-.04-.38-.13-.54s-.22-.29-.38-.38-.36-.14-.6-.14q-.375 0-.63.15a1 1 0 0 0-.39.4q-.135.24-.15.51Z" fill="#ffffff"></path>
        <path d="M98.84 110.16v-4.74h1l.06.62c.12-.18.26-.32.41-.42s.32-.17.49-.21q.27-.06.54-.06h.32v1.04h-.29c-.31 0-.58.06-.79.18-.22.12-.38.29-.49.51s-.16.5-.16.82v2.25h-1.1Z" fill="#ffffff"></path>
        <path d="M104.44 110.22c-.49 0-.91-.1-1.26-.31s-.61-.49-.78-.85-.27-.78-.27-1.26.09-.9.28-1.27c.18-.37.45-.66.79-.87s.76-.32 1.25-.32c.36 0 .67.06.95.19.27.13.5.3.68.53.18.22.32.47.41.76.09.28.13.58.13.89 0 .07-.01.14-.02.21 0 .07-.01.14-.03.22h-3.33c.02.21.07.4.17.58s.23.31.4.41.38.15.64.15c.15 0 .29-.02.43-.06s.26-.1.36-.18q.165-.12.21-.3h1.1c-.08.34-.22.62-.43.84s-.46.38-.75.48-.6.15-.92.15Zm-1.19-2.9h2.29c0-.2-.04-.38-.13-.54s-.22-.29-.38-.38-.36-.14-.6-.14q-.375 0-.63.15a1 1 0 0 0-.39.4q-.135.24-.15.51Z" fill="#ffffff"></path>
        <path d="M109.66 110.22c-.49 0-.91-.1-1.24-.3a1.9 1.9 0 0 1-.76-.85 3 3 0 0 1-.26-1.27c0-.48.09-.9.27-1.27s.44-.66.79-.87.77-.32 1.27-.32c.37 0 .69.06.98.19s.52.31.69.55c.18.24.29.54.34.9h-1.08a.86.86 0 0 0-.36-.5c-.17-.1-.36-.16-.59-.16-.31 0-.55.07-.72.22-.18.15-.3.33-.38.55q-.12.33-.12.69c0 .36.04.49.13.71.08.22.21.39.39.53.18.13.41.2.69.2.23 0 .43-.05.62-.15.18-.1.3-.27.36-.5h1.12c-.04.37-.16.67-.37.91-.2.24-.45.42-.76.54q-.465.18-.99.18Z" fill="#ffffff"></path>
        <path d="M114.73 110.22c-.49 0-.91-.1-1.26-.31s-.61-.49-.78-.85-.27-.78-.27-1.26.09-.9.28-1.27c.18-.37.45-.66.79-.87s.76-.32 1.25-.32c.36 0 .67.06.95.19.27.13.5.3.68.53.18.22.32.47.41.76.09.28.13.58.13.89 0 .07-.01.14-.02.21 0 .07-.01.14-.03.22h-3.33c.02.21.07.4.17.58s.23.31.4.41.38.15.64.15c.15 0 .29-.02.43-.06s.26-.1.36-.18q.165-.12.21-.3h1.1c-.08.34-.22.62-.43.84s-.46.38-.75.48-.6.15-.92.15Zm-1.19-2.9h2.29c0-.2-.04-.38-.13-.54s-.22-.29-.38-.38-.36-.14-.6-.14q-.375 0-.63.15a1 1 0 0 0-.39.4q-.135.24-.15.51Z" fill="#ffffff"></path>
        <path d="M117.77 110.16v-4.74h1.03l.06.6c.13-.17.27-.3.44-.4s.35-.17.53-.21c.19-.04.36-.07.52-.07.45 0 .81.1 1.07.3s.45.46.55.79c.11.33.16.7.16 1.11v2.62h-1.1v-2.44c0-.17-.01-.34-.04-.51-.02-.17-.07-.31-.14-.45-.07-.13-.17-.24-.29-.31s-.29-.12-.5-.12q-.39 0-.66.21c-.27.21-.32.32-.41.55s-.13.49-.13.79v2.28h-1.1Z" fill="#ffffff"></path>
        <path d="M125.1 110.22c-.48 0-.88-.11-1.19-.33s-.54-.51-.7-.88c-.15-.37-.23-.77-.23-1.22s.08-.89.24-1.26.41-.66.73-.87.73-.32 1.21-.32a2.2 2.2 0 0 1 1.02.24c.15.08.28.19.38.32v-2.11h1.1v6.36h-1.06l-.02-.59c-.11.15-.25.27-.4.37s-.32.17-.51.22-.38.07-.58.07Zm.21-.99c.29 0 .53-.07.71-.2q.285-.195.42-.54a1.9 1.9 0 0 0 0-1.43c-.09-.22-.23-.39-.42-.52s-.42-.2-.71-.2q-.465 0-.72.21c-.255.21-.31.32-.39.54a2.2 2.2 0 0 0-.05 1.26q.075.255.21.45c.1.13.22.24.38.31.16.08.35.11.58.11Z" fill="#ffffff"></path>
        <path d="M130.9 110.22c-.49 0-.9-.1-1.26-.3-.35-.2-.62-.48-.81-.85s-.28-.79-.28-1.29.1-.93.29-1.29.46-.65.81-.85.76-.31 1.25-.31.89.1 1.24.31c.35.2.61.49.8.86s.28.8.28 1.3-.09.91-.28 1.27c-.18.36-.45.64-.8.84s-.77.3-1.25.3Zm-.01-1c.3 0 .54-.07.72-.2s.32-.31.4-.52c.08-.22.13-.45.13-.7s-.04-.49-.13-.71a1.2 1.2 0 0 0-.4-.54c-.18-.13-.42-.2-.72-.2s-.54.07-.73.2-.32.31-.41.53c-.08.22-.13.46-.13.72s.04.49.13.71.22.39.41.52c.18.13.42.19.72.19Z" fill="#ffffff"></path>
        <path d="M29.4 119.72c-.68 0-1.21-.18-1.57-.53q-.54-.525-.54-1.62v-2.66h1.1v2.58c0 .25.03.47.1.66s.18.33.33.43.35.15.58.15c.25 0 .45-.05.6-.16.15-.1.25-.25.31-.44s.09-.4.09-.64v-2.58h1.1v2.66c0 .74-.18 1.29-.55 1.63-.37.35-.88.52-1.54.52Z" fill="#ffffff"></path>
        <path d="M32.54 119.66v-4.74h1.01l.07.54c.12-.16.25-.29.39-.37.14-.09.29-.15.44-.18.15-.04.3-.05.44-.05.3 0 .56.06.77.18s.38.3.5.54c.12-.17.25-.3.4-.41.15-.1.31-.18.48-.23s.34-.08.53-.08c.37 0 .66.08.88.23s.38.36.49.63c.1.27.15.57.15.91v3.04h-1.1v-2.69c0-.12 0-.25-.02-.38s-.04-.25-.09-.37a.7.7 0 0 0-.22-.28c-.1-.07-.23-.11-.41-.11s-.32.04-.43.11-.2.17-.27.3c-.07.12-.12.26-.14.41-.03.15-.04.29-.04.44v2.57h-1.1v-2.7c0-.11 0-.24-.02-.36-.01-.13-.04-.25-.09-.37s-.12-.21-.22-.28a.7.7 0 0 0-.41-.11q-.375 0-.57.21c-.13.14-.22.31-.26.5s-.07.39-.07.57v2.55h-1.1Z" fill="#ffffff"></path>
        <path d="M41.62 119.72q-.33 0-.63-.09c-.3-.09-.38-.15-.53-.27s-.28-.26-.37-.44-.14-.39-.14-.63q0-.465.18-.75c.12-.2.28-.34.49-.45.21-.1.44-.17.71-.21.26-.04.54-.06.83-.06h.93c0-.21-.03-.39-.1-.54a.83.83 0 0 0-.31-.36c-.14-.09-.32-.13-.54-.13-.14 0-.28.02-.4.05a.9.9 0 0 0-.32.15.5.5 0 0 0-.18.27h-1.12c.04-.25.13-.46.26-.63.13-.18.29-.32.48-.44.19-.11.4-.2.62-.26q.345-.09.69-.09c.69 0 1.19.2 1.51.59.32.4.47.95.47 1.67v2.56h-.97l-.03-.61c-.14.2-.3.35-.5.45-.19.1-.38.16-.56.18-.18.03-.33.04-.46.04Zm.21-.89c.24 0 .45-.04.64-.13s.33-.22.45-.38c.11-.16.17-.35.17-.56v-.15h-.86c-.14 0-.29 0-.43.01-.14 0-.27.03-.38.07s-.21.1-.27.18-.1.19-.1.33.04.26.11.35.17.16.3.21.25.07.39.07Z" fill="#ffffff"></path>
        <path d="M47.68 119.66v-4.74h1.03l.06.6c.13-.17.27-.3.44-.4s.35-.17.53-.21c.19-.04.36-.07.52-.07.45 0 .81.1 1.07.3s.45.46.55.79c.11.33.16.7.16 1.11v2.62h-1.1v-2.44c0-.17-.01-.34-.04-.51-.02-.17-.07-.31-.14-.45-.07-.13-.17-.24-.29-.31s-.29-.12-.5-.12q-.39 0-.66.21c-.27.21-.32.32-.41.55s-.13.49-.13.79v2.28h-1.1Z" fill="#ffffff"></path>
        <path d="M55.17 119.72c-.68 0-1.21-.18-1.57-.53q-.54-.525-.54-1.62v-2.66h1.1v2.58c0 .25.03.47.1.66s.18.33.33.43.35.15.58.15c.25 0 .45-.05.6-.16.15-.1.25-.25.31-.44s.09-.4.09-.64v-2.58h1.1v2.66c0 .74-.18 1.29-.55 1.63-.37.35-.88.52-1.54.52Z" fill="#ffffff"></path>
        <path d="M60.38 119.66c-.38 0-.7-.05-.95-.15s-.43-.27-.56-.5c-.12-.23-.18-.53-.18-.92v-2.21h-.73v-.97h.73v-1.32h1.1v1.32h1.11v.97h-1.11v2.06c0 .24.04.42.13.55s.27.19.57.19h.38v.97h-.48Z" fill="#ffffff"></path>
        <path d="M61.63 119.66v-4.74h1l.06.62c.12-.18.26-.32.41-.42s.32-.17.49-.21q.27-.06.54-.06h.32v1.04h-.29c-.31 0-.58.06-.79.18-.22.12-.38.29-.49.51s-.16.5-.16.82v2.25h-1.1Z" fill="#ffffff"></path>
        <path d="M65.65 114.36c-.21 0-.38-.06-.5-.19s-.19-.29-.19-.5.07-.36.2-.49.3-.19.5-.19.36.06.5.19.21.29.21.5-.07.37-.2.5-.3.19-.5.19Zm-.55 5.3v-4.74h1.1v4.74z" fill="#ffffff"></path>
        <path d="M69.35 119.72c-.49 0-.91-.1-1.24-.3a1.9 1.9 0 0 1-.76-.85 3 3 0 0 1-.26-1.27c0-.48.09-.9.27-1.27s.44-.66.79-.87.77-.32 1.27-.32c.37 0 .69.06.98.19s.52.31.69.55c.18.24.29.54.34.9h-1.08a.86.86 0 0 0-.36-.5c-.17-.1-.36-.16-.59-.16-.31 0-.55.07-.72.22-.18.15-.3.33-.38.55q-.12.33-.12.69c0 .36.04.49.13.71.08.22.21.39.39.53.18.13.41.2.69.2.23 0 .43-.05.62-.15.18-.1.3-.27.36-.5h1.12c-.04.37-.16.67-.37.91-.2.24-.45.42-.76.54q-.465.18-.99.18Zm-.16 2.29h-.33c-.1 0-.2-.01-.29-.02v-.66c.13.01.26.02.38.01s.23-.02.32-.04.17-.07.23-.13.08-.14.08-.23a.24.24 0 0 0-.08-.19.6.6 0 0 0-.2-.09c-.08-.01-.14-.02-.2-.02-.08 0-.17 0-.26.02q-.15.03-.24.06l.33-1.29h.74l-.15.66h.21c.22.01.39.09.52.22s.19.33.19.59c0 .25-.06.45-.17.61q-.165.24-.45.36c-.19.08-.39.13-.61.15Z" fill="#ffffff"></path>
        <path d="M73.8 119.72q-.33 0-.63-.09c-.3-.09-.38-.15-.53-.27s-.28-.26-.37-.44-.14-.39-.14-.63q0-.465.18-.75c.12-.2.28-.34.49-.45.21-.1.44-.17.71-.21.26-.04.54-.06.83-.06h.93c0-.21-.03-.39-.1-.54a.83.83 0 0 0-.31-.36c-.14-.09-.32-.13-.54-.13-.14 0-.28.02-.4.05a.9.9 0 0 0-.32.15.5.5 0 0 0-.18.27H72.3c.04-.25.13-.46.26-.63.13-.18.29-.32.48-.44.19-.11.4-.2.62-.26q.345-.09.69-.09c.69 0 1.19.2 1.51.59.32.4.47.95.47 1.67v2.56h-.97l-.03-.61c-.14.2-.3.35-.5.45-.19.1-.38.16-.56.18-.18.03-.33.04-.46.04Zm1.25-5.38c-.17 0-.32-.03-.44-.09-.13-.06-.24-.14-.34-.22s-.19-.16-.27-.22a.4.4 0 0 0-.24-.09c-.08 0-.15.04-.18.11-.04.07-.06.15-.07.25s0 .17 0 .23h-.79c-.01-.23.01-.45.07-.66s.16-.38.32-.52c.15-.13.37-.2.64-.2.16 0 .29.03.4.09s.22.13.31.22.18.15.26.22c.08.06.16.09.23.09.1 0 .16-.03.2-.1s.06-.15.06-.23v-.23H76c0 .22-.02.44-.07.65s-.15.38-.28.52c-.14.13-.34.2-.6.2Zm-1.03 4.49c.24 0 .45-.04.64-.13s.33-.22.45-.38c.11-.16.17-.35.17-.56v-.15h-.86c-.14 0-.29 0-.43.01-.14 0-.27.03-.38.07s-.21.1-.27.18-.1.19-.1.33.04.26.11.35.17.16.3.21.25.07.39.07Z" fill="#ffffff"></path>
        <path d="M79.53 119.72c-.49 0-.9-.1-1.26-.3-.35-.2-.62-.48-.81-.85s-.28-.79-.28-1.29.1-.93.29-1.29.46-.65.81-.85.76-.31 1.25-.31.89.1 1.24.31c.35.2.61.49.8.86s.28.8.28 1.3-.09.91-.28 1.27c-.18.36-.45.64-.8.84s-.77.3-1.25.3Zm-.01-1c.3 0 .54-.07.72-.2s.32-.31.4-.52c.08-.22.13-.45.13-.7s-.04-.49-.13-.71a1.2 1.2 0 0 0-.4-.54c-.18-.13-.42-.2-.72-.2s-.54.07-.73.2-.32.31-.41.53c-.08.22-.13.46-.13.72s.04.49.13.71.22.39.41.52c.18.13.42.19.72.19Z" fill="#ffffff"></path>
        <path d="M87.4 119.72c-.49 0-.9-.1-1.26-.3-.35-.2-.62-.48-.81-.85s-.28-.79-.28-1.29.1-.93.29-1.29.46-.65.81-.85.76-.31 1.25-.31.89.1 1.24.31c.35.2.61.49.8.86s.28.8.28 1.3-.09.91-.28 1.27c-.18.36-.45.64-.8.84s-.77.3-1.25.3Zm-.01-1c.3 0 .54-.07.72-.2s.32-.31.4-.52c.08-.22.13-.45.13-.7s-.04-.49-.13-.71a1.2 1.2 0 0 0-.4-.54c-.18-.13-.42-.2-.72-.2s-.54.07-.73.2-.32.31-.41.53c-.08.22-.13.46-.13.72s.04.49.13.71.22.39.41.52c.18.13.42.19.72.19Zm-.57-4.41.94-1.45h1.17l-1.16 1.45h-.94Z" fill="#ffffff"></path>
        <path d="M92.68 119.66c-.38 0-.7-.05-.95-.15s-.43-.27-.56-.5c-.12-.23-.18-.53-.18-.92v-2.21h-.73v-.97h.73v-1.32h1.1v1.32h1.11v.97h-1.11v2.06c0 .24.04.42.13.55s.27.19.57.19h.38v.97h-.48Z" fill="#ffffff"></path>
        <path d="M94.47 114.36c-.21 0-.38-.06-.5-.19s-.19-.29-.19-.5.07-.36.2-.49.3-.19.5-.19.36.06.5.19.21.29.21.5-.07.37-.2.5-.3.19-.5.19Zm-.55 5.3v-4.74h1.1v4.74z" fill="#ffffff"></path>
        <path d="M96.08 119.66v-4.74h1.01l.07.54c.12-.16.25-.29.39-.37.14-.09.29-.15.44-.18.15-.04.3-.05.44-.05.3 0 .56.06.77.18s.38.3.5.54c.12-.17.25-.3.4-.41.15-.1.31-.18.48-.23s.34-.08.53-.08c.37 0 .66.08.88.23s.38.36.49.63c.1.27.15.57.15.91v3.04h-1.1v-2.69c0-.12 0-.25-.02-.38s-.04-.25-.09-.37a.7.7 0 0 0-.22-.28c-.1-.07-.23-.11-.41-.11s-.32.04-.43.11-.2.17-.27.3c-.07.12-.12.26-.14.41-.03.15-.04.29-.04.44v2.57h-1.1v-2.7c0-.11 0-.24-.02-.36-.01-.13-.04-.25-.09-.37s-.12-.21-.22-.28a.7.7 0 0 0-.41-.11q-.375 0-.57.21c-.13.14-.22.31-.26.5s-.07.39-.07.57v2.55h-1.1Z" fill="#ffffff"></path>
        <path d="M105.16 119.72q-.33 0-.63-.09c-.3-.09-.38-.15-.53-.27s-.28-.26-.37-.44-.14-.39-.14-.63q0-.465.18-.75c.12-.2.28-.34.49-.45.21-.1.44-.17.71-.21.26-.04.54-.06.83-.06h.93c0-.21-.03-.39-.1-.54a.83.83 0 0 0-.31-.36c-.14-.09-.32-.13-.54-.13-.14 0-.28.02-.4.05a.9.9 0 0 0-.32.15.5.5 0 0 0-.18.27h-1.12c.04-.25.13-.46.26-.63.13-.18.29-.32.48-.44.19-.11.4-.2.62-.26q.345-.09.69-.09c.69 0 1.19.2 1.51.59.32.4.47.95.47 1.67v2.56h-.97l-.03-.61c-.14.2-.3.35-.5.45-.19.1-.38.16-.56.18-.18.03-.33.04-.46.04Zm.22-.89c.24 0 .45-.04.64-.13s.33-.22.45-.38c.11-.16.17-.35.17-.56v-.15h-.86c-.14 0-.29 0-.43.01-.14 0-.27.03-.38.07s-.21.1-.27.18-.1.19-.1.33.04.26.11.35.17.16.3.21.25.07.39.07Z" fill="#ffffff"></path>
        <path d="M113.34 119.72c-.49 0-.91-.1-1.26-.31s-.61-.49-.78-.85-.27-.78-.27-1.26.09-.9.28-1.27c.18-.37.45-.66.79-.87s.76-.32 1.25-.32c.36 0 .67.06.95.19.27.13.5.3.68.53.18.22.32.47.41.76.09.28.13.58.13.89 0 .07-.01.14-.02.21 0 .07-.01.14-.03.22h-3.33c.02.21.07.4.17.58s.23.31.4.41.38.15.64.15c.15 0 .29-.02.43-.06s.26-.1.36-.18q.165-.12.21-.3h1.1c-.08.34-.22.62-.43.84s-.46.38-.75.48-.6.15-.92.15Zm-1.19-2.9h2.29c0-.2-.04-.38-.13-.54s-.22-.29-.38-.38-.36-.14-.6-.14q-.375 0-.63.15a1 1 0 0 0-.39.4q-.135.24-.15.51Z" fill="#ffffff"></path>
        <path d="M120.98 119.72c-.68 0-1.21-.18-1.57-.53q-.54-.525-.54-1.62v-2.66h1.1v2.58c0 .25.03.47.1.66s.18.33.33.43.35.15.58.15c.25 0 .45-.05.6-.16.15-.1.25-.25.31-.44s.09-.4.09-.64v-2.58h1.1v2.66c0 .74-.18 1.29-.55 1.63-.37.35-.88.52-1.54.52Z" fill="#ffffff"></path>
        <path d="M124.12 119.66v-4.74h1.01l.07.54c.12-.16.25-.29.39-.37.14-.09.29-.15.44-.18.15-.04.3-.05.44-.05.3 0 .56.06.77.18s.38.3.5.54c.12-.17.25-.3.4-.41.15-.1.31-.18.48-.23s.34-.08.53-.08c.37 0 .66.08.88.23s.38.36.49.63c.1.27.15.57.15.91v3.04h-1.1v-2.69c0-.12 0-.25-.02-.38s-.04-.25-.09-.37a.7.7 0 0 0-.22-.28c-.1-.07-.23-.11-.41-.11s-.32.04-.43.11-.2.17-.27.3c-.07.12-.12.26-.14.41-.03.15-.04.29-.04.44v2.57h-1.1v-2.7c0-.11 0-.24-.02-.36-.01-.13-.04-.25-.09-.37s-.12-.21-.22-.28a.7.7 0 0 0-.41-.11q-.375 0-.57.21c-.13.14-.22.31-.26.5s-.07.39-.07.57v2.55h-1.1Z" fill="#ffffff"></path>
        <path d="M45.16 129.22c-.23 0-.45-.02-.68-.07q-.345-.075-.63-.24c-.2-.11-.36-.26-.5-.45s-.22-.43-.26-.72h1.11c.05.13.12.24.23.32s.23.14.37.18.28.06.42.06c.08 0 .17 0 .27-.02.1-.01.19-.04.28-.07s.16-.09.21-.16.08-.16.08-.28c0-.11-.03-.19-.09-.26a.7.7 0 0 0-.24-.15c-.1-.04-.22-.07-.37-.09-.26-.05-.53-.11-.83-.17a2.2 2.2 0 0 1-.76-.3.9.9 0 0 1-.23-.19c-.07-.07-.12-.15-.17-.24s-.08-.18-.1-.28q-.03-.15-.03-.33c0-.25.05-.47.16-.64.11-.18.25-.32.42-.43.18-.11.38-.19.61-.25.23-.05.46-.08.7-.08.32 0 .62.05.88.15s.48.26.66.47.28.48.32.8h-1.04q-.045-.225-.27-.36c-.225-.135-.35-.14-.58-.14-.08 0-.17 0-.26.02s-.17.04-.26.07a.43.43 0 0 0-.28.39c0 .09.02.17.07.23.04.07.11.12.21.17.09.04.2.08.33.11.2.04.42.08.64.13.22.04.41.08.58.13.19.05.37.13.52.23q.24.15.36.39c.12.24.13.36.13.61q0 .435-.18.72c-.12.19-.27.34-.46.45s-.4.19-.64.23c-.23.05-.46.07-.69.07Z" fill="#ffffff"></path>
        <path d="M49.45 129.22q-.33 0-.63-.09c-.3-.09-.38-.15-.53-.27s-.28-.26-.37-.44-.14-.39-.14-.63q0-.465.18-.75c.12-.2.28-.34.49-.45.21-.1.44-.17.71-.21.26-.04.54-.06.83-.06h.93c0-.21-.03-.39-.1-.54a.83.83 0 0 0-.31-.36c-.14-.09-.32-.13-.54-.13-.14 0-.28.02-.4.05a.9.9 0 0 0-.32.15.5.5 0 0 0-.18.27h-1.12c.04-.25.13-.46.26-.63.13-.18.29-.32.48-.44.19-.11.4-.2.62-.26q.345-.09.69-.09c.69 0 1.19.2 1.51.59.32.4.47.95.47 1.67v2.56h-.97l-.03-.61c-.14.2-.3.35-.5.45-.19.1-.38.16-.56.18-.18.03-.33.04-.46.04Zm.22-.89c.24 0 .45-.04.64-.13s.33-.22.45-.38c.11-.16.17-.35.17-.56v-.15h-.86c-.14 0-.29 0-.43.01-.14 0-.27.03-.38.07s-.21.1-.27.18-.1.19-.1.33.04.26.11.35.17.16.3.21.25.07.39.07Z" fill="#ffffff"></path>
        <path d="M55.55 129.22c-.17 0-.35-.02-.52-.05s-.34-.1-.5-.19-.3-.21-.44-.36l-.03.54H53v-6.36h1.1v2.21c.17-.22.4-.39.67-.5s.56-.17.85-.17c.47 0 .85.11 1.16.32.3.21.53.5.67.87s.22.78.22 1.24-.08.88-.23 1.25-.39.66-.7.88-.71.32-1.2.32Zm-.18-.97q.465 0 .72-.21c.18-.14.3-.33.38-.55q.12-.345.12-.72c0-.375-.04-.5-.12-.71-.08-.22-.21-.39-.39-.52s-.42-.2-.72-.2c-.28 0-.51.07-.7.21s-.33.32-.43.55c-.1.22-.14.46-.14.7s.04.49.13.71.22.4.41.54.43.21.73.21Z" fill="#ffffff"></path>
        <path d="M60.73 129.22c-.49 0-.9-.1-1.26-.3-.35-.2-.62-.48-.81-.85s-.28-.79-.28-1.29.1-.93.29-1.29.46-.65.81-.85.76-.31 1.25-.31.89.1 1.24.31c.35.2.61.49.8.86s.28.8.28 1.3-.09.91-.28 1.27c-.18.36-.45.64-.8.84s-.77.3-1.25.3Zm-.01-1c.3 0 .54-.07.72-.2s.32-.31.4-.52c.08-.22.13-.45.13-.7s-.04-.49-.13-.71a1.2 1.2 0 0 0-.4-.54c-.18-.13-.42-.2-.72-.2s-.54.07-.73.2-.32.31-.41.53c-.08.22-.13.46-.13.72s.04.49.13.71.22.39.41.52c.18.13.42.19.72.19Z" fill="#ffffff"></path>
        <path d="M63.93 129.16v-4.74h1l.06.62c.12-.18.26-.32.41-.42s.32-.17.49-.21q.27-.06.54-.06h.32v1.04h-.29c-.31 0-.58.06-.79.18-.22.12-.38.29-.49.51s-.16.5-.16.82v2.25h-1.1Z" fill="#ffffff"></path>
        <path d="M70.46 123.86c-.21 0-.38-.06-.5-.19s-.19-.29-.19-.5.07-.36.2-.49.3-.19.5-.19.36.06.5.19.21.29.21.5-.07.37-.2.5-.3.19-.5.19Zm-.55 5.3v-4.74h1.1v4.74z" fill="#ffffff"></path>
        <path d="M72.07 129.16v-4.74h1l.06.62c.12-.18.26-.32.41-.42s.32-.17.49-.21q.27-.06.54-.06h.32v1.04h-.29c-.31 0-.58.06-.79.18-.22.12-.38.29-.49.51s-.16.5-.16.82v2.25h-1.1Z" fill="#ffffff"></path>
        <path d="M75.54 129.16v-4.74h1l.06.62c.12-.18.26-.32.41-.42s.32-.17.49-.21q.27-.06.54-.06h.32v1.04h-.29c-.31 0-.58.06-.79.18-.22.12-.38.29-.49.51s-.16.5-.16.82v2.25h-1.1Z" fill="#ffffff"></path>
        <path d="M81.14 129.22c-.49 0-.91-.1-1.26-.31s-.61-.49-.78-.85-.27-.78-.27-1.26.09-.9.28-1.27c.18-.37.45-.66.79-.87s.76-.32 1.25-.32c.36 0 .67.06.95.19.27.13.5.3.68.53.18.22.32.47.41.76.09.28.13.58.13.89 0 .07-.01.14-.02.21 0 .07-.01.14-.03.22h-3.33c.02.21.07.4.17.58s.23.31.4.41.38.15.64.15c.15 0 .29-.02.43-.06s.26-.1.36-.18q.165-.12.21-.3h1.1c-.08.34-.22.62-.43.84s-.46.38-.75.48-.6.15-.92.15Zm-1.19-2.9h2.29c0-.2-.04-.38-.13-.54s-.22-.29-.38-.38-.36-.14-.6-.14q-.375 0-.63.15a1 1 0 0 0-.39.4q-.135.24-.15.51Z" fill="#ffffff"></path>
        <path d="M86 129.22c-.23 0-.45-.02-.68-.07q-.345-.075-.63-.24c-.2-.11-.36-.26-.5-.45s-.22-.43-.26-.72h1.11c.05.13.12.24.23.32s.23.14.37.18.28.06.42.06c.08 0 .17 0 .27-.02.1-.01.19-.04.28-.07s.16-.09.21-.16.08-.16.08-.28c0-.11-.03-.19-.09-.26a.7.7 0 0 0-.24-.15c-.1-.04-.22-.07-.37-.09-.26-.05-.53-.11-.83-.17a2.2 2.2 0 0 1-.76-.3.9.9 0 0 1-.23-.19c-.07-.07-.12-.15-.17-.24s-.08-.18-.1-.28q-.03-.15-.03-.33c0-.25.05-.47.16-.64.11-.18.25-.32.42-.43.18-.11.38-.19.61-.25.23-.05.46-.08.7-.08.32 0 .62.05.88.15s.48.26.66.47.28.48.32.8h-1.04q-.045-.225-.27-.36c-.225-.135-.35-.14-.58-.14-.08 0-.17 0-.26.02s-.17.04-.26.07a.43.43 0 0 0-.28.39c0 .09.02.17.07.23.04.07.11.12.21.17.09.04.2.08.33.11.2.04.42.08.64.13.22.04.41.08.58.13.19.05.37.13.52.23q.24.15.36.39c.12.24.13.36.13.61q0 .435-.18.72c-.12.19-.27.34-.46.45s-.4.19-.64.23c-.23.05-.46.07-.69.07Z" fill="#ffffff"></path>
        <path d="M89.33 123.86c-.21 0-.38-.06-.5-.19s-.19-.29-.19-.5.07-.36.2-.49.3-.19.5-.19.36.06.5.19.21.29.21.5-.07.37-.2.5-.3.19-.5.19Zm-.55 5.3v-4.74h1.1v4.74z" fill="#ffffff"></path>
        <path d="M92.76 129.22c-.23 0-.45-.02-.68-.07q-.345-.075-.63-.24c-.2-.11-.36-.26-.5-.45s-.22-.43-.26-.72h1.11c.05.13.12.24.23.32s.23.14.37.18.28.06.42.06c.08 0 .17 0 .27-.02.1-.01.19-.04.28-.07s.16-.09.21-.16.08-.16.08-.28c0-.11-.03-.19-.09-.26a.7.7 0 0 0-.24-.15c-.1-.04-.22-.07-.37-.09-.26-.05-.53-.11-.83-.17a2.2 2.2 0 0 1-.76-.3.9.9 0 0 1-.23-.19c-.07-.07-.12-.15-.17-.24s-.08-.18-.1-.28q-.03-.15-.03-.33c0-.25.05-.47.16-.64.11-.18.25-.32.42-.43.18-.11.38-.19.61-.25.23-.05.46-.08.7-.08.32 0 .62.05.88.15s.48.26.66.47.28.48.32.8h-1.04q-.045-.225-.27-.36c-.225-.135-.35-.14-.58-.14-.08 0-.17 0-.26.02s-.17.04-.26.07a.43.43 0 0 0-.28.39c0 .09.02.17.07.23.04.07.11.12.21.17.09.04.2.08.33.11.2.04.42.08.64.13.22.04.41.08.58.13.19.05.37.13.52.23q.24.15.36.39c.12.24.13.36.13.61q0 .435-.18.72c-.12.19-.27.34-.46.45s-.4.19-.64.23c-.23.05-.46.07-.69.07Z" fill="#ffffff"></path>
        <path d="M97.52 129.16c-.38 0-.7-.05-.95-.15s-.43-.27-.56-.5c-.12-.23-.18-.53-.18-.92v-2.21h-.73v-.97h.73v-1.32h1.1v1.32h1.11v.97h-1.11v2.06c0 .24.04.42.13.55s.27.19.57.19h.38v.97h-.48Z" fill="#ffffff"></path>
        <path d="m98.73 123.81.94-1.45h1.17l-1.16 1.45zm.03 5.35v-4.74h1.1v4.74z" fill="#ffffff"></path>
        <path d="m102.13 129.16-1.72-4.74h1.22l1.25 3.81 1.24-3.81h1.21l-1.72 4.74z" fill="#ffffff"></path>
        <path d="M108 129.22c-.49 0-.91-.1-1.26-.31s-.61-.49-.78-.85-.27-.78-.27-1.26.09-.9.28-1.27c.18-.37.45-.66.79-.87s.76-.32 1.25-.32c.36 0 .67.06.95.19.27.13.5.3.68.53.18.22.32.47.41.76.09.28.13.58.13.89 0 .07-.01.14-.02.21 0 .07-.01.14-.03.22h-3.33c.02.21.07.4.17.58s.23.31.4.41.38.15.64.15c.15 0 .29-.02.43-.06s.26-.1.36-.18q.165-.12.21-.3h1.1c-.08.34-.22.62-.43.84s-.46.38-.75.48-.6.15-.92.15Zm-1.19-2.9h2.29c0-.2-.04-.38-.13-.54s-.22-.29-.38-.38-.36-.14-.6-.14q-.375 0-.63.15a1 1 0 0 0-.39.4q-.135.24-.15.51Z" fill="#ffffff"></path>
        <path d="M111.04 129.16v-6.36h1.1v6.36z" fill="#ffffff"></path>
        <path d="M113.89 129.26c-.19 0-.36-.06-.49-.19s-.2-.3-.2-.51a.686.686 0 0 1 .71-.71c.2 0 .35.07.49.19s.2.3.2.52-.07.39-.2.51-.3.19-.5.19Z" fill="#ffffff"></path>
    </g>
</svg>